<svg xmlns="http://www.w3.org/2000/svg" xmlns:xlink="http://www.w3.org/1999/xlink" width="107" height="107" viewBox="0 0 107 107">
  <defs>
    <clipPath id="clip-path">
      <rect id="Rect치ngulo_34449" data-name="Rect치ngulo 34449" width="66" height="66" transform="translate(2474 -10446)" fill="#fff"/>
    </clipPath>
  </defs>
  <g id="Grupo_84022" data-name="Grupo 84022" transform="translate(-3486 10467)">
    <circle id="Elipse_4789" data-name="Elipse 4789" cx="53.5" cy="53.5" r="53.5" transform="translate(3486 -10467)" fill="#3c3fa7"/>
    <g id="Enmascarar_grupo_119" data-name="Enmascarar grupo 119" transform="translate(1033)" clip-path="url(#clip-path)">
      <g id="panadero" transform="translate(2474.002 -10445.999)">
        <path id="Trazado_116845" data-name="Trazado 116845" d="M39.186,36.092H49.5v8.25H39.186Z" transform="translate(88.684 80.435) rotate(180)" fill="#e6f0ff"/>
        <rect id="Rect치ngulo_34454" data-name="Rect치ngulo 34454" width="28.874" height="6.187" rx="3.094" transform="translate(58.779 32.999) rotate(180)" fill="#ebbb96"/>
        <path id="Trazado_116846" data-name="Trazado 116846" d="M30.936,44.342H57.748V64.966H30.936Z" transform="translate(88.684 109.309) rotate(180)" fill="#f1f6ff"/>
        <path id="Trazado_116847" data-name="Trazado 116847" d="M57.748,46.4H31.968a6.2,6.2,0,0,0-1.031.093V64.966H57.748Z" fill="#e6f0ff"/>
        <path id="Trazado_116848" data-name="Trazado 116848" d="M57.748,44.342h7.218V64.966a7.218,7.218,0,0,1-7.218-7.218Z" transform="translate(122.714 109.309) rotate(180)" fill="#fff"/>
        <path id="Trazado_116849" data-name="Trazado 116849" d="M59.81,46.4H57.748V64.966h7.218V51.561a7.18,7.18,0,0,0-1.19-3.966A7.18,7.18,0,0,0,59.81,46.4Z" fill="#f1f6ff"/>
        <path id="Trazado_116850" data-name="Trazado 116850" d="M23.718,44.342h7.218V57.748a7.218,7.218,0,0,1-7.218,7.218Z" transform="translate(54.654 109.309) rotate(180)" fill="#fff"/>
        <path id="Trazado_116851" data-name="Trazado 116851" d="M25.78,52.592V64.966h5.156V46.5A6.184,6.184,0,0,0,25.78,52.592Z" fill="#f1f6ff"/>
        <path id="Trazado_116852" data-name="Trazado 116852" d="M34.03,14.634v4.959H54.654V14.634A6.182,6.182,0,0,0,49.3,3.527a6.171,6.171,0,0,0-9.913,0A6.182,6.182,0,0,0,34.03,14.634Z" fill="#f1f6ff"/>
        <path id="Trazado_116853" data-name="Trazado 116853" d="M51.361,5.589a6.171,6.171,0,0,0-9.913,0,6.161,6.161,0,0,0-2.262-.433C35.769,5.156,33,6.895,33,10.312c0,2.289,1.246,3.251,3.094,4.322v4.959H54.654V14.634a6.167,6.167,0,0,0,2.185-8.569,6.138,6.138,0,0,0-5.478-.476Z" fill="#e6f0ff"/>
        <path id="Trazado_116854" data-name="Trazado 116854" d="M31.968,19.593H56.717v4.125H31.968Z" transform="translate(88.684 43.311) rotate(180)" fill="#f1f6ff"/>
        <path id="Trazado_116855" data-name="Trazado 116855" d="M34.03,21.655H56.717v2.062H34.03Z" fill="#e6f0ff"/>
        <path id="Trazado_116856" data-name="Trazado 116856" d="M39.186,41.14a12.23,12.23,0,0,0,10.312,0V36.092H39.186Z" fill="#d7e4f7"/>
        <path id="Trazado_116857" data-name="Trazado 116857" d="M44.342,23.718A10.312,10.312,0,0,1,54.654,34.03v6.187H34.03V34.03A10.312,10.312,0,0,1,44.342,23.718Z" transform="translate(88.684 63.935) rotate(180)" fill="#fadcc8"/>
        <path id="Trazado_116858" data-name="Trazado 116858" d="M45.373,40.166a10.312,10.312,0,0,0,9.281-10.261V23.718H36.092v6.187a10.312,10.312,0,0,0,9.281,10.261Z" fill="#f0cdb4"/>
        <path id="Trazado_116859" data-name="Trazado 116859" d="M1.031,55.823c0,5.771,7.387,6.05,16.5,6.05s16.5-.278,16.5-6.05-7.387-10.45-16.5-10.45S1.031,50.052,1.031,55.823Z" fill="#cd9d67"/>
        <path id="Trazado_116860" data-name="Trazado 116860" d="M19.593,47.436c-9.112,0-16.5,4.679-16.5,10.45a4.946,4.946,0,0,0,.5,2.237c2.925,1.625,8.065,1.75,13.936,1.75,9.112,0,16.5-.278,16.5-6.05a7.45,7.45,0,0,0-1.662-4.548A21.191,21.191,0,0,0,19.593,47.436Z" fill="#be8959"/>
        <path id="Trazado_116861" data-name="Trazado 116861" d="M15.468,51.561v-6.1c.677-.054,1.362-.09,2.062-.09s1.385.037,2.062.09v6.1a2.062,2.062,0,0,1-4.125,0Z" fill="#f5dfb7"/>
        <path id="Trazado_116862" data-name="Trazado 116862" d="M19.593,47.436a25.552,25.552,0,0,0-4.125.343v3.782a2.062,2.062,0,0,0,4.125,0Z" fill="#f1d29a"/>
        <path id="Trazado_116863" data-name="Trazado 116863" d="M8.25,53.623a2.062,2.062,0,0,1-2.062-2.062V48.248a18.8,18.8,0,0,1,4.125-1.81v5.123A2.062,2.062,0,0,1,8.25,53.623Z" fill="#f5dfb7"/>
        <path id="Trazado_116864" data-name="Trazado 116864" d="M6.21,51.79a2.057,2.057,0,0,0,4.1-.229V49.247a15.515,15.515,0,0,0-4.1,2.543Z" fill="#f1d29a"/>
        <path id="Trazado_116865" data-name="Trazado 116865" d="M28.874,48.248v3.313a2.062,2.062,0,0,1-4.125,0V46.437a18.8,18.8,0,0,1,4.125,1.81Z" fill="#f5dfb7"/>
        <path id="Trazado_116866" data-name="Trazado 116866" d="M26.812,53.623a2.062,2.062,0,0,0,2.062-2.062V49.247a21.487,21.487,0,0,0-4.125-1.283v3.6a2.062,2.062,0,0,0,2.062,2.062Z" fill="#f1d29a"/>
        <path id="Trazado_116867" data-name="Trazado 116867" d="M1.031,60.842h33v4.125h-33Z" transform="translate(35.061 125.808) rotate(180)" fill="#bbc2cc"/>
        <path id="Trazado_116868" data-name="Trazado 116868" d="M3.094,62.9H34.03v2.062H3.094Z" fill="#a7aebb"/>
        <path id="Trazado_116869" data-name="Trazado 116869" d="M57.748,43.311H50.529V39.4A11.4,11.4,0,0,0,54.9,34.03h.788a4.125,4.125,0,1,0,0-8.25V24.749h1.031a1.031,1.031,0,0,0,1.031-1.031V19.593a1.031,1.031,0,0,0-1.031-1.031H55.685V15.2A7.214,7.214,0,0,0,51.561,2.062a7.133,7.133,0,0,0-1.92.263,7.2,7.2,0,0,0-10.6,0,7.126,7.126,0,0,0-1.919-.263A7.214,7.214,0,0,0,33,15.2v3.364H31.968a1.031,1.031,0,0,0-1.031,1.031v4.125a1.031,1.031,0,0,0,1.031,1.031H33V25.78a4.125,4.125,0,1,0,0,8.25h.788a11.4,11.4,0,0,0,4.368,5.37v3.911H30.936A8.253,8.253,0,0,0,25.31,45.55a25.16,25.16,0,0,0-7.779-1.208C7.864,44.342,0,49.492,0,55.823A5.543,5.543,0,0,0,1.528,59.81h-.5A1.031,1.031,0,0,0,0,60.842v4.125A1.031,1.031,0,0,0,1.031,66H64.966A1.031,1.031,0,0,0,66,64.966V51.561a8.259,8.259,0,0,0-8.25-8.25Zm0-13.406a2.064,2.064,0,0,1-2.062,2.062h-.2a11.331,11.331,0,0,0,.2-2.062V27.843A2.064,2.064,0,0,1,57.748,29.905ZM31.968,9.281a5.147,5.147,0,0,1,7.04-4.8,1.031,1.031,0,0,0,1.2-.343,5.14,5.14,0,0,1,8.261,0,1.032,1.032,0,0,0,1.2.343,5.151,5.151,0,0,1,4.461,9.256,1.031,1.031,0,0,0-.514.892v3.928H35.061V14.634a1.031,1.031,0,0,0-.514-.892,5.176,5.176,0,0,1-2.58-4.461ZM33,31.968a2.062,2.062,0,0,1,0-4.125v2.062a11.33,11.33,0,0,0,.2,2.062Zm0-9.281V20.624H55.685v2.062Zm2.062,7.218V24.749H53.623v5.156a9.281,9.281,0,0,1-18.562,0ZM48.467,40.461v2.85h-8.25v-2.85a11.192,11.192,0,0,0,8.25,0ZM29.905,45.469V47.7a18.094,18.094,0,0,0-2.368-1.29,6.191,6.191,0,0,1,2.368-.94Zm-4.125,2.4a17.216,17.216,0,0,1,2.062.953v2.738a1.031,1.031,0,0,1-2.062,0ZM16.5,46.437c.342-.014.683-.032,1.031-.032s.689.018,1.031.032v5.124a1.031,1.031,0,0,1-2.062,0ZM7.218,48.823a17.216,17.216,0,0,1,2.062-.953v3.691a1.031,1.031,0,0,1-2.062,0ZM33,63.935H2.062V61.873H33ZM29.566,59.81H5.495c-2.367-.773-3.432-2-3.432-3.987A7.383,7.383,0,0,1,5.156,50.2v1.365a3.094,3.094,0,1,0,6.187,0V47.2a22.936,22.936,0,0,1,3.094-.6v4.966a3.094,3.094,0,1,0,6.187,0V46.594a22.936,22.936,0,0,1,3.094.6v4.364a3.094,3.094,0,1,0,6.187,0V50.2A7.383,7.383,0,0,1,33,55.823C33,57.806,31.933,59.038,29.566,59.81Zm27.15,4.125H35.061V60.842A1.031,1.031,0,0,0,34.03,59.81h-.5a5.543,5.543,0,0,0,1.528-3.987,9,9,0,0,0-3.094-6.5V45.373H56.717Zm7.218,0H58.779V45.466a6.192,6.192,0,0,1,5.156,6.094Z"/>
        <path id="Trazado_116870" data-name="Trazado 116870" d="M48.467,33A1.031,1.031,0,0,0,46.4,33a2.062,2.062,0,0,1-4.125,0,1.031,1.031,0,1,0-2.062,0,4.125,4.125,0,1,0,8.25,0Z"/>
        <circle id="Elipse_4794" data-name="Elipse 4794" cx="1.031" cy="1.031" r="1.031" transform="translate(48.467 26.812)"/>
        <circle id="Elipse_4795" data-name="Elipse 4795" cx="1.031" cy="1.031" r="1.031" transform="translate(38.155 26.812)"/>
        <circle id="Elipse_4796" data-name="Elipse 4796" cx="1.031" cy="1.031" r="1.031" transform="translate(43.311 50.529)"/>
        <circle id="Elipse_4797" data-name="Elipse 4797" cx="1.031" cy="1.031" r="1.031" transform="translate(43.311 56.717)"/>
        <path id="Trazado_116871" data-name="Trazado 116871" d="M20.624,34.03H16.413a4.043,4.043,0,0,0-4.039,4.039v3.18a1.031,1.031,0,0,0,2.062,0v-3.18a1.979,1.979,0,0,1,1.976-1.976h4.211a4.125,4.125,0,0,0,0-8.25H17.531a1.031,1.031,0,0,0,0,2.062h3.094a2.062,2.062,0,1,1,0,4.125Z"/>
        <path id="Trazado_116872" data-name="Trazado 116872" d="M9.281,29.905h4.125a1.031,1.031,0,1,0,0-2.062H9.281a3.094,3.094,0,1,1,0-6.187h4.125a1.031,1.031,0,1,0,0-2.062H9.281a5.156,5.156,0,0,0,0,10.312Z"/>
        <path id="Trazado_116873" data-name="Trazado 116873" d="M17.531,19.593a1.031,1.031,0,0,0,0,2.062,5.156,5.156,0,1,0,0-10.312,1.031,1.031,0,1,0,0,2.062,3.094,3.094,0,1,1,0,6.187Z"/>
      </g>
    </g>
  </g>
</svg>
