<svg xmlns="http://www.w3.org/2000/svg" xmlns:xlink="http://www.w3.org/1999/xlink" width="107" height="107" viewBox="0 0 107 107">
  <defs>
    <clipPath id="clip-path">
      <rect id="Rectángulo_34450" data-name="Rectángulo 34450" width="66" height="66" transform="translate(2725 -10446)" fill="#fff"/>
    </clipPath>
  </defs>
  <g id="Grupo_84023" data-name="Grupo 84023" transform="translate(-3737 10467)">
    <circle id="Elipse_4790" data-name="Elipse 4790" cx="53.5" cy="53.5" r="53.5" transform="translate(3737 -10467)" fill="#3c3fa7"/>
    <g id="Enmascarar_grupo_120" data-name="Enmascarar grupo 120" transform="translate(1033)" clip-path="url(#clip-path)">
      <g id="carnicero" transform="translate(2725 -10446.001)">
        <path id="Trazado_116874" data-name="Trazado 116874" d="M39.2,47.159V57.75H21.665v1.031H19.293a1.749,1.749,0,0,1-1.237-.516,1.773,1.773,0,0,0-1.248-.516h-1.33V51.562H34.194a.876.876,0,0,0,.877-.877V41.229a15.581,15.581,0,0,1,2.341,1.011A15.312,15.312,0,0,0,39.2,47.159Z" fill="#636a74"/>
        <path id="Trazado_116875" data-name="Trazado 116875" d="M60.78,46.086a10.888,10.888,0,0,0,.062-9.4,11.9,11.9,0,0,0-2.052-3.166,7.657,7.657,0,0,1-1.815-3.269c-.041-.165-.083-.34-.113-.526a9.67,9.67,0,0,1-.031-3.269,3.3,3.3,0,0,0-.743-2.692c-.062-.072-.134-.144-.217-.227-.01,0-.01-.01-.021-.021a3.315,3.315,0,0,0-2.929-.753c-.1.021-.206.041-.32.072a16.011,16.011,0,0,0-7.93,4.372,16.225,16.225,0,0,0-4.434,11.488,12.771,12.771,0,0,0,2.846,8.673,11.832,11.832,0,0,0,2.052,1.97,10.831,10.831,0,0,0,9.529,1.8,9.943,9.943,0,0,0,6.115-5.053ZM39.2,47.159a15.312,15.312,0,0,1-1.784-4.919,15.8,15.8,0,0,1-.268-3.578A18.749,18.749,0,0,1,52.3,19.728a1.491,1.491,0,0,1,.3-.041,5.182,5.182,0,0,1,1.052-.093,6.324,6.324,0,0,1,4.3,1.65c.186.186.33.33.464.485a6.342,6.342,0,0,1,1.464,5.2,6.786,6.786,0,0,0,.021,2.238c.031.124.052.247.083.361A4.676,4.676,0,0,0,61.1,31.463a14.49,14.49,0,0,1,2.444,16.026,13.17,13.17,0,0,1-11.818,7.167,14.119,14.119,0,0,1-5.775-1.248A14.52,14.52,0,0,1,43.259,51.8a16.12,16.12,0,0,1-2.568-2.465,14.9,14.9,0,0,1-1.5-2.176Z" fill="#f3445a"/>
        <path id="Trazado_116876" data-name="Trazado 116876" d="M52.6,5.156H35.072V9.281H64.957V5.156Z" fill="#a05454"/>
        <path id="Trazado_116877" data-name="Trazado 116877" d="M35.071,41.229v9.456a.876.876,0,0,1-.877.877H15.477V43.622l5.156,3.816,3.1-3.114,4.115,3.114,7.208-6.218a.01.01,0,0,1,.01.01Z" fill="#d8e0eb"/>
        <path id="Trazado_116878" data-name="Trazado 116878" d="M40.392,36.093,50.54,41.208l4.125,9.931a10.831,10.831,0,0,1-9.529-1.8,11.832,11.832,0,0,1-2.052-1.97,12.771,12.771,0,0,1-2.846-8.673,15.929,15.929,0,0,1,.155-2.6Z" fill="#ff5666"/>
        <path id="Trazado_116879" data-name="Trazado 116879" d="M39.2,57.75V47.159a14.9,14.9,0,0,0,1.5,2.176A16.12,16.12,0,0,0,43.259,51.8a14.52,14.52,0,0,0,2.692,1.609,16.141,16.141,0,0,1,.464,3.64v5.785a2.141,2.141,0,0,1-2.145,2.135l-22.6-.01V57.75Z" fill="#d8e0eb"/>
        <path id="Trazado_116880" data-name="Trazado 116880" d="M60.842,36.681a10.888,10.888,0,0,1-.062,9.4,9.943,9.943,0,0,1-6.115,5.053L50.54,41.208Z" fill="#ff5666"/>
        <path id="Trazado_116881" data-name="Trazado 116881" d="M52.922,22.76a3.315,3.315,0,0,1,2.929.753c.01.01.01.021.021.021.083.082.155.155.217.227a3.3,3.3,0,0,1,.742,2.692,9.67,9.67,0,0,0,.031,3.269c.031.186.072.361.113.526a7.657,7.657,0,0,0,1.815,3.269,11.9,11.9,0,0,1,2.052,3.166l-10.3,4.527L40.392,36.093a15.816,15.816,0,0,1,4.28-8.889,16.011,16.011,0,0,1,7.93-4.372c.113-.031.217-.052.32-.072Z" fill="#ff5666"/>
        <path id="Trazado_116882" data-name="Trazado 116882" d="M28.884,33.979v6.249a5.292,5.292,0,0,1-10.312-.01V33.845a7.808,7.808,0,0,0,5.156,2.248,7.922,7.922,0,0,0,5.146-2.124Z" fill="#e5b6a9"/>
        <path id="Trazado_116883" data-name="Trazado 116883" d="M35.071,19.583v.6c-.1,4.692-2.547,10.673-6.2,13.788a7.922,7.922,0,0,1-5.146,2.124,7.808,7.808,0,0,1-5.156-2.248c-3.506-3.125-5.981-8.931-6.177-13.664-.01-.237-.01-.443-.01-.6a46.937,46.937,0,0,0,4.073,5.62c.856,1.031,1.722,1.949,2.547,2.784a3,3,0,0,0,3.156.712,4.749,4.749,0,0,1,1.567-.258,5,5,0,0,1,1.567.258,3.051,3.051,0,0,0,3.217-.866c.794-.835,1.609-1.732,2.434-2.712a60.256,60.256,0,0,0,4.125-5.538Z" fill="#a05454"/>
        <path id="Trazado_116884" data-name="Trazado 116884" d="M35.071,15.469v4.115a60.256,60.256,0,0,1-4.125,5.538c-.825.98-1.64,1.877-2.434,2.712a3.051,3.051,0,0,1-3.217.866,5,5,0,0,0-1.567-.258,4.749,4.749,0,0,0-1.567.258A3,3,0,0,1,19,27.988c-.825-.835-1.691-1.753-2.547-2.784a46.936,46.936,0,0,1-4.073-5.62V15.469Z" fill="#efc5b8"/>
        <path id="Trazado_116885" data-name="Trazado 116885" d="M35.061,41.219l-7.208,6.218-4.115-3.114a5.2,5.2,0,0,0,5.146-4.094,17.663,17.663,0,0,1,6.177.99Z" fill="#e6ecf4"/>
        <path id="Trazado_116886" data-name="Trazado 116886" d="M23.738,44.323l-3.1,3.114-5.156-3.816V40.435a17.292,17.292,0,0,1,3.094-.217,5.215,5.215,0,0,0,5.167,4.1Z" fill="#e6ecf4"/>
        <path id="Trazado_116887" data-name="Trazado 116887" d="M15.477,51.562V57.75H12.384V35.062h3.094Z" fill="#a05454"/>
        <path id="Trazado_116888" data-name="Trazado 116888" d="M7.227,64.958v.01H1.04v-7.93a16.764,16.764,0,0,1,.608-4.228c.1.639.217,1.258.33,1.836H7.227Z" fill="#d8e0eb"/>
        <path id="Trazado_116889" data-name="Trazado 116889" d="M10.321,58.812v5.094a1.061,1.061,0,0,0,1.062,1.062H7.227V54.646h5.156v3.1h-1a1.061,1.061,0,0,0-1.062,1.062Z" fill="#636a74"/>
        <path id="Trazado_116890" data-name="Trazado 116890" d="M20.634,1.031V15.469h-8.25V4.826a2.22,2.22,0,0,1,1.671-2.155Z" fill="#d8e0eb"/>
        <path id="Trazado_116891" data-name="Trazado 116891" d="M21.665,58.781v6.177l-10.281.01a1.061,1.061,0,0,1-1.062-1.062V58.812a1.061,1.061,0,0,1,1.062-1.062h5.424a1.773,1.773,0,0,1,1.248.516,1.749,1.749,0,0,0,1.237.516Z" fill="#efc5b8"/>
        <path id="Trazado_116892" data-name="Trazado 116892" d="M1.648,52.81a51.354,51.354,0,0,1,.34-17.737c3.465,0,6.93-.01,10.395-.01V54.646H1.978C1.865,54.068,1.752,53.449,1.648,52.81Z" fill="#e6ecf4"/>
        <path id="Trazado_116893" data-name="Trazado 116893" d="M35.071,9.281v6.187H20.634V1.031l12.53,1.794a2.21,2.21,0,0,1,1.908,2.186Z" fill="#e6ecf4"/>
        <path id="Trazado_116894" data-name="Trazado 116894" d="M51.732,55.688h0a15.12,15.12,0,0,1-9.093-3.068A16.493,16.493,0,0,1,39.9,49.991a17.026,17.026,0,0,1-3.786-11.374A19.774,19.774,0,0,1,52.1,18.72a7.513,7.513,0,0,1,6.559,1.774A7.3,7.3,0,0,1,60.9,27.088a5.644,5.644,0,0,0,.022,1.895c.018.1.04.207.063.305a3.622,3.622,0,0,0,.881,1.486,15.529,15.529,0,0,1,2.593,17.178A14.01,14.01,0,0,1,61.147,52.2a14.3,14.3,0,0,1-9.415,3.489Zm1.92-35.063a5.693,5.693,0,0,0-1.14.115,17.713,17.713,0,0,0-14.335,17.9,14.977,14.977,0,0,0,3.315,10.039,14.448,14.448,0,0,0,2.393,2.3,13.046,13.046,0,0,0,7.845,2.647,12.242,12.242,0,0,0,8.061-2.981,11.957,11.957,0,0,0,2.832-3.625,13.457,13.457,0,0,0-2.292-14.873,5.619,5.619,0,0,1-1.349-2.382c-.032-.135-.06-.273-.087-.413a7.766,7.766,0,0,1-.03-2.582,5.319,5.319,0,0,0-1.218-4.361,5.419,5.419,0,0,0-.4-.406,5.258,5.258,0,0,0-3.6-1.377Z"/>
        <path id="Trazado_116895" data-name="Trazado 116895" d="M59.562,32.833a6.615,6.615,0,0,1-1.581-2.819c-.036-.155-.071-.315-.1-.478a8.767,8.767,0,0,1-.033-2.929,4.3,4.3,0,0,0-.983-3.528c-.087-.1-.18-.195-.284-.293l-.024-.023,0,0a4.349,4.349,0,0,0-3.835-1.009,16.99,16.99,0,0,0-8.777,4.733,17.194,17.194,0,0,0-4.728,12.156,13.809,13.809,0,0,0,3.077,9.382,13.372,13.372,0,0,0,2.221,2.134A11.918,11.918,0,0,0,51.72,52.6a11.213,11.213,0,0,0,7.395-2.729A10.947,10.947,0,0,0,61.7,46.553a12.418,12.418,0,0,0-2.142-13.72Zm.3,12.787a8.885,8.885,0,0,1-2.1,2.692,9.543,9.543,0,0,1-12,.2,11.335,11.335,0,0,1-1.878-1.8,11.783,11.783,0,0,1-2.606-8.045,15.139,15.139,0,0,1,4.141-10.74,14.935,14.935,0,0,1,7.715-4.153,2.591,2.591,0,0,1,.524-.054,2.19,2.19,0,0,1,1.5.554l.015.015c.056.053.108.107.153.158a2.247,2.247,0,0,1,.49,1.845,10.851,10.851,0,0,0,.042,3.613c.036.2.078.4.123.587a8.642,8.642,0,0,0,2.049,3.716,10.342,10.342,0,0,1,1.841,11.414Z"/>
        <path id="Trazado_116896" data-name="Trazado 116896" d="M54.663,52.179a1.032,1.032,0,0,1-.953-.636L49.733,41.96l-9.8-4.945a1.031,1.031,0,1,1,.929-1.841L51,40.291a1.03,1.03,0,0,1,.488.525l4.125,9.936a1.031,1.031,0,0,1-.953,1.427Z"/>
        <path id="Trazado_116897" data-name="Trazado 116897" d="M50.539,42.243a1.031,1.031,0,0,1-.416-1.976l10.312-4.526a1.032,1.032,0,1,1,.83,1.889L50.953,42.156a1.042,1.042,0,0,1-.414.087Z"/>
        <path id="Trazado_116898" data-name="Trazado 116898" d="M1.039,66A1.031,1.031,0,0,1,.007,64.97V57.039a17.752,17.752,0,0,1,.648-4.5,1.031,1.031,0,0,1,2.033.237v.01a1.035,1.035,0,0,1-.036.272,15.578,15.578,0,0,0-.582,3.977V64.97A1.031,1.031,0,0,1,1.039,66Z"/>
        <path id="Trazado_116899" data-name="Trazado 116899" d="M15.475,41.467a1.031,1.031,0,0,1-.16-2.049,18.925,18.925,0,0,1,3.278-.232,1.031,1.031,0,1,1-.023,2.063h-.023a16.126,16.126,0,0,0-2.909.205.987.987,0,0,1-.162.013Z"/>
        <path id="Trazado_116900" data-name="Trazado 116900" d="M23.708,45.355a6.209,6.209,0,0,1-6.143-4.9,1.063,1.063,0,0,1-.026-.233V33.846a1.031,1.031,0,1,1,2.062,0v6.247a4.179,4.179,0,0,0,4.112,3.2h.019A4.185,4.185,0,0,0,27.851,40.1V33.98a1.031,1.031,0,0,1,2.062,0V40.23a1.015,1.015,0,0,1-.027.234,6.215,6.215,0,0,1-6.15,4.891Z"/>
        <path id="Trazado_116901" data-name="Trazado 116901" d="M23.732,37.126c-6.457,0-12.046-9.245-12.367-16.9-.011-.254-.014-.474-.014-.647v-4.11a1.031,1.031,0,0,1,1.031-1.031H35.07A1.031,1.031,0,0,1,36.1,15.469v4.11c0,.157.005.375,0,.625-.139,6.736-5.142,16.921-12.369,16.921ZM13.414,16.5V19.58c0,.149,0,.339.012.559.277,6.579,5.184,14.924,10.306,14.924,5.8,0,10.184-8.9,10.306-14.9.005-.22,0-.41,0-.563V16.5Z"/>
        <path id="Trazado_116902" data-name="Trazado 116902" d="M34.2,52.595H15.476a1.031,1.031,0,1,1,0-2.062H34.038v-9.32a1.031,1.031,0,0,1,2.062,0v9.48A1.906,1.906,0,0,1,34.2,52.595Z"/>
        <path id="Trazado_116903" data-name="Trazado 116903" d="M7.226,65.99a1.031,1.031,0,0,1-1.031-1.031V54.646a1.031,1.031,0,1,1,2.062,0V64.958A1.031,1.031,0,0,1,7.226,65.99Z"/>
        <path id="Trazado_116904" data-name="Trazado 116904" d="M39.195,58.782a1.031,1.031,0,0,1-1.031-1.031V47.139a1.031,1.031,0,1,1,2.062,0V57.751a1.031,1.031,0,0,1-1.031,1.031Z"/>
        <path id="Trazado_116905" data-name="Trazado 116905" d="M20.632,48.47a1.027,1.027,0,0,1-.613-.2l-5.156-3.819a1.031,1.031,0,1,1,1.227-1.658l4.441,3.289L23.006,43.6a1.029,1.029,0,0,1,1.353-.094l3.45,2.611L34.4,40.429a1.031,1.031,0,1,1,1.347,1.561l-7.219,6.229a1.031,1.031,0,0,1-1.3.041l-3.4-2.571-2.469,2.477a1.029,1.029,0,0,1-.73.3Z"/>
        <path id="Trazado_116906" data-name="Trazado 116906" d="M20.632,16.5A1.031,1.031,0,0,1,19.6,15.469V2.353L14.31,3.676a1.183,1.183,0,0,0-.9,1.149V15.47a1.031,1.031,0,1,1-2.062,0V4.825a3.243,3.243,0,0,1,2.458-3.15L20.383.032a1.032,1.032,0,0,1,1.281,1V15.469A1.031,1.031,0,0,1,20.632,16.5Z"/>
        <path id="Trazado_116907" data-name="Trazado 116907" d="M35.07,16.5a1.031,1.031,0,0,1-1.031-1.031V5.016a1.189,1.189,0,0,0-1.016-1.172L20.486,2.053A1.031,1.031,0,1,1,20.778.011L33.313,1.8A3.261,3.261,0,0,1,36.1,5.016V15.469A1.031,1.031,0,0,1,35.07,16.5Z"/>
        <path id="Trazado_116908" data-name="Trazado 116908" d="M15.476,58.782a1.031,1.031,0,0,1-1.031-1.031V36.095H13.414V57.751a1.031,1.031,0,1,1-2.062,0V35.064a1.031,1.031,0,0,1,1.031-1.031h3.094a1.031,1.031,0,0,1,1.031,1.031V57.751a1.031,1.031,0,0,1-1.031,1.031Z"/>
        <path id="Trazado_116909" data-name="Trazado 116909" d="M1.979,55.683a1.03,1.03,0,0,1-1.012-.834A52.076,52.076,0,0,1,.98,34.874a1.031,1.031,0,0,1,1.011-.833l10.39-.009h0a1.031,1.031,0,0,1,0,2.062L2.848,36.1A50.02,50.02,0,0,0,2.836,53.62l9.542-.006h0a1.031,1.031,0,1,1,0,2.062l-10.4.007Z"/>
        <path id="Trazado_116910" data-name="Trazado 116910" d="M8.277,40.22a1.031,1.031,0,1,1-.01-2.062h.01a1.031,1.031,0,0,1,0,2.062Z"/>
        <path id="Trazado_116911" data-name="Trazado 116911" d="M64.962,10.313H35.07a1.031,1.031,0,1,1,0-2.062H64.962a1.031,1.031,0,1,1,0,2.062Z"/>
        <path id="Trazado_116912" data-name="Trazado 116912" d="M52.6,28.876a1.031,1.031,0,0,1-1.031-1.031V5.157a1.031,1.031,0,1,1,2.062,0V27.844A1.031,1.031,0,0,1,52.6,28.876Z"/>
        <path id="Trazado_116913" data-name="Trazado 116913" d="M21.134,29.907a4.015,4.015,0,0,1-2.856-1.185c-.911-.917-1.79-1.876-2.611-2.85a48.193,48.193,0,0,1-4.161-5.75,1.031,1.031,0,1,1,1.754-1.084,46.237,46.237,0,0,0,3.984,5.5c.784.931,1.625,1.847,2.5,2.725a1.976,1.976,0,0,0,2.09.46,5.875,5.875,0,0,1,3.8,0,2.053,2.053,0,0,0,2.146-.6c.817-.857,1.618-1.753,2.383-2.663a58.406,58.406,0,0,0,4.052-5.447,1.032,1.032,0,1,1,1.724,1.133,60.4,60.4,0,0,1-4.2,5.64c-.792.943-1.622,1.871-2.469,2.76a4.094,4.094,0,0,1-4.3,1.134,3.782,3.782,0,0,0-2.463,0,4.2,4.2,0,0,1-1.365.23Z"/>
        <path id="Trazado_116914" data-name="Trazado 116914" d="M44.268,66,21.662,65.99a1.031,1.031,0,0,1-1.03-1.031V57.751a1.031,1.031,0,0,1,1.031-1.031H40.226a1.031,1.031,0,1,1,0,2.062H22.695v5.146l21.573.01a1.11,1.11,0,0,0,1.114-1.1V57.049a15.161,15.161,0,0,0-.436-3.4,1.031,1.031,0,1,1,2.006-.479,17.131,17.131,0,0,1,.492,3.879v5.786A3.175,3.175,0,0,1,44.268,66Z"/>
        <path id="Trazado_116915" data-name="Trazado 116915" d="M37.409,43.272a1.033,1.033,0,0,1-.48-.119,16.793,16.793,0,0,0-8.012-1.9,1.031,1.031,0,1,1-.068-2.061,18.579,18.579,0,0,1,9.044,2.131,1.031,1.031,0,0,1-.482,1.944Z"/>
        <path id="Trazado_116916" data-name="Trazado 116916" d="M11.379,66a2.092,2.092,0,0,1-2.091-2.093v-5.1a2.1,2.1,0,0,1,2.093-2.093h5.428a2.81,2.81,0,0,1,1.974.818.733.733,0,0,0,.516.213h2.365a1.031,1.031,0,1,1,0,2.062H19.3A2.81,2.81,0,0,1,17.325,59a.733.733,0,0,0-.516-.213H11.381l-.03,5.126,10.311.021h0a1.031,1.031,0,1,1,0,2.062L11.383,66Z"/>
        <path id="Trazado_116917" data-name="Trazado 116917" d="M64.962,6.188H35.073a1.031,1.031,0,0,1,0-2.062H64.962a1.031,1.031,0,1,1,0,2.062Z"/>
      </g>
    </g>
  </g>
</svg>
