<svg xmlns="http://www.w3.org/2000/svg" xmlns:xlink="http://www.w3.org/1999/xlink" width="107" height="107" viewBox="0 0 107 107">
  <defs>
    <clipPath id="clip-path">
      <rect id="Rectángulo_34453" data-name="Rectángulo 34453" width="66" height="66" transform="translate(2230 -10205)" fill="#fff"/>
    </clipPath>
  </defs>
  <g id="Grupo_84024" data-name="Grupo 84024" transform="translate(-3242 10238)">
    <circle id="Elipse_4793" data-name="Elipse 4793" cx="53.5" cy="53.5" r="53.5" transform="translate(3242 -10238)" fill="#3c3fa7"/>
    <g id="Enmascarar_grupo_121" data-name="Enmascarar grupo 121" transform="translate(1033 -12)" clip-path="url(#clip-path)">
      <g id="carpintero" transform="translate(2228.936 -10206.064)">
        <path id="Trazado_116918" data-name="Trazado 116918" d="M66,56.419v2.129H57.484V42.581l.117-.224A15.956,15.956,0,0,1,66,56.419Z" fill="#b4dd7f"/>
        <path id="Trazado_116919" data-name="Trazado 116919" d="M23.419,42.581V54.29H15.968V42.581Z" fill="#b4dd7f"/>
        <path id="Trazado_116920" data-name="Trazado 116920" d="M50.032,40.452H48.968v2.129a8.516,8.516,0,1,1-17.032,0V40.452H30.871a15.05,15.05,0,0,0-3.194.33V66H53.226V40.771A15.775,15.775,0,0,0,50.032,40.452Z" fill="#b4dd7f"/>
        <path id="Trazado_116921" data-name="Trazado 116921" d="M48.968,40.452v2.129L45.21,46.338a2.681,2.681,0,0,1-4.29-.7l-.468-.926Z" fill="#ff826e"/>
        <path id="Trazado_116922" data-name="Trazado 116922" d="M40.452,44.71l-.468.926a2.681,2.681,0,0,1-4.29.7l-3.758-3.758V40.452Z" fill="#ff826e"/>
        <path id="Trazado_116923" data-name="Trazado 116923" d="M27.677,40.782V66H23.419V42.3A15.386,15.386,0,0,1,27.677,40.782Z" fill="#e6e9ed"/>
        <path id="Trazado_116924" data-name="Trazado 116924" d="M57.6,42.357l-.117.224V66H53.226V40.771A16.153,16.153,0,0,1,57.6,42.357Z" fill="#e6e9ed"/>
        <path id="Trazado_116925" data-name="Trazado 116925" d="M45.21,46.338l3.758-3.758a8.516,8.516,0,1,1-17.032,0l3.758,3.758a2.681,2.681,0,0,0,4.29-.7l.468-.926.468.926a2.681,2.681,0,0,0,4.29.7Z" fill="#ccd1d9"/>
        <path id="Trazado_116926" data-name="Trazado 116926" d="M57.484,58.548H66V66H57.484Z" fill="#f0d0b4"/>
        <path id="Trazado_116927" data-name="Trazado 116927" d="M15.968,42.581v9.581H9.581a2.135,2.135,0,0,1-2.129-2.129V36.194h8.516Z" fill="#f0d0b4"/>
        <path id="Trazado_116928" data-name="Trazado 116928" d="M2.129,27.677V19.161H22.355V21.29h4.258v2.129h-1.6a2.661,2.661,0,1,0,0,5.323h1.6l.277-.075a12.248,12.248,0,0,0,5.716,7.526H2.129Z" fill="#b27946"/>
        <path id="Trazado_116929" data-name="Trazado 116929" d="M66,31.935v4.258H48.3a12.21,12.21,0,0,0,5.716-7.526l.277.075h1.6a2.661,2.661,0,0,0,0-5.323h-1.6V21.29h4.258V19.161H66V31.935Z" fill="#b27946"/>
        <g id="Grupo_83439" data-name="Grupo 83439">
          <path id="Trazado_116930" data-name="Trazado 116930" d="M47.956,36.4l1.011,4.056L40.452,44.71l-8.516-4.258L32.947,36.4a15.579,15.579,0,0,0,15.01,0Z" fill="#f0d0b4"/>
          <path id="Trazado_116931" data-name="Trazado 116931" d="M55.887,23.419a2.661,2.661,0,0,1,0,5.323h-1.6l-.277-.075a10.926,10.926,0,0,0,.277-2.448v-2.8h1.6Z" fill="#f0d0b4"/>
          <path id="Trazado_116932" data-name="Trazado 116932" d="M40.452,28.742H38.323A5.325,5.325,0,0,0,33,34.065v2.129h-.394a12.248,12.248,0,0,1-5.716-7.526,11.02,11.02,0,0,1-.277-2.459V21.29H54.29v4.929a10.926,10.926,0,0,1-.277,2.448A12.21,12.21,0,0,1,48.3,36.194H47.9V34.065a5.325,5.325,0,0,0-5.323-5.323Z" fill="#f0d0b4"/>
          <path id="Trazado_116933" data-name="Trazado 116933" d="M26.89,28.667l-.277.075h-1.6a2.661,2.661,0,1,1,0-5.323h1.6v2.789A11.02,11.02,0,0,0,26.89,28.667Z" fill="#f0d0b4"/>
        </g>
        <path id="Trazado_116934" data-name="Trazado 116934" d="M47.9,36.194l.053.2a15.579,15.579,0,0,1-15.01,0l.053-.2V34.065a5.325,5.325,0,0,1,5.323-5.323h4.258A5.325,5.325,0,0,1,47.9,34.065Z" fill="#cf9e76"/>
        <path id="Trazado_116935" data-name="Trazado 116935" d="M38.323,2.267V17.032H31.935V14.9a4.257,4.257,0,0,0-4.258-4.258h-1.65A15.9,15.9,0,0,1,38.323,2.267Z" fill="#ffeaa7"/>
        <path id="Trazado_116936" data-name="Trazado 116936" d="M54.876,10.645h-1.65A4.257,4.257,0,0,0,48.968,14.9v2.129H42.581V2.267A15.9,15.9,0,0,1,54.876,10.645Z" fill="#ffeaa7"/>
        <path id="Trazado_116937" data-name="Trazado 116937" d="M58.548,19.161V21.29H22.355V17.032H58.548Z" fill="#fcd770"/>
        <path id="Trazado_116938" data-name="Trazado 116938" d="M56.419,17.032H48.968V14.9a4.257,4.257,0,0,1,4.258-4.258h1.65A14,14,0,0,1,56.419,17.032Z" fill="#fcd770"/>
        <path id="Trazado_116939" data-name="Trazado 116939" d="M42.581,2.267V17.032H38.323V2.267a16.446,16.446,0,0,1,4.258,0Z" fill="#fcd770"/>
        <path id="Trazado_116940" data-name="Trazado 116940" d="M31.935,14.9v2.129H24.484a14,14,0,0,1,1.544-6.387h1.65A4.257,4.257,0,0,1,31.935,14.9Z" fill="#fcd770"/>
        <path id="Trazado_116941" data-name="Trazado 116941" d="M40.452,33a1.066,1.066,0,0,1-1.065-1.065H37.258a3.194,3.194,0,1,0,6.387,0H41.516A1.066,1.066,0,0,1,40.452,33Z"/>
        <path id="Trazado_116942" data-name="Trazado 116942" d="M67.065,37.258V18.1H59.613V15.968H57.426c-.589-8.309-7.967-14.9-16.975-14.9s-16.386,6.595-16.975,14.9H21.29V18.1H1.065V37.258H6.387V50.032a3.2,3.2,0,0,0,3.194,3.194H14.9v2.129h7.452v11.71h44.71V56.419A17.052,17.052,0,0,0,50.032,39.387H49.8l-.532-2.129ZM39.387,56.419v4.258H35.129v2.129h4.258v2.129H28.742V41.685a15.02,15.02,0,0,1,2.129-.169v1.065A9.593,9.593,0,0,0,39.387,52.1V54.29H35.129v2.129Zm-16.759-14.9h-5.6V37.258h14.6L31.1,39.387h-.233a17.069,17.069,0,0,0-7.95,1.974Zm3.018-13.839h-.63a1.6,1.6,0,1,1,0-3.194h.532v1.73A11.682,11.682,0,0,0,25.646,27.677Zm2.031-5.323H53.226v3.859a10.429,10.429,0,0,1-4.258,8.208v-.358a6.394,6.394,0,0,0-6.387-6.387H41.516V25.548H39.387v2.129H38.323a6.394,6.394,0,0,0-6.387,6.387v.358a10.429,10.429,0,0,1-4.258-8.208Zm27.677,3.859v-1.73h.532a1.6,1.6,0,0,1,0,3.194h-.63A11.682,11.682,0,0,0,55.355,26.214Zm-14.9,11.044a14.218,14.218,0,0,1-6.409-1.506l.022-1.687a4.262,4.262,0,0,1,4.258-4.258h4.258a4.262,4.262,0,0,1,4.258,4.258v1.7A14.231,14.231,0,0,1,40.452,37.258Zm0,12.774a7.455,7.455,0,0,1-6.624-4.055L34.94,47.09a3.7,3.7,0,0,0,2.633,1.1,3.789,3.789,0,0,0,.616-.05,3.7,3.7,0,0,0,2.263-1.28,3.7,3.7,0,0,0,2.263,1.28,3.779,3.779,0,0,0,.616.05,3.7,3.7,0,0,0,2.633-1.1l1.112-1.112a7.455,7.455,0,0,1-6.624,4.055Zm-7.383-7.824,5.955,2.977a1.617,1.617,0,0,1-2.578.4Zm14.767,0-3.377,3.377a1.617,1.617,0,0,1-2.578-.4ZM40.452,43.52l-7.276-3.639.489-1.954a16.505,16.505,0,0,0,13.593-.007l.476,1.96ZM64.935,20.226v4.258H62.806v2.129h2.129v4.258H58.548V33h6.387v2.129H51.392a12.829,12.829,0,0,0,3.385-5.323h1.11a3.726,3.726,0,0,0,0-7.452h3.726V20.226ZM54.205,11.71A12.918,12.918,0,0,1,55.3,15.968H50.032V14.9a3.2,3.2,0,0,1,3.194-3.194ZM53,9.6a5.317,5.317,0,0,0-5.1,5.3v1.065H43.645V3.521A14.966,14.966,0,0,1,53,9.6ZM41.516,3.244V15.968H39.387V3.244c.353-.023.7-.05,1.065-.05S41.163,3.22,41.516,3.244Zm-4.258.278V15.968H33V14.9a5.317,5.317,0,0,0-5.1-5.3,14.966,14.966,0,0,1,9.359-6.082ZM26.7,11.71h.979A3.2,3.2,0,0,1,30.871,14.9v1.065H25.607A12.918,12.918,0,0,1,26.7,11.71ZM23.419,18.1H57.484v2.129H23.419ZM3.194,28.742H5.323V26.613H3.194V20.226h18.1v2.129h3.726a3.726,3.726,0,0,0,0,7.452h1.11a12.84,12.84,0,0,0,3.385,5.323H3.194ZM9.581,51.1a1.066,1.066,0,0,1-1.065-1.065V37.258H14.9V51.1Zm7.452,2.129V43.645h5.323v9.581Zm7.452-10.268a14.826,14.826,0,0,1,2.129-.8V64.935H24.484ZM56.419,64.935H54.29V42.144a14.883,14.883,0,0,1,2.129.83Zm2.129,0V59.613h6.387v5.323Zm6.387-8.516v1.065H58.548V44.206A14.888,14.888,0,0,1,64.935,56.419Zm-14.9-14.9a14.779,14.779,0,0,1,2.129.17V64.935H41.516V62.806h4.258V60.677H41.516V56.419h4.258V54.29H41.516V52.1a9.593,9.593,0,0,0,8.516-9.518Z"/>
        <path id="Trazado_116943" data-name="Trazado 116943" d="M5.323,30.871H21.29V33H5.323Z"/>
        <path id="Trazado_116944" data-name="Trazado 116944" d="M7.452,26.613H11.71v2.129H7.452Z"/>
        <path id="Trazado_116945" data-name="Trazado 116945" d="M14.9,25.548a.978.978,0,0,1-1.077,1.065l.013,2.129a3.194,3.194,0,0,0,0-6.387H5.323v2.129h8.5A.978.978,0,0,1,14.9,25.548Z"/>
        <circle id="Elipse_4798" data-name="Elipse 4798" cx="1.065" cy="1.065" r="1.065" transform="translate(31.935 24.484)"/>
        <circle id="Elipse_4799" data-name="Elipse 4799" cx="1.065" cy="1.065" r="1.065" transform="translate(46.839 24.484)"/>
      </g>
    </g>
  </g>
</svg>
