<svg xmlns="http://www.w3.org/2000/svg" xmlns:xlink="http://www.w3.org/1999/xlink" width="107" height="107" viewBox="0 0 107 107">
  <defs>
    <clipPath id="clip-path">
      <rect id="Rectángulo_34451" data-name="Rectángulo 34451" width="66" height="66" transform="translate(2474 -10205)" fill="#fff"/>
    </clipPath>
  </defs>
  <g id="Grupo_84025" data-name="Grupo 84025" transform="translate(-3486 10238)">
    <circle id="Elipse_4791" data-name="Elipse 4791" cx="53.5" cy="53.5" r="53.5" transform="translate(3486 -10238)" fill="#3c3fa7"/>
    <g id="Enmascarar_grupo_122" data-name="Enmascarar grupo 122" transform="translate(1033 -12)" clip-path="url(#clip-path)">
      <g id="reportero" transform="translate(2474 -10205)">
        <path id="Trazado_116946" data-name="Trazado 116946" d="M43.9,37.375a29.619,29.619,0,0,1-14.251,6.432A29.619,29.619,0,0,1,15.4,37.375c-6.994-5.7-.061-20.826-.061-20.826l14.311.08,14.311-.08s6.934,15.127-.061,20.826Z" fill="#c75d2d"/>
        <path id="Trazado_116947" data-name="Trazado 116947" d="M48.984,65.033H10.313V55.447a11.64,11.64,0,0,1,11.64-11.64H37.345a11.64,11.64,0,0,1,11.64,11.64Z" fill="#ffde5c"/>
        <path id="Trazado_116948" data-name="Trazado 116948" d="M25.379,61.617h-7.7a.4.4,0,0,1-.4-.4V58.153a.4.4,0,0,1,.4-.4h7.7a.4.4,0,0,1,.4.4v3.062A.4.4,0,0,1,25.379,61.617Z" fill="#f1f1f1"/>
        <path id="Trazado_116949" data-name="Trazado 116949" d="M22.758,57.75H18.891V55.3a1.934,1.934,0,0,1,3.867,0Z" fill="#497285"/>
        <path id="Trazado_116950" data-name="Trazado 116950" d="M37.345,43.807H33.477a11.64,11.64,0,0,1,11.64,11.64v9.586h3.867V55.447A11.64,11.64,0,0,0,37.345,43.807Z" fill="#ffc736"/>
        <path id="Trazado_116951" data-name="Trazado 116951" d="M25.781,35.8h7.734V48.373H25.781Z" fill="#e8916f"/>
        <g id="Grupo_83440" data-name="Grupo 83440">
          <path id="Trazado_116952" data-name="Trazado 116952" d="M18.622,23.535c0,2.561-1.57,4.636-3.507,4.636s-3.062-2.384-3.062-4.945S13.179,18.9,15.115,18.9,18.622,20.974,18.622,23.535Z" fill="#e8916f"/>
          <path id="Trazado_116953" data-name="Trazado 116953" d="M40.675,23.535c0,2.561,1.57,4.636,3.507,4.636s3.062-2.384,3.062-4.945S46.118,18.9,44.181,18.9,40.675,20.974,40.675,23.535Z" fill="#d98868"/>
        </g>
        <path id="Trazado_116954" data-name="Trazado 116954" d="M16.809,25.049V15.513A12.109,12.109,0,0,1,28.918,3.4h1.461A12.109,12.109,0,0,1,42.488,15.513v9.536A12.831,12.831,0,0,1,29.657,37.881H29.64A12.831,12.831,0,0,1,16.809,25.049Z" fill="#ebad88"/>
        <path id="Trazado_116955" data-name="Trazado 116955" d="M30.379,3.4H28.918c-.355,0-.706.016-1.053.046A12.11,12.11,0,0,1,38.921,15.513v9.536A12.833,12.833,0,0,1,27.865,37.758a12.938,12.938,0,0,0,1.775.123h.017A12.831,12.831,0,0,0,42.488,25.049V15.513A12.109,12.109,0,0,0,30.379,3.4Z" fill="#e8916f"/>
        <path id="Trazado_116956" data-name="Trazado 116956" d="M25.781,40.777s-.37,5.128,3.867,7.6c0,0-2.409,2.69-4.847,1.836-1.931-.677-3.024-4.279-3.394-5.746a.906.906,0,0,1,.371-.972Z" fill="#f1f1f1"/>
        <path id="Trazado_116957" data-name="Trazado 116957" d="M33.516,40.777s.37,5.128-3.867,7.6c0,0,2.409,2.69,4.847,1.836,1.931-.677,3.024-4.279,3.394-5.746a.906.906,0,0,0-.371-.972Z" fill="#f1f1f1"/>
        <path id="Trazado_116958" data-name="Trazado 116958" d="M42.487,23.719A19,19,0,0,1,29.648,9.609a19,19,0,0,1-12.839,14.11s-4.107-6.852-2.52-12.445C17.163,1.145,26.366.967,29.648.967s12.486.179,15.359,10.307C46.594,16.867,42.487,23.719,42.487,23.719Z" fill="#d66d3c"/>
        <g id="Grupo_83441" data-name="Grupo 83441">
          <path id="Trazado_116959" data-name="Trazado 116959" d="M45.008,11.273C42.134,1.145,32.931.967,29.648.967c-.515,0-1.175,0-1.934.051,4.079.25,11,1.716,13.426,10.256,1.157,4.077-.712,8.823-1.81,11.1a21.174,21.174,0,0,0,3.157,1.349S46.594,16.867,45.008,11.273Z" fill="#c75d2d"/>
        </g>
        <path id="Trazado_116960" data-name="Trazado 116960" d="M53.883,50.08H42.539a1.031,1.031,0,0,1-1.031-1.031V42.861a1.031,1.031,0,0,1,1.031-1.031H53.883a1.031,1.031,0,0,1,1.031,1.031v6.188A1.031,1.031,0,0,1,53.883,50.08Z" fill="#ef483c"/>
        <path id="Trazado_116961" data-name="Trazado 116961" d="M53.883,41.83H50.016a1.031,1.031,0,0,1,1.031,1.031v6.188a1.031,1.031,0,0,1-1.031,1.031h3.867a1.031,1.031,0,0,0,1.031-1.031V42.861A1.031,1.031,0,0,0,53.883,41.83Z" fill="#de4135"/>
        <path id="Trazado_116962" data-name="Trazado 116962" d="M50.66,41.83h-4.9a3.352,3.352,0,0,1-3.352-3.352v-1.8a3.352,3.352,0,0,1,3.352-3.352h4.9a3.352,3.352,0,0,1,3.352,3.352v1.8A3.352,3.352,0,0,1,50.66,41.83Z" fill="#497285"/>
        <path id="Trazado_116963" data-name="Trazado 116963" d="M50.66,33.322H46.793a3.352,3.352,0,0,1,3.352,3.352v1.8a3.352,3.352,0,0,1-3.352,3.352H50.66a3.352,3.352,0,0,0,3.352-3.352v-1.8A3.352,3.352,0,0,0,50.66,33.322Z" fill="#426778"/>
        <path id="Trazado_116964" data-name="Trazado 116964" d="M44.344,50.08h7.734V65.033H44.344Z" fill="#497285"/>
        <path id="Trazado_116965" data-name="Trazado 116965" d="M48.211,50.08h3.867V65.033H48.211Z" fill="#426778"/>
        <path id="Trazado_116966" data-name="Trazado 116966" d="M53.7,65.033H49.993a2.04,2.04,0,0,1-2.04-2.04V56.761a2.04,2.04,0,0,1,2.04-2.04h4.219A1.475,1.475,0,0,1,55.687,56.2v6.852A1.986,1.986,0,0,1,53.7,65.033Z" fill="#ebad88"/>
        <path id="Trazado_116967" data-name="Trazado 116967" d="M54.213,54.721H50.345A1.475,1.475,0,0,1,51.82,56.2v6.852a1.984,1.984,0,0,1-1.906,1.982c.027,0,.053,0,.079,0H53.7a1.986,1.986,0,0,0,1.986-1.986V56.2A1.475,1.475,0,0,0,54.213,54.721Z" fill="#e8916f"/>
        <path id="Trazado_116968" data-name="Trazado 116968" d="M47.953,57.041a1.934,1.934,0,0,1-1.934,1.934h-1.8a1.934,1.934,0,0,1,0-3.867h1.8A1.934,1.934,0,0,1,47.953,57.041Z" fill="#ebad88"/>
        <g id="Grupo_83442" data-name="Grupo 83442">
          <path id="Trazado_116969" data-name="Trazado 116969" d="M20.825,52.4a2.9,2.9,0,0,0-2.9,2.9v1.482h-.249a1.371,1.371,0,0,0-1.369,1.369v3.062a1.371,1.371,0,0,0,1.369,1.369h7.7a1.371,1.371,0,0,0,1.369-1.369V58.152a1.371,1.371,0,0,0-1.369-1.369H23.725V55.3A2.9,2.9,0,0,0,20.825,52.4Zm-.967,2.9a.967.967,0,0,1,1.934,0v1.482H19.858Zm4.956,5.35H18.24V58.717h6.574Z"/>
          <path id="Trazado_116970" data-name="Trazado 116970" d="M31.691,32.143a.967.967,0,0,0-.52-1.862,6.174,6.174,0,0,1-3.046,0,.967.967,0,0,0-.52,1.862,8.038,8.038,0,0,0,4.085,0Z"/>
          <path id="Trazado_116971" data-name="Trazado 116971" d="M24.234,22.752a.967.967,0,0,0-.967.967v.773a.967.967,0,0,0,1.934,0v-.773A.967.967,0,0,0,24.234,22.752Z"/>
          <path id="Trazado_116972" data-name="Trazado 116972" d="M35.063,25.459a.967.967,0,0,0,.967-.967v-.773a.967.967,0,0,0-1.934,0v.773A.967.967,0,0,0,35.063,25.459Z"/>
          <path id="Trazado_116973" data-name="Trazado 116973" d="M54.213,53.754H53.045V51.047h.838a2,2,0,0,0,2-2V42.861A2,2,0,0,0,54.236,40.9a4.293,4.293,0,0,0,.742-2.418v-1.8a4.323,4.323,0,0,0-4.318-4.318H47.732a19.452,19.452,0,0,0,.012-6.254,8.732,8.732,0,0,0,.466-2.874c0-2.434-.907-4.236-2.453-4.955a14.02,14.02,0,0,0,.181-7.263,15.549,15.549,0,0,0-3.119-5.993.967.967,0,1,0-1.463,1.264,13.637,13.637,0,0,1,2.722,5.256c1.174,4.137-1.106,9.179-2.043,10.993a17.914,17.914,0,0,1-9.31-7.707A16.913,16.913,0,0,1,30.6,9.461a.966.966,0,0,0-.954-.818h0a.968.968,0,0,0-.955.816,16.909,16.909,0,0,1-2.121,5.365,17.912,17.912,0,0,1-9.31,7.707c-.937-1.815-3.217-6.857-2.043-10.993,2.725-9.6,11.534-9.6,14.429-9.6a17.606,17.606,0,0,1,8.7,1.894A.967.967,0,1,0,39.3,2.145,19.182,19.182,0,0,0,29.648,0a20.8,20.8,0,0,0-8.212,1.433,14.014,14.014,0,0,0-7.9,16.84c-1.547.721-2.453,2.522-2.453,4.954a8.728,8.728,0,0,0,.466,2.872c-.79,5.586.3,9.632,3.234,12.025a.967.967,0,0,0,1.221-1.5c-2.006-1.634-2.927-4.347-2.751-8.082a3.186,3.186,0,0,0,1.858.594,3.681,3.681,0,0,0,1.277-.23,13.861,13.861,0,0,0,8.422,9.068v2.289l-1.246.845a30.229,30.229,0,0,1-4.176-2.1.967.967,0,1,0-1,1.654,32.144,32.144,0,0,0,3.282,1.732l-.437.3A1.856,1.856,0,0,0,21,42.88,12.6,12.6,0,0,0,9.346,55.448v9.585a.967.967,0,0,0,.967.967H37.12a.967.967,0,0,0,0-1.934H11.279V55.448a10.674,10.674,0,0,1,9.236-10.576c1.209,4.645,3,5.911,3.967,6.25a3.935,3.935,0,0,0,1.313.223A6.326,6.326,0,0,0,29.648,49.7,6.325,6.325,0,0,0,33.5,51.345a3.942,3.942,0,0,0,1.313-.223c.967-.339,2.758-1.605,3.966-6.249a10.6,10.6,0,0,1,1.76.391v3.785a2,2,0,0,0,2,2h.838v3.218a2.9,2.9,0,0,0,0,5.553v4.249h-2.12a.967.967,0,0,0,0,1.934H53.7a2.956,2.956,0,0,0,2.952-2.952V56.2a2.444,2.444,0,0,0-2.442-2.442Zm-1.168-17.08v1.8a2.387,2.387,0,0,1-2.385,2.385h-4.9a2.387,2.387,0,0,1-2.384-2.37c0-.007,0-.015,0-.022v-1.8a2.387,2.387,0,0,1,2.385-2.385h4.9A2.387,2.387,0,0,1,53.045,36.674ZM35.727,41.109l-1.245-.844V37.976A13.86,13.86,0,0,0,42.9,28.908a3.681,3.681,0,0,0,1.277.23,3.187,3.187,0,0,0,1.856-.593,14.6,14.6,0,0,1-.279,3.811,4.323,4.323,0,0,0-4.315,4.318v1.333a30.1,30.1,0,0,1-5.716,3.1ZM46.276,23.228a6.734,6.734,0,0,1-.423,2.416c-.229.583-.752,1.561-1.672,1.561a1.81,1.81,0,0,1-.862-.227,13.847,13.847,0,0,0,.135-1.928V23.977a25.416,25.416,0,0,0,1.718-3.812,3.674,3.674,0,0,1,1.1,3.062ZM15.116,27.2c-.908,0-1.428-.951-1.662-1.537l-.01-.027a6.635,6.635,0,0,1-.422-2.413,3.672,3.672,0,0,1,1.1-3.061,25.4,25.4,0,0,0,1.717,3.811v1.072a13.849,13.849,0,0,0,.135,1.928A1.812,1.812,0,0,1,15.116,27.2Zm2.661-2.155V24.4a20.074,20.074,0,0,0,10.5-8.663,20.547,20.547,0,0,0,1.37-2.779,20.539,20.539,0,0,0,1.37,2.779,20.073,20.073,0,0,0,10.5,8.663v.647A11.877,11.877,0,0,1,29.658,36.914h-.018A11.877,11.877,0,0,1,17.776,25.049Zm11.863,13.8h.018a13.8,13.8,0,0,0,2.891-.306V41.45c0,.01,0,.02,0,.03a7.4,7.4,0,0,1-2.9,5.742,7.4,7.4,0,0,1-2.9-5.742c0-.01,0-.02,0-.031V38.542a13.8,13.8,0,0,0,2.891.306ZM25.122,49.3c-.992-.348-2.076-2.32-2.766-5.029l2.552-1.731a9.127,9.127,0,0,0,3.178,5.931,3.39,3.39,0,0,1-2.964.828Zm9.053,0a3.388,3.388,0,0,1-2.964-.828,9.126,9.126,0,0,0,3.178-5.931l.676.458.018.012,1.859,1.261c-.69,2.709-1.774,4.681-2.766,5.029Zm4.118-6.419a1.865,1.865,0,0,0-.232-.187l-.437-.3a32.034,32.034,0,0,0,4.143-2.277,4.313,4.313,0,0,0,.418.779,2,2,0,0,0-1.645,1.965v.391a12.536,12.536,0,0,0-2.248-.374Zm4.181,6.171V42.861a.065.065,0,0,1,.064-.064H53.883a.065.065,0,0,1,.064.064v6.188a.065.065,0,0,1-.064.064H42.539A.065.065,0,0,1,42.475,49.049Zm8.637,2v2.707H49.993a3,3,0,0,0-2.219.98,2.885,2.885,0,0,0-1.755-.593h-.709V51.047Zm-6.9,5.027h1.8a.967.967,0,0,1,0,1.934h-1.8a.967.967,0,1,1,0-1.934Zm1.1,3.867h.709a2.888,2.888,0,0,0,.967-.166v3.218a2.993,2.993,0,0,0,.2,1.073H45.311Zm9.41,3.106A1.02,1.02,0,0,1,53.7,64.066H49.993a1.075,1.075,0,0,1-1.073-1.073V56.761a1.075,1.075,0,0,1,1.073-1.073h4.219a.509.509,0,0,1,.508.508v6.852Z"/>
        </g>
      </g>
    </g>
  </g>
</svg>
