<svg xmlns="http://www.w3.org/2000/svg" xmlns:xlink="http://www.w3.org/1999/xlink" width="107" height="107" viewBox="0 0 107 107">
  <defs>
    <clipPath id="clip-path">
      <rect id="Rectángulo_34452" data-name="Rectángulo 34452" width="66" height="66" transform="translate(2725 -10205)" fill="#fff"/>
    </clipPath>
  </defs>
  <g id="Grupo_84026" data-name="Grupo 84026" transform="translate(-3737 10238)">
    <circle id="Elipse_4792" data-name="Elipse 4792" cx="53.5" cy="53.5" r="53.5" transform="translate(3737 -10238)" fill="#3c3fa7"/>
    <g id="Enmascarar_grupo_123" data-name="Enmascarar grupo 123" transform="translate(1033 -12)" clip-path="url(#clip-path)">
      <g id="Filled_outline" data-name="Filled outline" transform="translate(2722.815 -10207.186)">
        <path id="Trazado_116974" data-name="Trazado 116974" d="M63.772,16.493V34.085H37.384V16.493a13.194,13.194,0,1,1,26.388,0Z" fill="#7a432a"/>
        <path id="Trazado_116975" data-name="Trazado 116975" d="M63.772,16.493V34.085H50.717a9.9,9.9,0,0,0,5.359-8.8V13.194a9.9,9.9,0,0,0-7.856-9.685A13.206,13.206,0,0,1,63.772,16.493Z" fill="#743b20"/>
        <path id="Trazado_116976" data-name="Trazado 116976" d="M59.374,21.99h2.2v2.2h-2.2Z" fill="#feb784"/>
        <path id="Trazado_116977" data-name="Trazado 116977" d="M61.573,38.483h-5.5a1.1,1.1,0,0,1-1.1-1.1v-7.7h-8.8v7.7a1.1,1.1,0,0,1-1.1,1.1H27.809l4.14-9.315-5.3-2.652L21.587,36.632a6.6,6.6,0,0,0,5.9,9.547h9.9l2.309,5.387a8.6,8.6,0,0,0,.9,10.007l.094,6.6H67.071V43.981A5.5,5.5,0,0,0,61.573,38.483Z" fill="#fec9a3"/>
        <path id="Trazado_116978" data-name="Trazado 116978" d="M54.976,34.153V29.687h-8.8v4.434a9.453,9.453,0,0,0,3.739,1.042,9.877,9.877,0,0,0,5.057-1.01Z" fill="#feb784"/>
        <path id="Trazado_116979" data-name="Trazado 116979" d="M60.474,18.692v4.4A9.888,9.888,0,0,1,49.92,32.964,10.12,10.12,0,0,1,40.682,22.75V18.692l1.659-.948A18.2,18.2,0,0,0,50.578,7.7a18.194,18.194,0,0,0,8.237,10.047Z" fill="#fec9a3"/>
        <path id="Trazado_116980" data-name="Trazado 116980" d="M60.474,18.692v4.4a9.9,9.9,0,0,1-7.812,9.676,9.875,9.875,0,0,0,3.414-7.477V15.825a18.181,18.181,0,0,0,2.739,1.919Z" fill="#fec093"/>
        <path id="Trazado_116981" data-name="Trazado 116981" d="M61.3,18.692h-.825v5.5H61.3a2.622,2.622,0,0,0,2.474-2.749A2.622,2.622,0,0,0,61.3,18.692Z" fill="#feb784"/>
        <path id="Trazado_116982" data-name="Trazado 116982" d="M67.071,43.981V68.17H40.682l-.008-.537-.087-6.06a8.6,8.6,0,0,1-.895-10.007L37.384,46.18h-9.9a6.6,6.6,0,0,1-5.9-9.548l5.058-10.116,5.3,2.653-4.141,9.314H43.981l5.583,12.095,1.014,2.2,1.014-2.2,5.583-12.095h4.4A5.5,5.5,0,0,1,67.071,43.981Z" fill="#f59898"/>
        <path id="Trazado_116983" data-name="Trazado 116983" d="M67.071,43.981V68.17H40.682l-.008-.537C48.529,63.309,59.58,54.8,64.822,39.547a5.487,5.487,0,0,1,2.249,4.434Z" fill="#ec8c8c"/>
        <path id="Trazado_116984" data-name="Trazado 116984" d="M43.981,38.483l-3.3,6.6h4.4l-1.1,3.3,6.6,4.4Z" fill="#feb2b2"/>
        <path id="Trazado_116985" data-name="Trazado 116985" d="M57.175,38.483l3.3,6.6h-4.4l1.1,3.3-6.6,4.4Z" fill="#feb2b2"/>
        <path id="Trazado_116986" data-name="Trazado 116986" d="M5.5,59.374H29.687v4.4H5.5Z" fill="#f7a116"/>
        <path id="Trazado_116987" data-name="Trazado 116987" d="M5.5,54.976H29.687v4.4H5.5Z" fill="#ffb531"/>
        <path id="Trazado_116988" data-name="Trazado 116988" d="M21.99,59.374h7.7v-4.4h-3.3Z" fill="#f7a116"/>
        <path id="Trazado_116989" data-name="Trazado 116989" d="M20.891,59.374a3.3,3.3,0,0,1-6.6,0H3.3v7.7H31.886v-7.7Z" fill="#95573a"/>
        <path id="Trazado_116990" data-name="Trazado 116990" d="M18.692,67.071H31.886v-7.7h-5.5Z" fill="#8f4d2e"/>
        <path id="Trazado_116991" data-name="Trazado 116991" d="M26.388,50.578v4.4H8.8v-4.4l2.2-8.8h3.3v2.2h6.6v-2.2h3.3L25.3,46.233Z" fill="#3d4d63"/>
        <path id="Trazado_116992" data-name="Trazado 116992" d="M8.8,50.578H26.388v4.4H8.8Z" fill="#374559"/>
        <path id="Trazado_116993" data-name="Trazado 116993" d="M26.388,50.578v4.4H12.423A41.908,41.908,0,0,0,25.3,46.233Z" fill="#374559"/>
        <path id="Trazado_116994" data-name="Trazado 116994" d="M20.891,47.279a3.3,3.3,0,1,1-.687-2.013A3.3,3.3,0,0,1,20.891,47.279Z" fill="#e0e0de"/>
        <path id="Trazado_116995" data-name="Trazado 116995" d="M20.891,47.279A3.3,3.3,0,0,1,15.2,49.548a21.634,21.634,0,0,0,5-4.283A3.279,3.279,0,0,1,20.891,47.279Z" fill="#d6d6d4"/>
        <path id="Trazado_116996" data-name="Trazado 116996" d="M41.782,37.384h-2.2a6.6,6.6,0,0,1-6.6-6.6v-8.8a6.6,6.6,0,0,1,6.6-6.6h2.2v6.6h-4.4v8.8h4.4Z" fill="#3d4d63"/>
        <path id="Trazado_116997" data-name="Trazado 116997" d="M32.986,27.488h4.4v-8.8A11.25,11.25,0,0,0,26.9,25.866l-.253.652,5.3,2.652Z" fill="#fec9a3"/>
        <path id="Trazado_116998" data-name="Trazado 116998" d="M61.573,37.384h-5.5v-2.2h7.7a1.1,1.1,0,0,0,1.1-1.1V16.493A14.292,14.292,0,0,0,36.363,15a7.763,7.763,0,0,0-3.649,3.5,12.351,12.351,0,0,0-6.841,6.959l-.228.586L20.6,36.147a7.655,7.655,0,0,0-.638,5.05,1.093,1.093,0,0,0-.169.585v1.1h-4.4v-1.1a1.1,1.1,0,0,0-1.1-1.1H11a1.1,1.1,0,0,0-1.067.833l-2.2,8.8a1.1,1.1,0,0,0-.033.267v3.3H5.5a1.1,1.1,0,0,0-1.1,1.1v3.3H3.3a1.1,1.1,0,0,0-1.1,1.1v7.7a1.1,1.1,0,0,0,1.1,1.1H31.886a1.1,1.1,0,0,0,1.1-1.1v-6.6a4.4,4.4,0,0,0,4.4-4.4v-.044a9.951,9.951,0,0,0,2.11,5.936l.089,6.218,2.2-.031-.094-6.6a1.1,1.1,0,0,0-.258-.692,7.431,7.431,0,0,1-.193-9.58l-.944-.8L38.4,45.771a1.1,1.1,0,0,0-1.021-.691v-5.5H42.2l-2.5,5.006a1.1,1.1,0,0,0,.983,1.591h2.872l-.617,1.851a1.1,1.1,0,0,0,.433,1.263l6.108,4.072v14.8h2.2v-14.8l6.108-4.072a1.1,1.1,0,0,0,.433-1.263L57.6,46.18h2.872a1.1,1.1,0,0,0,.983-1.591l-2.5-5.006h2.619a4.4,4.4,0,0,1,4.4,4.4V68.17h2.2V43.981A6.6,6.6,0,0,0,61.573,37.384Zm1.1-4.4h-6.6v-.377a10.911,10.911,0,0,0,5.278-7.321,3.336,3.336,0,0,0,1.319-.295Zm-1.1-9.929V19.825a1.737,1.737,0,0,1,0,3.232ZM42.02,7.935a12.1,12.1,0,0,1,20.652,8.557v1.4a3.334,3.334,0,0,0-1.374-.3h-.534l-1.405-.8a17.116,17.116,0,0,1-7.739-9.444,1.1,1.1,0,0,0-2.086,0,17.116,17.116,0,0,1-6.654,8.767v-.722a1.1,1.1,0,0,0-1.1-1.1h-2.2a7.664,7.664,0,0,0-.907.055A12.033,12.033,0,0,1,42.02,7.935ZM37.774,16.8a5.4,5.4,0,0,1,1.809-.31h1.1v4.4h-2.2v-2.2a1.1,1.1,0,0,0-1.1-1.1c-.392,0-.781.02-1.167.057a5.456,5.456,0,0,1,1.557-.846Zm-1.489,3.046v6.539h-3.3a1.1,1.1,0,0,0-.936.522l-.509.825-3.5-1.752a10.073,10.073,0,0,1,8.248-6.134ZM21.99,43.981v-1.1h1.341l1.649,6.6H21.4a4.385,4.385,0,0,0-.057-4.5A1.1,1.1,0,0,0,21.99,43.981Zm-4.4,1.1a2.2,2.2,0,1,1-2.2,2.2,2.2,2.2,0,0,1,2.2-2.2ZM9.9,50.713l1.958-7.832h1.341v1.1a1.1,1.1,0,0,0,.649,1,4.385,4.385,0,0,0-.057,4.5H12.095v2.2H25.289v2.2H9.9ZM6.6,56.075h21.99v2.2H6.6Zm20.891-2.2v-1.9a2.2,2.2,0,0,1,1.1,1.9Zm-7.994,6.6a2.194,2.194,0,0,1-3.8,0Zm11.293,5.5H4.4v-5.5h8.935a4.4,4.4,0,0,0,8.518,0h8.935Zm4.4-9.9a2.2,2.2,0,0,1-4.4,0v-2.2a4.406,4.406,0,0,0-3.517-4.309l-.583-2.331c.266.028,8.5.043,8.5.043Zm0-11h-7.7A5.4,5.4,0,0,1,26.1,44.9l-.846-3.385a1.1,1.1,0,0,0-1.067-.833H22.1a5.474,5.474,0,0,1,.468-3.554l4.567-9.133,3.386,1.689L26.8,38.036a1.1,1.1,0,0,0,1,1.547h7.378Zm0-7.7H29.5l2.462-5.531A7.706,7.706,0,0,0,35.185,37.1Zm3.2,14.257a9.344,9.344,0,0,0-1,4.062V49.14Zm2.3-15.356h-1.1a5.322,5.322,0,0,1-2.75-.744,5.5,5.5,0,0,1-2.747-4.753v-2.2h2.2v2.2a1.1,1.1,0,0,0,1.1,1.1h3.3Zm1.1-6.6h-3.3v-6.6h1.105a11.618,11.618,0,0,0,2.317,6.6,1.1,1.1,0,0,0-.124-.007Zm.007-6.6a1.1,1.1,0,0,0,1.093-1.1V18.7l.007,0a19.3,19.3,0,0,0,7.689-8.138A19.3,19.3,0,0,0,58.269,18.7l1.1.629V23.09a8.8,8.8,0,0,1-9.384,8.776,8.392,8.392,0,0,1-3.308-.926,9.232,9.232,0,0,1-4.894-7.851Zm1.093,9.9V30.832a10.945,10.945,0,0,0,2.2,1.733v.421Zm2.2,2.2v2.2h-2.2v-2.2Zm-2.619,8.8,1.48-2.96,1.378,2.986a1.1,1.1,0,0,0-.239-.026Zm2.828,3.949.772-2.315L47.948,49.7Zm5.289,2.223L45.662,39.5a2.2,2.2,0,0,0,1.617-2.118V33.564a10.474,10.474,0,0,0,2.566.5q.369.024.737.024a10.968,10.968,0,0,0,3.294-.5v3.8A2.2,2.2,0,0,0,55.494,39.5Zm2.63-.451,1.887-4.087.772,2.315Zm2.867-5.721a1.1,1.1,0,0,0-.239.026l1.378-2.986,1.48,2.96Z"/>
        <path id="Trazado_116999" data-name="Trazado 116999" d="M50.578,27.488a3.3,3.3,0,0,0,3.3-3.3h-2.2a1.1,1.1,0,1,1-2.2,0h-2.2a3.3,3.3,0,0,0,3.3,3.3Z"/>
        <circle id="Elipse_4800" data-name="Elipse 4800" cx="1.649" cy="1.649" r="1.649" transform="translate(43.981 17.592)"/>
        <circle id="Elipse_4801" data-name="Elipse 4801" cx="1.649" cy="1.649" r="1.649" transform="translate(53.876 17.592)"/>
        <path id="Trazado_117000" data-name="Trazado 117000" d="M59.825,51.286a7.432,7.432,0,0,1-.192,9.58,1.1,1.1,0,0,0-.258.707v6.6h2.2V61.961a9.6,9.6,0,0,0-.067-12.092Z"/>
      </g>
    </g>
  </g>
</svg>
