<svg xmlns="http://www.w3.org/2000/svg" width="85" height="85" viewBox="0 0 85 85">
  <g id="alerta" transform="translate(-11.05 -11.05)">
    <g id="Grupo_80778" data-name="Grupo 80778" transform="translate(24.994 30.968)">
      <path id="Trazado_114329" data-name="Trazado 114329" d="M58.9,35.865a20.75,20.75,0,0,0-20.75,20.75v31.43h41.5V56.615A20.75,20.75,0,0,0,58.9,35.865Z" transform="translate(-30.341 -35.865)" fill="#e5384f"/>
      <path id="Trazado_114330" data-name="Trazado 114330" d="M50.667,72.2l10.7-8.016-10.7-8.016Z" transform="translate(-32.812 -39.872)" fill="#fdbe00"/>
      <path id="Trazado_114331" data-name="Trazado 114331" d="M64,64.183,74.7,72.2V56.167Z" transform="translate(-35.444 -39.872)" fill="#fdbe00"/>
      <path id="Trazado_114332" data-name="Trazado 114332" d="M32.3,96.442,28.422,111.5H85.535L81.66,96.442Z" transform="translate(-28.422 -47.82)" fill="#223b59"/>
    </g>
    <g id="Grupo_80779" data-name="Grupo 80779" transform="translate(11.05 11.05)">
      <path id="Trazado_114333" data-name="Trazado 114333" d="M35.884,58.655a1.405,1.405,0,0,0-1.4,1.4V82.751H31.951a1.4,1.4,0,0,0-1.36,1.051L26.714,98.861a1.405,1.405,0,0,0,1.364,1.755H64.691a1.4,1.4,0,1,0,0-2.809h-34.8L33.04,85.558H80.226l3.153,12.248h-3.1a1.4,1.4,0,1,0,0,2.809h4.912a1.405,1.405,0,0,0,1.364-1.755L82.675,83.8a1.4,1.4,0,0,0-1.36-1.051H78.786V56.288a22.153,22.153,0,0,0-44.212-1.977,1.4,1.4,0,1,0,2.8.246,19.344,19.344,0,0,1,38.607,1.731V82.751H58.037v-20.1l8.455,6.334a1.4,1.4,0,0,0,2.247-1.124V51.831a1.4,1.4,0,0,0-2.247-1.124l-9.86,7.384-9.86-7.384a1.4,1.4,0,0,0-2.247,1.124V67.863a1.4,1.4,0,0,0,2.247,1.124l8.455-6.333v20.1H37.289V60.06a1.405,1.405,0,0,0-1.4-1.4ZM65.93,54.637V65.056l-6.954-5.209ZM47.336,65.056V54.637l6.954,5.209Z" transform="translate(-14.133 -15.618)"/>
      <path id="Trazado_114334" data-name="Trazado 114334" d="M85.057,116.259a1.4,1.4,0,1,0,0-2.809H80.675a1.4,1.4,0,0,0,0,2.809Z" transform="translate(-24.514 -31.259)"/>
      <path id="Trazado_114335" data-name="Trazado 114335" d="M65.059,23.585V12.455a1.4,1.4,0,1,0-2.809,0v11.13a1.4,1.4,0,1,0,2.809,0Z" transform="translate(-21.155 -11.05)"/>
      <path id="Trazado_114336" data-name="Trazado 114336" d="M91.048,36.315l7.87-7.866a1.4,1.4,0,1,0-1.986-1.986l-7.866,7.866a1.4,1.4,0,0,0,1.986,1.986Z" transform="translate(-26.366 -14.011)"/>
      <path id="Trazado_114337" data-name="Trazado 114337" d="M35.321,36.726a1.4,1.4,0,0,0,.993-2.4l-7.866-7.866a1.4,1.4,0,0,0-1.986,1.986l7.866,7.87A1.4,1.4,0,0,0,35.321,36.726Z" transform="translate(-14.01 -14.011)"/>
      <path id="Trazado_114338" data-name="Trazado 114338" d="M23.585,65.059a1.4,1.4,0,1,0,0-2.809H12.455a1.4,1.4,0,1,0,0,2.809Z" transform="translate(-11.05 -21.155)"/>
      <path id="Trazado_114339" data-name="Trazado 114339" d="M112.118,65.059a1.4,1.4,0,1,0,0-2.809h-11.13a1.4,1.4,0,1,0,0,2.809Z" transform="translate(-28.523 -21.155)"/>
    </g>
  </g>
</svg>
