<svg xmlns="http://www.w3.org/2000/svg" width="96" height="88.615" viewBox="0 0 96 88.615">
  <g id="Grupo_83559" data-name="Grupo 83559" transform="translate(777.934 -333)">
    <path id="Trazado_117311" data-name="Trazado 117311" d="M-671.9,383.251c-.986-13.351-12.639-28.273-27.19-23.076q-.3-2.822-.7-5.616a1.051,1.051,0,0,0-.156-.428c-1.04-3.639-6.029-4.914-9.336-5.486-12.877-2.858-26.942-2.127-39.747.708-4.319.956-10.026,2.634-12.513,6.619a2.658,2.658,0,0,0-.142,2.955c-.312,13.352-.522,26.681.178,40.036.432,8.248,1.269,16.769,5.551,24.026,4.576,7.755,16.781,7.4,24.539,7.183,9.375-.258,20.159-1.969,27.728-7.879,3.594-2.808,4.933-6.922,5.442-11.2C-681.677,413.451-670.763,398.678-671.9,383.251Z" transform="translate(-12.888 -11.235)" fill="#fff"/>
    <g id="Grupo_83558" data-name="Grupo 83558" transform="translate(-777.934 333)">
      <path id="Trazado_117312" data-name="Trazado 117312" d="M-699.093,361.3q-.3-2.822-.7-5.616a1.051,1.051,0,0,0-.156-.428c-1.04-3.639-6.029-4.914-9.336-5.486-12.877-2.857-26.942-2.127-39.747.708-4.319.956-10.026,2.634-12.513,6.619a2.658,2.658,0,0,0-.142,2.955c-.312,13.352-.522,26.681.178,40.036.432,8.248,1.269,16.769,5.551,24.026,4.576,7.755,16.781,7.4,24.539,7.183,9.375-.258,20.159-1.969,27.728-7.879,3.594-2.808,4.933-6.922,5.442-11.2,16.572,2.361,27.487-12.411,26.346-27.839C-672.889,371.028-684.542,356.106-699.093,361.3Zm.9,11.878c7.807-3.8,11.924,3.815,13.456,10.577,2.244,9.9-3.365,16.958-13.14,15.778C-697.8,390.818-697.769,381.959-698.193,373.182Zm-51.948-19.411a79.039,79.039,0,0,1,16.812-2.543,99.259,99.259,0,0,1,23.388.921c2.4.735,4.865,1.369,6.836,3.019,1.4,1.176-1.829,2.615-4.538,3.548-14.141-6.455-30.925-.827-45.044,2.62q-.985-.229-1.962-.494C-763.108,358.535-753.3,354.687-750.141,353.771Zm47.527,63.827c-4.363,9.2-20.091,10.429-28.8,10.859a54.93,54.93,0,0,1-15.263-1.3c-6.733-1.583-8.818-7.6-10.371-13.661-1.738-6.78-1.7-14.129-1.918-21.08-.319-10.059-.463-20.2-.3-30.287a20.657,20.657,0,0,0,3.848,1.537c13.918,4.18,29.9,2.223,43.846-.825,1.847-.4,6.7-1.189,9.577-3.033.97,13.175,1.173,26.425,1.263,39.626C-700.7,405.35-700.012,412.112-702.614,417.6Zm23.125-16.043c-4.4,6.279-11.5,7.3-18.529,7.808.061-1.237.079-2.467.088-3.662q.012-1.573.026-3.154c10.713,2.787,18.293-7.367,16.5-17.878-1.378-8.086-7.756-19.4-16.961-14.593q-.183-2.977-.45-5.935c6.183-.69,11.431-.586,16.391,3.935,4.5,4.1,6.675,10.386,7.24,16.3A25.622,25.622,0,0,1-679.489,401.554Z" transform="translate(765.046 -345.152)" fill="#2d2d2d"/>
      <path id="Trazado_117313" data-name="Trazado 117313" d="M-670.68,518.443c-7.79-14.572-21.064-4.447-18.822,7.6,1.257,6.746,6.417,13.486,12.21,17.551,5.3,3.722,9.159,2.95,13.288-.59,7.849-6.729,16.22-16.849,12.18-26.514C-655.825,506.921-666.561,511.263-670.68,518.443Zm-6.694,21.095c-6.809-3.059-12.948-15.625-8.835-22.507.034-.058.141-.038.134.037-.478,4.971-.2,9.368,2.461,13.782,1.861,3.088,4.606,5.44,6.462,8.466C-677.059,539.466-677.235,539.6-677.373,539.538Zm2.75,2.335c-.574.574-1.5-.93-1.762-1.264a.352.352,0,0,1,.5-.5C-675.553,540.37-674.049,541.3-674.623,541.873Zm20.047-25.313c-1.72.016-3.313-.726-5.053-.666a14.53,14.53,0,0,0-4.731,1.1.127.127,0,0,1-.143-.185c2.016-2.866,7.753-3.562,10.111-.7A.264.264,0,0,1-654.577,516.56Z" transform="translate(706.303 -477.57)" fill="#2d2d2d"/>
      <path id="Trazado_117314" data-name="Trazado 117314" d="M-703.123,706.826c-2.5-1.418-5.419-1.574-8.133-2.406-4.887-1.5-6.442-5.638-8.825-9.6a.091.091,0,0,0-.168.045c-.082,8.7,9.5,13.093,17.03,12.317A.191.191,0,0,0-703.123,706.826Z" transform="translate(731.076 -626.875)" fill="#2d2d2d"/>
      <path id="Trazado_117315" data-name="Trazado 117315" d="M-621.558,756.831a4.242,4.242,0,0,0-1.615-.173,2.732,2.732,0,0,0-1.469.157.276.276,0,0,0-.055.425,1.916,1.916,0,0,0,1.524.487,2.2,2.2,0,0,0,1.714-.519A.228.228,0,0,0-621.558,756.831Z" transform="translate(653.517 -677.127)" fill="#2d2d2d"/>
      <path id="Trazado_117316" data-name="Trazado 117316" d="M-559.5,433.642c-6.537,1.524-13.01,2.3-19.633,3.281-.242.035-.146.363.053.39,6.532.86,13.933-.08,19.74-3.292A.209.209,0,0,0-559.5,433.642Z" transform="translate(616.558 -414.748)" fill="#2d2d2d"/>
      <path id="Trazado_117317" data-name="Trazado 117317" d="M-461.01,643.447c-.3,2.387-.184,4.691-.765,7.062-.568,2.32-1.718,4.447-2.337,6.759-.035.131.146.257.241.14,2.872-3.5,5.1-9.647,3.079-14.021C-460.847,643.268-461,643.346-461.01,643.447Z" transform="translate(523.015 -585.084)" fill="#2d2d2d"/>
      <path id="Trazado_117318" data-name="Trazado 117318" d="M-335.338,418.068c-.047-.028-.1.041-.06.078,4.951,4.132,8.93,8.6,10.979,14.832,2.132,6.482,1.281,13.257-.282,19.75a.122.122,0,0,0,.235.064C-319.7,440.431-323.5,425-335.338,418.068Z" transform="translate(418.467 -402.097)" fill="#2d2d2d"/>
      <path id="Trazado_117319" data-name="Trazado 117319" d="M-762.064,341.754c7.48-5.135,17.4-6.643,26.22-7.482,8.278-.788,17.323-1.088,25.5.687a.1.1,0,0,0,.051-.183c-8.39-2.373-17.725-1.94-26.3-1.144s-18.739,2.253-25.549,8.022C-762.2,341.7-762.123,341.794-762.064,341.754Z" transform="translate(765.121 -333)" fill="#2d2d2d"/>
      <path id="Trazado_117320" data-name="Trazado 117320" d="M-761.36,554.581a19.732,19.732,0,0,1-8.15-4.4c-2.839-2.8-4.228-6.759-5.214-10.525-3.559-13.6-1.514-27.666-2.85-41.463a.032.032,0,0,0-.063,0,224.608,224.608,0,0,0,.08,24.393,84.466,84.466,0,0,0,2.695,19.227c1.957,6.772,6.223,12.043,13.478,12.946C-761.279,554.77-761.268,554.61-761.36,554.581Z" transform="translate(777.934 -467.163)" fill="#2d2d2d"/>
      <path id="Trazado_117321" data-name="Trazado 117321" d="M-571.2,777.815c-8.173,2.726-16.1,4.8-24.807,4.63-.09,0-.113.146-.021.16a42.274,42.274,0,0,0,24.9-4.616A.1.1,0,0,0-571.2,777.815Z" transform="translate(630.217 -694.327)" fill="#2d2d2d"/>
      <path id="Trazado_117322" data-name="Trazado 117322" d="M-455.395,768.285a10.977,10.977,0,0,0-1.091.6,8.884,8.884,0,0,1-.975.641c-.057.027-.016.113.041.1a5.729,5.729,0,0,0,1-.247,3.636,3.636,0,0,0,1.212-.849A.159.159,0,0,0-455.395,768.285Z" transform="translate(517.63 -686.575)" fill="#2d2d2d"/>
    </g>
  </g>
</svg>
