<svg xmlns="http://www.w3.org/2000/svg" width="81.443" height="73.679" viewBox="0 0 81.443 73.679">
  <g id="Grupo_81083" data-name="Grupo 81083" transform="translate(-413.89 -77.47)">
    <g id="Grupo_81069" data-name="Grupo 81069" transform="translate(283.281 -105)">
      <g id="Grupo_81065" data-name="Grupo 81065" style="mix-blend-mode: overlay;isolation: isolate">
        <path id="Trazado_115015" data-name="Trazado 115015" d="M201.459,222.3c-4.818,4.93-9.8,9.679-14.871,14.344,2.194-4.96,4.559-9.841,6.642-14.853,2.361-5.682,5.106-13.427,2.129-19.387-6.784-13.585-23.933-.255-30.244,6.583-.672.729-1.314,1.49-1.964,2.242,2.255-5.522,4.285-11.2,3.749-17.162-.737-8.2-8.257-10.171-14.731-6.359-6.952,4.092-12.536,11.173-17.2,17.6-3.96,5.462,5.1,10.662,9.03,5.278a71.032,71.032,0,0,1,7.059-8.257q-.562,1.03-1.137,2.057a153.28,153.28,0,0,0-7.1,13.831c-3.952,9.119-9.8,21.744-4.825,31.336,2.506,4.834,8.382,5.325,12.806,3.358,5.947-2.644,10.066-8.481,14.037-13.421,4.145-5.158,7.8-10.635,11.633-16.017a77.947,77.947,0,0,1,5.041-6.6c.042-.048.086-.092.128-.139l-.046.145c-1.019,3.168-2.329,6.208-3.656,9.256-2.468,5.671-5.652,11.64-6.556,17.81-.8,5.456,1.41,11.571,7.972,11.175,6.169-.372,11.113-6.314,15.237-10.282,4.994-4.806,9.9-9.707,14.8-14.6C214.523,225.134,206.52,217.128,201.459,222.3Z" fill="#3c384f"/>
        <path id="Trazado_115016" data-name="Trazado 115016" d="M178.771,256.149a7.839,7.839,0,0,1-5.971-2.478c-2.078-2.263-2.976-5.949-2.4-9.86.747-5.1,2.971-9.983,5.121-14.705.515-1.131,1.025-2.251,1.507-3.359.457-1.051.938-2.155,1.415-3.3q-.438.61-.867,1.214l-.284.4c-1,1.4-1.981,2.8-2.964,4.206-2.761,3.94-5.616,8.015-8.7,11.857-.451.561-.9,1.134-1.362,1.713-3.541,4.478-7.554,9.553-13.048,11.995-4.9,2.175-11.313,1.566-14.1-3.811-5.007-9.659.4-22.088,4.347-31.163l.448-1.032c1.161-2.681,2.463-5.3,3.844-7.9q-.48.625-.942,1.26a6.656,6.656,0,0,1-9.394,1.306,5.277,5.277,0,0,1-1.254-7.761c4.977-6.865,10.542-13.783,17.5-17.879,3.862-2.273,8.089-2.642,11.31-.987,2.836,1.457,4.585,4.34,4.924,8.119A30.627,30.627,0,0,1,165.95,206.7c5.135-5.017,14.632-12.132,22.251-11.054,3.5.5,6.209,2.621,8.052,6.312,3.032,6.07.64,13.627-2.1,20.218-1.3,3.138-2.738,6.268-4.125,9.3l-.491,1.071c4.127-3.87,7.819-7.475,11.207-10.941h0a6.009,6.009,0,0,1,5.986-1.778,7.368,7.368,0,0,1,5.1,5.061,6.063,6.063,0,0,1-1.722,6.064l-.558.556c-4.645,4.636-9.448,9.43-14.26,14.059-.593.571-1.2,1.182-1.83,1.812-3.736,3.745-8.385,8.407-14.04,8.748C179.2,256.143,178.984,256.149,178.771,256.149Zm2.869-40.361a.944.944,0,0,1,.484.129.973.973,0,0,1,.472,1.135l-.047.146c-1.068,3.322-2.461,6.523-3.69,9.347-.487,1.119-1,2.249-1.521,3.389-2.092,4.6-4.256,9.348-4.962,14.167-.479,3.272.248,6.421,1.9,8.217a6,6,0,0,0,5.024,1.815c4.9-.3,9.066-4.476,12.745-8.165.638-.639,1.257-1.26,1.859-1.84,4.8-4.617,9.6-9.4,14.235-14.034l.557-.556a4.067,4.067,0,0,0,1.205-4.124,5.383,5.383,0,0,0-3.671-3.649A4.007,4.007,0,0,0,202.175,223h0c-4.377,4.477-9.254,9.181-14.911,14.38a1,1,0,0,1-1.591-1.141c.829-1.875,1.683-3.738,2.537-5.6,1.379-3.012,2.806-6.126,4.1-9.231,2.567-6.174,4.83-13.207,2.158-18.556-1.553-3.112-3.694-4.821-6.545-5.225-7.1-1.006-17.092,6.646-22.069,12.04-.531.574-1.042,1.17-1.554,1.766l-.387.451a1,1,0,0,1-1.683-1.031c2.147-5.26,4.2-10.882,3.678-16.7-.28-3.115-1.61-5.369-3.846-6.518-2.608-1.34-6.115-.991-9.382.931-6.642,3.911-12.046,10.64-16.9,17.33a3.316,3.316,0,0,0,.811,4.97,4.627,4.627,0,0,0,6.6-.868,72.419,72.419,0,0,1,7.158-8.374,1,1,0,0,1,1.587,1.185q-.565,1.035-1.143,2.066a152.988,152.988,0,0,0-7.053,13.74l-.449,1.034c-3.788,8.707-8.974,20.632-4.406,29.445,2.219,4.281,7.471,4.7,11.512,2.9,5.043-2.241,8.728-6.9,12.291-11.408.461-.582.918-1.16,1.373-1.725,3.046-3.791,5.881-7.838,8.624-11.752q1.479-2.112,2.973-4.219l.284-.4a74.4,74.4,0,0,1,4.824-6.284l.089-.1A1.092,1.092,0,0,1,181.64,215.788Zm19.82,6.517h0Z" fill="#3c384f"/>
        <path id="Trazado_115017" data-name="Trazado 115017" d="M142.792,223.274c-3.684,7.4-5.763,16.084-2.526,24.042.478,1.177,2.413.662,1.928-.532-3.038-7.472-1.14-15.537,2.325-22.5C145.091,223.135,143.366,222.12,142.792,223.274Z" fill="#3c384f"/>
        <path id="Trazado_115018" data-name="Trazado 115018" d="M145.829,244.381c-.017,0-.033-.007-.049-.01-.028-.054-.053-.113-.062-.129l-.005-.006c0-.008,0,0,0-.014-.129-.447-.221-.9-.319-1.354q-.339-1.582-.679-3.165a1.007,1.007,0,0,0-1.23-.7,1.023,1.023,0,0,0-.7,1.23q.384,1.789.769,3.58c.213.993.554,2.3,1.744,2.495a1.024,1.024,0,0,0,1.23-.7A1.011,1.011,0,0,0,145.829,244.381Z" fill="#3c384f"/>
        <path id="Trazado_115019" data-name="Trazado 115019" d="M189.856,201.723c-1.135-.606-2.146,1.12-1.009,1.727,1.57.838,2.049,2.544,2.111,4.22a28.922,28.922,0,0,1-.451,5.733,38.049,38.049,0,0,1-3.471,10.742c-.571,1.149,1.153,2.163,1.727,1.009a40.021,40.021,0,0,0,3.882-12.651C193.116,208.9,193.68,203.764,189.856,201.723Z" fill="#3c384f"/>
      </g>
      <g id="Grupo_81068" data-name="Grupo 81068">
        <g id="Grupo_81067" data-name="Grupo 81067">
          <g id="Grupo_81066" data-name="Grupo 81066">
            <path id="Trazado_115020" data-name="Trazado 115020" d="M199.088,219.934c-4.818,4.93-9.8,9.679-14.872,14.343,2.194-4.959,4.56-9.841,6.643-14.852,2.361-5.682,5.105-13.427,2.129-19.387-6.784-13.585-23.933-.256-30.244,6.583-.673.728-1.314,1.489-1.964,2.242,2.254-5.522,4.284-11.2,3.749-17.162-.737-8.2-8.257-10.171-14.731-6.36-6.953,4.093-12.536,11.174-17.2,17.6-3.96,5.462,5.1,10.662,9.031,5.278a71.117,71.117,0,0,1,7.058-8.258q-.562,1.03-1.136,2.058a153.4,153.4,0,0,0-7.1,13.83c-3.953,9.12-9.8,21.744-4.825,31.337,2.506,4.834,8.381,5.325,12.806,3.358,5.947-2.644,10.066-8.481,14.037-13.421,4.145-5.158,7.8-10.635,11.632-16.017a78.554,78.554,0,0,1,5.041-6.6c.042-.047.087-.091.129-.139l-.046.146c-1.019,3.168-2.33,6.208-3.656,9.256-2.469,5.67-5.652,11.639-6.556,17.81-.8,5.456,1.41,11.571,7.972,11.175,6.168-.372,11.112-6.314,15.236-10.282,4.995-4.806,9.9-9.708,14.806-14.6C212.151,222.763,204.148,214.757,199.088,219.934Z" fill="#ffd947"/>
            <path id="Trazado_115021" data-name="Trazado 115021" d="M176.4,253.777a7.836,7.836,0,0,1-5.97-2.477c-2.078-2.263-2.976-5.949-2.4-9.861.746-5.1,2.97-9.982,5.121-14.705.514-1.131,1.024-2.25,1.507-3.358.457-1.051.938-2.155,1.415-3.3-.292.406-.581.812-.867,1.214l-.284.4c-1,1.4-1.981,2.8-2.965,4.206-2.76,3.941-5.615,8.016-8.7,11.857q-.677.843-1.362,1.714c-3.541,4.477-7.554,9.552-13.048,11.995-4.9,2.175-11.313,1.565-14.1-3.812-5.007-9.658.4-22.087,4.346-31.163l.449-1.031c1.161-2.681,2.463-5.3,3.843-7.9q-.479.625-.942,1.259a6.654,6.654,0,0,1-9.393,1.307,5.277,5.277,0,0,1-1.254-7.761c4.977-6.865,10.542-13.783,17.5-17.88,3.863-2.272,8.089-2.641,11.311-.986,2.836,1.457,4.584,4.339,4.924,8.118a30.609,30.609,0,0,1-1.947,12.721c5.136-5.016,14.632-12.131,22.251-11.053,3.5.5,6.21,2.621,8.053,6.312,3.031,6.07.639,13.626-2.1,20.218-1.3,3.137-2.738,6.268-4.125,9.295l-.491,1.071c4.127-3.869,7.819-7.474,11.207-10.94h0a6.008,6.008,0,0,1,5.986-1.777,7.365,7.365,0,0,1,5.1,5.061,6.058,6.058,0,0,1-1.721,6.063l-.558.557c-4.645,4.636-9.448,9.429-14.26,14.059-.593.571-1.2,1.182-1.831,1.812-3.735,3.745-8.384,8.407-14.039,8.748C176.828,253.771,176.613,253.777,176.4,253.777Zm2.869-40.361a.943.943,0,0,1,.484.13.972.972,0,0,1,.473,1.135l-.047.146c-1.068,3.321-2.461,6.523-3.69,9.347-.487,1.118-1,2.248-1.521,3.389-2.093,4.6-4.257,9.348-4.963,14.166-.479,3.272.248,6.421,1.9,8.218a6.005,6.005,0,0,0,5.024,1.815c4.9-.3,9.066-4.476,12.744-8.165.638-.64,1.258-1.261,1.86-1.84,4.8-4.617,9.6-9.4,14.235-14.034l.557-.557a4.065,4.065,0,0,0,1.2-4.124,5.38,5.38,0,0,0-3.671-3.648,4.005,4.005,0,0,0-4.051,1.239h0c-4.377,4.477-9.254,9.181-14.911,14.381a1,1,0,0,1-1.591-1.141c.829-1.875,1.683-3.738,2.536-5.6,1.38-3.011,2.806-6.125,4.1-9.23,2.566-6.174,4.83-13.207,2.158-18.557-1.554-3.111-3.7-4.82-6.545-5.225-7.1-1.005-17.093,6.647-22.07,12.04-.53.575-1.041,1.171-1.553,1.766l-.388.452a1,1,0,0,1-1.683-1.032c2.148-5.259,4.2-10.882,3.679-16.7-.28-3.116-1.61-5.37-3.846-6.519-2.609-1.339-6.115-.99-9.382.932-6.643,3.91-12.046,10.64-16.9,17.33a3.314,3.314,0,0,0,.811,4.969,4.626,4.626,0,0,0,6.6-.867,72.237,72.237,0,0,1,7.158-8.374,1,1,0,0,1,1.586,1.184q-.565,1.036-1.142,2.067a153,153,0,0,0-7.054,13.74l-.449,1.034c-3.787,8.707-8.973,20.632-4.4,29.444,2.219,4.282,7.471,4.7,11.512,2.9,5.043-2.241,8.728-6.9,12.291-11.408q.691-.875,1.372-1.726c3.047-3.79,5.882-7.837,8.625-11.751.986-1.408,1.973-2.817,2.973-4.22l.284-.4a74.44,74.44,0,0,1,4.823-6.284l.09-.1A1.091,1.091,0,0,1,179.268,213.416Zm19.82,6.518h0Z"/>
          </g>
          <path id="Trazado_115022" data-name="Trazado 115022" d="M140.421,220.9c-3.685,7.4-5.763,16.083-2.527,24.042.479,1.176,2.414.662,1.929-.532-3.039-7.473-1.141-15.537,2.325-22.5C142.719,220.763,140.995,219.749,140.421,220.9Z"/>
          <path id="Trazado_115023" data-name="Trazado 115023" d="M143.458,242.01c-.017,0-.033-.007-.049-.01-.028-.055-.054-.113-.063-.129l0-.006c0-.008,0,0,0-.015-.129-.446-.222-.9-.319-1.353q-.34-1.582-.679-3.165a1.008,1.008,0,0,0-1.231-.7,1.023,1.023,0,0,0-.7,1.23l.768,3.579c.214.994.555,2.3,1.745,2.5a1.025,1.025,0,0,0,1.23-.7A1.012,1.012,0,0,0,143.458,242.01Z"/>
          <path id="Trazado_115024" data-name="Trazado 115024" d="M187.485,199.352c-1.135-.606-2.147,1.12-1.009,1.727,1.57.838,2.048,2.544,2.111,4.219a28.932,28.932,0,0,1-.451,5.734,38.049,38.049,0,0,1-3.471,10.742c-.572,1.149,1.153,2.163,1.727,1.009a40.062,40.062,0,0,0,3.882-12.651C190.745,206.527,191.309,201.392,187.485,199.352Z"/>
        </g>
      </g>
    </g>
  </g>
</svg>
