<svg xmlns="http://www.w3.org/2000/svg" width="63.956" height="56.981" viewBox="0 0 63.956 56.981">
  <g id="Grupo_82651" data-name="Grupo 82651" transform="translate(-324.626 -112.108)">
    <path id="Trazado_114935" data-name="Trazado 114935" d="M344.892,156.406h-.333c-.9,0-1.078-.15-1.6-1.058-.258-.451-.379-1-.856-1.316a.319.319,0,0,1-.124-.27c.145-.437-.281-.669-.347-1.029s-.415-.593-.35-1.031c.043-.29-.312-.5-.392-.83-.069-.286-.489-.083-.75-.123a3.77,3.77,0,0,0-.5,0c-.268-.006-.318-.1-.343-.426a.877.877,0,0,1,.3-.714,1.161,1.161,0,0,0,.148-1.581c-.142-.275-.306-.558-.412-.828-.166-.422-.49-.811-.383-1.351.081-.406-.529-.7-.314-1.19a2.409,2.409,0,0,1-.629-1.225,5.4,5.4,0,0,0-.5-1.3c-.063-.191.11-.707.3-.7.372.019.777-.147,1.114.111.359.276.967.26,1.05.865.049.364.474.587.344,1.03-.075.256.211.365.36.506a.837.837,0,0,1,.307.713.546.546,0,0,0,.164.42,1.259,1.259,0,0,1,.489,1.3c-.031.273.2.369.328.531a.38.38,0,0,0,.562.107,3.423,3.423,0,0,0,.7-.706c.208-.307.623-.142.824-.457a1.12,1.12,0,0,1,.79-.5c.175-.032.359-.272.448-.461.1-.219-.105-.379-.223-.565a1.75,1.75,0,0,1-.4-.979c.063-.459-.312-.663-.408-1.021-.09-.338-.363-.636-.292-1.038a.919.919,0,0,1-.322-1.024c.1-.4-.347-.52-.354-.863-.008-.363.144-.759-.233-1.071-.265-.217.072-.643-.239-.9-.369-.3-.189-.729-.167-1.085.032-.511.9-.792,1.289-.447a7.266,7.266,0,0,1,.586.591.4.4,0,0,1,.1.285,2.186,2.186,0,0,0,.34,1.361c-.183.48.352.728.373,1.192a2.66,2.66,0,0,0,.576,1.252c.184.268.018.7.357,1.025.179.169-.066.6.241.894a2,2,0,0,1,.424.809c.2.642.8,1.132.7,1.881-.009.075.1.205.187.245.5.236.4.878.8,1.171-.088.453.6.691.333,1.193a8.309,8.309,0,0,1,.5.958c.162.432.558.772.506,1.292a.359.359,0,0,0,.1.285c.592.435.657,1.186,1.061,1.726.145.194.261.385.1.566s-.3.471-.64.452a5.911,5.911,0,0,0-.831,0,.666.666,0,0,1-.56-.267c-.186-.183-.324-.434-.663-.417-.162.008-.248-.155-.239-.35a1.628,1.628,0,0,0-.04-.809,4.048,4.048,0,0,0-.353-.677c-.244-.251-.235-.582-.434-.836a2.361,2.361,0,0,1-.479-.958c-.06-.327-.5-.468-.357-.855-.413-.123-.159-.774-.626-.823-.387-.04-.5.385-.769.547-.128.076-.342.039-.438.133a1.786,1.786,0,0,1-.687.366c-.236.091-.4.366-.6.567a2.759,2.759,0,0,0-.533.612c-.146.3.334.441.3.685-.053.423.253.689.331,1.034s.517.585.36,1.026a.326.326,0,0,0,.1.281c.659.514.778,1.353,1.2,2.008.106.163.154.4.327.521.527.352.331.881.351,1.352,0,.059-.148.17-.234.177C345.448,156.421,345.169,156.406,344.892,156.406Z"/>
    <path id="Trazado_114936" data-name="Trazado 114936" d="M358.018,147.081c.237,0,.293.007.347,0a1.384,1.384,0,0,1,1.4.634.782.782,0,0,1-.09,1.131,5.553,5.553,0,0,0-1.161.82c-.073.09-.3.044-.456.084s-.361.064-.419.166c-.263.469-.861.431-1.167.815-.512.012-.74.317-.854.781-.061.246-.407.364-.338.7.01.05-.136.188-.214.192-.387.021-.775.019-1.162,0a.483.483,0,0,1-.265-.153c-.28-.267-.539-.558-.829-.815a.679.679,0,0,1-.185-.591c0-.1.01-.251-.051-.306a1.832,1.832,0,0,1-.571-1.084c-.045-.4-.3-.671-.367-1.022s-.41-.582-.376-1.026c.024-.308-.273-.645-.439-.963s-.479-.624-.5-.947c-.031-.562-.809-.628-.7-1.218-.411-.289-.3-.927-.795-1.175-.109-.054-.173-.259-.2-.4-.053-.313-.283-.239-.485-.293a.362.362,0,0,1-.133-.54,10.137,10.137,0,0,0,.93-.948,6.218,6.218,0,0,1,2.089-1.391.766.766,0,0,1,.611-.088,3.05,3.05,0,0,1,1.21.7c.091.114.073.125-.017.248-.209.285-.6.27-.791.48-.214.24-.541.111-.7.336-.2.279-.482.182-.742.225a.924.924,0,0,0-.394.244c-.291.251-.347.412-.14.675.262.332.268.807.688,1.057a2.762,2.762,0,0,1,.7.7c.156.2.227.461.364.677.163.256.295.268.468.138.345-.258.511-.736.983-.83s.643-.566.989-.82c.216-.158.4-.447.623-.485.207-.035.45.265.689.286.423.036.392.3.371.567s.131.705-.153.737c-.594.066-.745.611-1.154.846-.354.2-.739.353-1.108.533a2.287,2.287,0,0,0-.259.177c-.172.116-.106.209-.069.589a6.8,6.8,0,0,0,.728,1.863,1.613,1.613,0,0,0,.345.52.875.875,0,0,0,.9.119c.258-.19.485-.422.75-.6a1.784,1.784,0,0,1,.691-.324c.328-.047.469-.407.852-.391.211.008.059-.236-.054-.32-.132-.1-.162-.2-.025-.23A4.375,4.375,0,0,1,358.018,147.081Z"/>
    <path id="Trazado_114938" data-name="Trazado 114938" d="M360.556,131.424c.077,0,.374-.048.383.23a.865.865,0,0,0,.417.661,3.3,3.3,0,0,1,.814,1.163c.162.331.245.7.589.921.289.183.136.638.472.8-.012.439.426.609.565.93.181.418.605.755.495,1.292a.772.772,0,0,0,.346.855.7.7,0,0,1,.323.7c-.043.431.553.7.327,1.192.385.3.29.766.415,1.158.03.094.2.15.219.239a7.7,7.7,0,0,0,.143,1.108c.093.29.515.381.568.764.025.182.248.339.262.517.009.107-.211.233-.329.351-.078.078-.154.159-.236.234a.8.8,0,0,1-1.018.072c-.184-.088-.421-.115-.555-.249s-.12-.418-.256-.545a1.3,1.3,0,0,1-.546-1.277c.052-.25-.181-.377-.249-.561a4.243,4.243,0,0,1-.456-1.49c-.005-.423-.331-.853-.382-1.322-.371-.219-.152-.607-.263-.888-.092-.233-.394-.374-.319-.7.024-.1.045-.268-.011-.32a2.185,2.185,0,0,1-.618-1.237,9.294,9.294,0,0,0-.56-1.274c-.137-.437-.438-.81-.58-1.255-.046-.144-.238-.295-.21-.4.131-.484-.409-.735-.361-1.2C359.986,131.495,359.993,131.435,360.556,131.424Z"/>
    <path id="Trazado_114939" data-name="Trazado 114939" d="M362.092,146.748c-.541.212-.869-.339-1.34-.372a6.467,6.467,0,0,1-.447-.975,3.172,3.172,0,0,1-.02-.823c-.417-.236-.309-.652-.35-1.017-.547-.252-.073-.983-.585-1.251a2.334,2.334,0,0,0-.414-1.32c-.219-.406-.4-.833-.644-1.23a6.812,6.812,0,0,0-.666-1.217c.069-.336-.2-.481-.384-.67-.152-.156-.33-.292-.282-.548a.68.68,0,0,0-.3-.705.936.936,0,0,1-.386-.845c.007-.228-.249-.451-.3-.694-.052-.26.023-.531-.242-.741-.093-.074-.1-.295-.1-.446s.043-.355.143-.423a.525.525,0,0,1,.432.053,1.769,1.769,0,0,1,.357.342c.117.117.342.242.335.351-.04.586.659.7.724,1.2.054.421.514.54.663.887a5.911,5.911,0,0,0,.4.992,10.483,10.483,0,0,0,.8.838.693.693,0,0,1,.125.438.563.563,0,0,0,.235.569c.352.211.342.663.6.909.294.284.053.645.227.907s.487.468.59.752c.08.222.333.377.318.521-.05.469.269.795.349,1.191.066.329.061.636.373.848a.648.648,0,0,1,.318.7c-.051.252.174.374.256.558A.848.848,0,0,1,362.092,146.748Z"/>
    <path id="Trazado_114945" data-name="Trazado 114945" d="M327.651,141.594a.965.965,0,0,1-.333,1.013l.012,2.655c.548.417.208,1.021.33,1.527s-.43.729-.391,1.173a5.61,5.61,0,0,1-.98.438c-.509.124-.842-.358-1.291-.475.069-.449-.489-.709-.349-1.188.1-.346.437-.589.352-1.027a6.238,6.238,0,0,1-.015-1.161c0-.388,0-.775,0-1.163a6.794,6.794,0,0,1,.031-.821c.012-.087.209-.154.214-.237a3.977,3.977,0,0,1,.49-1.463,1.189,1.189,0,0,1,1.568-.291c.157.119.391.23.364.509C327.638,141.248,327.651,141.416,327.651,141.594Z"/>
    <path id="Trazado_114946" data-name="Trazado 114946" d="M330.01,135.424c-.086-.013-.43.04-.6-.108-.287-.254-.757-.178-.937-.568a1.433,1.433,0,0,1-.149-.417c.465-.281.178-.839.431-1.16s.233-.855.694-1.05a.284.284,0,0,0,.117-.116c.255-.447.3-1,.7-1.374s.788-.78,1.178-1.175c.074-.075.194-.172.187-.249-.064-.657.727-.352.857-.778a.964.964,0,0,1,1.019.36c.143.214.209.333.023.562a.828.828,0,0,0-.232.577,3.343,3.343,0,0,1-.586,1.581,3.092,3.092,0,0,0-.492.795,1.189,1.189,0,0,0-.245.732c.039.269-.154.408-.32.529a.867.867,0,0,0-.353.86c.029.332-.446.474-.36.854.007.027-.164.125-.26.138A5.694,5.694,0,0,1,330.01,135.424Z"/>
    <path id="Trazado_114948" data-name="Trazado 114948" d="M354.863,114.441c.476.014.956-.079,1.374.314.126.118.4.068.394.372a.986.986,0,0,1-.237.74c-.269.294-.754.178-.934.572-.469-.149-.812.159-1.188.335-.325.152-.643.319-.961.486-.092.048-.193.187-.255.168-.735-.221-1.3.5-2.025.356a.6.6,0,0,0-.413.179c-.267.239-.473.169-.694-.059a.406.406,0,0,0-.274-.125.889.889,0,0,1-.863-.341,5.425,5.425,0,0,0-.7-.707c-.241-.217.045-.263.117-.348.1-.116.28-.288.373-.26.538.164.834-.415,1.362-.385.372.02.718-.45,1.188-.3.247-.4.645-.375,1.023-.326.456.059.682-.558,1.2-.363.117.044.331-.265.52-.295A6.2,6.2,0,0,1,354.863,114.441Z"/>
    <path id="Trazado_114951" data-name="Trazado 114951" d="M338.334,124.1c-.3,0-.46.006-.625,0a.9.9,0,0,1-.692-1.194c.032-.071.173-.1.267-.136s.276-.064.277-.1c.013-.458.384-.516.685-.691s.476-.533.917-.6c.269-.042.457-.466.737-.594a26.037,26.037,0,0,0,2.456-1.243c.32-.19.637-.049.95-.1.278-.046.358.217.512.353.3.264-.192.327-.151.459.137.448-.544.576-.362,1.016a4.283,4.283,0,0,1-1.25.964,1.94,1.94,0,0,0-1.063.657.957.957,0,0,1-1.084.556c-.069-.018-.2.077-.256.155A1.238,1.238,0,0,1,338.334,124.1Z"/>
    <path id="Trazado_114952" data-name="Trazado 114952" d="M339.4,166.731c.049.007.352-.042.452.078.264.316.581.253.9.254,1.709,0,3.418.031,5.126-.015.614-.016,1.054.463,1.656.431.11-.006.266.2.34.339.065.124.116.365.051.429-.184.18-.286.481-.62.485-.421.006-.882-.129-1.195.324a.329.329,0,0,1-.306-.01c-.265-.4-.66-.316-1.034-.316h-3.142c-.275,0-.648.108-.8-.029a1.223,1.223,0,0,0-.877-.317c-.132,0-.266-.148-.391-.241-.208-.156-.326-.4-.655-.427-.416-.034-.225-.414-.254-.653-.04-.324.2-.327.424-.331C339.125,166.73,339.18,166.731,339.4,166.731Z"/>
    <path id="Trazado_114953" data-name="Trazado 114953" d="M380.966,147.372v-.816c.544-.252.07-.979.581-1.247.237-.842.835-1.52,1.075-2.367.065-.23.281-.4.354-.684s.434-.475.666-.711a.38.38,0,0,1,.568-.028,1.183,1.183,0,0,0,.4.226.771.771,0,0,1,.64.631c.038.406.183.892-.3,1.19a.774.774,0,0,0-.351.847c.008.054.025.139,0,.161-.874.726-.975,2.027-1.978,2.656-.233.483-.814.465-1.161.8-.2.2-.514-.019-.521-.331,0-.11,0-.22,0-.331Z"/>
    <path id="Trazado_114954" data-name="Trazado 114954" d="M376.913,151.741c.616-.032,1.02.484,1.579.385.15.326.312.647.44.982.025.064-.058.211-.131.267-.6.452-.9,1.262-1.74,1.416a4.508,4.508,0,0,1-1.716,1.075,1.245,1.245,0,0,1-.581.214,1.7,1.7,0,0,0-1.374.311c-.172.167-.833-.4-.773-.65a.5.5,0,0,1,.119-.279c.605-.441.891-1.277,1.74-1.417l1.764-1.764C376.2,151.694,376.6,151.728,376.913,151.741Z"/>
    <path id="Trazado_114955" data-name="Trazado 114955" d="M385.27,135.209a1.451,1.451,0,0,1,.23-.906c.188-.253.083-.726.1-1.1a1.183,1.183,0,0,1,.25-.9.679.679,0,0,0-.076-.88c-.093-.11-.2-.332-.157-.412a3.626,3.626,0,0,0,.409-.825c.016-.054.183-.07.283-.089a2.311,2.311,0,0,1,1.608.5.6.6,0,0,1,.351.674.5.5,0,0,0,.234.562c.116.079.1.154-.039.234-.413.235,0,.75-.345,1.013-.324.247-.182.607-.174.913a1.286,1.286,0,0,1-.389,1.006c-.358.376-.953.6-.954,1.249-.263.156-.522.32-.794.459-.035.017-.2-.109-.195-.144.073-.331-.266-.452-.332-.693A2.568,2.568,0,0,1,385.27,135.209Z"/>
    <path id="Trazado_114956" data-name="Trazado 114956" d="M362.6,163.061c-.478.129-.723-.2-.955-.493-.061-.076.04-.415.08-.418.43-.027.625-.381.922-.593a6.481,6.481,0,0,1,.954-.487,10.3,10.3,0,0,0,.965-.461,4.647,4.647,0,0,0,1.056-.675c.509-.529,1.347-.451,1.953-.854.055-.037.214.02.287.079.42.344,1.151.38,1.152,1.144.255.222.348.313-.107.459-.524.168-.992.518-1.524.706-.218.467-.761.089-1,.36-.265.3-.734.185-.948.561-.041.072-.314.028-.477.009a1.051,1.051,0,0,0-.871.319c-.172.15-.55-.119-.755.145S362.856,163.065,362.6,163.061Z"/>
    <path id="Trazado_114957" data-name="Trazado 114957" d="M326.686,158.4c-.487.209-.737-.4-1.191-.351-.043,0-.146-.254-.169-.4-.042-.264-.043-.535-.062-.8-.527-.225-.069-.84-.46-1.139-.283-.216-.191-.477.057-.672.13-.1.131-.138.026-.244a.714.714,0,0,1-.223-.4c-.028-.44-.006-.883-.012-1.324,0-.335.289-.459.481-.62.175-.146.367.047.563.138a2.639,2.639,0,0,1,1.024.72,1.014,1.014,0,0,1,.253.389c.04.27-.03.559.026.823.039.19.275.342.3.529.066.414-.124.89.346,1.185a1.231,1.231,0,0,0,.315,1.039c.191.2-.1.608-.421.8C327.272,158.242,327.05,158.5,326.686,158.4Z"/>
    <path id="Trazado_114958" data-name="Trazado 114958" d="M384.734,118.771a1.229,1.229,0,0,1,1.238.524c.244.3.557.542.81.835a.627.627,0,0,1,.143.431.7.7,0,0,0,.337.695c.316.216.308.522.354.858a4.017,4.017,0,0,1-.53,2.675.826.826,0,0,1-.873.3c-.094-.01-.26-.11-.255-.149.045-.324-.26-.469-.332-.7-.1-.3.053-.688-.059-.977-.091-.231-.348-.392-.3-.709.031-.218-.027-.449.014-.664.063-.334-.272-.449-.334-.7-.051-.206.017-.455-.071-.636a3.055,3.055,0,0,1-.29-.549,4.7,4.7,0,0,0-.518-.948c-.094-.167-.043-.289.123-.293S384.521,118.771,384.734,118.771Z"/>
    <path id="Trazado_114959" data-name="Trazado 114959" d="M365.382,112.11c.937,0,1.875,0,2.812,0a2.917,2.917,0,0,1,2.017,1.106c.025.04-.047.165-.1.226-.109.12-.225.3-.359.319-.559.086-1.177-.163-1.671.307,0,0-.071-.075-.112-.111a.69.69,0,0,0-1.01-.013.422.422,0,0,1-.687-.019c-.037-.04-.072-.1-.117-.113-.2-.045-.2.385-.469.2-.126-.088-.263-.218-.4-.224-.605-.024-1.213-.01-1.819-.01q-.7-.7-1.407-1.4a1.147,1.147,0,0,1-.089-.116c.09-.051.178-.145.268-.146C363.286,112.106,364.334,112.11,365.382,112.11Z"/>
    <path id="Trazado_114960" data-name="Trazado 114960" d="M352.489,166.4c-.443,0-.886,0-1.329,0-.042,0-.092-.055-.123-.1s-.037-.1-.021-.113c.276-.265.514-.648.845-.761.679-.232,1.228-.8,2.044-.715.388.041.693-.439,1.193-.329a10.041,10.041,0,0,0,1.325.028.936.936,0,0,0,.708-.32c.074-.06.294.038.437.092s.285.224.4.205c.491-.079.665.172.734.592.02.127.336.137.152.351-.108.126-.248.348-.349.336-.566-.071-.956.444-1.506.405a7.043,7.043,0,0,0-1.162,0c-.573.055-1.218-.256-1.7.311h-1.656Z"/>
    <path id="Trazado_114961" data-name="Trazado 114961" d="M332.338,166.436c-.316-.044-.7.009-.934-.154-.344-.239-.784-.27-1.072-.664a10.22,10.22,0,0,0-1.393-1.414c-.141-.13-.442-.112-.542-.253a7.56,7.56,0,0,1-.341-.686.729.729,0,0,1,.23-1.005c.123-.084.208-.241.355-.036.2.277.505.116.751.188.191.057.348.294.53.3a.687.687,0,0,1,.624.449c.1.424.4.506.7.693a3.009,3.009,0,0,1,.819.811c.241.339.642.347.935.569a.845.845,0,0,1,.307.87c-.012.1-.086.253-.143.259-.271.027-.547.012-.82.012Z"/>
    <path id="Trazado_114962" data-name="Trazado 114962" d="M381.737,116.106c-.411-.061-.84.142-1.233-.24-.341-.334-.991.176-1.331-.362a4.849,4.849,0,0,1-1.175-.363c-.593-.263-.874-.8-1.331-1.167-.087-.07-.051-.305-.054-.465-.007-.3.087-.413.356-.4.206.012.451-.1.606.13.234.346.632.082.892.242.228.14.392.536.593.542.5.017.888.442,1.326.384.459-.061.607.506,1.024.361.389-.135.526.344.856.334s.427.307.629.473c.059.048.063.211.035.3s-.126.208-.2.213C382.4,116.119,382.068,116.106,381.737,116.106Z"/>
    <path id="Trazado_114966" data-name="Trazado 114966" d="M375.9,133.09a.261.261,0,0,1-.151-.033,3.231,3.231,0,0,0-1.43-.3c-.21.019-.5-.018-.612.1-.4.449-.654.183-.937-.116-.267-.281-.546-.55-.819-.825.066-.475-.372-.627-.589-.92a.541.541,0,0,0-.566-.243.747.747,0,0,1-.58-.212,4.19,4.19,0,0,0-.975-.447c-.29-.1-.477-.448-.858-.343-.4.112-.693-.171-1.03-.319-.67-.295-1.189.446-1.854.334-.057-.01-.2.14-.2.207a.632.632,0,0,1-.283.553,1.125,1.125,0,0,0-.418.833c-.047.624.328,1.331-.285,1.869.467.43.291,1,.3,1.514a1.114,1.114,0,0,0,.345.866,3.527,3.527,0,0,1,1.1,1.369c.174.53.624.965.575,1.594-.006.073.161.147.213.239.15.272.152.633.474.8s.231.582.468.806a9.184,9.184,0,0,1,.7.706,3.284,3.284,0,0,0,2.06,1.055c.23.345.587.206.908.235a1.074,1.074,0,0,0,1.134-.466c.2-.261.488-.456.693-.715.224-.285.372-.63.6-.909.208-.254.49-.447.4-.838-.086-.359.385-.476.348-.86-.059-.6,0-1.219-.025-1.827a1.012,1.012,0,0,0-.194-.415.732.732,0,0,1,.089-1.021,4.45,4.45,0,0,0,.7-.711c.207-.309.6-.168.829-.45a1.027,1.027,0,0,0,.26-.732C376.276,133.2,376.172,133.076,375.9,133.09Zm-8.553,2.555c-.127-.105-.33-.227-.336-.35-.021-.434-.505-.684-.4-1.172a2.471,2.471,0,0,0,0-.988c-.118-.573.591-.935.345-1.519a1.037,1.037,0,0,1,1.091-.514c.554.271,1.026.741,1.714.658a5.564,5.564,0,0,1,.833.968,1.305,1.305,0,0,0,.349.508c.47.308.31.767.349,1.188.019.212-.142.279-.24.4-.141.174-.374.19-.539.287-1.066.627-1.054.646-1.888.646a2.149,2.149,0,0,1-.331,0C367.976,135.7,367.632,135.885,367.344,135.645Zm4.937,2.118a2.293,2.293,0,0,1-.328,1.353c-.143.327-.4.592-.362,1.02.026.316-.46.58-.808.624a1,1,0,0,1-1.122-.478c-.165-.306-.674-.018-.726-.5-.025-.24-.268-.453-.3-.694-.047-.326-.347-.406-.477-.634s-.232-.456-.353-.68c-.187-.346-.19-.355.148-.349.422.006.861-.11,1.206.314a.633.633,0,0,0,.618-.011,1,1,0,0,1,1.042-.294,1.129,1.129,0,0,0,1.127-.5c.051-.062.152-.082.23-.12a1.106,1.106,0,0,1,.1.286C372.292,137.321,372.281,137.542,372.281,137.763Z"/>
    <path id="Trazado_114974" data-name="Trazado 114974" d="M343.8,119.936h-.5" fill="none" stroke="#000" stroke-linecap="round" stroke-linejoin="round" stroke-width="2"/>
    <path id="Trazado_114975" data-name="Trazado 114975" d="M358.792,165.233h-.5" fill="none" stroke="#000" stroke-linecap="round" stroke-linejoin="round" stroke-width="2"/>
    <path id="Trazado_114976" data-name="Trazado 114976" d="M328.484,162.235v.5" fill="none" stroke="#000" stroke-linecap="round" stroke-linejoin="round" stroke-width="2"/>
    <path id="Trazado_114977" data-name="Trazado 114977" d="M352.8,140.253h-.5" fill="none" stroke="#000" stroke-linecap="round" stroke-linejoin="round" stroke-width="2"/>
  </g>
</svg>
