<svg xmlns="http://www.w3.org/2000/svg" width="68.158" height="139.133" viewBox="0 0 68.158 139.133">
  <g id="Grupo_83578" data-name="Grupo 83578" transform="translate(-1607.025 -1059.059)">
    <path id="Trazado_117377" data-name="Trazado 117377" d="M1632.084,1201.223a.053.053,0,0,1-.036-.013,18.277,18.277,0,0,0-1.707-1.04c-.459-.256-.933-.521-1.375-.816a.93.93,0,0,0-.118-.091c-.042-.029-.044-.051-.024-.1a108.212,108.212,0,0,0,5.27-18.156.509.509,0,0,0-.453-.618c-7.345-.619-16.785-3.172-20.042-11.82a.128.128,0,0,1-.008-.079.512.512,0,0,0-.072-.357,17.216,17.216,0,0,1-.449-16.847c4.018-7.735,12.547-10.024,17.274-10.7a49.75,49.75,0,0,1,6.027-.547l.17,0c.307,0,.533.018.708.033.134.01.244.019.339.019.633,0,.866-.319,1.49-1.173l1.774-2.431a.508.508,0,0,0-.17-.748,20.564,20.564,0,0,1-9.44-11.132c-.279-.815-.515-1.614-.7-2.376a13.848,13.848,0,0,1,.389-9.661c3.478-8.743,13.275-10.929,20.881-11.224a.508.508,0,0,0,.427-.751l-.453-.836a.508.508,0,0,0-.447-.267.5.5,0,0,0-.08.006,51.722,51.722,0,0,1-8.113.664c-4.943,0-11.825-.835-16.542-4.811-4.046-2.749-6.809-8.241-6.918-13.7a16.611,16.611,0,0,1,.044-3.6c.539-4.36,3.8-8.462,8.736-10.972a37.872,37.872,0,0,1,16.626-3.975c6.227,0,11.562,1.73,15.425,5,3.285,2.15,5.936,6.461,6.97,11.288,2.363,7.563-1.637,14.757-10.178,18.375a.508.508,0,0,0-.273.658l1.235,3.068a.511.511,0,0,0,.407.315c3.918.5,5.041.691,5.3.759a20.534,20.534,0,0,1,4.978,1.763,15.291,15.291,0,0,1,6.619,8.187.509.509,0,0,0,.039.083c3.941,6.718,3.777,16.624-3.32,21.573a26.264,26.264,0,0,1-11.5,4.266,43.116,43.116,0,0,1-5.619.447s-.306,0-.459,0c-.221,0-.559-.046-.917-.09a13.82,13.82,0,0,0-1.649-.139,2.043,2.043,0,0,0-1.605.531l-.846,1.04a.539.539,0,0,0-.092.514.511.511,0,0,0,.381.336c6.344,1.059,11.081,2.736,14.483,5.125a16.706,16.706,0,0,1,5.594,6.447,23.017,23.017,0,0,1,2.169,7.047,14.535,14.535,0,0,1-2.246,11.092c-3.4,4.783-9.125,7.723-17.493,8.985-.276.042-1.11.093-1.917.142-2.694.164-2.709.184-2.892.432l-4.834,6.517q-5.265,7.1-10.526,14.2A.376.376,0,0,1,1632.084,1201.223Z" transform="translate(-3.554 -3.541)" fill="#fff"/>
    <g id="Grupo_83577" data-name="Grupo 83577" transform="translate(1607.025 1059.059)">
      <path id="Trazado_117378" data-name="Trazado 117378" d="M1756.736,1152.568a5.284,5.284,0,0,0,.509,1.238,4.387,4.387,0,0,0,.808,1.036,3.916,3.916,0,0,0,1.071.72,3.788,3.788,0,0,0,1.3.325,1.9,1.9,0,0,0,.842-.114,5.2,5.2,0,0,0,.773-.377,4,4,0,0,0,1.018-.843,5.23,5.23,0,0,0,.711-1.072,5.813,5.813,0,0,0,.448-1.22,8.11,8.11,0,0,0,.211-1.274,12.489,12.489,0,0,0,.044-1.273q-.008-.677-.078-1.37t-.2-1.361a11.722,11.722,0,0,0-.307-1.229q-.193-.491-.36-.869a2.548,2.548,0,0,0-.588-.781,2.21,2.21,0,0,0-.887-.5,4.535,4.535,0,0,0-1.044-.2,2.084,2.084,0,0,0-.6.07,5.577,5.577,0,0,0-.791.245,7.684,7.684,0,0,0-.755.343,2.179,2.179,0,0,0-.527.36,1.852,1.852,0,0,0-.255.4,2.328,2.328,0,0,1-.238.4,7.106,7.106,0,0,1-.43.641,2.559,2.559,0,0,0-.36.676c-.012.071-.035.193-.071.369s-.076.363-.123.561-.088.387-.123.562-.059.3-.071.369c0,.012-.006.061-.018.149s-.023.184-.035.29-.023.214-.035.325-.017.2-.017.254c0,.035,0,.126-.009.272s-.015.3-.026.474-.02.328-.027.475-.008.237-.008.272a2.408,2.408,0,0,1,.14.826A3.111,3.111,0,0,0,1756.736,1152.568Zm1.352-3.478a5.581,5.581,0,0,1,.246-1.449,5.9,5.9,0,0,1,.615-1.4,3.567,3.567,0,0,1,.922-1.027,1.755,1.755,0,0,1,1.168-.36,1.2,1.2,0,0,1,.807.343q.3.307.58.659c.023.058.062.164.114.315s.108.317.167.492.111.34.158.492.076.258.088.315a1.293,1.293,0,0,1,.062.273c.018.123.035.249.052.378s.032.245.044.351.018.176.018.211l-.106,2.7a5.018,5.018,0,0,1-.237,1.046,4.328,4.328,0,0,1-.492,1.018,2.615,2.615,0,0,1-.747.756,1.506,1.506,0,0,1-1,.237,1.881,1.881,0,0,1-1.326-.4,2.877,2.877,0,0,1-.834-1.185,5.742,5.742,0,0,1-.369-1.731A9.973,9.973,0,0,1,1758.088,1149.09Z" transform="translate(-1737.716 -1132.803)"/>
      <path id="Trazado_117379" data-name="Trazado 117379" d="M1834.887,1159.8c-.064-.006-.125-.009-.184-.009a.468.468,0,0,1-.14-.018c-.035-.011-.052-.059-.052-.14l-.053-3.32-.123-2.144c0-.011-.012-.111-.035-.3s-.041-.362-.053-.526a4.377,4.377,0,0,0,0-.545,3.632,3.632,0,0,0-.07-.474c-.035-.164-.074-.355-.114-.571s-.086-.494-.132-.834a.6.6,0,0,0-.044-.123c-.029-.07-.061-.146-.1-.228s-.076-.193-.123-.334a.55.55,0,0,0-.088-.176q-.088-.14-.184-.308c-.064-.111-.126-.213-.184-.307s-.094-.152-.106-.175a2.222,2.222,0,0,0-.975-.58,3.137,3.137,0,0,0-1.115-.114,4.288,4.288,0,0,0-1.089.229,3.559,3.559,0,0,0-.9.447,1.17,1.17,0,0,0-.211.176,3.447,3.447,0,0,1-.264.238c-.094.076-.182.143-.264.2a.38.38,0,0,1-.193.087h-.035c-.024-.046-.064-.134-.123-.263a2.319,2.319,0,0,0-.123-.246c-.012,0-.02-.008-.027-.026a.113.113,0,0,0-.026-.043.544.544,0,0,1-.238-.035c-.123-.035-.2-.059-.237-.07a1.188,1.188,0,0,0-.369-.062c-.082.006-.187.008-.316.008a.847.847,0,0,1-.211.035c-.117.013-.187.018-.21.018a1.741,1.741,0,0,0-1.037.43,1.421,1.421,0,0,0-.421,1.009,1.436,1.436,0,0,0,.157.667.346.346,0,0,0,.281.176.73.73,0,0,0,1.054-.65h.035a.052.052,0,0,0,.035-.018.287.287,0,0,1,.211.088,2.752,2.752,0,0,0,.017.29c.011.111.02.226.026.342s.012.231.018.342.009.209.009.29c0,.024,0,.065.009.123s.015.126.026.2a1.454,1.454,0,0,1,.018.21v.115l-.123.491q-.053.72-.035,1.5t.035,1.589q.016.809.035,1.6t-.035,1.493a.154.154,0,0,1-.176.106l-.246-.035a.311.311,0,0,0-.219.043c-.065.041-.1.156-.114.342a2.956,2.956,0,0,0,0,.651.546.546,0,0,0,.123.3.364.364,0,0,0,.219.105c.088.012.2.029.325.052l2.108-.105c.094,0,.161-.071.2-.211a2.2,2.2,0,0,0,.079-.465,2.62,2.62,0,0,0-.008-.483.627.627,0,0,0-.062-.264l-.325.027c-.076.006-.137.009-.184.009a.382.382,0,0,1-.123-.018l-.158-.053c-.023-.375-.035-.793-.035-1.255s.009-.931.027-1.405.038-.94.062-1.4.046-.878.07-1.265c.011-.116.018-.292.018-.526s0-.477.008-.729a7.173,7.173,0,0,1,.052-.72,1.213,1.213,0,0,1,.149-.5,3.9,3.9,0,0,1,.475-.606,8.166,8.166,0,0,1,.685-.658,4.775,4.775,0,0,1,.755-.535,1.51,1.51,0,0,1,1.484-.053,1.89,1.89,0,0,1,.562.492,2.57,2.57,0,0,1,.378.694,6.216,6.216,0,0,1,.228.781,5.25,5.25,0,0,1,.114.729c.018.223.027.4.027.545,0,.059,0,.187.008.386s.012.422.018.667.012.484.018.712.015.4.027.517c0,.024,0,.091.009.2a1.008,1.008,0,0,0,.026.219l-.018,3.653-.193.158a2.5,2.5,0,0,1-.334.07.657.657,0,0,0-.237.07.349.349,0,0,0-.149.2,1.867,1.867,0,0,0-.07.483,1.14,1.14,0,0,0,.035.43.418.418,0,0,0,.14.211.4.4,0,0,0,.2.07.944.944,0,0,0,.219-.009q.561,0,1.159.026a3.855,3.855,0,0,0,1.141-.114c.094-.023.146-.064.158-.123a.927.927,0,0,0,.018-.175,1.83,1.83,0,0,0,.008-.474.982.982,0,0,0-.149-.422A.182.182,0,0,0,1834.887,1159.8Z" transform="translate(-1797.381 -1137.324)"/>
      <path id="Trazado_117380" data-name="Trazado 117380" d="M1917.793,1158.1a3.43,3.43,0,0,0,.878-.588,1.828,1.828,0,0,0,.518-.808q.087-.3.149-.588a2.828,2.828,0,0,0,.061-.588.775.775,0,0,0-.114-.378,1.786,1.786,0,0,0-.29-.378,1.821,1.821,0,0,0-.378-.29.779.779,0,0,0-.377-.114,1.17,1.17,0,0,0-.4.078,1.418,1.418,0,0,0-.386.22,1.142,1.142,0,0,0-.281.325.78.78,0,0,0-.105.395.4.4,0,0,0,.123.308,1.048,1.048,0,0,0,.272.184c.1.048.19.091.272.132s.123.091.123.15a.656.656,0,0,1-.272.482,2.653,2.653,0,0,1-.667.414,3.121,3.121,0,0,1-.843.237,1.875,1.875,0,0,1-.8-.044,1.284,1.284,0,0,1-.615-.141,2.623,2.623,0,0,1-.913-.913,4.51,4.51,0,0,1-.5-1.239,7.275,7.275,0,0,1-.2-1.406q-.036-.727-.035-1.413,1.544,0,3.056-.123a26.667,26.667,0,0,1,3.055-.07.437.437,0,0,0,.264-.2,1.035,1.035,0,0,0,.124-.325,1.854,1.854,0,0,0,.035-.36v-.324a2.691,2.691,0,0,0-.044-.51,2.725,2.725,0,0,0-.123-.439c-.053-.14-.111-.287-.176-.439s-.137-.322-.219-.51a.827.827,0,0,1-.105-.324.713.713,0,0,0-.106-.308,4.708,4.708,0,0,0-1.379-1.37,3.585,3.585,0,0,0-1.923-.474,2.438,2.438,0,0,0-1.5.466,5.367,5.367,0,0,0-1.133,1.168.536.536,0,0,0-.079.114.59.59,0,0,1-.061.1,2.178,2.178,0,0,0-.123.379.5.5,0,0,1-.229.325q-.281.789-.491,1.642a7.011,7.011,0,0,0-.211,1.695,10.035,10.035,0,0,0-.008,1.4,7.326,7.326,0,0,0,.228,1.431,6.947,6.947,0,0,0,.5,1.335,4.384,4.384,0,0,0,.791,1.116,3.611,3.611,0,0,0,1.133.772,3.693,3.693,0,0,0,1.5.29,4.38,4.38,0,0,0,.974-.123A5,5,0,0,0,1917.793,1158.1Zm-4.295-7.56a.807.807,0,0,0,.018-.159.559.559,0,0,1,.017-.14,4.369,4.369,0,0,1,.264-.852,2.924,2.924,0,0,1,.457-.747,2.192,2.192,0,0,1,.667-.536,1.867,1.867,0,0,1,.878-.2,1.9,1.9,0,0,1,.878.229,3.218,3.218,0,0,1,1.379,1.414,2.01,2.01,0,0,1,.219.887.236.236,0,0,1-.167.228,1.376,1.376,0,0,1-.378.1,3.277,3.277,0,0,1-.421.027,2.053,2.053,0,0,0-.316.017h-3.39l-.141-.07C1913.475,1150.658,1913.487,1150.595,1913.5,1150.536Z" transform="translate(-1873.35 -1135.391)"/>
      <path id="Trazado_117381" data-name="Trazado 117381" d="M1836.519,1455.586a4.19,4.19,0,0,0,.589-1.431,8.062,8.062,0,0,0,.175-1.7v-.878a1.821,1.821,0,0,0-.43-.87,1.2,1.2,0,0,0-.939-.359.967.967,0,0,0-.861.386,1.578,1.578,0,0,0-.264.913.943.943,0,0,0,.378.807.763.763,0,0,0,.711.123,2.579,2.579,0,0,1,.018.9,3.3,3.3,0,0,1-.3.993,2.413,2.413,0,0,1-.624.807,1.407,1.407,0,0,1-.939.334h-.281a2.93,2.93,0,0,1-.29-.087.659.659,0,0,1-.29-.238,1.949,1.949,0,0,1-.263-.553,5.461,5.461,0,0,1-.2-1.036q-.079-.667-.114-1.686t0-2.512l.018-3.829a.062.062,0,0,1,.07-.07h.07l.325-.008q.272-.008.571-.027c.2-.011.389-.02.571-.027l.324-.008h.158q.4,0,.4-.492a2.445,2.445,0,0,1,.018-.29,1.1,1.1,0,0,0,0-.281.389.389,0,0,0-.088-.211.319.319,0,0,0-.246-.079l-.3.088a1.2,1.2,0,0,1-.316.043q-.21.01-.448,0l-.448-.017c-.14-.006-.252-.009-.334-.009h-.035a.752.752,0,0,1-.141-.027.71.71,0,0,1-.14-.044v-.922a.592.592,0,0,1,.009-.141c.006-.017.008-.014.008.009s0,.026.009.009a.745.745,0,0,0,.008-.15v-.439c0-.023,0-.076.009-.158a2.1,2.1,0,0,0,0-.263,1.3,1.3,0,0,0-.044-.264.239.239,0,0,0-.105-.158c-.071-.012-.126-.021-.167-.027a.823.823,0,0,0-.106-.008h-.36c-.024.011-.064.029-.123.052a.39.39,0,0,1-.123.035l-.07-.035-.071-.035a.39.39,0,0,0-.184.053.17.17,0,0,0-.1.158c-.011.211-.017.421-.017.632a1.389,1.389,0,0,0,.053.456c-.012.27-.018.465-.018.589s0,.211-.008.264a.506.506,0,0,1-.027.123,1.823,1.823,0,0,0-.053.184.742.742,0,0,1-.246.1,1.192,1.192,0,0,1-.263.044l-.071-.035-.07-.036a.731.731,0,0,1-.1-.017c-.052-.012-.108-.027-.167-.044s-.117-.032-.175-.044a.52.52,0,0,1-.123-.035h-.07a.879.879,0,0,1-.176.044,1.337,1.337,0,0,1-.175.026,1.985,1.985,0,0,1-.264.018.829.829,0,0,0-.219.026.292.292,0,0,0-.159.106.418.418,0,0,0-.061.254c-.024.165-.042.287-.053.369a.765.765,0,0,0-.009.193.27.27,0,0,0,.044.123,1.632,1.632,0,0,1,.088.158.327.327,0,0,0,.369.123,2.122,2.122,0,0,1,.439-.052,2.593,2.593,0,0,1,.606.062,2.627,2.627,0,0,0,.605.061.5.5,0,0,1,.132.017c.041.012.055.059.044.14s-.02.264-.027.51-.006.527,0,.843.009.653.009,1.01,0,.693.008,1.01.012.592.018.826.009.392.009.474q0,.755-.009,1.449a10.936,10.936,0,0,0,.079,1.432,11.765,11.765,0,0,0,.193,1.176,5.38,5.38,0,0,0,.334,1.036,2.816,2.816,0,0,0,.527.808,1.938,1.938,0,0,0,.738.491.994.994,0,0,0,.378.088h.4a3.584,3.584,0,0,0,1.686-.36A2.92,2.92,0,0,0,1836.519,1455.586Z" transform="translate(-1800.902 -1393.638)"/>
      <path id="Trazado_117382" data-name="Trazado 117382" d="M1895.3,1456.695a1.55,1.55,0,0,0,.228,0q.115-.009.167.2.088.387.193,1t.211,1.283q.1.667.228,1.281t.229.984c.035.117.062.21.079.28s.032.135.043.193a.847.847,0,0,1,.018.105,2.011,2.011,0,0,1,.079.317c.029.152.062.313.1.483s.067.327.1.474a1.3,1.3,0,0,0,.079.289,3.841,3.841,0,0,1,.123.457q.07.317.15.659l.149.65c.047.205.082.354.105.448a3.658,3.658,0,0,0,.141.615c.058.176.117.38.175.615a.329.329,0,0,0-.078.167,1.564,1.564,0,0,0-.009.184,1.2,1.2,0,0,0,.1.474.385.385,0,0,0,.4.229q.315,0,.6-.018c.187-.011.392-.03.615-.053a.714.714,0,0,0,.289-.553,3.305,3.305,0,0,0-.008-.641l.983-2.828a.707.707,0,0,0,.052-.263,1.468,1.468,0,0,1,.035-.263,3.072,3.072,0,0,0,.123-.414q.088-.342.193-.729c.07-.257.135-.5.193-.719s.1-.363.123-.422l.264-.948.281.808q.176.6.3,1.054t.272,1q.149.545.29,1.037t.245.869a3.564,3.564,0,0,0,.158.483q.017.053.079.237t.123.4q.061.211.123.386l.078.229a.715.715,0,0,1,.071.132c.035.076.058.126.07.149a2.187,2.187,0,0,1,.123.474,1.218,1.218,0,0,0,.176.474h.07a.174.174,0,0,1,.088-.027,1.185,1.185,0,0,1,.141-.008.984.984,0,0,0,.132-.009.159.159,0,0,0,.078-.027l1.019.123c.046,0,.09-.032.132-.1a.673.673,0,0,0,.088-.212c.018-.076.032-.154.044-.237a1.566,1.566,0,0,0,.017-.175.305.305,0,0,0-.027-.158.116.116,0,0,0-.053-.043.09.09,0,0,1-.044-.035.361.361,0,0,1-.018-.15.881.881,0,0,1,.018-.105,1.732,1.732,0,0,0,.027-.193,2.624,2.624,0,0,1,.043-.28q.246-1.16.51-2.4t.492-2.38q.017-.122.088-.483t.167-.825q.1-.466.2-1t.2-1q.1-.466.176-.817t.1-.475a1.113,1.113,0,0,1,.219-.114c.076-.03.149-.062.219-.1a1.15,1.15,0,0,0,.176-.105.153.153,0,0,0,.053-.158l-.141-.861a.42.42,0,0,0-.14-.149.912.912,0,0,0-.211-.132q-.053,0-.3-.018c-.164-.012-.263-.018-.3-.018h-.456a1.648,1.648,0,0,0-.211.035,1.68,1.68,0,0,1-.21.035.759.759,0,0,0-.167.018.275.275,0,0,1-.167-.018c-.023.024-.067.029-.131.018a.158.158,0,0,0-.149.035,3.011,3.011,0,0,1,0,.65.866.866,0,0,1-.036.132.692.692,0,0,0-.035.149.418.418,0,0,0,.106.343.5.5,0,0,0,.237.1c.088.011.167.024.237.035a.113.113,0,0,1,.106.123,2.739,2.739,0,0,1-.026.343c-.018.135-.038.272-.062.412s-.047.276-.07.4-.041.228-.053.3-.062.234-.114.491-.114.533-.184.826-.135.568-.193.826-.094.421-.105.492a.442.442,0,0,0-.114.325,1.661,1.661,0,0,1-.027.378,1.126,1.126,0,0,1-.026.2c-.018.088-.032.175-.044.264s-.026.17-.043.245a1.229,1.229,0,0,0-.027.132.62.62,0,0,1-.027.132c-.018.064-.041.138-.07.22s-.055.158-.079.229a.76.76,0,0,0-.035.123c-.012.058-.041.187-.088.386s-.1.413-.149.641-.1.443-.149.641a2.277,2.277,0,0,0-.07.386c-.035-.011-.07-.058-.106-.14s-.073-.175-.114-.281-.079-.2-.114-.3a1.024,1.024,0,0,0-.088-.193q-.263-.774-.536-1.713t-.536-1.914q-.264-.974-.527-1.923t-.491-1.722a.135.135,0,0,1,.088-.14.9.9,0,0,1,.193-.053,1.355,1.355,0,0,0,.21-.052.278.278,0,0,0,.158-.123,1.048,1.048,0,0,0,.061-.36c.006-.159.009-.284.009-.378v-.263a1,1,0,0,0-.3-.282.735.735,0,0,0-.4-.14,2.515,2.515,0,0,0-.7.088,1.97,1.97,0,0,1-.72.053.979.979,0,0,0-.36.5,2.91,2.91,0,0,0-.061.659.289.289,0,0,0,.193.29,2.019,2.019,0,0,0,.37.114v.035l.017.035a3.125,3.125,0,0,1-.062.642,3.548,3.548,0,0,1-.2.623c0,.012-.006.058-.018.141s-.027.17-.044.263-.032.182-.044.264-.018.129-.018.141c-.094.3-.175.623-.246.957a6.33,6.33,0,0,1-.28.957c-.024.059-.056.15-.1.273s-.085.249-.132.378-.088.245-.123.351a1.872,1.872,0,0,1-.07.193,2.973,2.973,0,0,0-.088.308q-.07.272-.149.6t-.149.6a2.608,2.608,0,0,0-.07.308,5,5,0,0,0-.132.711,1.02,1.02,0,0,1-.29.624l-.035.018-.035-.018a.309.309,0,0,1-.044-.1.41.41,0,0,1-.026-.114q-.141-.737-.264-1.466t-.316-1.537c-.012-.035-.035-.151-.07-.351s-.076-.436-.123-.711-.1-.574-.149-.9-.105-.632-.158-.931-.1-.568-.149-.807-.082-.413-.105-.519q-.088-.263-.193-.693a3.149,3.149,0,0,1-.105-.729v-.07a1.486,1.486,0,0,1,.324,0,1.751,1.751,0,0,0,.3.009.378.378,0,0,0,.219-.08.322.322,0,0,0,.088-.264,1.469,1.469,0,0,0-.071-.482.877.877,0,0,0-.281-.378,2.508,2.508,0,0,0-.606-.184,4.8,4.8,0,0,0-.571-.027q-.193,0-.448.008a1.79,1.79,0,0,0-.475.08.9.9,0,0,0-.369.219.56.56,0,0,0-.149.413,1.475,1.475,0,0,0,.1.676A.293.293,0,0,0,1895.3,1456.695Z" transform="translate(-1858.817 -1405.388)"/>
      <path id="Trazado_117383" data-name="Trazado 117383" d="M2001.744,1468.678c0,.035,0,.126-.008.273s-.016.3-.027.474-.02.328-.027.474-.008.237-.008.272a2.412,2.412,0,0,1,.14.826,3.1,3.1,0,0,0,.106.826,5.276,5.276,0,0,0,.509,1.238,4.38,4.38,0,0,0,.808,1.036,3.9,3.9,0,0,0,1.071.72,3.774,3.774,0,0,0,1.3.325,1.9,1.9,0,0,0,.843-.114,5.152,5.152,0,0,0,.773-.378,4,4,0,0,0,1.018-.843,5.268,5.268,0,0,0,.711-1.072,5.811,5.811,0,0,0,.448-1.22,8.153,8.153,0,0,0,.211-1.274,12.481,12.481,0,0,0,.043-1.273q-.008-.676-.078-1.37t-.2-1.361a11.736,11.736,0,0,0-.307-1.229q-.194-.492-.36-.869a2.548,2.548,0,0,0-.588-.782,2.228,2.228,0,0,0-.887-.5,4.6,4.6,0,0,0-1.045-.2,2.141,2.141,0,0,0-.6.07,5.528,5.528,0,0,0-.791.246,7.561,7.561,0,0,0-.755.343,2.162,2.162,0,0,0-.527.36,1.847,1.847,0,0,0-.255.4,2.371,2.371,0,0,1-.238.4,7.043,7.043,0,0,1-.43.641,2.56,2.56,0,0,0-.36.677c-.012.071-.035.193-.071.369s-.076.363-.123.561-.088.386-.123.562-.059.3-.071.369c0,.011-.005.061-.017.149s-.023.185-.035.29-.023.213-.035.325S2001.744,1468.62,2001.744,1468.678Zm1.528-.334a5.579,5.579,0,0,1,.246-1.448,5.873,5.873,0,0,1,.615-1.4,3.559,3.559,0,0,1,.922-1.027,1.752,1.752,0,0,1,1.169-.36,1.2,1.2,0,0,1,.807.342q.3.308.58.659c.023.059.062.164.114.316s.108.316.167.491.111.341.158.492.076.258.088.316a1.282,1.282,0,0,1,.062.273q.026.184.053.377c.018.129.032.246.043.352s.018.175.018.21l-.106,2.7a5.026,5.026,0,0,1-.237,1.045,4.341,4.341,0,0,1-.492,1.019,2.61,2.61,0,0,1-.747.755,1.506,1.506,0,0,1-1,.238,1.884,1.884,0,0,1-1.326-.4,2.866,2.866,0,0,1-.834-1.184,5.742,5.742,0,0,1-.369-1.731A9.979,9.979,0,0,1,2003.272,1468.344Z" transform="translate(-1952.102 -1411.956)"/>
      <path id="Trazado_117384" data-name="Trazado 117384" d="M1667.214,1762.088a.327.327,0,0,0,.369.123,2.117,2.117,0,0,1,.439-.053,2.589,2.589,0,0,1,.606.062,2.6,2.6,0,0,0,.606.061.468.468,0,0,1,.132.018c.041.011.055.059.044.14s-.02.263-.027.51-.005.526,0,.843.009.653.009,1.009,0,.694.008,1.01.012.592.018.826.009.392.009.474q0,.755-.009,1.448a10.9,10.9,0,0,0,.079,1.432,11.789,11.789,0,0,0,.193,1.177,5.393,5.393,0,0,0,.334,1.036,2.812,2.812,0,0,0,.527.807,1.931,1.931,0,0,0,.737.492.993.993,0,0,0,.378.088h.4a3.592,3.592,0,0,0,1.686-.36,2.913,2.913,0,0,0,1.1-.984,4.185,4.185,0,0,0,.589-1.431,8.063,8.063,0,0,0,.175-1.7v-.878a1.82,1.82,0,0,0-.43-.87,1.2,1.2,0,0,0-.939-.36.967.967,0,0,0-.861.386,1.581,1.581,0,0,0-.264.914.943.943,0,0,0,.378.807.765.765,0,0,0,.712.124,2.58,2.58,0,0,1,.017.9,3.316,3.316,0,0,1-.3.993,2.427,2.427,0,0,1-.624.807,1.407,1.407,0,0,1-.939.334h-.281c-.094-.023-.191-.052-.29-.088a.655.655,0,0,1-.29-.238,1.943,1.943,0,0,1-.264-.552,5.467,5.467,0,0,1-.2-1.037q-.079-.668-.114-1.686t0-2.512l.018-3.829a.062.062,0,0,1,.07-.07h.07c.036,0,.144,0,.325-.009s.372-.015.571-.026.389-.021.571-.027.289-.008.324-.008h.158q.4,0,.4-.492a2.433,2.433,0,0,1,.018-.29,1.1,1.1,0,0,0,0-.28.4.4,0,0,0-.088-.212.322.322,0,0,0-.246-.078l-.3.088a1.192,1.192,0,0,1-.316.044q-.21.008-.448,0l-.448-.018c-.14-.006-.252-.009-.334-.009h-.035a.691.691,0,0,1-.141-.027.738.738,0,0,1-.14-.043v-.922a.588.588,0,0,1,.009-.14c.006-.017.008-.014.008.008s0,.027.009.009a.721.721,0,0,0,.009-.149v-.439c0-.024,0-.076.009-.158a2.109,2.109,0,0,0,0-.264,1.328,1.328,0,0,0-.044-.264.241.241,0,0,0-.105-.158l-.167-.026a.691.691,0,0,0-.106-.009h-.36c-.024.012-.064.029-.123.053a.4.4,0,0,1-.123.035l-.07-.035-.071-.035a.388.388,0,0,0-.184.053.169.169,0,0,0-.1.158c-.011.212-.017.422-.017.632a1.4,1.4,0,0,0,.053.457q-.018.4-.018.589c0,.123,0,.21-.008.264a.492.492,0,0,1-.027.123,1.787,1.787,0,0,0-.053.184.738.738,0,0,1-.246.1,1.179,1.179,0,0,1-.263.043l-.071-.035-.07-.035a.653.653,0,0,1-.1-.017c-.052-.012-.108-.026-.167-.044s-.117-.032-.175-.044a.555.555,0,0,1-.123-.035h-.07a.892.892,0,0,1-.176.043,1.283,1.283,0,0,1-.175.027,2.11,2.11,0,0,1-.264.018.864.864,0,0,0-.219.026.3.3,0,0,0-.158.106.421.421,0,0,0-.061.254c-.024.164-.041.287-.053.369a.781.781,0,0,0-.009.193.277.277,0,0,0,.044.123A1.52,1.52,0,0,1,1667.214,1762.088Z" transform="translate(-1659.535 -1670.524)"/>
      <path id="Trazado_117385" data-name="Trazado 117385" d="M1733.652,1761.98a1.378,1.378,0,0,0,.58-.106.687.687,0,0,0,.316-.526.451.451,0,0,0-.009-.264,1.458,1.458,0,0,1-.044-.264.383.383,0,0,1,.308.114.821.821,0,0,1,.149.282,1.412,1.412,0,0,1,.061.369,2.471,2.471,0,0,0,.044.377q0,.053-.008.378t-.036.711c-.018.258-.029.495-.035.712s-.008.343-.008.378v.931c0,.245,0,.495.008.746s.015.437.027.554v.035c0,.245-.009.468-.027.667s-.035.39-.052.571-.032.372-.044.571-.018.421-.018.667v1.405q-.017.105-.035.509c-.012.269-.02.559-.026.869s-.015.6-.027.87-.024.439-.035.51a2.286,2.286,0,0,1-.65.1,1.146,1.146,0,0,0-.43.052.428.428,0,0,0-.246.282,2.539,2.539,0,0,0-.079.764.279.279,0,0,0,.062.245.386.386,0,0,0,.211.088c.088.011.187.02.3.026a1.445,1.445,0,0,1,.342.062h.281a4.553,4.553,0,0,0,.852-.114,3.789,3.789,0,0,1,.869-.1h.035c.023,0,.105.008.246.027s.222.027.246.027a2.735,2.735,0,0,1,.307.017,1.038,1.038,0,0,0,.273,0,.286.286,0,0,0,.193-.105.45.45,0,0,0,.07-.281,1.561,1.561,0,0,0-.149-.658.553.553,0,0,0-.553-.325,1.636,1.636,0,0,0-.343.035,1.625,1.625,0,0,1-.342.035q0-.7-.027-1.677t-.043-1.984q-.018-1.009-.009-1.977t.062-1.686a1.767,1.767,0,0,1,.491-.588,4.418,4.418,0,0,1,.773-.51,5.063,5.063,0,0,1,.852-.351,2.589,2.589,0,0,1,.747-.132,2.558,2.558,0,0,1,1.756.536,2.017,2.017,0,0,1,.65,1.625q0,.51.035,1.344t.062,1.73q.026.9.035,1.721a11.38,11.38,0,0,1-.044,1.3.829.829,0,0,0-.008.219c.006.088.008.176.008.264a.618.618,0,0,1-.043.237.242.242,0,0,1-.167.141c-.071.012-.161.023-.273.035a1.249,1.249,0,0,0-.307.07.681.681,0,0,0-.246.158.36.36,0,0,0-.105.263v.167a.112.112,0,0,0,.009.035.867.867,0,0,1,.009.167.635.635,0,0,0,.281.193,1.262,1.262,0,0,0,.342.062,2.653,2.653,0,0,0,.369-.008c.123-.012.238-.018.343-.018.07,0,.105,0,.105.009s.012.009.035.009h1.5a1.355,1.355,0,0,0,.264-.027.738.738,0,0,0,.237-.088.2.2,0,0,0,.105-.184l.211-.492a.417.417,0,0,0-.027-.114.886.886,0,0,0-.07-.158,1.6,1.6,0,0,0-.088-.141.12.12,0,0,0-.1-.061h-.931a.057.057,0,0,1-.062-.053.588.588,0,0,1-.008-.088q0-.579-.018-1.475t-.035-1.853q-.018-.957-.035-1.853t-.018-1.475v-.184q0-.132-.008-.273c-.006-.093-.009-.184-.009-.272v-.184a3.6,3.6,0,0,0-.149-.641,5.082,5.082,0,0,0-.2-.552c-.012-.012-.032-.036-.061-.071a.281.281,0,0,0-.079-.07,1.442,1.442,0,0,1-.114-.141.479.479,0,0,0-.114-.123,2.6,2.6,0,0,0-.527-.386,5.38,5.38,0,0,0-.711-.343,5.437,5.437,0,0,0-.756-.237,3.046,3.046,0,0,0-.677-.088,4.681,4.681,0,0,0-1.063.167q-.553.149-1.027.307a1.852,1.852,0,0,0-.492.228.907.907,0,0,1-.492.159c0-.083.006-.2.017-.352s.02-.31.027-.474.015-.325.027-.484.018-.278.018-.36a5.865,5.865,0,0,0-.141-1.212,1.891,1.891,0,0,0-.4-.826,1.657,1.657,0,0,0-.729-.466,3.509,3.509,0,0,0-1.1-.149,1.114,1.114,0,0,0-.3.043.918.918,0,0,0-.264.114,1.415,1.415,0,0,0-.562.58,1.6,1.6,0,0,0-.21.773,1.228,1.228,0,0,0,.193.737A.783.783,0,0,0,1733.652,1761.98Z" transform="translate(-1716.964 -1671.505)"/>
      <path id="Trazado_117386" data-name="Trazado 117386" d="M1823.884,1776.457a.153.153,0,0,0,.059-.031.791.791,0,0,1,.076-.05l.067-.04a.092.092,0,0,0-.031.063c0,.018.031.025.09.02q.089,1.244.28,2.542t.281,2.542l0,.035q0,.195.011.651t.016.95q.007.582.019,1.232l-.048.3c-.317,0-.558,0-.722.008a.4.4,0,0,0-.326.12.616.616,0,0,0-.06.383c.013.182.032.441.057.779.009.128.016.231.022.307a.317.317,0,0,0,.047.164.153.153,0,0,0,.118.053l.238.008a4.668,4.668,0,0,1,.507-.054l.789-.057.788-.057a4.873,4.873,0,0,0,.507-.054,1.2,1.2,0,0,0,.411-.144.467.467,0,0,0,.186-.224.9.9,0,0,0,.046-.348c0-.14-.013-.31-.028-.508,0-.023-.008-.07-.018-.139s-.026-.14-.042-.208a.545.545,0,0,0-.075-.179.128.128,0,0,0-.119-.071l-.56.041-.078-.1c-.052-.407-.1-.737-.133-.994s-.071-.51-.109-.766-.057-.436-.065-.542q-.087-.715-.172-1.52t-.137-1.539c-.009-.281-.022-.55-.041-.807a5.553,5.553,0,0,1,0-.766,3.01,3.01,0,0,1,.156-.768,3.427,3.427,0,0,1,.417-.814,5.766,5.766,0,0,1,.833-.659,1.994,1.994,0,0,1,.962-.334,1.206,1.206,0,0,1,1.14.421,2.28,2.28,0,0,1,.4,1.212.872.872,0,0,0-.822.209,1.235,1.235,0,0,0-.306.77.868.868,0,0,0,.59.838,1.4,1.4,0,0,0,.516.086c.187,0,.375-.01.562-.023a1.038,1.038,0,0,0,.662-.338,1.154,1.154,0,0,0,.357-.669l-.046-.63a5.374,5.374,0,0,0-.228-1.2,3.543,3.543,0,0,0-.536-1.079,2.579,2.579,0,0,0-.873-.756,2.208,2.208,0,0,0-1.223-.229,3.493,3.493,0,0,0-1.507.461,6.124,6.124,0,0,0-1.26.955,1.751,1.751,0,0,0-.644-.87,1.515,1.515,0,0,0-.874-.28,1.442,1.442,0,0,0-.818.262,1.162,1.162,0,0,0-.474.738,1.445,1.445,0,0,0-.039.2.572.572,0,0,0-.026.142.169.169,0,0,0-.012.072,1.682,1.682,0,0,0,.341.944A.972.972,0,0,0,1823.884,1776.457Z" transform="translate(-1795.562 -1683.748)"/>
      <path id="Trazado_117387" data-name="Trazado 117387" d="M1897.213,1790.987a6.948,6.948,0,0,0,.5,1.335,4.367,4.367,0,0,0,.791,1.116,3.611,3.611,0,0,0,1.133.772,3.693,3.693,0,0,0,1.5.29,4.388,4.388,0,0,0,.974-.123,4.989,4.989,0,0,0,1.037-.36,3.426,3.426,0,0,0,.878-.588,1.827,1.827,0,0,0,.518-.808q.087-.3.149-.588a2.849,2.849,0,0,0,.061-.588.777.777,0,0,0-.114-.378,1.789,1.789,0,0,0-.29-.378,1.822,1.822,0,0,0-.378-.29.78.78,0,0,0-.377-.113,1.17,1.17,0,0,0-.4.078,1.416,1.416,0,0,0-.386.22,1.138,1.138,0,0,0-.281.325.781.781,0,0,0-.105.395.4.4,0,0,0,.123.308,1.052,1.052,0,0,0,.273.184l.272.132c.082.042.123.091.123.15a.656.656,0,0,1-.272.482,2.657,2.657,0,0,1-.667.414,3.127,3.127,0,0,1-.843.237,1.875,1.875,0,0,1-.8-.044,1.285,1.285,0,0,1-.615-.141,2.623,2.623,0,0,1-.913-.913,4.508,4.508,0,0,1-.5-1.239,7.286,7.286,0,0,1-.2-1.406q-.036-.728-.035-1.413,1.544,0,3.056-.123a26.611,26.611,0,0,1,3.055-.07.439.439,0,0,0,.264-.2,1.037,1.037,0,0,0,.123-.325,1.852,1.852,0,0,0,.035-.36v-.324a2.705,2.705,0,0,0-.044-.51,2.758,2.758,0,0,0-.123-.439c-.053-.14-.112-.287-.176-.439s-.137-.323-.219-.51a.827.827,0,0,1-.105-.325.714.714,0,0,0-.106-.308,4.708,4.708,0,0,0-1.379-1.37,3.586,3.586,0,0,0-1.923-.474,2.438,2.438,0,0,0-1.5.465,5.372,5.372,0,0,0-1.133,1.168.555.555,0,0,0-.079.114.593.593,0,0,1-.061.1,2.2,2.2,0,0,0-.124.378.5.5,0,0,1-.228.325q-.281.79-.491,1.642a7.022,7.022,0,0,0-.211,1.695,10.052,10.052,0,0,0-.008,1.4A7.336,7.336,0,0,0,1897.213,1790.987Zm1.642-4.531a.8.8,0,0,0,.017-.158.565.565,0,0,1,.018-.14,4.362,4.362,0,0,1,.264-.852,2.923,2.923,0,0,1,.457-.746,2.189,2.189,0,0,1,.667-.536,1.867,1.867,0,0,1,.878-.2,1.9,1.9,0,0,1,.878.229,3.216,3.216,0,0,1,1.379,1.415,2.011,2.011,0,0,1,.219.887.236.236,0,0,1-.167.228,1.375,1.375,0,0,1-.378.1,3.276,3.276,0,0,1-.421.027,2.067,2.067,0,0,0-.316.017h-3.39l-.141-.07C1898.832,1786.578,1898.844,1786.515,1898.856,1786.457Z" transform="translate(-1860.546 -1691.433)"/>
      <path id="Trazado_117388" data-name="Trazado 117388" d="M1971.54,1777.037a3.584,3.584,0,0,0-1.923-.474,2.438,2.438,0,0,0-1.5.465,5.371,5.371,0,0,0-1.133,1.168.549.549,0,0,0-.079.114.578.578,0,0,1-.061.1,2.172,2.172,0,0,0-.123.379.5.5,0,0,1-.229.325q-.281.79-.491,1.642a7.017,7.017,0,0,0-.211,1.695,10.033,10.033,0,0,0-.008,1.4,7.344,7.344,0,0,0,.228,1.432,6.926,6.926,0,0,0,.5,1.335,4.376,4.376,0,0,0,.791,1.116,3.608,3.608,0,0,0,1.133.772,3.694,3.694,0,0,0,1.5.29,4.38,4.38,0,0,0,.974-.124,4.99,4.99,0,0,0,1.037-.36,3.43,3.43,0,0,0,.878-.588,1.827,1.827,0,0,0,.518-.808q.087-.3.15-.588a2.853,2.853,0,0,0,.061-.588.776.776,0,0,0-.114-.378,1.78,1.78,0,0,0-.29-.378,1.8,1.8,0,0,0-.378-.29.776.776,0,0,0-.377-.114,1.169,1.169,0,0,0-.4.079,1.421,1.421,0,0,0-.386.22,1.135,1.135,0,0,0-.281.325.778.778,0,0,0-.105.395.4.4,0,0,0,.123.308,1.048,1.048,0,0,0,.273.184l.272.132c.082.042.123.091.123.15a.656.656,0,0,1-.272.482,2.647,2.647,0,0,1-.667.414,3.131,3.131,0,0,1-.843.237,1.874,1.874,0,0,1-.8-.044,1.286,1.286,0,0,1-.615-.141,2.622,2.622,0,0,1-.913-.913,4.511,4.511,0,0,1-.5-1.239,7.285,7.285,0,0,1-.2-1.405q-.036-.727-.035-1.413,1.545,0,3.056-.123a26.666,26.666,0,0,1,3.055-.07.438.438,0,0,0,.264-.2,1.038,1.038,0,0,0,.123-.325,1.861,1.861,0,0,0,.035-.36v-.325a2.7,2.7,0,0,0-.044-.51,2.75,2.75,0,0,0-.123-.439c-.052-.14-.111-.287-.176-.439s-.137-.323-.219-.51a.831.831,0,0,1-.105-.325.715.715,0,0,0-.106-.308A4.709,4.709,0,0,0,1971.54,1777.037Zm.721,3.828a1.379,1.379,0,0,1-.378.1,3.278,3.278,0,0,1-.422.027,2.035,2.035,0,0,0-.316.018h-3.39l-.141-.07c.011-.071.023-.135.035-.193a.816.816,0,0,0,.017-.159.564.564,0,0,1,.018-.14,4.366,4.366,0,0,1,.264-.852,2.926,2.926,0,0,1,.457-.747,2.189,2.189,0,0,1,.667-.536,1.867,1.867,0,0,1,.878-.2,1.9,1.9,0,0,1,.878.229,3.218,3.218,0,0,1,1.379,1.414,2.011,2.011,0,0,1,.219.887A.236.236,0,0,1,1972.261,1780.865Z" transform="translate(-1920.699 -1686.437)"/>
      <path id="Trazado_117389" data-name="Trazado 117389" d="M1651.156,1135.857a40.974,40.974,0,0,0,6.156-.448,26.68,26.68,0,0,0,11.723-4.353c7.231-5.042,7.674-15.078,3.468-22.247a15.862,15.862,0,0,0-6.846-8.456,20.9,20.9,0,0,0-5.1-1.813c-.619-.161-4.318-.637-5.367-.772q-.617-1.535-1.235-3.068c8.162-3.458,13.067-10.669,10.477-18.95-1-4.689-3.6-9.26-7.139-11.57-8.7-7.37-23.117-5.924-32.611-1.092-4.382,2.23-8.383,6.293-9.01,11.363a16.885,16.885,0,0,0-.048,3.669c.11,5.471,2.8,11.161,7.1,14.077,6.419,5.411,17.015,5.543,25.063,4.261l.453.837c-8.521.33-17.906,2.929-21.334,11.545a14.37,14.37,0,0,0-.411,9.97c.205.837.451,1.651.714,2.42a21.083,21.083,0,0,0,9.681,11.416l-1.774,2.431c-.981,1.344-.667.88-2.307.915a50.787,50.787,0,0,0-6.088.552c-7.18,1.026-14.2,4.314-17.653,10.969a17.712,17.712,0,0,0,.47,17.353.637.637,0,0,0,.034.344c3.18,8.444,12.164,11.447,20.475,12.147a108.085,108.085,0,0,1-5.242,18.071.544.544,0,0,0,.24.737.783.783,0,0,0,.089.073c1,.667,2.085,1.146,3.069,1.846a.727.727,0,0,0,.982-.257q5.26-7.1,10.526-14.2l3.939-5.311.9-1.207c.1-.132,3.761-.264,4.476-.372,6.776-1.023,13.727-3.424,17.832-9.193a15.035,15.035,0,0,0,2.336-11.454,23.475,23.475,0,0,0-2.216-7.2,17.227,17.227,0,0,0-5.758-6.639c-4.075-2.862-9.512-4.346-14.691-5.211l.868-1.068C1647.95,1135.28,1650.226,1135.841,1651.156,1135.857Zm-3.379-1.78c-.089-.262-.2-.517-.288-.775a8.6,8.6,0,0,0-.548-1.394c.509,0,1.145.029,1.8.067a8.24,8.24,0,0,0,.377,1.564c.051.167.1.351.155.537A8.075,8.075,0,0,0,1647.777,1134.077Zm2.209.066c-.107-.257-.236-.508-.329-.751a11.756,11.756,0,0,0-.574-1.4c.645.04,1.281.083,1.811.113.05.359.2.748.248,1.05.055.356.067.746.109,1.127C1650.843,1134.241,1650.415,1134.188,1649.986,1134.143Zm1.988.217c-.062-.462-.177-.934-.25-1.361a6.049,6.049,0,0,0-.177-.859c.167,0,.313.006.416,0,.481-.024.961-.061,1.441-.107a7.89,7.89,0,0,0,.114,1.117c.051.381.086.789.146,1.187-.272.018-.545.038-.816.051A7.023,7.023,0,0,1,1651.974,1134.359Zm3.836-.875c.029.191.049.43.09.668-.534.058-1.067.106-1.6.146-.043-.252-.1-.5-.149-.747-.1-.493-.146-1.059-.283-1.571q.913-.1,1.82-.238A9.292,9.292,0,0,0,1655.81,1133.484Zm.806.577c-.077-.257-.172-.512-.219-.739a14.851,14.851,0,0,0-.384-1.629q.629-.1,1.255-.214c.244-.044.486-.1.728-.149.016.564.115,1.128.169,1.688.025.243,0,.542.049.806Q1657.417,1133.96,1656.616,1134.061Zm10.685-6.739a9.117,9.117,0,0,0,.226.985,4.626,4.626,0,0,0,.6,1.476c-.342.271-.7.531-1.068.78a6.874,6.874,0,0,0-1.1-2.311C1666.417,1127.962,1666.865,1127.65,1667.3,1127.323Zm-1.6,1.085c.195.786.484,1.563.746,2.325a.313.313,0,0,0,.112.152c-.394.244-.805.474-1.231.693a11.638,11.638,0,0,0-.508-1.51,5.678,5.678,0,0,0-.409-.948C1664.847,1128.9,1665.278,1128.661,1665.7,1128.408Zm-1.873,1c.115.365.286.732.393,1.064.148.466.231.982.41,1.445q-.71.329-1.444.6a5.85,5.85,0,0,0-.386-1.118,6.467,6.467,0,0,0-.614-1.288C1662.742,1129.9,1663.288,1129.661,1663.825,1129.406Zm-2.165.9c.134.433.362.852.51,1.272.106.3.205.6.292.911.026.092.043.18.062.266q-.662.225-1.339.414c-.094-.426-.255-.869-.326-1.251a4.647,4.647,0,0,0-.349-1.227Q1661.091,1130.507,1661.661,1130.3Zm-1.392,2.026a7.275,7.275,0,0,0,.172,1.041q-.754.187-1.519.334c-.016-.255-.1-.529-.137-.768a7.409,7.409,0,0,0-.448-1.674q.876-.194,1.736-.442C1660.091,1131.322,1660.2,1131.844,1660.269,1132.327Zm8.362-2.959c-.064-.143-.146-.283-.2-.385a19.509,19.509,0,0,0-.771-1.934c.392-.31.775-.632,1.137-.973a7.624,7.624,0,0,0,.5,1.216,6.719,6.719,0,0,0,.485.981A15.408,15.408,0,0,1,1668.63,1129.368Zm1.641-1.642c-.148-.264-.35-.518-.471-.73-.232-.407-.481-.795-.746-1.173a15.745,15.745,0,0,0,1.272-1.416,7.817,7.817,0,0,0,.449.985,5.909,5.909,0,0,0,.523.986A14.78,14.78,0,0,1,1670.271,1127.726Zm3.463-8.727a14.907,14.907,0,0,1-.157,1.548c-.1-.105-.2-.21-.3-.316-.15-.159-.3-.311-.451-.455.036-.112.083-.218.117-.332.1-.316.17-.64.244-.962A6.176,6.176,0,0,0,1673.735,1119Zm-1.1,1.317c.036.052.071.105.111.158.224.294.453.587.684.878a14.368,14.368,0,0,1-.6,2.053,4.153,4.153,0,0,1-.5-.66,5.4,5.4,0,0,0-.458-.694A15,15,0,0,0,1672.635,1120.317Zm-1.053,2.242a3.7,3.7,0,0,0,.962,1.541,14.221,14.221,0,0,1-.855,1.663c-.106-.163-.228-.32-.32-.471a11.132,11.132,0,0,0-.792-1.192A14.911,14.911,0,0,0,1671.582,1122.558Zm2.169-4.246a3.97,3.97,0,0,0-.461-.269,15.728,15.728,0,0,0,.271-2.225A15.755,15.755,0,0,1,1673.751,1118.313Zm-15.36-30.912a10.333,10.333,0,0,0,1.206,1.982q-.571.559-1.21,1.075a4,4,0,0,0-.553-1.122,6.551,6.551,0,0,0-.615-1.012Q1657.826,1087.883,1658.391,1087.4Zm-1.531,1.178c.137.358.3.706.463,1.056.171.377.288.915.633,1.165-.313.238-.64.466-.974.688-.256-.48-.492-.972-.758-1.447a4.394,4.394,0,0,0-.484-.742C1656.122,1089.068,1656.5,1088.829,1656.86,1088.578Zm-1.483.938c.107.273.25.535.367.8.221.505.463,1.009.732,1.492q-.687.427-1.426.809c-.169-.486-.467-.954-.668-1.429a6.854,6.854,0,0,0-.428-.92C1654.439,1090.033,1654.915,1089.782,1655.378,1089.515Zm-1.82.952c.127.307.291.613.394.907a4.506,4.506,0,0,0,.7,1.449q-.71.348-1.46.652l-.972-2.413C1652.67,1090.873,1653.118,1090.676,1653.558,1090.467Zm6.5-1.557a14.625,14.625,0,0,0-1.352-1.782,16.063,16.063,0,0,0,1.164-1.157,5.728,5.728,0,0,0,.512.73,7.245,7.245,0,0,0,.756.926A14.849,14.849,0,0,1,1660.058,1088.911Zm3.541-10.294c.005.639-.012,1.276-.046,1.916-.141-.132-.292-.259-.439-.381a12.217,12.217,0,0,0,.4-2.146C1663.548,1078.21,1663.574,1078.413,1663.6,1078.616Zm-.592,1.9a6.5,6.5,0,0,0,.463.593l.046.053c-.039.578-.087,1.161-.137,1.747-.028.118-.057.236-.088.354a7.018,7.018,0,0,0-1.01-.871A14.522,14.522,0,0,0,1663.007,1080.518Zm-.914,2.242a3.556,3.556,0,0,0,.986,1.208c-.127.38-.275.754-.439,1.12h0a10.842,10.842,0,0,1-1.32-.976A14.37,14.37,0,0,0,1662.093,1082.76Zm-1,1.676a3.129,3.129,0,0,0,1.3,1.174,13.292,13.292,0,0,1-.845,1.438c-.181-.188-.39-.359-.526-.5-.289-.3-.542-.641-.814-.96Q1660.678,1085.034,1661.094,1084.436Zm-22.759,9.039c.014.1.03.193.041.293a13.971,13.971,0,0,1,.125,1.43c0,.114-.035.311-.058.512-.505-.012-1.011-.036-1.515-.067-.02-.177-.047-.353-.071-.529a8.078,8.078,0,0,0-.342-1.665Q1637.435,1093.477,1638.335,1093.475Zm-2.063,1.442c.022.219.018.452.022.683q-.827-.065-1.647-.169a3.435,3.435,0,0,0-.033-.4,9.048,9.048,0,0,0-.369-1.7q.948.073,1.887.109C1636.136,1093.932,1636.223,1094.423,1636.272,1094.917Zm-2.341-.524a5.9,5.9,0,0,1,.1.953q-.674-.1-1.337-.225a3.873,3.873,0,0,0-.137-1.152c-.045-.263-.079-.546-.135-.823q.692.086,1.384.147A4.78,4.78,0,0,0,1633.931,1094.393Zm-2.113-1.33c.02.254.068.51.1.76.042.329.016.782.1,1.161-.556-.121-1.106-.254-1.646-.409a6.4,6.4,0,0,0-.282-1.806Q1630.948,1092.941,1631.818,1093.063Zm-2.143.817c.01.1,0,.286.018.486q-.97-.31-1.893-.7a3.09,3.09,0,0,0-.115-.729c-.054-.255-.1-.542-.179-.816q.992.307,2.015.533C1629.535,1093.063,1629.634,1093.493,1629.675,1093.88Zm-2.571-1.15c.044.2.062.435.1.662a17.248,17.248,0,0,1-1.7-.917c-.02-.24-.083-.488-.116-.682-.027-.153-.055-.322-.09-.494q.83.363,1.694.653A3.728,3.728,0,0,0,1627.1,1092.731Zm-2.43-1.717c.055.249.122.5.159.737a3.063,3.063,0,0,1,.026.315,14.047,14.047,0,0,1-3.042-2.8c.141.107.277.219.422.322A16.6,16.6,0,0,0,1624.674,1091.013Zm14.429,4.705a5.335,5.335,0,0,0-.046-1.212,7.437,7.437,0,0,0-.184-1.035h.239c.4-.005.8-.032,1.206-.051a7.9,7.9,0,0,0,.111.883c.063.443.075.95.184,1.406C1640.112,1095.722,1639.608,1095.723,1639.1,1095.719Zm4.895-2.663a7.028,7.028,0,0,0,.388,1.075,11.684,11.684,0,0,0,.6,1.271c-.6.068-1.2.125-1.82.172a7.357,7.357,0,0,0-.292-1.018c-.125-.43-.242-.859-.373-1.283.233-.021.466-.036.7-.058A4.952,4.952,0,0,0,1644,1093.056Zm-1.876.249a8.327,8.327,0,0,0,.182,1.147c.076.36.109.787.216,1.17-.406.027-.816.047-1.227.063a12.464,12.464,0,0,0-.208-1.32,6.338,6.338,0,0,0-.195-.969C1641.3,1093.371,1641.711,1093.339,1642.122,1093.3Zm3.465,2.029c-.242-.467-.47-.939-.7-1.414-.147-.308-.254-.674-.416-.994.66-.185,1.23-.313,1.46.113q.566,1.044,1.13,2.09C1646.58,1095.2,1646.089,1095.271,1645.587,1095.333Zm-9.9,34.9a17.775,17.775,0,0,1-1.492-1.145,3.987,3.987,0,0,1,.072-.734c0-.012,0-.025.008-.038.548.35,1.112.679,1.692.981-.035.107-.068.216-.1.327C1635.806,1129.822,1635.739,1130.027,1635.69,1130.235Zm-2.061-1.93c-.019.079-.027.158-.041.236a14.931,14.931,0,0,1-1.849-2.108,21.62,21.62,0,0,0,1.975,1.518C1633.682,1128.069,1633.657,1128.19,1633.629,1128.3Zm2.667,2.333c.07-.342.1-.705.165-1.038,0-.016,0-.031.008-.047.662.326,1.339.623,2.029.885l-.757,1.038Q1637,1131.081,1636.3,1130.637Zm-22.607,13.019c5.366-5.273,14.009-6.227,21.134-6.255.885,0,1.833-2.018,2.238-2.574q1.6-2.191,3.2-4.381a.723.723,0,0,0-.429-1.054c-8.9-2.937-14.67-10.632-11.544-20.17,2.762-8.43,13.5-10.413,21.133-10.528a.726.726,0,0,0,.62-1.08l-3.2-5.916a.733.733,0,0,0-.81-.329c-8.515,1.489-19.791,1.368-25.957-5.625-3.4-3.852-4-10.131-1.844-14.673,2.031-4.27,6.658-6.8,10.9-8.359,8.328-3.058,18.435-3.191,26.054,1.716a14.962,14.962,0,0,1,6.695,14.66c-.817,5.567-5.935,9.017-10.776,10.891a.724.724,0,0,0-.5.882q1.518,3.773,3.037,7.544a.762.762,0,0,0,.692.527c7.588.867,14.29,2.853,16.878,10.739,2.345,7.145-.194,14.06-6.639,17.78-5.224,3.015-11.824,3.554-17.716,3.24-3-.16-4.654,3.625-6.433,5.809a.727.727,0,0,0,.507,1.225c10.343,1.109,23.646,3.362,25.3,15.771,1.809,13.559-13.534,17.806-23.954,18.779a.731.731,0,0,0-.34.123.757.757,0,0,0-.28.232q-6.881,9.276-13.76,18.557c1.919-5.8,3.175-11.907,4.51-17.794a.728.728,0,0,0-.692-.908c-7.248-.327-14.957-1.487-20.1-7.123C1606.093,1159.319,1608.3,1148.947,1613.689,1143.657Zm30.013-8.934c.165.3.362.58.531.854.2.321.372.825.623,1.2-.867-.125-1.721-.236-2.555-.335Zm1.121.765a9.79,9.79,0,0,0-.8-1.162l1.017-1.25c.134.314.3.62.425.91.155.352.273.915.5,1.337-.233.32-.452.654-.661.938C1645.158,1135.976,1644.96,1135.708,1644.823,1135.487Zm22.129,28.519c-.108-.178-.21-.359-.312-.54-.211-.375-.4-.8-.655-1.161a14.4,14.4,0,0,0,.8-1.807c.145.223.3.44.463.66.137.184.254.391.392.578A14.444,14.444,0,0,1,1666.952,1164.006Zm-4.435,2.647c.179.449.368.891.566,1.338.139.313.245.814.427,1.221q-.516.507-1.089.976c-.2-.39-.451-.767-.607-1.079a7.94,7.94,0,0,0-.752-1.29Q1661.824,1167.269,1662.517,1166.653Zm1.269,1.523a8.5,8.5,0,0,0-1.015-1.747,16.382,16.382,0,0,0,1.365-1.415,10.5,10.5,0,0,0,.513,1.213,9.222,9.222,0,0,0,.506,1.065,15.125,15.125,0,0,1-1.131,1.38C1663.943,1168.5,1663.854,1168.328,1663.786,1168.177Zm1.469-2.011c-.278-.5-.546-.99-.859-1.46a14.844,14.844,0,0,0,1.3-1.88c.14.322.316.632.469.92a10,10,0,0,0,.507.938,14.432,14.432,0,0,1-1.084,2C1665.47,1166.5,1665.342,1166.324,1665.255,1166.166Zm2.671-7.741a6.093,6.093,0,0,0-.451-.527,17.216,17.216,0,0,0,.214-1.882A15.034,15.034,0,0,1,1667.926,1158.425Zm-.255,2.582c-.244-.29-.505-.555-.773-.817a15.372,15.372,0,0,0,.49-1.856c.08.147.161.292.248.444s.181.332.287.5a14.513,14.513,0,0,1-.182,1.813Zm-15.949,12.32a5.563,5.563,0,0,0-.522-1.138c.418-.109.833-.226,1.246-.348.144.425.344.839.5,1.244a5.026,5.026,0,0,0,.565,1.229q-.652.171-1.3.327A8.123,8.123,0,0,0,1651.721,1173.327Zm1.67-.7c-.135-.313-.258-.647-.426-.948.526-.163,1.048-.334,1.562-.519a7.913,7.913,0,0,0,.587,1.31c.195.36.31.826.494,1.224q-.757.245-1.524.458A9.716,9.716,0,0,0,1653.392,1172.63Zm2.425-.088a8.813,8.813,0,0,0-1.043-1.472c.63-.232,1.25-.479,1.857-.746.2.479.449.932.691,1.4.179.348.312.775.49,1.164q-.772.322-1.565.6A4.1,4.1,0,0,0,1655.817,1172.542Zm2.126-.843a18.146,18.146,0,0,0-.985-1.526q.962-.439,1.871-.942c.178.433.361.864.543,1.3a4.6,4.6,0,0,0,.623,1.306c-.5.282-1.021.536-1.548.775A9.955,9.955,0,0,0,1657.943,1171.7Zm-13.128,2.636c-.083-.273-.155-.588-.265-.88q.765-.1,1.538-.22a7.06,7.06,0,0,0,.423,1.149,11.279,11.279,0,0,0,.571,1.2q-.924.118-1.85.212A5.1,5.1,0,0,0,1644.815,1174.335Zm-4.474,4.687a9.71,9.71,0,0,0-.744-1.227l.8-1.085a9.213,9.213,0,0,0,.338.875,4.386,4.386,0,0,0,.694,1.322q-.357.481-.714.962A4.841,4.841,0,0,0,1640.341,1179.022Zm1.07-1.557c-.228-.412-.418-.835-.653-1.234l1.146-1.546a6.689,6.689,0,0,0,.4,1.06,9.823,9.823,0,0,0,.556,1.237l-.969,1.307C1641.752,1178,1641.558,1177.733,1641.41,1177.465Zm-4.558,7.622c-.168-.282-.333-.565-.479-.86a10.019,10.019,0,0,0-.6-1.275l1.117-1.506a7.069,7.069,0,0,0,.513,1.06,8.1,8.1,0,0,0,.562,1.079Zm-7.158,8.008a7.479,7.479,0,0,0-.559-1.189l1.132-1.527c.223.442.486.871.666,1.324.111.278.171.652.3.969l-1.129,1.522A9.62,9.62,0,0,0,1629.694,1193.094Zm1.88-1.662a5.447,5.447,0,0,0-.921-1.574l1.206-1.625c.148.364.344.714.511,1.061.18.376.364.747.524,1.132l-1.1,1.481C1631.717,1191.736,1631.636,1191.573,1631.574,1191.432Zm1.525-2.022a7.571,7.571,0,0,0-.948-1.572l.969-1.307c.177.436.4.86.58,1.291a6.789,6.789,0,0,0,.381,1l-.753,1.015C1633.244,1189.682,1633.158,1189.533,1633.1,1189.41Zm1.107-1.8a5.058,5.058,0,0,0-.851-1.395l.919-1.239c.129.334.291.656.453.986.189.382.307.887.526,1.281l-.732.987C1634.417,1188,1634.286,1187.784,1634.205,1187.609Zm1.151-1.479c-.254-.507-.531-1.009-.834-1.491l.9-1.213a10.5,10.5,0,0,0,.466,1.084,5.151,5.151,0,0,0,.554,1.129l-.791,1.068C1635.56,1186.506,1635.448,1186.312,1635.356,1186.13Zm2.544-3.671c-.267-.418-.494-.9-.793-1.306l.88-1.188a9.014,9.014,0,0,0,.752,1.554c.054.106.141.413.265.665l-.662.893C1638.2,1182.852,1638.015,1182.639,1637.9,1182.459Zm-10.176,12.58a12.034,12.034,0,0,0,.685,1.431l-.02.027c-.61-.382-1.24-.719-1.859-1.082l.825-1.112C1627.475,1194.562,1627.609,1194.81,1627.725,1195.039Zm.795-20.115c.042.27.063.569.116.855-.467-.055-.935-.118-1.4-.19a3.284,3.284,0,0,0-.449-2.045q.8.091,1.593.158A7.464,7.464,0,0,0,1628.52,1174.924Zm-12.129-3.867c-.025-.079-.05-.177-.075-.279.613.3,1.241.58,1.884.826a12.616,12.616,0,0,0,.381,1.354,19.389,19.389,0,0,1-1.9-1.107A6.771,6.771,0,0,0,1616.391,1171.057Zm2.774,1.532c-.072-.217-.141-.468-.225-.718.634.22,1.278.421,1.932.6a6.331,6.331,0,0,0,.3,1.031c.062.189.115.426.189.651q-.974-.347-1.906-.773C1619.369,1173.062,1619.215,1172.739,1619.165,1172.588Zm2.672,1.047c-.135-.317-.245-.678-.381-1.022q1.167.29,2.355.5c.065.385.155.77.214,1.147.036.225.059.471.1.71q-1.033-.254-2.043-.58A2.334,2.334,0,0,0,1621.837,1173.636Zm2.77.467c-.064-.29-.124-.593-.208-.886q1.052.172,2.1.3a5.656,5.656,0,0,0,.114.936c.075.353.08.712.142,1.061-.636-.1-1.27-.226-1.9-.366C1624.8,1174.79,1624.679,1174.431,1624.607,1174.1Zm-11.107-5.024a18.134,18.134,0,0,0,2.09,1.333c.071.3.174.6.229.8,0,.006,0,.018.006.025A15.219,15.219,0,0,1,1613.5,1169.078Zm15.839,6.777c-.03-.284-.115-.572-.172-.857a9.423,9.423,0,0,0-.294-1.253c.658.051,1.308.092,1.951.127-.156.691-.311,1.381-.466,2.078C1630.021,1175.924,1629.68,1175.89,1629.339,1175.855Zm-.475,20c-.167-.316-.386-.62-.516-.866-.2-.383-.38-.823-.583-1.241l1.02-1.375c.114.257.246.506.334.727a7.073,7.073,0,0,1,.489,1.752Q1629.236,1195.357,1628.865,1195.859Zm10.577-14.265a6.552,6.552,0,0,0-.5-.851c-.245-.358-.463-.744-.707-1.105l1.068-1.439c.092.245.193.487.3.723a5.1,5.1,0,0,0,.686,1.538Zm4.567-5.678a.813.813,0,0,0-.641.385l-.054.073c-.089-.153-.18-.3-.252-.446-.272-.543-.449-1.223-.773-1.761l.367-.5q.608-.06,1.224-.133c.1.407.259.82.354,1.187a3.284,3.284,0,0,0,.414,1.129C1644.435,1175.872,1644.222,1175.9,1644.009,1175.915Zm3.625-.406a3.883,3.883,0,0,0-.441-.979c-.249-.46-.517-.9-.793-1.343q1.055-.168,2.112-.381c.172.507.378,1,.528,1.518.079.272.142.618.249.932C1648.738,1175.351,1648.187,1175.433,1647.633,1175.509Zm2.2-.36c-.125-.461-.376-.953-.516-1.325a4.008,4.008,0,0,0-.542-1.07q.925-.191,1.843-.42c.053.11.109.219.164.33a12.382,12.382,0,0,1,.542,1.389c.033.093.112.437.233.737-.183.041-.367.086-.548.126C1650.617,1175,1650.223,1175.075,1649.83,1175.149Zm10.57-3.552a6.217,6.217,0,0,0-.5-1.126,7.371,7.371,0,0,0-.777-1.408q.78-.447,1.51-.946c.2.442.442.869.652,1.3.167.341.319.811.527,1.229-.158.117-.3.242-.467.354C1661.041,1171.213,1660.721,1171.407,1660.4,1171.6Zm-13.919-36.9c-.125-.282-.287-.554-.4-.777a11.705,11.705,0,0,0-.675-1.3l.472-.58a1.5,1.5,0,0,1,.791-.132,8.3,8.3,0,0,0,.362,1.515c.074.244.15.5.252.749a1.621,1.621,0,0,0-.338.138A2.31,2.31,0,0,0,1646.481,1134.7Z" transform="translate(-1607.025 -1059.059)"/>
      <path id="Trazado_117390" data-name="Trazado 117390" d="M1930.678,1924.363a24.9,24.9,0,0,0-4.12,1.175c-1.444.43-2.864.849-4.278,1.366-.089.032-.083.186.024.176a23.723,23.723,0,0,0,3.97-.706c1.523-.4,3.271-.732,4.508-1.762A.147.147,0,0,0,1930.678,1924.363Z" transform="translate(-1882.626 -1815.672)"/>
      <path id="Trazado_117391" data-name="Trazado 117391" d="M1933.537,1706.547c1.941.606,3.787,1.554,5.77,2,.14.032.284-.156.153-.262-2.837-2.294-7.694-3.59-11.3-3.546a.068.068,0,0,0-.018.133C1929.891,1705.572,1931.744,1705.986,1933.537,1706.547Z" transform="translate(-1887.769 -1623.636)"/>
      <path id="Trazado_117392" data-name="Trazado 117392" d="M1997.629,1917.75c-.229.034-1.064.265-.992.6.066.306.6.076.743.01a.67.67,0,0,0,.387-.477A.114.114,0,0,0,1997.629,1917.75Z" transform="translate(-1947.694 -1809.888)"/>
      <path id="Trazado_117393" data-name="Trazado 117393" d="M1636.338,1858.5a.085.085,0,0,0,.082-.141c-1.042-1.264-2.439-2.176-3.589-3.34a15.355,15.355,0,0,1-3.229-5.409c-.021-.051-.1-.067-.119,0C1628.739,1853.06,1633.282,1857.678,1636.338,1858.5Z" transform="translate(-1626.59 -1750.273)"/>
      <path id="Trazado_117394" data-name="Trazado 117394" d="M1689.717,1923.831c-.251-.13-.541-.365-.838-.3a.094.094,0,0,0-.07.092c.038.343.8.906,1.108.594C1690.028,1924.1,1689.8,1923.875,1689.717,1923.831Z" transform="translate(-1678.536 -1814.934)"/>
      <path id="Trazado_117395" data-name="Trazado 117395" d="M1782.607,1495.939c-1.216-2.026-1.476-4.223-2.057-6.449-.024-.093-.143-.061-.154.021-.541,4.082,2.354,10.387,6.444,11.788.136.047.2-.124.125-.215C1785.547,1499.274,1783.824,1497.965,1782.607,1495.939Z" transform="translate(-1758.561 -1435.375)"/>
      <path id="Trazado_117396" data-name="Trazado 117396" d="M1837.939,1587.1c-.207-.131-.415-.406-.685-.372a.059.059,0,0,0-.056.056c-.034.287.289.491.485.647a.869.869,0,0,0,.79.272.086.086,0,0,0,.051-.124A1.554,1.554,0,0,0,1837.939,1587.1Z" transform="translate(-1808.284 -1520.442)"/>
      <path id="Trazado_117397" data-name="Trazado 117397" d="M2018.291,1393.775c2.938,2.019,4.261,4.794,4.907,8.2a.073.073,0,0,0,.14,0c1.213-6.4-7.088-11.6-12.571-12.2-.035,0-.043.046-.017.063C2013.169,1391.336,2015.916,1392.143,2018.291,1393.775Z" transform="translate(-1960.024 -1348.239)"/>
      <path id="Trazado_117398" data-name="Trazado 117398" d="M1703.141,1235.964a.039.039,0,0,0-.067.039,15.932,15.932,0,0,0,7.967,7.344c2.517,1.192,6.365,2.481,9.195,1.923a.079.079,0,0,0,0-.151C1713.225,1243.737,1707.627,1241.878,1703.141,1235.964Z" transform="translate(-1691.005 -1213.727)"/>
      <path id="Trazado_117399" data-name="Trazado 117399" d="M1845.466,1308.187a1.9,1.9,0,0,0-.769.1.079.079,0,0,0-.015.123,1.163,1.163,0,0,0,.657.217c.3.023.613.083.84-.145a.1.1,0,0,0,0-.135C1845.977,1308.146,1845.736,1308.186,1845.466,1308.187Z" transform="translate(-1814.81 -1276.891)"/>
      <path id="Trazado_117400" data-name="Trazado 117400" d="M1898.989,1080.913c3.182,1.083,5.422,3.047,7.784,5.334a.091.091,0,0,0,.142-.109c-2.279-4.67-9.991-7.546-14.911-7.014a.062.062,0,0,0-.016.121C1894.322,1079.855,1896.687,1080.129,1898.989,1080.913Z" transform="translate(-1856.154 -1076.548)"/>
      <path id="Trazado_117401" data-name="Trazado 117401" d="M2013.818,1140.269a.092.092,0,0,0,.123-.032c.212-.315-.228-1.031-.522-1.181a.068.068,0,0,0-.1.058,1.223,1.223,0,0,0,.186.547C2013.6,1139.871,2013.613,1140.137,2013.818,1140.269Z" transform="translate(-1962.284 -1129.001)"/>
    </g>
  </g>
</svg>
