<svg xmlns="http://www.w3.org/2000/svg" width="208.667" height="93.878" viewBox="0 0 208.667 93.878">
  <g id="Grupo_83576" data-name="Grupo 83576" transform="translate(-699.16 -965.939)">
    <path id="Trazado_117356" data-name="Trazado 117356" d="M838,1061.776a.625.625,0,0,1-.491-.567c-1.217-10.057-2.989-20.566-5.418-32.125l-.266-1.233a1.043,1.043,0,0,0-1.021-.827l-.7.009c-14.624.174-28.026.26-40.969.26q-9.048,0-18.1-.059-2.757-.017-5.526-.016l-8.422.009c-10.658,0-21.989-.109-33.046-1.429-8.292-.989-18.522-4.3-20.163-14.456-1-6.156-2.231-21.448,7.762-30.456a.473.473,0,0,1,.161-.09,1.043,1.043,0,0,0,.421-.291c4.014-4.6,10.058-7.508,17.478-8.422,9.659-1.189,19.743-1.234,29.495-1.277,3.594-.016,7.176-.032,10.727-.1,18.844-.376,37.31-.713,56.057-.713,16.005,0,30.308.251,43.722.769,1.87.073,3.85.091,5.891.11,10.578.1,22.566.213,29.425,7.811,6,6.642,5.8,19.438,2.5,28.645a.958.958,0,0,0-.049.191c-.621,3.977-3.947,8.075-6.854,10.585a27.584,27.584,0,0,1-10.559,5.814c-6.809,2.249-14.383,2.331-21.71,2.411-1.543.017-3.08.035-4.6.071a1.044,1.044,0,0,0-.825.435q-2.55,3.559-5.058,7.145c-5.487,7.868-11.005,16.059-16.4,24.343a1.058,1.058,0,0,0-.141.327,1.46,1.46,0,0,0-.544.37c-.807.9-1.65,1.749-2.519,2.625A.378.378,0,0,1,838,1061.776Z" transform="translate(-3.011 -3.005)" fill="#fff"/>
    <g id="Grupo_83575" data-name="Grupo 83575" transform="translate(699.16 965.939)">
      <path id="Trazado_117357" data-name="Trazado 117357" d="M776.462,1046.059a10.817,10.817,0,0,0-.822-1.917,7.692,7.692,0,0,0-1.15-1.589,5.71,5.71,0,0,0-1.808-1.323,4.972,4.972,0,0,0-2.082-.448,4.175,4.175,0,0,0-.493.028q-.238.028-.493.063a1.413,1.413,0,0,0-1.1,1.1.206.206,0,0,1-.018.091,1,1,0,0,1-.019.2,1.825,1.825,0,0,0-.027.228,1.734,1.734,0,0,1-.045.284,4.065,4.065,0,0,0-.055.438,3.283,3.283,0,0,1-.037.329q-.238,1.06-.411,2.137t-.32,2.136q-.163,1.078-.337,2.164t-.411,2.164l-.6,2.9q-.147.657-.283,1.324t-.283,1.324a1.409,1.409,0,0,0,.256,1.114,1.369,1.369,0,0,0,.429.374,1.278,1.278,0,0,0,.557.156,10.236,10.236,0,0,0,4.949-.713,7.9,7.9,0,0,0,2.831-2.062,8.7,8.7,0,0,0,1.68-2.868,10.223,10.223,0,0,0,.64-3.195,12,12,0,0,0-.074-2.283A12.136,12.136,0,0,0,776.462,1046.059Zm-2.292,5.214a7.6,7.6,0,0,1-.292,1.232,7.352,7.352,0,0,1-.594,1.343,5.294,5.294,0,0,1-2.493,2.256,6.49,6.49,0,0,1-2.09.511c.036-.171.073-.341.109-.511s.073-.341.11-.512q.145-.712.3-1.433c.1-.482.2-.965.3-1.453q.238-1.15.421-2.265t.347-2.21q.165-1.1.328-2.118t.366-2.027a3.147,3.147,0,0,0,.092-.512,2.876,2.876,0,0,1,1.425.858,5,5,0,0,1,.8,1.132,8.241,8.241,0,0,1,.585,1.434,9.265,9.265,0,0,1,.337,1.625,9.486,9.486,0,0,1,.046,1.726Q774.252,1050.7,774.169,1051.273Z" transform="translate(-748.481 -1021.461)"/>
      <path id="Trazado_117358" data-name="Trazado 117358" d="M824.309,1061.626a4.217,4.217,0,0,0-1.451-1.507,3.641,3.641,0,0,0-1.909-.521h-.109a4.645,4.645,0,0,0-2.374.685,7.426,7.426,0,0,0-2.156,2,8.075,8.075,0,0,0-.758,1.15,11.922,11.922,0,0,0-.594,1.26,9.129,9.129,0,0,0-.676,2.666,6.624,6.624,0,0,0,.046,1.88,4.968,4.968,0,0,0,.557,1.589,4.408,4.408,0,0,0,3.123,2.155q.309.055.6.091a4.807,4.807,0,0,0,.6.037,5.182,5.182,0,0,0,2.621-.685,5.81,5.81,0,0,0,2.018-1.981,8.62,8.62,0,0,0,1.041-2.429,9.4,9.4,0,0,0,.347-2.575,9.066,9.066,0,0,0-.219-2.01A7.267,7.267,0,0,0,824.309,1061.626Zm-2.054,5.717a5.512,5.512,0,0,1-.7,1.606,2.706,2.706,0,0,1-2.338,1.426,3.174,3.174,0,0,1-.328-.019c-.11-.012-.226-.031-.346-.055s-.262-.067-.457-.128a1.4,1.4,0,0,1-.565-.366,1.922,1.922,0,0,1-.439-.785,3.5,3.5,0,0,1-.073-1.388,6.921,6.921,0,0,1,.484-1.908,7.742,7.742,0,0,1,1.013-1.8,5.1,5.1,0,0,1,1.187-1.169,2.093,2.093,0,0,1,1.151-.42h.109a1.237,1.237,0,0,1,.475.118,1.278,1.278,0,0,1,.529.557,3.823,3.823,0,0,1,.4,1.069,6.014,6.014,0,0,1,.146,1.361A7.3,7.3,0,0,1,822.255,1067.342Z" transform="translate(-784.532 -1035.421)"/>
      <path id="Trazado_117359" data-name="Trazado 117359" d="M872.829,1059.989a2.978,2.978,0,0,0-2.173-1.132,3.784,3.784,0,0,0-2.575.73,5.093,5.093,0,0,0-.886.786,6.317,6.317,0,0,0-.776,1.1,6.465,6.465,0,0,0-.365.694q0-.421-.018-.712t-.045-.494a1.95,1.95,0,0,0-.074-.338c-.031-.091-.064-.18-.1-.265a1.375,1.375,0,0,0-1.863-.529,1.33,1.33,0,0,0-.62.684,1.283,1.283,0,0,0-.037.9,14.225,14.225,0,0,1,.018,1.433q-.018,1.142-.146,3.205-.129,1.9-.237,3.068t-.183,1.516a1.316,1.316,0,0,0-.1.768,1.462,1.462,0,0,0,.319.712,1.361,1.361,0,0,0,.749.439,1.321,1.321,0,0,0,.859-.109,2.7,2.7,0,0,0,.347-.238,1.356,1.356,0,0,0,.328-.42,12.842,12.842,0,0,0,.995-2.173q.429-1.206.85-2.448.365-1.187.776-2.319a12,12,0,0,1,.9-1.973,3.413,3.413,0,0,1,.876-1.059,1.146,1.146,0,0,1,.384-.193,1.359,1.359,0,0,1,.42-.027.569.569,0,0,1,.155.037.364.364,0,0,1,.045.036.61.61,0,0,1,.091.156,1.616,1.616,0,0,1,.1.347,4.2,4.2,0,0,1,.064.594c.012.244.012.547,0,.913a15.366,15.366,0,0,1-.192,1.808q-.156.95-.337,1.9-.129.693-.228,1.343t-.155,1.2a6.205,6.205,0,0,0-.027,1.37,2.584,2.584,0,0,0,.283.95,1.313,1.313,0,0,0,.511.538,1.335,1.335,0,0,0,1.333.027,1.32,1.32,0,0,0,.648-.776,1.362,1.362,0,0,0-.045-1.014,1.175,1.175,0,0,1-.019-.283c0-.153.019-.4.055-.74.037-.3.085-.636.146-1s.128-.733.2-1.123q.183-.968.347-2.018a20.405,20.405,0,0,0,.219-2.036,8.6,8.6,0,0,0-.128-2.256A3.856,3.856,0,0,0,872.829,1059.989Z" transform="translate(-820.432 -1034.862)"/>
      <path id="Trazado_117360" data-name="Trazado 117360" d="M912.44,1050.475a.9.9,0,0,0-.2-.667.862.862,0,0,0-.621-.338.852.852,0,0,0-.657.21.893.893,0,0,0-.329.611q-.073.713-.109,1.242c-.025.354-.037.691-.037,1.014s.012.651.037.986.06.709.109,1.123a.865.865,0,0,0,.292.575.9.9,0,0,0,.622.228h.091a.843.843,0,0,0,.6-.337.9.9,0,0,0,.2-.667c-.036-.377-.067-.719-.091-1.022s-.037-.6-.037-.9.013-.6.037-.922S912.4,1050.913,912.44,1050.475Z" transform="translate(-855.935 -1027.904)"/>
      <path id="Trazado_117361" data-name="Trazado 117361" d="M931.175,1049.014q-.949,0-1.707-.019l-1.47-.036c-.208-.012-.414-.022-.622-.027s-.414-.01-.621-.01c.024-.073.045-.148.064-.228s.039-.156.063-.228q.494-1.7.9-3.223a13.2,13.2,0,0,0,.457-2.676,1.3,1.3,0,0,0-.338-1,1.347,1.347,0,0,0-.941-.448,1.3,1.3,0,0,0-1,.338,1.342,1.342,0,0,0-.447.941,12.122,12.122,0,0,1-.429,2.311q-.374,1.4-.831,2.986c-.061.207-.122.41-.182.611s-.122.406-.183.612c-.17.012-.344.022-.521.027s-.362.016-.557.027a1.378,1.378,0,0,0-.949.448,1.277,1.277,0,0,0-.347,1,1.391,1.391,0,0,0,.137.52,1.277,1.277,0,0,0,.32.421,1.565,1.565,0,0,0,.457.274,1.207,1.207,0,0,0,.529.082.486.486,0,0,0,.1-.009.534.534,0,0,1,.1-.009q-.127.529-.228,1.05c-.067.346-.131.685-.192,1.013a10.66,10.66,0,0,0-.109,2.721,3.545,3.545,0,0,0,1.15,2.411,3.3,3.3,0,0,0,2.192.749h.2a1.017,1.017,0,0,0,.2-.019,6.7,6.7,0,0,0,1.48-.3,15.627,15.627,0,0,0,1.716-.666,1.416,1.416,0,0,0,.713-.776,1.274,1.274,0,0,0-.055-1.051,1.338,1.338,0,0,0-.768-.712,1.245,1.245,0,0,0-1.041.055,9.453,9.453,0,0,1-1.232.483,7.243,7.243,0,0,1-.859.211,1.844,1.844,0,0,1-.52.027.463.463,0,0,1-.237-.082,1.2,1.2,0,0,1-.2-.485,4.485,4.485,0,0,1-.055-.8,9.5,9.5,0,0,1,.128-1.361q.092-.584.238-1.214t.31-1.306c.329.012.651.018.968.018s.64.012.968.037l1.5.037q.767.018,1.753.017a1.375,1.375,0,0,0,.968-2.347A1.339,1.339,0,0,0,931.175,1049.014Z" transform="translate(-864.114 -1021.714)"/>
      <path id="Trazado_117362" data-name="Trazado 117362" d="M988.746,1059.59a1.489,1.489,0,0,0,.228-.017,4.038,4.038,0,0,0,1.662-.622,6.459,6.459,0,0,0,1.425-1.187,10.794,10.794,0,0,0,1.25-1.625,16.137,16.137,0,0,0,1.087-2.027,20.88,20.88,0,0,0,1.525-5.361,23.7,23.7,0,0,0,.137-5.835,1.32,1.32,0,0,0-.484-.922,1.3,1.3,0,0,0-1-.3,1.336,1.336,0,0,0-.94.484,1.309,1.309,0,0,0-.3,1,20.748,20.748,0,0,1,.064,3.278,21.73,21.73,0,0,1-.347,2.767,17.088,17.088,0,0,1-.575,2.2q-.329.958-.6,1.58a11.684,11.684,0,0,1-.849,1.635,8.614,8.614,0,0,1-.958,1.269,4.672,4.672,0,0,1-.776.667,1.647,1.647,0,0,1-.666.283.565.565,0,0,1-.548-.22,3.26,3.26,0,0,1-.621-1.443,12.092,12.092,0,0,1-.237-2.94,30.708,30.708,0,0,1,.41-4.237q.375-2.337,1.069-4.985a1.37,1.37,0,0,0-2.009-1.543,1.31,1.31,0,0,0-.64.83,52.17,52.17,0,0,0-1.142,5.323,33.829,33.829,0,0,0-.429,4.575q-.054,4.4,1.534,6.209a3.165,3.165,0,0,0,2.5,1.168Z" transform="translate(-910.828 -1021.844)"/>
      <path id="Trazado_117363" data-name="Trazado 117363" d="M1052.523,1058.325a1.325,1.325,0,0,0,.383.055,1.339,1.339,0,0,0,.8-.265,1.388,1.388,0,0,0,.511-.721q.492-1.735.822-3.487l.876.822q.6.529,1.361,1.087a15.108,15.108,0,0,0,1.634,1.04,13.952,13.952,0,0,0,1.853.849,8.812,8.812,0,0,0,2,.493.542.542,0,0,0,.163.019,1.348,1.348,0,0,0,.9-.338,1.356,1.356,0,0,0-.722-2.383,6,6,0,0,1-1.434-.365,11.491,11.491,0,0,1-1.352-.63,13.208,13.208,0,0,1-1.232-.767q-.585-.412-1.041-.794-.713-.6-1.242-1.132a11.453,11.453,0,0,0,3.707-1.388,9.735,9.735,0,0,0,2.164-1.708,8.137,8.137,0,0,0,1.452-2.091,6.55,6.55,0,0,0,.429-1.315,4.971,4.971,0,0,0,.1-1.3,4.229,4.229,0,0,0-.987-2.483,4.532,4.532,0,0,0-1.461-1.133,6.237,6.237,0,0,0-2.01-.584,14.1,14.1,0,0,0-5.3.548,1.376,1.376,0,0,0-.986,1.1q-.238,1.3-.4,2.639t-.311,2.785q-.091.876-.182,1.734t-.219,1.735a1.248,1.248,0,0,0-.028.138,1.164,1.164,0,0,0-.009.155.073.073,0,0,1-.009.046.07.07,0,0,0-.009.045q-.2,1.48-.474,2.959t-.694,2.941a1.319,1.319,0,0,0,.109,1.049A1.282,1.282,0,0,0,1052.523,1058.325Zm3.305-10.135c.037-.341.073-.683.11-1.023q.127-1.15.256-2.236t.274-2.128a9.268,9.268,0,0,1,3.4-.274,2.6,2.6,0,0,1,1.734.767,1.373,1.373,0,0,1,.284.584,2.063,2.063,0,0,1,.036.612,2.369,2.369,0,0,1-.119.567,3.747,3.747,0,0,1-.163.411,4.833,4.833,0,0,1-.8,1.224,6.488,6.488,0,0,1-1.279,1.1,8.671,8.671,0,0,1-1.716.877,9.614,9.614,0,0,1-2.118.539Q1055.773,1048.7,1055.828,1048.19Z" transform="translate(-960.57 -1020.688)"/>
      <path id="Trazado_117364" data-name="Trazado 117364" d="M1108.074,1071.813a4.21,4.21,0,0,0,1.343.959,4.041,4.041,0,0,0,1.607.329h.091a5.294,5.294,0,0,0,.913-.119,4.866,4.866,0,0,0,.913-.3,6.987,6.987,0,0,0,1.744-1.15,10.955,10.955,0,0,0,1.634-1.845,1.39,1.39,0,0,0,.248-1.031,1.267,1.267,0,0,0-.558-.886,1.4,1.4,0,0,0-1.033-.247,1.262,1.262,0,0,0-.885.557,7.431,7.431,0,0,1-1.3,1.451,5.356,5.356,0,0,1-.968.649,1.636,1.636,0,0,1-1.315.092,1.66,1.66,0,0,1-.822-.95,3.043,3.043,0,0,1-.109-1.881q.055-.293.128-.575t.164-.557a9.762,9.762,0,0,0,3.543-.219,5.22,5.22,0,0,0,1.844-.867,4.551,4.551,0,0,0,.985-1.014,3.375,3.375,0,0,0,.622-1.735,3.034,3.034,0,0,0-.421-1.754,2.816,2.816,0,0,0-1.343-1.178,3.615,3.615,0,0,0-1.909-.246,5.468,5.468,0,0,0-2.319.83,7.117,7.117,0,0,0-1.935,1.872,11.439,11.439,0,0,0-1.242,2.247.073.073,0,0,1-.019.055q-.238.584-.438,1.233t-.347,1.342a5.9,5.9,0,0,0,.274,3.488A4.465,4.465,0,0,0,1108.074,1071.813Zm3.077-8.208a3.463,3.463,0,0,1,2.356-1.589.756.756,0,0,1,.183-.019.7.7,0,0,1,.282.046.484.484,0,0,1,.137.082.4.4,0,0,1,.019.219.73.73,0,0,1-.128.31,2.246,2.246,0,0,1-1.314.785,4.718,4.718,0,0,1-.721.138c-.262.03-.532.052-.813.063Z" transform="translate(-1001.539 -1035.172)"/>
      <path id="Trazado_117365" data-name="Trazado 117365" d="M1164.149,1060.915a6.015,6.015,0,0,0-.238-.575,3.171,3.171,0,0,0-.291-.483,2.008,2.008,0,0,0-.615-.557,2.226,2.226,0,0,0-.556-.228,2.2,2.2,0,0,0-2.154.748,7.015,7.015,0,0,0-1.078,1.479,3.351,3.351,0,0,0-1.189-1.954,1.872,1.872,0,0,0-1.077-.383,2.119,2.119,0,0,0-1.129.292,5.128,5.128,0,0,0-1.811,2.064c-.1.158-.19.323-.275.493s-.17.359-.255.566c-.034-.244-.071-.491-.109-.74s-.079-.5-.125-.74a1.372,1.372,0,0,0-1.571-1.132,1.3,1.3,0,0,0-.895.557,1.354,1.354,0,0,0-.239,1.031q.419,2.41.549,4.209t.13,2.95c0,.766-.021,1.361-.056,1.78s-.062.661-.073.722v.019a1.263,1.263,0,0,0,.255,1.013,1.393,1.393,0,0,0,.9.539,1.275,1.275,0,0,0,1.011-.247,1.355,1.355,0,0,0,.539-.9.074.074,0,0,0,.019-.056q.218-1.515.612-3.16a28.638,28.638,0,0,1,.9-3.068,14.088,14.088,0,0,1,1.077-2.5,3.677,3.677,0,0,1,.218-.383c.025.146.049.319.074.52s.043.436.055.7a19.83,19.83,0,0,1-.109,2.593q-.145,1.462-.455,3.269a1.389,1.389,0,0,0,1.04,1.589,1.3,1.3,0,0,0,1-.155,1.33,1.33,0,0,0,.624-.813,46.72,46.72,0,0,1,2.172-6.19,9.789,9.789,0,0,1,.658-1.279,13.216,13.216,0,0,1,.109,1.954c-.014.95-.079,2-.2,3.16s-.3,2.4-.546,3.726a1.361,1.361,0,0,0,.228,1.031,1.28,1.28,0,0,0,.886.557.385.385,0,0,0,.118.018h.118a1.357,1.357,0,0,0,.877-.311,1.313,1.313,0,0,0,.475-.8q.439-2.447.638-4.538a26.97,26.97,0,0,0,.13-3.716A11,11,0,0,0,1164.149,1060.915Z" transform="translate(-1034.008 -1034.948)"/>
      <path id="Trazado_117366" data-name="Trazado 117366" d="M1212.435,1066.865q.073-.283.164-.557a9.762,9.762,0,0,0,3.544-.219,5.213,5.213,0,0,0,1.844-.867,4.614,4.614,0,0,0,.987-1.014,3.343,3.343,0,0,0,.619-1.735,3,3,0,0,0-.419-1.754,2.8,2.8,0,0,0-1.341-1.178,3.615,3.615,0,0,0-1.909-.246,5.444,5.444,0,0,0-2.318.83,7.091,7.091,0,0,0-1.937,1.872,11.333,11.333,0,0,0-1.242,2.247.067.067,0,0,1-.021.055c-.155.39-.3.8-.435,1.233s-.251.879-.349,1.342a5.917,5.917,0,0,0,.274,3.488,4.488,4.488,0,0,0,.906,1.452,4.146,4.146,0,0,0,1.341.959,4.039,4.039,0,0,0,1.607.329h.089a5.276,5.276,0,0,0,.913-.119,4.871,4.871,0,0,0,.915-.3,7.052,7.052,0,0,0,1.745-1.15,11,11,0,0,0,1.633-1.845,1.39,1.39,0,0,0,.248-1.031,1.261,1.261,0,0,0-.561-.886,1.392,1.392,0,0,0-1.031-.247,1.268,1.268,0,0,0-.886.557,7.424,7.424,0,0,1-1.294,1.451,5.37,5.37,0,0,1-.969.649,1.438,1.438,0,0,1-2.137-.858,3.024,3.024,0,0,1-.109-1.881C1212.344,1067.245,1212.387,1067.053,1212.435,1066.865Zm1.442-3.26a3.469,3.469,0,0,1,2.357-1.589.762.762,0,0,1,.183-.019.7.7,0,0,1,.282.046.508.508,0,0,1,.139.082.4.4,0,0,1,.019.219.76.76,0,0,1-.128.31,2.566,2.566,0,0,1-.4.383,2.48,2.48,0,0,1-.915.4,4.693,4.693,0,0,1-.72.138c-.264.03-.536.052-.815.063Z" transform="translate(-1077.748 -1035.172)"/>
      <path id="Trazado_117367" data-name="Trazado 117367" d="M1266.875,1060.915c-.075-.207-.151-.4-.236-.575a3.193,3.193,0,0,0-.294-.483,1.967,1.967,0,0,0-.612-.557,2.268,2.268,0,0,0-.556-.228,2.2,2.2,0,0,0-2.156.748,7.01,7.01,0,0,0-1.078,1.479,3.35,3.35,0,0,0-1.186-1.954,1.873,1.873,0,0,0-1.078-.383,2.129,2.129,0,0,0-1.132.292,5.144,5.144,0,0,0-1.808,2.064c-.1.158-.19.323-.275.493s-.17.359-.255.566c-.037-.244-.073-.491-.109-.74s-.079-.5-.128-.74a1.369,1.369,0,0,0-2.466-.575,1.353,1.353,0,0,0-.236,1.031q.419,2.41.549,4.209t.127,2.95c0,.766-.017,1.361-.056,1.78s-.059.661-.071.722v.019a1.244,1.244,0,0,0,.255,1.013,1.387,1.387,0,0,0,.895.539,1.278,1.278,0,0,0,1.014-.247,1.36,1.36,0,0,0,.537-.9.08.08,0,0,0,.02-.056q.218-1.515.611-3.16a29.1,29.1,0,0,1,.9-3.068,14.052,14.052,0,0,1,1.077-2.5,3.578,3.578,0,0,1,.22-.383q.037.218.074.52c.021.2.042.436.055.7a20.608,20.608,0,0,1-.109,2.593c-.1.974-.249,2.064-.458,3.269a1.361,1.361,0,0,0,.212,1,1.337,1.337,0,0,0,.83.585,1.3,1.3,0,0,0,1-.155,1.326,1.326,0,0,0,.621-.813,46.656,46.656,0,0,1,2.175-6.19,9.727,9.727,0,0,1,.655-1.279,12.772,12.772,0,0,1,.109,1.954q-.017,1.425-.2,3.16t-.549,3.726a1.378,1.378,0,0,0,.228,1.031,1.285,1.285,0,0,0,.886.557.408.408,0,0,0,.121.018h.118a1.363,1.363,0,0,0,.877-.311,1.327,1.327,0,0,0,.475-.8q.435-2.447.638-4.538a26.854,26.854,0,0,0,.127-3.716A10.774,10.774,0,0,0,1266.875,1060.915Z" transform="translate(-1110.218 -1034.948)"/>
      <path id="Trazado_117368" data-name="Trazado 117368" d="M1320.786,1057.033a10.678,10.678,0,0,0,1.936-1.854,7.817,7.817,0,0,0,1.706-3.287,4.216,4.216,0,0,0-.337-2.958,3.489,3.489,0,0,0-1.132-1.3,5.19,5.19,0,0,0-.765-.466,5.946,5.946,0,0,0-.9-.356,10.077,10.077,0,0,0-3.066-.384q.145-1.041.263-2.054t.212-2.055a1.363,1.363,0,0,0-.321-.995,1.33,1.33,0,0,0-.94-.484,1.361,1.361,0,0,0-.994.319,1.328,1.328,0,0,0-.486.94q-.255,3.014-.768,6.073t-1.059,6.09q-.09.475-.173.958t-.173.959h-.019a1.373,1.373,0,0,0-1.7.895,1.338,1.338,0,0,0,.1,1.051,1.3,1.3,0,0,0,.792.667,7.328,7.328,0,0,0,2.1.31,8.659,8.659,0,0,0,3.414-.749A11.217,11.217,0,0,0,1320.786,1057.033Zm-4.074-1.589q.054-.34.13-.685.255-1.388.5-2.776c.165-.926.318-1.863.467-2.813a10.818,10.818,0,0,1,1.486.027,6,6,0,0,1,1.2.228,1.844,1.844,0,0,1,1.188.8,1.8,1.8,0,0,1-.009,1.4,5.7,5.7,0,0,1-1.05,1.8,8.767,8.767,0,0,1-1.808,1.644,7.518,7.518,0,0,1-2.227,1.059C1316.633,1055.9,1316.676,1055.669,1316.712,1055.445Z" transform="translate(-1153.811 -1021.505)"/>
      <path id="Trazado_117369" data-name="Trazado 117369" d="M1367.22,1071.813a4.166,4.166,0,0,0,1.341.959,4.044,4.044,0,0,0,1.607.329h.091a5.3,5.3,0,0,0,.913-.119,4.866,4.866,0,0,0,.913-.3,7.027,7.027,0,0,0,1.744-1.15,11.072,11.072,0,0,0,1.635-1.845,1.4,1.4,0,0,0,.247-1.031,1.26,1.26,0,0,0-.559-.886,1.393,1.393,0,0,0-1.031-.247,1.265,1.265,0,0,0-.886.557,7.483,7.483,0,0,1-1.295,1.451,5.386,5.386,0,0,1-.968.649,1.438,1.438,0,0,1-2.137-.858,3.024,3.024,0,0,1-.111-1.881c.036-.2.081-.387.127-.575s.1-.375.164-.557a9.761,9.761,0,0,0,3.543-.219,5.2,5.2,0,0,0,1.844-.867,4.574,4.574,0,0,0,.987-1.014,3.36,3.36,0,0,0,.621-1.735,3.009,3.009,0,0,0-.421-1.754,2.8,2.8,0,0,0-1.341-1.178,3.611,3.611,0,0,0-1.909-.246,5.442,5.442,0,0,0-2.318.83,7.086,7.086,0,0,0-1.936,1.872,11.338,11.338,0,0,0-1.243,2.247.071.071,0,0,1-.019.055c-.157.39-.3.8-.436,1.233s-.25.879-.349,1.342a5.9,5.9,0,0,0,.275,3.488A4.485,4.485,0,0,0,1367.22,1071.813Zm3.075-8.208a3.466,3.466,0,0,1,2.355-1.589.764.764,0,0,1,.184-.019.7.7,0,0,1,.282.046.489.489,0,0,1,.137.082.4.4,0,0,1,.019.219.737.737,0,0,1-.128.31,2.5,2.5,0,0,1-.4.383,2.471,2.471,0,0,1-.913.4,4.7,4.7,0,0,1-.722.138c-.264.03-.534.052-.814.063Z" transform="translate(-1193.788 -1035.172)"/>
      <path id="Trazado_117370" data-name="Trazado 117370" d="M1409.912,1072.939a1.4,1.4,0,0,0,1.5.073,1.284,1.284,0,0,0,.5-.511,1.264,1.264,0,0,0,.13-.256c.011-.049.03-.122.055-.219.012-.073.03-.183.055-.329v-.037c.046-.182.124-.426.228-.73s.222-.649.357-1.032.291-.8.474-1.242.385-.9.6-1.36a20,20,0,0,1,1.159-2.192,12.572,12.572,0,0,1,.968-1.37,4.166,4.166,0,0,1,.749-.73,2.926,2.926,0,0,1,.5-.292.838.838,0,0,1,.422-.073,1.239,1.239,0,0,1,.53.22,1.333,1.333,0,0,0,1.011.247,1.262,1.262,0,0,0,.885-.558,1.357,1.357,0,0,0,.239-1.031,1.316,1.316,0,0,0-.549-.886,3.624,3.624,0,0,0-2.446-.73,4.216,4.216,0,0,0-2.175.876,8.2,8.2,0,0,0-1.789,1.862c.024-.194.051-.362.072-.5a3.365,3.365,0,0,1,.073-.338,1.423,1.423,0,0,0-.428-1.644,1.259,1.259,0,0,0-1.014-.255,1.347,1.347,0,0,0-.676.292,1.427,1.427,0,0,0-.438.621.816.816,0,0,0-.091.274.854.854,0,0,0-.055.219c-.014.085-.03.183-.055.292-.026.171-.056.381-.094.63s-.078.545-.127.886q-.127.894-.255,2c-.085.738-.178,1.477-.273,2.219-.039.341-.08.694-.13,1.06s-.094.715-.137,1.05-.082.645-.118.931-.068.52-.091.7a3.273,3.273,0,0,0-.128.575,1.542,1.542,0,0,0,.055.612A1.372,1.372,0,0,0,1409.912,1072.939Z" transform="translate(-1226.019 -1035.631)"/>
      <path id="Trazado_117371" data-name="Trazado 117371" d="M902.776,974.974c-8.533-9.451-24.427-7.815-36.053-8.265-33.245-1.283-66.586-.72-99.84-.057-13.327.266-27.086-.243-40.328,1.388-7.2.886-13.709,3.7-18.137,8.771a1.509,1.509,0,0,0-.494.292c-8.5,7.666-9.843,20.579-8.094,31.4,1.677,10.372,11.85,14.227,21.072,15.328,15.536,1.853,31.489,1.34,47.11,1.443q29.543.2,59.086-.2l.69-.009c.088.409.179.818.265,1.229,2.227,10.6,4.1,21.281,5.4,32.037a1.491,1.491,0,0,0,2.518,1.043c.884-.889,1.739-1.749,2.558-2.665a1.111,1.111,0,0,0,.782-.824q8-12.286,16.383-24.315,2.5-3.587,5.051-7.134c8.884-.21,18.233.235,26.542-2.512a28.991,28.991,0,0,0,10.987-6.037c3.011-2.6,6.534-6.922,7.2-11.214C908.876,995.193,909.079,981.957,902.776,974.974Zm-63.967,76.313c-1.386-10.419-3.184-20.8-5.465-31.054a1.473,1.473,0,0,0-1.422-1.083q-31.81.4-63.623.206c-16.371-.109-34.49,1.4-50.49-2.614-13.931-3.492-14.181-18.837-11.251-30.456a18.225,18.225,0,0,1,3.45-7.094h0c.009-.009.011-.019.02-.027,6.767-8.361,20.3-8.656,30.8-8.943,31.723-.866,63.466-1.411,95.2-1.188,15.122.107,30.262.385,45.355,1.371,8.873.581,18.012,1.757,21.73,11.04,3.285,8.2,1.532,21.784-3.78,28.568-4.693,6-12.851,7.624-19.988,7.965-4.824.23-9.653.377-14.482.521-1.475.043-3.13-.414-4.079.877C853.134,1029.78,845.886,1040.487,838.809,1051.287Z" transform="translate(-699.16 -965.939)"/>
      <path id="Trazado_117372" data-name="Trazado 117372" d="M800.307,992.6a113.738,113.738,0,0,0-27.288.589c-6.2.779-14.5,2-18.865,6.995-.048.054,0,.169.078.135,15.146-6.323,29.988-6.013,46.074-7.188A.265.265,0,0,0,800.307,992.6Z" transform="translate(-739.944 -985.289)"/>
      <path id="Trazado_117373" data-name="Trazado 117373" d="M949.5,992.824a10.7,10.7,0,0,0-2.612.015,16.009,16.009,0,0,0-3.027.387.186.186,0,0,0,0,.356,7.935,7.935,0,0,0,5.691-.358C949.7,993.139,949.7,992.852,949.5,992.824Z" transform="translate(-880.597 -985.829)"/>
      <path id="Trazado_117374" data-name="Trazado 117374" d="M1419.679,1115.515c-1.462.589-3.2.759-4.47,1.694a.2.2,0,0,0,.047.357c3.169.948,8.384-1.745,10.813-3.672,2.973-2.361,5.318-5.58,4.268-9.5a.29.29,0,0,0-.556,0,14.3,14.3,0,0,1-5.392,8.59A20.451,20.451,0,0,1,1419.679,1115.515Z" transform="translate(-1230.301 -1068.5)"/>
      <path id="Trazado_117375" data-name="Trazado 117375" d="M1473.761,1085.925c.141-.215.411-.408.49-.666a5.127,5.127,0,0,0,.245-1.174,5.3,5.3,0,0,0-.294-2.366.232.232,0,0,0-.444,0,6.688,6.688,0,0,0-.382,2.089c-.025.361-.046.71-.05,1.073,0,.331.115.629.112.956A.175.175,0,0,0,1473.761,1085.925Z" transform="translate(-1273.484 -1051.711)"/>
      <path id="Trazado_117376" data-name="Trazado 117376" d="M1038.113,1156.554c-15.353-.234-31.66-.6-46.861,1.655-.122.017-.083.2.027.2a262.434,262.434,0,0,0,46.833-1.42A.219.219,0,0,0,1038.113,1156.554Z" transform="translate(-915.796 -1107.218)"/>
    </g>
  </g>
</svg>
