<svg xmlns="http://www.w3.org/2000/svg" width="87.972" height="55.873" viewBox="0 0 87.972 55.873">
  <g id="Grupo_81094" data-name="Grupo 81094" transform="matrix(0.914, 0.407, -0.407, 0.914, -146.112, -439.983)">
    <g id="Grupo_81088" data-name="Grupo 81088" transform="translate(329.307 349.951)">
      <g id="Grupo_81084" data-name="Grupo 81084" transform="translate(1.449 1.448)" style="mix-blend-mode: overlay;isolation: isolate">
        <path id="Trazado_115037" data-name="Trazado 115037" d="M360.284,394.493l-6.414.947a2.192,2.192,0,0,0-1.82,1.71l-1.338,6.347a2.184,2.184,0,0,1-4.093.519l-2.883-5.809a2.185,2.185,0,0,0-2.187-1.2l-6.45.684a2.181,2.181,0,0,1-1.759-3.726l4.63-4.545a2.177,2.177,0,0,0,.464-2.449l-2.645-5.919a2.183,2.183,0,0,1,3.005-2.828l5.748,3.005a2.189,2.189,0,0,0,2.474-.318l4.813-4.349a2.185,2.185,0,0,1,3.616,1.985l-1.081,6.4a2.193,2.193,0,0,0,1.063,2.26l5.626,3.231A2.186,2.186,0,0,1,360.284,394.493Z" transform="translate(-332.068 -375.385)" fill="#3c384f"/>
        <path id="Trazado_115038" data-name="Trazado 115038" d="M348.171,405.451a2.757,2.757,0,0,1-2.488-1.553l-2.883-5.809a1.579,1.579,0,0,0-1.574-.861l-6.452.684a2.792,2.792,0,0,1-2.251-4.771l4.629-4.543a1.573,1.573,0,0,0,.334-1.765l-2.644-5.918a2.794,2.794,0,0,1,3.845-3.619l5.749,3.006a1.582,1.582,0,0,0,1.782-.23l4.813-4.349a2.8,2.8,0,0,1,4.628,2.539l-1.081,6.4a1.589,1.589,0,0,0,.767,1.63l5.623,3.229a2.8,2.8,0,0,1-.984,5.19h0l-6.414.947a1.585,1.585,0,0,0-1.312,1.233l-1.338,6.346a2.762,2.762,0,0,1-2.383,2.194A2.871,2.871,0,0,1,348.171,405.451ZM341.392,396a2.809,2.809,0,0,1,2.5,1.547l2.884,5.811a1.573,1.573,0,0,0,2.947-.374l1.338-6.347a2.815,2.815,0,0,1,2.328-2.189l6.414-.947a1.575,1.575,0,0,0,.556-2.922l-5.626-3.231a2.818,2.818,0,0,1-1.361-2.892l1.081-6.4a1.574,1.574,0,0,0-2.6-1.431l-4.814,4.35a2.8,2.8,0,0,1-3.167.4l-5.747-3.005a1.573,1.573,0,0,0-2.165,2.037l2.645,5.92a2.8,2.8,0,0,1-.6,3.136l-4.628,4.543a1.57,1.57,0,0,0,1.267,2.683l6.45-.685A2.814,2.814,0,0,1,341.392,396Z" transform="translate(-331.679 -374.996)" fill="#3c384f"/>
        <path id="Trazado_115039" data-name="Trazado 115039" d="M343.785,388.439a38.846,38.846,0,0,0-1.85-3.462.611.611,0,1,0-1.055.616,38.867,38.867,0,0,1,1.85,3.462.614.614,0,0,0,.836.219A.628.628,0,0,0,343.785,388.439Z" transform="translate(-335.228 -378.762)" fill="#3c384f"/>
        <path id="Trazado_115040" data-name="Trazado 115040" d="M356.825,415.185c-.611-1.192-1.19-2.444-1.685-3.65a.627.627,0,0,0-.751-.427.617.617,0,0,0-.426.751q.823,2.007,1.809,3.942a.615.615,0,0,0,.836.219A.625.625,0,0,0,356.825,415.185Z" transform="translate(-340.338 -389.039)" fill="#3c384f"/>
      </g>
      <g id="Grupo_81087" data-name="Grupo 81087">
        <g id="Grupo_81086" data-name="Grupo 81086">
          <g id="Grupo_81085" data-name="Grupo 81085">
            <path id="Trazado_115041" data-name="Trazado 115041" d="M357.913,392.121l-6.414.947a2.192,2.192,0,0,0-1.82,1.71l-1.338,6.347a2.184,2.184,0,0,1-4.093.519l-2.883-5.809a2.185,2.185,0,0,0-2.187-1.2l-6.45.684a2.181,2.181,0,0,1-1.759-3.726l4.63-4.545a2.177,2.177,0,0,0,.464-2.449l-2.645-5.919a2.183,2.183,0,0,1,3.005-2.828l5.748,3.005a2.188,2.188,0,0,0,2.474-.318l4.813-4.349a2.185,2.185,0,0,1,3.616,1.985l-1.081,6.4a2.192,2.192,0,0,0,1.063,2.26l5.626,3.231A2.186,2.186,0,0,1,357.913,392.121Z" transform="translate(-329.697 -373.013)" fill="#ffd947"/>
            <path id="Trazado_115042" data-name="Trazado 115042" d="M345.8,403.08a2.756,2.756,0,0,1-2.487-1.553l-2.883-5.808a1.58,1.58,0,0,0-1.574-.862l-6.452.685a2.792,2.792,0,0,1-2.251-4.771l4.629-4.543a1.574,1.574,0,0,0,.334-1.765l-2.644-5.919a2.794,2.794,0,0,1,3.845-3.619l5.749,3.006a1.584,1.584,0,0,0,1.782-.23l4.813-4.349a2.8,2.8,0,0,1,4.628,2.54l-1.082,6.4a1.59,1.59,0,0,0,.768,1.63l5.623,3.229a2.8,2.8,0,0,1-.984,5.19h0l-6.414.947a1.587,1.587,0,0,0-1.312,1.233l-1.337,6.346a2.811,2.811,0,0,1-2.75,2.217Zm-6.779-9.454a2.809,2.809,0,0,1,2.5,1.547l2.884,5.811a1.573,1.573,0,0,0,2.948-.374l1.338-6.346a2.813,2.813,0,0,1,2.328-2.189l6.414-.947a1.575,1.575,0,0,0,.556-2.922l-5.626-3.231A2.819,2.819,0,0,1,351,382.083l1.081-6.395a1.574,1.574,0,0,0-2.6-1.431l-4.813,4.35a2.806,2.806,0,0,1-3.167.4l-5.748-3.005a1.572,1.572,0,0,0-2.165,2.037l2.645,5.92a2.8,2.8,0,0,1-.6,3.137l-4.628,4.543a1.57,1.57,0,0,0,1.266,2.683l6.451-.684A2.831,2.831,0,0,1,339.021,393.626Z" transform="translate(-329.307 -372.625)"/>
          </g>
          <path id="Trazado_115043" data-name="Trazado 115043" d="M341.414,386.068a38.849,38.849,0,0,0-1.85-3.463.611.611,0,0,0-1.055.617,38.846,38.846,0,0,1,1.85,3.462.613.613,0,0,0,.836.219A.627.627,0,0,0,341.414,386.068Z" transform="translate(-332.856 -376.391)"/>
          <path id="Trazado_115044" data-name="Trazado 115044" d="M354.454,412.813c-.611-1.192-1.191-2.445-1.685-3.65a.627.627,0,0,0-.751-.426.616.616,0,0,0-.426.751q.823,2.007,1.808,3.942a.615.615,0,0,0,.836.219A.625.625,0,0,0,354.454,412.813Z" transform="translate(-337.966 -386.668)"/>
        </g>
      </g>
    </g>
    <g id="Grupo_81093" data-name="Grupo 81093" transform="translate(357.034 339.462)">
      <g id="Grupo_81089" data-name="Grupo 81089" transform="translate(1.448 1.448)" style="mix-blend-mode: overlay;isolation: isolate">
        <path id="Trazado_115045" data-name="Trazado 115045" d="M400.342,368.893l-3.61,2.889a1.876,1.876,0,0,0-.6,2.059l1.454,4.386a1.876,1.876,0,0,1-2.81,2.162l-3.867-2.535a1.876,1.876,0,0,0-2.144.055l-3.72,2.743a1.879,1.879,0,0,1-2.926-2.01l1.216-4.459a1.881,1.881,0,0,0-.715-2.022l-3.757-2.694a1.877,1.877,0,0,1,1-3.4l4.618-.22a1.875,1.875,0,0,0,1.7-1.307l1.4-4.4a1.879,1.879,0,0,1,3.549-.092l1.631,4.325a1.879,1.879,0,0,0,1.771,1.209l4.624-.031A1.882,1.882,0,0,1,400.342,368.893Z" transform="translate(-377.459 -358.213)" fill="#3c384f"/>
        <path id="Trazado_115046" data-name="Trazado 115046" d="M383.538,381.245a2.5,2.5,0,0,1-2.4-3.155l1.216-4.458a1.275,1.275,0,0,0-.483-1.365l-3.755-2.693a2.488,2.488,0,0,1,1.329-4.509l4.619-.22a1.254,1.254,0,0,0,1.15-.881l1.4-4.4a2.49,2.49,0,0,1,4.7-.122l1.631,4.325a1.261,1.261,0,0,0,1.185.814h.01l4.625-.031h.01a2.492,2.492,0,0,1,1.561,4.435l-3.61,2.89a1.265,1.265,0,0,0-.407,1.387l1.454,4.388a2.487,2.487,0,0,1-3.725,2.864l-3.865-2.534a1.273,1.273,0,0,0-1.449.037l-3.718,2.741A2.486,2.486,0,0,1,383.538,381.245Zm5.443-22.2h-.034a1.238,1.238,0,0,0-1.172.882l-1.4,4.4a2.5,2.5,0,0,1-2.258,1.732l-4.617.22a1.267,1.267,0,0,0-.675,2.3l3.756,2.694a2.5,2.5,0,0,1,.948,2.68l-1.215,4.458a1.268,1.268,0,0,0,1.974,1.357l3.719-2.742a2.5,2.5,0,0,1,2.845-.072l3.863,2.533a1.266,1.266,0,0,0,1.895-1.459l-1.453-4.386a2.491,2.491,0,0,1,.8-2.728l3.61-2.889a1.271,1.271,0,0,0-.8-2.26h0l-4.623.031h-.018a2.506,2.506,0,0,1-2.327-1.6l-1.632-4.328A1.241,1.241,0,0,0,388.981,359.046Z" transform="translate(-377.07 -357.824)" fill="#3c384f"/>
        <path id="Trazado_115047" data-name="Trazado 115047" d="M386.4,372.516l-2.829.1a.611.611,0,0,0,0,1.222l2.829-.1a.611.611,0,1,0,0-1.222Z" transform="translate(-379.363 -363.541)" fill="#3c384f"/>
      </g>
      <g id="Grupo_81092" data-name="Grupo 81092" transform="translate(0 0)">
        <g id="Grupo_81091" data-name="Grupo 81091">
          <g id="Grupo_81090" data-name="Grupo 81090">
            <path id="Trazado_115048" data-name="Trazado 115048" d="M397.97,366.522l-3.61,2.889a1.875,1.875,0,0,0-.6,2.059l1.454,4.386a1.877,1.877,0,0,1-2.81,2.162l-3.866-2.535a1.876,1.876,0,0,0-2.144.055l-3.721,2.743a1.879,1.879,0,0,1-2.925-2.01l1.215-4.459a1.882,1.882,0,0,0-.714-2.022l-3.757-2.694a1.877,1.877,0,0,1,1-3.4l4.617-.22a1.874,1.874,0,0,0,1.7-1.307l1.4-4.4a1.879,1.879,0,0,1,3.549-.092L390.39,362a1.88,1.88,0,0,0,1.771,1.209l4.624-.031A1.882,1.882,0,0,1,397.97,366.522Z" transform="translate(-375.088 -355.842)" fill="#ff5f65"/>
            <path id="Trazado_115049" data-name="Trazado 115049" d="M381.167,378.874a2.5,2.5,0,0,1-2.4-3.155l1.215-4.458a1.273,1.273,0,0,0-.483-1.365l-3.755-2.693a2.488,2.488,0,0,1,1.329-4.509l4.618-.221a1.255,1.255,0,0,0,1.151-.881l1.4-4.4a2.49,2.49,0,0,1,4.7-.122l1.631,4.325a1.261,1.261,0,0,0,1.185.814h.01l4.625-.031h.01a2.492,2.492,0,0,1,1.561,4.435l-3.61,2.889a1.265,1.265,0,0,0-.407,1.388l1.454,4.388a2.487,2.487,0,0,1-3.725,2.865l-3.866-2.535a1.273,1.273,0,0,0-1.449.038l-3.718,2.741A2.486,2.486,0,0,1,381.167,378.874Zm5.443-22.2h-.035a1.237,1.237,0,0,0-1.172.882l-1.4,4.4a2.5,2.5,0,0,1-2.258,1.732l-4.617.22a1.266,1.266,0,0,0-.674,2.3l3.756,2.694a2.5,2.5,0,0,1,.948,2.679l-1.216,4.458a1.268,1.268,0,0,0,1.975,1.357l3.719-2.742a2.5,2.5,0,0,1,2.844-.072l3.864,2.533a1.266,1.266,0,0,0,1.895-1.459l-1.454-4.386a2.491,2.491,0,0,1,.8-2.728l3.61-2.889a1.271,1.271,0,0,0-.8-2.259H396.4l-4.622.031h-.018a2.506,2.506,0,0,1-2.327-1.6L387.8,357.5A1.241,1.241,0,0,0,386.609,356.675Z" transform="translate(-374.699 -355.453)"/>
          </g>
          <path id="Trazado_115050" data-name="Trazado 115050" d="M384.031,370.145l-2.829.095a.611.611,0,1,0,0,1.222l2.829-.095a.611.611,0,0,0,0-1.222Z" transform="translate(-376.992 -361.17)"/>
        </g>
      </g>
    </g>
    <path id="Trazado_115051" data-name="Trazado 115051" d="M425.549,319.193c-1.2-4.032-5.775-4.741-9.365-4.829a.611.611,0,0,0,0,1.222c2.536.062,5.444.251,7.245,2.288a3.828,3.828,0,0,1,1.008,3.336,5.982,5.982,0,0,1-2.329,3.218c-.168.127-.346.244-.527.356a7.6,7.6,0,0,0-.728-1.256,7.989,7.989,0,0,0-3.69-2.849c-1.315-.476-2.974-.384-3.7.986-.779,1.468.1,3.137,1.277,4.074a6.025,6.025,0,0,0,4.543,1.186,7,7,0,0,0,1.605-.434,6.73,6.73,0,0,1-.075,3.666,6.264,6.264,0,0,1-3.79,4.032c-.52-2.4-1.93-4.806-4.336-5.039a2.683,2.683,0,0,0-3.03,2.526c.031,1.54,1.523,2.794,2.809,3.393a6.507,6.507,0,0,0,3.547.561c.214,2.7-1.277,5.666-4.116,6.23-3.236.642-5.422-2.344-5.468-5.3a.611.611,0,0,0-1.222,0c.052,3.336,2.34,6.7,5.943,6.606,3.351-.084,5.771-3.008,6.075-6.2a8.451,8.451,0,0,0-.015-1.592,7.125,7.125,0,0,0,3.511-2.453,7.942,7.942,0,0,0,1.293-6.968C424.436,324.557,426.359,321.924,425.549,319.193ZM412.5,333.7c-.975-.6-2.432-2.145-1.011-3.094,1.205-.805,2.614.3,3.265,1.289a7.953,7.953,0,0,1,1.073,2.556l-.017,0A5.438,5.438,0,0,1,412.5,333.7Zm2.752-9.133c-.878-.842-1.4-2.855.369-2.943a4.94,4.94,0,0,1,3.192,1.445,6.849,6.849,0,0,1,1.668,2.264A4.864,4.864,0,0,1,415.248,324.569Z" transform="translate(-29.536 0)"/>
  </g>
</svg>
