<?xml version="1.0" encoding="UTF-8"?><svg id="Capa_2" xmlns="http://www.w3.org/2000/svg" xmlns:xlink="http://www.w3.org/1999/xlink" viewBox="0 0 252.23 252.23"><defs><style>.cls-1{fill:#cce8e0;}.cls-2{fill:#ffeccf;}.cls-3{fill:#0a3152;}.cls-4{fill:#f5aa31;}.cls-5{fill:#e88063;}.cls-6{fill:#f5af90;}.cls-7{fill:#b0771c;}.cls-8{fill:#871414;}.cls-9{fill:#574942;}.cls-10{fill:#c93a2a;}.cls-11{fill:#c74b30;}.cls-12{fill:#72cfdb;}.cls-13{fill:#bd8224;}.cls-14{fill:#e64f3e;}.cls-15{fill:#cf5138;}.cls-16{clip-path:url(#clippath);}.cls-17{fill:none;}.cls-18{fill:#11506b;}.cls-19{fill:#00a99d;}.cls-20{fill:#ad3c23;}.cls-21{fill:#135f80;}.cls-22{fill:#9cb6ff;}</style><clipPath id="clippath"><path class="cls-17" d="M252.23,126.12c0,69.65-56.46,126.12-126.12,126.12S0,195.77,0,126.12,56.46,0,126.12,0s126.12,56.46,126.12,126.12Z"/></clipPath></defs><g id="layer_1"><g class="cls-16"><path class="cls-22" d="M252.23,126.12c0,69.65-56.46,126.12-126.12,126.12S0,195.77,0,126.12,56.46,0,126.12,0s126.12,56.46,126.12,126.12Z"/><g><path class="cls-9" d="M120.9,364.41c-2.26,2.22-4.43,4.53-6.52,6.92,1.87,2.79,3.44,5.69,4.96,8.66,2.13,4.16,4.12,8.42,6.55,12.57,3.12,5.32,8.92,8.94,15.03,9.56-1.15-9.09-6.55-18.02-7.5-25.56-.01-18.91,2.09-38.22,6.38-56.67,.24-1.03,.49-2.05,.74-3.07,1.25-1.1,2.38-2.49,3.35-3.99,.97-1.52,1.78-3.17,2.42-4.75,5.98-15.06,10.42-30.73,13.22-46.69,.65-3.75,1.22-7.52,1.7-11.29-10.18-.85-21.79-.52-31.42,2.86,1.43,5.97,1.15,12.2,.87,18.34-.5,10.75-1.21,21.61-1.71,32.36-5.63,5.38-10.34,11.72-13.85,18.66-1.66,3.27-.86,5.61-.15,9.02,.73,3.46,1.46,6.93,2.19,10.39,1.61,7.64,3.29,14.89,3.75,22.68Z"/><path class="cls-3" d="M88.66,201.43c1.74,2.64,4.63,4.25,7.42,5.73,.94,.5,1.89,.99,2.91,1.28,.22,.06,.47,.11,.68,.02,.15-.06,.26-.19,.37-.31,1.94-2.27,3.16-5.07,3.92-7.95s1.07-5.86,1.35-8.83c.28-3,.52-6.07-.28-8.97-.17-.61-.45-1.28-1.05-1.49-.3-.1-.62-.07-.93-.03-2.25,.34-4.58,1.4-6.29,2.92-1.84,1.63-3.91,3.02-5.77,4.67-3.78,3.35-5.27,8.48-2.32,12.97Z"/><path class="cls-21" d="M85.21,259.91c7.58,2.18,15.42,3.15,23.31,3.59,5.33,.3,10.68,.35,16.01,.37,8.75,.03,17.53-.02,26.18-1.31,4.32-.65,8.05-1.68,11.26-4.63,2.36-7.98,3.69-16.46,4.97-24.68,1.32-8.47,2.1-17.03,1.97-25.61-.12-7.24-.74-14.47-1.84-21.63-1-6.49-2.38-12.91-4.16-19.23-10.14-5.51-22.4-6.14-33.93-5.66-6.24,.26-15.2,1.67-18.68,6.84-13.52,20.09-17.72,44.84-21.32,68.79-1.16,7.73-2.65,15.41-3.76,23.15Z"/><path class="cls-18" d="M102.33,255.21c5.74-23.43,11.36-47.15,15.84-70.86,5.27,2.28,11.25,1.95,16.97,1.59,3.21-.21,6.44-.41,9.65-.62,2.07-.13,4.15-.27,6.2-.57,3.61-.52,6.05-2.34,9.38-3.85,2.35,1.87,4.56,3.93,6.57,6.15,.04-.34,.08-.68,.11-1.03-1-6.49-2.38-12.91-4.16-19.23-10.14-5.51-22.4-6.14-33.93-5.66-6.24,.26-15.2,1.67-18.68,6.84-13.52,20.09-17.72,44.84-21.32,68.79-1.16,7.73-2.65,15.41-3.76,23.15,7.58,2.18,15.42,3.15,23.31,3.59-1.45-1.28-2.91-2.55-4.36-3.83-1.13-1-2.19-3-1.82-4.46Z"/><g><path class="cls-8" d="M99.15,88.93c7.84,2.01,16.29,1.58,23.88-1.22,.38-.14,.77-.3,1.04-.6,.42-.48,.41-1.2,.36-1.83-.48-6.35-2.19-12.58-4.65-18.46-1.99-4.76-4.66-9.5-9-12.28-4.02-2.57-9.96-2.31-11.18,2.95-1.5,6.47-1.96,13.29-1.71,19.91,.15,3.87,.57,7.73,1.27,11.54Z"/><path class="cls-8" d="M128.11,79.65c.42,3.3,1.77,6.42,3.35,9.36,3.37,6.27,8.17,11.83,13.59,16.56,2.67-8.95,4.5-17.74,5.3-27.09,.68,9.78-.3,19.67-2.85,29.13,.87,.7,1.75,1.39,2.64,2.04,1.94-5.9,3.1-12.06,3.46-18.25,.59-10.01-.89-20.25,1.63-29.95,1.53-5.91,.46-13.04-1.6-18.79-.73-2.05-1.82-4.21-3.83-5.05-2-.85-4.34-.1-6.19,1.06-4.79,3.02-7.43,8.45-9.46,13.74-2.08,5.42-3.77,11-5.06,16.66-.79,3.49-1.45,7.06-.99,10.6Z"/></g><path class="cls-21" d="M155.01,135.22c4.33,10.8,8.68,21.62,11.73,32.85,.1,.38,.2,.8,.04,1.16-.14,.32-.46,.53-.76,.71-1.37,.84-2.75,1.68-4.12,2.53-6.07-9.13-15.44-16.01-20.02-25.97-.31-.68-.61-1.39-.62-2.14-.01-.73,.24-1.43,.5-2.11,1.5-3.8,3.64-7.35,6.28-10.47,1.06-1.25,2.39-3.54,4.04-2.52,1.41,.87,2.33,4.49,2.92,5.96Z"/><g><path class="cls-1" d="M85.61,108.69c2.24,3.81,5.47,6.94,8.87,9.77,9.91,8.26,14.92,22.15,19.17,34.32-1,3.23-1.76,5.92-3.12,9.02-.87,1.97-1.92,4.27-2.77,6.25,.17,1.32-.17,2.6,.81,3.52,1.52,1.44,2.22,2.31,3.83,3.63,3.74,3.06,8,5.47,12.53,7.13,4.43,1.62,7.76,1.46,12.35,1.15,8.51-.59,17.49-2.77,23.51-9.22,1.85-1.99,2.74-4.35,3.96-6.79-3.41-7.49-8.57-15.03-14.49-20.76,.86-4.34,1.53-9.15,1.74-13.58,3.1-3.98,6.05-8.13,7.35-13.01-2.18-5.31-5.62-10.23-9.76-14.25-.48-.46-.97-.92-1.47-1.36-1.17-5.23-2.85-10.04-4.53-15.12-5.15-2.65-10.44-5.02-15.85-7.11-.72-.28-1.45-.55-2.18-.82-3.14-1.17-6.33-2.24-9.54-3.21-2.26,.89-4.53,1.78-6.81,2.69-8.03,3.21-16.07,6.53-23.92,10.08-1.71,.78-1.73,3.11-2.14,4.94-.95,4.32,.22,8.91,2.46,12.73Z"/><path class="cls-12" d="M115.29,112.54c2.69,4.98,4.34,10.53,9.01,13.74,2.39,1.65,5.54,1.57,8.43,1.29,8.66-.85,17.47-2.79,25.32-6.61-1.04,.51-2.45,4.26-3.13,5.32-1.02,1.6-2.01,3.54-3.36,4.84-2.9,2.8-7.8,4.1-11.59,4.98-4.48,1.04-9.08,1.55-13.54,2.68-2.07,.52-3.4,0-5.53,.02,1.35,2.25,3.36,4.11,5.72,5.26,2.96,1.45,5.9,1.89,9.11,2.62-2.79,.21-5.6,.19-8.39-.06-2.28-.2-4.59-.96-6.19,1.22-.66,.9-1,1.99-1.33,3.05,.48,.91,1.25,2.08,2.07,2.71,2.54,1.92,5.25,3.61,8.11,5.02-2.83-.86-5.67-1.72-8.5-2.59-2.39,3.88-5.18,8.54-7.57,12.42,5.52,5.25,11.63,9.9,18.16,13.82-7.4-3.33-14.86-6.69-21.47-11.38,5.78-22.69,3.78-47.89-4.72-69.71,3.43,3.34,7.14,7.14,9.41,11.35Z"/><path class="cls-6" d="M109.21,80.94c.38,.89,.81,1.77,1.26,2.62,1.63,3.06,3.72,5.91,5.96,8.58,.46,.54,.91,1.07,1.37,1.6,4.58,5.24,9.61,10.07,14.63,14.89,2.43,2.32,4.9,4.56,7.33,6.88-1.3-10.97-4.94-21.65-10.6-31.12-.45-.75-.93-1.45-1.43-2.13-.13-.05-.26-.1-.39-.15-.59-.23-1.18-.46-1.78-.66-.1-.04-.2-.07-.3-.1-3.05-1.14-6.13-2.18-9.24-3.11-1.34,.53-2.66,1.05-4.01,1.59-.68,.27-1.37,.54-2.06,.82-.25,.09-.49,.2-.74,.29Z"/><path class="cls-18" d="M125.56,81.46c7.66,8.52,15.7,16.71,24.06,24.55-.01-.05-.02-.09-.03-.14-.48-.46-.97-.92-1.47-1.36-1.17-5.23-2.85-10.04-4.53-15.12-5.84-3.01-11.86-5.66-18.03-7.93Z"/><path class="cls-21" d="M128.3,82.58c6.45,6.44,13.48,12.29,20.98,17.48,.38,2.42,1.05,4.76,1.31,7.19-2.87-1.72-5.74-3.98-8.12-6.34-1.4-1.39-2.69-2.87-3.98-4.35-3.43-3.92-6.85-7.84-10.28-11.77-1.03-1.17-2.06-2.37-2.72-3.78,1.03,.43,2.02,.77,2.81,1.56Z"/><path class="cls-6" d="M113.5,84.45c1.24,1.09,2.6,2.03,4.03,2.82,.76,.41,1.53,.79,2.32,1.11,1.04,.41,2.16,.77,3.25,.55,1.09-.21,2.63-1.38,2.51-2.58-.1-1.1-.18-2.27-.25-3.48-.03-.5-.06-1-.09-1.5-.29-4.86-.75-10.09-3.47-13.61-.76-.96-1.75-1.88-2.91-1.87-1.61,.01-2.72,1.7-3.46,3.25-1.61,3.37-2.76,6.99-3.4,10.71-.03,.1-.04,.21-.06,.31-.21,1.24,.64,3.5,1.54,4.3Z"/><path class="cls-5" d="M109.95,80.65c.17,.97,.34,1.95,.53,2.91,1.63,3.06,3.72,5.91,5.96,8.58,.41-1.62,.79-3.26,1.09-4.88,.31-1.64,.56-3.27,.73-4.84,1.79,.74,4.01,1.21,5.91,.73,.41-.1,.85-.25,1.07-.62,.16-.26,.17-.58,.16-.88-.13-4.53-.73-10.21-3.6-13.91-.76-.96-1.75-1.88-2.91-1.87-1.61,.01-2.72,1.7-3.46,3.25-1.61,3.37-2.76,6.99-3.4,10.71-.68,.27-1.37,.54-2.06,.82Z"/><path class="cls-18" d="M99.08,124.16c5.16,7.08,9.8,17.74,12.14,26.18-.82,.49-1.52,1.06-1.92,1.93,.53,.98,1.01,1.5,1.54,2.48-2.09,4.51-5.22,7.8-7.84,12.03-3.05,4.93-6.75,9.41-9.96,14.24-1.7,2.56-3.22,5.27-4.34,8.13-.98,2.5-2.32,6.02-1.47,8.72,1.22-2.12,2.57-4.15,4.05-6.1,2.81-3.7,7.32-6.27,11.42-8.32,4.36-2.17,8.7-4.26,12.8-6.9,2.86-19.63,3.3-39.61,1.29-59.34-1.26-12.39-4.46-23.84-6.5-36.13-.07-.43-.13-.41-.3-.81l-26,10.92s-4.16,7.09-.87,13.88c5.55,11.45,15.96,19.08,15.96,19.08Z"/><path class="cls-21" d="M106.46,103.16c1.26-7.82,2.58-16.72,3.2-24.61,1.11-.19,1.74-.24,2.65-.89,3.07,14.54,4.68,29.39,4.8,44.24-4.5-5.39-11.76-11.82-10.65-18.75Z"/><path class="cls-21" d="M104.76,102.26c-.08,2.4,.06,4.88,.91,7.09,1.6,4.2,5.48,7.36,8.35,10.68,.42,.49,.85,.99,1.11,1.57,.29,.64,.36,1.36,.43,2.06,.23,2.32,.46,4.64,.68,6.96-.81-3.9-2.85-7.43-5.12-10.71-1.56-2.26-3.11-4.67-5.04-6.62-1.94-1.96-3.96-3.86-5.96-5.76-3.94-3.74-7.86-7.56-11.01-12.01-.11-.16-.23-.33-.26-.52-.06-.35,.17-.68,.42-.93,.92-.93,2.21-1.34,3.42-1.85,4.26-1.78,7.79-4.92,11.81-7.19,.69-.39,1.63-.74,2.22-.21,.25,.22,.37,.55,.44,.88,.17,.84,.03,1.72-.12,2.56-.68,3.87-1.87,7.82-2.14,11.75-.05,.73-.1,1.47-.12,2.23Z"/><path class="cls-12" d="M144.39,176.96c2.26-.29,4.03-2.04,5.53-3.76,3.23-3.7,6.1-7.7,8.57-11.95-2.86,3.45-5.35,6.57-8.67,9.58s-7.12,5.58-11.39,6.95c2.13-.34,3.81-.56,5.95-.83Z"/></g><g><path class="cls-13" d="M121.49,177.56c2.55,.33,5.12,.46,7.68,.38-.8-6.38-1.15-12.82-1.06-19.25,.15-10.38,.86-19.97-.13-30.31-4.42-1.45-33.47-1.88-38.78-.79,1.32,14.65,24.88,33.3,30.13,47.05,.43,1.13,.96,2.77,2.16,2.92Z"/><path class="cls-2" d="M127.77,164.29c-.09,4.34-.49,8.77,.74,12.93-2.55-.81-5.13-1.49-7.74-2.05-1.69-8.04-3.39-16.1-4.13-24.28-.5-5.48-.56-11-.59-16.5,0-.35,0-.72,.17-1.02,.15-.26,.41-.44,.67-.61,2.97-1.84,6.1-1.48,9.39-2.16-.32,7.81,.73,15.63,1.21,23.43,.21,3.42,.34,6.84,.27,10.27Z"/><path class="cls-13" d="M83.56,137.97c3.43,6.75,8.77,14.27,8.76,21.84-.01,5.87-.17,11.51-.93,17.34,11.41,2.83,23.1,3.6,34.78,2.36,.22-.01,.43-.04,.64-.06-.03-2.53-.08-5.06-.12-7.58-.02-.84-.03-1.69-.05-2.53-.15-8.06-.34-16.1-1.11-24.09-.1-1.06-.22-2.1-.34-3.16-.61-5.28-1.5-10.51-2.65-15.7-13.91-.96-28-2.19-41.54,.86-.84,.19-1.68,.39-2.51,.61,1.7,3.35,3.37,6.76,5.08,10.11Z"/><path class="cls-7" d="M113.62,155.95c-2.47-3.19-5.28-6.15-8.63-8.4-3.35-2.25-7.26-3.76-11.29-3.9-1.13-.04-2.33,.05-3.27,.67-1.24,.81-1.8,2.37-1.92,3.85-.22,2.65,.67,5.29,2.03,7.57,1.23,2.05,3.74,3.78,4.03,6.16,.41,3.44,.07,7.17-.24,10.61,6.63,2.05,13.68,2.74,20.58,2.01,.36-.04,.73-.09,1.04-.28,.42-.27,.62-.78,.78-1.26,1.84-5.65,.52-12.33-3.1-17.01Z"/><path class="cls-6" d="M93.85,161.22s8.91,5.9,14.38,9.08c5.79-.83,10.47-1.66,16.05-3.42l2.97,1.09s.89-.46,1.6-1.09c.37-.33,.68-.71,.81-1.09,.31-1.01,.44-2.1,.51-3.23v-.11c.07-1.24,.09-2.51,.25-3.71,0-.1,.02-.21,.03-.3,.07-.52,.18-1.03,.32-1.51,.28-.92,.5-2.45,.56-2.93,.01-.1,.02-.16,.02-.16,0,0,1.18-.28,2.07-.82,0,0,0-.01,.01-.01,.49-.29,.88-.66,.95-1.11,.19-1.12,.2-2.27,.03-3.39-.47-.2-.56-.52-1.06-.63-3.03-.7-6.13-1.42-9.22-1.06-.23,.03-.5,.16-.8,.36-.11,.07-.23,.16-.35,.25h-.01c-.48,.37-.98,.86-1.44,1.32-.44,.44-.82,.83-1.09,1.06-1.34,1.16-2.63,2.37-3.91,3.61-2.44,2.37-4.54,4.95-7.44,6.77-.07-.03-.13-.05-.21-.08-2.7-1.07-5.24-2.06-7.8-3.19-1.3-.56-2.6-1.15-3.92-1.8-1.3,1.91-2.2,4.12-3.32,6.13Z"/><path class="cls-5" d="M93.85,161.22s8.91,5.9,14.38,9.08c5.79-.83,10.47-1.66,16.05-3.42l2.38,.75s.59-.59,1.29-1.22c-1.69-1.05-2.63-1.38-4.53-1.93-.72-.21-1.47-.4-2.02-.91-.55-.5-.68-2.31-.16-2.85,3.01,.33,5.92,1.51,8.92,1.84v-.11c-2.87-1.05-5.75-2.08-8.63-3.13-.59-.54-.51-1.81,.46-2.43,2.86,.13,5.61,1.23,8.41,1.85h.01c.1-.07,.09-.19,.02-.3-.06-.12-.22-.24-.35-.29-2.63-1-5.1-2.46-7.86-3.02,.09-.89,.29-1.37,.98-1.94,1.85-.24,3.72-.23,5.56,.02,.88,.12,1.8,.32,2.55,.78,.01-.1,.02-.16,.02-.16,0,0,1.18-.28,2.07-.82,0,0,0-.01,.01-.01,.16-.17,.31-.33,.46-.5-3.37-.6-6.74-1.19-10.05-2.07-.16-.04-.31-.08-.43-.2-.09-.09-.13-.23-.17-.36-.23-.89-.31-1.92,.09-2.7,.05-.11,.12-.23,.2-.33-.18,.2-.35,.39-.55,.58h-.01c-.46,.48-.93,.91-1.44,1.32-.44,.44-.82,.83-1.09,1.06-1.34,1.16-2.63,2.37-3.91,3.61-2.44,2.37-4.54,4.95-7.44,6.77-.07-.03-.13-.05-.21-.08-.49,2.33-1.15,4.55-1.74,6.96-2.69-1.14-5.25-3.19-7.39-5.17,.45-1.66,.89-3.32,1.34-4.98-1.3-.56-2.6-1.15-3.92-1.8-1.3,1.91-2.2,4.12-3.32,6.13Z"/><path class="cls-21" d="M61.08,136.91c3.67,8.41,11.25,14.9,18.86,20.02,4.23,2.84,8.18,5.37,12.33,8.13,.67,.46,1.36,.91,2.05,1.38,.43-.6,.83-1.2,1.2-1.8,1.77-2.77,3.13-5.46,5.12-8.28-.03-.03-.05-.05-.08-.07-5.55-4.74-10.7-10.45-15.44-16.12-.37-.44-.73-.86-1.09-1.3-.43-.51-.84-1.02-1.25-1.51,.06-.03,.12-.07,.18-.11,.06-.05,.11-.1,.16-.16,.49-.53,.49-1.44,.73-2.19-.19-.13-.38-.29-.58-.45-.45-.37-.92-.79-1.33-1.09,.56-.65,1.13-1.31,1.69-1.96,1.52-1.78,3.03-3.58,4.48-5.38,3.29-4.06,6.33-8.27,8.97-12.92,.96-1.7,.92-3.79,.58-5.72-.95-5.28-4.58-10.32-9.19-13.47-1.43-.97-2.95-1.76-4.53-2.32-2.93,9.92-8.06,19.04-13.13,28.06-3.25,5.75-6.48,11.52-9.73,17.27Z"/><path class="cls-18" d="M61.08,136.91c3.67,8.41,11.25,14.9,18.86,20.02,4.23,2.84,8.18,5.37,12.33,8.13,.67,.46,1.36,.91,2.05,1.38,.43-.6,.83-1.2,1.2-1.8-7.05-6.08-15.06-11.35-19.85-19.29-.65-1.07-1.24-2.16-.51-3.23,.29-.43,1.93-1.94,2.43-1.72,4.36,1.95,8.32,3.9,12.53,6.16-1.8-2.01-3.4-4.2-5-6.39-.73-.98-1.44-1.96-2.17-2.92-.04-.05-.08-.11-.12-.17,.2-.86,.33-1.74,.43-2.62,.12-1.02,.22-2.04,.36-3.05,.13-1.03,.33-2.04,.65-3.03-.09-.4,0-.37-.09-.78-2.87-.51-5.73-.63-8.61-1.14,1.68-5.45,3.63-11.55,5.31-17,1.47,.82,2.52,1.32,4.12,1.85-1.3-1.51-2.29-2.8-3.35-4.5,.8-.55,1.26-1.02,2.14-1.43,1.68-3.76,3.25-7.59,4.68-11.46-1.43-.97-2.95-1.76-4.53-2.32-2.93,9.92-8.06,19.04-13.13,28.06-3.25,5.75-6.48,11.52-9.73,17.27Z"/><path class="cls-13" d="M78.48,127.86c.96,1.82,1.85,3.68,2.77,5.53,.47,.94,.93,1.89,1.41,2.82,.29,.56,.78,1.48,1.55,1.32,.16-.03,.31-.12,.45-.22,.46-.34,.8-.82,1.13-1.29,1.74-2.53,3.36-5.28,3.75-8.33,.03-.27,.06-.55-.03-.8-.29-.8-1.23-.9-1.94-.8-1.03,.15-2.06,.29-3.08,.47-.53,.09-5.96,1.39-6,1.31Z"/><path class="cls-4" d="M126.17,179.51c.22-.01,.43-.04,.64-.06-.03-2.53-.08-5.06-.12-7.58-.02-.84-.03-1.69-.05-2.53-.41-.08-.83-.18-1.24-.27,.49,.11,.88,7.36,.78,10.44Z"/><path class="cls-4" d="M80.99,127.24c13.1-.86,26.29-.61,39.37,.76,1.28,5,2.55,10.01,3.83,15.01,.27,1.08,.77,1.91,1.35,2.23-.1-1.06-.22-2.1-.34-3.16-.61-5.28-1.5-10.51-2.65-15.7-13.91-.96-28-2.19-41.54,.86Z"/></g><g><path class="cls-6" d="M106.18,60.2c.13,.5,.28,.98,.41,1.46,2.34,7.97,6.82,15.63,15.49,17.78,.35,.09,.71,.18,1.07,.23,.03,.01,.07,.01,.1,.02,4.45,.77,9.11,.22,13.29-1.51,3.64-1.5,7.86-4.4,9.66-8.01,1.2-2.41,.08-6.02,1.25-8.45,1.7-3.53,3.48-7.02,5.35-10.46,.24-.47,.5-.92,.75-1.39,3.47-6.38,.92-15.04-2.6-21.4-3.53-6.35-9.63-11.21-16.61-13.22-2.62-.76-4.51-1.08-7.22-.75-4.99,.62-9.98,2.23-13.87,5.41-3.92,3.21-6.49,7.87-7.87,12.74-2.55,9.01-1.65,18.61,.79,27.55Z"/><path class="cls-5" d="M130.81,52.59c.67-.79,1.07-1.77,1.43-2.74,.65-1.78,1.21-3.61,1.66-5.45-1.64-.91-3.18-1.49-5.05-1.66,.64,3.23,1.55,6.59,1.97,9.85Z"/><path class="cls-5" d="M139.56,54.6c.63,.02,1.25-.17,1.85-.39,2.09-.74,4.11-1.68,6.03-2.8-.44-.81-1.04-1.42-1.87-1.83-.24-.12-.5-.22-.77-.21-.36,0-.7,.19-1,.39-1.74,1.17-3.1,3.07-4.24,4.83Z"/><path class="cls-5" d="M106.18,60.2c.13,.5,.28,.98,.41,1.46,2.34,7.97,6.82,15.63,15.49,17.78,.35,.09,.71,.18,1.07,.23-.88-.4-1.72-.89-2.48-1.49-2-1.59-3.32-3.86-4.17-6.24-.89-2.48-1.76-4.98-2.31-7.58-.81-3.83-1.5-7.98-.8-11.85,.69-3.79,2.88-5.82,6.2-7.54,2.35-1.21,4.87-2.05,7.34-3.01,4.62-1.77,8.77-4.15,13.03-6.69,4.8,4.88,9.11,10.24,12.85,15.98,.24-.47,.5-.92,.75-1.39,3.47-6.38,.92-15.04-2.6-21.4-3.53-6.35-9.63-11.21-16.61-13.22-2.62-.76-4.51-1.08-7.22-.75-4.99,.62-9.98,2.23-13.87,5.41-3.92,3.21-6.49,7.87-7.87,12.74-2.55,9.01-1.65,18.61,.79,27.55Z"/><path class="cls-15" d="M136.23,59.49c.11,1.69,.19,3.39,.67,5.01,.04-.03,.1,.04,.08,.09-.02,.05-.07,.08-.12,.1-.79,.32-1.93,.85-2.67,.44-1.55-.87-3.16-2.04-4.29-3.42-.29,.32-.59,.61-1,.73,.52,1.48,1.36,2.84,2.45,3.96,.3,.31,.57,.44,1,.47,1.09,.08,2.21,.03,3.26-.31,1.04-.34,1.81-.99,2.38-1.93-.46-1.7-.76-3.34-1.04-5.09,2.19-3.96,4.85-7.65,7.91-10.99-3.69,2.59-6.66,7.12-8.63,10.93Z"/><path class="cls-20" d="M122.52,42.58c2.35-.51,4.71-1.02,7.11-1.09,2.03-.05,3.71,.39,5.71,.71-.3,1.37-.93,2.66-1.83,3.73-2.1-.93-4.1-1.97-6.22-2.83-1.51-.62-3.15-.32-4.76-.52Z"/><path class="cls-20" d="M143.44,49.88c1.17-.88,2.15-2.02,2.85-3.31,2.47,2.26,4.01,5.16,4.22,8.5-.29-.52-.8-1.56-1.09-2.08-.96-1.68-4.11-2.63-5.97-3.12Z"/><path class="cls-2" d="M119.29,50.31c.31,1.44,.57,2.89,1.52,4,1.08,1.25,2.61,2.08,4.22,2.31,1.57,.22,4.06-.05,4.94-1.58,1.57-2.74,2.27-6.7-1.26-7.97l-.4-.12c-1.14-.32-2.36-.1-3.48,.25-1.82,.55-3.54,1.47-5.03,2.69-.17,.14-.35,.28-.51,.42Z"/><path class="cls-19" d="M119.8,49.88c.04,.52,.14,1.05,.33,1.54,.48,1.29,1.43,2.39,2.54,3.03,2.84,1.66,5.72-1.35,6.26-4.55,.17-.97,.12-1.96-.21-2.83l-.4-.12c-1.14-.32-2.36-.1-3.48,.25-1.82,.55-3.54,1.47-5.03,2.69Z"/><path class="cls-2" d="M139.65,61.12c2.11,1.28,4.78,.41,5.79-1.66,.22-.46,.42-.93,.53-1.42,.14-.66,.08-1.71-.2-2.72h0c-.38-1.33-1.12-2.55-2.29-2.66-.62-.07-1.2,.25-1.7,.61-.98,.7-1.81,1.6-2.44,2.6-.26,.42-.48,.85-.66,1.3-.53,1.34-.3,3.18,.98,3.96Z"/><path class="cls-19" d="M139.31,56.8c.05,.85,.32,1.72,.93,2.35,.61,.63,1.61,.95,2.45,.63,.62-.24,1.05-.77,1.44-1.31,.62-.86,1.32-2,1.64-3.17h0c-.38-1.33-1.12-2.55-2.29-2.66-.62-.07-1.2,.25-1.7,.61-.98,.7-1.81,1.6-2.44,2.6-.03,.31-.04,.62-.02,.94Z"/><g><path class="cls-14" d="M121.37,64.29c2.28,2.59,2.83,6.79,6.37,8.2,.36,.15,.78,.12,1.17,.1,2.42-.13,4.75-.43,7.05-1.14,.2-.06,.38-.12,.58-.19-1.07-.37-2.04-1-3.1-1.39-1.1-.41-2.29-.58-3.46-.49-.86-.82-1.69-1.23-2.74-1.79-1.02-.55-2.04-1.09-3.07-1.64-.89-.48-1.69-1.07-2.58-1.54l-.22-.12Z"/><path class="cls-14" d="M120.11,65.07c.02-.23,.2-.42,.41-.53s.44-.14,.67-.17c1-.14,2-.28,3-.19-.95-.51-1.75-.85-2.83-.76-.85,.07-1.78,.34-2.19,1.09-.03,.05-.06,.11-.05,.17,0,.13,.15,.21,.27,.23s.59,.1,.71,.15Z"/><path class="cls-10" d="M121.59,64.42c.27,.29,.54,.59,.79,.9,.49,.58,.97,1.06,1.51,1.58,1.19,1.17,2.34,2.31,3.83,3.13,2.6,1.42,5.39,1.08,8.24,1.43,.2-.06,.38-.12,.58-.19-1.07-.37-2.04-1-3.1-1.39-1.1-.41-2.29-.58-3.46-.49-.86-.82-1.69-1.23-2.74-1.79-1.02-.55-2.04-1.09-3.07-1.64-.89-.48-1.69-1.07-2.58-1.54Z"/></g><path class="cls-20" d="M137.44,15.7c.22,1.7,.4,3.39,.64,5.09,.25,1.69,.28,1.47,.93,3.06,2.27,5.56,5.75,10.48,8.83,15.59,2.64,4.41,4.61,8.94,6.17,13.74,.34,1.05,.66,2.11,.96,3.19,.56,1.99,1.13,3.99,1.35,6.05,.2,1.91,.1,3.84-.06,5.74-1.06,11.93-4.98,23.62-4.48,35.59-.08-1.84,1.11-4.33,1.44-6.18,.39-2.19,.68-4.39,.85-6.6,.32-4.24,2.16-8.18,3.19-12.32,1.7-6.74,1.78-13.76,1.29-20.64-.24-3.19-.79-6.4-.79-9.56,.01-3.22-.29-6.5-.74-9.69-.86-6.17-2.62-12.29-5.83-17.64-.83-1.4-1.93-2.37-3.43-3-2.12-.89-4.34-1.43-6.61-1.85-1.23-.22-2.48-.4-3.72-.59Z"/><path class="cls-20" d="M100.03,49.92c.02,.68,.05,1.36,.08,2.03,2.27-1.62,4.84-3.04,7.42-4.38,1.79-.93,3.59-1.82,5.3-2.72,7.69-4.02,14.78-9.09,21.84-14.15,1.5-1.08,2.75-2.56,4.17-3.74,.28-.92,.48-1.86,.6-2.81,.33-2.49,.13-5.05-.59-7.45-.76-2.53-3.49-4.07-5.57-5.72-.88-.69-1.86-.84-2.98-.8-4.48,.2-8.92,1.26-13.01,3.08-3.16,1.4-6.13,3.25-8.75,5.49-1.4,1.2-2.64,2.66-3.45,4.32-2.14,4.4-4.01,8.69-4.7,13.58-.61,4.4-.55,8.84-.37,13.26Z"/><path class="cls-20" d="M96.87,86.2c1.59-.3,3.46-.64,4.94-1.38,.12-.06,.25-.12,.36-.19-2-2.82-2.14-6.51-2.07-9.97,.1-6.22,1.98-11.84,5.19-16.76-.03,.12-.06,.25-.09,.36-1.63,6.92-1.69,14.18-.19,21.12-.41-3.02-.49-6.08-.25-9.1,.49-6.24,2.47-13.93,6.25-19.14,1.8-2.49,5.25-4.45,7.79-6.2,3.1-2.14,6.29-4.14,9.36-6.32,2.2-1.58,4.56-2.56,6.66-4.44,1.74-1.58,3.4-3.34,4.33-5.49,.5-1.14,.78-2.35,.96-3.59,.13-.84,.22-1.7,.3-2.54-.12,.23-.25,.45-.38,.66-.19,.32-.37,.63-.58,.94-3.01,4.71-7.26,8.36-12.23,11.02-3.31,1.76-6.79,3.14-10.33,4.35-1.81,.62-3.69,1.12-5.49,1.77-.45,.17-.85,.37-1.23,.61-.84,.51-1.57,1.16-2.39,1.81-2.57,2.03-5.32,3.95-7.73,6.19-1.25,1.16-2.43,2.39-3.44,3.78-3.17,4.3-4.72,10.32-5.33,15.56-.04,.36-.07,.72-.09,1.06-.38,6.05,1.96,11.07,5.7,15.87Z"/><path class="cls-11" d="M151.34,28.44c-2.41-2.32-5.1-4.34-8-6,.02,.57,.39,1.06,.74,1.5,1.78,2.32,3.3,4.84,4.5,7.51-1.35-1.26-2.7-2.52-4.04-3.78,.37,.35,.52,2.09,.71,2.64,.36,1.08,.92,2.03,1.37,3.07,.02,.04,.04,.09,.06,.15,.74,1.73,1.13,3.54,1.89,5.29,1.93,4.47,4,8.9,5.28,13.6,.07,.26,.13,.51,.2,.77,.34,1.05,.66,2.11,.96,3.19,.56,1.99,1.13,3.99,1.35,6.05,.2,1.91,.1,3.84-.06,5.74-1.06,11.93-4.98,23.62-4.48,35.59-.08-1.84,1.11-4.33,1.44-6.18,.39-2.19,.68-4.39,.85-6.6,.32-4.24,2.16-8.18,3.19-12.32,1.7-6.74,1.78-13.76,1.29-20.64-.24-3.19-.79-6.4-.79-9.56,.01-3.22-.29-6.5-.74-9.69-.86-6.17-2.62-12.29-5.83-17.64-.83-1.4-1.93-2.37-3.43-3-2.12-.89-4.34-1.43-6.61-1.85,.07,.41,.19,.84,.34,1.26,1.7,4.6,7.34,6.39,9.83,10.89Z"/><path class="cls-11" d="M99.63,82.22c.54,1.24,1.34,1.96,2.17,2.6,.12-.06,.25-.12,.36-.19-2-2.82-2.14-6.51-2.07-9.97,.1-6.22,1.98-11.84,5.19-16.76-.03,.12-.06,.25-.09,.36-1.63,6.92-1.69,14.18-.19,21.12-.41-3.02-.49-6.08-.25-9.1,.49-6.24,2.47-13.93,6.25-19.14,1.8-2.49,5.25-4.45,7.79-6.2,3.1-2.14,6.29-4.14,9.36-6.32,2.2-1.58,4.56-2.56,6.66-4.44,1.44-1.3,3.46-3.04,4.37-4.78,1.81-3.45,.73-9.16-.33-12.69-.76-2.53-3.49-4.07-5.57-5.72-.88-.69-1.86-.84-2.98-.8-4.48,.2-8.92,1.26-13.01,3.08-1.38,1.69-2.55,3.55-3.46,5.54,.65-.22,.95-.92,1.65-1,3.29-.35,6.59-.71,9.89-.43,3.3,.28,6.61,1.24,9.23,3.28-6.95,.02-14.23,.49-20.39,4.04-.89,.51-1.78,1.1-2.34,1.96,3.83-1.02,7.69-1.94,11.57-2.74,3.35-.69,7.02-1.72,10.13,.07-8.27,3.16-16.83,6.5-22.96,12.89-.87,.91-1.73,1.96-1.81,3.26,1.51-1.66,4.26-2.42,6.16-3.65,2.94-1.89,5.88-3.78,8.83-5.67-2.72,1.9-5.32,3.97-7.77,6.2-3.37,3.07-6.67,6.37-8.5,10.56-1.18,2.71-2.44,5.37-4.24,7.6-6.04,7.42-7.52,18.28-3.66,27.04Z"/></g><path class="cls-18" d="M150.86,198.14c-4.96,3.03-9.92,6.06-14.89,9.09-.57,.35-1.16,.71-1.53,1.26-.35,.52-.48,1.17-.59,1.79-.93,5.05-1.28,11.9-2.21,16.95,5.7-9.41,11.97-18.48,18.76-27.14l.45-1.95Z"/><path class="cls-18" d="M139.81,199.73c-2.95,2.16-5.5,6.18-5.73,9.83,7.11-5.56,15.16-11.73,19-20.12-4.42,3.53-8.72,7-13.28,10.29Z"/></g></g></g></svg>