<svg xmlns="http://www.w3.org/2000/svg" width="131.542" height="195.383" viewBox="0 0 131.542 195.383">
  <g id="Grupo_83464" data-name="Grupo 83464" transform="translate(-1969 8868.493)">
    <text id="Para_recordar" data-name="Para recordar" transform="translate(1983.535 -8678.11)" fill="#12263f" font-size="18" font-family="Roboto-Black, Roboto" font-weight="800"><tspan x="0" y="0">Para recordar</tspan></text>
    <g id="Page-1" transform="translate(1969 -8868.477)">
      <g id="_061---tip-alert" data-name="061---tip-alert" transform="translate(0 -0.017)">
        <g id="color" transform="translate(2.53 2.51)">
          <path id="Shape" d="M126.483,22.119v68.3a10.119,10.119,0,0,1-10.119,10.119h-25.3a5.059,5.059,0,0,0-4.047,2.024L67.137,129.072a5.059,5.059,0,0,1-7.791,0L39.463,102.562a5.059,5.059,0,0,0-4.047-2.024h-25.3A10.119,10.119,0,0,1,0,90.419v-68.3A10.119,10.119,0,0,1,10.119,12H28.636a35.567,35.567,0,0,0,10.27,33.265A30.508,30.508,0,0,1,48.063,67.5V82.83a7.589,7.589,0,0,0,7.589,7.589H70.83a7.589,7.589,0,0,0,7.589-7.589V67.071a29.47,29.47,0,0,1,9.006-21.654A35.238,35.238,0,0,0,98.656,19.589,35.77,35.77,0,0,0,97.847,12h18.517a10.119,10.119,0,0,1,10.119,10.119Z" transform="translate(0 15.889)" fill="#e91e63"/>
          <g id="Grupo_83462" data-name="Grupo 83462" transform="translate(20.25 27.889)">
            <path id="Shape-2" data-name="Shape" d="M19.072,45.265A30.508,30.508,0,0,1,28.23,67.5V82.83a7.589,7.589,0,0,0,7.589,7.589h7.589a7.589,7.589,0,0,1-7.589-7.589V67.5a30.508,30.508,0,0,0-9.157-22.236A35.567,35.567,0,0,1,16.391,12H8.8a35.567,35.567,0,0,0,10.27,33.265Z" transform="translate(-8.005 -12)" fill="#ad1457"/>
            <path id="Shape-3" data-name="Shape" d="M50.589,12H43A10.119,10.119,0,0,1,53.119,22.119v68.3A10.119,10.119,0,0,1,43,100.538h7.589A10.119,10.119,0,0,0,60.708,90.419v-68.3A10.119,10.119,0,0,0,50.589,12Z" transform="translate(45.525 -12)" fill="#ad1457"/>
            <path id="Shape-4" data-name="Shape" d="M43.423,49.024,23.54,75.534a5.059,5.059,0,0,0,7.589,0L51.012,49.024A5.059,5.059,0,0,1,55.059,47H47.471a5.059,5.059,0,0,0-4.047,2.024Z" transform="translate(15.758 41.538)" fill="#ad1457"/>
          </g>
          <path id="Shape-5" data-name="Shape" d="M81.823,36.453A35.238,35.238,0,0,1,70.591,62.281a29.47,29.47,0,0,0-9.006,21.654v5.641H31.229V84.365a30.508,30.508,0,0,0-9.157-22.236,35.417,35.417,0,1,1,59.75-25.676Z" transform="translate(16.834 -0.975)" fill="#ffeb3a"/>
          <path id="Shape-6" data-name="Shape" d="M61.931,28.852A35.415,35.415,0,0,0,25.6,1.026,8.621,8.621,0,0,0,23.48,1.2,35.415,35.415,0,0,1,43.92,62.218a29.47,29.47,0,0,0-9.006,21.7v5.641H42.5V83.922a29.47,29.47,0,0,1,9.006-21.654A35.238,35.238,0,0,0,62.74,36.441a35.769,35.769,0,0,0-.809-7.589Z" transform="translate(35.916 -0.963)" fill="#fdd834"/>
          <path id="Shape-7" data-name="Shape" d="M49.356,36V46.119a7.589,7.589,0,0,1-7.589,7.589H26.589A7.589,7.589,0,0,1,19,46.119V36Z" transform="translate(29.063 52.601)" fill="#f5f5f5"/>
          <path id="Shape-8" data-name="Shape" d="M32.589,36V46.119A7.589,7.589,0,0,1,25,53.708h7.589a7.589,7.589,0,0,0,7.589-7.589V36Z" transform="translate(38.241 52.601)" fill="#cfd8dc"/>
          <path id="Shape-9" data-name="Shape" d="M17.562,25.293h-.481a2.53,2.53,0,0,1-2.049-3.01A24.74,24.74,0,0,1,29.2,5.258a2.53,2.53,0,1,1,1.923,4.655s-9.259,4.022-11.029,13.331a2.53,2.53,0,0,1-2.53,2.049Z" transform="translate(22.912 5.125)" fill="#f5f5f5"/>
        </g>
        <g id="Icons">
          <path id="Shape-10" data-name="Shape" d="M0,41.5v68.3a12.648,12.648,0,0,0,12.648,12.648h25.3a2.53,2.53,0,0,1,2.024,1.012l19.959,26.612a7.589,7.589,0,0,0,11.763,0l19.883-26.612a2.53,2.53,0,0,1,2.024-1.012h25.3A12.648,12.648,0,0,0,131.542,109.8V41.5a12.648,12.648,0,0,0-12.648-12.648H102.324a37.923,37.923,0,0,0-73.132,0H12.648A12.648,12.648,0,0,0,0,41.5ZM64.177,6.085A32.886,32.886,0,0,1,88.234,62.927a32.051,32.051,0,0,0-9.815,23.526v3.111h-25.3V86.882A33.063,33.063,0,0,0,43.156,62.8,32.885,32.885,0,0,1,64.177,6.085ZM73.36,107.271H58.182a5.059,5.059,0,0,1-5.059-5.059V94.623h25.3v7.589A5.059,5.059,0,0,1,73.36,107.271ZM5.059,41.5a7.589,7.589,0,0,1,7.589-7.589H28.206c0,.531-.177,1.062-.228,1.594A37.945,37.945,0,0,0,39.69,66.493a28.028,28.028,0,0,1,8.373,20.389v15.33a10.119,10.119,0,0,0,7.589,9.764v2.884a2.53,2.53,0,1,0,5.059,0v-2.53H70.83v2.53a2.53,2.53,0,1,0,5.059,0v-2.884a10.119,10.119,0,0,0,7.589-9.764V86.452A26.991,26.991,0,0,1,91.7,66.645a37.287,37.287,0,0,0,11.636-32.734h15.557a7.589,7.589,0,0,1,7.589,7.589v68.3a7.589,7.589,0,0,1-7.589,7.589H93.6a7.589,7.589,0,0,0-6.071,3.036l-19.807,26.41a2.681,2.681,0,0,1-3.82,0l-19.883-26.41a7.589,7.589,0,0,0-6.071-3.036h-25.3A7.589,7.589,0,0,1,5.059,109.8Z" transform="translate(0 -0.983)"/>
          <path id="Shape-11" data-name="Shape" d="M25.53,29A2.53,2.53,0,0,0,23,31.53v7.589a2.53,2.53,0,0,0,5.059,0V31.53A2.53,2.53,0,0,0,25.53,29Z" transform="translate(35.182 41.873)"/>
          <path id="Shape-12" data-name="Shape" d="M23,28.059a2.53,2.53,0,1,0,5.059,0V25.53a2.53,2.53,0,0,0-5.059,0Z" transform="translate(35.182 32.695)"/>
          <path id="Shape-13" data-name="Shape" d="M29.53,41.648a2.53,2.53,0,0,0,2.53-2.53V31.53a2.53,2.53,0,0,0-5.059,0v7.589A2.53,2.53,0,0,0,29.53,41.648Z" transform="translate(41.301 41.873)"/>
          <path id="Shape-14" data-name="Shape" d="M29.53,30.589a2.53,2.53,0,0,0,2.53-2.53V25.53a2.53,2.53,0,0,0-5.059,0v2.53A2.53,2.53,0,0,0,29.53,30.589Z" transform="translate(41.301 32.695)"/>
          <path id="Shape-15" data-name="Shape" d="M19.17,17.17a2.522,2.522,0,0,0,1.568-4.5L8.09,2.549A2.521,2.521,0,0,0,4.954,6.5L17.6,16.614a2.53,2.53,0,0,0,1.568.557Z" transform="translate(6.126 0.58)"/>
          <path id="Shape-16" data-name="Shape" d="M45.1,16.614,57.746,6.5a2.521,2.521,0,0,0-3.137-3.946L41.961,12.667A2.521,2.521,0,1,0,45.1,16.614Z" transform="translate(62.716 0.58)"/>
          <path id="Shape-17" data-name="Shape" d="M4.556,45.323A2.522,2.522,0,0,0,8.1,45.7L20.746,35.584a2.53,2.53,0,1,0-3.137-3.946L4.961,41.756a2.53,2.53,0,0,0-.4,3.567Z" transform="translate(6.119 44.852)"/>
          <path id="Shape-18" data-name="Shape" d="M54.508,45.541a2.521,2.521,0,1,0,3.137-3.946L45,31.476a2.53,2.53,0,0,0-3.137,3.946Z" transform="translate(62.817 45.013)"/>
          <path id="Shape-19" data-name="Shape" d="M6.53,22.059h7.589a2.53,2.53,0,1,0,0-5.059H6.53a2.53,2.53,0,1,0,0,5.059Z" transform="translate(6.119 23.517)"/>
          <path id="Shape-20" data-name="Shape" d="M45.53,22.059h7.589a2.53,2.53,0,1,0,0-5.059H45.53a2.53,2.53,0,1,0,0,5.059Z" transform="translate(65.775 23.517)"/>
        </g>
      </g>
    </g>
  </g>
</svg>
