<svg xmlns="http://www.w3.org/2000/svg" width="114.881" height="102.761" viewBox="0 0 114.881 102.761">
  <g id="www" transform="translate(0 -0.5)">
    <path id="Trazado_116687" data-name="Trazado 116687" d="M102.892,53.58h10.77a6.731,6.731,0,0,0,6.731-6.731V17.231a6.731,6.731,0,0,0-6.731-6.731H16.731A6.731,6.731,0,0,0,10,17.231V46.849a6.731,6.731,0,0,0,6.731,6.731Zm0,0" transform="translate(-7.757 -7.756)" fill="#ffc66c"/>
    <path id="Trazado_116688" data-name="Trazado 116688" d="M378.094,332.18l18.643,18.643a5.364,5.364,0,1,0,7.587-7.586l-18.643-18.644Zm0,0" transform="translate(-293.259 -251.375)" fill="#ff5d5d"/>
    <path id="Trazado_116689" data-name="Trazado 116689" d="M243.854,163.425A26.925,26.925,0,1,1,216.929,136.5,26.925,26.925,0,0,1,243.854,163.425Zm0,0" transform="translate(-147.372 -105.485)" fill="#fff"/>
    <path id="Trazado_116690" data-name="Trazado 116690" d="M267.007,196a17.5,17.5,0,1,1-17.5-17.5A17.5,17.5,0,0,1,267.007,196Zm0,0" transform="translate(-179.948 -138.061)" fill="#72d8ff"/>
    <path id="Trazado_116691" data-name="Trazado 116691" d="M241.749,168.5a19.745,19.745,0,1,0,19.745,19.745A19.767,19.767,0,0,0,241.749,168.5Zm0,35a15.258,15.258,0,1,1,15.258-15.258A15.275,15.275,0,0,1,241.749,203.5Zm0,0" transform="translate(-172.192 -130.305)"/>
    <path id="Trazado_116692" data-name="Trazado 116692" d="M302.248,211.5a2.244,2.244,0,0,0,0,4.488,5.615,5.615,0,0,1,5.609,5.609,2.244,2.244,0,1,0,4.488,0A10.107,10.107,0,0,0,302.248,211.5Zm0,0" transform="translate(-232.691 -163.66)"/>
    <path id="Trazado_116693" data-name="Trazado 116693" d="M47,71.709a2.244,2.244,0,1,0-3.985,2.063l6.04,11.668a2.243,2.243,0,0,0,4.015-.06l3.657-7.613L60.7,85.44a2.246,2.246,0,0,0,1.993,1.212h.033a2.246,2.246,0,0,0,1.99-1.273l5.6-11.668A2.244,2.244,0,1,0,66.27,71.77l-3.657,7.613-3.972-7.673a2.243,2.243,0,0,0-4.015.06L50.97,79.383Zm0,0" transform="translate(-33.167 -54.291)"/>
    <path id="Trazado_116694" data-name="Trazado 116694" d="M118.232,4.988a2.244,2.244,0,0,0,1.586-3.83,2.243,2.243,0,1,0-3.172,3.173A2.26,2.26,0,0,0,118.232,4.988Zm0,0" transform="translate(-89.963)"/>
    <path id="Trazado_116695" data-name="Trazado 116695" d="M114.88,39.093V9.475A8.986,8.986,0,0,0,105.905.5H37.692a2.244,2.244,0,1,0,0,4.488h68.213a4.493,4.493,0,0,1,4.488,4.488V39.093a4.493,4.493,0,0,1-4.488,4.488H95.135c-.065,0-.128,0-.191.01A29.325,29.325,0,0,0,79.172,30.4L82.5,23.477l3.972,7.673a2.242,2.242,0,0,0,1.992,1.212H88.5a2.245,2.245,0,0,0,1.989-1.273l5.6-11.668a2.244,2.244,0,0,0-4.045-1.942l-3.656,7.613-3.972-7.673a2.244,2.244,0,0,0-4.015.06l-3.657,7.613-3.971-7.673a2.244,2.244,0,0,0-3.986,2.063l4.966,9.593a29.214,29.214,0,0,0-12.155.8l5.021-10.455a2.244,2.244,0,0,0-4.045-1.942l-3.657,7.613-3.972-7.673a2.244,2.244,0,0,0-4.015.06l-3.656,7.613L43.3,17.419a2.244,2.244,0,0,0-3.985,2.063l6.04,11.668a2.243,2.243,0,0,0,4.015-.06l3.657-7.612L57,31.149a2.191,2.191,0,0,0,.237.357A29.364,29.364,0,0,0,44.176,43.58H8.975a4.493,4.493,0,0,1-4.488-4.488V9.475A4.493,4.493,0,0,1,8.975,4.988h9.2a2.244,2.244,0,0,0,0-4.488h-9.2A8.986,8.986,0,0,0,0,9.475V39.093a8.985,8.985,0,0,0,8.975,8.975H42.11a29.162,29.162,0,0,0,41.974,35.16l17.808,17.808a7.608,7.608,0,1,0,10.76-10.76l-7-7a2.244,2.244,0,1,0-3.173,3.173l7,7a3.121,3.121,0,0,1-4.413,4.414L87.847,80.644A29.142,29.142,0,0,0,97,48.068h8.9a8.985,8.985,0,0,0,8.975-8.975ZM69.557,82.622A24.681,24.681,0,1,1,94.239,57.94,24.71,24.71,0,0,1,69.557,82.622Zm0,0"/>
    <path id="Trazado_116696" data-name="Trazado 116696" d="M430.748,343.439a2.243,2.243,0,1,0,1.586-.657A2.26,2.26,0,0,0,430.748,343.439Zm0,0" transform="translate(-333.589 -265.482)"/>
  </g>
</svg>
