<svg xmlns="http://www.w3.org/2000/svg" width="126.071" height="223.229" viewBox="0 0 126.071 223.229">
  <g id="Grupo_83414" data-name="Grupo 83414" transform="translate(-1969 11036.58)">
    <g id="vocabulario" transform="translate(1934.65 -11037.023)">
      <path id="Trazado_116737" data-name="Trazado 116737" d="M150.28,184.51v39.517H79.457V204.265H58.046v19.762H56.612a19.464,19.464,0,0,1-3.278-.276,19.757,19.757,0,0,1,3.278-39.241Z" transform="translate(-0.817 -60.172)" fill="#f2e1d6"/>
      <path id="Trazado_116738" data-name="Trazado 116738" d="M61.34,213.87h4.712v19.755H64.618a19.464,19.464,0,0,1-3.278-.276Z" transform="translate(-8.823 -69.77)" fill="#d6c0b4"/>
      <path id="Trazado_116739" data-name="Trazado 116739" d="M100.15,213.87h4.712v19.755H100.15Z" transform="translate(-21.51 -69.77)" fill="#d6c0b4"/>
      <path id="Trazado_116740" data-name="Trazado 116740" d="M169.153,6.6v114.89a3.663,3.663,0,0,1-3.661,3.661H66.214V2.942h99.277A3.664,3.664,0,0,1,169.153,6.6Z" transform="translate(-10.417 -0.817)" fill="#fc5d3d"/>
      <path id="Trazado_116741" data-name="Trazado 116741" d="M92.077,69.131A8.086,8.086,0,0,1,84,61.054V28.577A8.086,8.086,0,0,1,92.077,20.5h62.766a8.086,8.086,0,0,1,8.077,8.077V61.054a8.086,8.086,0,0,1-8.077,8.077Z" transform="translate(-16.231 -6.557)" fill="#b25035"/>
      <path id="Trazado_116742" data-name="Trazado 116742" d="M157.132,66.708H94.365A3.366,3.366,0,0,1,91,63.342V30.865A3.366,3.366,0,0,1,94.365,27.5h62.766a3.366,3.366,0,0,1,3.365,3.365V63.342A3.366,3.366,0,0,1,157.132,66.708Z" transform="translate(-18.519 -8.845)" fill="#efefef"/>
      <path id="Trazado_116743" data-name="Trazado 116743" d="M150.278,184.51v6.217H56.616a19.77,19.77,0,0,0-19.521,16.648,20.084,20.084,0,0,1-.242-3.108A19.762,19.762,0,0,1,56.616,184.51Z" transform="translate(-0.818 -60.172)" fill="#d6c0b4"/>
      <path id="Trazado_116744" data-name="Trazado 116744" d="M214.643,179.072v39.52a3.66,3.66,0,0,1-3.659,3.659H205.37v-39.52h5.614A3.66,3.66,0,0,0,214.643,179.072Z" transform="translate(-55.907 -58.395)" fill="#b25035"/>
      <path id="Trazado_116745" data-name="Trazado 116745" d="M56.615,2.942V125.154A19.762,19.762,0,0,0,36.852,144.91V22.705A19.764,19.764,0,0,1,56.615,2.942Z" transform="translate(-0.818 -0.817)" fill="#afafaf"/>
      <path id="Trazado_116746" data-name="Trazado 116746" d="M89.752,213.861v24.307a2.073,2.073,0,0,1-3.468,1.532l-7.239-6.6-7.239,6.6a2.073,2.073,0,0,1-3.468-1.532V213.861Z" transform="translate(-11.111 -69.767)" fill="#72c2e9"/>
      <path id="Trazado_116747" data-name="Trazado 116747" d="M68.34,213.86H89.751v6.058H68.34Z" transform="translate(-11.112 -69.767)" fill="#4ba5c8"/>
      <path id="Trazado_116748" data-name="Trazado 116748" d="M208.068,122.467a1.683,1.683,0,0,1-1.683-1.683v-2.019a1.683,1.683,0,0,1,3.365,0v2.019A1.682,1.682,0,0,1,208.068,122.467Zm0-8.75a1.683,1.683,0,0,1-1.683-1.683V12.388a1.683,1.683,0,0,1,3.365,0v99.646A1.683,1.683,0,0,1,208.068,113.717Z" transform="translate(-56.239 -3.355)" fill="#ffcbc3"/>
      <path id="Trazado_116749" data-name="Trazado 116749" d="M120.212,63.065a1.683,1.683,0,0,0,1.683-1.683V47.188a9.168,9.168,0,1,0-18.335,0v14.2a1.683,1.683,0,1,0,3.365,0,.007.007,0,0,0-.007-.007v-8.07H118.53v8.077a1.683,1.683,0,0,0,1.683,1.682ZM106.919,49.94V47.187a5.805,5.805,0,0,1,11.611,0V49.94Z" transform="translate(-22.625 -12.284)"/>
      <path id="Trazado_116750" data-name="Trazado 116750" d="M156.13,63.065H171.1a1.683,1.683,0,1,0,0-3.365H159.334l13.152-19.042a1.681,1.681,0,0,0-1.387-2.639H156.13a1.683,1.683,0,1,0,0,3.365H167.9L154.743,60.426a1.683,1.683,0,0,0,1.387,2.639Z" transform="translate(-39.259 -12.284)"/>
      <path id="Trazado_116751" data-name="Trazado 116751" d="M145.21,55.729h-5.055a1.683,1.683,0,0,0,0,3.365h5.055a1.683,1.683,0,0,0,0-3.365Z" transform="translate(-34.04 -18.073)"/>
      <path id="Trazado_116752" data-name="Trazado 116752" d="M93.548,67.573H120.64a1.683,1.683,0,0,0,0-3.365H93.548a1.684,1.684,0,0,1-1.683-1.683V30.048a1.684,1.684,0,0,1,1.683-1.683h62.766A1.684,1.684,0,0,1,158,30.048V62.525a1.684,1.684,0,0,1-1.683,1.683H134.1a1.683,1.683,0,1,0,0,3.365h22.212a5.053,5.053,0,0,0,5.048-5.048V30.048A5.053,5.053,0,0,0,156.314,25H93.548A5.054,5.054,0,0,0,88.5,30.048V62.525A5.054,5.054,0,0,0,93.548,67.573Z" transform="translate(-17.702 -8.028)"/>
      <circle id="Elipse_4784" data-name="Elipse 4784" cx="1.683" cy="1.683" r="1.683" transform="translate(107.987 56.18)"/>
      <path id="Trazado_116753" data-name="Trazado 116753" d="M126.333,225.029a1.683,1.683,0,1,0,1.683,1.683,1.683,1.683,0,0,0-1.683-1.683Z" transform="translate(-29.52 -73.418)"/>
      <circle id="Elipse_4785" data-name="Elipse 4785" cx="1.683" cy="1.683" r="1.683" transform="translate(34.35 51.542)"/>
      <path id="Trazado_116754" data-name="Trazado 116754" d="M160.42,5.785c0-.009,0-.018,0-.027A5.349,5.349,0,0,0,155.075.443H55.8A21.47,21.47,0,0,0,34.353,21.859c0,.009,0,.018,0,.027V46.494c0,.01,0,.019,0,.029s0,.026,0,.038a1.683,1.683,0,1,0,3.365,0,18.1,18.1,0,0,1,16.4-18v29.8a21.455,21.455,0,0,0-16.4,9.865V59.955a1.683,1.683,0,0,0-3.365,0v84.137s0,0,0,0a21.362,21.362,0,0,0,21.194,21.431V168.4a3.755,3.755,0,0,0,6.284,2.775l6.106-5.564,6.1,5.564a3.755,3.755,0,0,0,6.285-2.775v-2.863l74.751,0a5.349,5.349,0,0,0,5.342-5.342c0-11.969,0-124.165,0-129.508a1.683,1.683,0,0,0-3.365,0v89.962c0,.009,0,.017,0,.026a1.979,1.979,0,0,1-1.977,1.977H57.48V3.808h97.595a1.98,1.98,0,0,1,1.978,1.978s0,.009,0,.013V17.228a1.683,1.683,0,0,0,3.365,0ZM37.715,35.052V21.908c0-.007,0-.013,0-.02a18.1,18.1,0,0,1,16.4-18v21.3A21.453,21.453,0,0,0,37.715,35.052Zm0,97.527V112.939c0-.007,0-.013,0-.02a18.1,18.1,0,0,1,16.4-18v27.8A21.518,21.518,0,0,0,37.715,132.58Zm0-52.84a18.1,18.1,0,0,1,16.4-18V91.546a21.455,21.455,0,0,0-16.4,9.865V79.759c0-.007,0-.013,0-.02Zm38.589,88.948-7.238-6.6a1.683,1.683,0,0,0-2.267,0l-7.239,6.6a.387.387,0,0,1-.652-.288c0-7.842,0,4.023,0-22.618H76.957c0,16.9,0,20.7,0,22.618A.387.387,0,0,1,76.307,168.688Zm4.018-13.712h9.758a1.683,1.683,0,1,0,0-3.365H80.324v-5.828h67.455v5.828H103.543a1.683,1.683,0,1,0,0,3.365h44.236v7.2H80.324Zm76.728,5.221a1.979,1.979,0,0,1-1.977,1.977h-3.93V126.02h3.93a5.6,5.6,0,0,0,1.978-.38Zm-9.273-34.177v7.2h-87.1a1.683,1.683,0,0,0,0,3.365h87.1v5.834h-98.1a1.683,1.683,0,1,0,0,3.365h5.868V162.17A18.023,18.023,0,0,1,37.716,144.1s0-.007,0-.011A18.1,18.1,0,0,1,55.8,126.02h91.982Z" transform="translate(0 0)"/>
      <circle id="Elipse_4786" data-name="Elipse 4786" cx="1.683" cy="1.683" r="1.683" transform="translate(157.055 22.276)"/>
    </g>
    <text id="Vocabulary" transform="translate(1991.535 -10818.351)" fill="#12263f" font-size="18" font-family="Roboto-Black, Roboto" font-weight="800"><tspan x="0" y="0">Vocabulary</tspan></text>
  </g>
</svg>
