<svg xmlns="http://www.w3.org/2000/svg" width="505" height="142" viewBox="0 0 505 142">
  <g id="Grupo_84011" data-name="Grupo 84011" transform="translate(6006 3646)">
    <rect id="Rectángulo_34288" data-name="Rectángulo 34288" width="85" height="33" rx="10" transform="translate(-6006 -3607)" fill="#6b8dff"/>
    <g id="Rectángulo_34289" data-name="Rectángulo 34289" transform="translate(-6006 -3565)" fill="#fff" stroke="#ff5f65" stroke-width="1">
      <rect width="85" height="27" rx="10" stroke="none"/>
      <rect x="0.5" y="0.5" width="84" height="26" rx="9.5" fill="none"/>
    </g>
    <g id="Rectángulo_34290" data-name="Rectángulo 34290" transform="translate(-6006 -3533)" fill="#fff" stroke="#ff5f65" stroke-width="1">
      <rect width="85" height="27" rx="10" stroke="none"/>
      <rect x="0.5" y="0.5" width="84" height="26" rx="9.5" fill="none"/>
    </g>
    <rect id="Rectángulo_34291" data-name="Rectángulo 34291" width="85" height="33" rx="10" transform="translate(-5796 -3607)" fill="#6b8dff"/>
    <rect id="Rectángulo_34300" data-name="Rectángulo 34300" width="85" height="33" rx="10" transform="translate(-5901 -3607)" fill="#6b8dff"/>
    <g id="Rectángulo_34292" data-name="Rectángulo 34292" transform="translate(-5796 -3565)" fill="#fff" stroke="#ff5f65" stroke-width="1">
      <rect width="85" height="27" rx="10" stroke="none"/>
      <rect x="0.5" y="0.5" width="84" height="26" rx="9.5" fill="none"/>
    </g>
    <g id="Rectángulo_34301" data-name="Rectángulo 34301" transform="translate(-5901 -3565)" fill="#fff" stroke="#ff5f65" stroke-width="1">
      <rect width="85" height="27" rx="10" stroke="none"/>
      <rect x="0.5" y="0.5" width="84" height="26" rx="9.5" fill="none"/>
    </g>
    <g id="Rectángulo_34293" data-name="Rectángulo 34293" transform="translate(-5796 -3533)" fill="#fff" stroke="#ff5f65" stroke-width="1">
      <rect width="85" height="27" rx="10" stroke="none"/>
      <rect x="0.5" y="0.5" width="84" height="26" rx="9.5" fill="none"/>
    </g>
    <g id="Rectángulo_34302" data-name="Rectángulo 34302" transform="translate(-5901 -3533)" fill="#fff" stroke="#ff5f65" stroke-width="1">
      <rect width="85" height="27" rx="10" stroke="none"/>
      <rect x="0.5" y="0.5" width="84" height="26" rx="9.5" fill="none"/>
    </g>
    <rect id="Rectángulo_34294" data-name="Rectángulo 34294" width="190" height="33" rx="10" transform="translate(-5691 -3607)" fill="#6b8dff"/>
    <g id="Rectángulo_34295" data-name="Rectángulo 34295" transform="translate(-5691 -3565)" fill="#fff" stroke="#ff5f65" stroke-width="1">
      <rect width="190" height="27" rx="10" stroke="none"/>
      <rect x="0.5" y="0.5" width="189" height="26" rx="9.5" fill="none"/>
    </g>
    <g id="Rectángulo_34296" data-name="Rectángulo 34296" transform="translate(-5691 -3533)" fill="#fff" stroke="#ff5f65" stroke-width="1">
      <rect width="190" height="27" rx="10" stroke="none"/>
      <rect x="0.5" y="0.5" width="189" height="26" rx="9.5" fill="none"/>
    </g>
    <text id="Estructura" transform="translate(-6006 -3627)" fill="#12263f" font-size="18" font-family="Roboto-Black, Roboto" font-weight="800"><tspan x="0" y="0">Estructura</tspan></text>
    <text id="auxiliar" transform="translate(-5963 -3585)" fill="#fff" font-size="16" font-family="Roboto-Regular, Roboto"><tspan x="-25.609" y="0">auxiliar</tspan></text>
    <text id="Do" transform="translate(-5963 -3546)" fill="#ff5f65" font-size="16" font-family="Roboto-BoldItalic, Roboto" font-weight="700" font-style="italic"><tspan x="-9.508" y="0">Do</tspan></text>
    <text id="Does" transform="translate(-5963 -3514)" fill="#ff5f65" font-size="16" font-family="Roboto-BoldItalic, Roboto" font-weight="700" font-style="italic"><tspan x="-17.77" y="0">Does</tspan></text>
    <text id="live" transform="translate(-5753 -3546)" fill="#ff5f65" font-size="16" font-family="Roboto-BoldItalic, Roboto" font-weight="700" font-style="italic"><tspan x="-12.391" y="0">live</tspan></text>
    <text id="I" transform="translate(-5858 -3546)" fill="#ff5f65" font-size="16" font-family="Roboto-BoldItalic, Roboto" font-weight="700" font-style="italic"><tspan x="-2.301" y="0">I</tspan></text>
    <text id="live-2" data-name="live" transform="translate(-5752 -3514)" fill="#ff5f65" font-size="16" font-family="Roboto-BoldItalic, Roboto" font-weight="700" font-style="italic"><tspan x="-12.391" y="0">live</tspan></text>
    <text id="he" transform="translate(-5858 -3514)" fill="#ff5f65" font-size="16" font-family="Roboto-BoldItalic, Roboto" font-weight="700" font-style="italic"><tspan x="-8.617" y="0">he</tspan></text>
    <text id="in_Colombia_" data-name="in Colombia?" transform="translate(-5596 -3546)" fill="#ff5f65" font-size="16" font-family="Roboto-BoldItalic, Roboto" font-weight="700" font-style="italic"><tspan x="-45.883" y="0">in Colombia?</tspan></text>
    <text id="in_Colombia_2" data-name="in Colombia?" transform="translate(-5596 -3514)" fill="#ff5f65" font-size="16" font-family="Roboto-BoldItalic, Roboto" font-weight="700" font-style="italic"><tspan x="-45.883" y="0">in Colombia?</tspan></text>
    <text id="verbo" transform="translate(-5753 -3585)" fill="#fff" font-size="16" font-family="Roboto-Regular, Roboto"><tspan x="-19.871" y="0">verbo</tspan></text>
    <text id="sujeto" transform="translate(-5858 -3585)" fill="#fff" font-size="16" font-family="Roboto-Regular, Roboto"><tspan x="-21.781" y="0">sujeto</tspan></text>
    <text id="complemento" transform="translate(-5596 -3585)" fill="#fff" font-size="16" font-family="Roboto-Regular, Roboto"><tspan x="-49.191" y="0">complemento</tspan></text>
    <text id="_" data-name="+" transform="translate(-5918 -3583)" fill="#ff5f65" font-size="24" font-family="Roboto-Black, Roboto" font-weight="800"><tspan x="0" y="0">+</tspan></text>
    <text id="_2" data-name="+" transform="translate(-5918 -3542)" fill="#3c3fa7" font-size="24" font-family="Roboto-Black, Roboto" font-weight="800"><tspan x="0" y="0">+</tspan></text>
    <text id="_3" data-name="+" transform="translate(-5918 -3511)" fill="#3c3fa7" font-size="24" font-family="Roboto-Black, Roboto" font-weight="800"><tspan x="0" y="0">+</tspan></text>
    <text id="_4" data-name="+" transform="translate(-5707 -3583)" fill="#ff5f65" font-size="24" font-family="Roboto-Black, Roboto" font-weight="800"><tspan x="0" y="0">+</tspan></text>
    <text id="_5" data-name="+" transform="translate(-5812 -3583)" fill="#ff5f65" font-size="24" font-family="Roboto-Black, Roboto" font-weight="800"><tspan x="0" y="0">+</tspan></text>
    <text id="_6" data-name="+" transform="translate(-5707 -3542)" fill="#3c3fa7" font-size="24" font-family="Roboto-Black, Roboto" font-weight="800"><tspan x="0" y="0">+</tspan></text>
    <text id="_7" data-name="+" transform="translate(-5812 -3542)" fill="#3c3fa7" font-size="24" font-family="Roboto-Black, Roboto" font-weight="800"><tspan x="0" y="0">+</tspan></text>
    <text id="_8" data-name="+" transform="translate(-5707 -3511)" fill="#3c3fa7" font-size="24" font-family="Roboto-Black, Roboto" font-weight="800"><tspan x="0" y="0">+</tspan></text>
    <text id="_9" data-name="+" transform="translate(-5812 -3511)" fill="#3c3fa7" font-size="24" font-family="Roboto-Black, Roboto" font-weight="800"><tspan x="0" y="0">+</tspan></text>
  </g>
</svg>
