<svg xmlns="http://www.w3.org/2000/svg" width="400" height="147" viewBox="0 0 400 147">
  <g id="Grupo_84010" data-name="Grupo 84010" transform="translate(-705 -6028)">
    <rect id="Rectángulo_34268" data-name="Rectángulo 34268" width="85" height="33" rx="10" transform="translate(705 6072)" fill="#6b8dff"/>
    <g id="Rectángulo_34271" data-name="Rectángulo 34271" transform="translate(705 6114)" fill="#fff" stroke="#ff5f65" stroke-width="1">
      <rect width="85" height="27" rx="10" stroke="none"/>
      <rect x="0.5" y="0.5" width="84" height="26" rx="9.5" fill="none"/>
    </g>
    <g id="Rectángulo_34274" data-name="Rectángulo 34274" transform="translate(705 6146)" fill="#fff" stroke="#ff5f65" stroke-width="1">
      <rect width="85" height="27" rx="10" stroke="none"/>
      <rect x="0.5" y="0.5" width="84" height="26" rx="9.5" fill="none"/>
    </g>
    <rect id="Rectángulo_34269" data-name="Rectángulo 34269" width="85" height="33" rx="10" transform="translate(810 6072)" fill="#6b8dff"/>
    <g id="Rectángulo_34272" data-name="Rectángulo 34272" transform="translate(810 6114)" fill="#fff" stroke="#ff5f65" stroke-width="1">
      <rect width="85" height="27" rx="10" stroke="none"/>
      <rect x="0.5" y="0.5" width="84" height="26" rx="9.5" fill="none"/>
    </g>
    <g id="Rectángulo_34275" data-name="Rectángulo 34275" transform="translate(810 6146)" fill="#fff" stroke="#ff5f65" stroke-width="1">
      <rect width="85" height="27" rx="10" stroke="none"/>
      <rect x="0.5" y="0.5" width="84" height="26" rx="9.5" fill="none"/>
    </g>
    <rect id="Rectángulo_34270" data-name="Rectángulo 34270" width="190" height="33" rx="10" transform="translate(915 6072)" fill="#6b8dff"/>
    <g id="Rectángulo_34273" data-name="Rectángulo 34273" transform="translate(915 6114)" fill="#fff" stroke="#ff5f65" stroke-width="1">
      <rect width="190" height="27" rx="10" stroke="none"/>
      <rect x="0.5" y="0.5" width="189" height="26" rx="9.5" fill="none"/>
    </g>
    <g id="Rectángulo_34276" data-name="Rectángulo 34276" transform="translate(915 6146)" fill="#fff" stroke="#ff5f65" stroke-width="1">
      <rect width="190" height="27" rx="10" stroke="none"/>
      <rect x="0.5" y="0.5" width="189" height="26" rx="9.5" fill="none"/>
    </g>
    <text id="Estructura" transform="translate(705 6047)" fill="#12263f" font-size="18" font-family="Roboto-Black, Roboto" font-weight="800"><tspan x="0" y="0">Estructura</tspan></text>
    <text id="Sujeto" transform="translate(724 6094)" fill="#fff" font-size="16" font-family="Roboto-Regular, Roboto"><tspan x="0" y="0">Sujeto</tspan></text>
    <text id="I" transform="translate(745 6133)" fill="#ff5f65" font-size="16" font-family="Roboto-BoldItalic, Roboto" font-weight="700" font-style="italic"><tspan x="0" y="0">I</tspan></text>
    <text id="He" transform="translate(737 6165)" fill="#ff5f65" font-size="16" font-family="Roboto-BoldItalic, Roboto" font-weight="700" font-style="italic"><tspan x="0" y="0">He</tspan></text>
    <text id="live" transform="translate(841 6133)" fill="#ff5f65" font-size="16" font-family="Roboto-BoldItalic, Roboto" font-weight="700" font-style="italic"><tspan x="0" y="0">live</tspan></text>
    <text id="lives" transform="translate(837 6165)" fill="#ff5f65" font-size="16" font-family="Roboto-BoldItalic, Roboto" font-weight="700" font-style="italic"><tspan x="0" y="0">lives</tspan></text>
    <text id="in_Colombia." data-name="in Colombia." transform="translate(965 6133)" fill="#ff5f65" font-size="16" font-family="Roboto-BoldItalic, Roboto" font-weight="700" font-style="italic"><tspan x="0" y="0">in Colombia.</tspan></text>
    <text id="in_Colombia.-2" data-name="in Colombia." transform="translate(965 6165)" fill="#ff5f65" font-size="16" font-family="Roboto-BoldItalic, Roboto" font-weight="700" font-style="italic"><tspan x="0" y="0">in Colombia.</tspan></text>
    <text id="verbo" transform="translate(833 6094)" fill="#fff" font-size="16" font-family="Roboto-Regular, Roboto"><tspan x="0" y="0">verbo</tspan></text>
    <text id="complemento" transform="translate(961 6094)" fill="#fff" font-size="16" font-family="Roboto-Regular, Roboto"><tspan x="0" y="0">complemento</tspan></text>
    <text id="_" data-name="+" transform="translate(793 6096)" fill="#ff5f65" font-size="24" font-family="Roboto-Black, Roboto" font-weight="800"><tspan x="0" y="0">+</tspan></text>
    <text id="_2" data-name="+" transform="translate(793 6137)" fill="#3c3fa7" font-size="24" font-family="Roboto-Black, Roboto" font-weight="800"><tspan x="0" y="0">+</tspan></text>
    <text id="_3" data-name="+" transform="translate(793 6168)" fill="#3c3fa7" font-size="24" font-family="Roboto-Black, Roboto" font-weight="800"><tspan x="0" y="0">+</tspan></text>
    <text id="_4" data-name="+" transform="translate(899 6096)" fill="#ff5f65" font-size="24" font-family="Roboto-Black, Roboto" font-weight="800"><tspan x="0" y="0">+</tspan></text>
    <text id="_5" data-name="+" transform="translate(899 6137)" fill="#3c3fa7" font-size="24" font-family="Roboto-Black, Roboto" font-weight="800"><tspan x="0" y="0">+</tspan></text>
    <text id="_6" data-name="+" transform="translate(899 6168)" fill="#3c3fa7" font-size="24" font-family="Roboto-Black, Roboto" font-weight="800"><tspan x="0" y="0">+</tspan></text>
  </g>
</svg>
