<svg xmlns="http://www.w3.org/2000/svg" xmlns:xlink="http://www.w3.org/1999/xlink" width="117" height="117" viewBox="0 0 117 117">
  <defs>
    <clipPath id="clip-path">
      <rect id="Rectángulo_34409" data-name="Rectángulo 34409" width="117" height="117" transform="translate(742 7857)" fill="#fff"/>
    </clipPath>
  </defs>
  <g id="Enmascarar_grupo_116" data-name="Enmascarar grupo 116" transform="translate(-742 -7857)" clip-path="url(#clip-path)">
    <g id="voto-negativo_1_" data-name="voto-negativo (1)" transform="translate(743.337 7857)">
      <path id="Trazado_116334" data-name="Trazado 116334" d="M112.406,52.522A50.677,50.677,0,1,1,81.085,5.648c.106.044.212.087.315.133a50.766,50.766,0,0,1,30.529,39.771c0,.007,0,.014,0,.021a50.975,50.975,0,0,1,.474,6.948Zm0,0" fill="#f8a28b"/>
      <path id="Trazado_116335" data-name="Trazado 116335" d="M111.932,45.573c0-.007,0-.014,0-.021A50.767,50.767,0,0,0,81.4,5.781c-.1-.046-.209-.089-.315-.133A50.921,50.921,0,0,0,53.145,2.526,50.233,50.233,0,0,1,63.991,5.648c.106.044.212.087.316.133A50.767,50.767,0,0,1,94.836,45.552c0,.007,0,.014,0,.021a50.759,50.759,0,0,1-41.7,56.948,50.748,50.748,0,0,0,58.79-56.948Zm0,0" fill="#f58c79"/>
      <path id="Trazado_116336" data-name="Trazado 116336" d="M4.845,56.964,33.658,37.645a9.715,9.715,0,0,1,6.97-1.53,9.744,9.744,0,0,0,6.987-1.526L51.47,32,73.065,64.233l-5.3,23.175a24.456,24.456,0,0,0,3.356,18.81,5.834,5.834,0,0,1-1.609,8.015,5.653,5.653,0,0,1-7.128-.669L58.953,110.2A37.19,37.19,0,0,1,50.1,96.454L48.237,91.38,29.072,104.2a6.487,6.487,0,0,1-9.157-2.02,6.755,6.755,0,0,1,2.053-9.089A.074.074,0,0,0,21.994,93a.071.071,0,0,0-.093-.036,6.419,6.419,0,0,1-2.335.438A6.5,6.5,0,0,1,14.11,90.44a6.657,6.657,0,0,1-.96-4.938,6.759,6.759,0,0,1,2.74-4.191.143.143,0,0,0,.036-.2,0,0,0,0,0,0,0,.138.138,0,0,0-.184-.037,6.629,6.629,0,0,1-1.586.189,6.822,6.822,0,0,1-3.686-1.081,6.457,6.457,0,0,1-1.907-1.894A6.667,6.667,0,0,1,10.4,69.118c.075-.052.149-.1.223-.151a.1.1,0,0,0,.033-.129.051.051,0,0,0-.023-.024.1.1,0,0,0-.129,0A6.331,6.331,0,0,1,4.959,68.1a6.7,6.7,0,0,1-.113-11.133Zm0,0" fill="#fdd7bd"/>
      <path id="Trazado_116337" data-name="Trazado 116337" d="M111.932,45.573,91.219,59.821l-12.4,8.313a3.076,3.076,0,0,1-4.3-.886l-24.205-37a3.17,3.17,0,0,1,.877-4.358l12.155-8.149L81.4,5.78a50.769,50.769,0,0,1,30.529,39.772c0,.007,0,.014,0,.021Zm0,0" fill="#87dbff"/>
      <path id="Trazado_116338" data-name="Trazado 116338" d="M51.195,25.886,63.35,17.735,91.219,59.822l-12.4,8.313a3.079,3.079,0,0,1-4.3-.887l-24.2-37.006a3.168,3.168,0,0,1,.877-4.356Zm0,0" fill="#6fc7ff"/>
      <g id="Grupo_83229" data-name="Grupo 83229">
        <path id="Trazado_116339" data-name="Trazado 116339" d="M16,92.341l9.587-5.194a3.082,3.082,0,0,1,3.962.9L21.994,93a.072.072,0,0,0-.093-.037,6.4,6.4,0,0,1-2.335.439A6.51,6.51,0,0,1,16,92.341Zm0,0" fill="#fac5aa"/>
        <path id="Trazado_116340" data-name="Trazado 116340" d="M10.464,80.181,19.844,75.1a3.078,3.078,0,0,1,3.962.9l-7.559,4.952-.326.155a.138.138,0,0,0-.184-.037,6.584,6.584,0,0,1-1.586.189,6.819,6.819,0,0,1-3.686-1.081Zm0,0" fill="#fac5aa"/>
        <path id="Trazado_116341" data-name="Trazado 116341" d="M4.958,68.1l8.261-4.475a3.083,3.083,0,0,1,3.962.9l-6.548,4.29a.1.1,0,0,0-.129,0A6.333,6.333,0,0,1,4.958,68.1Zm0,0" fill="#fac5aa"/>
      </g>
      <path id="Trazado_116342" data-name="Trazado 116342" d="M113.9,46.851a1.809,1.809,0,0,0,.039-.677A52.185,52.185,0,0,0,112.709,40c0-.021-.01-.043-.015-.064,0,0,0-.009,0-.013l0-.011,0-.01v0a52.792,52.792,0,0,0-18.36-28.533A52.521,52.521,0,0,0,9.168,52.124l-5.3,3.512A8.366,8.366,0,0,0,6.657,70.782a8.362,8.362,0,0,0,5.582,12.061A8.358,8.358,0,0,0,17.819,94.9a8.378,8.378,0,0,0,5.747,12.108,8.5,8.5,0,0,0,1.684.17,8.317,8.317,0,0,0,4.606-1.394l8.993-5.955c.9.438,1.826.852,2.75,1.235a52.115,52.115,0,0,0,10.065,3.018,38.635,38.635,0,0,0,5.977,7.444l3.448,3.343a7.545,7.545,0,0,0,11.545-9.583c-.266-.4-.516-.819-.755-1.238a52.415,52.415,0,0,0,37.28-29.023,1.806,1.806,0,0,0-3.262-1.55,48.811,48.811,0,0,1-35.59,27.2,22.35,22.35,0,0,1-.793-12.66L73.916,69a4.881,4.881,0,0,0,2.6,1.456,5.01,5.01,0,0,0,.994.1,4.885,4.885,0,0,0,2.707-.82l30.3-20.067q.083,1.425.084,2.856a49.031,49.031,0,0,1-1.826,13.288,1.806,1.806,0,0,0,3.476.979A52.695,52.695,0,0,0,113.9,46.851ZM92.183,57.48l-26-38.78L81.495,8.559a49.206,49.206,0,0,1,27.687,32.226l0,.014c0,.012,0,.022.007.033a47.988,47.988,0,0,1,.917,4.776Zm-49.785,40,4.818-3.191L48.3,97.219q.5,1.348,1.1,2.66a48.45,48.45,0,0,1-6.425-2.148c-.195-.08-.389-.165-.584-.248ZM66,87.2a25.974,25.974,0,0,0,1.519,16.218l0,0c0,.009.008.018.012.027a26.17,26.17,0,0,0,2.094,3.834,3.935,3.935,0,0,1-6.022,4.994l-3.446-3.341a35.052,35.052,0,0,1-5.811-7.39l-.044-.071a35.357,35.357,0,0,1-2.613-5.514L49.81,90.9a1.806,1.806,0,0,0-2.321-1.065c-.02.007-.037.017-.056.024a1.038,1.038,0,0,0-.254.127l-.037.022-.023.014L27.862,102.777a4.764,4.764,0,1,1-5.26-7.944l1.644-1.087,0,0,.028-.019,3.729-2.47a1.806,1.806,0,0,0-1.994-3.011l-3.754,2.487a4.763,4.763,0,0,1-5.234-7.959l5.4-3.578a1.806,1.806,0,1,0-1.991-3.013l-3.753,2.485A4.764,4.764,0,0,1,11.44,70.71l5.4-3.579a1.805,1.805,0,1,0-1.991-3.012l-3.733,2.47a4.763,4.763,0,1,1-5.259-7.943L18.97,49.965a1.805,1.805,0,1,0-1.993-3.011l-4.117,2.725a48.987,48.987,0,0,1,65.3-43.243L50.449,24.786a4.935,4.935,0,0,0-1.384,6.824l.161.243-2.369,1.571a8.052,8.052,0,0,1-5.733,1.24,11.647,11.647,0,0,0-8.3,1.794L23.42,42.687A1.806,1.806,0,0,0,25.414,45.7l9.406-6.229a8.048,8.048,0,0,1,5.727-1.24,11.672,11.672,0,0,0,8.3-1.794l2.37-1.57L71.146,64.951ZM78.224,66.725a1.314,1.314,0,0,1-1.818-.373L53.237,31.371a.05.05,0,0,0,0-.007l-.005-.007-1.152-1.74a1.32,1.32,0,0,1,.37-1.822l10.724-7.1,26,38.78Zm0,0"/>
    </g>
  </g>
</svg>
