<svg xmlns="http://www.w3.org/2000/svg" width="292.582" height="400.645" viewBox="0 0 292.582 400.645">
  <g id="Grupo_84011" data-name="Grupo 84011" transform="translate(-249.948 -1458.478)">
    <path id="Trazado_116354" data-name="Trazado 116354" d="M504.721,295.828c3.144-26.455,17.693-50.123,24.474-75.887,5.077-19.289,5.717-39.422,8.214-59.211s7.166-39.993,19.026-56.03c15.807-21.372,44.169-32.67,70.342-28.02s48.907,25.029,56.382,50.539c9.641,32.9-4.988,67.8-4.179,102.073.449,19.025,5.665,37.568,8.813,56.336s4.09,38.739-3.575,56.158c-10.246,23.283-34.629,38.045-59.657,42.6-24.9,4.527-50.939.091-75.643-3.888-19.87-3.2-33.145-26.6-39.345-43.874A89.9,89.9,0,0,1,504.721,295.828Z" transform="matrix(0.921, 0.391, -0.391, 0.921, -63.174, 1233.889)" fill="#6b8dff"/>
    <g id="Grupo_83308" data-name="Grupo 83308" transform="translate(-48.699 1372.342)">
      <g id="Grupo_83307" data-name="Grupo 83307" transform="translate(453.143 108.056)">
        <path id="Trazado_116454" data-name="Trazado 116454" d="M436.073,152.928c.4-1.018.787-2.465,1.249-3.94,1.494-4.773,3.976-3,3.976-3l-1.11,5.73-.755,4.356c.25,3.331-2.166,11.732-2.166,11.732l-4.337.3-2.573-2.838a1.89,1.89,0,0,1-.372-.258l-4.455-5.065,0,0h0l-5.992-6.812c-.762-.8-1.289-1.684-.494-2.446l.146-.14c.8-.762,1.613-.151,2.375.646l2.8,2.667-4.9-5.572c-.762-.8-1.289-1.686-.493-2.448l.146-.14c.8-.761,1.612-.15,2.374.647l.554.527-2.537-3.216c-.718-.836-1.2-1.752-.362-2.47l.153-.132c.836-.718,1.618-.064,2.337.772l3.821,4.048-2.211-3.5c-.628-.906-1.008-1.867-.1-2.5l.166-.115c.906-.627,1.617.106,2.245,1.011l8.456,11.067A12.71,12.71,0,0,0,436.073,152.928Z" transform="translate(-418.575 -101.552)" fill="#f7ad83"/>
        <path id="Rect치ngulo_34419" data-name="Rect치ngulo 34419" d="M0,0H14.854a0,0,0,0,1,0,0V23.339a2.58,2.58,0,0,1-2.58,2.58H2.58A2.58,2.58,0,0,1,0,23.339V0A0,0,0,0,1,0,0Z" transform="translate(80.728 52.739) rotate(1.835)" fill="#f7ad83"/>
        <path id="Trazado_116455" data-name="Trazado 116455" d="M486.007,169.525s-3.534-19.2-1.949-24.841l1.947-22.961c1.586-5.641,5.946-10.755,11.268-10.185l13.057,1.4c5.321.569,9.521,6.969,7.936,12.609l-10.5,32.835C506.185,164.018,499.7,170.863,486.007,169.525Z" transform="translate(-406.407 -106.795)" fill="#ea976e"/>
        <path id="Trazado_116456" data-name="Trazado 116456" d="M487.685,168.844l-.353-.007c-7.683-.821-14.484-7.956-13.661-15.641l2.882-26.962a12.566,12.566,0,0,1,13.789-11.126l17.18,1.837c1.966.21,5.807,2.264,5.6,4.229l-5.106,30.06C506.882,161.817,498.267,169.975,487.685,168.844Z" transform="translate(-408.286 -106.133)" fill="#f7ad83"/>
        <path id="Trazado_116457" data-name="Trazado 116457" d="M482.048,138.864s1.98-4.761-1.018-5.388c-2.483-.52-3.261,4.029-2.977,5.135A4.341,4.341,0,0,1,482.048,138.864Z" transform="translate(-407.464 -102.693)" fill="#202f42"/>
        <path id="Trazado_116458" data-name="Trazado 116458" d="M491.319,140.571s.122-5.154,3.117-4.511c2.481.534,1.345,5.007.637,5.9A3.811,3.811,0,0,0,491.319,140.571Z" transform="translate(-404.973 -102.212)" fill="#202f42"/>
        <g id="Grupo_83295" data-name="Grupo 83295" transform="translate(76.201 37.012)">
          <path id="Trazado_116459" data-name="Trazado 116459" d="M485.668,147.543c-.336-.08-3.268-.833-2.857-2.705.29-1.3,1.733-1.676,2.566-1.784l.788-4.337,1.342.245-.984,5.406-.561.008c-.52.007-1.7.209-1.82.757-.071.329.952.87,1.841,1.085Z" transform="translate(-482.772 -138.717)" fill="#ea976e"/>
        </g>
        <path id="Trazado_116460" data-name="Trazado 116460" d="M503.727,131.3c4.3,2.573,9.326,10.264,12.45,13.761.02-.036.818-1.659.837-1.695,2.012-3.733,8.787-23.737-3.943-30.515-11.046-5.881-30.6-7-33.493,9.1C488.127,122.856,496.466,126.955,503.727,131.3Z" transform="translate(-407.169 -107.285)" fill="#202f42"/>
        <path id="Trazado_116461" data-name="Trazado 116461" d="M476.589,135.768c3.579-6.141,9.368-10.851,17.827-6.006s13.66,3.616,13.66,3.616-.656,7.752,3.262,12.919c0,0,2.077-4.423,6.1-3.276s-7.652-24.239-7.652-24.239L498,118.329s1.7-12.8-9.433-7.5-14.862,12.482-13.139,28.752A12.833,12.833,0,0,1,476.589,135.768Z" transform="translate(-408.02 -107.16)" fill="#202f42"/>
        <g id="Grupo_83296" data-name="Grupo 83296" transform="translate(71.495 48.158)">
          <path id="Trazado_116462" data-name="Trazado 116462" d="M479.15,150.655c-.16-.706-.269-1.358-.337-1.865a.6.6,0,0,1,.842-.63,34.685,34.685,0,0,0,3.419,1.316c1.849.6,5.878.523,7.778.449a.6.6,0,0,1,.554.891,17.823,17.823,0,0,1-1.257,1.964,55.257,55.257,0,0,1-7.174-.845A31.657,31.657,0,0,1,479.15,150.655Z" transform="translate(-478.807 -148.107)" fill="#fff"/>
          <path id="Trazado_116463" data-name="Trazado 116463" d="M484.474,153.322a10.76,10.76,0,0,1,3.6.21,6.353,6.353,0,0,1-5,2.058,3.413,3.413,0,0,1-1.2-.375A4.854,4.854,0,0,1,484.474,153.322Z" transform="translate(-478.234 -147.146)" fill="#e6663e"/>
          <path id="Trazado_116464" data-name="Trazado 116464" d="M479.1,150.254a31.654,31.654,0,0,0,3.824,1.281,55.05,55.05,0,0,0,7.174.844,13.361,13.361,0,0,1-1.5,1.713,10.759,10.759,0,0,0-3.6-.21,4.854,4.854,0,0,0-2.6,1.893C480.523,154.836,479.566,152.315,479.1,150.254Z" transform="translate(-478.753 -147.706)" fill="#202f42"/>
        </g>
        <path id="Trazado_116465" data-name="Trazado 116465" d="M434.512,160.239s14.783,19.717,20.268,28.28c1.124,1.756,2.268,3.751,3.383,5.806,3.551-2.151,8.234-4.99,11.361-6.9a65.007,65.007,0,0,0,5.4,11.376q1.321,2.227,2.786,4.365l-.034.11s-1.822.9-4.607,2.091c-5.01,2.15-13.149,5.271-19.478,5.9a211.314,211.314,0,0,1-12.473-21.578c-3.663-7.09-6.87-16.252-11.28-26.7-.363-2.228-1.243-2.375-1.243-2.375Z" transform="translate(-416.701 -97.681)" fill="#f7ad83"/>
        <path id="Trazado_116466" data-name="Trazado 116466" d="M524.756,208.814a211.389,211.389,0,0,1-.648,24.916c-.583,7.959-2.637,17.446-4.337,28.654-.855,2.089-.183,2.674-.183,2.674l-5.242-2.768s-2.3-24.536-2.5-34.7c-.04-2.084-1.159-14.266-1.034-16.6" transform="translate(-401.329 -88.598)" fill="#f7ad83"/>
        <path id="Trazado_116467" data-name="Trazado 116467" d="M457.474,189.612s13.153-19.894,27.007-18.969A11.165,11.165,0,0,1,483.053,173l-4.6,9.542-.5,17.622,1.465.591c-2.332,2.95-4.061,4.83-4.061,4.83S465.748,200.924,457.474,189.612Z" transform="translate(-411.302 -95.742)" fill="#e32e44"/>
        <path id="Trazado_116468" data-name="Trazado 116468" d="M527.156,431.374h.017s-.66-45.162-1.465-58.728-4.387-18.822-4.387-18.822-.772-42.978-2.446-66.76c-.5-7.048-3.586-10.9-7.677-12.861l-2.488-20.075-23.315-7.655-1.827-.6,1.392,7.637,3.87,21.222c-1.7.529-2.74.942-2.74.942s-.585,31.318,17.595,80.538a768.516,768.516,0,0,0,13.983,75.763l.828-.052.161.813,8.635.572Z" transform="translate(-406.422 -81.669)" fill="#f7ad83"/>
        <path id="Trazado_116469" data-name="Trazado 116469" d="M474.71,434.186h.017s7.647-44.515,9.347-58-.855-19.306-.855-19.306,7.136-42.391,9.858-66.076c.807-7.02-1.523-11.376-5.185-14.053l1.243-20.191-21.513-11.807-1.686-.925-.033,7.763-.095,21.572c-1.767.208-2.867.423-2.867.423s-6.328,30.679,2.5,82.4a768.651,768.651,0,0,0-.172,77.041l.824.1.01.83,8.385,2.148Z" transform="translate(-410.69 -82.051)" fill="#f7ad83"/>
        <g id="Grupo_83298" data-name="Grupo 83298" transform="translate(43.555 141.883)">
          <g id="Grupo_83297" data-name="Grupo 83297">
            <path id="Trazado_116470" data-name="Trazado 116470" d="M455.269,366.781c1.327-14.885,3.894-83.487,4.186-89.124.833-16.061,2.161-30.58,11-44.8.863-1.944,1.43-3.03,1.43-3.03l2.28-.135c2.622-.934,7.7-2.2,16.582-2.57a40.579,40.579,0,0,1,11.274.907l7.028-.42.389,4.075a14.72,14.72,0,0,1,2.167,1.886c16.129,15.133,11.959,40.175,19,58.12,1.573,4.008,1.464,65.348,2.645,72.091C516.065,368.306,486.61,373.38,455.269,366.781Z" transform="translate(-455.269 -227.068)" fill="#003c61"/>
          </g>
        </g>
        <path id="Trazado_116471" data-name="Trazado 116471" d="M503.727,170.469c-1.589-1.2-6.045-2.553-6.647-2.372-.557-.291-5.186.2-6.974,1.086-5.3,2.626-9.861,4.575-13.943,6.61.877,2.637.741,5.16,1.411,7.505a110.488,110.488,0,0,1,2.672,12.258l14.123,1.275,27.342,2.58c5.4.509,6.26-6.4,6.26-6.4C528.872,183.345,513.4,177.792,503.727,170.469Z" transform="translate(-407.807 -96.227)" fill="#f7ad83"/>
        <g id="Grupo_83299" data-name="Grupo 83299" transform="translate(53.952 75.503)">
          <path id="Trazado_116472" data-name="Trazado 116472" d="M467.508,217.935c-6.448-8.362-2.621-16.1.95-20.935a43.232,43.232,0,0,0,6.328-12.521l4.247-13.333,10.639,23.969,25.921-18.764,6.353,22.322L507.8,242.136c-5.465.839-26.407,3.624-37.639-.928C471.022,232.4,471.005,222.468,467.508,217.935Z" transform="translate(-464.028 -171.145)" fill="#ed4958"/>
        </g>
        <path id="Trazado_116473" data-name="Trazado 116473" d="M467.815,211.651s3.925,4.084,13.8,2.362c0,0-5.442,4.448-12.309,2.51Z" transform="translate(-409.368 -88.068)" fill="#e32e44"/>
        <path id="Trazado_116474" data-name="Trazado 116474" d="M486.52,213.172s13.114,4.473,20.359-1.161l-3.564,5.67S493.048,218.911,486.52,213.172Z" transform="translate(-405.871 -88.001)" fill="#e32e44"/>
        <g id="Grupo_83300" data-name="Grupo 83300" transform="translate(93.559 103.017)">
          <path id="Trazado_116475" data-name="Trazado 116475" d="M511.718,206.594l-3.136-12.269c-1.779,9.85-1.223,19.811-8.057,26.274q-.251.776-.525,1.535c-1.627,4.509-1.9,11.137-2.6,16.238,1.771-.216,3.21-.423,4.167-.57Z" transform="translate(-497.396 -194.325)" fill="#e32e44"/>
        </g>
        <path id="Trazado_116476" data-name="Trazado 116476" d="M507.47,175.573l.1-.274,8.688,5.466c4.211,2.948,9.036,10.362,9.323,15.5.317,5.686.782,11.114,1.352,16.285.045.408.094.806.14,1.211a16.3,16.3,0,0,1-5.311,3.432c-.345-6.858-.926-15.921-1.789-21.813C518.421,184.823,507.47,175.573,507.47,175.573Z" transform="translate(-401.953 -94.865)" fill="none"/>
        <g id="Grupo_83302" data-name="Grupo 83302" transform="translate(34.465 346.834)">
          <g id="Grupo_83301" data-name="Grupo 83301" transform="translate(0.031)">
            <path id="Trazado_116477" data-name="Trazado 116477" d="M456.26,405.046c-4.75,0-9.146.4-8.574,5.709l10.711-.039,5.826-.02-4.919-6.138Z" transform="translate(-447.637 -398.832)" fill="#003c61"/>
            <path id="Trazado_116478" data-name="Trazado 116478" d="M465.595,404.36l5.906,7.2,6.263-.023-.421-10.388.026,0,.006-.255a1.156,1.156,0,0,0-1.153-1.158,11.434,11.434,0,0,1-8.428,1.017,5.1,5.1,0,0,0-5.23,1.7l-.715.887A6.221,6.221,0,0,0,465.595,404.36Z" transform="translate(-444.979 -399.734)" fill="#003c61"/>
            <path id="Trazado_116479" data-name="Trazado 116479" d="M466.414,403.791a6.221,6.221,0,0,1-3.745-1.018l-1.188,1.475-4.014.643,4.919,6.138,9.935-.036Z" transform="translate(-445.798 -399.166)" fill="#003c61"/>
          </g>
          <path id="Trazado_116480" data-name="Trazado 116480" d="M447.61,412.266h32.813l.037-2.889H447.648Z" transform="translate(-447.61 -397.931)" fill="#00273d"/>
        </g>
        <g id="Grupo_83303" data-name="Grupo 83303" transform="translate(106.04 346.21)">
          <path id="Trazado_116481" data-name="Trazado 116481" d="M524.4,405.4c-.04-1.167-.081-2.3-.121-2.567a4.108,4.108,0,0,0-3.95-3.485l-5.108-.14a4.11,4.11,0,0,0-4.22,3.945v1.207c-3.172,2.646-3.089,7.027-3.089,7.027h18.538A10.217,10.217,0,0,0,524.4,405.4Z" transform="translate(-507.911 -399.209)" fill="#003c61"/>
          <path id="Trazado_116482" data-name="Trazado 116482" d="M507.924,412.37h18.538l-.013-2.9H507.911Z" transform="translate(-507.911 -397.29)" fill="#00273d"/>
        </g>
        <path id="Trazado_116483" data-name="Trazado 116483" d="M483.035,170.617a6.659,6.659,0,0,0,2.013-.167c.49,22.167,13.625,9.564,19.334.96a37.918,37.918,0,0,1,6.257,3.386c2.983,2.048,6.778,7.27,6.778,7.27l-20.4,18.182-13.762.557C485.344,192.446,488.027,177.632,483.035,170.617Z" transform="translate(-406.522 -95.772)" fill="#ed4958"/>
        <path id="Trazado_116484" data-name="Trazado 116484" d="M476.163,184.609l.336-12.219s.115-.611.265-1.109a14.083,14.083,0,0,1,6.708-.751,7.652,7.652,0,0,0,.849.094c4.992,7.015,2.309,21.829.216,30.188l-1.579.064Z" transform="translate(-407.807 -95.778)" fill="#ed4958"/>
        <g id="Grupo_83304" data-name="Grupo 83304" transform="translate(104.807 79.543)">
          <path id="Trazado_116485" data-name="Trazado 116485" d="M524.427,200.6a65.211,65.211,0,0,1,.1,11.442C524.673,208.4,524.6,204.494,524.427,200.6Z" transform="translate(-503.59 -169.677)" fill="none"/>
          <path id="Trazado_116486" data-name="Trazado 116486" d="M527.709,205.469c.17,3.9.246,7.8.1,11.442a25.148,25.148,0,0,1-7.133,2.882,26.66,26.66,0,0,1-10.971.129h0c-.353-2.654-.7-5.4-1.039-8.2-.453-3.739-.9-7.59-1.318-11.592l-.477-15.653v-9.931C511.729,176.854,526.736,183.918,527.709,205.469Z" transform="translate(-506.872 -174.548)" fill="#ed4958"/>
        </g>
        <g id="Grupo_83306" data-name="Grupo 83306" transform="translate(104.807 79.543)">
          <path id="Trazado_116487" data-name="Trazado 116487" d="M522.3,202.721a65.312,65.312,0,0,1,.1,11.442C522.549,210.523,522.474,206.618,522.3,202.721Z" transform="translate(-503.987 -169.28)" fill="none"/>
          <g id="Grupo_83305" data-name="Grupo 83305">
            <path id="Trazado_116488" data-name="Trazado 116488" d="M525.19,207.989c-1.992-19.182-13.46-31.134-18.317-33.441,4.857,2.306,19.864,9.37,20.837,30.921.17,3.9.246,7.8.1,11.442a14.172,14.172,0,0,1-2.49,1.31C525.408,214.93,525.34,211.461,525.19,207.989Z" transform="translate(-506.872 -174.548)" fill="#e32e44"/>
            <path id="Trazado_116489" data-name="Trazado 116489" d="M509.707,219.923h0c-.353-2.655-.7-5.4-1.039-8.2-.453-3.739-.9-7.59-1.318-11.592l-.477-15.653v-9.931c4.857,2.306,16.326,14.259,18.317,33.441.151,3.472.218,6.941.131,10.233a33.374,33.374,0,0,1-4.642,1.572A26.66,26.66,0,0,1,509.707,219.923Z" transform="translate(-506.872 -174.548)" fill="#ed4958"/>
          </g>
        </g>
        <path id="Trazado_116490" data-name="Trazado 116490" d="M509.1,260.109c-.973.495-2.229,1.313-3.557,2.1-4.3,2.56-4.962-.417-4.962-.417l4.647-3.531,3.467-2.743c2.033-2.649,9.435-7.3,9.435-7.3l3.432,2.67.026,3.832a1.891,1.891,0,0,1,.1.44l-.056,6.743v0h0l-.075,9.071c.037,1.1-.163,2.115-1.264,2.153l-.2.007c-1.1.037-1.3-.964-1.339-2.064l-.311-3.856-.062,7.42c.038,1.1-.163,2.116-1.263,2.153l-.2.007c-1.1.038-1.3-.964-1.34-2.064l-.062-.763-.252,4.088c-.023,1.1-.277,2.1-1.377,2.082l-.2,0c-1.1-.021-1.249-1.031-1.227-2.133l-.15-5.563-.683,4.078c-.136,1.094-.493,2.064-1.586,1.929l-.2-.025c-1.093-.136-1.135-1.156-1-2.249l1.075-13.888A12.712,12.712,0,0,0,509.1,260.109Z" transform="translate(-403.241 -81.23)" fill="#f7ad83"/>
        <path id="Trazado_116491" data-name="Trazado 116491" d="M512.707,146.829c-2.172,3.486-5.732,5.191-7.952,3.807a3.065,3.065,0,0,1-.594-.482c-1.612-1.677-1.451-5.194.508-8.337,2.173-3.487,5.733-5.192,7.953-3.807S514.88,143.342,512.707,146.829Z" transform="translate(-402.777 -101.927)" fill="#ea976e"/>
        <path id="Trazado_116492" data-name="Trazado 116492" d="M506.132,147.761s-2.626,6.451.254,6.451S506.132,147.761,506.132,147.761Z" transform="translate(-402.408 -100.014)" fill="#ed4958"/>
        <circle id="Elipse_4783" data-name="Elipse 4783" cx="11.344" cy="11.344" r="11.344" transform="translate(94.221 16.043) rotate(-45)" fill="#202f42"/>
      </g>
      <g id="Grupo_83316" data-name="Grupo 83316" transform="translate(-231.425 -23.929)">
        <g id="Grupo_83313" data-name="Grupo 83313" transform="translate(549.026 110.065)">
          <path id="Trazado_116493" data-name="Trazado 116493" d="M620.37,274.973l-26.624,2.361c.015,8.794-.6,18.647-.126,30.983.986,25.613,1.195,56.8,2.035,82.526.564,17.3.113,33.552-.475,43.163l13.122-.168C612.47,399.391,621.326,312.5,620.37,274.973Z" transform="translate(-536.003 -65.614)" fill="#fcc5ac"/>
          <path id="Trazado_116494" data-name="Trazado 116494" d="M556.015,432.227h11.9s43.335-154.68,41.163-154.683l-33.164-.68C575.908,281.881,556.015,432.227,556.015,432.227Z" transform="translate(-546.091 -65.105)" fill="#fcc5ac"/>
          <path id="Trazado_116495" data-name="Trazado 116495" d="M625.614,275.455l-35.189,2.313c0,.051,0,.107,0,.156l12,.344c.757,0-4.091,18.73-10.728,43.132.453,10.683,2.843,90.365,3.344,101.574,0,0,1.115,4.351,16.4,0C614.489,392.8,626.087,293.978,625.614,275.455Z" transform="translate(-536.816 -65.485)" fill="#3f4864"/>
          <path id="Trazado_116496" data-name="Trazado 116496" d="M631.781,279.55c0-11.908-12.624-21.562-28.2-21.562s-28.2,9.654-28.2,21.562a16.714,16.714,0,0,0,.372,3.344c-.609,6.553-13.693,110.424-18.42,145.375,3.3.87,12.532.964,16.155.008,1.569-5.639,22.815-80.317,24.377-85.988,1.534-5.566,3.023-11,4.432-16.18,2.619-9.631,4.951-18.35,6.779-25.411C622.021,298.741,631.781,290.02,631.781,279.55Z" transform="translate(-545.734 -70.193)" fill="#3f4864"/>
          <path id="Trazado_116497" data-name="Trazado 116497" d="M637.977,200.746S651.641,246,684.029,264.724l-8.6,8.694s-35.665-16.033-54.532-64.361Z" transform="translate(-528.603 -85.622)" fill="#f7ad83"/>
          <path id="Trazado_116498" data-name="Trazado 116498" d="M679.1,255.128c1.3-.31,3.126-.542,4.993-.856,6.046-1.016,4.306-4.327,4.306-4.327l-7.145.386-5.416.188c-4-.863-14.61.661-14.61.661l-1.088,5.218,3.015,3.6a2.375,2.375,0,0,0,.25.494l5.4,6.259,0,0h0l7.266,8.418c.839,1.059,1.831,1.848,2.889,1.009l.194-.154c1.059-.838.453-1.932-.386-2.992L676,269.19l5.944,6.886c.839,1.059,1.831,1.848,2.889,1.009l.194-.154c1.059-.838.452-1.932-.386-2.991l-.548-.763,3.48,3.621c.894,1.013,1.926,1.748,2.939.854l.185-.164c1.013-.894.349-1.955-.545-2.967l-4.275-5.319,3.875,3.27c.994.915,2.1,1.539,3.011.545l.168-.183c.914-.994.145-1.98-.851-2.895l-12.021-12.127A15.467,15.467,0,0,1,679.1,255.128Z" transform="translate(-518.025 -72.36)" fill="#fcc5ac"/>
          <path id="Trazado_116499" data-name="Trazado 116499" d="M548.2,224.336c1.749-10.241,8.993-31.725,19.686-39.926h0c6.268-5.133,15.141-9.332,22.652-14.163a17.294,17.294,0,0,0,.479,6.562c1.678,6.3,13.583,9.652,19.381,8.561a12.446,12.446,0,0,0,1.935-.532l-1.927-2.787,8.072-10.5s39.089,12.854,47.851,50.932c5.013,16.486,33.228,45.622,33.228,45.622s-3.636,8.552-10.574,13.528c0,0-32.908-22.975-46.523-50.468-.706-1.424-1.355-2.774-1.992-4.106-.08,23.525-1.1,46.441-1.768,65.959a33.541,33.541,0,0,1-21.308,12.539c-17.6,2.936-34.207-2.119-41.8-5.015l-1.642-21.983-2.683-52.2" transform="translate(-548.198 -93.843)" fill="#185c77"/>
          <path id="Trazado_116500" data-name="Trazado 116500" d="M571.862,401.792l-.132-3.333a1.391,1.391,0,0,0-1.427-1.334l-13.97.382A1.389,1.389,0,0,0,555,398.683c-.155,1-.391,2.53-.612,3.989a7.978,7.978,0,0,0-2.737,6.122l-.013,4.666h24.289l.014-4.666A7.574,7.574,0,0,0,571.862,401.792Z" transform="translate(-547.271 -32.689)" fill="#303951"/>
          <path id="Trazado_116501" data-name="Trazado 116501" d="M636.61,412.36H592.256a.568.568,0,0,1-.557-.675l.388-2.02H637.4l.033,1.859A.821.821,0,0,1,636.61,412.36Z" transform="translate(-536.475 -29.309)" fill="#101111"/>
          <path id="Trazado_116502" data-name="Trazado 116502" d="M626.039,406.009l-9.249-1.482-5.418-6.731c-4.674,2.147-9.716,2.911-15.708.071a1.516,1.516,0,0,0-1.511,1.518v1.522l-2.224,12.428,45.343.154C638.023,406.537,632.265,406.009,626.039,406.009Z" transform="translate(-536.41 -32.508)" fill="#303951"/>
          <path id="Trazado_116503" data-name="Trazado 116503" d="M575.919,412.488h-24.29l.017-2.707h24.29Z" transform="translate(-547.273 -29.277)" fill="#101111"/>
          <path id="Trazado_116504" data-name="Trazado 116504" d="M582.053,177.918c1.678,6.3,13.583,9.652,19.381,8.561s8.987-5.623,8.82-10.155a14.621,14.621,0,0,0-.74-3.659c-2.4-1.308-4.729-2.653-6.866-4.085-2.275-1.525-7.805-2.75-8.568-2.379-.777-.341-6.792,1.162-9.006,2.774-1.119.815-2.294,1.606-3.5,2.382A17.322,17.322,0,0,0,582.053,177.918Z" transform="translate(-539.235 -94.952)" fill="#f7ad83"/>
          <path id="Trazado_116505" data-name="Trazado 116505" d="M585.927,177.308c.664,6.744,19.113,11.4,18.61.54l-1.89-21.681-17.391-.923C586.734,164.619,587.182,172.569,585.927,177.308Z" transform="translate(-538.209 -97.887)" fill="#f7ad83"/>
          <path id="Trazado_116506" data-name="Trazado 116506" d="M611.573,279.5c-17.6,2.936-34.207-2.119-41.8-5.015l.386,5.175a2.265,2.265,0,0,0,1.593,2c7.88,2.408,45.135,12.643,60.288-4.042a2.238,2.238,0,0,0,.57-1.459c.069-2.973.161-6.051.268-9.2A33.538,33.538,0,0,1,611.573,279.5Z" transform="translate(-542.382 -67.775)" fill="#0b4856"/>
          <g id="Grupo_83309" data-name="Grupo 83309" transform="translate(96.231 133.91)">
            <path id="Trazado_116507" data-name="Trazado 116507" d="M669.684,265.94l-.272-.2a.33.33,0,0,1,.385-.537l.274.2a.33.33,0,0,1-.193.6A.336.336,0,0,1,669.684,265.94Zm-2.4-1.776q-.528-.4-1.049-.809a.33.33,0,1,1,.405-.522q.522.408,1.044.8a.331.331,0,0,1-.2.594A.328.328,0,0,1,667.28,264.164Zm-3.122-2.463c-.341-.279-.68-.56-1.022-.843a.331.331,0,0,1,.424-.508q.507.423,1.017.84a.33.33,0,0,1-.419.51Zm-3.039-2.563q-.5-.436-1-.877a.331.331,0,0,1,.439-.5c.33.293.663.584.994.873a.33.33,0,1,1-.433.5Zm-2.973-2.656q-.486-.448-.971-.9a.33.33,0,1,1,.451-.482q.482.451.97.9a.332.332,0,0,1,.018.466.327.327,0,0,1-.242.107A.334.334,0,0,1,658.145,256.482Zm-2.892-2.726c-.316-.306-.634-.614-.947-.923a.33.33,0,1,1,.462-.471q.47.461.945.919a.33.33,0,0,1-.46.475Zm-2.821-2.787q-.47-.47-.929-.945a.33.33,0,0,1,.005-.467.334.334,0,0,1,.467.005q.459.472.924.941a.329.329,0,0,1,0,.467.335.335,0,0,1-.234.1A.329.329,0,0,1,652.432,250.97Zm-2.769-2.853-.908-.962a.331.331,0,1,1,.482-.452l.905.96a.33.33,0,0,1-.48.454Zm-2.709-2.9q-.449-.491-.892-.981a.33.33,0,1,1,.491-.442q.44.487.889.976a.333.333,0,0,1-.02.467.328.328,0,0,1-.223.086A.331.331,0,0,1,646.954,245.212Zm-2.655-2.957q-.442-.5-.873-1a.33.33,0,1,1,.5-.433q.432.493.871.992a.33.33,0,0,1-.5.437Zm-2.606-3-.857-1.011a.33.33,0,0,1,.505-.425l.854,1.007a.33.33,0,0,1-.251.545A.333.333,0,0,1,641.693,239.257Zm-2.556-3.043-.839-1.023a.33.33,0,1,1,.51-.418l.838,1.019a.332.332,0,0,1-.044.466.332.332,0,0,1-.465-.044Zm-2.506-3.081-.825-1.036a.33.33,0,1,1,.517-.41l.824,1.033a.33.33,0,1,1-.515.413Zm-2.463-3.118c-.274-.354-.546-.7-.81-1.049a.33.33,0,0,1,.524-.4c.264.344.532.692.807,1.045a.33.33,0,0,1-.058.463.325.325,0,0,1-.2.07A.333.333,0,0,1,634.169,230.014Zm-2.413-3.156q-.409-.539-.8-1.06a.33.33,0,1,1,.528-.395c.259.345.522.7.793,1.056a.332.332,0,0,1-.062.463.339.339,0,0,1-.2.066A.328.328,0,0,1,631.755,226.858Zm-2.369-3.19-.781-1.073a.329.329,0,1,1,.533-.387l.778,1.069a.33.33,0,0,1-.071.462.32.32,0,0,1-.194.063A.327.327,0,0,1,629.386,223.668Zm-2.323-3.228c-.272-.385-.528-.746-.764-1.087a.33.33,0,1,1,.542-.377c.236.338.489.7.762,1.08a.33.33,0,0,1-.079.461.325.325,0,0,1-.19.062A.333.333,0,0,1,627.063,220.439Zm-2.269-3.273c-.489-.721-.744-1.113-.744-1.113a.33.33,0,1,1,.555-.359s.253.388.736,1.1a.33.33,0,0,1-.547.371Z" transform="translate(-623.997 -215.544)" fill="#0b4856"/>
          </g>
          <g id="Grupo_83310" data-name="Grupo 83310" transform="translate(38.979 81.748)">
            <path id="Trazado_116508" data-name="Trazado 116508" d="M600.214,189.588l.009-.66h.192q.564,0,1.094-.044a.331.331,0,0,1,.055.659c-.373.03-.755.046-1.149.046Zm-2.674-.246c-.448-.066-.885-.133-1.311-.2a.33.33,0,1,1,.108-.651c.421.07.853.137,1.3.2a.331.331,0,0,1-.048.658Zm6.268-.514a.332.332,0,0,1,.221-.413,11.193,11.193,0,0,0,1.2-.438.33.33,0,0,1,.262.607,12.123,12.123,0,0,1-1.272.465.369.369,0,0,1-.1.014A.33.33,0,0,1,603.808,188.827Zm-10.191-.2q-.668-.15-1.291-.316a.329.329,0,0,1-.236-.4.326.326,0,0,1,.4-.235q.615.162,1.271.311a.33.33,0,0,1-.074.653A.3.3,0,0,1,593.618,188.627Zm-3.842-1.108q-.647-.234-1.247-.494a.33.33,0,1,1,.264-.606q.579.249,1.207.479a.33.33,0,0,1-.112.641A.317.317,0,0,1,589.776,187.518Zm17.607-.347a.33.33,0,0,1,.074-.462,12.442,12.442,0,0,0,1-.807.331.331,0,0,1,.442.493,13.522,13.522,0,0,1-1.055.851.333.333,0,0,1-.194.062A.329.329,0,0,1,607.383,187.172Zm-21.238-1.381c-.383-.237-.758-.493-1.113-.757a.331.331,0,0,1,.395-.531c.34.255.7.5,1.066.726a.33.33,0,0,1-.174.611A.324.324,0,0,1,586.145,185.79Zm24.129-1.315a.33.33,0,0,1-.057-.463c.269-.345.521-.7.757-1.052a.33.33,0,0,1,.55.366c-.244.368-.505.735-.786,1.093a.328.328,0,0,1-.26.127A.321.321,0,0,1,610.274,184.475Zm-27.241-1.258c-.293-.325-.583-.678-.854-1.045a.329.329,0,1,1,.528-.394c.263.35.536.686.818,1a.331.331,0,0,1-.491.443Zm29.376-2.077a.331.331,0,0,1-.152-.442c.2-.408.374-.806.534-1.188a.33.33,0,1,1,.609.253c-.163.395-.347.8-.551,1.225a.33.33,0,0,1-.3.185A.338.338,0,0,1,612.409,181.14Zm-31.64-1.261q-.3-.588-.566-1.216a.33.33,0,1,1,.606-.26c.173.4.357.8.548,1.177a.329.329,0,0,1-.145.443.316.316,0,0,1-.15.037A.329.329,0,0,1,580.77,179.879Zm33.111-2.425a.332.332,0,0,1-.227-.409c.221-.769.312-1.256.312-1.261a.331.331,0,0,1,.651.121c0,.022-.1.519-.329,1.322a.329.329,0,0,1-.317.24A.322.322,0,0,1,613.881,177.455Zm-34.594-1.3c-.131-.416-.255-.842-.375-1.28a.33.33,0,0,1,.637-.173q.175.642.367,1.254a.33.33,0,0,1-.216.414.3.3,0,0,1-.1.015A.329.329,0,0,1,579.287,176.152Z" transform="translate(-578.901 -174.456)" fill="#0b4856"/>
          </g>
          <g id="Grupo_83311" data-name="Grupo 83311" transform="translate(5.743 86.1)">
            <path id="Trazado_116509" data-name="Trazado 116509" d="M552.951,218.743a.332.332,0,0,1-.213-.416l.369-1.145a.33.33,0,0,1,.63.2l-.369,1.149a.334.334,0,0,1-.315.229A.316.316,0,0,1,552.951,218.743Zm1.176-3.665a.328.328,0,0,1-.216-.414l.4-1.261a.334.334,0,0,1,.415-.215.331.331,0,0,1,.215.416l-.4,1.258a.325.325,0,0,1-.414.215Zm1.2-3.777a.332.332,0,0,1-.213-.415q.206-.63.413-1.257a.33.33,0,1,1,.627.208q-.208.625-.41,1.252a.33.33,0,0,1-.315.228A.315.315,0,0,1,555.331,211.3Zm1.251-3.758a.332.332,0,0,1-.2-.42c.145-.42.292-.835.439-1.251a.326.326,0,0,1,.421-.2.33.33,0,0,1,.2.423q-.221.617-.437,1.244a.331.331,0,0,1-.312.222A.355.355,0,0,1,556.582,207.543Zm1.342-3.731a.329.329,0,0,1-.189-.427c.159-.415.321-.826.484-1.234a.33.33,0,0,1,.613.245q-.244.607-.481,1.225a.329.329,0,0,1-.309.213A.32.32,0,0,1,557.923,203.812Zm1.494-3.672a.332.332,0,0,1-.168-.437q.272-.611.552-1.209a.331.331,0,0,1,.6.282c-.185.394-.367.791-.547,1.2a.329.329,0,0,1-.3.2A.332.332,0,0,1,559.418,200.14Zm1.716-3.574a.331.331,0,0,1-.133-.448c.213-.394.432-.781.651-1.16a.328.328,0,0,1,.452-.119.331.331,0,0,1,.119.452c-.218.373-.432.755-.642,1.143a.327.327,0,0,1-.289.173A.332.332,0,0,1,561.134,196.566Zm2.041-3.394a.329.329,0,0,1-.07-.462c.262-.358.536-.711.818-1.059a.331.331,0,0,1,.514.416c-.278.34-.543.684-.8,1.033a.333.333,0,0,1-.267.135A.327.327,0,0,1,563.176,193.173Zm2.535-3.046a.33.33,0,0,1-.005-.467c.311-.319.627-.63.951-.937a.33.33,0,0,1,.455.479q-.474.453-.933.92a.331.331,0,0,1-.467.005Zm2.9-2.712a.33.33,0,0,1,.042-.466q.514-.428,1.033-.838a.33.33,0,1,1,.408.519q-.512.4-1.017.826a.332.332,0,0,1-.466-.042Zm3.126-2.436a.33.33,0,0,1,.079-.461c.364-.26.73-.513,1.092-.759a.331.331,0,0,1,.372.547c-.361.244-.72.493-1.082.75a.331.331,0,0,1-.461-.077Zm3.295-2.214a.331.331,0,0,1,.108-.454c.383-.239.763-.468,1.135-.691a.33.33,0,1,1,.338.567q-.552.329-1.125.684a.324.324,0,0,1-.174.05A.331.331,0,0,1,575.027,182.765Zm3.421-2.017a.33.33,0,0,1,.129-.448c.408-.223.8-.434,1.171-.628a.33.33,0,1,1,.307.584c-.368.194-.755.4-1.16.625a.335.335,0,0,1-.159.041A.326.326,0,0,1,578.448,180.748Zm3.522-1.832a.33.33,0,0,1,.156-.441c.771-.368,1.218-.562,1.218-.562a.327.327,0,0,1,.434.173.331.331,0,0,1-.171.434s-.441.19-1.2.552a.332.332,0,0,1-.441-.156Z" transform="translate(-552.721 -177.885)" fill="#0b4856"/>
          </g>
          <path id="Trazado_116510" data-name="Trazado 116510" d="M609.122,179.369s2.421-20.2.4-25.969L606,129.643c-2.017-5.764-6.888-10.8-12.387-9.859l-13.49,2.305c-5.5.941-9.449,7.872-7.432,13.636l13.066,33.47C587.773,174.96,594.966,181.655,609.122,179.369Z" transform="translate(-541.741 -107.476)" fill="#f7ad83"/>
          <path id="Trazado_116511" data-name="Trazado 116511" d="M607.7,178.856l.366-.03c7.94-1.357,12.034-10.172,10.677-18.111l-3.819-36.088a3.756,3.756,0,0,0-4.324-3.061l-26.93,4.6c-2.031.348-5.892,2.735-5.545,4.765l7.278,30.936C587.273,172.8,596.768,180.725,607.7,178.856Z" transform="translate(-540.137 -106.98)" fill="#fcc5ac"/>
          <path id="Trazado_116512" data-name="Trazado 116512" d="M607.671,142.232c.476,2.043-.174,3.941-1.452,4.238s-2.7-1.116-3.178-3.157.175-3.941,1.452-4.238S607.2,140.19,607.671,142.232Z" transform="translate(-533.457 -102.256)" fill="#202f42"/>
          <path id="Trazado_116513" data-name="Trazado 116513" d="M593.266,145.283c.578,2.015.024,3.943-1.238,4.305s-2.754-.979-3.331-2.995-.024-3.943,1.238-4.305S592.687,143.267,593.266,145.283Z" transform="translate(-537.344 -101.395)" fill="#202f42"/>
          <path id="Trazado_116514" data-name="Trazado 116514" d="M607.568,135.728a20.464,20.464,0,0,0-5.5,1.045,1.358,1.358,0,0,1-1.744-.983v0a1.356,1.356,0,0,1,.79-1.577A16.8,16.8,0,0,1,607.522,133a1.356,1.356,0,0,1,1.3,1.2h0A1.358,1.358,0,0,1,607.568,135.728Z" transform="translate(-534.159 -103.884)" fill="#a36e46"/>
          <path id="Trazado_116515" data-name="Trazado 116515" d="M593.206,139.238a22.122,22.122,0,0,0-6.053,1.469,1.354,1.354,0,0,1-1.79-.894l-.052-.175a1.361,1.361,0,0,1,.711-1.619,18.106,18.106,0,0,1,6.966-1.686,1.358,1.358,0,0,1,1.363,1.134l.032.175A1.356,1.356,0,0,1,593.206,139.238Z" transform="translate(-538.209 -102.985)" fill="#a36e46"/>
          <path id="Trazado_116516" data-name="Trazado 116516" d="M588.042,149.5s.414-1.944,3.616-2.962,6.433,1.042,6.433,1.042l-4.309,2.964Z" transform="translate(-537.458 -100.31)" fill="#fcc5ac"/>
          <path id="Trazado_116517" data-name="Trazado 116517" d="M600.994,146.372s.415-1.945,3.616-2.963,6.433,1.042,6.433,1.042l-4.309,2.964Z" transform="translate(-533.967 -101.153)" fill="#fcc5ac"/>
          <path id="Trazado_116518" data-name="Trazado 116518" d="M583.6,137.04s14.107.363,23.508-1.652,11.5-4.2,11.5-4.2-4.987-18.575-10.236-21.127a35.486,35.486,0,0,1-19.079,10.373c-11.666,1.931-14.432,3.2-18.014,11.639s3.357,19.038,8.168,26.946l4.276-.7S582.508,152.963,583.6,137.04Z" transform="translate(-542.244 -110.065)" fill="#a36e46"/>
          <path id="Trazado_116519" data-name="Trazado 116519" d="M575.932,155.728c2.488,3.485,6.3,5.026,8.521,3.44a3.2,3.2,0,0,0,.585-.54c1.568-1.85,1.169-5.5-1.074-8.641-2.487-3.485-6.3-5.025-8.521-3.44S573.443,152.244,575.932,155.728Z" transform="translate(-541.267 -100.399)" fill="#f7ad83"/>
          <path id="Trazado_116520" data-name="Trazado 116520" d="M580.693,138.366a58.1,58.1,0,0,0,7.243,19.265A12.357,12.357,0,0,0,590.781,161a5.065,5.065,0,0,0,4.159,1.045c1.666-.413,2.851-1.861,4.353-2.69,2.467-1.362,5.517-.945,8.23-1.7,1.711-.477,3.434-1.435,5.156-1a7.98,7.98,0,0,0,2.436.67c1.374-.1,2.144-1.643,2.368-3s-.528-3.385.382-4.418l.126.11a8.892,8.892,0,0,1,2.088,4.786c.083,1.556-.126,3.114-.14,4.673-.016,1.893.251,3.778.245,5.671a9.757,9.757,0,0,1-1.369,5.425,27.985,27.985,0,0,1-2.383,2.681c-2.011,2.3-3.242,5.453-5.967,6.831a3.309,3.309,0,0,1-1.084.361c-1.316.161-2.487-.807-3.782-1.091-1.4-.307-2.863.206-4.29.046a24.149,24.149,0,0,1-3.589-1.115c-1.257-.347-2.586-.355-3.848-.684-3.7-.96-6.132-4.391-8.158-7.629a15.05,15.05,0,0,1-2.043-4.211,15.522,15.522,0,0,1-.35-3.029,53.028,53.028,0,0,0-.862-8.39,17.607,17.607,0,0,0-3.429-7.625" transform="translate(-539.887 -102.437)" fill="#a36e46"/>
          <path id="Trazado_116521" data-name="Trazado 116521" d="M608.636,157.063c.162-.716.273-1.377.342-1.892a.609.609,0,0,0-.853-.639,35.279,35.279,0,0,1-3.468,1.334c-1.875.606-5.963.531-7.89.456a.61.61,0,0,0-.562.9,18.083,18.083,0,0,0,1.275,1.993,55.954,55.954,0,0,0,7.277-.857A32.01,32.01,0,0,0,608.636,157.063Z" transform="translate(-535.279 -98.094)" fill="#fff"/>
          <path id="Trazado_116522" data-name="Trazado 116522" d="M602.043,159.43a10.942,10.942,0,0,0-3.651.212,6.444,6.444,0,0,0,5.072,2.088,3.459,3.459,0,0,0,1.219-.381A4.928,4.928,0,0,0,602.043,159.43Z" transform="translate(-534.668 -96.78)" fill="#fff"/>
          <path id="Trazado_116523" data-name="Trazado 116523" d="M608.349,156.514a32.01,32.01,0,0,1-3.881,1.3,55.954,55.954,0,0,1-7.277.857,13.667,13.667,0,0,0,1.525,1.737,10.942,10.942,0,0,1,3.651-.212,4.928,4.928,0,0,1,2.639,1.92C606.9,161.162,607.872,158.6,608.349,156.514Z" transform="translate(-534.992 -97.545)" fill="#fff"/>
          <g id="Grupo_83312" data-name="Grupo 83312" transform="translate(61.869 102.904)">
            <path id="Trazado_116524" data-name="Trazado 116524" d="M597.78,302.778l0-.336a.331.331,0,0,1,.329-.333h0a.33.33,0,0,1,.33.328l0,.335a.331.331,0,0,1-.328.334h0A.33.33,0,0,1,597.78,302.778Zm-.024-2.978-.009-1.322a.33.33,0,0,1,.328-.333.338.338,0,0,1,.333.328l.01,1.322a.33.33,0,0,1-.329.333h0A.33.33,0,0,1,597.756,299.8Zm-.029-3.965-.01-1.32a.331.331,0,0,1,.328-.334h0a.331.331,0,0,1,.33.329l.01,1.32a.331.331,0,0,1-.328.334h0A.331.331,0,0,1,597.727,295.835Zm-.03-3.964-.01-1.322a.3.3,0,0,1,.331-.333.331.331,0,0,1,.33.328l.01,1.322a.331.331,0,0,1-.328.333h0A.331.331,0,0,1,597.7,291.871Zm-.03-3.964-.01-1.322a.331.331,0,0,1,.328-.333.314.314,0,0,1,.333.328l.01,1.322a.33.33,0,0,1-.328.333h0A.33.33,0,0,1,597.666,287.908Zm-.029-3.965-.01-1.32a.331.331,0,0,1,.328-.334h0a.331.331,0,0,1,.33.328l.01,1.322a.337.337,0,0,1-.33.334A.331.331,0,0,1,597.637,283.943Zm-.032-3.964-.01-1.32a.332.332,0,0,1,.328-.334h0a.332.332,0,0,1,.331.329l.01,1.32a.331.331,0,0,1-.328.334h0A.332.332,0,0,1,597.605,279.979Zm-.029-3.964-.01-1.322a.331.331,0,0,1,.328-.333h0a.331.331,0,0,1,.33.328l.01,1.322a.33.33,0,0,1-.328.333h0A.33.33,0,0,1,597.576,276.016Zm-.031-3.965-.01-1.32a.331.331,0,0,1,.329-.333.315.315,0,0,1,.333.328l.009,1.322a.33.33,0,0,1-.328.333h0A.329.329,0,0,1,597.545,272.051Zm-.03-3.962-.01-1.322a.33.33,0,0,1,.328-.333h0a.33.33,0,0,1,.33.328l.011,1.322a.33.33,0,0,1-.329.333h0A.331.331,0,0,1,597.515,268.089Zm-.029-3.964-.01-1.322a.309.309,0,0,1,.33-.333.33.33,0,0,1,.33.328l.01,1.322a.331.331,0,0,1-.328.333h0A.331.331,0,0,1,597.486,264.125Zm-.032-3.965-.01-1.322a.331.331,0,0,1,.328-.333.3.3,0,0,1,.334.328l.01,1.322a.33.33,0,0,1-.328.333h0A.331.331,0,0,1,597.454,260.16Zm-.029-3.964-.01-1.322a.33.33,0,0,1,.328-.333h0a.33.33,0,0,1,.33.328l.01,1.322a.33.33,0,0,1-.328.333h0A.33.33,0,0,1,597.425,256.2Zm-.03-3.964-.011-1.322a.331.331,0,0,1,.329-.333h0a.33.33,0,0,1,.33.328l.01,1.322a.331.331,0,0,1-.328.333h0A.331.331,0,0,1,597.394,252.233Zm-.031-3.965-.01-1.322a.331.331,0,0,1,.328-.333h0a.33.33,0,0,1,.33.328l.011,1.322a.331.331,0,0,1-.329.333h0A.331.331,0,0,1,597.364,248.268Zm-.03-3.964-.009-1.32a.309.309,0,0,1,.33-.334.331.331,0,0,1,.33.329l.009,1.32a.331.331,0,0,1-.328.334h0A.331.331,0,0,1,597.333,244.3Zm-.03-3.964-.01-1.322a.33.33,0,0,1,.328-.333c.183-.038.333.145.334.328l.01,1.322a.368.368,0,0,1-.33.333A.331.331,0,0,1,597.3,240.341Zm-.029-3.964-.01-1.322a.33.33,0,0,1,.328-.333h0a.331.331,0,0,1,.33.328l.01,1.322a.33.33,0,0,1-.66.005Zm-.03-3.965-.01-1.32a.331.331,0,0,1,.328-.334h0a.332.332,0,0,1,.33.329l.01,1.32a.331.331,0,0,1-.328.334h0A.331.331,0,0,1,597.243,232.413Zm-.03-3.964-.01-1.322a.33.33,0,0,1,.328-.333h0a.331.331,0,0,1,.331.328l.01,1.322a.33.33,0,0,1-.328.333h0A.331.331,0,0,1,597.213,228.45Zm-.03-3.964-.01-1.322a.331.331,0,0,1,.328-.333h0a.331.331,0,0,1,.33.328l.01,1.322a.33.33,0,0,1-.328.333h0A.33.33,0,0,1,597.182,224.486Zm-.029-3.964-.011-1.322a.331.331,0,0,1,.329-.333h0a.33.33,0,0,1,.33.328l.01,1.322a.33.33,0,0,1-.328.333h0A.33.33,0,0,1,597.153,220.522Zm-.032-3.965-.009-1.32a.318.318,0,0,1,.33-.334.33.33,0,0,1,.33.329l.01,1.32a.332.332,0,0,1-.329.334h0A.331.331,0,0,1,597.121,216.558Zm-.029-3.964-.01-1.322a.33.33,0,0,1,.328-.333h0a.331.331,0,0,1,.33.328l.01,1.322a.33.33,0,0,1-.328.333h0A.331.331,0,0,1,597.092,212.594Zm-.03-3.964-.01-1.322a.33.33,0,0,1,.328-.333h0a.331.331,0,0,1,.331.328l.01,1.322a.33.33,0,0,1-.328.333h0A.331.331,0,0,1,597.062,208.631Zm-.03-3.965-.01-1.32a.331.331,0,0,1,.328-.334h0a.332.332,0,0,1,.33.329l.01,1.32a.33.33,0,0,1-.328.334h0A.331.331,0,0,1,597.031,204.666ZM597,200.7l-.011-1.322a.33.33,0,0,1,.329-.333h0a.331.331,0,0,1,.33.328l.01,1.322a.331.331,0,0,1-.328.333h0A.331.331,0,0,1,597,200.7Zm-.032-3.965-.01-1.322a.331.331,0,0,1,.328-.333.344.344,0,0,1,.333.328l.011,1.322a.33.33,0,0,1-.329.333h0A.331.331,0,0,1,596.97,196.739Zm-.029-3.964-.01-1.322a.33.33,0,0,1,.328-.333h0a.33.33,0,0,1,.33.328l.01,1.322a.357.357,0,0,1-.33.333A.331.331,0,0,1,596.941,192.775Z" transform="translate(-596.931 -191.121)" fill="#0b4856"/>
          </g>
        </g>
        <g id="Grupo_83314" data-name="Grupo 83314" transform="translate(612.011 152.038)">
          <path id="Trazado_116525" data-name="Trazado 116525" d="M598.894,154.453a.547.547,0,0,1-.113-1.082c2.33-.491,2.68-1.149,2.721-1.409.123-.772-1.337-1.89-2.063-2.313a.538.538,0,0,1-.256-.342l-1.357-5.5a.547.547,0,0,1,1.063-.262l1.3,5.283c.683.429,2.633,1.8,2.392,3.308-.173,1.082-1.343,1.837-3.575,2.306A.5.5,0,0,1,598.894,154.453Z" transform="translate(-597.81 -143.126)" fill="#f7ad83"/>
        </g>
        <path id="Trazado_116526" data-name="Trazado 116526" d="M590.146,245.872a135.656,135.656,0,0,0-22.663-9.769Z" transform="translate(6.027 33.973)" fill="#b59406"/>
        <rect id="Rect치ngulo_34420" data-name="Rect치ngulo 34420" width="38.083" height="50.229" transform="translate(613.326 313.089) rotate(-165.715)" fill="#eae8e1"/>
        <path id="Trazado_116527" data-name="Trazado 116527" d="M598.6,248c1.169-.9,2.9-1.951,4.633-3.108,5.619-3.74,2.382-6.286,2.382-6.286l-7.007,3.6-5.359,2.625c-4.41.933-14.384,7.239-14.384,7.239l1.254,5.733,4.65,2.262a2.6,2.6,0,0,0,.475.385l8.245,3.858.005,0h0l11.091,5.19c1.319.687,2.67,1.035,3.357-.284l.126-.242c.687-1.319-.414-2.147-1.733-2.834l-4.516-2.623,9.072,4.247c1.319.686,2.671,1.033,3.357-.287l.127-.241c.687-1.319-.415-2.147-1.734-2.834l-.894-.519,5.126,2.073c1.353.616,2.722.89,3.338-.463l.112-.249c.616-1.355-.528-2.121-1.883-2.736l-6.688-3.423,5.365,1.544c1.411.471,2.8.6,3.272-.809l.086-.259c.471-1.41-.747-2.054-2.157-2.525l-17.537-6.777A17.152,17.152,0,0,1,598.6,248Z" transform="translate(9.093 34.649)" fill="#fcc5ac"/>
        <path id="Trazado_116528" data-name="Trazado 116528" d="M569.206,215.151c-1.047,3.43-4.9,25.818-4.9,25.818,6.051,3.2,32.96,12.622,32.96,12.622,1.136,6.027-3.335,13.286-3.335,13.286s-16.87-2.783-27.87-6.508a92.911,92.911,0,0,1-13.852-5.731c-12.047-6.542-.889-39.833-.889-39.833Z" transform="translate(0.401 28.232)" fill="#ec9b66"/>
        <path id="Trazado_116529" data-name="Trazado 116529" d="M596.172,252.139s-1.01,10.2-5.312,15.94c0,0-33.062-7.648-37.11-9.334s-9.334-7.2-8.547-13.72l3.823-32.174,23.216,1.559-5.42,25.077Z" transform="translate(0 27.706)" fill="#185c77"/>
        <g id="Grupo_83315" data-name="Grupo 83315" transform="translate(550.122 238.655)">
          <path id="Trazado_116530" data-name="Trazado 116530" d="M587.5,264.088s-.476-.076-1.32-.217a.33.33,0,0,1,.109-.651c.839.141,1.313.216,1.314.216a.33.33,0,0,1-.051.656A.361.361,0,0,1,587.5,264.088Zm-3.937-.668-1.308-.234a.331.331,0,0,1-.265-.385.327.327,0,0,1,.385-.265l1.3.234a.33.33,0,0,1-.056.655A.3.3,0,0,1,583.561,263.42Zm-3.917-.715-1.3-.249a.331.331,0,0,1-.261-.387.326.326,0,0,1,.387-.262l1.3.249a.33.33,0,0,1-.062.654A.375.375,0,0,1,579.644,262.7Zm-3.9-.763-1.3-.265a.332.332,0,0,1-.256-.391.323.323,0,0,1,.391-.255l1.295.264a.33.33,0,0,1-.065.654A.283.283,0,0,1,575.742,261.942Zm-3.894-.815-1.295-.286a.33.33,0,0,1,.145-.645l1.29.286a.33.33,0,0,1-.07.653A.336.336,0,0,1,571.848,261.127Zm-3.88-.879q-.646-.152-1.289-.31a.33.33,0,1,1,.157-.641c.425.1.854.207,1.284.309a.33.33,0,0,1-.076.651A.319.319,0,0,1,567.968,260.248Zm-3.863-.96q-.649-.169-1.282-.343a.332.332,0,0,1-.231-.408.328.328,0,0,1,.406-.23c.419.114.846.229,1.275.342a.33.33,0,0,1-.084.65A.324.324,0,0,1,564.105,259.289Zm-3.837-1.074q-.646-.194-1.27-.392a.331.331,0,1,1,.2-.63q.615.2,1.259.39a.33.33,0,0,1-.1.646A.368.368,0,0,1,560.269,258.215Zm-3.791-1.253c-.43-.159-.848-.319-1.244-.48a.33.33,0,0,1,.248-.612c.391.159.8.316,1.226.474a.33.33,0,0,1-.114.64A.315.315,0,0,1,556.478,256.962Zm-3.68-1.611a11.134,11.134,0,0,1-1.157-.716.33.33,0,0,1,.383-.537,10.73,10.73,0,0,0,1.091.674.33.33,0,0,1-.159.62A.328.328,0,0,1,552.8,255.35Zm-2.821-2.952a10.5,10.5,0,0,1-.382-1.309.331.331,0,0,1,.249-.4.338.338,0,0,1,.4.249,9.647,9.647,0,0,0,.357,1.225.331.331,0,0,1-.193.425.342.342,0,0,1-.117.02A.332.332,0,0,1,549.976,252.4Zm-.778-3.966q-.057-.642-.09-1.333a.33.33,0,0,1,.315-.344.326.326,0,0,1,.347.315c.02.449.048.886.086,1.3a.33.33,0,0,1-.3.358h-.029A.331.331,0,0,1,549.2,248.433Zm.19-3.659a.331.331,0,0,1-.328-.334q.006-.651.024-1.329a.331.331,0,0,1,.33-.321h.009a.331.331,0,0,1,.323.34c-.014.447-.022.886-.025,1.317a.331.331,0,0,1-.33.328Zm.128-3.967a.331.331,0,0,1-.31-.35c.028-.437.057-.877.091-1.324a.33.33,0,1,1,.658.049c-.033.443-.063.882-.089,1.317a.332.332,0,0,1-.33.31Zm.3-3.957a.33.33,0,0,1-.3-.361c.041-.438.085-.877.131-1.32a.331.331,0,0,1,.659.07c-.047.441-.09.877-.132,1.313a.331.331,0,0,1-.329.3Zm.42-3.946a.331.331,0,0,1-.288-.367q.08-.659.164-1.319a.331.331,0,0,1,.656.086c-.057.437-.112.875-.165,1.311a.33.33,0,0,1-.328.291Zm.508-3.938a.329.329,0,0,1-.279-.373l.187-1.31a.33.33,0,1,1,.653.094l-.187,1.309a.329.329,0,0,1-.326.284A.3.3,0,0,1,550.747,228.965Zm.581-3.927a.33.33,0,0,1-.277-.377q.1-.663.208-1.309a.322.322,0,0,1,.38-.273.331.331,0,0,1,.273.378q-.1.644-.208,1.305a.331.331,0,0,1-.326.279A.322.322,0,0,1,551.328,225.039Zm.637-3.918a.331.331,0,0,1-.27-.382l.226-1.305a.32.32,0,0,1,.382-.268.328.328,0,0,1,.268.382l-.225,1.3a.331.331,0,0,1-.326.274A.4.4,0,0,1,551.966,221.121Zm.691-3.909a.332.332,0,0,1-.267-.385l.242-1.3a.326.326,0,0,1,.387-.264.331.331,0,0,1,.263.386l-.242,1.3a.33.33,0,0,1-.325.272A.469.469,0,0,1,552.656,217.212Zm.736-3.9a.329.329,0,0,1-.259-.387l.258-1.3a.33.33,0,1,1,.647.127l-.258,1.3a.331.331,0,0,1-.324.267A.28.28,0,0,1,553.393,213.308Z" transform="translate(-549.061 -211.353)" fill="#0b4856"/>
        </g>
      </g>
    </g>
  </g>
</svg>
