<svg xmlns="http://www.w3.org/2000/svg" width="333.317" height="358.623" viewBox="0 0 333.317 358.623">
  <g id="Grupo_84012" data-name="Grupo 84012" transform="translate(2879.786 9723.5)">
    <path id="Trazado_116355" data-name="Trazado 116355" d="M504.721,295.828c3.144-26.455,17.693-50.123,24.474-75.887,5.077-19.289,5.717-39.422,8.214-59.211s7.166-39.993,19.026-56.03c15.807-21.372,44.169-32.67,70.342-28.02s48.907,25.029,56.382,50.539c9.641,32.9-4.988,67.8-4.179,102.073.449,19.025,5.665,37.568,8.813,56.336s4.09,38.739-3.575,56.158c-10.246,23.283-34.629,38.045-59.657,42.6-24.9,4.527-50.939.091-75.643-3.888-19.87-3.2-33.145-26.6-39.345-43.874A89.9,89.9,0,0,1,504.721,295.828Z" transform="matrix(0.921, 0.391, -0.391, 0.921, -3152.174, -9990.111)" fill="#6b8dff"/>
    <g id="Grupo_83274" data-name="Grupo 83274" transform="translate(-3000.355 -10651.995)">
      <path id="Trazado_116356" data-name="Trazado 116356" d="M424.6,1866.415c0,4.679-57.818,8.472-129.14,8.472s-129.14-3.793-129.14-8.472,57.818-8.472,129.14-8.472S424.6,1861.736,424.6,1866.415Z" transform="translate(-32.32 -605.204)" fill="#8bc194"/>
      <g id="Grupo_83273" data-name="Grupo 83273" transform="translate(120.569 1001.233)">
        <path id="Trazado_116357" data-name="Trazado 116357" d="M325.325,1355.664c-7.283,11.131-4.342,25.354.375,37.571a162.577,162.577,0,0,0,18.557,34.7c1.888,2.694,3.9,5.42,4.646,8.54s-.084,6.789-2.961,8.626c-1.1.7-2.454,1.12-3.314,2.059-2.155,2.35.123,5.781,2.16,8.217a58.716,58.716,0,0,1,13.035,47.862,3.268,3.268,0,0,0,.3,2.751,3.638,3.638,0,0,0,1.851.965,29.814,29.814,0,0,0,12.3.806,3.034,3.034,0,0,0,1.53-.528,2.591,2.591,0,0,0,.681-1.965c.71-14.026,1.393-28.3-2.426-41.9-.977-3.483-2.257-7.007-1.873-10.584.386-3.592,2.409-6.841,4.237-10.047a115.525,115.525,0,0,0,14.232-42c.937-7.094,1.17-14.423-1.16-21.247-3.377-9.89-12.142-17.959-22.68-21.929s-22.643-3.991-33.516-.855Z" transform="translate(-262.109 -1250.759)" fill="#d8c8ba"/>
        <path id="Trazado_116358" data-name="Trazado 116358" d="M442.64,1846.751s-2.339,8.075-1.385,8.746c1.565,1.1,20.818,1.911,23.276-.273s-2.865-13.634-5.051-13.1S442.64,1846.751,442.64,1846.751Z" transform="translate(-346.949 -1595.251)" fill="#231f20"/>
        <path id="Trazado_116359" data-name="Trazado 116359" d="M431.437,1608.505a7.834,7.834,0,0,0-3.03-3.8c-.676-.522-1.377-1.006-2.092-1.466,2.438-3.909,3.755-8.607,2.755-13.068-1.193-5.318-5.533-9.535-10.52-11.733s-10.57-2.635-16.02-2.563c-8.637.113-30.054,2.2-27.791,15.256a23.029,23.029,0,0,0,4.189,10.574c-1.18,2.66-2.125,9.008-2.205,12.566-.111,4.917,4.837,8.83,7.188,2.622.877-2.315.552-4.9,1.035-7.331a4.537,4.537,0,0,1,.191-.672,30.629,30.629,0,0,0,2.669,2.058q.163,2.41.326,4.821a12.781,12.781,0,0,0,1.256,5.621c.971,1.677,3.023,2.9,4.858,2.275,2.446-.83,2.927-4.022,2.982-6.6a18.467,18.467,0,0,1,.138-1.968,27.763,27.763,0,0,0,9.964.226c1.34,1.992,2.865,3.95,5.066,4.838,2.475,1,5.974-.156,6.369-2.8.234-1.564-.649-3.062-1.574-4.345-.194-.269-.392-.539-.587-.813a27.223,27.223,0,0,0,4.967-3.428,15.03,15.03,0,0,0,5.96,3.668,3.877,3.877,0,0,0,2.045.109C431.166,1612.107,431.885,1610.093,431.437,1608.505Z" transform="translate(-300.004 -1407.168)" fill="#efaf93"/>
        <path id="Trazado_116360" data-name="Trazado 116360" d="M814.6,1579.31c3.468.4,11.7.8,15.166,1.2a266.808,266.808,0,0,1,21.117-110.56c1.132-2.681,2.3-5.725.867-8.295-1.492-2.682-5.207-3.722-8.572-4.174a54.481,54.481,0,0,0-30.229,4.618,25.163,25.163,0,0,0-9.229,6.78c-4.076,5.245-2.607,10.708-.591,16.239,2.7,7.414,9.171,53.063,10.515,68.581C813.84,1555.96,814.53,1579.3,814.6,1579.31Z" transform="translate(-601.336 -1323.203)" fill="#d8c8ba"/>
        <path id="Trazado_116361" data-name="Trazado 116361" d="M451.53,1253.663c-3.247,17.142-15.3,31.078-26.892,44.115-2.613,2.938-5.3,5.932-8.738,7.83-5.559,3.064-12.249,2.855-18.583,3.27-9.4.617-18.625,2.774-27.882,4.535a335.745,335.745,0,0,1-127.391-.441c-4.387-.866-8.9-1.884-12.5-4.536s-5.932-6.7-8.006-10.678c-6.9-13.252-12.347-27.6-12.976-42.527s4.075-30.561,14.949-40.809c6.547-6.171,14.957-10.1,23.646-12.435,31.526-8.461,75.151,3.346,107.332-2.119,8.28-1.406,13.566-4.9,21.938-4.238,7.776.613,8.436,4.887,16.211,4.259,12.638-1.021,22.494-12.234,35.041-14.058,10.693-1.555,21.6,4.385,27.807,13.228,2.975,4.236,5.064,9.257,5,14.433-.08,6.978-5.423,9.6-7.243,15.352C450.876,1236.335,453.017,1245.81,451.53,1253.663Z" transform="translate(-182.688 -1131.463)" fill="#f9e6d5"/>
        <path id="Trazado_116362" data-name="Trazado 116362" d="M488.222,1236.406c.06-5.176-2.03-10.2-5-14.433a32.693,32.693,0,0,0-3.274-3.953,21.059,21.059,0,0,1,1.114,6.84c-.08,6.978-5.423,9.6-7.243,15.352-2.369,7.491-.227,16.967-1.714,24.819-3.247,17.142-15.3,31.078-26.892,44.114-2.613,2.938-5.3,5.932-8.738,7.83-5.559,3.064-12.249,2.855-18.583,3.27-9.4.617-18.625,2.774-27.882,4.535a335.751,335.751,0,0,1-127.39-.441c-4.387-.866-8.9-1.885-12.5-4.536a17.709,17.709,0,0,1-2.347-2.09q.74,1.488,1.5,2.959c2.074,3.981,4.391,8.016,8.006,10.678s8.117,3.67,12.5,4.536a335.745,335.745,0,0,0,127.391.442c9.257-1.761,18.479-3.918,27.882-4.535,6.334-.415,13.023-.206,18.583-3.27,3.443-1.9,6.126-4.892,8.738-7.83,11.594-13.037,23.645-26.973,26.892-44.115,1.487-7.853-.654-17.328,1.714-24.82C482.8,1246,488.142,1243.384,488.222,1236.406Z" transform="translate(-210.423 -1154.377)" fill="#e8d7c8"/>
        <path id="Trazado_116363" data-name="Trazado 116363" d="M627.958,1187.122c-12.053,2.27-21.71,12.888-33.993,13.881-7.775.628-8.435-3.646-16.211-4.259-8.373-.66-13.659,2.832-21.939,4.238-18.427,3.129-40.606.6-62.117-.552a7.013,7.013,0,0,0,2.926,4.762c3.305,2.179,7.907.944,11.458,2.695a2.5,2.5,0,0,1,1.274,1.147c.908,2.116-3.221,3.54-2.947,5.825a3.327,3.327,0,0,0,1.225,1.879,52.614,52.614,0,0,0,28.715,13.679c3.318.451,7.376,1.082,8.53,4.225a7.569,7.569,0,0,1,.19,3.529c-.947,7.708-4.534,16-.763,22.79,2.258,4.065,6.858,6.492,11.49,6.892a24.688,24.688,0,0,0,13.39-3.172,17.751,17.751,0,0,0,6.962-5.816c1.993-3.125,2.351-6.974,2.947-10.632a70.731,70.731,0,0,1,2.961-11.737c1.167-3.375,2.8-6.9,5.921-8.628,3.055-1.69,6.785-1.261,10.265-.978a93.538,93.538,0,0,0,11.979.2c5.2-.245,10.891-1.193,14.233-5.178,4.09-4.87,3.733-12.069,6.527-17.608C633.921,1198.48,632.555,1192.2,627.958,1187.122Z" transform="translate(-384.158 -1132.55)" fill="#543f30"/>
        <g id="Grupo_83272" data-name="Grupo 83272" transform="translate(206.616)">
          <path id="Trazado_116364" data-name="Trazado 116364" d="M884.8,1058.578s-16.538-4.844-18.063-17.659c-1.77-14.871,6.643-19.45,8.117-18.372,1.529,1.119-3.3,7.478-.018,14.849s16.819,9.274,16.819,9.274Z" transform="translate(-854.129 -1016.184)" fill="#99855c"/>
          <path id="Trazado_116365" data-name="Trazado 116365" d="M1121.717,1038s16.2-5.868,16.925-18.753c.837-14.953-7.845-19-9.249-17.829-1.457,1.213,3.762,7.258.945,14.819s-16.207,10.306-16.207,10.306Z" transform="translate(-1029.065 -1001.233)" fill="#99855c"/>
          <path id="Trazado_116366" data-name="Trazado 116366" d="M853.949,1137.121c-2.139-.378-4.176-1.2-6.3-1.64a17.63,17.63,0,0,0-8.36.324c-4.726,1.357-8.727,4.655-13.478,5.921-.512.136-1.1.3-1.327.775a1.557,1.557,0,0,0-.1.8,8.536,8.536,0,0,0,4.831,6.586,19.467,19.467,0,0,0,8.281,1.753,29.23,29.23,0,0,0,9.158-.879c4.889-1.4,9.03-4.639,12.808-8.045a7.523,7.523,0,0,0,2.418-3.174c.452-1.489-.274-3.429-1.963-3.228-.887.105-1.781.781-2.729.915A10.349,10.349,0,0,1,853.949,1137.121Z" transform="translate(-824.37 -1095.819)" fill="#543f30"/>
          <path id="Trazado_116367" data-name="Trazado 116367" d="M854.02,1157.447c-2.547-.272-5.1-.98-7.632-.662-3.483.439-6.6,2.788-10.12,2.777a1.371,1.371,0,0,0-.752.129c-.546.345-.348,1.268.049,1.814a6.583,6.583,0,0,0,4.372,2.217,27.2,27.2,0,0,0,19.985-4.277c.5-.342,1.4-.931,1.558-1.6.29-1.214-.5-.724-1.379-.577A22.4,22.4,0,0,1,854.02,1157.447Z" transform="translate(-832.008 -1111.063)" fill="#efaf93"/>
          <path id="Trazado_116368" data-name="Trazado 116368" d="M835.857,1161.926a.679.679,0,0,1,.284-.37,1.369,1.369,0,0,1,.752-.129c3.516.011,6.637-2.34,10.12-2.778,2.531-.319,5.084.39,7.632.662a22.417,22.417,0,0,0,5.871-.15,2.511,2.511,0,0,0,1-1.212c.291-1.214-.5-.724-1.379-.576a22.431,22.431,0,0,1-6.081.181c-2.548-.272-5.1-.98-7.632-.661-3.483.438-6.6,2.788-10.12,2.777a1.375,1.375,0,0,0-.752.129c-.546.345-.348,1.268.049,1.814C835.682,1161.724,835.768,1161.826,835.857,1161.926Z" transform="translate(-832.033 -1111.138)" fill="#d69a85"/>
          <path id="Trazado_116369" data-name="Trazado 116369" d="M1136.38,1110.986c2.1-.459,4.085-1.357,6.175-1.872a17.464,17.464,0,0,1,8.286-.011c4.731,1.156,8.821,4.262,13.573,5.327a1.871,1.871,0,0,1,1.344.714,1.539,1.539,0,0,1,.128.785,8.454,8.454,0,0,1-4.52,6.709,19.289,19.289,0,0,1-8.126,2.063,28.965,28.965,0,0,1-9.1-.508c-4.894-1.2-9.12-4.233-12.994-7.455a7.443,7.443,0,0,1-2.518-3.046c-.506-1.455.136-3.4,1.815-3.272.882.069,1.793.7,2.737.8A10.26,10.26,0,0,0,1136.38,1110.986Z" transform="translate(-1039.189 -1077.087)" fill="#543f30"/>
          <path id="Trazado_116370" data-name="Trazado 116370" d="M1163.709,1130.43c2.511-.37,5.01-1.172,7.527-.957,3.464.3,6.646,2.5,10.125,2.349a1.356,1.356,0,0,1,.749.1c.554.32.395,1.241.023,1.8a6.52,6.52,0,0,1-4.239,2.367,26.945,26.945,0,0,1-19.947-3.442c-.511-.318-1.419-.866-1.6-1.526-.336-1.189.464-.736,1.342-.625A22.184,22.184,0,0,0,1163.709,1130.43Z" transform="translate(-1058.83 -1091.8)" fill="#efaf93"/>
          <path id="Trazado_116371" data-name="Trazado 116371" d="M1181.863,1134.144a.675.675,0,0,0-.3-.355,1.354,1.354,0,0,0-.749-.1c-3.479.15-6.661-2.052-10.125-2.349-2.517-.215-5.016.586-7.527.957a22.206,22.206,0,0,1-5.816.084,2.49,2.49,0,0,1-1.038-1.16c-.336-1.19.464-.737,1.342-.625a22.194,22.194,0,0,0,6.025-.061c2.511-.37,5.01-1.172,7.526-.957,3.464.3,6.646,2.5,10.125,2.349a1.356,1.356,0,0,1,.749.1c.554.32.395,1.241.023,1.8C1182.027,1133.936,1181.946,1134.042,1181.863,1134.144Z" transform="translate(-1058.808 -1091.875)" fill="#d69a85"/>
          <path id="Trazado_116372" data-name="Trazado 116372" d="M950.977,1071.309c-11.866,1.482-22.728,5.51-26,14.032s-6.474,21.575,2.655,32.188c8.6,10,11.437,24.08,16.348,32.391,7.084,11.99,28.665,11.566,34.424-4.522,2.725-7.613,5.568-28.287,10.166-37.025,5.686-10.808-3.069-28.032-9.7-32.953S960.215,1070.155,950.977,1071.309Z" transform="translate(-893.092 -1050.347)" fill="#543f30"/>
          <path id="Trazado_116373" data-name="Trazado 116373" d="M996.125,1075.4c-6.631-4.921-18.654-5.265-27.891-4.111-8.9,1.112-17.239,3.656-22.23,8.456,6.533.721,10.026,6.074,13.747,10.631,3.686,4.513,3.712,9.743,4.422,15.526,1.46,11.889,4.652,23.588,3.247,34.3-.458,3.487.81,5.643,3.56,7.837,1.754,1.4,4.209,1.409,6.449,1.277q3.407-.2,6.794-.637a8.288,8.288,0,0,0,3.811-1.168,5.977,5.977,0,0,0,2.161-5.094c-.056-1.921,2.369-1.087,1.814-2.926-2.438-8.08-3.418-20.005-4.481-28.377-.873-6.878-1.668-12.5-1.062-18.112.678-6.267,4.934-12,10.322-15.271.392-.238.794-.462,1.2-.681A15.965,15.965,0,0,0,996.125,1075.4Z" transform="translate(-910.296 -1050.335)" fill="#f9e6d5"/>
          <path id="Trazado_116374" data-name="Trazado 116374" d="M944.26,1168.405a9.029,9.029,0,0,0,.027-3.675,10.871,10.871,0,0,0-1.179-4.232c-1.014-1.687-2.922-2.846-3.424-4.749-.493-1.869.542-3.923-.088-5.75-.872-2.533-4.42-3.033-6.867-1.942-2.541,1.133-4.329,3.375-6.75,4.687a9.594,9.594,0,0,1-4.295,1.059,24.84,24.84,0,0,0,5.947,17.948,45.491,45.491,0,0,1,5.221,7.622,19.275,19.275,0,0,1,3.6-4.326C939.166,1172.839,943.294,1171.766,944.26,1168.405Z" transform="translate(-893.092 -1104.568)" fill="#f9e6d5"/>
          <path id="Trazado_116375" data-name="Trazado 116375" d="M1105.422,1123a10.491,10.491,0,0,0-6.307,3.313c-1.776,1.838-2.919,4.495-2.291,6.972a5.164,5.164,0,0,1,.36,2.063c-.142.856-2.426-1.776-5.241.395-1.907,1.471-3.043,3.565-2,7.256.629,2.219,4.039,3.053,4.336,3.089,1.8.218,3.732-.844,5.316-1.73a14.6,14.6,0,0,1,3.063-1.663c1.756-.485,3.57.278,5.384.572C1110.206,1137.074,1108.47,1129.346,1105.422,1123Z" transform="translate(-1011.699 -1087.254)" fill="#f9e6d5"/>
          <path id="Trazado_116376" data-name="Trazado 116376" d="M999.729,1300.87c-2.1.781-4.346,1.8-5.349,3.808a6.653,6.653,0,0,0-.566,3.385,11.245,11.245,0,0,0,6.7,9.452c2.918,1.232,6.2,1.15,9.367.966,2.893-.168,5.785-.4,8.654-.817,2.985-.43,6.077-1.116,8.39-3.05a12.053,12.053,0,0,0,3.878-7.493c.312-2.049.159-4.362-1.268-5.866a7.489,7.489,0,0,0-2.557-1.6C1017.837,1295.739,1008.68,1297.543,999.729,1300.87Z" transform="translate(-944.057 -1210.478)" fill="#efaf93"/>
          <path id="Trazado_116377" data-name="Trazado 116377" d="M1017.7,1321.817c.571.98,1.766,1.358,2.738,1.943a6.294,6.294,0,0,1,2.819,3.792,21.581,21.581,0,0,0,.356-5.728,5.785,5.785,0,0,0-.227-1.379,4.065,4.065,0,0,0-3.606-2.6A2.84,2.84,0,0,0,1017.7,1321.817Z" transform="translate(-960.742 -1224.888)" fill="#543f30"/>
          <path id="Trazado_116378" data-name="Trazado 116378" d="M1088.824,1313.656c-.139,1.126-1.089,1.944-1.752,2.864a6.294,6.294,0,0,0-1.1,4.6,21.591,21.591,0,0,1-2.584-5.124,5.794,5.794,0,0,1-.335-1.357,4.065,4.065,0,0,1,2.289-3.812A2.84,2.84,0,0,1,1088.824,1313.656Z" transform="translate(-1007.106 -1219.868)" fill="#543f30"/>
          <g id="Grupo_83270" data-name="Grupo 83270" transform="translate(31.211 51.384)">
            <path id="Trazado_116379" data-name="Trazado 116379" d="M960.956,1181.133a4.738,4.738,0,1,1-5.175-4.257A4.738,4.738,0,0,1,960.956,1181.133Z" transform="translate(-945.391 -1176.68)" fill="#231f20"/>
            <path id="Trazado_116380" data-name="Trazado 116380" d="M960.885,1186.292a1.827,1.827,0,1,1-2-1.641A1.827,1.827,0,0,1,960.885,1186.292Z" transform="translate(-949.444 -1182.183)" fill="#fff"/>
            <path id="Trazado_116381" data-name="Trazado 116381" d="M943.232,1176.759a7.155,7.155,0,0,0-2.914-.484,10.52,10.52,0,0,0-4.915,1.991,17.523,17.523,0,0,1-4.718,2.5,20.482,20.482,0,0,0,5.239,1.216,2.073,2.073,0,0,0,1.091-.1,1.782,1.782,0,0,0,.826-1.132,7.226,7.226,0,0,1,.454-1.366,3.263,3.263,0,0,1,2.98-1.335c.889.011,2.286.481,3.126.158C945.429,1177.813,943.683,1176.928,943.232,1176.759Z" transform="translate(-930.685 -1176.264)" fill="#231f20"/>
          </g>
          <g id="Grupo_83271" data-name="Grupo 83271" transform="translate(81.471 46.298)">
            <path id="Trazado_116382" data-name="Trazado 116382" d="M1101.9,1165.214a4.738,4.738,0,1,0,4.347-5.1A4.738,4.738,0,0,0,1101.9,1165.214Z" transform="translate(-1101.887 -1159.759)" fill="#231f20"/>
            <path id="Trazado_116383" data-name="Trazado 116383" d="M1115.552,1169.16a1.827,1.827,0,1,0,1.676-1.966A1.827,1.827,0,0,0,1115.552,1169.16Z" transform="translate(-1111.536 -1164.767)" fill="#fff"/>
            <path id="Trazado_116384" data-name="Trazado 116384" d="M1106.636,1159.968a7.154,7.154,0,0,1,2.783-.988,10.524,10.524,0,0,1,5.189,1.1,17.534,17.534,0,0,0,5.084,1.636,20.516,20.516,0,0,1-4.944,2.116,2.075,2.075,0,0,1-1.091.092,1.782,1.782,0,0,1-1.013-.97,7.19,7.19,0,0,0-.687-1.265,3.264,3.264,0,0,0-3.169-.792c-.873.167-2.166.875-3.05.7C1104.658,1161.392,1106.221,1160.214,1106.636,1159.968Z" transform="translate(-1104.344 -1158.939)" fill="#231f20"/>
          </g>
          <path id="Trazado_116385" data-name="Trazado 116385" d="M878.214,1068.7a9.575,9.575,0,0,0,3.542,2.487,3.171,3.171,0,0,0,2.35.063,1.611,1.611,0,0,0,.921-1.97,2.737,2.737,0,0,0-1.521-1.166,15.365,15.365,0,0,1-7.211-6.986,15.651,15.651,0,0,1-1.457-9.04c.118-.923.554-2.659-.89-1.486-.8.649-.766,2.53-.842,3.458A19.1,19.1,0,0,0,878.214,1068.7Z" transform="translate(-858.754 -1035.833)" fill="#fff" opacity="0.35"/>
          <path id="Trazado_116386" data-name="Trazado 116386" d="M1143.526,1067.547a14.026,14.026,0,0,0,3.675-2.9,6.167,6.167,0,0,0,1.565-4.315.749.749,0,0,0-.129-.426.563.563,0,0,0-.719-.051,1.879,1.879,0,0,0-.508.6c-2.253,3.434-4.988,4.47-8.834,6.591-.922.508-1.837,2.025-.611,2.7C1139.3,1070.468,1142.443,1068.226,1143.526,1067.547Z" transform="translate(-1045.484 -1042.569)" fill="#fff" opacity="0.35"/>
        </g>
        <path id="Trazado_116387" data-name="Trazado 116387" d="M404.791,1461.01a57.309,57.309,0,0,0-2.011-15.44,41.074,41.074,0,0,0-15.353-21.394c1.141,16.664-4.6,34.873-14.6,52.365-.585,1.021-1.2,2.166-.742,3,.39.716,1.465.986,2.508,1.143,5.846.88,12.524-.366,18.92-1.26,2.312-.323,6.28-.062,8-1.884,1.859-1.966,2.241-5.465,2.628-7.5A44.605,44.605,0,0,0,404.791,1461.01Z" transform="translate(-298.135 -1300.012)" fill="#e8d7c8"/>
        <path id="Trazado_116388" data-name="Trazado 116388" d="M208.851,1355.664c-12.021,14.475,3.32,56.409,13.718,70.557,1.948,2.651,6.242,7.108,6.989,10.228s2.787,6.818-.09,8.656c-1.1.7-2.454,1.12-3.314,2.059-2.155,2.35.122,5.781,2.16,8.217a58.717,58.717,0,0,1,13.035,47.862,3.269,3.269,0,0,0,.3,2.751,3.637,3.637,0,0,0,1.851.965,29.815,29.815,0,0,0,12.3.806,3.035,3.035,0,0,0,1.53-.528,2.591,2.591,0,0,0,.681-1.965c.71-14.026,1.394-28.3-2.426-41.9-.978-3.483-2.258-7.007-1.873-10.584.386-3.592,2.409-6.841,4.237-10.047a115.526,115.526,0,0,0,14.232-42c.936-7.094,1.17-14.423-1.16-21.247-3.377-9.89-12.142-17.959-22.68-21.929s-22.644-3.991-33.517-.855Z" transform="translate(-179.829 -1250.759)" fill="#f9e6d5"/>
        <path id="Trazado_116389" data-name="Trazado 116389" d="M689.607,1538.911a2.966,2.966,0,0,1-1.8-.621,2.662,2.662,0,0,1-.662-1.477c-.648-3.49-5.74-6.285-2.316-7.222,6.713-1.837,9.365-8.47,11-11.62a20.905,20.905,0,0,0,2.021-13.169,40.587,40.587,0,0,0,8.088,15.341c2.452,2.9,5.478,5.821,5.7,9.615a5.384,5.384,0,0,1-.568,2.887c-1.4,2.586-5.7,3.4-8.269,4.486A27.224,27.224,0,0,1,689.607,1538.911Z" transform="translate(-518.35 -1356.969)" fill="#e8d7c8"/>
        <path id="Trazado_116390" data-name="Trazado 116390" d="M750.5,1579.31c3.469.4,11.7.8,15.166,1.2a266.806,266.806,0,0,1,21.117-110.56c1.132-2.681,2.3-5.725.867-8.295-1.493-2.682-5.207-3.722-8.572-4.174a54.482,54.482,0,0,0-30.229,4.618c-3.562,1.694-6.947,3.844-9.229,6.78-4.076,5.245-2.607,10.708-.591,16.239,2.7,7.414,9.171,53.063,10.515,68.581C749.737,1555.96,750.427,1579.3,750.5,1579.31Z" transform="translate(-556.052 -1323.203)" fill="#f9e6d5"/>
        <path id="Trazado_116391" data-name="Trazado 116391" d="M280.416,1259.4l-8.636-5.288c-2.3-1.409-4.674-2.845-7.334-3.288-6.337-1.054-12.623,3.731-18.924,2.479-2.966-.589-5.5-2.452-8.3-3.6a50.239,50.239,0,0,0-32.646,51.222c.869,14.327,5.478,28.262,11.994,41.074,4.869-1.747,11.478-1.332,15.268-5.9a9.9,9.9,0,0,0,1.629-10.172c-.952-2.079-2.688-3.673-4.314-5.28a62.021,62.021,0,0,1-7.034-8.177c-1.541-2.174-2.95-4.594-3.089-7.256s1.375-5.574,3.961-6.221c3.624-.9,7.492,2.78,10.9,1.248a1.866,1.866,0,0,0,1.044-.971,2.149,2.149,0,0,0-.078-1.359c-.709-2.295-2.3-4.239-2.988-6.541s.057-5.4,2.39-5.971a4.558,4.558,0,0,1,4.161,1.641c1.075,1.135,1.838,2.536,2.915,3.669a9.132,9.132,0,0,0,10.26,1.9,4.314,4.314,0,0,0,2.339-2.256,5.823,5.823,0,0,0-.177-3.318,95.723,95.723,0,0,1-2.285-13.172c-.217-2.124-.317-4.439.882-6.2a9.628,9.628,0,0,1,4.263-2.965,21.025,21.025,0,0,1,6.246-2.043,7.282,7.282,0,0,1,6.08,1.891c4.082,4.322-.624,12.535,3.316,16.987,1.7,1.925,4.581,2.422,7.112,1.966a11.966,11.966,0,0,0,6.971-19.558A24,24,0,0,0,280.416,1259.4Z" transform="translate(-179.841 -1176.755)" fill="#543f30"/>
        <path id="Trazado_116392" data-name="Trazado 116392" d="M819.573,1360c-3.543,1.944-6.581,5.853-5.585,9.768.642,2.525,2.806,4.45,3.445,6.975,1.546,6.113-6.23,10.947-6.568,17.244a7.967,7.967,0,0,0,6.149,7.962c3.766.771,7.742-1.312,11.45-.3,2.482.679,4.582,2.694,7.155,2.74,3.124.056,5.533-2.852,6.572-5.8s1.23-6.175,2.571-9c1.235-2.6,3.349-4.653,5.326-6.744s3.915-4.38,4.65-7.162-.083-6.173-2.585-7.6c-3.047-1.732-7.27-.029-10.186-1.973-3.3-2.2-3.507-6.191-7.586-7.477A19.6,19.6,0,0,0,819.573,1360Z" transform="translate(-608.207 -1253.109)" fill="#543f30"/>
        <path id="Trazado_116393" data-name="Trazado 116393" d="M513.332,1307.729a8.433,8.433,0,0,0-1.233,5.236,8.121,8.121,0,0,0,1.707,4.828c2.18,2.563,6,2.764,9.367,2.713s7.152.006,9.493,2.423c1.59,1.642,2.18,4.1,3.9,5.6,2.581,2.262,6.89,1.392,9.247-1.1a5.05,5.05,0,0,0,1.591-3.953c-.363-2.789-3.677-3.936-6.373-4.734a50.017,50.017,0,0,1-15.183-7.5C522.281,1308.646,517.4,1301.755,513.332,1307.729Z" transform="translate(-397.143 -1216.076)" fill="#543f30"/>
        <path id="Trazado_116394" data-name="Trazado 116394" d="M910.864,1321.126a14.893,14.893,0,0,0-3.7.83,3.521,3.521,0,0,0-2.245,2.828,5.01,5.01,0,0,0,.807,2.505c1.221,2.289,2.623,4.746,5.026,5.723a7.552,7.552,0,0,0,5.275-.08,22.448,22.448,0,0,0,4.73-2.56,12.3,12.3,0,0,0,3.8-3.3c2.028-3.092.691-8.678-3.316-9.555C918,1316.81,914.188,1320.576,910.864,1321.126Z" transform="translate(-674.655 -1224.604)" fill="#543f30"/>
        <path id="Trazado_116395" data-name="Trazado 116395" d="M164.571,1312.993c-3.586,6.427-5.473,13.666-6.727,20.919-4.454,25.767-1.372,52.71-8.666,77.821l2.059,1.17c7.214-22.426,6.966-46.487,10.891-69.715,1.2-7.107,3.036-14.591,8.243-19.575,4.126-3.949,10.138-6.081,12.873-11.095,2.4-4.39,1.537-13.343-5.187-12.57C172.338,1300.607,167.1,1308.454,164.571,1312.993Z" transform="translate(-140.779 -1212.221)" fill="#543f30"/>
        <path id="Trazado_116396" data-name="Trazado 116396" d="M126.539,1636.034c-3.915,4.159-4.751,10.316-4.765,16.028s.577,11.582-1.2,17.01c5.387-5.4,10.609-11.033,14.661-17.492,1.968-3.137,3.7-6.647,3.547-10.348C138.507,1634.529,131.434,1630.834,126.539,1636.034Z" transform="translate(-120.569 -1447.941)" fill="#543f30"/>
        <path id="Trazado_116397" data-name="Trazado 116397" d="M326.822,1846.751s-2.339,8.075-1.385,8.746c1.565,1.1,20.818,1.911,23.276-.273s-2.865-13.634-5.051-13.1S326.822,1846.751,326.822,1846.751Z" transform="translate(-265.132 -1595.251)" fill="#231f20"/>
        <path id="Trazado_116398" data-name="Trazado 116398" d="M779.194,1846.186s-1.95,9.206-1,9.878c1.565,1.1,19.252,1.462,21.472.308,2.918-1.516-3.5-14.775-5.686-14.24S779.194,1846.186,779.194,1846.186Z" transform="translate(-584.95 -1595.256)" fill="#231f20"/>
        <path id="Trazado_116399" data-name="Trazado 116399" d="M836.407,1846.025s-4.946,8.8-3.992,9.472c1.565,1.1,20.818,1.911,23.276-.273s-2.865-13.634-5.051-13.1S836.407,1846.025,836.407,1846.025Z" transform="translate(-623.351 -1595.251)" fill="#231f20"/>
        <path id="Trazado_116400" data-name="Trazado 116400" d="M822.386,1842.254c-.665.163-2.3.6-4.245,1.135,2.576,2.068,7.05,11.985,4.92,13.742a17.347,17.347,0,0,0,5.011-.638C830.99,1854.977,824.572,1841.719,822.386,1842.254Z" transform="translate(-613.353 -1595.343)" fill="#423b3d"/>
        <path id="Trazado_116401" data-name="Trazado 116401" d="M982.361,1087.313a5.141,5.141,0,0,0,.969,4.034,24.676,24.676,0,0,0,2.891,3.142,26.557,26.557,0,0,1,6.26,10.356c1.46,4.516,1.683,9.347,2.98,13.911a5.434,5.434,0,0,0,.972,2.1,2.093,2.093,0,0,0,2.073.759,2.123,2.123,0,0,0,1.358-1.665,6.253,6.253,0,0,0-.089-2.244l-2.453-15.155c-.509-3.146-1.019-6.3-1.785-9.389a14.973,14.973,0,0,0-3.1-6.729C990.137,1083.952,983.45,1082.911,982.361,1087.313Z" transform="translate(-729.286 -1059.908)" fill="#fff"/>
        <path id="Trazado_116402" data-name="Trazado 116402" d="M1033.166,1226.418a4.788,4.788,0,0,0,.224,4.733,2.186,2.186,0,0,0,.744.754,1.981,1.981,0,0,0,1.073.2,3.332,3.332,0,0,0,3-3.454C1038.052,1226.694,1034.384,1224.089,1033.166,1226.418Z" transform="translate(-764.886 -1159.661)" fill="#fff"/>
        <path id="Trazado_116403" data-name="Trazado 116403" d="M280.59,1255.737a14.613,14.613,0,0,0-4.354,5.747c-.806,2.292-.459,5.141,1.4,6.708,1.938,1.635,4.915,1.415,7.163.245s3.979-3.109,5.808-4.865a47.421,47.421,0,0,1,36.927-12.806,10.908,10.908,0,0,0,4.4-.1,3.242,3.242,0,0,0,2.426-3.271,3.622,3.622,0,0,0-1.537-2.192c-2.963-2.233-7.018-2.113-10.722-1.893-7.259.431-15.211-.194-22.238,1.812A49.355,49.355,0,0,0,280.59,1255.737Z" transform="translate(-230.248 -1172.163)" fill="#fff" opacity="0.51"/>
        <path id="Trazado_116404" data-name="Trazado 116404" d="M249.278,1356.086c.16,1.538.79,3.334,2.3,3.673a2.9,2.9,0,0,0,2.12-.467c1.8-1.119,2.6-3.3,3.077-5.367a34.8,34.8,0,0,0,.8-5.1c.274-3.387-1.947-6.827-5.27-4.057C249.469,1347.129,248.929,1352.722,249.278,1356.086Z" transform="translate(-211.426 -1243.203)" fill="#fff" opacity="0.51"/>
      </g>
    </g>
  </g>
</svg>
