<svg xmlns="http://www.w3.org/2000/svg" xmlns:xlink="http://www.w3.org/1999/xlink" width="325.155" height="368.234" viewBox="0 0 325.155 368.234">
  <defs>
    <clipPath id="clip-path">
      <rect y="44" width="325.155" height="368.234" fill="none"/>
    </clipPath>
  </defs>
  <g id="Grupo_84011" data-name="Grupo 84011" transform="translate(-1708.845 11198.24)">
    <g id="Grupo_de_desplazamiento_1" data-name="Grupo de desplazamiento 1" transform="translate(1708.845 -11242.24)" clip-path="url(#clip-path)" style="isolation: isolate">
      <g id="Grupo_84010" data-name="Grupo 84010" transform="translate(-1708.845 11242.24)">
        <path id="Trazado_116736" data-name="Trazado 116736" d="M504.721,295.828c3.144-26.455,17.693-50.123,24.474-75.887,5.077-19.289,5.717-39.422,8.214-59.211s7.166-39.993,19.026-56.03c15.807-21.372,44.169-32.67,70.342-28.02s48.907,25.029,56.382,50.539c9.641,32.9-4.988,67.8-4.179,102.073.449,19.025,5.665,37.568,8.813,56.336s4.09,38.739-3.575,56.158c-10.246,23.283-34.629,38.045-59.657,42.6-24.9,4.527-50.939.091-75.643-3.888-19.87-3.2-33.145-26.6-39.345-43.874A89.9,89.9,0,0,1,504.721,295.828Z" transform="translate(1570.959 -11624.237) rotate(40)" fill="#ffd947"/>
        <g id="Grupo_83402" data-name="Grupo 83402" transform="translate(74.751 -11338.376)">
          <path id="Trazado_116755" data-name="Trazado 116755" d="M2044.058,519.278c8.448,18.877,22.694,43.243,42.517,47.647a29.466,29.466,0,0,0,3.884.6c21.068,1.786,43.865-21.562,70.037-75.691.972-2.012,1.955-4.075,2.938-6.174l-11.483-8.891s-1.7,2.387-4.543,6.19v.005c-10.5,14.071-36.482,47.5-48.923,51.1-.221.061-.442.118-.669.165-15.887,3.153-42.286-40.789-42.286-40.789Z" transform="translate(-235.002 -148.938)" fill="#ffaf82"/>
          <path id="Trazado_116756" data-name="Trazado 116756" d="M2044.058,541.668c8.448,18.877,22.694,43.243,42.517,47.647,6.992-10.809,10-23.028,11.241-32.7-15.887,3.153-42.286-40.789-42.286-40.789Z" transform="translate(-235.002 -171.327)" fill="#fe976a"/>
          <path id="Trazado_116757" data-name="Trazado 116757" d="M2002.034,453.8c.195.288,4.666,7.09,8.206,20.322a130.571,130.571,0,0,1,4.147,28.744,132.953,132.953,0,0,0,2.768,22.277,137.121,137.121,0,0,0,6.1,20.749,95.259,95.259,0,0,0,5.706,12.538c30.622-7.9,45.439-37.537,45.439-37.537-18.985-12.656-38.227-38.7-45.342-49.288-.941-1.394-1.667-2.521-2.156-3.313-6.092-9.878-14.735-12.595-14.735-12.595s-1.507-.335-3.7-.761C2006.638,454.578,2004.339,454.156,2002.034,453.8Z" transform="translate(-210.913 -135.774)" fill="#ff630c"/>
          <path id="Trazado_116758" data-name="Trazado 116758" d="M2021.262,494.509a130.57,130.57,0,0,1,4.147,28.744,132.952,132.952,0,0,0,2.768,22.277,137.117,137.117,0,0,0,6.1,20.749c11.138-41.262-7.018-76.916-7.018-76.916S2024.868,491.407,2021.262,494.509Z" transform="translate(-221.935 -156.159)" fill="#db5816"/>
          <path id="Trazado_116759" data-name="Trazado 116759" d="M1851.125,691.8l15.234,13.639,37.383,33.473c1.836-7.882,3.01-15.594,2.732-21.773a27.06,27.06,0,0,0-.694-5.238Z" transform="translate(-124.408 -272.199)" fill="#32275f"/>
          <path id="Trazado_116760" data-name="Trazado 116760" d="M1832.257,221.638c19.338-14.323,59.755,5.6,38.558,39.72,0,0-23.419,19.8-7.367,79.312,0,0-59.269,30.622-100.51,15.558s-33.431-32.181-19.51-39.266c10.136-5.158,49.395-10.7,58.528-43.364,0,0-12.1-25.784.247-41.342C1813.113,218.511,1832.257,221.638,1832.257,221.638Z" transform="translate(-56.27)" fill="#32275f"/>
          <path id="Trazado_116761" data-name="Trazado 116761" d="M1954.429,370.86v34.682s-1.569,9.631-12.435,8.89a13.007,13.007,0,0,1-12.348-10.619V370.86Z" transform="translate(-169.418 -88.23)" fill="#ffaf82"/>
          <path id="Trazado_116762" data-name="Trazado 116762" d="M1954.429,370.86v32.176c-14.848-.628-21.176-12.909-24.783-24.51V370.86Z" transform="translate(-169.418 -88.23)" fill="#fe976a"/>
          <path id="Trazado_116763" data-name="Trazado 116763" d="M1918.61,280.551c.957,19.535,11.792,33.843,35.073,33.843,24.315,0,26.913-29.85,21.588-52.184a62.787,62.787,0,0,0-6.029-16.16s-41.118-16.114-48.341,13.335A74.058,74.058,0,0,0,1918.61,280.551Z" transform="translate(-163.05 -14.163)" fill="#ffaf82"/>
          <path id="Trazado_116764" data-name="Trazado 116764" d="M1906.731,345.846c-3.181,9.815-20.616,6.954-21.669-4.066-1.021-10.69,11.147-15.252,19.14-8.217S1906.731,345.846,1906.731,345.846Z" transform="translate(-143.827 -64.916)" fill="#ffaf82"/>
          <path id="Trazado_116765" data-name="Trazado 116765" d="M1903.125,352a.77.77,0,0,0,.621-.314c.153-.207,3.718-5.127,1.593-9.211a.772.772,0,0,0-1.37.712c1.679,3.228-1.435,7.54-1.467,7.583a.772.772,0,0,0,.622,1.229Z" transform="translate(-153.774 -71.722)" fill="#fe976a"/>
          <path id="Trazado_116766" data-name="Trazado 116766" d="M1910.681,353.883a18.077,18.077,0,0,0,3.966-.463.772.772,0,0,0-.373-1.5c-.038.009-3.776.919-6.42.018a.772.772,0,1,0-.5,1.461A10.465,10.465,0,0,0,1910.681,353.883Z" transform="translate(-156.341 -77.361)" fill="#fe976a"/>
          <path id="Trazado_116767" data-name="Trazado 116767" d="M1998.995,374.5a9.88,9.88,0,0,0,8.163-4.207.772.772,0,0,0-1.228-.935c-5.344,7.016-13.5,1.745-13.844,1.517a.772.772,0,0,0-.853,1.286A15.866,15.866,0,0,0,1998.995,374.5Z" transform="translate(-204.524 -87.194)" fill="#6a2810"/>
          <path id="Trazado_116768" data-name="Trazado 116768" d="M1959.948,347.107a4.425,4.425,0,0,0,3.172-1.354,5.963,5.963,0,0,0,.8-7.055,5.615,5.615,0,0,0-5.414-3.2,5.348,5.348,0,0,0-4.654,3.549.772.772,0,0,0,1.457.511,3.8,3.8,0,0,1,3.314-2.521,4.064,4.064,0,0,1,3.934,2.389,4.43,4.43,0,0,1-.532,5.245,2.921,2.921,0,0,1-3.613.5,2.091,2.091,0,0,1-1.267-1.822,2.572,2.572,0,0,1,1.043-2.161.65.65,0,0,1,.715-.085.771.771,0,1,0,.725-1.362,2.21,2.21,0,0,0-2.262.14,4.112,4.112,0,0,0-1.763,3.531,3.626,3.626,0,0,0,2.1,3.128A4.872,4.872,0,0,0,1959.948,347.107Z" transform="translate(-183.268 -67.948)" fill="#fe976a"/>
          <path id="Trazado_116769" data-name="Trazado 116769" d="M2037.438,335.874a4.426,4.426,0,0,0,3.172-1.354,5.963,5.963,0,0,0,.8-7.055,5.618,5.618,0,0,0-5.414-3.2,5.348,5.348,0,0,0-4.654,3.548.772.772,0,0,0,1.457.512,3.8,3.8,0,0,1,3.314-2.521,4.071,4.071,0,0,1,3.934,2.388,4.43,4.43,0,0,1-.533,5.245,2.921,2.921,0,0,1-3.612.5,2.093,2.093,0,0,1-1.267-1.822,2.571,2.571,0,0,1,1.044-2.161.649.649,0,0,1,.714-.084.772.772,0,0,0,.725-1.362,2.21,2.21,0,0,0-2.262.14,4.111,4.111,0,0,0-1.764,3.531,3.627,3.627,0,0,0,2.1,3.129A4.883,4.883,0,0,0,2037.438,335.874Z" transform="translate(-227.688 -61.509)" fill="#fe976a"/>
          <path id="Trazado_116770" data-name="Trazado 116770" d="M2010.755,335.142a.769.769,0,0,0,.437-.136l6.735-4.638a.772.772,0,0,0,.2-1.074l-6.735-9.755a.772.772,0,1,0-1.27.877l6.3,9.119-6.1,4.2a.772.772,0,0,0,.439,1.407Z" transform="translate(-215.469 -58.62)" fill="#6a2810"/>
          <path id="Trazado_116771" data-name="Trazado 116771" d="M1970.3,312.967c0,2.075-.835,3.243-1.865,3.243s-1.864-1.168-1.864-3.243.835-3.188,1.864-3.188S1970.3,310.892,1970.3,312.967Z" transform="translate(-190.585 -53.216)" fill="#6a2810"/>
          <path id="Trazado_116772" data-name="Trazado 116772" d="M1918.61,280.551c16.284-1,23.044-28.06,23.044-28.06s22.4,21.963,33.869,15.532a44.106,44.106,0,0,0-.252-5.814,62.787,62.787,0,0,0-6.029-16.16s-41.118-16.114-48.341,13.335A74.058,74.058,0,0,0,1918.61,280.551Z" transform="translate(-163.05 -14.163)" fill="#fe976a"/>
          <path id="Trazado_116773" data-name="Trazado 116773" d="M1826.87,542.817l6.925,6.2,3.427,3.066,15.234,13.639c5.237.206,11.056.906,15.095,2.757,9.138,4.2,12.842,9.879,23.214,9.384a4.809,4.809,0,0,0,1.806-.442c8.618-3.982,9.76-33.576,24.176-55.565.067-.1.129-.2.2-.3,15.558-23.461,8.891-41.241,2.47-49.885s-7.656-19.262-7.656-19.262-5.047-1.116-10.13-1.9c-2.161-.335-4.327-.612-6.112-.715,0,0-14.19,9.487-24.783-1.729,0,0-1.116.124-2.969.324l-10.552,1.157c-4.208.458-8.808.962-12.867,1.41-.648.072-1.286.144-1.9.211q-.5.061-.988.108c-.293.036-.582.067-.865.1l-1.62.18-.128.015c-.448.052-.875.1-1.286.144-.679.072-1.3.139-1.857.2-2.428.273-2.444,5.87-1.94,14.658.571,9.785,1.785,23.528,1.024,38.247C1834.124,517.391,1832.036,530.67,1826.87,542.817Z" transform="translate(-110.504 -132.491)" fill="#ff630c"/>
          <path id="Trazado_116774" data-name="Trazado 116774" d="M2286.225,442.941v.005l13.089,8.87c.972-2.012,1.955-4.075,2.938-6.174a23.218,23.218,0,0,0,7.357.632c10.789-1.034,10.177-12.239,10.177-12.239a4.279,4.279,0,0,0-.35-3.545,5.934,5.934,0,0,0-2.738-2.259,2.952,2.952,0,0,0-1.173-2.331c-2-1.661-5.865-1.868-5.865-1.868s.988-3.828,8.4-9.508,1.729-11.854-9.384-3.457-17.9,25.683-17.9,25.683S2289.065,439.139,2286.225,442.941Z" transform="translate(-373.819 -108.924)" fill="#ffaf82"/>
          <path id="Trazado_116775" data-name="Trazado 116775" d="M2336.778,459.506h0c5.527,0,7.695-8.547,7.784-8.911a.515.515,0,0,0-1-.246c-.02.081-2.063,8.126-6.786,8.129h0a1.57,1.57,0,0,1-1.6-.775c-.7-1.472.716-4.692,2-6.262a4.789,4.789,0,0,0,.285-5.439.514.514,0,0,0-.874.543h0a3.785,3.785,0,0,1-.208,4.245c-1.24,1.518-3.137,5.235-2.13,7.355A2.524,2.524,0,0,0,2336.778,459.506Z" transform="translate(-401.186 -131.164)" fill="#fe976a"/>
          <path id="Trazado_116776" data-name="Trazado 116776" d="M2341.917,476.728a8.539,8.539,0,0,0,1.809-.219c4.161-.91,6.559-6.364,6.659-6.6a.514.514,0,0,0-.945-.408c-.023.052-2.291,5.2-5.935,6-1.6.351-2.74.227-3.284-.359a2.675,2.675,0,0,1-.188-2.571.515.515,0,0,0-.986-.3c-.462,1.539-.317,2.773.419,3.566A3.189,3.189,0,0,0,2341.917,476.728Z" transform="translate(-403.947 -144.598)" fill="#fe976a"/>
          <path id="Trazado_116777" data-name="Trazado 116777" d="M2337.992,482.464a.471.471,0,0,0,.049,0c11.152-1.069,10.647-12.663,10.641-12.78a.515.515,0,0,0-1.028.055c.023.435.444,10.591-9.512,11.68a3.606,3.606,0,0,1-1.373-2.9,3.662,3.662,0,0,1,1.39-2.919.514.514,0,1,0-.592-.841,4.783,4.783,0,0,0,.122,7.612A.514.514,0,0,0,2337.992,482.464Z" transform="translate(-402.202 -144.598)" fill="#fe976a"/>
          <path id="Trazado_116778" data-name="Trazado 116778" d="M2327.951,461.279a.514.514,0,0,0,.512-.569c-.013-.118-.381-2.934-5.123-5.625a.515.515,0,0,0-.508.895c4.236,2.4,4.606,4.826,4.61,4.851A.518.518,0,0,0,2327.951,461.279Z" transform="translate(-394.653 -136.471)" fill="#fe976a"/>
          <path id="Trazado_116779" data-name="Trazado 116779" d="M2313.175,468.078c2.157,0,6.684-.583,7.85-5.32a.514.514,0,0,0-1-.246c-1.316,5.343-7.594,4.523-7.861,4.485a.515.515,0,0,0-.145,1.019A9.256,9.256,0,0,0,2313.175,468.078Z" transform="translate(-388.352 -140.542)" fill="#fe976a"/>
          <path id="Trazado_116780" data-name="Trazado 116780" d="M1922.685,448.4c4.662,8.083,6.457,21.444,6.457,21.444,7.408-3.318,10.372-15.882,10.372-15.882a70.588,70.588,0,0,0,10.922,15.882c-.432-9,6.112-19.324,6.112-19.324-2.161-.335-4.327-.612-6.112-.715,0,0-14.19,9.487-24.783-1.729C1925.654,448.074,1924.538,448.2,1922.685,448.4Z" transform="translate(-165.428 -132.491)" fill="#fff"/>
          <ellipse id="Elipse_4787" data-name="Elipse 4787" cx="5.538" cy="3.704" rx="5.538" ry="3.704" transform="translate(1746.18 283.13)" fill="#ff630c"/>
          <path id="Trazado_116781" data-name="Trazado 116781" d="M1826.87,547.523l6.925,6.2c7.167-19.093,9.2-39.471,9.05-57.134a228.481,228.481,0,0,0-1.507-23.9c-.772-6.7-1.714-12.317-2.5-16.412-.448.052-.875.1-1.286.144-.679.072-1.3.139-1.857.2-2.428.273-2.444,5.87-1.94,14.658.571,9.785,1.785,23.528,1.024,38.247C1834.124,522.1,1832.036,535.376,1826.87,547.523Z" transform="translate(-110.504 -137.197)" fill="#db5816"/>
          <path id="Trazado_116782" data-name="Trazado 116782" d="M2037.281,473.134c-.941-1.394-1.667-2.521-2.156-3.313-6.092-9.878-14.735-12.595-14.735-12.595s-1.507-.335-3.7-.761C2015.591,463.261,2016.419,475.4,2037.281,473.134Z" transform="translate(-219.14 -137.301)" fill="#ffaf82"/>
          <path id="Trazado_116783" data-name="Trazado 116783" d="M1695.528,496.507l43.484,38.942c6.359-7.692,14.086-17.457,20.477-26.738a144.722,144.722,0,0,0,8.067-12.939q.81-1.5,1.5-2.922a43.375,43.375,0,0,0,4.327-22.977,38.645,38.645,0,0,0-4.327-15.023c-.648.072-1.286.144-1.9.211q-.5.061-.988.108c-.293.036-.582.067-.865.1l-1.62.18-.129.015c-.448.047-.88.1-1.286.144-.679.072-1.3.139-1.857.2,0,0-4.528-.525-12.631,4.975a70.787,70.787,0,0,0-11.3,9.827C1726.7,480.857,1707.7,490.786,1695.528,496.507Z" transform="translate(-35.216 -136.374)" fill="#ff630c"/>
          <path id="Trazado_116784" data-name="Trazado 116784" d="M1820.528,665.063a.772.772,0,0,0,.516-1.347L1660.827,520.251l-25.446-22.782a.772.772,0,0,0-1.03,1.15L1659.8,521.4l81.639,73.1,78.578,70.361A.769.769,0,0,0,1820.528,665.063Z" transform="translate(0 -160.692)" fill="#6a2810"/>
          <path id="Trazado_116785" data-name="Trazado 116785" d="M1817.949,458.888c2.253,3.056,6.086,7.481,10.691,9.683a13.961,13.961,0,0,0,3.421,1.148,17.551,17.551,0,0,0,4.162.262,18.2,18.2,0,0,0,7.331-2c4.96-2.608,8.865-7.851,8.541-16.433-4.208.458-8.808.962-12.867,1.41-.648.072-1.286.144-1.9.211q-.5.061-.988.108c-.293.036-.582.067-.865.1l-1.62.18-.128.015c-.448.047-.88.1-1.286.144-.679.072-1.3.139-1.857.2C1830.58,453.913,1826.052,453.388,1817.949,458.888Z" transform="translate(-105.391 -134.481)" fill="#ffaf82"/>
          <path id="Trazado_116786" data-name="Trazado 116786" d="M1710.988,575.2c7.575,8.512-3.457,25.451-5.68,25.451s-2.964-5.2,0-12.726c0,0-6.08,8.989-10.2,6.906s6.744-12.389,6.744-12.389-9.278,6.642-12.281,5.253,6.848-10.011,6.848-10.011-11.607,7.541-14.57,4.758,5.927-12.661,14.57-13.155S1708.375,572.263,1710.988,575.2Z" transform="translate(-27.04 -201.946)" fill="#ffaf82"/>
          <path id="Trazado_116787" data-name="Trazado 116787" d="M2029.378,305.432c0,2.075-.835,3.243-1.865,3.243s-1.865-1.168-1.865-3.243.835-3.188,1.865-3.188S2029.378,303.357,2029.378,305.432Z" transform="translate(-224.45 -48.897)" fill="#6a2810"/>
          <path id="Trazado_116788" data-name="Trazado 116788" d="M1942.766,264.111s-11.032,37.934-24.228,28.783l13.66-28.783Z" transform="translate(-163.051 -27.038)" fill="#fe976a"/>
          <path id="Trazado_116789" data-name="Trazado 116789" d="M1972.567,260.96c-11.468,6.431-33.87-15.533-33.87-15.533s-7.349,29.414-25.175,28.042c0,0-7.844-6.558-.8-28.042s48.343-16.67,54.366-7.038S1972.567,260.96,1972.567,260.96Z" transform="translate(-158.035 -7.613)" fill="#32275f"/>
        </g>
      </g>
    </g>
  </g>
</svg>
