<svg xmlns="http://www.w3.org/2000/svg" width="310.977" height="418.352" viewBox="0 0 310.977 418.352">
  <g id="Grupo_84014" data-name="Grupo 84014" transform="translate(-1708.845 9802.352)">
    <path id="Sustracción_1" data-name="Sustracción 1" d="M137.527,326.11a83.876,83.876,0,0,1-22.739-3.25,95.259,95.259,0,0,1-21.308-8.944c-2.271-1.295-4.567-2.718-6.826-4.229V149.442c3.758-2.112,7.627-4.189,11.369-6.2,9.459-5.079,19.239-10.331,28.1-16.6,11.484-8.117,21.718-18.14,31.615-27.833,4.14-4.055,8.421-8.247,12.737-12.245a169.249,169.249,0,0,1,23.51-18.681,87.747,87.747,0,0,1,27.08-12.011A68.64,68.64,0,0,1,237.09,54a73.546,73.546,0,0,1,15.727,1.719,75.517,75.517,0,0,1,15.031,5,73.454,73.454,0,0,1,13.62,8.046,67.863,67.863,0,0,1,21.866,27.745,75,75,0,0,1,5.563,38.952,69.127,69.127,0,0,1-5.228,19.117,80.229,80.229,0,0,1-7.564,13.46,111.279,111.279,0,0,1-9.654,12c-6.98,7.624-15.045,14.736-22.845,21.613-10.026,8.841-20.394,17.984-28.75,28.433-8.287,10.362-14.755,22.232-21.01,33.711-2.718,4.987-5.528,10.144-8.45,15.11a143.335,143.335,0,0,1-16.638,23.355,85.712,85.712,0,0,1-10.288,9.76,66.481,66.481,0,0,1-11.912,7.607A65.044,65.044,0,0,1,137.527,326.11Z" transform="translate(1709.845 -9752.5)" fill="#ffd947" stroke="rgba(0,0,0,0)" stroke-miterlimit="10" stroke-width="1"/>
    <g id="Grupo_83459" data-name="Grupo 83459" transform="translate(828.907 -10732.483)">
      <path id="Trazado_117003" data-name="Trazado 117003" d="M1190.2,1436.562v49.529c51.968-.219,96.07-114.243,96.07-159.924l-22.865-49v-.005l-9.415-20.17-8.427,36.485c-3.026,13.076-7.13,30.844-12.708,54.973-1.943,8.4-3.977,16.044-6.074,22.993C1214.375,1412.6,1199.853,1429.571,1190.2,1436.562Z" transform="translate(-222.394 -182.152)" fill="#6a2810"/>
      <path id="Trazado_117004" data-name="Trazado 117004" d="M1190.2,1482.487v10.221c18.461-10.119,34.938-32.963,46.5-96.983,4.393-24.359,7.157-42.644,8.865-56.318-3.026,13.076-7.13,30.844-12.708,54.973-1.943,8.4-3.977,16.044-6.074,22.993C1214.375,1458.528,1199.853,1475.5,1190.2,1482.487Z" transform="translate(-222.394 -228.077)" fill="#4c1a0a"/>
      <path id="Trazado_117005" data-name="Trazado 117005" d="M1190.2,1314.482v66.288a274.606,274.606,0,0,0,36.581-34.233c18.573-20.676,33.229-42.57,39.181-58.1l-2.557-36.181-2.828-39.96-52.47,77.832C1201.817,1299.453,1195.845,1307.512,1190.2,1314.482Z" transform="translate(-222.394 -157.242)" fill="#6a2810"/>
      <path id="Trazado_117006" data-name="Trazado 117006" d="M1400.1,1179.328c10.562,13.05,25.576,28.517,41.688,34.222a36.374,36.374,0,0,0,13.632,2.226,29.88,29.88,0,0,0,4.051-.437c21.6-3.822,38.241-33.3,50.063-94.539q.657-3.419,1.3-6.976l-13.882-5.855s-1.073,2.85-2.909,7.419c-3.384,8.454-9.367,22.79-15.942,35.877s-13.738,24.93-19.5,28.389c-.2.123-.411.235-.624.341a10.214,10.214,0,0,1-4.4.971c-17.01.288-48.857-30.6-48.857-30.6Z" transform="translate(-339.369 -99.103)" fill="#ffaf82"/>
      <path id="Trazado_117007" data-name="Trazado 117007" d="M1400.1,1232.689c10.562,13.05,25.576,28.517,41.688,34.222,6.73-9.116,12.068-25.3,11.79-32.579v-.005c-17.01.288-48.857-30.6-48.857-30.6Z" transform="translate(-339.369 -152.465)" fill="#fe976a"/>
      <path id="Trazado_117008" data-name="Trazado 117008" d="M1600.012,1095.629c-3.523-9.523-4.739-26.408-.7-26.9s5.764,7.366,5.764,7.366c.05-7.212,4.419-19.167,7.686-19.473s2.5,6.769,2.5,6.769,2.69-7.423,6.149-6.769,0,9.842,0,9.842,3.074-5.693,6.148-4.973.192,13.306.192,13.306c3.651-1.537,4.8,3.651,1.345,14.026s-15.371,15.371-15.371,15.371Z" transform="translate(-448.971 -70.464)" fill="#ffaf82"/>
      <path id="Trazado_117009" data-name="Trazado 117009" d="M1412.9,1169.6l.945,13.359,3.256,45.9,9.233,7.451,4.841,3.907,7.83,6.319c10.183-1.153,23.825-36.314,23.825-36.314-5-.384-27.668-17.87-34.393-26.9-6.533-8.769-9.079-9.345-9.217-9.372h-.005v-.005A30.357,30.357,0,0,0,1412.9,1169.6Z" transform="translate(-346.496 -133.446)" fill="#0091cc"/>
      <path id="Trazado_117010" data-name="Trazado 117010" d="M1415.029,1199.77l3.256,45.895,9.233,7.451,4.841,3.907C1435.22,1239.767,1431.121,1212.617,1415.029,1199.77Z" transform="translate(-347.686 -150.261)" fill="#077ca0"/>
      <path id="Trazado_117011" data-name="Trazado 117011" d="M1619.88,1109.717a.8.8,0,0,0,.7-.413c2.908-5.234-5.323-10.142-5.675-10.349a.8.8,0,0,0-.811,1.381c.072.042,7.238,4.317,5.086,8.191a.8.8,0,0,0,.7,1.19Z" transform="translate(-458.4 -94.019)" fill="#fe976a"/>
      <path id="Trazado_117012" data-name="Trazado 117012" d="M1657.61,1107.058a.8.8,0,0,0,.728-.468,67.963,67.963,0,0,0,3.64-9.7.8.8,0,1,0-1.561-.353,67.974,67.974,0,0,1-3.534,9.386.8.8,0,0,0,.728,1.134Z" transform="translate(-482.423 -92.385)" fill="#fe976a"/>
      <path id="Trazado_117013" data-name="Trazado 117013" d="M1644.3,1088.324a.8.8,0,0,0,.761-.552l3.138-9.63a.8.8,0,0,0-1.522-.5l-3.138,9.631a.8.8,0,0,0,.513,1.009A.782.782,0,0,0,1644.3,1088.324Z" transform="translate(-475.006 -81.896)" fill="#fe976a"/>
      <path id="Trazado_117014" data-name="Trazado 117014" d="M1631.572,1083.734a.8.8,0,0,0,.8-.743,57.532,57.532,0,0,1,2.585-11.783.8.8,0,1,0-1.516-.515,58,58,0,0,0-2.667,12.184.8.8,0,0,0,.742.855Z" transform="translate(-467.912 -78.028)" fill="#fe976a"/>
      <path id="Trazado_117015" data-name="Trazado 117015" d="M1246.954,1244.243q.12,1.513.357,2.93c3.651,21.52,67.826,38.812,76.856,31.511,4.318-3.491,8.155-26.414,9.618-50.768,1.591-26.563.358-54.824-6.159-61.442-.31-.315-.63-.619-.955-.918h-.005v-.005a30.359,30.359,0,0,0-6.314-4.339,57.176,57.176,0,0,0-16.279-5.241,90.77,90.77,0,0,0-16.593-1.409,42.8,42.8,0,0,1-10.963,2.882,14.747,14.747,0,0,1-3.031-.123,30.582,30.582,0,0,1-3.779-.8v-.005a46.734,46.734,0,0,1-5.678-1.969c-.747,11.518-3.5,23.756-6.6,35.717-.8,3.122-1.633,6.223-2.455,9.287C1250.407,1216.591,1246.031,1232.5,1246.954,1244.243Z" transform="translate(-253.953 -125.062)" fill="#0091cc"/>
      <path id="Trazado_117016" data-name="Trazado 117016" d="M1283.4,1488.691a.8.8,0,0,0,.008-1.6,30.36,30.36,0,0,1-16.433-5.253.8.8,0,0,0-.968,1.275,31.414,31.414,0,0,0,17.385,5.578Z" transform="translate(-264.466 -307.359)" fill="#6a2810"/>
      <path id="Trazado_117017" data-name="Trazado 117017" d="M1314.238,1189.725c.961-9.223,8.689-14.506,8.689-14.506,6.6,1.12,16.1,10.471,16.1,10.471,2.551-5.273.736-21.093-2.995-29.717a90.78,90.78,0,0,0-16.593-1.409,42.8,42.8,0,0,1-10.963,2.882,14.753,14.753,0,0,1-3.031-.123C1299.918,1188.546,1314.238,1189.725,1314.238,1189.725Z" transform="translate(-285.91 -125.065)" fill="#fff"/>
      <path id="Trazado_117018" data-name="Trazado 117018" d="M1345.523,1245.5a.8.8,0,0,0,.737-.487c8.136-19.076.362-43.986.027-45.037a.8.8,0,0,0-1.526.486c.08.252,7.926,25.4.026,43.924a.8.8,0,0,0,.736,1.115Z" transform="translate(-308.506 -150.067)" fill="#fff"/>
      <path id="Trazado_117019" data-name="Trazado 117019" d="M1364.662,1233.65a1.825,1.825,0,1,0,1.825-1.826A1.825,1.825,0,0,0,1364.662,1233.65Z" transform="translate(-319.618 -168.125)" fill="#fff"/>
      <path id="Trazado_117020" data-name="Trazado 117020" d="M1364.662,1271.022a1.825,1.825,0,1,0,1.825-1.825A1.825,1.825,0,0,0,1364.662,1271.022Z" transform="translate(-319.618 -188.951)" fill="#fff"/>
      <path id="Trazado_117021" data-name="Trazado 117021" d="M1246.954,1289.2c8.918-8.027,16.828-30.123,15.729-51.83l-5.252-2.146c-.8,3.122-1.633,6.223-2.455,9.287C1250.407,1261.548,1246.031,1277.458,1246.954,1289.2Z" transform="translate(-253.953 -170.019)" fill="#077ca0"/>
      <path id="Trazado_117022" data-name="Trazado 117022" d="M1339.308,1107.884v32.879s-1.487,9.131-11.789,8.429a12.332,12.332,0,0,1-11.706-10.067v-31.24Z" transform="translate(-292.396 -99.056)" fill="#ffaf82"/>
      <path id="Trazado_117023" data-name="Trazado 117023" d="M1339.308,1107.884v30.5c-14.076-.6-20.075-12.237-23.495-23.236v-7.268Z" transform="translate(-292.396 -99.056)" fill="#fe976a"/>
      <path id="Trazado_117024" data-name="Trazado 117024" d="M1323.239,970.845c17.835-10.324,8.8-41.835,3.424-40.682s-6.52,11.72-11.81,12.1-1.64-7.3-5.1-8.646-6.725,9.03-11.336,9.607-10.129-7.3-29.37-5.188-22.037,22.66-17.7,28.437c0,0-9.8-.19-13.834,12.106s10.649,22.043,21.352,25.938c0,0,1.506,23.633,21.684,11.336S1323.239,970.845,1323.239,970.845Z" transform="translate(-248.378 0)" fill="#6a2810"/>
      <path id="Trazado_117025" data-name="Trazado 117025" d="M1299.113,1017.284c2.647,17.4,13.93,29.622,35.844,29.622,28.223,0,28.245-38.786,20.095-62.013a54.463,54.463,0,0,0-3.955-8.886s-42.655-16.716-50.148,13.834C1298.542,999.649,1297.859,1009.048,1299.113,1017.284Z" transform="translate(-282.746 -23.02)" fill="#ffaf82"/>
      <path id="Trazado_117026" data-name="Trazado 117026" d="M1379.258,1104.494a10.248,10.248,0,0,0,8.468-4.364.8.8,0,1,0-1.274-.97c-5.56,7.3-14,1.812-14.361,1.574a.8.8,0,0,0-.887,1.333A16.468,16.468,0,0,0,1379.258,1104.494Z" transform="translate(-323.064 -94.018)" fill="#6a2810"/>
      <path id="Trazado_117027" data-name="Trazado 117027" d="M1340.139,1077.332a4.59,4.59,0,0,0,3.29-1.4,6.186,6.186,0,0,0,.829-7.318,5.822,5.822,0,0,0-5.616-3.324,5.546,5.546,0,0,0-4.828,3.681.8.8,0,1,0,1.511.53,3.946,3.946,0,0,1,3.438-2.614,4.213,4.213,0,0,1,4.082,2.477,4.6,4.6,0,0,1-.552,5.441,3.029,3.029,0,0,1-3.747.518,2.17,2.17,0,0,1-1.315-1.89,2.667,2.667,0,0,1,1.083-2.242.671.671,0,0,1,.741-.088.8.8,0,0,0,.753-1.413,2.294,2.294,0,0,0-2.346.145,4.266,4.266,0,0,0-1.83,3.663,3.762,3.762,0,0,0,2.176,3.245A5.056,5.056,0,0,0,1340.139,1077.332Z" transform="translate(-302.401 -75.308)" fill="#fe976a"/>
      <path id="Trazado_117028" data-name="Trazado 117028" d="M1417.629,1066.1a4.591,4.591,0,0,0,3.289-1.4,6.185,6.185,0,0,0,.83-7.318,5.826,5.826,0,0,0-5.616-3.324,5.547,5.547,0,0,0-4.829,3.681.8.8,0,1,0,1.51.53,3.948,3.948,0,0,1,3.438-2.615,4.22,4.22,0,0,1,4.081,2.478,4.593,4.593,0,0,1-.552,5.44,3.031,3.031,0,0,1-3.747.519,2.17,2.17,0,0,1-1.315-1.891,2.668,2.668,0,0,1,1.083-2.241.671.671,0,0,1,.741-.087.8.8,0,0,0,.753-1.413,2.292,2.292,0,0,0-2.346.145,4.265,4.265,0,0,0-1.83,3.663,3.765,3.765,0,0,0,2.177,3.246A5.067,5.067,0,0,0,1417.629,1066.1Z" transform="translate(-345.584 -69.049)" fill="#fe976a"/>
      <path id="Trazado_117029" data-name="Trazado 117029" d="M1390.744,1065.528a.8.8,0,0,0,.453-.141l6.987-4.811a.8.8,0,0,0,.2-1.114l-6.987-10.12a.8.8,0,0,0-1.318.91l6.531,9.46-6.327,4.356a.8.8,0,0,0,.455,1.46Z" transform="translate(-333.706 -66.24)" fill="#6a2810"/>
      <path id="Trazado_117030" data-name="Trazado 117030" d="M1350.4,1042.878c0,2.153-.866,3.365-1.934,3.365s-1.934-1.212-1.934-3.365.866-3.308,1.934-3.308S1350.4,1040.725,1350.4,1042.878Z" transform="translate(-309.514 -60.986)" fill="#6a2810"/>
      <path id="Trazado_117031" data-name="Trazado 117031" d="M1409.479,1035.342c0,2.153-.866,3.365-1.934,3.365s-1.934-1.212-1.934-3.365.866-3.307,1.934-3.307S1409.479,1033.19,1409.479,1035.342Z" transform="translate(-342.437 -56.787)" fill="#6a2810"/>
      <path id="Trazado_117032" data-name="Trazado 117032" d="M1299.113,1017.284c17.02-3.128,11.229-20.709,9.719-26.761-1.537-6.149,7.109-3.074,16.4,1.537,9.026,4.478,22.742,4.062,29.819-7.168a54.463,54.463,0,0,0-3.955-8.886s-42.655-16.716-50.148,13.834C1298.542,999.649,1297.859,1009.048,1299.113,1017.284Z" transform="translate(-282.746 -23.02)" fill="#fe976a"/>
      <path id="Trazado_117033" data-name="Trazado 117033" d="M1340.387,977.181c-6.874,12.231-21.147,12.808-30.438,8.2s-17.938-7.686-16.4-1.537,7.494,24.21-10.568,26.9-6.148-39.965,10.376-46.114,41.694,1.537,45.153,5.38S1340.387,977.181,1340.387,977.181Z" transform="translate(-269.062 -17.939)" fill="#6a2810"/>
      <path id="Trazado_117034" data-name="Trazado 117034" d="M1287.5,1076.222c-3.3,10.182-21.387,7.214-22.478-4.218-1.06-11.09,11.563-15.823,19.854-8.525S1287.5,1076.222,1287.5,1076.222Z" transform="translate(-264.058 -72.361)" fill="#ffaf82"/>
      <path id="Trazado_117035" data-name="Trazado 117035" d="M1283.115,1082.166a.8.8,0,0,0,.645-.326c.158-.215,3.857-5.318,1.653-9.555a.8.8,0,0,0-1.421.739c1.743,3.348-1.489,7.822-1.521,7.866a.8.8,0,0,0,.645,1.275Z" transform="translate(-273.728 -78.978)" fill="#fe976a"/>
      <path id="Trazado_117036" data-name="Trazado 117036" d="M1290.785,1083.748a18.782,18.782,0,0,0,4.114-.479.8.8,0,0,0-.387-1.554c-.039.01-3.916.953-6.659.019a.8.8,0,0,0-.517,1.516A10.864,10.864,0,0,0,1290.785,1083.748Z" transform="translate(-276.224 -84.459)" fill="#fe976a"/>
      <path id="Trazado_117037" data-name="Trazado 117037" d="M1190.2,1100.543v60.594c2.418.769,5.46,1.708,8.828,2.679,7.7,2.226,17.063,4.649,24.391,5.641,3.928.533,7.275.656,9.463.123,10.53-2.572,5.343-42.58,5.267-43.151v-.005a46.739,46.739,0,0,1-5.678-1.969l-39.09-22.112Z" transform="translate(-222.394 -94.965)" fill="#0091cc"/>
      <path id="Trazado_117038" data-name="Trazado 117038" d="M1190.2,1100.543v60.594c2.418.769,5.46,1.708,8.828,2.679-1.639-15.852-4.857-47.768-5.647-61.474Z" transform="translate(-222.394 -94.965)" fill="#077ca0"/>
      <path id="Trazado_117039" data-name="Trazado 117039" d="M967.8,1390.636a.8.8,0,0,0,.8-.8V1006.475a.8.8,0,0,0-.8-.8l-87.066-.8c-.442,0-.8.8-.8.8s.358.8.8.8l86.265.8v382.561A.8.8,0,0,0,967.8,1390.636Z" transform="translate(0 -42.153)" fill="#6a2810"/>
      <path id="Trazado_117040" data-name="Trazado 117040" d="M1022.52,980.611c10.928.24,19.266,12.864,8.128,27.951a2.07,2.07,0,0,1-3.717-1.075,11.862,11.862,0,0,1,.2-3.307s-2.818,3.2-4.611-.128c0,0-1.153,2.818-4.355.384,0,0-1.281,3.587-5,1.409s-7.3-14.347-3.587-20.367S1022.52,980.611,1022.52,980.611Z" transform="translate(-120.869 -28.081)" fill="#ffaf82"/>
      <path id="Trazado_117041" data-name="Trazado 117041" d="M1025.417,1018.69a.8.8,0,0,0,.675-1.23c-3.171-5-3.46-11.955-3.463-12.025a.8.8,0,0,0-1.6.058c.011.3.3,7.452,3.71,12.825A.8.8,0,0,0,1025.417,1018.69Z" transform="translate(-128.121 -41.534)" fill="#fe976a"/>
      <path id="Trazado_117042" data-name="Trazado 117042" d="M1038.708,1015.888a.848.848,0,0,0,.158-.016.8.8,0,0,0,.628-.942,46.311,46.311,0,0,1-.544-13.694.8.8,0,0,0-1.585-.221,47.015,47.015,0,0,0,.559,14.23A.8.8,0,0,0,1038.708,1015.888Z" transform="translate(-137.059 -39.116)" fill="#fe976a"/>
      <path id="Trazado_117043" data-name="Trazado 117043" d="M1050.182,1016.5a.8.8,0,0,0,.716-.443c2.262-4.524,1.028-13.78.974-14.172a.8.8,0,1,0-1.586.217c.012.091,1.221,9.157-.82,13.239a.8.8,0,0,0,.716,1.159Z" transform="translate(-143.921 -39.599)" fill="#fe976a"/>
    </g>
  </g>
</svg>
