<svg xmlns="http://www.w3.org/2000/svg" xmlns:xlink="http://www.w3.org/1999/xlink" width="262.582" height="329.623" viewBox="0 0 262.582 329.623">
  <defs>
    <clipPath id="clip-path">
      <rect x="15" y="7" width="262.582" height="329.623" fill="none"/>
    </clipPath>
  </defs>
  <g id="Grupo_84011" data-name="Grupo 84011" transform="translate(-264.948 -517.688)">
    <g id="Grupo_de_desplazamiento_1" data-name="Grupo de desplazamiento 1" transform="translate(249.948 510.688)" clip-path="url(#clip-path)" style="isolation: isolate">
      <g id="Grupo_84010" data-name="Grupo 84010" transform="translate(-249.948 -510.688)">
        <path id="Trazado_115877" data-name="Trazado 115877" d="M504.721,295.828c3.144-26.455,17.693-50.123,24.474-75.887,5.077-19.289,5.717-39.422,8.214-59.211s7.166-39.993,19.026-56.03c15.807-21.372,44.169-32.67,70.342-28.02s48.907,25.029,56.382,50.539c9.641,32.9-4.988,67.8-4.179,102.073.449,19.025,5.665,37.568,8.813,56.336s4.09,38.739-3.575,56.158c-10.246,23.283-34.629,38.045-59.657,42.6-24.9,4.527-50.939.091-75.643-3.888-19.87-3.2-33.145-26.6-39.345-43.874A89.9,89.9,0,0,1,504.721,295.828Z" transform="matrix(0.921, 0.391, -0.391, 0.921, -63.174, 244.077)" fill="#c4d1ff" opacity="0.6"/>
        <g id="Grupo_82971" data-name="Grupo 82971" transform="translate(-89.402 429.517)">
          <g id="Layer_3" data-name="Layer 3" transform="translate(339.35 103.484)">
            <path id="Trazado_115817" data-name="Trazado 115817" d="M662.693,980.308c-.112-3.52-.227-7.042-.386-10.562-.32-7.119-.817-14.239-1.818-21.3-1.675-11.818-6.077-22.336-9.158-33.747a131.616,131.616,0,0,1-2.911-13.739,157.5,157.5,0,0,1-1.835-26.017c.074-8.541.692-17.164,3.691-25.238,1.629-4.389,3.436-9.891,7-13.113.565-.509,1.567-1.07,2.032-1.547,0,0,0-.008,0-.012.176-.135.348-.274.512-.422.122-.79.27-1.576.388-2.376.01-.06.018-.122.026-.182-1.843-.148-3.878,1.184-5.5,1.888-3.862,1.68-7.828,3.115-11.677,4.833-1.771.79-3.57,1.619-5.3,2.46-1.689.821-3.016,2.2-4.713,3.03-1.9.924-3.8,1.838-5.726,2.7-1.458.653-2.921,1.3-4.374,1.967a40.47,40.47,0,0,0,4.021,7.993c-.052.18-.1.361-.16.541-1.432,4.552-4.224,8.484-6.129,12.827-.467,1.066-.859,2.154-1.247,3.233l0,0c.873.475.909,1.539,1.205,2.458,2.46,7.62-1.573,12.023-2.681,19.153-.889,5.709,1.247,10.872,1.01,16.446-.153,3.6-2.15,6.678-3.074,10.075a37.408,37.408,0,0,0-.921,4.631c-2.066,14.879-5.413,29.681-8.326,44.44-.7,3.536-1.3,7.356-2.215,11.091l.008,0c.939,11.417,1.06,23.094.972,34.632h57.209c.251-5.157.44-10.317.455-15.48C663.1,994.032,662.914,987.233,662.693,980.308ZM650.059,960.33a3.145,3.145,0,0,1,2.406-4.461,2.989,2.989,0,0,1,2.426.611c1.766,1.38,1.024,3.637-.211,5.1S650.712,961.788,650.059,960.33ZM656.7,994.8c-1.225,1.452-3.969.207-4.622-1.251a3.144,3.144,0,0,1,2.4-4.461,2.987,2.987,0,0,1,2.426.611C658.674,991.075,657.931,993.332,656.7,994.8Z" transform="translate(-557.533 -703.134)" fill="#ff5f65"/>
            <path id="Trazado_115818" data-name="Trazado 115818" d="M638.531,399.34a.952.952,0,0,1,.105,1.53,2.359,2.359,0,0,1-1.91.436c-.951-.13-1.942-.192-2.895-.239-1.125-.056-2.255-.062-3.382-.1-.818-.029-2.261.125-2.919-.474-.834-.763-.121-1.508.758-1.691a10.031,10.031,0,0,1,2.429.038c.579.022,1.17.051,1.756.072,1.25.042,2.5.022,3.753.033A4.316,4.316,0,0,1,638.531,399.34Z" transform="translate(-576.236 -346.491)" fill="#ffbc3b"/>
            <path id="Trazado_115819" data-name="Trazado 115819" d="M611.55,299.626c1.065.067.986,1.237.338,1.765-.089.356-.649.454-.935.669-.43.32-2.774,2.136-3.138,2.525a6.733,6.733,0,0,1-1.107.8c-.51.365-2.2,1.655-2.747.653a1.015,1.015,0,0,1,.109-.953,4.032,4.032,0,0,1,1.6-1.322,5.058,5.058,0,0,0,1.566-1.181c.374-.465,2.756-2.118,3.21-2.485A1.656,1.656,0,0,1,611.55,299.626Z" transform="translate(-557.077 -264.92)" fill="#ffbc3b"/>
            <path id="Trazado_115820" data-name="Trazado 115820" d="M607.074,474.6a.952.952,0,0,1-1,1.161,2.358,2.358,0,0,1-1.666-1.033c-.584-.76-1.242-1.5-1.886-2.208-.76-.832-1.559-1.631-2.331-2.451-.562-.6-1.7-1.5-1.74-2.391-.058-1.13.975-1.156,1.727-.667a9.98,9.98,0,0,1,1.7,1.734c.4.427.8.861,1.2,1.288.859.91,1.763,1.776,2.644,2.666A4.347,4.347,0,0,1,607.074,474.6Z" transform="translate(-552.603 -402.44)" fill="#ffbc3b"/>
            <path id="Trazado_115821" data-name="Trazado 115821" d="M567.132,406.5c.259,1.628-1.617,1.572-2.8,1.5a5.948,5.948,0,0,1,1.407-1.879C566.318,405.621,566.989,405.6,567.132,406.5Z" transform="translate(-524.521 -352.291)" fill="#ffbc3b"/>
            <path id="Trazado_115822" data-name="Trazado 115822" d="M527,508.4c0,.049-.168-.025-.259-.056-.175-.056-.358-.123-.526-.192a7.059,7.059,0,0,0-1.1-.385c-1.93-.456-3.852-1.147-5.74-1.749h-.054c0-.539.027-1.087-.009-1.619-.023-.342-.15-.729-.163-1.1l.029,0a28.75,28.75,0,0,0,3.8,1.463,22.1,22.1,0,0,1,3.733,1.228c.15.076.349.273.5.221h.065a13.443,13.443,0,0,1-.168,2.206Z" transform="translate(-487.333 -432.555)" fill="#dedede"/>
            <path id="Trazado_115823" data-name="Trazado 115823" d="M527.538,520.983c.092.031.259.105.259.056l.105.018c-.031.19-.069.38-.114.568a6.179,6.179,0,0,1-.517,1.646,4.455,4.455,0,0,1-.268.42l-.02-.013c-.51-.206-1.031-.5-1.57-.678-1.682-.55-3.38-1.289-5.008-1.98l-.177,0a11.946,11.946,0,0,0-.054-1.472,7.007,7.007,0,0,1-.056-.895h.054c1.888.6,3.809,1.293,5.74,1.749a7.058,7.058,0,0,1,1.1.385C527.18,520.86,527.363,520.927,527.538,520.983Z" transform="translate(-488.134 -445.198)" fill="#dedede"/>
            <path id="Trazado_115824" data-name="Trazado 115824" d="M518.809,421.422h-.025c-.134-1.939-.743-3.816-1.038-5.744a37.911,37.911,0,0,0-1.436-7.3,10.8,10.8,0,0,0-.465-1.087l.4-.022a5.163,5.163,0,0,0,1.382-.347,3.943,3.943,0,0,0,1.282-.852,5.842,5.842,0,0,0,1.065-1.022c.029-.045.058-.092.087-.139a5.216,5.216,0,0,0,2.59,2.013,5.122,5.122,0,0,0,1.382.347l.394.022a10.3,10.3,0,0,0-.463,1.087,37.754,37.754,0,0,0-1.438,7.3,38.008,38.008,0,0,0-.906,5.3c0,.163.025.329.027.492C520.694,421.476,519.742,421.449,518.809,421.422Z" transform="translate(-484.617 -351.573)" fill="#ffbc3b"/>
            <path id="Trazado_115825" data-name="Trazado 115825" d="M527.493,534.677l.02.013a4.181,4.181,0,0,1-.783.834,3.821,3.821,0,0,1-2.767.555,3.653,3.653,0,0,1-2.57-1.7,4.125,4.125,0,0,1-.591-1.512,5.653,5.653,0,0,1-.065-.848l.177,0c1.628.691,3.326,1.429,5.008,1.98C526.462,534.176,526.983,534.471,527.493,534.677Z" transform="translate(-488.644 -456.196)" fill="#dedede"/>
            <path id="Trazado_115826" data-name="Trazado 115826" d="M535.8,381.009a5.429,5.429,0,0,1-.646,2.868,5.845,5.845,0,0,1-.908-2.241c-.119-.649-.119-1.841.57-2.221S535.789,380.642,535.8,381.009Z" transform="translate(-499.709 -330.544)" fill="#ffbc3b"/>
            <path id="Trazado_115827" data-name="Trazado 115827" d="M533.032,253.533c.224.289-.042.79-.051,1.148-.011.537-.027,3.5.056,4.026a6.688,6.688,0,0,1-.049,1.369c-.027.626-.054,2.753-1.179,2.566a1.009,1.009,0,0,1-.682-.673,4.006,4.006,0,0,1-.054-2.076,5.114,5.114,0,0,0,.033-1.959c-.136-.582.031-3.478.022-4.06a1.659,1.659,0,0,1,.3-1.163C532.144,251.913,533.015,252.7,533.032,253.533Z" transform="translate(-497.06 -226.033)" fill="#ffbc3b"/>
            <path id="Trazado_115828" data-name="Trazado 115828" d="M532.482,498.253c-.007.025,0,.038-.02.063,0-.02,0-.042,0-.063Z" transform="translate(-498.289 -428.404)" fill="#8cc295"/>
            <path id="Trazado_115829" data-name="Trazado 115829" d="M470.74,354.59l-.208.105-.051-.157a9.677,9.677,0,0,0-.986-2.015c-1.022-1.568-2.731-2.293-4.125-3.436a16.1,16.1,0,0,1-5.659-11.444c-.362-7.048,5.015-13.709,12.242-13.873a15.385,15.385,0,0,1,9.265,2.494,14.323,14.323,0,0,1,5.071,16.564,15.34,15.34,0,0,1-2.259,4.147c-1.033,1.351-2.568,2.172-3.624,3.458-.96,1.165-2.3,2.34-2.431,3.941l-.018.17-.1.038c-.8.072-1.613.1-2.434.1,0-.163-.027-.329-.027-.492a38.017,38.017,0,0,1,.906-5.3,37.755,37.755,0,0,1,1.438-7.3,10.309,10.309,0,0,1,.463-1.087c1.188.069,3.064.125,2.8-1.5-.143-.9-.814-.881-1.4-.376a5.949,5.949,0,0,0-1.407,1.879l-.394-.022a5.124,5.124,0,0,1-1.382-.347,5.216,5.216,0,0,1-2.59-2.013,5.429,5.429,0,0,0,.647-2.868c-.007-.367-.286-1.977-.984-1.595s-.689,1.572-.57,2.221a5.846,5.846,0,0,0,.908,2.241c-.029.047-.058.094-.087.139a5.842,5.842,0,0,1-1.065,1.022,3.942,3.942,0,0,1-1.282.852,5.164,5.164,0,0,1-1.382.347l-.4.022a5.949,5.949,0,0,0-1.407-1.879c-.584-.505-1.253-.528-1.4.376-.26,1.628,1.617,1.572,2.8,1.5a10.794,10.794,0,0,1,.465,1.087,37.912,37.912,0,0,1,1.436,7.3c.3,1.928.9,3.8,1.038,5.744C471.948,354.622,471.338,354.6,470.74,354.59Z" transform="translate(-438.4 -284.79)" fill="#ffbc3b"/>
            <path id="Trazado_115830" data-name="Trazado 115830" d="M519.166,498.708l-.029,0a.988.988,0,0,1,.32-.839l.208-.105c.6.011,1.208.031,1.828.049,0,.02,0,.042,0,.063.025-.025.013-.038.02-.063.933.027,1.886.054,2.834.047.821,0,1.635-.031,2.434-.1l.1-.038c.367.235.385.772.385,1.161,0,.53-.029,1.054-.018,1.588.009.383.016.767.013,1.15H527.2c-.15.051-.349-.145-.5-.221a22.1,22.1,0,0,0-3.733-1.228A28.746,28.746,0,0,1,519.166,498.708Z" transform="translate(-487.325 -427.967)" fill="#dedede"/>
            <path id="Trazado_115831" data-name="Trazado 115831" d="M501.278,406.127a5.949,5.949,0,0,1,1.407,1.879c-1.188.069-3.064.125-2.8-1.5C500.025,405.6,500.694,405.621,501.278,406.127Z" transform="translate(-471.456 -352.291)" fill="#ffbc3b"/>
            <path id="Trazado_115832" data-name="Trazado 115832" d="M433.074,467.011c.754-.49,1.785-.463,1.729.667-.045.89-1.179,1.794-1.74,2.391-.774.821-1.57,1.619-2.333,2.451-.642.7-1.3,1.447-1.886,2.208a2.359,2.359,0,0,1-1.664,1.033.954.954,0,0,1-1-1.161,4.352,4.352,0,0,1,1.36-1.9c.881-.89,1.785-1.756,2.644-2.666.4-.427.8-.861,1.2-1.288A9.955,9.955,0,0,1,433.074,467.011Z" transform="translate(-410.793 -402.44)" fill="#ffbc3b"/>
            <path id="Trazado_115833" data-name="Trazado 115833" d="M411.108,309.4c.62.651.779,1.671-.34,1.821-.884.116-1.98-.832-2.669-1.275-.948-.611-1.879-1.248-2.836-1.845-.81-.505-1.66-1.018-2.514-1.452a2.37,2.37,0,0,1-1.322-1.449.954.954,0,0,1,.96-1.2,4.336,4.336,0,0,1,2.118.989c1.036.7,2.051,1.434,3.1,2.112.492.318.993.631,1.483.942A10.1,10.1,0,0,1,411.108,309.4Z" transform="translate(-390.415 -268.526)" fill="#ffbc3b"/>
            <path id="Trazado_115834" data-name="Trazado 115834" d="M390.264,398.8c.881.183,1.595.928.758,1.691-.658.6-2.1.445-2.917.474-1.127.038-2.257.045-3.384.1-.953.047-1.942.11-2.892.239a2.364,2.364,0,0,1-1.913-.436.954.954,0,0,1,.105-1.53,4.324,4.324,0,0,1,2.306-.4c1.25-.011,2.5.009,3.753-.033.586-.02,1.174-.049,1.756-.072A10.014,10.014,0,0,1,390.264,398.8Z" transform="translate(-372.463 -346.491)" fill="#ffbc3b"/>
            <path id="Trazado_115835" data-name="Trazado 115835" d="M932.96,754.856l0-.115c5.166-.171,11.2-3.176,15.641-6.632l.094.117c-.189,1.494-.1,3.134-.211,4.475a50.557,50.557,0,0,0-.157,7.99c-3.068.185-6.037.973-9.213.718a38.8,38.8,0,0,1-10.649-2.492,34.307,34.307,0,0,1-8-4.894,37.228,37.228,0,0,1-4.48-4.335c-.259-.272-.531-.634-.819-1,1.686.947,3.4,1.846,5.151,2.76a33.312,33.312,0,0,0,6.769,2.5A25.593,25.593,0,0,0,932.96,754.856Z" transform="translate(-813.286 -634.051)" fill="#e39476"/>
            <path id="Trazado_115836" data-name="Trazado 115836" d="M865.834,1532.377c1.766,1.38,1.024,3.637-.211,5.1s-3.969.207-4.622-1.251a3.145,3.145,0,0,1,2.406-4.461A2.989,2.989,0,0,1,865.834,1532.377Z" transform="translate(-768.475 -1279.031)" fill="#37628f"/>
            <path id="Trazado_115837" data-name="Trazado 115837" d="M1155.973,1016.612H1109.16c.066-7.173.159-14.4-.479-21.509a154.854,154.854,0,0,1-.7-17.991c.133-4.934-.259-9.935-.091-14.9.185-5.558,1.38-11.087,1.609-16.669a71.579,71.579,0,0,1,1.768-12.26c1.01-4.669.947-9.48,2.223-14.137,1.291-4.7,2.659-9.378,3.591-14.195.849-4.381,1.372-8.8,2.269-13.159a81.952,81.952,0,0,0,.471-29.836c-.469-2.905-.672-5.795-1.392-8.667-1.41-5.618-3.971-11.1-8.36-15-1.623-1.444-3.844-2.142-5.429-3.484-.147-.786-.32-1.567-.463-2.362-.012-.06-.022-.121-.032-.181,1.838-.207,3.914,1.06,5.556,1.712,3.914,1.557,7.923,2.866,11.824,4.461,1.8.734,3.619,1.505,5.375,2.291,1.714.768,3.084,2.108,4.807,2.88,1.925.863,3.854,1.716,5.809,2.518a98.91,98.91,0,0,1,12.254,5.612c5.17,3,10.031,6,14.147,10.444,3.846,4.156,6.906,9.641,9.565,14.607a115.714,115.714,0,0,1,7.163,17.54,33.687,33.687,0,0,1,1.468,4.351c.523,2.788.712,5.7,1.133,8.517q.716,4.782,1.307,9.583c.805,6.507,1.459,13.032,2.024,19.562.72,8.328.63,16.709,1.523,25.023.873,8.146,4.051,15.454,5.423,23.446.889,5.185-.147,10.385-.485,15.567-.183,2.792.845,5.49.811,8.269-.032,2.675-.75,5.29-.823,7.975Z" transform="translate(-968.827 -703.289)" fill="#ff5f65"/>
            <path id="Trazado_115838" data-name="Trazado 115838" d="M525.183,674.665c-.28-1.322-.451-2.655-.7-4-.263-1.422-.583-2.834-.9-4.244-1.338-5.89-2.347-11.385-.489-17.287,1.669-5.3,4.562-10.16,5.829-15.6.869-3.727.662-7.471.541-11.27-.151-4.656.091-9.327.119-13.982.02-3.259-.362-8,2.87-9.975a2.19,2.19,0,0,1,2.452-.129c2.794,1.263,3.319,5.393,3.44,8.038.338,7.41.06,14.791.03,22.207,0,.4.074.65.09,1.016a9.186,9.186,0,0,1,3.013.368c4.322,1.3,7.259,5.143,9.911,8.611.6-2.534,2.009-5.6,4.657-6.491a3.252,3.252,0,0,1,2.295-.167,5.031,5.031,0,0,1,2.915,2.395c1.253,2.561-.042,5.753-.606,8.328a24.38,24.38,0,0,0-.855,5.375c.008,2.018.344,4.017.394,6.033.04,1.639.032,3.291-.091,4.934a26.074,26.074,0,0,1-1.072,5.9c-1.432,4.552-4.224,8.484-6.129,12.827-.467,1.066-.859,2.154-1.247,3.233-1.126,3.13-2.223,6.181-5.083,8.372-3.766,2.889-8.806,1.941-12.632-.3a19.418,19.418,0,0,1-5.435-4.749,6.123,6.123,0,0,1-1.354-3.093c-.312-1.674-1.124-3.277-1.6-4.91C525.4,675.626,525.285,675.146,525.183,674.665Z" transform="translate(-489.744 -510.394)" fill="#f5b49b"/>
            <path id="Trazado_115839" data-name="Trazado 115839" d="M972.192,607.525c.887,2.183-1.04,4.639-2.482,6.123a10.549,10.549,0,0,1-9,3.437,11.424,11.424,0,0,1-5.184-1.788,15.522,15.522,0,0,1-4.011-3.637c-.843-1.141-1.509-3.218-.563-4.5a3.945,3.945,0,0,1,3.548-1.3c1.161.119,2.354.137,3.52.221a28,28,0,0,0,3.267-.016c1.426-.066,2.862.006,4.28-.179,1.295-.169,2.561-.706,3.88-.42A3.526,3.526,0,0,1,972.192,607.525Z" transform="translate(-842.354 -516.582)" fill="#fff"/>
            <path id="Trazado_115840" data-name="Trazado 115840" d="M732.617,177.331c-.2-1.41-.36-2.824-.527-4.228a24.607,24.607,0,0,0-.788-4.6c-.957-2.993-2.806-5.6-3.824-8.569a11.791,11.791,0,0,1-.73-4.144c.024-1.609.237-3.208.376-4.811a54.023,54.023,0,0,1,1.418-7.935c.825-3.44,2.064-7,1.692-10.57-.044-.414-.1-.825-.149-1.239-.342-2.7.569-4.7,1.8-7.012a20.9,20.9,0,0,1,8.38-8.812c4-2.1,8.883-2.806,13.061-4.619a36.185,36.185,0,0,0,5.169-2.776c.674-.435,1.187-1,1.9-1.364,1.07-.555,2.2-1.006,3.3-1.478a19.178,19.178,0,0,1,4.136-1.259,29.705,29.705,0,0,1,13.181.7c4.122,1.183,8.4,3.707,9.424,8.193.263,1.153,1.126,1.044,2.174,1.044a13.285,13.285,0,0,1,9.174,1.511c4.009,2.2,5.363,6.008,7.521,9.727,1.915,3.3,4.6,6.063,6.942,9.05,2.985,3.8,5.258,8.1,4.518,13.075a37.878,37.878,0,0,0-.628,6.827c.072,2.368-1.058,5.051-1.649,7.322a34.169,34.169,0,0,1-1.1,4.451,23.72,23.72,0,0,0-1.446,10.337c.01.257.022.513.038.772a23.254,23.254,0,0,1-.08,2.83,7.261,7.261,0,0,1-.348,1.971c-.2.555-.666,1.408-1.342,1.509-2.209.326-1.786-6.091-1.82-7.272-.111-3.9-.8-8.261-3.047-11.562a18.062,18.062,0,0,1-2.359-5.894,27.6,27.6,0,0,1-.668-6.608c0-3.542.26-7.117-1.637-10.337-1.734-2.943-5.3-4.244-8.547-4.486-.78-.06-1.275-.01-2.038-.056-5.258-.316-10.436.046-15.326,2.1a12.057,12.057,0,0,1-4.9.881c-4.286-.078-8.34-1.79-12.491-2.661a21.483,21.483,0,0,0-6.048-.39c-2.14.147-4.286.28-6.063,1.649a10.073,10.073,0,0,0-3.319,4.916,19.331,19.331,0,0,0-.809,4.071c-.173,1.728.326,3.373.183,5.085a20.963,20.963,0,0,1-2.241,8.493c-.374.69-.63,1.428-.947,2.144a11.96,11.96,0,0,1-1.1,1.71,23.935,23.935,0,0,0-2.37,3.971c-1.336,3.275-.493,6.863-.445,10.271a6.127,6.127,0,0,1-.909,4.055c-.947,1.181-2.211.855-3.114-.207-.943-1.1-1.046-2.51-1.285-3.876C732.8,178.6,732.7,177.967,732.617,177.331Z" transform="translate(-658.203 -103.484)" fill="#1e244a"/>
            <path id="Trazado_115841" data-name="Trazado 115841" d="M1103.638,832.359c.01.06.02.121.032.181-.062-.038-.121-.03-.141-.167C1103.565,832.367,1103.6,832.363,1103.638,832.359Z" transform="translate(-968.318 -703.394)" fill="#8cc295"/>
            <path id="Trazado_115842" data-name="Trazado 115842" d="M1079.583,478.741a4.989,4.989,0,0,1-.847,3.6c-.762,1.149-2.442,1.3-3.691.955a3.669,3.669,0,0,1-1.659-6.145c1.042-1.108,2.808-1.9,4.266-1.124A4.405,4.405,0,0,1,1079.583,478.741Z" transform="translate(-942.63 -409.859)" fill="#2b1a0f"/>
            <path id="Trazado_115843" data-name="Trazado 115843" d="M877.229,1720.1c1.768,1.38,1.024,3.637-.209,5.1s-3.969.207-4.622-1.251a3.144,3.144,0,0,1,2.4-4.461A2.988,2.988,0,0,1,877.229,1720.1Z" transform="translate(-777.855 -1433.535)" fill="#37628f"/>
            <path id="Trazado_115844" data-name="Trazado 115844" d="M402.461,1040.483c2.46,7.62-1.573,12.023-2.681,19.153-.889,5.709,1.247,10.872,1.01,16.446-.153,3.6-2.15,6.678-3.074,10.075a37.433,37.433,0,0,0-.921,4.631c-2.066,14.879-5.413,29.681-8.326,44.44-.7,3.536-1.3,7.356-2.215,11.091-1.155,4.737-2.8,9.337-5.755,13.048-7.006,8.808-23.852,12.226-32.747,4.11-5.31-4.846-7.352-12.558-8.076-19.463-1.607-15.307,3-31.7,8.128-45.948,1.794-4.984,4.214-9.714,6.04-14.686a57.886,57.886,0,0,0,3.367-14.322,26.678,26.678,0,0,1,2.872-10.064c1.973-3.659,5.383-6.29,6.588-10.383,1.639-5.566.585-12.017,6.258-15.609a10.277,10.277,0,0,0,1.861-1.1c.1.481.219.961.358,1.438.477,1.633,1.289,3.236,1.6,4.91a6.121,6.121,0,0,0,1.354,3.092,19.414,19.414,0,0,0,5.435,4.749c3.826,2.245,8.865,3.194,12.632.3,2.86-2.191,3.957-5.242,5.083-8.372l0,0C402.129,1038.5,402.165,1039.564,402.461,1040.483Z" transform="translate(-339.35 -867.631)" fill="#ff5f65"/>
            <path id="Trazado_115845" data-name="Trazado 115845" d="M909.756,763.594c0-.125,0-.249.01-.372a72.2,72.2,0,0,0,.01-7.509c-.074-1.251-.2-2.5-.38-3.735-.079-.525-.249-1.048-.342-1.547-.085-.467.044-1.187-.28-1.573l.231-.4q.447.259.9.515c.288.368.561.73.819,1a37.228,37.228,0,0,0,4.48,4.335,34.307,34.307,0,0,0,8,4.894,38.8,38.8,0,0,0,10.649,2.492c3.176.255,6.145-.533,9.214-.718q.048.686.131,1.364c.04.324.09.642.145.96-.036,0-.073.008-.109.014.02.137.08.129.141.167.143.8.316,1.577.463,2.362a13.835,13.835,0,0,1,.286,3.283,15.294,15.294,0,0,1-1.615,5.984,17.029,17.029,0,0,1-8.9,8.245c-.76.3-1.511.636-2.281.9a11.829,11.829,0,0,1-4.415.594,22.332,22.332,0,0,1-4.461-.75,17.6,17.6,0,0,1-6.362-2.756,16.767,16.767,0,0,1-6.34-9.154,8.066,8.066,0,0,1-.115-3.95,10.118,10.118,0,0,0,.167-2C909.8,765.363,909.741,764.469,909.756,763.594Z" transform="translate(-808.022 -634.339)" fill="#f5b49b"/>
            <path id="Trazado_115846" data-name="Trazado 115846" d="M1071.882,401.45a1.376,1.376,0,0,1-1.022,2.158,6.191,6.191,0,0,1-2.881-.6c-.418-.147-.867-.32-1.291-.424a7.293,7.293,0,0,0-1.571.02,12.785,12.785,0,0,0-4.3.992,1.6,1.6,0,0,1-1.245-.056c-1.3-.752-.284-2.026.5-2.726a5.133,5.133,0,0,1,1.726-1.05,14.85,14.85,0,0,1,2.83-.843,9.411,9.411,0,0,1,2.456-.093A6.92,6.92,0,0,1,1071.882,401.45Z" transform="translate(-931.626 -346.533)" fill="#1e244a"/>
            <path id="Trazado_115847" data-name="Trazado 115847" d="M881.408,401.45a1.375,1.375,0,0,1-1.022,2.158,6.183,6.183,0,0,1-2.879-.6c-.418-.147-.867-.32-1.291-.424a7.312,7.312,0,0,0-1.573.02,12.8,12.8,0,0,0-4.3.992,1.592,1.592,0,0,1-1.243-.056c-1.3-.752-.284-2.026.5-2.726a5.111,5.111,0,0,1,1.726-1.05,14.876,14.876,0,0,1,2.828-.843,9.418,9.418,0,0,1,2.456-.093A6.916,6.916,0,0,1,881.408,401.45Z" transform="translate(-774.855 -346.533)" fill="#1e244a"/>
            <path id="Trazado_115848" data-name="Trazado 115848" d="M892.052,478.741a4.991,4.991,0,0,1-.849,3.6c-.762,1.149-2.442,1.3-3.691.955a3.67,3.67,0,0,1-1.658-6.145c1.044-1.108,2.808-1.9,4.266-1.124A4.408,4.408,0,0,1,892.052,478.741Z" transform="translate(-788.279 -409.859)" fill="#2b1a0f"/>
            <path id="Trazado_115849" data-name="Trazado 115849" d="M749.157,373.533q-.453-.257-.9-.515c-1.726-.99-3.421-2.044-5.081-3.22-3.271-2.317-6.775-4.966-9.189-8.2-1.43-1.915-2.91-3.749-4.405-5.622-1.33-1.666-2.189-3.651-3.478-5.345-1.37-1.806-2.913-2.092-4.817-3.17a15.875,15.875,0,0,1-5.061-4.421,11.317,11.317,0,0,1-1.4-2.045,17.475,17.475,0,0,1-1.008-2.645,8.84,8.84,0,0,1,.231-5.628,4.639,4.639,0,0,1,3.7-2.736c2.112-.211,2.838,1.318,3.935,2.762.088.636.185,1.271.3,1.905.239,1.366.342,2.772,1.285,3.876.9,1.062,2.168,1.388,3.114.207a6.126,6.126,0,0,0,.909-4.055c-.048-3.409-.891-7,.445-10.271a23.935,23.935,0,0,1,2.37-3.971,11.965,11.965,0,0,0,1.1-1.71c.316-.716.573-1.454.947-2.144a20.964,20.964,0,0,0,2.241-8.493c.143-1.712-.356-3.357-.183-5.085a19.323,19.323,0,0,1,.81-4.071,10.074,10.074,0,0,1,3.319-4.916c1.778-1.368,3.924-1.5,6.064-1.649a21.481,21.481,0,0,1,6.047.39c4.15.871,8.205,2.583,12.491,2.661a12.057,12.057,0,0,0,4.9-.881c4.89-2.054,10.069-2.416,15.327-2.1.764.046,1.259,0,2.038.056,3.251.243,6.813,1.543,8.547,4.486,1.9,3.22,1.641,6.8,1.637,10.337a27.6,27.6,0,0,0,.668,6.608,18.069,18.069,0,0,0,2.359,5.894c2.245,3.3,2.935,7.662,3.047,11.562.034,1.181-.39,7.6,1.82,7.272.676-.1,1.141-.955,1.342-1.509a7.257,7.257,0,0,0,.348-1.971,23.253,23.253,0,0,0,.08-2.83c-.016-.259-.028-.515-.038-.772l.1,0c1.873-2.8,5.91-1.352,7.024,1.326a9.119,9.119,0,0,1,.237,5.809,18.115,18.115,0,0,1-1.04,2.73,11.815,11.815,0,0,1-1.444,2.112,16.393,16.393,0,0,1-5.228,4.562c-1.476.837-3.035,1.511-4.546,2.279l-.107-.048A53.353,53.353,0,0,1,792.8,362.78a100.732,100.732,0,0,1-7.692,8.006,32.043,32.043,0,0,1-2.518,2.17c-4.441,3.456-10.474,6.461-15.641,6.632l0,.115a25.6,25.6,0,0,1-5.871-.909,33.319,33.319,0,0,1-6.769-2.5C752.561,375.378,750.843,374.479,749.157,373.533Zm37.351-57.56a1.376,1.376,0,0,0,1.022-2.158,6.92,6.92,0,0,0-4.795-2.625,9.409,9.409,0,0,0-2.456.093,14.856,14.856,0,0,0-2.83.843,5.132,5.132,0,0,0-1.726,1.05c-.786.7-1.806,1.975-.5,2.726a1.6,1.6,0,0,0,1.245.056,12.785,12.785,0,0,1,4.3-.992,7.292,7.292,0,0,1,1.571-.02c.424.1.873.276,1.291.424A6.192,6.192,0,0,0,786.507,315.973Zm-3.128,15.41a4.988,4.988,0,0,0,.847-3.6,4.405,4.405,0,0,0-1.931-2.71c-1.458-.772-3.224.016-4.266,1.124a3.669,3.669,0,0,0,1.659,6.145C780.937,332.682,782.618,332.532,783.379,331.383Zm-8.75,24.582c1.442-1.483,3.369-3.939,2.482-6.123a3.526,3.526,0,0,0-2.748-2.056c-1.319-.286-2.585.251-3.88.42-1.418.185-2.854.113-4.28.179a27.991,27.991,0,0,1-3.267.016c-1.165-.083-2.358-.1-3.52-.221a3.945,3.945,0,0,0-3.548,1.3c-.947,1.281-.281,3.357.563,4.5a15.523,15.523,0,0,0,4.011,3.637,11.425,11.425,0,0,0,5.184,1.788A10.549,10.549,0,0,0,774.629,355.965ZM752.8,315.973a1.375,1.375,0,0,0,1.022-2.158,6.915,6.915,0,0,0-4.795-2.625,9.417,9.417,0,0,0-2.456.093,14.882,14.882,0,0,0-2.828.843,5.111,5.111,0,0,0-1.726,1.05c-.786.7-1.806,1.975-.5,2.726a1.593,1.593,0,0,0,1.243.056,12.8,12.8,0,0,1,4.3-.992,7.312,7.312,0,0,1,1.573-.02c.424.1.873.276,1.291.424A6.184,6.184,0,0,0,752.8,315.973Zm-2.607,15.41a4.99,4.99,0,0,0,.849-3.6,4.408,4.408,0,0,0-1.933-2.71c-1.458-.772-3.222.016-4.266,1.124a3.67,3.67,0,0,0,1.658,6.145C747.755,332.682,749.435,332.532,750.2,331.383Z" transform="translate(-647.273 -258.898)" fill="#f5b49b"/>
            <path id="Trazado_115850" data-name="Trazado 115850" d="M487.169,355.887a3.432,3.432,0,0,0-2.07,1.914c-.095.432.038.892-.076,1.319-.191.712-.962,1.067-1.514,1.557a3.161,3.161,0,0,0-.832,3.4c.354.927,1.155,1.689,1.259,2.676.088.837-.312,1.822.253,2.445.479.529,1.33.407,2,.654.861.317,1.375,1.232,2.211,1.611,1.211.549,2.592-.188,3.92-.247a14.689,14.689,0,0,1,2.4.279,3.177,3.177,0,0,0,2.316-.436c.7-.535.96-1.463,1.483-2.174a10.644,10.644,0,0,1,1.939-1.723,3.282,3.282,0,0,0,1.357-2.136c.088-1.174-.855-2.156-1.193-3.284a12.634,12.634,0,0,1-.259-2.293c-.077-.719-.314-1.663-1.06-1.945a11.78,11.78,0,0,0-1.272-.268c-1.332-.341-2.222-1.62-3.491-2.149a4.517,4.517,0,0,0-2.607-.175,15.238,15.238,0,0,1-2.468.706A5.6,5.6,0,0,0,487.169,355.887Z" transform="translate(-457.159 -310.336)" fill="#fff"/>
            <path id="Trazado_115851" data-name="Trazado 115851" d="M1127.773,1270.507c-.344,6.418-6.083,11.063-8.928,16.826-2.486,5.035-2.7,10.846-2.87,16.459" transform="translate(-978.562 -1064.018)" fill="none"/>
            <path id="Trazado_115852" data-name="Trazado 115852" d="M928.007,1537.767c-.627-1.88-.583-3.784-.916-5.745-.8-4.713-1.327-9.468-1.747-14.229a53.477,53.477,0,0,0-.586-7.03,31.035,31.035,0,0,1-.628-5.26,116.251,116.251,0,0,0-4.5-25.916c.1.607.2,1.218.284,1.832.961,6.781,1.457,13.616,1.778,20.454q.02.422.039.844c.159,3.52.274,7.042.386,10.562.221,6.925.412,13.724.388,20.668-.016,5.162-.2,10.323-.455,15.48h7.537c-.116-1.552-.327-3.105-.541-4.639C928.735,1542.539,928.725,1539.919,928.007,1537.767Z" transform="translate(-816.959 -1236.104)" fill="#ededed"/>
            <path id="Trazado_115853" data-name="Trazado 115853" d="M904.567,873.887c-.469-2.905-.672-5.795-1.392-8.667-1.41-5.618-3.971-11.1-8.36-15-1.623-1.444-3.844-2.142-5.429-3.484a13.835,13.835,0,0,1,.286,3.283A15.293,15.293,0,0,1,888.057,856a17.028,17.028,0,0,1-8.9,8.245c-.76.3-1.511.636-2.281.9a11.828,11.828,0,0,1-4.415.595A22.342,22.342,0,0,1,868,865a17.6,17.6,0,0,1-6.362-2.756,16.767,16.767,0,0,1-6.34-9.154,8.067,8.067,0,0,1-.115-3.95,10.117,10.117,0,0,0,.167-2c-.465.477-1.468,1.038-2.032,1.547-3.568,3.222-5.375,8.724-7,13.113-3,8.074-3.617,16.7-3.691,25.238a157.509,157.509,0,0,0,1.836,26.017,131.633,131.633,0,0,0,2.911,13.74c2.92,10.818,7.028,20.834,8.874,31.916a116.249,116.249,0,0,1,4.5,25.916,31.036,31.036,0,0,0,.628,5.26,53.447,53.447,0,0,1,.586,7.03c.42,4.761.947,9.516,1.747,14.229.333,1.961.289,3.865.916,5.745.718,2.152.729,4.772,1.042,7.02.214,1.534.425,3.088.541,4.64h27.7c.066-7.173.159-14.4-.479-21.509a154.9,154.9,0,0,1-.7-17.991c.133-4.934-.259-9.935-.091-14.9.185-5.558,1.38-11.087,1.609-16.669a71.591,71.591,0,0,1,1.768-12.26c1.01-4.669.947-9.48,2.223-14.137,1.291-4.7,2.659-9.378,3.592-14.195.849-4.381,1.372-8.8,2.269-13.159A81.954,81.954,0,0,0,904.567,873.887Z" transform="translate(-753.57 -715.226)" fill="#fffbf2"/>
          </g>
          <g id="Layer_2" data-name="Layer 2" transform="translate(367.191 118.296)">
            <g id="Grupo_82948" data-name="Grupo 82948" transform="translate(95.483 2.786)">
              <path id="Trazado_115854" data-name="Trazado 115854" d="M1036.842,216.876a.5.5,0,0,1-.354-.846c3.617-3.666,5.283-8.486,6.436-12.717a.5.5,0,0,1,.959.261c-2.115,7.762-4.567,11.005-6.688,13.154A.5.5,0,0,1,1036.842,216.876Z" transform="translate(-1036.345 -202.946)"/>
            </g>
            <g id="Grupo_82949" data-name="Grupo 82949" transform="translate(103.47 11.732)">
              <path id="Trazado_115855" data-name="Trazado 115855" d="M1081.984,258.679a.5.5,0,0,1-.165-.967,21.289,21.289,0,0,0,7.049-4.086.5.5,0,1,1,.656.747,22.283,22.283,0,0,1-7.376,4.277A.5.5,0,0,1,1081.984,258.679Z" transform="translate(-1081.486 -253.503)"/>
            </g>
            <g id="Grupo_82950" data-name="Grupo 82950" transform="translate(72.394)">
              <path id="Trazado_115856" data-name="Trazado 115856" d="M914.6,199.288a.5.5,0,0,1-.486-.392c-1.117-5.175-4.019-9.091-7.962-10.743a.5.5,0,1,1,.384-.917c4.247,1.779,7.364,5.952,8.55,11.45a.5.5,0,0,1-.486.6Z" transform="translate(-905.849 -187.197)"/>
            </g>
            <g id="Grupo_82951" data-name="Grupo 82951" transform="translate(55.045 8.746)">
              <path id="Trazado_115857" data-name="Trazado 115857" d="M817.164,239.734a.494.494,0,0,1-.241-.063,13.658,13.658,0,0,0-8.557-1.948.5.5,0,0,1-.138-.985,14.623,14.623,0,0,1,9.178,2.064.5.5,0,0,1-.242.932Z" transform="translate(-807.799 -236.626)"/>
            </g>
            <g id="Grupo_82952" data-name="Grupo 82952" transform="translate(87.909 48.671)">
              <path id="Trazado_115858" data-name="Trazado 115858" d="M997.621,481.562a4.135,4.135,0,0,1-1.652-.377,7.484,7.484,0,0,1-2.281-1.444.5.5,0,0,1,.692-.714,6.543,6.543,0,0,0,1.987,1.247,2.857,2.857,0,0,0,1.587.268,4.126,4.126,0,0,0,1.088-.338c.471-.218,1.9-.879.962-3.967-.31-1.02-.677-2.043-1.031-3.033-.324-.9-.658-1.839-.952-2.776a7.177,7.177,0,0,1-.26-1.578c-.021-.244-.041-.475-.074-.709a21.248,21.248,0,0,1,.112-5.43.5.5,0,1,1,.987.118,20.376,20.376,0,0,0-.115,5.174c.037.26.059.515.08.761a6.313,6.313,0,0,0,.218,1.366c.288.918.62,1.844.94,2.739.358,1,.729,2.036,1.046,3.078.986,3.237-.269,4.592-1.5,5.159a5.138,5.138,0,0,1-1.349.418A3.124,3.124,0,0,1,997.621,481.562Z" transform="translate(-993.537 -462.272)" fill="#ab684d"/>
            </g>
            <g id="Grupo_82953" data-name="Grupo 82953" transform="translate(40.612 60.555)">
              <path id="Trazado_115859" data-name="Trazado 115859" d="M733.692,539.881a.5.5,0,0,1-.445-.274,3.439,3.439,0,0,0-1.263-1.193,3.826,3.826,0,0,1-1.6-1.672,3.124,3.124,0,0,1,.1-2.216,5.419,5.419,0,0,0,.209-.813,1.64,1.64,0,0,0-.159-.805c-.053-.145-.107-.295-.153-.461a1.918,1.918,0,0,0-.584-1.1,3.012,3.012,0,0,0-1.993-.9.97.97,0,0,0-.667.451.5.5,0,1,1-.812-.573,1.936,1.936,0,0,1,1.346-.863,3.789,3.789,0,0,1,2.757,1.12,2.884,2.884,0,0,1,.913,1.608c.034.126.08.251.128.382a2.522,2.522,0,0,1,.208,1.29,6.279,6.279,0,0,1-.243.964,2.217,2.217,0,0,0-.123,1.553,2.943,2.943,0,0,0,1.236,1.217,4.3,4.3,0,0,1,1.6,1.571.5.5,0,0,1-.444.72Z" transform="translate(-726.227 -529.439)" fill="#ab684d"/>
            </g>
            <g id="Grupo_82954" data-name="Grupo 82954" transform="translate(127.917 60.841)">
              <path id="Trazado_115860" data-name="Trazado 115860" d="M1220.15,541.8a.5.5,0,0,1-.444-.72,4.43,4.43,0,0,1,1.641-1.616,3.052,3.052,0,0,0,1.282-1.264,2.335,2.335,0,0,0-.127-1.614,6.445,6.445,0,0,1-.25-.992,2.586,2.586,0,0,1,.214-1.323c.05-.136.1-.265.132-.4a2.963,2.963,0,0,1,.937-1.652,3.891,3.891,0,0,1,2.834-1.152,1.982,1.982,0,0,1,1.379.884.5.5,0,1,1-.812.573,1.016,1.016,0,0,0-.7-.472,3.126,3.126,0,0,0-2.07.936,1.993,1.993,0,0,0-.608,1.145c-.047.171-.1.325-.158.474a1.705,1.705,0,0,0-.165.839,5.659,5.659,0,0,0,.216.841,3.212,3.212,0,0,1,.1,2.277,3.881,3.881,0,0,1-1.649,1.719,3.561,3.561,0,0,0-1.31,1.237A.5.5,0,0,1,1220.15,541.8Z" transform="translate(-1219.654 -531.055)" fill="#ab684d"/>
            </g>
            <g id="Grupo_82955" data-name="Grupo 82955" transform="translate(31.345 112.877)">
              <path id="Trazado_115861" data-name="Trazado 115861" d="M674.645,841.609a.787.787,0,0,1-.275-.051.174.174,0,0,0-.059-.013.5.5,0,1,1,.078-.991,1.111,1.111,0,0,1,.274.054.506.506,0,0,1,.145-.011c1.32.1,2.469-1.547,2.884-2.6a11.983,11.983,0,0,0,.574-6.05c-.262-1.91-.6-3.887-1.642-5.228q-.292-.377-.587-.764a.5.5,0,0,1,.789-.6q.294.384.584.76c1.188,1.536,1.56,3.659,1.84,5.7a12.96,12.96,0,0,1-.633,6.549,6.484,6.484,0,0,1-1.406,2.155,3.253,3.253,0,0,1-2.4,1.082A.889.889,0,0,1,674.645,841.609Z" transform="translate(-673.853 -825.151)" fill="#ab684d"/>
            </g>
            <g id="Grupo_82956" data-name="Grupo 82956" transform="translate(14.409 103.77)">
              <path id="Trazado_115862" data-name="Trazado 115862" d="M578.635,776.75a.5.5,0,0,1-.3-.894,11.275,11.275,0,0,1,5.736-2.177.5.5,0,0,1,.086.991,10.266,10.266,0,0,0-5.224,1.98A.5.5,0,0,1,578.635,776.75Z" transform="translate(-578.138 -773.677)" fill="#ab684d"/>
            </g>
            <g id="Grupo_82957" data-name="Grupo 82957" transform="translate(16.331 115.502)">
              <path id="Trazado_115863" data-name="Trazado 115863" d="M597.695,861.375a2.315,2.315,0,0,1-1.759-.665,1.257,1.257,0,0,0-.234-.126,1.087,1.087,0,0,1-.764-.854.5.5,0,0,1,.981-.15,2.037,2.037,0,0,0,.2.1,1.652,1.652,0,0,1,.543.349c.746.8,2.849.074,3.767-.539,2.567-1.713,4.421-5.964,2.8-10.469a7.068,7.068,0,0,0-.938-1.585c-.143-.2-.291-.41-.427-.617-2.161-3.292-4.3-5.182-6.344-5.618a15.407,15.407,0,0,0-5.928.168.5.5,0,0,1-.2-.973,16.407,16.407,0,0,1,6.337-.167c2.347.5,4.627,2.477,6.969,6.045.126.192.262.384.406.587a7.777,7.777,0,0,1,1.063,1.825c1.336,3.717.674,9.058-3.185,11.633A6.685,6.685,0,0,1,597.695,861.375Z" transform="translate(-588.996 -839.986)" fill="#ab684d"/>
            </g>
            <g id="Grupo_82958" data-name="Grupo 82958" transform="translate(12.654 125.006)">
              <path id="Trazado_115864" data-name="Trazado 115864" d="M573.913,910.863a2.98,2.98,0,0,1-2.385-1.24,4.372,4.372,0,0,1-.9-2.217,5.652,5.652,0,0,1,.033-.93,2.548,2.548,0,0,0-.077-1.257,6.241,6.241,0,0,0-1.925-2.1l-.26-.211a.5.5,0,1,1,.629-.77l.256.208a7.085,7.085,0,0,1,2.2,2.452,3.352,3.352,0,0,1,.165,1.766,4.895,4.895,0,0,0-.032.766,3.394,3.394,0,0,0,.7,1.686,2,2,0,0,0,2.891.423c1.824-1.216,2.561-3.761,2.641-5.738a9.746,9.746,0,0,0-.464-3.244,8.392,8.392,0,0,0-2.283-3.133l-.227-.23a10.037,10.037,0,0,0-3.634-2.435.5.5,0,1,1,.348-.931,11.023,11.023,0,0,1,4,2.67l.225.228a9.247,9.247,0,0,1,2.526,3.54,10.734,10.734,0,0,1,.507,3.576c-.118,2.877-1.27,5.316-3.083,6.525A3.332,3.332,0,0,1,573.913,910.863Z" transform="translate(-568.219 -893.698)" fill="#ab684d"/>
            </g>
            <g id="Grupo_82959" data-name="Grupo 82959" transform="translate(23.823 134.561)">
              <path id="Trazado_115865" data-name="Trazado 115865" d="M631.837,956.33a.5.5,0,0,1-.476-.642,17.986,17.986,0,0,1,2.8-5.811c.217-.289.412-.556.6-.818.282-.384.548-.747.865-1.161a.5.5,0,1,1,.79.6c-.311.407-.574.765-.853,1.145-.194.265-.392.534-.61.826a17.042,17.042,0,0,0-2.649,5.5A.5.5,0,0,1,631.837,956.33Z" transform="translate(-631.339 -947.703)" fill="#ab684d"/>
            </g>
            <g id="Grupo_82960" data-name="Grupo 82960" transform="translate(18.657 155.084)">
              <path id="Trazado_115866" data-name="Trazado 115866" d="M602.638,1172.608a.5.5,0,0,1-.116-.014.5.5,0,0,1-.368-.6c.583-2.445,1.042-4.931,1.486-7.335.215-1.165.418-2.265.635-3.363.721-3.652,1.48-7.368,2.215-10.963,2.238-10.946,4.552-22.266,6.107-33.449a37.442,37.442,0,0,1,.933-4.694,33.93,33.93,0,0,1,1.333-3.728,18.845,18.845,0,0,0,1.723-6.236,37.417,37.417,0,0,0-.6-7.095,30.641,30.641,0,0,1-.406-9.406,38.607,38.607,0,0,1,1.774-6.581c1.346-3.994,2.508-7.444.926-12.342-.074-.23-.132-.462-.188-.687-.164-.659-.3-1.228-.783-1.488a.5.5,0,0,1,.476-.873,2.924,2.924,0,0,1,1.273,2.122c.054.218.105.424.169.621,1.683,5.211.414,8.978-.929,12.965a37.81,37.81,0,0,0-1.734,6.417,29.867,29.867,0,0,0,.407,9.107,38.16,38.16,0,0,1,.609,7.284,19.875,19.875,0,0,1-1.794,6.564,33.183,33.183,0,0,0-1.3,3.618,36.443,36.443,0,0,0-.908,4.57c-1.559,11.215-3.876,22.55-6.117,33.512-.734,3.593-1.494,7.307-2.214,10.956-.216,1.092-.418,2.189-.633,3.351-.446,2.417-.908,4.916-1.5,7.385A.5.5,0,0,1,602.638,1172.608Z" transform="translate(-602.141 -1063.693)" fill="#2e5378"/>
            </g>
            <g id="Grupo_82961" data-name="Grupo 82961" transform="translate(5.439 173.413)">
              <path id="Trazado_115867" data-name="Trazado 115867" d="M540.258,1182.906a.5.5,0,0,1-.352-.146,142.4,142.4,0,0,1-12.365-14.675.5.5,0,1,1,.792-.6,141.558,141.558,0,0,0,12.278,14.575.5.5,0,0,1-.352.848Z" transform="translate(-527.44 -1167.287)" fill="#2e5378"/>
            </g>
            <g id="Grupo_82962" data-name="Grupo 82962" transform="translate(2.291 197.992)">
              <path id="Trazado_115868" data-name="Trazado 115868" d="M517.57,1308.5a24.614,24.614,0,0,1-7.578-1.33.5.5,0,1,1,.305-.946,20.2,20.2,0,0,0,11.057.852.5.5,0,0,1,.225.969A17.6,17.6,0,0,1,517.57,1308.5Z" transform="translate(-509.648 -1306.201)" fill="#2e5378"/>
            </g>
            <g id="Grupo_82963" data-name="Grupo 82963" transform="translate(152.65 160.8)">
              <path id="Trazado_115869" data-name="Trazado 115869" d="M1366.093,1234.385h0a.5.5,0,0,1-.493-.5c.031-3.416-.269-6.942-.56-10.352-.252-2.962-.513-6.024-.555-9-.078-5.479-.355-11.05-.623-16.438-.1-1.941-.2-3.947-.286-5.921-.527-11.684-1.326-22.8-2.44-33.972-1.175-11.78-2.17-23.3-1.458-34.776a108.784,108.784,0,0,1,5.59-27.086.5.5,0,1,1,.945.309,107.808,107.808,0,0,0-5.542,26.838c-.708,11.4.284,22.878,1.455,34.616,1.117,11.194,1.916,22.324,2.444,34.026.089,1.971.189,3.977.285,5.917.269,5.4.546,10.977.624,16.473.042,2.939.3,5.984.552,8.928.292,3.433.594,6.983.563,10.446A.5.5,0,0,1,1366.093,1234.385Z" transform="translate(-1359.436 -1095.997)" fill="#2e5378"/>
            </g>
            <g id="Grupo_82964" data-name="Grupo 82964" transform="translate(173.991 265.65)">
              <path id="Trazado_115870" data-name="Trazado 115870" d="M1480.548,1702.916a.5.5,0,0,1-.32-.877c5.267-4.439,8.957-8.869,10.968-13.167a.5.5,0,1,1,.9.421c-2.072,4.43-5.85,8.974-11.228,13.506A.5.5,0,0,1,1480.548,1702.916Z" transform="translate(-1480.051 -1688.584)" fill="#2e5378"/>
            </g>
            <g id="Grupo_82965" data-name="Grupo 82965" transform="translate(3.87 60.453)">
              <path id="Trazado_115871" data-name="Trazado 115871" d="M525.707,532.638a.56.56,0,0,1-.209-.041c-.219-.088-.436-.191-.647-.289a8.039,8.039,0,0,0-.888-.376c-1.555-.51-3.112-1.172-4.618-1.811l-.435-.185a.559.559,0,1,1,.436-1.03l.436.185c1.484.631,3.02,1.283,4.529,1.778a8.939,8.939,0,0,1,1.014.426c.206.1.4.188.589.264a.559.559,0,0,1-.209,1.078Z" transform="translate(-518.57 -528.862)" fill="#a19086"/>
            </g>
            <g id="Grupo_82966" data-name="Grupo 82966" transform="translate(3.638 58.087)">
              <path id="Trazado_115872" data-name="Trazado 115872" d="M525.428,519.008a1.092,1.092,0,0,1-.374-.082l-.046-.017c-.217-.072-.4-.139-.562-.205l-.126-.052a5.481,5.481,0,0,0-.891-.308c-1.478-.348-2.954-.835-4.382-1.3-.468-.154-.935-.308-1.4-.456a.559.559,0,0,1,.34-1.066c.468.149.938.3,1.409.459,1.405.463,2.858.941,4.289,1.278a6.518,6.518,0,0,1,1.059.362l.124.051c.139.057.3.115.493.18l.048.017a.562.562,0,0,1,.561.375.574.574,0,0,1-.138.6A.555.555,0,0,1,525.428,519.008Zm-.516-.4h0Z" transform="translate(-517.257 -515.492)" fill="#a19086"/>
            </g>
            <g id="Grupo_82967" data-name="Grupo 82967" transform="translate(3.835 55.596)">
              <path id="Trazado_115873" data-name="Trazado 115873" d="M526.52,505.225a1.13,1.13,0,0,1-.62-.238.932.932,0,0,0-.081-.052,13.451,13.451,0,0,0-2.6-.9c-.34-.092-.692-.188-1.04-.293-.244-.074-2.506-.84-3.466-1.26a.559.559,0,0,1,.447-1.025c.9.395,3.116,1.145,3.343,1.214.333.1.677.194,1.01.285a14.5,14.5,0,0,1,2.815.981,1.877,1.877,0,0,1,.2.122l.057.038a.559.559,0,0,1,.17,1.088A.715.715,0,0,1,526.52,505.225Z" transform="translate(-518.376 -501.412)" fill="#a19086"/>
            </g>
            <g id="Grupo_82968" data-name="Grupo 82968" transform="translate(0 34.012)">
              <path id="Trazado_115874" data-name="Trazado 115874" d="M505.858,401.131h0a.559.559,0,0,1-.555-.563,16.5,16.5,0,0,1,.531-3.494c.147-.651.286-1.267.381-1.884.075-.493.144-.992.214-1.494a28.556,28.556,0,0,1,1.251-5.917q.077-.21.157-.408a7.554,7.554,0,0,1-1.13-.329,5.731,5.731,0,0,1-2.414-1.63c-.161.158-.331.3-.49.432-.1.079-.189.157-.278.236a4.487,4.487,0,0,1-1.47.963,7.55,7.55,0,0,1-1.13.329q.08.2.157.408a28.551,28.551,0,0,1,1.251,5.917c.07.5.139,1,.214,1.494.115.753.284,1.52.447,2.261a27.956,27.956,0,0,1,.554,3.054.559.559,0,1,1-1.112.118,27.07,27.07,0,0,0-.534-2.931c-.167-.759-.34-1.543-.46-2.332-.076-.5-.146-1-.216-1.51a27.727,27.727,0,0,0-1.194-5.686q-.136-.373-.283-.7a3.4,3.4,0,0,1-2.642-.684,1.706,1.706,0,0,1-.371-1.484,1.306,1.306,0,0,1,.8-1.13,1.542,1.542,0,0,1,1.516.416,6.2,6.2,0,0,1,1.369,1.724l.039,0a4.776,4.776,0,0,0,1.225-.316,3.486,3.486,0,0,0,1.1-.741c.1-.088.2-.176.309-.263a4.816,4.816,0,0,0,.539-.493,6.486,6.486,0,0,1-.783-2.129c-.18-.981-.066-2.307.852-2.812a.929.929,0,0,1,.932,0c.8.462.88,2.062.88,2.078a6.3,6.3,0,0,1-.549,2.838,4.63,4.63,0,0,0,2.118,1.525,4.777,4.777,0,0,0,1.225.316l.039,0a6.2,6.2,0,0,1,1.369-1.724,1.542,1.542,0,0,1,1.516-.417,1.306,1.306,0,0,1,.8,1.13,1.706,1.706,0,0,1-.371,1.484,3.4,3.4,0,0,1-2.642.684q-.147.329-.283.7a27.723,27.723,0,0,0-1.194,5.686c-.07.507-.14,1.012-.216,1.51-.1.656-.25,1.32-.4,1.962a15.69,15.69,0,0,0-.5,3.255A.559.559,0,0,1,505.858,401.131Zm4.968-15.923a.851.851,0,0,0-.39.219,4.749,4.749,0,0,0-.813.92,1.826,1.826,0,0,0,1.2-.322c.039-.043.157-.173.1-.556a.491.491,0,0,0-.091-.261Zm-12.914.007a.739.739,0,0,0-.078.255c-.061.384.057.513.1.556a1.826,1.826,0,0,0,1.2.322,4.752,4.752,0,0,0-.814-.92A.715.715,0,0,0,497.912,385.214Zm6.217-4.6a2.2,2.2,0,0,0-.189,1.545,5.523,5.523,0,0,0,.291,1.026,6,6,0,0,0,.155-1.539A3.089,3.089,0,0,0,504.129,380.614Z" transform="translate(-496.699 -379.422)" fill="#a84216"/>
            </g>
            <g id="Grupo_82969" data-name="Grupo 82969" transform="translate(59.238 202.191)">
              <path id="Trazado_115875" data-name="Trazado 115875" d="M840.213,1359.367a.5.5,0,0,1-.491-.425,86.855,86.855,0,0,0-3.673-14.421c-.48-1.455-1.059-2.951-1.619-4.4a44.952,44.952,0,0,1-2.925-9.625.5.5,0,1,1,.984-.141,44.238,44.238,0,0,0,2.868,9.407c.565,1.459,1.148,2.967,1.636,4.446a87.786,87.786,0,0,1,3.713,14.588.5.5,0,0,1-.42.564A.549.549,0,0,1,840.213,1359.367Z" transform="translate(-831.499 -1329.93)" fill="#2e5378"/>
            </g>
            <g id="Grupo_82970" data-name="Grupo 82970" transform="translate(160.794 147.711)">
              <path id="Trazado_115876" data-name="Trazado 115876" d="M1405.965,1032.147a.5.5,0,0,1-.46-.685,35.408,35.408,0,0,1,3.062-5.525c.75-1.181,1.526-2.4,2.173-3.645a.5.5,0,1,1,.882.459c-.667,1.281-1.454,2.521-2.216,3.719a34.678,34.678,0,0,0-2.981,5.368A.5.5,0,0,1,1405.965,1032.147Z" transform="translate(-1405.468 -1022.024)" fill="#2e5378"/>
            </g>
          </g>
        </g>
      </g>
    </g>
  </g>
</svg>
