<svg xmlns="http://www.w3.org/2000/svg" xmlns:xlink="http://www.w3.org/1999/xlink" width="125" height="127" viewBox="0 0 125 127">
  <defs>
    <clipPath id="clip-path">
      <rect id="Rectángulo_34484" data-name="Rectángulo 34484" width="105" height="105" transform="translate(485 1578)" fill="#fff"/>
    </clipPath>
  </defs>
  <g id="Grupo_84019" data-name="Grupo 84019" transform="translate(-475 -1556)">
    <circle id="Elipse_4809" data-name="Elipse 4809" cx="62.5" cy="62.5" r="62.5" transform="translate(475 1556)" fill="#ffd947"/>
    <g id="Enmascarar_grupo_125" data-name="Enmascarar grupo 125" clip-path="url(#clip-path)">
      <g id="mujer" transform="translate(485 1578)">
        <path id="Trazado_117120" data-name="Trazado 117120" d="M95.105,69.624c.137-9.453-3.014-11.1-4.589-16.645-1.586-5.586.028-9.4-1.849-15.583-1.747-5.754-4.92-6.726-5.891-14.9C81.132,8.662,66.2,1.538,58.8,1.538A7.937,7.937,0,0,0,54.321,2.7a3.284,3.284,0,0,1-3.643,0A7.937,7.937,0,0,0,46.2,1.538c-7.4,0-22.33,7.124-23.974,20.96-.971,8.172-4.144,9.144-5.891,14.9-1.877,6.183-.263,10-1.849,15.583-1.575,5.548-4.726,7.192-4.589,16.645C10.054,80.586,3.73,83.05,6.2,90.31c1.84,5.419,11.782,9.864,11.782,9.864H87.023S96.964,95.729,98.8,90.31C101.27,83.05,94.946,80.586,95.105,69.624Z" fill="#64505a"/>
        <path id="Trazado_117121" data-name="Trazado 117121" d="M52.5,3.255A3.294,3.294,0,0,1,50.679,2.7,7.937,7.937,0,0,0,46.2,1.538c-7.4,0-22.33,7.124-23.974,20.96-.971,8.172-4.144,9.144-5.891,14.9-1.877,6.183-.263,10-1.849,15.583-1.575,5.548-4.726,7.192-4.589,16.645C10.054,80.586,3.73,83.05,6.2,90.31c1.84,5.419,11.782,9.864,11.782,9.864H52.5Z" fill="#5a4650"/>
        <path id="Trazado_117122" data-name="Trazado 117122" d="M83.73,81.412,66.751,75.42a6.576,6.576,0,0,1-4.387-6.2v-8.5H42.636v8.5a6.576,6.576,0,0,1-4.387,6.2L21.27,81.412a9.864,9.864,0,0,0-6.581,9.3v12.749H90.31V90.713A9.863,9.863,0,0,0,83.73,81.412Z" fill="#b67f5f"/>
        <path id="Trazado_117123" data-name="Trazado 117123" d="M83.73,81.412l-11.329-4c-4.459,6.163-10.527,12.96-17.592,16.725a4.918,4.918,0,0,1-4.618,0C43.127,90.373,37.058,83.577,32.6,77.414l-11.329,4a9.864,9.864,0,0,0-6.581,9.3v12.748H90.311V90.713A9.864,9.864,0,0,0,83.73,81.412Z" fill="#b4e6a0"/>
        <path id="Trazado_117124" data-name="Trazado 117124" d="M42.636,66.836a24.178,24.178,0,0,0,19.727,0V60.72H42.636v6.116Z" fill="#a06e50"/>
        <path id="Trazado_117125" data-name="Trazado 117125" d="M52.5,64.008h0A21.371,21.371,0,0,1,31.129,42.636V14.69H73.871V42.636A21.371,21.371,0,0,1,52.5,64.008Z" fill="#cd916e"/>
        <path id="Trazado_117126" data-name="Trazado 117126" d="M31.129,14.69V42.636A21.229,21.229,0,0,0,55.788,63.729,21.357,21.357,0,0,1,37.7,42.637V39.528a15.784,15.784,0,0,1,2.517-8.354l.025-.039c2.349-3.769,4.262-4.251,7.158-4.981a20.339,20.339,0,0,0,5.1-1.828,20.331,20.331,0,0,0,5.1,1.828c2.9.73,4.809,1.212,7.158,4.981A29.943,29.943,0,0,0,73.789,40.2l.082.058V14.69Z" fill="#b67f5f"/>
        <path id="Trazado_117127" data-name="Trazado 117127" d="M90.516,52.979c-1.586-5.586.028-9.4-1.849-15.583-1.747-5.754-4.92-6.726-5.891-14.9C81.132,8.662,66.2,1.538,58.8,1.538A7.937,7.937,0,0,0,54.321,2.7a3.3,3.3,0,0,1-1.821.551V17.977c4.247,5.343,10.549,1.1,16.439,10.549,5.007,8.034,11.294,7.831,13.506,14.166.634,1.816.29,3.755.442,5.672.848,10.712,9.067,15.643,12.762,26.822a23.868,23.868,0,0,1-.544-5.562C95.242,60.172,92.091,58.528,90.516,52.979Z" fill="#6e5a64"/>
        <path id="Trazado_117128" data-name="Trazado 117128" d="M14.484,52.979c1.586-5.586-.028-9.4,1.849-15.583,1.747-5.754,4.92-6.726,5.891-14.9C23.868,8.662,38.8,1.538,46.2,1.538A7.937,7.937,0,0,1,50.679,2.7a3.3,3.3,0,0,0,1.821.551V17.977c-4.247,5.343-10.549,1.1-16.439,10.549-5.007,8.034-11.294,7.831-13.506,14.166-.634,1.816-.29,3.755-.442,5.672-.848,10.712-9.067,15.643-12.762,26.822a23.867,23.867,0,0,0,.544-5.562C9.758,60.172,12.909,58.528,14.484,52.979Z" fill="#64505a"/>
        <path id="Trazado_117129" data-name="Trazado 117129" d="M52.5,54.038a8.693,8.693,0,0,0,6.012-2.087,1.538,1.538,0,0,0-2.16-2.19,5.7,5.7,0,0,1-3.852,1.2,5.7,5.7,0,0,1-3.851-1.2,1.538,1.538,0,0,0-2.161,2.19A8.693,8.693,0,0,0,52.5,54.038Z"/>
        <path id="Trazado_117130" data-name="Trazado 117130" d="M42.636,37.81A1.538,1.538,0,0,0,41.1,39.349v1.644a1.538,1.538,0,0,0,3.076,0V39.349A1.538,1.538,0,0,0,42.636,37.81Z"/>
        <path id="Trazado_117131" data-name="Trazado 117131" d="M62.363,37.81a1.538,1.538,0,0,0-1.538,1.538v1.644a1.538,1.538,0,1,0,3.076,0V39.349A1.538,1.538,0,0,0,62.363,37.81Z"/>
        <path id="Trazado_117132" data-name="Trazado 117132" d="M40.992,35.955H44.28a1.538,1.538,0,0,0,0-3.076H40.992a1.538,1.538,0,0,0,0,3.076Z"/>
        <path id="Trazado_117133" data-name="Trazado 117133" d="M60.72,35.955h3.288a1.538,1.538,0,0,0,0-3.076H60.72a1.538,1.538,0,0,0,0,3.076Z"/>
        <path id="Trazado_117134" data-name="Trazado 117134" d="M99.1,80.452a23.7,23.7,0,0,1-2.462-10.806A23.861,23.861,0,0,0,93.79,56.927,24.729,24.729,0,0,1,92,52.559a24.535,24.535,0,0,1-.754-6.854,28.764,28.764,0,0,0-1.1-8.755,23.514,23.514,0,0,0-2.681-5.687A19.359,19.359,0,0,1,84.3,22.317c-.987-8.305-6.231-13.684-10.457-16.735C69.149,2.191,63.243,0,58.8,0a9.5,9.5,0,0,0-5.329,1.421,1.737,1.737,0,0,1-1.946,0A9.5,9.5,0,0,0,46.2,0C41.757,0,35.851,2.191,31.153,5.582c-4.225,3.05-9.47,8.43-10.457,16.735a19.359,19.359,0,0,1-3.154,8.946,23.525,23.525,0,0,0-2.681,5.687,28.766,28.766,0,0,0-1.1,8.755A24.534,24.534,0,0,1,13,52.559a24.759,24.759,0,0,1-1.794,4.368A23.858,23.858,0,0,0,8.357,69.647,23.7,23.7,0,0,1,5.9,80.452C4.548,83.558,3.275,86.492,4.74,90.805c1.619,4.766,6.371,7.646,8.412,8.694v3.963a1.538,1.538,0,1,0,3.076,0V90.713a8.306,8.306,0,0,1,1.123-4.168l7.266,6.228A5.032,5.032,0,0,1,26.376,96.6v6.864a1.538,1.538,0,0,0,3.076,0V96.6a8.105,8.105,0,0,0-2.833-6.161l-7.263-6.225a8.288,8.288,0,0,1,2.426-1.35l9.785-3.454c6.62,8.673,13.466,14.48,20.357,17.26a1.539,1.539,0,0,0,1.151,0,40.934,40.934,0,0,0,12.611-8.531,1.538,1.538,0,0,0-2.12-2.23A38.668,38.668,0,0,1,52.5,93.575c-7.274-3.14-13.577-9.752-17.879-15.245l4.139-1.461a8.126,8.126,0,0,0,5.413-7.651V63.979a22.909,22.909,0,0,0,16.651,0v5.239a8.126,8.126,0,0,0,5.413,7.651l4.138,1.461c-.859,1.1-1.728,2.157-2.6,3.157A1.538,1.538,0,0,0,70.1,83.506c1.119-1.286,2.236-2.664,3.33-4.1l9.787,3.454a8.292,8.292,0,0,1,2.5,1.411l-7.192,6.165A8.1,8.1,0,0,0,75.695,96.6v6.863a1.538,1.538,0,0,0,3.076,0V96.6a5.032,5.032,0,0,1,1.759-3.825L87.7,86.63a8.306,8.306,0,0,1,1.075,4.084v12.748a1.538,1.538,0,0,0,3.076,0V99.5c2.041-1.048,6.793-3.927,8.412-8.694C101.725,86.492,100.452,83.558,99.1,80.452Zm-1.757,9.363c-.975,2.87-3.6,4.952-5.5,6.141V90.713a11.419,11.419,0,0,0-7.607-10.752L67.263,73.969a5.045,5.045,0,0,1-3.361-4.75V62.5A22.924,22.924,0,0,0,75.409,42.636V37.189l.336.237c3.306,2.331,5.49,3.872,5.908,9.167a1.538,1.538,0,0,0,1.532,1.417c.04,0,.081,0,.123,0a1.538,1.538,0,0,0,1.412-1.654c-.532-6.734-3.772-9.019-7.2-11.438a23.353,23.353,0,0,1-7.274-7.2c-3.729-5.983-7.8-7.009-11.068-7.832a11.977,11.977,0,0,1-4.1-1.559,2.45,2.45,0,0,1-1.038-2.009v-3.2a1.581,1.581,0,0,0-1.491-1.6,1.538,1.538,0,0,0-1.585,1.537v3.265a2.45,2.45,0,0,1-1.038,2.009,11.977,11.977,0,0,1-4.1,1.559c-3.27.824-7.339,1.849-11.068,7.832a23.352,23.352,0,0,1-7.274,7.2c-3.43,2.419-6.67,4.7-7.2,11.438a1.538,1.538,0,1,0,3.067.242c.418-5.295,2.6-6.835,5.908-9.167a26.621,26.621,0,0,0,8.111-8.087c3.072-4.93,6.053-5.681,9.209-6.477A13.077,13.077,0,0,0,52.5,20.207a13.071,13.071,0,0,0,5.925,2.655c3.156.8,6.136,1.546,9.209,6.477a23.652,23.652,0,0,0,4.7,5.49v7.554a19.834,19.834,0,1,1-39.666.253v-.552a1.581,1.581,0,0,0-1.491-1.6,1.538,1.538,0,0,0-1.585,1.537v.616A22.924,22.924,0,0,0,41.1,62.5v6.717a5.045,5.045,0,0,1-3.361,4.75L20.759,79.961a11.419,11.419,0,0,0-7.607,10.752v5.249c-1.9-1.184-4.519-3.261-5.5-6.147-1.083-3.189-.229-5.158,1.065-8.139A26.669,26.669,0,0,0,11.433,69.6a20.991,20.991,0,0,1,2.538-11.319A27.594,27.594,0,0,0,15.964,53.4a27.38,27.38,0,0,0,.87-7.659,25.865,25.865,0,0,1,.971-7.9,20.685,20.685,0,0,1,2.375-5,22.217,22.217,0,0,0,3.571-10.165c.855-7.2,5.476-11.914,9.2-14.6,4.784-3.454,10.1-5,13.244-5a6.515,6.515,0,0,1,3.632.911,4.833,4.833,0,0,0,5.34,0A6.513,6.513,0,0,1,58.8,3.076c4.364,0,9.8,2.511,13.244,5,3.726,2.69,8.347,7.406,9.2,14.6a22.217,22.217,0,0,0,3.571,10.165,20.686,20.686,0,0,1,2.375,5,25.858,25.858,0,0,1,.971,7.9,27.388,27.388,0,0,0,.87,7.659,27.568,27.568,0,0,0,1.993,4.884A20.992,20.992,0,0,1,93.567,69.6a26.674,26.674,0,0,0,2.715,12.075C97.576,84.658,98.431,86.627,97.348,89.816Z"/>
      </g>
    </g>
  </g>
</svg>
