<svg xmlns="http://www.w3.org/2000/svg" width="355.575" height="384.333" viewBox="0 0 355.575 384.333">
  <g id="Grupo_84013" data-name="Grupo 84013" transform="translate(2913.825 8801.333)">
    <path id="Trazado_116686" data-name="Trazado 116686" d="M504.721,295.828c3.144-26.455,17.693-50.123,24.474-75.887,5.077-19.289,5.717-39.422,8.214-59.211s7.166-39.993,19.026-56.03c15.807-21.372,44.169-32.67,70.342-28.02s48.907,25.029,56.382,50.539c9.641,32.9-4.988,67.8-4.179,102.073.449,19.025,5.665,37.568,8.813,56.336s4.09,38.739-3.575,56.158c-10.246,23.283-34.629,38.045-59.657,42.6-24.9,4.527-50.939.091-75.643-3.888-19.87-3.2-33.145-26.6-39.345-43.874A89.9,89.9,0,0,1,504.721,295.828Z" transform="matrix(0.695, -0.719, 0.719, 0.695, -3318.439, -8346.655)" fill="#6b8dff"/>
    <g id="Grupo_83372" data-name="Grupo 83372" transform="translate(-5914.312 -10320.524)">
      <path id="Trazado_116651" data-name="Trazado 116651" d="M3354.788,2194.524H3225.961c2.872-63.127,10.228-122.563,31.9-150.476,36.313-.69,90.875,13.608,108.289,23.993C3335.16,2113.126,3350.183,2161.763,3354.788,2194.524Z" transform="translate(-93.018 -291)" fill="#ff681d"/>
      <path id="Trazado_116652" data-name="Trazado 116652" d="M3341.583,2054.923l1.741-8.705c16.551.915,36.067,4.912,53.154,9.882l-1.884,9.425c-1.5,7.5-14.584,11.214-29.223,8.287S3340.082,2062.426,3341.583,2054.923Z" transform="translate(-157.048 -292.217)" fill="#9e330d"/>
      <path id="Trazado_116653" data-name="Trazado 116653" d="M3402.554,2010.293l-5.443,27.217c-1.17,5.852-11.375,8.747-22.792,6.464s-19.724-8.88-18.553-14.733l5.443-27.216Z" transform="translate(-164.929 -267.713)" fill="#e0956c"/>
      <g id="Grupo_83369" data-name="Grupo 83369" transform="translate(3118.852 1520.519)">
        <path id="Trazado_116654" data-name="Trazado 116654" d="M3194.371,1786.669c-.895,21.368,13.991,39.069,28.524,40.984s22.024-13.747,25.214-33.689-6-37.714-20.545-39.579C3207.687,1751.838,3195.213,1766.585,3194.371,1786.669Z" transform="translate(-3194.333 -1650.766)" fill="#f4b18c"/>
        <path id="Trazado_116655" data-name="Trazado 116655" d="M3443.423,1637c-13.6,78.268-83.469,112.416-147.26,93.825s-94.812-85.012-66.836-156.935c15.533-39.935,62.447-63.683,123.274-45.529C3417.346,1547.685,3453.968,1576.329,3443.423,1637Z" transform="translate(-3208.008 -1522.171)" fill="#752912"/>
        <path id="Trazado_116656" data-name="Trazado 116656" d="M3418.282,1644c1.971,13.945-38.366,120.971-55.34,132.461-18.006,12.189-78.2,9.176-89.575,5.861-12.183-3.551-48.342-30.089-53.5-50.755-6.1-24.456,16.84-119.461,24.083-129.838,24.475-35.046,58.677-26.5,102.913-13.607C3388.25,1600.188,3413.17,1607.821,3418.282,1644Z" transform="translate(-3207.927 -1552.518)" fill="#ffc19f"/>
        <path id="Trazado_116657" data-name="Trazado 116657" d="M3510.971,1951.511c-1.067,4.5-8.181,6.663-15.894,4.835s-13.1-6.955-12.032-11.453,8.184-6.662,15.893-4.835S3512.037,1947.014,3510.971,1951.511Z" transform="translate(-3354.339 -1753.514)" fill="#ff9797"/>
        <path id="Trazado_116658" data-name="Trazado 116658" d="M3253.239,1876.243c-1.339,3.886-7.147,5.411-12.975,3.4s-9.464-6.784-8.125-10.671,7.149-5.41,12.974-3.4S3254.578,1872.356,3253.239,1876.243Z" transform="translate(-3215.141 -1712.084)" fill="#ff9797"/>
        <g id="Grupo_83366" data-name="Grupo 83366" transform="translate(60.97 174.04)">
          <path id="Trazado_116659" data-name="Trazado 116659" d="M3332.106,1914.739c-3.882,7.164,4.982,21.149,16.02,23.762,10.977,2.6,20.967-4.359,23.132-12.176.524-4.474-6.892-5.351-17.481-8.7S3334.467,1910.381,3332.106,1914.739Z" transform="translate(-3331.178 -1912.801)" fill="#701608"/>
          <path id="Trazado_116660" data-name="Trazado 116660" d="M3355.893,1952.283c4.981,1.542,8.436,3.91,10.2,6.965a20.438,20.438,0,0,1-11.873.34c-4.675-1.467-8.562-3.483-10.657-7.509C3345.469,1950.24,3351.438,1950.9,3355.893,1952.283Z" transform="translate(-3338.047 -1933.955)" fill="#dd6b5b"/>
          <path id="Trazado_116661" data-name="Trazado 116661" d="M3347.558,1913.292c4,.041,9.485,2.557,14.756,4.225,5.948,1.883,10.546,2.508,14.013,4.486-2.408,2.74-8.035,3.236-14.905,1.148C3353.49,1920.741,3347.56,1917.036,3347.558,1913.292Z" transform="translate(-3340.26 -1913.073)" fill="#fff"/>
        </g>
        <path id="Trazado_116662" data-name="Trazado 116662" d="M3375.574,1885.445a1.058,1.058,0,0,1-.753-1.14,7.11,7.11,0,0,0-5.412-7.878c-3.753-1.094-7.284.4-8.788,3.715a1.057,1.057,0,1,1-1.924-.874,9.664,9.664,0,0,1,18.225,5.287,1.059,1.059,0,0,1-1.175.926Z" transform="translate(-3285.414 -1717.228)" fill="#c67f75"/>
        <path id="Trazado_116663" data-name="Trazado 116663" d="M3546.957,1778.275a2.974,2.974,0,0,1-1.553-1.469c-4.246-8.793-16.334-15.75-28.153-16.17a3,3,0,1,1,.214-5.987c14.1.509,28.122,8.735,33.333,19.56a2.995,2.995,0,0,1-3.841,4.066Z" transform="translate(-3371.778 -1651.07)" fill="#752912"/>
        <path id="Trazado_116664" data-name="Trazado 116664" d="M3274.022,1703.955a2.885,2.885,0,0,1-.47-5.368c10.417-5.059,25.924-2.883,36.874,5.158a2.886,2.886,0,1,1-3.419,4.651c-9.172-6.753-22.471-8.742-30.933-4.622A2.872,2.872,0,0,1,3274.022,1703.955Z" transform="translate(-3237.357 -1618.482)" fill="#752912"/>
        <g id="Grupo_83367" data-name="Grupo 83367" transform="translate(25.76 105.948)">
          <path id="Trazado_116665" data-name="Trazado 116665" d="M3288.524,1809.9s-28.829,2.181-33.838-16.877c-6.105-23.224,16.961-33.359,27.979-26.812C3292.859,1772.27,3299.479,1786.56,3288.524,1809.9Z" transform="translate(-3252.995 -1762.347)" fill="#f9feff"/>
          <path id="Trazado_116666" data-name="Trazado 116666" d="M3259.44,1764.948c6.944-5.739,14.068-6.092,20.814-3.205,6.9,2.951,12.333,11.094,12.517,17.9-1.746-8.116-7.609-12.623-11.42-14.887-6.066-3.615-15.735-2.653-21.726,3.246-5.328,5.249-7.857,14.729-5.616,23.253C3250.275,1784.808,3252.2,1770.929,3259.44,1764.948Z" transform="translate(-3252.15 -1759.971)" fill="#773220"/>
          <path id="Trazado_116667" data-name="Trazado 116667" d="M3288.01,1798.989c.251,7.775-5.07,14.936-11.886,16s-12.544-4.384-12.8-12.159,5.07-14.937,11.885-16S3287.759,1791.214,3288.01,1798.989Z" transform="translate(-3258.343 -1774.791)" fill="#63190d"/>
          <path id="Trazado_116668" data-name="Trazado 116668" d="M3309.577,1804.5a4.294,4.294,0,0,1-3.3,4.438c-1.891.294-3.48-1.216-3.55-3.373a4.293,4.293,0,0,1,3.3-4.438C3307.917,1800.831,3309.507,1802.341,3309.577,1804.5Z" transform="translate(-3280.193 -1782.769)" fill="#fefffe"/>
        </g>
        <g id="Grupo_83368" data-name="Grupo 83368" transform="translate(107.509 133.743)">
          <path id="Trazado_116669" data-name="Trazado 116669" d="M3435.635,1857.4s27.79,18.94,44.3,6.25c20.115-15.463,2.922-37.516-12.132-38.686C3453.87,1823.878,3438.6,1831.69,3435.635,1857.4Z" transform="translate(-3435.635 -1823.746)" fill="#f9feff"/>
          <path id="Trazado_116670" data-name="Trazado 116670" d="M3504.176,1837.8c-3.56-8.848-10.54-13.376-19.083-15.015-8.734-1.675-19.114,1.786-23.387,7.27,6.639-5.635,15.264-5.854,20.471-5.447,8.3.636,17.477,7.177,19.98,15.591,2.224,7.485-.919,16.784-8.3,22.458C3501.495,1859.575,3507.886,1847.016,3504.176,1837.8Z" transform="translate(-3450.09 -1822.356)" fill="#773220"/>
          <path id="Trazado_116671" data-name="Trazado 116671" d="M3486.254,1858.754a14.4,14.4,0,1,1-15.629-13.051A14.4,14.4,0,0,1,3486.254,1858.754Z" transform="translate(-3447.767 -1835.268)" fill="#63190d"/>
          <path id="Trazado_116672" data-name="Trazado 116672" d="M3511.055,1864.871a3.995,3.995,0,1,1-4.336-3.621A3.994,3.994,0,0,1,3511.055,1864.871Z" transform="translate(-3473.031 -1843.912)" fill="#fefffe"/>
        </g>
        <path id="Trazado_116673" data-name="Trazado 116673" d="M3603.169,1920.055c-11.742,19.432-36.156,26.565-50.939,19.926s5.67-68.668,35.05-65.857C3611.749,1876.464,3614.206,1901.791,3603.169,1920.055Z" transform="translate(-3390.041 -1717.265)" fill="#ffc19f"/>
        <path id="Trazado_116674" data-name="Trazado 116674" d="M3606.055,1937.029c-3.837,8.543-16.042,13.106-22.844,8.424-2.653-1.826,11.464-31.4,16.149-30.019C3607.281,1917.769,3609.891,1928.486,3606.055,1937.029Z" transform="translate(-3409.769 -1740.195)" fill="#e0956c"/>
      </g>
      <path id="Trazado_116675" data-name="Trazado 116675" d="M3081.914,1924.305c0,9.6,6.592,17.376,14.722,17.376s14.722-7.78,14.722-17.376-6.591-17.375-14.722-17.375S3081.914,1914.709,3081.914,1924.305Z" transform="translate(-13.149 -214.987)" fill="#ffc19f"/>
      <path id="Trazado_116676" data-name="Trazado 116676" d="M3088.377,1961.048c-4.808,21.343-12.035,84.346,40.977,88.69.772-1.738,2.574-22.97,1.8-34.862-20.642-1.646-20.586-32.015-20.118-52.817C3111.11,1958.839,3089.094,1957.866,3088.377,1961.048Z" transform="translate(-14.9 -243.911)" fill="#ffc19f"/>
      <path id="Trazado_116677" data-name="Trazado 116677" d="M3219.286,2098.842c-12.6,1.881-28.539,10.462-47.921,9.846-5.48-9.361-6.332-41.019,0-50.582,10.984.194,38.628-14.1,53.765-14.028C3228.148,2062.733,3219.286,2098.842,3219.286,2098.842Z" transform="translate(-60.288 -291.029)" fill="#ff681d"/>
      <path id="Trazado_116678" data-name="Trazado 116678" d="M3420.358,1680.273c-11.542-8.2-17.187-18.818-11.964-40.147,4.927,1.559,8.964-2.044,10.083-7.8-25.748-14.88-.042-48.9-31.551-75.8-52.988-39.36-101.416-40.07-119.6-35.289-33.507,8.81-54.49,34.6-63.756,59.528-10.485,21.988-13.24,29.77-26.686,31.667,11.806,7.376,16.181,5.664,21.719.5-4.105,19.215-8.6,27.079-19.65,30.637,14.666,8.7,22.03-2.332,27.25-17.1,6.219-17.592,14.878-50.38,19.209-56.033,2.506-3.272,27.533-18.245,33.125-16.849,12.187,3.042,13.5,49.177,56.486,60.509-14.624-14.24-20.3-30.171-24.47-51.779a69.048,69.048,0,0,1,7.953,10.28c26.259,41.27,56.431,58.247,87.352,64.1-13.925,30.706-29.829,70.18,3.813,81.224-2.242-5.294-4.858-29.391,9.008-43.518C3402.047,1678.1,3408.9,1682.438,3420.358,1680.273Z" transform="translate(-65.807)" fill="#752912"/>
      <g id="Grupo_83370" data-name="Grupo 83370" transform="translate(3079.34 1677.275)">
        <path id="path3265" d="M3144.14,1928.425c10.78-8.018,20.748-.5,39.358-18.4,3.368-3.24,12.454-.043,12.5-.926-1.345-1.509-3.9-6.064-11.58-8.95-5.641-2.12-15.906-2.495-21.056-4.381-21.6-7.913-47.029-18.625-52.1-15.829,2.927,6.627-5.211,54.444,1.044,57.95,2.015,1.539,5.495,4.328,11.011,1.656C3128.085,1937.233,3135.028,1935.2,3144.14,1928.425Z" transform="translate(-3107.992 -1877.042)" fill="#b7641a" opacity="0.97" style="isolation: isolate"/>
        <path id="path3261" d="M3171.555,1947.959c-.059-2.085-1.558-2.921-4.385-3.239-2.51-.282-4.942,1.335-7.056,3.452-1.427,1.427-2.167,2.077-1.71,2.5a.708.708,0,0,0,.377.122,15.7,15.7,0,0,0,2.3-.095,2.948,2.948,0,0,1,2.414.672c1.714,1.971,5.644,2.354,6.887,1.008A6.776,6.776,0,0,0,3171.555,1947.959Z" transform="translate(-3134.825 -1913.197)" fill="#ce251d" opacity="0.97" style="isolation: isolate"/>
        <path id="path3263" d="M3210.031,1909.838c0,.314-.106.417-.511.486a6.852,6.852,0,0,1-2.825-.342,3.93,3.93,0,0,1-1.594-.818,16.5,16.5,0,0,0-3.315-1.948,14.78,14.78,0,0,0-3.768-.86,7.106,7.106,0,0,0-4.773,1.533,28.373,28.373,0,0,0-4.446,4.271,26.042,26.042,0,0,1-5.2,4.684c-1.7.963-3.613,1.378-9.688,2.1-5.116.608-7.406,1.073-9.593,1.947a6.142,6.142,0,0,0-2.748,1.667c-.148.369.08.659,1.283,1.626,2.423,1.948,3.355,2.979,3.4,3.766a1.183,1.183,0,0,1-1.459,1.26,8.676,8.676,0,0,1-1.967-1.247A9.57,9.57,0,0,0,3160,1926.3a7.345,7.345,0,0,0-2.179-.6,11.735,11.735,0,0,0-3.995.319c-1.625.5-2.465,1.14-7.242,5.53a6.539,6.539,0,0,1-2.522,1.812,11.634,11.634,0,0,1-3.989.818,4.363,4.363,0,0,1-2.561-1,12.564,12.564,0,0,1-1.367-1.691,3.906,3.906,0,0,1-1.024-2.264c-.3-2.007-.168-3.726.568-7.437a17.513,17.513,0,0,0,.516-4.487,10.7,10.7,0,0,0-1.557-4.79l-.393-.638.665-1.443a11.588,11.588,0,0,0,1.2-4.242,16.183,16.183,0,0,0-1.051-6.409,2.858,2.858,0,0,1-.22-1.972,110.116,110.116,0,0,0,.287-14.63l-.021-.839.458-.256a3.018,3.018,0,0,1,2.541-.2c.5.142,1.575.44,2.385.662a108.613,108.613,0,0,1,11.337,4c8.685,3.34,11.555,4.325,14.087,4.839.861.175,1.934.575,7.418,2.766,5.526,2.208,6.558,2.592,7.472,2.782a28.848,28.848,0,0,0,7.221.352,11.538,11.538,0,0,1,4.883.8,31.216,31.216,0,0,1,5.479,2.508C3203.224,1903.409,3210.026,1908.814,3210.031,1909.838Zm-9.344-4.85a1.058,1.058,0,0,0,.4-.411,1.885,1.885,0,0,0-.363-1.459c-.251-.324-.351-.37-1.707-.786-1.383-.425-2.252-.547-2.34-.328-.078.2.089.279.652.33a4.538,4.538,0,0,1,1.063.251,6.273,6.273,0,0,0,1.05.3,1.307,1.307,0,0,1,1.176.918c.182.475.042.846-.348.925a10.773,10.773,0,0,1-2.884-.42,6.061,6.061,0,0,0-2.808-.186,1.969,1.969,0,0,0-1.495,1.109c-.121.3-.109.385.06.452s.236.014.372-.325a1.661,1.661,0,0,1,1.552-.886,9.246,9.246,0,0,1,2.958.4C3199.586,1905.21,3200.247,1905.24,3200.687,1904.988Zm-12.265-.38c.964-.187,1.1-.28.977-.665-.214-.671-2.076-1.984-4.632-3.267-1.019-.511-1.91-1.008-1.91-1.008a.258.258,0,0,0-.19.1c-.173.233-.052.315,1.742,1.193a16.71,16.71,0,0,1,4.367,2.806l.292.317-.541.071a3.158,3.158,0,0,0-3.024,3.434c.041.819.236,1.174.409.744a2.54,2.54,0,0,0,.034-.81,2.19,2.19,0,0,1,.458-1.807A3.1,3.1,0,0,1,3188.421,1904.607Zm-5.641,3.537c1.026-1.938,1.175-2.379,1.088-3.229-.131-1.268-1.123-2.2-4.36-4.115-2.247-1.327-2.734-1.537-3.746-1.621a4.452,4.452,0,0,0-3.7,1.309c-.6.679-.6.85-.011,1.485a5.413,5.413,0,0,1,1.276,2.92,6.708,6.708,0,0,1-.32,1.964,5.237,5.237,0,0,0-.159,3.283c.468,1.322,1.274,1.693,2.934,1.347.57-.119,1.657-.29,2.418-.381a11.76,11.76,0,0,0,2.15-.453C3181.512,1910.218,3181.886,1909.832,3182.78,1908.144Zm-8.668,6.194c.58.2.854.174.748-.074a2.029,2.029,0,0,0-.626-.334,1.717,1.717,0,0,1-.983-.825,8.291,8.291,0,0,0-.789-.98,4.787,4.787,0,0,1-.732-1.137c-.281-.61-.376-.73-.52-.652-.261.141.211,1.26.83,1.961.274.311.711.849.971,1.195A1.768,1.768,0,0,0,3174.113,1914.338Zm-10.139,3.251a2.648,2.648,0,0,0,.51-2.9,7.479,7.479,0,0,0-.818-1.094,8,8,0,0,1-2.239-4.257c-.159-1.2-.525-1.528-2.367-2.15-1.057-.356-1.208-.382-1.274-.217s.04.232,1.32.724c1.687.65,1.81.767,1.924,1.822.146,1.346.935,2.794,2.542,4.667a3.754,3.754,0,0,1,.7,1.107,2.7,2.7,0,0,1-.675,2.063c-.254.275-.351.449-.307.552C3163.389,1918.135,3163.579,1918.047,3163.974,1917.589Zm-6.587,1.494a9.158,9.158,0,0,0,1.536-3.98c.4-1.906.389-2.754-.054-3.654a3.706,3.706,0,0,0-2.406-1.935,5.456,5.456,0,0,0-1.962-.509c-3.214-.2-6.138,1.127-8.666,3.919-.375.415-.829.913-1.007,1.108a1.457,1.457,0,0,0,.133,2.191c.311.323.577.457,1.963.987l1.6.613.595.627a8.246,8.246,0,0,0,1.022.919,7.085,7.085,0,0,0,5.99.648A2.646,2.646,0,0,0,3157.386,1919.083Zm6.121-21.193a1.31,1.31,0,0,0,.661-1.529c-.293-.894-2.2-2.729-3.693-3.557a7.2,7.2,0,0,1-.887-.543c-.035-.048-.124-.006-.2.092-.166.224-.088.3.94.866,1.6.886,3.583,2.906,3.531,3.6-.024.319-.9,1.026-1.506,1.219a2.547,2.547,0,0,1-1.1.042c-.98-.176-1.559.221-2.031,1.392-.17.423-.171.508-.007.541s.268-.1.548-.656c.3-.591.407-.714.731-.824a1.057,1.057,0,0,1,.586-.047A2.849,2.849,0,0,0,3163.507,1897.891Zm-7.046,1.4c1.1-2.09,1.284-2.6,1.205-3.4a1.7,1.7,0,0,0-.52-1.19,5.628,5.628,0,0,0-2.3-1.5,5.381,5.381,0,0,0-4.2-.154c-.84.3-1.6.387-4.684.554a3.173,3.173,0,0,0-1.293.243c-.526.44-.892,2.531-.63,3.6a2.308,2.308,0,0,0,1.27,1.6,17.223,17.223,0,0,1,1.555,1.117c2.109,1.7,3.045,2.226,4.277,2.383a4.473,4.473,0,0,0,2.407-.285C3154.944,1901.71,3155.461,1901.185,3156.461,1899.289Zm-12.443,21.33c.31,0,.267-.178-.169-.724a4.729,4.729,0,0,1-.631-1.091,1.577,1.577,0,0,1,.016-1.307,1.718,1.718,0,0,0-.434-2.014,2.906,2.906,0,0,1-.772-1.879c.012-.359-.105-.534-.3-.45-.175.074-.141.888.061,1.457a4.73,4.73,0,0,0,.714,1.2,1.272,1.272,0,0,1,.3,1.657,2.732,2.732,0,0,0-.181.867C3142.63,1918.951,3143.646,1920.613,3144.019,1920.619Z" transform="translate(-3121.51 -1878.271)" fill="#ffca22" opacity="0.97" style="isolation: isolate"/>
        <path id="path3273" d="M3118.465,1924.461a20.957,20.957,0,0,1,.477-6.1c.966-5.106.937-5.864-.343-8.752l-.888-2.005.789-1.97a10.615,10.615,0,0,0,1.028-5.267,19.824,19.824,0,0,0-1.653-6.3c-1.142-2.88-1.47-4.056-1.554-5.567-.071-1.265.244-2.524.6-2.383.24.1.263.3.169,1.522a11,11,0,0,0,.777,4.253c.392,1.036.423,1.073.5.623a117.92,117.92,0,0,0,.167-13.107c-.173-2.881-.936-4.123-3.059-4.976-1.692-.68-2.863-.557-4.937.519a6.8,6.8,0,0,0-2.521,2.067c-.573.9-.543,1.452.164,3.068,1.17,2.672,1.284,4.249.642,8.937a109.685,109.685,0,0,0-1.046,15.891,7.535,7.535,0,0,1-.4,2.9c-2.043,7.087-2.454,16.174-.181,21.958.658,1.676,1.595,4.625,1.593,4.074a21.307,21.307,0,0,1-.186-3,8.88,8.88,0,0,1,.853-3.012l.673-1.545,1.347-.8a8.762,8.762,0,0,1,4.175-1.337,7.2,7.2,0,0,1,1.77.489,6.96,6.96,0,0,1,1.375.846A5.853,5.853,0,0,1,3118.465,1924.461Z" transform="translate(-3105.65 -1874.006)" fill="#db8a2a" opacity="0.97" style="isolation: isolate"/>
        <path id="path3277" d="M3172.553,1960.849a4.611,4.611,0,0,1-2.477.823,5.644,5.644,0,0,1-4.8-1.834,2.074,2.074,0,0,0-2.4-.621c-.315.063-.878.116-.878.116s.479.218.92.382a3.9,3.9,0,0,1,1.9,1.283,4.282,4.282,0,0,0,1.64,1.227c1.872.859,4.668.655,5.734-.34a4.182,4.182,0,0,0,.735-1.176C3172.993,1960.569,3172.836,1960.634,3172.553,1960.849Z" transform="translate(-3136.897 -1921.185)" fill="#b50000" opacity="0.97" style="isolation: isolate"/>
        <path id="path3279" d="M3169.926,1910.778a1.694,1.694,0,0,0-.389-1.165,6.7,6.7,0,0,0-3.49-1.7,4.953,4.953,0,0,0-2.261.268,10.029,10.029,0,0,1-3.791.552c-.6.015-1.3.049-1.542.075l-.442.046-.139.3a4.592,4.592,0,0,0-.35,1.52,1.115,1.115,0,0,0,.537,1.166,9.211,9.211,0,0,0,2.38,1.284,12.937,12.937,0,0,1,1.744.88,6.092,6.092,0,0,0,3.869,1.248,3.065,3.065,0,0,0,1.121-.29,5.026,5.026,0,0,0,.912-.5c.3-.234.336-.286.653-.924.185-.372.428-.84.541-1.041A5.963,5.963,0,0,0,3169.926,1910.778Z" transform="translate(-3134.406 -1892.784)" fill="#ce251d" opacity="0.97" style="isolation: isolate"/>
        <path id="path3281" d="M3167.006,1919.571c-1.57.634-3.282.313-5.335-1a12.838,12.838,0,0,0-2.035-1.032,9.586,9.586,0,0,1-2.648-1.975c-.182-.17.341.7.477.973s.24.351,1.044.853c.316.2,1.01.707,1.542,1.132s1.136.9,1.342,1.047a4.639,4.639,0,0,0,3.256,1.082,4.279,4.279,0,0,0,2.463-.952c.156-.13.523-.385.523-.385S3167.231,1919.48,3167.006,1919.571Z" transform="translate(-3134.094 -1897.036)" fill="#b50000" opacity="0.97" style="isolation: isolate"/>
        <path id="path3283" d="M3228.738,1928.681c.076-.435.2-1.042.278-1.347a2.013,2.013,0,0,0-.1-1.571l-.194-.494-.541-.345c-.3-.189-3.015-1.788-3.157-1.878-1.634-1.046-4.1-.8-5.132.518l-.187.237.132.129a8.429,8.429,0,0,1,.994,1.428,5.384,5.384,0,0,1,.559,2.512,5.941,5.941,0,0,1-.386,1.863,4.811,4.811,0,0,0-.285,2.221l.037.22.359.115a2.722,2.722,0,0,0,.906.106c.3,0,1.645-.016,1.728-.022a4.291,4.291,0,0,0,1.682-.837,4.4,4.4,0,0,1,2.114-.97.982.982,0,0,0,.6-.186A3.47,3.47,0,0,0,3228.738,1928.681Z" transform="translate(-3168.89 -1900.837)" fill="#ce251d" opacity="0.97" style="isolation: isolate"/>
        <path id="path3285" d="M3232.109,1932.176a2.123,2.123,0,0,0-.178-1.03,5.281,5.281,0,0,0-.927-1.039l-.139-.1.083.28a2.18,2.18,0,0,1-.033,1.32c-.074.26-.2.843-.274,1.294a3.71,3.71,0,0,1-.719,1.979,1.092,1.092,0,0,1-.8.28,4.132,4.132,0,0,0-1.931.892,4.314,4.314,0,0,1-1.93.907,12.786,12.786,0,0,1-2.613-.041c-.207-.045-.212-.042-.164.089a1.283,1.283,0,0,0,.684.634,2.074,2.074,0,0,0,1.326-.028,13.5,13.5,0,0,1,2.215-.363c1.942-.213,2.728-.455,3.354-1.034a2.869,2.869,0,0,0,.726-1.059c.211-.408.476-.9.59-1.1A7.778,7.778,0,0,0,3232.109,1932.176Z" transform="translate(-3170.417 -1905.056)" fill="#b50000" opacity="0.97" style="isolation: isolate"/>
      </g>
      <path id="Trazado_116679" data-name="Trazado 116679" d="M3074.182,1862.942c-.036-3.276,4.9-5.6,11.015-5.186s11.11,3.4,11.146,6.677-4.895,5.6-11.014,5.185a20.214,20.214,0,0,1-4.022-.705c5.205,2.608,8.53,6.931,7.424,9.893-.945,2.535-4.832,3.139-9.263,1.865,1.4,1.935,2,3.925,1.29,5.448-1.212,2.606-5.613,2.791-10.111.688,1.694,2.364,2.177,5.03.946,6.78-1.689,2.4-5.9,2.158-9.405-.539s-4.978-6.831-3.29-9.231c1.2-1.7,3.682-2.013,6.27-1.119-1.834-2.158-2.735-4.466-1.935-6.186.914-1.963,3.663-2.53,6.87-1.833-1.369-1.808-1.961-3.667-1.4-5.167,1.013-2.718,5.4-3.212,10.226-1.538C3076.144,1866.71,3074.2,1864.916,3074.182,1862.942Z" transform="translate(0 -187.695)" fill="#ffc19f"/>
      <g id="Grupo_83371" data-name="Grupo 83371" transform="translate(3156.407 1764.345)">
        <path id="Trazado_116680" data-name="Trazado 116680" d="M3278.971,2183.115l14.1-57.156c1.781-7.215,10.087-23.458,18.489-31.931l.729-2.955a6.929,6.929,0,0,1,8.637-4.891l3.882.615a7.151,7.151,0,0,1,5.229,8.656l-.73,2.955c3.5,11.408,3.292,29.65,1.511,36.864l-14.105,57.157a11.75,11.75,0,0,1-14.223,8.593l-14.931-3.685A11.749,11.749,0,0,1,3278.971,2183.115Z" transform="translate(-3278.626 -2078.592)" fill="#c5dbf9"/>
        <path id="Trazado_116681" data-name="Trazado 116681" d="M3356.714,2069.53l15.743,3.885a3.211,3.211,0,0,1,2.348,3.887l-1.424,5.768a3.211,3.211,0,0,1-3.888,2.349l-15.743-3.885a3.214,3.214,0,0,1-2.349-3.888l1.424-5.768A3.212,3.212,0,0,1,3356.714,2069.53Z" transform="translate(-3318.926 -2069.435)" fill="#76a0dd"/>
        <path id="Trazado_116682" data-name="Trazado 116682" d="M3333.073,2196.095l-10.421,42.228c-8.916,1.565-34.27-5.273-38.208-9.429l10.421-42.228C3301.941,2190.907,3328,2197.192,3333.073,2196.095Z" transform="translate(-3281.851 -2134.435)" fill="#76a0dd"/>
      </g>
      <path id="Trazado_116683" data-name="Trazado 116683" d="M3302.709,2225.723c3.955,1.216,12.437-.64,16.557,1.15a2.478,2.478,0,0,1,.366.323c-8.624.342-15.843,3.82-22.687,5.477-2.3,9.387,10.284,3.641,23.338,2-7.756,2.164-12.7,4.542-18.075,5.777-4.16,3.843-2.381,6.739,3.065,6.062,4.209-.523,11.562-2.739,19.155-3.873.667.2-15.689,6.683-17.295,10.29.472,1.906,3.775,3.219,8.783,1.241,2.709-1.07,5.54-2.83,11.743-4.419,5.3.7,9.8,3.835,11.9,4.709,7.926,2.242,12.178-8.555,12.289-10.854.289-5.976-10.03-17.7-16.53-20.083-10.895-4-16.264-6.3-34.062-2.578C3298.1,2222.81,3300.784,2225.132,3302.709,2225.723Z" transform="translate(-132.224 -388.054)" fill="#ffc19f"/>
      <path id="Trazado_116684" data-name="Trazado 116684" d="M3382.031,2182.923c.1-2.309,3.036-10.549,6.507-19.863,20.468,12.106,34.866,6.184,38.685.516,9.326-13.844,10.2-40.88,11.792-66.371,5.328,3.25,16.716,17.324,20.591,28.772,7.31,21.586-2.889,52.572-18.68,61.259C3424.225,2196.422,3403.946,2197.544,3382.031,2182.923Z" transform="translate(-179.553 -320.487)" fill="#ffc19f"/>
      <path id="Trazado_116685" data-name="Trazado 116685" d="M3520.577,2156.619c-18.8.724-49.512-1.935-49.493-10.835.018-8.122-7.062-67.613,28.187-53.979C3509.492,2096.883,3524.274,2124.168,3520.577,2156.619Z" transform="translate(-228.613 -316.372)" fill="#ff681d"/>
    </g>
  </g>
</svg>
