<svg xmlns="http://www.w3.org/2000/svg" xmlns:xlink="http://www.w3.org/1999/xlink" width="117" height="117" viewBox="0 0 117 117">
  <defs>
    <clipPath id="clip-path">
      <rect id="Rectángulo_34407" data-name="Rectángulo 34407" width="117" height="117" transform="translate(322 7857)" fill="#fff"/>
    </clipPath>
  </defs>
  <g id="Enmascarar_grupo_115" data-name="Enmascarar grupo 115" transform="translate(-322 -7857)" clip-path="url(#clip-path)">
    <g id="voto-positivo" transform="translate(322.791 7857)">
      <path id="Trazado_116325" data-name="Trazado 116325" d="M104.14,64.079a51.1,51.1,0,1,1-51.1-51.1,51.1,51.1,0,0,1,51.1,51.1Zm0,0" fill="#937de2"/>
      <path id="Trazado_116326" data-name="Trazado 116326" d="M53.035,12.975a51.543,51.543,0,0,0-7.943.615,51.11,51.11,0,0,1,0,100.975,51.105,51.105,0,1,0,7.938-101.59Zm0,0" fill="#7570d6"/>
      <path id="Trazado_116327" data-name="Trazado 116327" d="M110.52,60.3,81.337,79.624a9.937,9.937,0,0,1-7.059,1.53A9.97,9.97,0,0,0,67.2,82.681L63.3,85.269,41.427,53.031,46.792,29.85a24.185,24.185,0,0,0-3.4-18.814,5.784,5.784,0,0,1,8.849-7.347l3.476,3.367A37.162,37.162,0,0,1,64.687,20.8l1.885,5.075,19.41-12.825a6.619,6.619,0,0,1,9.274,2.02,6.706,6.706,0,0,1-2.079,9.092.073.073,0,0,0-.027.092.074.074,0,0,0,.095.037,6.557,6.557,0,0,1,2.366-.439,6.616,6.616,0,0,1,6.5,7.9,6.765,6.765,0,0,1-2.775,4.192.142.142,0,0,0-.037.2,0,0,0,0,0,.005,0,.139.139,0,0,0,.187.037A6.785,6.785,0,0,1,101.1,36a6.977,6.977,0,0,1,3.733,1.082,6.5,6.5,0,0,1,1.931,1.894,6.617,6.617,0,0,1-1.866,9.172c-.075.051-.15.1-.225.15a.1.1,0,0,0-.034.129.062.062,0,0,0,.024.024.106.106,0,0,0,.131-.005,6.481,6.481,0,0,1,5.616.723,6.72,6.72,0,0,1,1.976,1.96A6.621,6.621,0,0,1,110.52,60.3Zm0,0" fill="#fdd7bd"/>
      <path id="Trazado_116328" data-name="Trazado 116328" d="M63.577,91.387l-12.31,8.152-17.773,11.77A51.158,51.158,0,0,1,2.414,71.1L23.04,57.443,35.6,49.128a3.14,3.14,0,0,1,4.353.887L64.464,87.03a3.144,3.144,0,0,1-.887,4.357Zm0,0" fill="#87dbff"/>
      <path id="Trazado_116329" data-name="Trazado 116329" d="M63.577,91.387l-12.31,8.152L23.04,57.443,35.6,49.128a3.14,3.14,0,0,1,4.353.887L64.464,87.03a3.144,3.144,0,0,1-.887,4.357Zm0,0" fill="#6fc7ff"/>
      <g id="Grupo_83228" data-name="Grupo 83228">
        <path id="Trazado_116330" data-name="Trazado 116330" d="M99.218,24.916l-9.71,5.2a3.146,3.146,0,0,1-4.012-.9l7.655-4.953a.073.073,0,0,0,.095.037,6.557,6.557,0,0,1,2.366-.439,6.666,6.666,0,0,1,3.607,1.062Zm0,0" fill="#fac5aa"/>
        <path id="Trazado_116331" data-name="Trazado 116331" d="M104.828,37.079l-9.5,5.079a3.143,3.143,0,0,1-4.012-.9l7.655-4.953.33-.155a.139.139,0,0,0,.187.037A6.8,6.8,0,0,1,101.095,36a6.964,6.964,0,0,1,3.733,1.082Zm0,0" fill="#fac5aa"/>
        <path id="Trazado_116332" data-name="Trazado 116332" d="M110.405,49.167l-8.367,4.476a3.147,3.147,0,0,1-4.012-.9l6.631-4.291a.106.106,0,0,0,.131-.005,6.481,6.481,0,0,1,5.616.723Zm0,0" fill="#fac5aa"/>
      </g>
      <path id="Trazado_116333" data-name="Trazado 116333" d="M113.9,50.123a8.38,8.38,0,0,0-5.19-3.572,8.428,8.428,0,0,0-5.621-12.15,8.449,8.449,0,0,0-.437-8.585,8.373,8.373,0,0,0-5.19-3.572A8.437,8.437,0,0,0,85.334,11.285l-8.4,5.563a52.49,52.49,0,0,0-14.182-4.8A39,39,0,0,0,57.34,5.5L53.865,2.133A7.6,7.6,0,0,0,42.233,11.79q.137.208.269.417a52.924,52.924,0,1,0,60.325,69.847A1.819,1.819,0,1,0,99.4,80.819a49.35,49.35,0,0,1-61.93,30.036l14.8-9.8,0,0,0,0,12.3-8.146h0a4.962,4.962,0,0,0,1.4-6.876l-.162-.246,2.39-1.583a8.1,8.1,0,0,1,5.774-1.248,11.73,11.73,0,0,0,8.36-1.808l19.82-13.125a49.39,49.39,0,0,1-.67,5.109,1.819,1.819,0,0,0,1.457,2.121,1.775,1.775,0,0,0,.334.031,1.82,1.82,0,0,0,1.786-1.488,53.206,53.206,0,0,0,.869-8.274l5.585-3.7A8.439,8.439,0,0,0,113.9,50.123ZM73.4,19.186l-5.558,3.681-1.094-2.948A38.931,38.931,0,0,0,65.188,16.3,48.834,48.834,0,0,1,73.4,19.186ZM15.793,31.8a49.289,49.289,0,0,1,28.448-16.22A22.475,22.475,0,0,1,45.375,29.19L40.94,48.353a4.952,4.952,0,0,0-6.349-.74L22.027,55.932h0L3.9,67.933c-.1-1.278-.151-2.566-.151-3.854A49.27,49.27,0,0,1,15.793,31.8ZM63.14,89.028a1.318,1.318,0,0,1-.568.841h0l-10.8,7.155L31.715,67.118a1.819,1.819,0,0,0-3.022,2.026L48.734,99.033,33.31,109.247A49.436,49.436,0,0,1,4.379,71.913L22.521,59.938l2.088,3.115a1.819,1.819,0,1,0,3.022-2.026l-2.074-3.093L36.6,50.646a1.324,1.324,0,0,1,1.833.374L62.947,88.036a1.312,1.312,0,0,1,.193.993Zm48.428-33.291a4.767,4.767,0,0,1-2.054,3.047l-6.385,4.228-.006,0L80.332,78.108a8.1,8.1,0,0,1-5.774,1.248,11.736,11.736,0,0,0-8.36,1.808l-2.39,1.583L43.731,52.43l5.19-22.419a26.138,26.138,0,0,0-1.914-17.158,1.783,1.783,0,0,0-.077-.162A25.733,25.733,0,0,0,45.266,9.78a3.965,3.965,0,0,1,6.066-5.036l3.475,3.369a35.545,35.545,0,0,1,8.53,13.073l1.892,5.1.011.027.014.036c.013.031.026.06.039.084a1.8,1.8,0,0,0,.125.225,1.818,1.818,0,0,0,2.521.512l19.4-12.849a4.8,4.8,0,1,1,5.3,8l-1.684,1.116h0L87.2,25.927a.136.136,0,0,1-.014.01c-.021.015-.042.029-.059.044a1.818,1.818,0,0,0,2.083,2.98l3.76-2.49a4.8,4.8,0,0,1,5.3,8.006l-5.443,3.605a1.819,1.819,0,1,0,2.008,3.033l.843-.558,2.915-1.931a4.8,4.8,0,0,1,5.3,8l-2.719,1.8-.043.029-2.681,1.775a1.819,1.819,0,1,0,2.008,3.034l.843-.558h0l2.915-1.93a4.8,4.8,0,0,1,7.353,4.957Zm0,0"/>
    </g>
  </g>
</svg>
