<svg xmlns="http://www.w3.org/2000/svg" xmlns:xlink="http://www.w3.org/1999/xlink" width="117" height="117" viewBox="0 0 117 117">
  <defs>
    <clipPath id="clip-path">
      <rect id="Rectángulo_34411" data-name="Rectángulo 34411" width="117" height="117" transform="translate(1162 7857)" fill="#fff"/>
    </clipPath>
  </defs>
  <g id="Enmascarar_grupo_117" data-name="Enmascarar grupo 117" transform="translate(-1162 -7857)" clip-path="url(#clip-path)">
    <g id="buscando_1_" data-name="buscando (1)" transform="translate(1162 7857)">
      <g id="Grupo_83230" data-name="Grupo 83230">
        <path id="Trazado_116343" data-name="Trazado 116343" d="M93.6,21.911a31.8,31.8,0,1,0-5.367,49.269c1.646-2.176,3.377-3.355,5.659-5.331,2.042-1.762,2.1-4,2.1-6.607a6.964,6.964,0,1,0-13.923.253,5.706,5.706,0,1,1-11.4,0,18.364,18.364,0,0,1,32.131-12.4,31.728,31.728,0,0,0-9.2-25.185Z" fill="#99ebfa" fill-rule="evenodd"/>
      </g>
      <g id="Grupo_83231" data-name="Grupo 83231">
        <path id="Trazado_116344" data-name="Trazado 116344" d="M41.307,14.617A42.112,42.112,0,0,0,83.335,84.685c.1-4.936.817-6.789,3.682-11.673a17.667,17.667,0,0,1,1.212-1.833A31.785,31.785,0,1,1,102.794,47.1a18.278,18.278,0,0,1,4.6,12.145,23.847,23.847,0,0,1-1.355,8.693A42.11,42.11,0,0,0,71.156,2.283h-.11A42,42,0,0,0,41.307,14.617Z" fill="#33d6f5" fill-rule="evenodd"/>
      </g>
      <g id="Grupo_83232" data-name="Grupo 83232">
        <path id="Trazado_116345" data-name="Trazado 116345" d="M28.979,65.369A7.4,7.4,0,0,0,28.8,75.636c.058.065.117.123.175.188L39.648,86.486c.058.058.123.117.181.175a7.432,7.432,0,0,0,10.28-.175L53.8,82.793A42.236,42.236,0,0,1,32.673,61.677Z" fill="#ffcd69" fill-rule="evenodd"/>
      </g>
      <g id="Grupo_83233" data-name="Grupo 83233">
        <path id="Trazado_116346" data-name="Trazado 116346" d="M28.8,75.636,18.05,86.382,29.082,97.4l10.747-10.74c-.058-.058-.123-.117-.181-.175L28.979,75.824C28.92,75.759,28.862,75.7,28.8,75.636Z" fill="#ebddd9" fill-rule="evenodd"/>
      </g>
      <g id="Grupo_83234" data-name="Grupo 83234">
        <path id="Trazado_116347" data-name="Trazado 116347" d="M18.05,86.382l-6.339,6.335,11.032,11.025L29.082,97.4Z" fill="#99ebfa" fill-rule="evenodd"/>
      </g>
      <g id="Grupo_83235" data-name="Grupo 83235">
        <path id="Trazado_116348" data-name="Trazado 116348" d="M11.711,92.717,6.046,98.379A7.8,7.8,0,0,0,17.072,109.4l5.672-5.661Z" fill="#ebddd9" fill-rule="evenodd"/>
      </g>
      <g id="Grupo_83236" data-name="Grupo 83236">
        <path id="Trazado_116349" data-name="Trazado 116349" d="M89.026,103.314a5.7,5.7,0,1,0,5.7,5.7A5.7,5.7,0,0,0,89.026,103.314Z" fill="#ffcd69" fill-rule="evenodd"/>
      </g>
      <g id="Grupo_83237" data-name="Grupo 83237">
        <path id="Trazado_116350" data-name="Trazado 116350" d="M87.017,73.012c-2.865,4.884-3.585,6.737-3.682,11.673-.006.441-.013.9-.013,1.393a5.7,5.7,0,0,0,11.408,0c0-3.608.227-4.068,2.126-7.307,1.069-1.827,2.93-2.947,4.492-4.3a16.2,16.2,0,0,0,4.686-6.529v-.006a23.847,23.847,0,0,0,1.355-8.693,18.364,18.364,0,1,0-36.726.253,5.706,5.706,0,1,0,11.4,0,6.964,6.964,0,1,1,13.923-.253c0,2.611-.058,4.845-2.1,6.607-2.282,1.976-4.012,3.155-5.659,5.331a17.7,17.7,0,0,0-1.212,1.833Z" fill="#ffcd69" fill-rule="evenodd"/>
      </g>
      <g id="Grupo_83238" data-name="Grupo 83238">
        <path id="Trazado_116351" data-name="Trazado 116351" d="M89.027,101.029a7.985,7.985,0,1,0,7.989,7.985A8,8,0,0,0,89.027,101.029Zm0,11.4a3.415,3.415,0,1,1,3.419-3.415A3.421,3.421,0,0,1,89.027,112.43Z"/>
        <path id="Trazado_116352" data-name="Trazado 116352" d="M102.511,13A43.956,43.956,0,0,0,76.291.3,44.666,44.666,0,0,0,48.3,6.282,2.285,2.285,0,1,0,50.648,10.2a39.855,39.855,0,0,1,58.7,45.387,20.56,20.56,0,0,0-4.214-9.244A34.1,34.1,0,1,0,82.6,76.459a17.854,17.854,0,0,0-1.476,6.47A39.919,39.919,0,0,1,34.834,60.938a2.266,2.266,0,0,0-.17-.381,39.683,39.683,0,0,1,2.281-36.7,2.285,2.285,0,1,0-3.914-2.36A44.6,44.6,0,0,0,29.947,61.17l-2.584,2.582A9.705,9.705,0,0,0,25.805,75.4l-9.371,9.365,0,0,0,0L10.1,91.1l0,0,0,0L4.43,96.762A10.081,10.081,0,0,0,18.687,111.02l5.608-5.6c.021-.02.043-.037.064-.058s.037-.042.057-.063l15.65-15.64A9.7,9.7,0,0,0,51.726,88.1l2.6-2.6a44.38,44.38,0,0,0,26.866,2.119,7.989,7.989,0,0,0,15.827-1.544c0-3.061.034-3.119,1.813-6.152a10.577,10.577,0,0,1,2.673-2.634c.441-.348.9-.707,1.342-1.093a18.65,18.65,0,0,0,5.252-7.232A44.4,44.4,0,0,0,102.511,13ZM29.082,94.17l-7.8-7.789L28.8,78.873l7.8,7.791Zm-6.342,6.338-7.8-7.791,3.107-3.1,7.8,7.789Zm-7.286,7.281A5.511,5.511,0,0,1,7.661,100l4.05-4.047,7.8,7.791Zm33.04-22.92a5.12,5.12,0,0,1-7.231,0L30.594,74.207a5.124,5.124,0,0,1,0-7.222l1.431-1.43a44.76,44.76,0,0,0,17.911,17.87Zm1.727-19.62A29.515,29.515,0,1,1,100.536,42.11,20.589,20.589,0,0,0,74.42,44.684a20.886,20.886,0,0,0-6.042,14.81,7.99,7.99,0,1,0,15.972,0,4.754,4.754,0,0,1,4.676-4.924A4.679,4.679,0,0,1,93.7,59.241c0,2.606-.124,3.855-1.31,4.879-.529.457-1.03.873-1.514,1.276a26.592,26.592,0,0,0-4.194,4.054A29.713,29.713,0,0,1,50.221,65.249Zm49.631,7.494c-.367.318-.762.63-1.18.959a14.322,14.322,0,0,0-3.786,3.913c-2.1,3.585-2.44,4.453-2.44,8.463a3.419,3.419,0,0,1-6.838,0c0-.484,0-.934.013-1.36,0-.008,0-.016,0-.024.093-4.559.747-6.055,3.368-10.526A17.864,17.864,0,0,1,93.8,68.912c.5-.417,1.021-.848,1.583-1.334,2.892-2.5,2.892-5.735,2.892-8.337a9.248,9.248,0,1,0-18.494.253,3.424,3.424,0,1,1-6.831,0,16.079,16.079,0,1,1,32.156-.253c0,6.363-1.521,10.275-5.252,13.5Z"/>
        <path id="Trazado_116353" data-name="Trazado 116353" d="M41.3,16.9A2.286,2.286,0,1,0,39.691,13l-.006.006A2.284,2.284,0,0,0,41.3,16.9Z"/>
      </g>
    </g>
  </g>
</svg>
