<svg xmlns="http://www.w3.org/2000/svg" width="104" height="101.011" viewBox="0 0 104 101.011">
  <g id="conversation" transform="translate(0 -7.358)">
    <path id="Trazado_117280" data-name="Trazado 117280" d="M42.692,308.846v19.108A15.868,15.868,0,0,1,20.256,342.39v0a15.868,15.868,0,0,1-9.135-12.259,5.116,5.116,0,1,1,5.306-8.447l1.332-7.637.908-5.2H42.692Z" transform="translate(-6.13 -240.248)" fill="#fcd2be"/>
    <path id="Trazado_117281" data-name="Trazado 117281" d="M20.255,362.788a15.868,15.868,0,0,1-9.135-12.259,5.116,5.116,0,1,1,5.306-8.447l1.332-7.637,4.175.848C20.177,338.329,12.762,349.407,20.255,362.788Z" transform="translate(-6.129 -260.648)" fill="#fab998"/>
    <path id="Trazado_117282" data-name="Trazado 117282" d="M62.972,270.779a13.78,13.78,0,0,1-13.78,13.78H34.8v1.279a5.509,5.509,0,0,1-5.51,5.508,5.117,5.117,0,0,0-5.452-1.158v-5.629a13.782,13.782,0,0,1,13.78-13.78Z" transform="translate(-18.995 -209.913)" fill="#f9ce55"/>
    <path id="Trazado_117283" data-name="Trazado 117283" d="M48.864,270.779H37.617a13.782,13.782,0,0,0-13.78,13.78v5.629a5.118,5.118,0,0,1,5.452,1.158,5.508,5.508,0,0,0,5.51-5.508v-1.279h.285A13.782,13.782,0,0,1,48.864,270.779Z" transform="translate(-18.995 -209.913)" fill="#e2a11e"/>
    <path id="Trazado_117284" data-name="Trazado 117284" d="M90.9,64.264H51.777a4.492,4.492,0,0,0-4.492,4.492V88.513a4.492,4.492,0,0,0,4.492,4.492H73.839v8.123l7.244-8.123H90.9A4.492,4.492,0,0,0,95.4,88.513V68.756A4.492,4.492,0,0,0,90.9,64.264Z" transform="translate(-37.68 -45.347)" fill="#3facc9"/>
    <path id="Trazado_117285" data-name="Trazado 117285" d="M247.172,15.048H286.3a4.492,4.492,0,0,1,4.492,4.492V39.3a4.492,4.492,0,0,1-4.492,4.492H264.236v8.123l-7.245-8.123h-9.82A4.492,4.492,0,0,1,242.68,39.3V19.54A4.492,4.492,0,0,1,247.172,15.048Z" transform="translate(-193.385 -6.128)" fill="#00c7a9"/>
    <path id="Trazado_117286" data-name="Trazado 117286" d="M342.925,303.638s-.027-.01-.079-.033a14.315,14.315,0,0,1-8.121-13.134l-24-23.713c-1.125-4.161-.779-11.472,9.554-12.313q.965-.081,2.05-.081c12.332,0,24.433.991,26.993,19.143C351.029,285.651,346.578,297.45,342.925,303.638Z" transform="translate(-247.255 -196.832)" fill="#6b4b3d"/>
    <path id="Trazado_117287" data-name="Trazado 117287" d="M382.128,303.638s-.027-.01-.079-.033a.027.027,0,0,0,0-.013c4.166-35.408-11.872-49.148-22.573-49.148q.965-.081,2.05-.081c12.332,0,24.433.991,26.993,19.143C390.232,285.651,385.781,297.45,382.128,303.638Z" transform="translate(-286.458 -196.832)" fill="#5b3d2d"/>
    <path id="Trazado_117288" data-name="Trazado 117288" d="M343.337,319.487a4.726,4.726,0,0,1-1.78,1.122,14.629,14.629,0,0,1-29.12-2.006V306.254s6.485.233,9.045-2.327a13.211,13.211,0,0,0,11.747,5.287v0a13.882,13.882,0,0,0,3.434-.631v4.238l0,0a4.717,4.717,0,0,1,6.672,6.671Z" transform="translate(-248.973 -236.328)" fill="#fcd2be"/>
    <path id="Trazado_117289" data-name="Trazado 117289" d="M414.323,337.745a4.727,4.727,0,0,1-1.78,1.122,14.634,14.634,0,0,1-11.025,12.207c7.6-4.168,2.762-23.344,2.7-23.6v0a13.882,13.882,0,0,0,3.434-.631v4.237l0,0a4.717,4.717,0,0,1,6.671,6.672Z" transform="translate(-319.959 -254.585)" fill="#fab998"/>
    <path id="Trazado_117290" data-name="Trazado 117290" d="M108.793,368.254v-2.623a1.562,1.562,0,0,0-3.124,0v2.623a1.562,1.562,0,0,0,3.124,0Z" transform="translate(-84.205 -284.254)"/>
    <path id="Trazado_117291" data-name="Trazado 117291" d="M139.244,365.631v2.623a1.562,1.562,0,1,0,3.124,0v-2.623a1.562,1.562,0,0,0-3.124,0Z" transform="translate(-110.96 -284.254)"/>
    <path id="Trazado_117292" data-name="Trazado 117292" d="M80.174,417.963a1.562,1.562,0,1,0-2.713,1.55,8.994,8.994,0,0,0,7.765,4.469l.085,0a1.562,1.562,0,0,0,.082-3.122A5.938,5.938,0,0,1,80.174,417.963Z" transform="translate(-61.562 -326.573)"/>
    <path id="Trazado_117293" data-name="Trazado 117293" d="M43.976,263.094H18.622A15.359,15.359,0,0,0,3.281,278.435a1.562,1.562,0,1,0,3.124,0,12.231,12.231,0,0,1,12.217-12.217H42.315A12.236,12.236,0,0,1,30.2,276.873H15.8a1.562,1.562,0,0,0-1.562,1.562v1.278a3.953,3.953,0,0,1-3.4,3.908,6.684,6.684,0,0,0-6.56-1.018,6.683,6.683,0,0,0-.7,12.156A17.423,17.423,0,0,0,38.124,291.5v-8.918a1.562,1.562,0,1,0-3.124,0V291.5a14.3,14.3,0,0,1-28.462,1.963,1.563,1.563,0,0,0-1.03-1.262,3.553,3.553,0,0,1-1.343-5.868,3.507,3.507,0,0,1,1.237-.807,3.558,3.558,0,0,1,3.78.8,1.562,1.562,0,0,0,1.189.465A7.08,7.08,0,0,0,17.361,280H30.2a15.359,15.359,0,0,0,15.341-15.341A1.563,1.563,0,0,0,43.976,263.094Z" transform="translate(0 -203.789)"/>
    <path id="Trazado_117294" data-name="Trazado 117294" d="M89.266,80.823A1.562,1.562,0,0,0,87.7,82.385a2.933,2.933,0,0,1-2.93,2.93H74.955a1.562,1.562,0,0,0-1.166.522L69.273,90.9V86.877a1.562,1.562,0,0,0-1.562-1.562H45.648a2.933,2.933,0,0,1-2.93-2.93V62.628a2.933,2.933,0,0,1,2.93-2.93H75.521a1.562,1.562,0,0,0,0-3.124H45.648a6.061,6.061,0,0,0-6.054,6.054V82.385a6.061,6.061,0,0,0,6.054,6.054h20.5V95a1.562,1.562,0,0,0,2.728,1.04l6.779-7.6h9.12a6.061,6.061,0,0,0,6.054-6.054A1.563,1.563,0,0,0,89.266,80.823Z" transform="translate(-31.551 -39.219)"/>
    <path id="Trazado_117295" data-name="Trazado 117295" d="M241.043,39.223h9.12l6.779,7.6a1.562,1.562,0,0,0,2.728-1.04v-6.56h20.5a6.061,6.061,0,0,0,6.054-6.054V13.412a6.061,6.061,0,0,0-6.054-6.054h-3.552a1.562,1.562,0,1,0,0,3.124h3.552a2.933,2.933,0,0,1,2.93,2.93V33.169a2.933,2.933,0,0,1-2.93,2.93H258.107a1.562,1.562,0,0,0-1.562,1.562v4.024l-4.517-5.064a1.564,1.564,0,0,0-1.166-.522h-9.819a2.933,2.933,0,0,1-2.93-2.93V13.412a2.933,2.933,0,0,1,2.93-2.93H271.62a1.562,1.562,0,1,0,0-3.124H241.043a6.061,6.061,0,0,0-6.054,6.054V33.17A6.061,6.061,0,0,0,241.043,39.223Z" transform="translate(-187.257)"/>
    <path id="Trazado_117296" data-name="Trazado 117296" d="M364.319,46.32H346.706a1.562,1.562,0,1,0,0,3.124h17.613a1.562,1.562,0,0,0,0-3.124Z" transform="translate(-275.036 -31.048)"/>
    <path id="Trazado_117297" data-name="Trazado 117297" d="M276.54,49.445h9.045a1.562,1.562,0,1,0,0-3.124H276.54a1.562,1.562,0,1,0,0,3.124Z" transform="translate(-219.123 -31.049)"/>
    <path id="Trazado_117298" data-name="Trazado 117298" d="M412.117,77.849h-5.429a1.562,1.562,0,0,0,0,3.124h5.429a1.562,1.562,0,0,0,0-3.124Z" transform="translate(-322.834 -56.172)"/>
    <path id="Trazado_117299" data-name="Trazado 117299" d="M276.54,80.974h21.229a1.562,1.562,0,0,0,0-3.124H276.54a1.562,1.562,0,0,0,0,3.124Z" transform="translate(-219.123 -56.173)"/>
    <path id="Trazado_117300" data-name="Trazado 117300" d="M276.54,112.5h22.166a1.562,1.562,0,0,0,0-3.124H276.54a1.562,1.562,0,0,0,0,3.124Z" transform="translate(-219.123 -81.297)"/>
    <path id="Trazado_117301" data-name="Trazado 117301" d="M78.65,95.584H87.7a1.562,1.562,0,1,0,0-3.124H78.65a1.562,1.562,0,1,0,0,3.124Z" transform="translate(-61.429 -67.816)"/>
    <path id="Trazado_117302" data-name="Trazado 117302" d="M163.057,95.584a1.562,1.562,0,0,0,0-3.124h-9.045a1.562,1.562,0,1,0,0,3.124Z" transform="translate(-121.483 -67.816)"/>
    <path id="Trazado_117303" data-name="Trazado 117303" d="M78.65,123.988a1.562,1.562,0,1,0,0,3.124h27.373a1.562,1.562,0,0,0,0-3.124Z" transform="translate(-61.429 -92.939)"/>
    <path id="Trazado_117304" data-name="Trazado 117304" d="M126.259,155.517a1.562,1.562,0,1,0,0,3.124h12.5a1.562,1.562,0,1,0,0-3.124Z" transform="translate(-99.368 -118.064)"/>
    <path id="Trazado_117305" data-name="Trazado 117305" d="M78.65,155.517a1.562,1.562,0,1,0,0,3.124h4.463a1.562,1.562,0,0,0,0-3.124Z" transform="translate(-61.429 -118.064)"/>
    <path id="Trazado_117306" data-name="Trazado 117306" d="M369.341,343.73v-2.42a1.562,1.562,0,1,0-3.124,0v2.42a1.562,1.562,0,0,0,3.124,0Z" transform="translate(-291.829 -264.873)"/>
    <path id="Trazado_117307" data-name="Trazado 117307" d="M338.372,343.73v-2.42a1.562,1.562,0,1,0-3.124,0v2.42a1.562,1.562,0,0,0,3.124,0Z" transform="translate(-267.15 -264.873)"/>
    <path id="Trazado_117308" data-name="Trazado 117308" d="M362.945,393.776a1.562,1.562,0,0,0,1.558,1.479l.085,0a8.412,8.412,0,0,0,7.261-4.183,1.562,1.562,0,1,0-2.713-1.55,5.363,5.363,0,0,1-4.715,2.613A1.562,1.562,0,0,0,362.945,393.776Z" transform="translate(-289.22 -303.907)"/>
    <path id="Trazado_117309" data-name="Trazado 117309" d="M443.319,285.8c-.99-7.019-3.4-12.047-7.371-15.371a1.562,1.562,0,0,0-2.005,2.4c3.35,2.805,5.406,7.192,6.283,13.412,1.468,10.408-1.733,20.935-5.455,27.816a12.764,12.764,0,0,1-5.415-6.906,1.562,1.562,0,1,0-2.979.94,15.9,15.9,0,0,0,8.408,9.509,1.562,1.562,0,0,0,1.94-.65C441.012,309.682,445,297.687,443.319,285.8Z" transform="translate(-339.711 -209.343)"/>
    <path id="Trazado_117310" data-name="Trazado 117310" d="M335.112,276.061a6.281,6.281,0,0,0-4.735-11.564v-1.549a1.563,1.563,0,0,0-2.089-1.471c-.08.029-8.082,2.794-13.417-4.136a1.562,1.562,0,0,0-2.342-.152c-1.267,1.267-4.389,1.78-6.686,1.866a7.7,7.7,0,0,1,1.213-6.077c1.621-2.117,4.695-3.19,9.136-3.19,5.091,0,10.431.144,14.839,1.869a1.562,1.562,0,0,0,1.138-2.91c-4.914-1.922-10.587-2.083-15.977-2.083-5.465,0-9.374,1.485-11.617,4.415-2.791,3.645-1.975,8.173-1.494,9.95a1.562,1.562,0,0,0,1.452,1.154c.635.023,5.614.135,8.854-1.759a14.551,14.551,0,0,0,10.031,4.725,17.154,17.154,0,0,0,3.834-.219v2.257a1.563,1.563,0,0,0,2.671,1.1,3.162,3.162,0,0,1,3.365-.711,3.155,3.155,0,0,1,1.095,5.175,3.151,3.151,0,0,1-1.193.752,1.562,1.562,0,0,0-1.03,1.262,13.067,13.067,0,0,1-26.01-1.794v-7.062a1.562,1.562,0,1,0-3.124,0v7.063a16.192,16.192,0,0,0,32.086,3.09Z" transform="translate(-241.124 -190.696)"/>
  </g>
</svg>
