<svg xmlns="http://www.w3.org/2000/svg" width="302.477" height="311.193" viewBox="0 0 302.477 311.193">
  <g id="Grupo_83330" data-name="Grupo 83330" transform="translate(-366.345 -377.856)">
    <g id="Grupo_83323" data-name="Grupo 83323" transform="translate(437.454 492.307)">
      <path id="Trazado_116534" data-name="Trazado 116534" d="M1314.029,965.971h8.15a8.52,8.52,0,0,0-4.816-1.457H1113.192c-10.682,0-19.341,7.676-19.341,17.145v10.89c0,9.469,8.66,17.145,19.341,17.145l201.888-.061Z" transform="translate(-1093.851 -964.514)" fill="#e03268"/>
      <path id="Trazado_116535" data-name="Trazado 116535" d="M1163.55,992.549v-10.89c0-9.469,8.659-17.145,19.341-17.145h-4.384c-10.682,0-19.342,7.676-19.342,17.145v10.89c0,9.469,8.659,17.145,19.342,17.145h4.326C1172.178,1009.665,1163.55,1002,1163.55,992.549Z" transform="translate(-1146.424 -964.514)" fill="#feb546"/>
      <path id="Trazado_116536" data-name="Trazado 116536" d="M1408.654,992.549v-10.89c0-9.469,8.659-17.145,19.342-17.145h-4.385c-10.682,0-19.342,7.676-19.342,17.145v10.89c0,9.469,8.66,17.145,19.342,17.145h4.326C1417.282,1009.665,1408.654,1002,1408.654,992.549Z" transform="translate(-1343.71 -964.514)" fill="#feb546"/>
      <path id="Trazado_116537" data-name="Trazado 116537" d="M1551.991,964.721c-10.216,0-18.5,7.341-18.5,16.4v12.307c0,9.055,8.281,16.4,18.5,16.4h127.1v-2.753h-.525l-32.312-2.713-6.531-22.712s12.6-12.55,13.427-12.874,25.416-1.306,25.416-1.306l.525,0v-2.738Z" transform="translate(-1447.725 -964.681)" fill="#ff5b7e"/>
      <path id="Trazado_116538" data-name="Trazado 116538" d="M1687.809,998.548c0-13.279,7.741-19.716,7.741-19.716h-124c-9.383,0-16.989,6.743-16.989,15.06v9.474c0,8.318,7.606,15.06,16.989,15.06h124S1687.809,1015.268,1687.809,998.548Z" transform="translate(-1464.685 -976.039)" fill="#daeef7"/>
      <path id="Trazado_116539" data-name="Trazado 116539" d="M1554.565,993.892v9.474a13.464,13.464,0,0,0,.5,3.612c4.182-9.07,12.2-17.806,27.455-20.615,35.623-6.559,113.035-7.53,113.035-7.53h-124C1562.171,978.832,1554.565,985.575,1554.565,993.892Z" transform="translate(-1464.685 -976.039)" fill="#daeef7" style="mix-blend-mode: multiply;isolation: isolate"/>
    </g>
    <g id="Grupo_83324" data-name="Grupo 83324" transform="translate(405.072 582.245)">
      <path id="Trazado_116540" data-name="Trazado 116540" d="M1177.061,1427.351h9.224a9,9,0,0,0-5.451-1.825H949.753a21.679,21.679,0,0,0-21.891,21.461v13.632a21.679,21.679,0,0,0,21.891,21.46l228.5-.076Z" transform="translate(-927.862 -1425.526)" fill="#07085b"/>
      <path id="Trazado_116541" data-name="Trazado 116541" d="M1446.388,1425.787a20.732,20.732,0,0,0-20.935,20.523v15.405a20.732,20.732,0,0,0,20.935,20.523h143.855v-3.446h-.595l-36.571-3.4-7.392-28.428s14.266-15.709,15.2-16.114,28.766-1.634,28.766-1.634l.595-.006v-3.427Z" transform="translate(-1328.378 -1425.736)" fill="#55769f"/>
      <path id="Trazado_116542" data-name="Trazado 116542" d="M1600.106,1468.127c0-16.621,8.761-24.678,8.761-24.678H1468.528A19.043,19.043,0,0,0,1449.3,1462.3v11.858a19.043,19.043,0,0,0,19.229,18.851h140.339S1600.106,1489.056,1600.106,1468.127Z" transform="translate(-1347.572 -1439.952)" fill="#daeef7"/>
      <path id="Trazado_116543" data-name="Trazado 116543" d="M1449.3,1462.3v11.858a18.54,18.54,0,0,0,.561,4.521c4.733-11.353,13.8-22.288,31.074-25.8,40.318-8.209,127.934-9.426,127.934-9.426H1468.528A19.043,19.043,0,0,0,1449.3,1462.3Z" transform="translate(-1347.572 -1439.952)" fill="#daeef7" style="mix-blend-mode: multiply;isolation: isolate"/>
    </g>
    <g id="Grupo_83325" data-name="Grupo 83325" transform="translate(384.786 537.372)">
      <path id="Trazado_116544" data-name="Trazado 116544" d="M850.75,1196.961h-9.228a10.626,10.626,0,0,1,5.453-1.448h231.172c12.095,0,21.9,7.624,21.9,17.028v10.816c0,9.4-9.8,17.028-21.9,17.028l-228.587-.06Z" transform="translate(-838.081 -1195.513)" fill="#02ccc0"/>
      <path id="Trazado_116545" data-name="Trazado 116545" d="M967.793,1195.718c11.567,0,20.943,7.291,20.943,16.285v12.224c0,8.994-9.376,16.285-20.943,16.285H823.882v-2.734h.595l36.585-2.694,7.395-22.557s-14.272-12.465-15.2-12.786-28.777-1.3-28.777-1.3l-.595-.005v-2.719Z" transform="translate(-823.882 -1195.678)" fill="#06bfad"/>
      <path id="Trazado_116546" data-name="Trazado 116546" d="M835.563,1229.315c0-13.189-8.765-19.582-8.765-19.582H967.192c10.624,0,19.237,6.7,19.237,14.958v9.409c0,8.261-8.613,14.958-19.237,14.958H826.8S835.563,1245.921,835.563,1229.315Z" transform="translate(-826.229 -1206.959)" fill="#daeef7"/>
      <path id="Trazado_116547" data-name="Trazado 116547" d="M986.429,1224.691v9.409a11.84,11.84,0,0,1-.561,3.587c-4.735-9.009-13.81-17.686-31.086-20.475-40.334-6.514-127.984-7.479-127.984-7.479H967.192C977.816,1209.733,986.429,1216.43,986.429,1224.691Z" transform="translate(-826.229 -1206.959)" fill="#daeef7" style="mix-blend-mode: multiply;isolation: isolate"/>
      <path id="Trazado_116548" data-name="Trazado 116548" d="M1859.251,1223.358v-10.816c0-9.4-9.8-17.028-21.9-17.028H1859.3c12.095,0,21.9,7.624,21.9,17.028v10.816c0,9.4-9.8,17.029-21.9,17.029l-21.661-.006C1849.6,1240.259,1859.251,1232.686,1859.251,1223.358Z" transform="translate(-1639.635 -1195.513)" fill="#55769f" opacity="0.5"/>
    </g>
    <path id="Trazado_116549" data-name="Trazado 116549" d="M758.32,1717.616h-9.948A11.149,11.149,0,0,1,754.25,1716h249.209c13.038,0,23.608,8.518,23.608,19.026v12.085c0,10.508-10.57,19.026-23.608,19.026l-246.421-.068Z" transform="translate(-378.317 -1077.086)" fill="#feb546"/>
    <path id="Trazado_116550" data-name="Trazado 116550" d="M884.494,1716.229c12.469,0,22.577,8.146,22.577,18.195v13.658c0,10.049-10.108,18.195-22.577,18.195H729.355v-3.055H730l39.439-3.01,7.972-25.2s-15.385-13.927-16.389-14.286S730,1719.273,730,1719.273l-.641-.005v-3.038Z" transform="translate(-363.01 -1077.271)" fill="#f4a640"/>
    <path id="Trazado_116551" data-name="Trazado 116551" d="M741.948,1753.767c0-14.735-9.449-21.878-9.449-21.878H883.847c11.453,0,20.737,7.482,20.737,16.712v10.513c0,9.23-9.285,16.712-20.737,16.712H732.5S741.948,1772.322,741.948,1753.767Z" transform="translate(-365.541 -1089.876)" fill="#daeef7"/>
    <path id="Trazado_116552" data-name="Trazado 116552" d="M781.392,1899.956l2.118,4.725a.774.774,0,0,1-.39,1.023l-11.063,4.959a.877.877,0,0,1-1.092-1.282l4.281-6.67A6.816,6.816,0,0,0,781.392,1899.956Z" transform="translate(-396.383 -1225.155)" fill="#07085b"/>
    <path id="Trazado_116553" data-name="Trazado 116553" d="M853.438,1899.956l2.118,4.725a.774.774,0,0,1-.39,1.023l-11.063,4.959a.877.877,0,0,1-1.092-1.282l4.281-6.67A6.815,6.815,0,0,0,853.438,1899.956Z" transform="translate(-454.373 -1225.155)" fill="#07085b"/>
    <path id="Trazado_116554" data-name="Trazado 116554" d="M2104.415,1173.731l-2.118,4.725a.774.774,0,0,0,.39,1.023l11.063,4.959a.877.877,0,0,0,1.092-1.282l-4.281-6.67A6.816,6.816,0,0,1,2104.415,1173.731Z" transform="translate(-1468.051 -640.608)" fill="#07085b"/>
    <path id="Trazado_116555" data-name="Trazado 116555" d="M2030.928,1170.85l-2.118,4.724a.775.775,0,0,0,.39,1.024l11.063,4.959a.877.877,0,0,0,1.092-1.283l-4.281-6.67A6.816,6.816,0,0,1,2030.928,1170.85Z" transform="translate(-1408.901 -638.289)" fill="#07085b"/>
    <path id="Trazado_116556" data-name="Trazado 116556" d="M904.584,1748.6v10.513a13.673,13.673,0,0,1-.6,4.008c-5.1-10.065-14.888-19.76-33.511-22.877-43.481-7.278-137.969-8.356-137.969-8.356H883.847C895.3,1731.889,904.584,1739.371,904.584,1748.6Z" transform="translate(-365.541 -1089.876)" fill="#daeef7" style="mix-blend-mode: multiply;isolation: isolate"/>
    <path id="Trazado_116557" data-name="Trazado 116557" d="M1019.351,1217.134l1.176,7.378,2.485-9.837s-3.483-1.69-3.637-1.076A27.427,27.427,0,0,0,1019.351,1217.134Z" transform="translate(-596.39 -672.591)" fill="#07085b"/>
    <path id="Trazado_116558" data-name="Trazado 116558" d="M1078.909,1313.671l1.076,12.755-11.255-.537,1.3-11.3Z" transform="translate(-636.176 -753.247)" fill="#ffc0bb"/>
    <path id="Trazado_116559" data-name="Trazado 116559" d="M1072.217,1319.965l.617-5.372,8.882-.922.372,4.417C1080.323,1319.848,1077.147,1321.672,1072.217,1319.965Z" transform="translate(-638.983 -753.247)" fill="#f99893"/>
    <g id="Grupo_83326" data-name="Grupo 83326" transform="translate(421.935 536.92)">
      <path id="Trazado_116560" data-name="Trazado 116560" d="M1018.7,1262.448a2.308,2.308,0,1,1-3.253-1.554A2.581,2.581,0,0,1,1018.7,1262.448Z" transform="translate(-1014.304 -1247.539)" fill="#f99893"/>
      <path id="Trazado_116561" data-name="Trazado 116561" d="M1026.152,1209.128c-.059-.365-.139-.726-.226-1.085a12.027,12.027,0,1,1,23.693-3.585,2.6,2.6,0,0,1,2.325-.33c1.465.546,2.1,2.473,1.417,4.3s-2.423,2.872-3.888,2.327a2.3,2.3,0,0,1-.559-.306,11.278,11.278,0,0,1-10.534,11.027,10.794,10.794,0,0,1-7.5-2.579C1028.106,1216.859,1026.7,1212.528,1026.152,1209.128Z" transform="translate(-1023.388 -1193.193)" fill="#ffc0bb"/>
      <path id="Trazado_116562" data-name="Trazado 116562" d="M1069.641,1255.1c-.023.689-.028,1.362-.064,2.021a4.481,4.481,0,0,1-.371,1.787,1.711,1.711,0,0,0-.477,1.054,1.421,1.421,0,0,0,.525,1.113,2.319,2.319,0,0,0,2.07.4,2.863,2.863,0,0,1-1.692-.789.912.912,0,0,1-.249-.691c.028-.253.106-.3.411-.727a2.682,2.682,0,0,0,.326-1.1,5.645,5.645,0,0,0,0-1.061A7.192,7.192,0,0,0,1069.641,1255.1Z" transform="translate(-1058.111 -1243.027)" fill="#f99893"/>
      <path id="Trazado_116563" data-name="Trazado 116563" d="M1093.854,1255.24a1.05,1.05,0,1,0,1-1.1A1.05,1.05,0,0,0,1093.854,1255.24Z" transform="translate(-1078.334 -1242.251)" fill="#333"/>
      <path id="Trazado_116564" data-name="Trazado 116564" d="M1047.836,1260.428a1.05,1.05,0,1,0,1-1.1A1.049,1.049,0,0,0,1047.836,1260.428Z" transform="translate(-1041.293 -1246.427)" fill="#333"/>
      <path id="Trazado_116565" data-name="Trazado 116565" d="M1070.2,1296.208a7.6,7.6,0,0,1-.868.659,7.518,7.518,0,0,1-.935.542,6.509,6.509,0,0,1-2.037.626,5.554,5.554,0,0,1-2.115-.156,7.812,7.812,0,0,1-1.968-.894,5.838,5.838,0,0,0,1.906,1.1,5.016,5.016,0,0,0,2.211.227,5.747,5.747,0,0,0,2.1-.712A6.292,6.292,0,0,0,1070.2,1296.208Z" transform="translate(-1052.918 -1276.111)" fill="#f99893"/>
      <path id="Trazado_116566" data-name="Trazado 116566" d="M1087.1,1242.48a10.791,10.791,0,0,1,1.535-.368,5.312,5.312,0,0,1,1.458-.032,4.918,4.918,0,0,1,1.4.372c.349.109,1.2.608,1.418.7a3.528,3.528,0,0,0-2.728-1.9,3.545,3.545,0,0,0-1.725.23A3.225,3.225,0,0,0,1087.1,1242.48Z" transform="translate(-1072.901 -1231.862)" fill="#07085b"/>
      <path id="Trazado_116567" data-name="Trazado 116567" d="M1040.41,1247.115a3.232,3.232,0,0,0-1.528-.709,3.541,3.541,0,0,0-1.737.11,3.529,3.529,0,0,0-2.307,2.391c.2-.14.934-.793,1.254-.967a4.926,4.926,0,0,1,1.3-.637,5.34,5.34,0,0,1,1.436-.251A10.807,10.807,0,0,1,1040.41,1247.115Z" transform="translate(-1030.832 -1235.976)" fill="#07085b"/>
    </g>
    <path id="Trazado_116568" data-name="Trazado 116568" d="M818.973,1603.968s2.347,15.923-13.037,18.7-34.526,1.947-34.526,1.947l-2.664,36.575-8.031.41s-20.68-50.818,7.944-58.763l25.724.126,10.592-.757s10.718-2.648,10.845-2.144S818.721,1604.22,818.973,1603.968Z" transform="translate(-382.438 -983.713)" fill="#06bfad"/>
    <path id="Trazado_116569" data-name="Trazado 116569" d="M891.443,1604.4s2.347,15.922-13.037,18.7-34.526,1.946-34.526,1.946l-2.664,36.575-8.031.41s-20.68-50.818,7.944-58.762l25.724.126,10.592-.756s10.719-2.648,10.845-2.144S891.191,1604.651,891.443,1604.4Z" transform="translate(-440.769 -984.06)" fill="#02ccc0"/>
    <path id="Trazado_116570" data-name="Trazado 116570" d="M942.968,1348.816s-10.592,1.345-13.283,3.531-15.636,34.3-15.636,34.3l10.76,12.61,22.866.168s17.15,9.247,27.91.5,5.212-39.175-1.009-45.732-17.318-6.389-17.318-6.389S947.171,1354.869,942.968,1348.816Z" transform="translate(-511.672 -780.724)" fill="#ff5b7e"/>
    <path id="Trazado_116571" data-name="Trazado 116571" d="M1163.314,1434.852a44.411,44.411,0,0,0-.776,5.309c-.092.891-.131,1.786-.182,2.68-.027.9-.048,1.792-.035,2.689a35.385,35.385,0,0,0,.442,5.367,17.65,17.65,0,0,0,1.56,5.14,26.38,26.38,0,0,1-1.025-5.213c-.2-1.758-.263-3.531-.285-5.3s.007-3.549.063-5.327S1163.219,1436.638,1163.314,1434.852Z" transform="translate(-711.506 -850.787)" fill="#fff"/>
    <path id="Trazado_116572" data-name="Trazado 116572" d="M968.553,1428.819c-.484,2.6-1,5.2-1.517,7.79s-1.082,5.172-1.709,7.734-1.307,5.111-2.14,7.608a37.28,37.28,0,0,1-1.429,3.675,14.158,14.158,0,0,1-2.032,3.372,12.878,12.878,0,0,0,2.336-3.221,30.318,30.318,0,0,0,1.633-3.644c.476-1.243.884-2.509,1.271-3.78s.715-2.559,1.033-3.847c.3-1.292.595-2.586.856-3.887s.5-2.6.709-3.914C968,1434.091,968.334,1431.46,968.553,1428.819Z" transform="translate(-548.438 -845.931)" fill="#fff"/>
    <path id="Trazado_116573" data-name="Trazado 116573" d="M977.684,1567.566c.067-.532,4.108-1.126,5.594-1.2,1.125-.058,8.586-.308,11.123-.422l-.186.653.038,2.881.417,1.909c-2.226.141-7.668.354-8.8.578a27.811,27.811,0,0,0-4.14,1.44s-1.092-.248.3-.847a6.666,6.666,0,0,0,2.227-1.6c.19-.213-.016-.592-.155-.556-3.778.99-4.167,1.154-4.167,1.154s-4.441-.025-.025-1.023c2.647-.6,3.6-.946,3.831-1.243.1-.126-.079-.557-.24-.567-2.293-.142-6.409.671-5.281.138a29.085,29.085,0,0,1,4.941-1.091c.069-.011.181-.43-.127-.456C980.844,1567.135,977.622,1568.061,977.684,1567.566Z" transform="translate(-562.892 -956.302)" fill="#ffc0bb"/>
    <path id="Trazado_116574" data-name="Trazado 116574" d="M1084.4,1541.18c-.93.226-1.847.486-2.781.681-.927.221-1.868.382-2.8.579q-2.812.513-5.641.9c-1.888.248-3.779.476-5.674.659s-3.808.348-5.677.453l-.251.014-.055.218a15.457,15.457,0,0,0-.345,1.886,15.176,15.176,0,0,0-.112,1.9,12.277,12.277,0,0,0,.165,1.906,8.8,8.8,0,0,0,.553,1.839l.022.051.041.027,2.077,1.393q1.038.7,2.088,1.378c-.651-.522-1.309-1.034-1.969-1.543l-1.979-1.528.062.078a8.378,8.378,0,0,1-.435-1.768,12.206,12.206,0,0,1-.089-1.829,17.215,17.215,0,0,1,.167-1.83,15,15,0,0,1,.368-1.791l-.307.232c.988-.026,1.923-.09,2.884-.16s1.909-.146,2.861-.247c1.9-.2,3.805-.434,5.7-.736s3.771-.674,5.635-1.115c.928-.237,1.858-.466,2.772-.754C1082.6,1541.823,1083.5,1541.5,1084.4,1541.18Z" transform="translate(-630.007 -936.372)" fill="#fff"/>
    <path id="Trazado_116575" data-name="Trazado 116575" d="M732.5,1464.585H773.86l11.727,28.625h19.924a1.009,1.009,0,0,1,1.009,1.009h0a1.009,1.009,0,0,1-1.009,1.009H746.244Z" transform="translate(-365.541 -874.72)" fill="#07085b"/>
    <path id="Trazado_116576" data-name="Trazado 116576" d="M837.417,1537.463a1.989,1.989,0,1,0,1.491-2.6A2.127,2.127,0,0,0,837.417,1537.463Z" transform="translate(-449.95 -931.263)" fill="#daeef7"/>
    <path id="Trazado_116577" data-name="Trazado 116577" d="M1009.28,1162.841s-3.531.114.174-2.872,13.655-6.488,20.032-3.12c0,0,1.276-2.711,3.119-2.064s-1.2,2.513-1.2,2.513,2.354-.076,3.073,1.079c.531.854-.91.891-1.7.853,1.34.228,6.478,3.473,3.9,13.832-.917-.2-6.139-7.775-6.139-7.775s-11.943,6.635-10.762,1.359c0,0-12.374,7.722-10.618,1.343C1009.16,1167.989,1004.375,1168.34,1009.28,1162.841Z" transform="translate(-586.545 -625.278)" fill="#07085b"/>
    <path id="Trazado_116578" data-name="Trazado 116578" d="M1127.63,1197.5a2.263,2.263,0,0,0-2.053.5c-1.064.844-.946,3.81-.946,3.81s-5.077,3.274-4.542-10.58c.57-14.738,4.235,1.182,4.235,1.182Z" transform="translate(-677.484 -649.654)" fill="#07085b"/>
    <path id="Trazado_116579" data-name="Trazado 116579" d="M1973.67,386.165s12.056-2.033,16.1,11.437l-4.993,7.474s-10.472-4.023-10.513-4.417S1973.67,386.165,1973.67,386.165Z" transform="translate(-1364.573 -6.6)" fill="#ff5b7e"/>
    <path id="Trazado_116580" data-name="Trazado 116580" d="M1814.417,417.722s-3.516,5.289-5.31,7.385c-4.513,5.275-5.094,3.62-7.9,8.158-3.028,4.9.036,7.964,1.776,9.375s-1.172,6.633,2.072,9.559c4.246,3.831,8.174.218,11.1,2.365s3.56,5.328,10.484,4.727,6.857-23.24,6.857-23.24-5.667-12-5.892-12.1S1814.417,417.722,1814.417,417.722Z" transform="translate(-1224.726 -32.088)" fill="#ff5b7e"/>
    <path id="Trazado_116581" data-name="Trazado 116581" d="M1954.879,445.241a20.32,20.32,0,0,0,1.788,6.547c3.456,6.021,5.319,4.048,7.233,9.027,2.067,5.374-1.512,7.819-3.484,8.883s-.078,6.735-3.809,9.009c-4.883,2.977-8.073-1.3-11.341.266s-4.486,4.575-11.179,2.7-2.428-24.109-2.428-24.109,7.795-10.744,8.034-10.8S1954.879,445.241,1954.879,445.241Z" transform="translate(-1329.68 -54.239)" fill="#ff5b7e"/>
    <path id="Trazado_116582" data-name="Trazado 116582" d="M1889.744,574.59s-11.555-2.126-16.87-1.946,3.22,14,3.22,14l8.679.193s5.321-5.942,4.97-6.634.016-5.225.016-5.225Z" transform="translate(-1282.038 -156.778)" fill="#ffc0bb"/>
    <g id="Grupo_83328" data-name="Grupo 83328" transform="translate(588.684 384.661)">
      <path id="Trazado_116583" data-name="Trazado 116583" d="M1901.144,526.144,1898.1,535.4s2.654,5.487,10.781,3.12c0,0-.927-1.916.317-5.862C1910.464,528.622,1901.144,526.144,1901.144,526.144Z" transform="translate(-1892.427 -504.019)" fill="#ffc0bb"/>
      <path id="Trazado_116584" data-name="Trazado 116584" d="M1907.819,526.144l-1.431,4.322c.852,3.159,3.618,5.31,8.833,5.977a12.533,12.533,0,0,1,.646-3.789C1917.139,528.622,1907.819,526.144,1907.819,526.144Z" transform="translate(-1899.101 -504.019)" fill="#fc8d84" opacity="0.6"/>
      <g id="Grupo_83327" data-name="Grupo 83327" transform="translate(0 0)">
        <path id="Trazado_116585" data-name="Trazado 116585" d="M2007.76,483.466a2.436,2.436,0,1,0,3.37-1.765A2.724,2.724,0,0,0,2007.76,483.466Z" transform="translate(-1980.45 -468.115)" fill="#f99893"/>
        <path id="Trazado_116586" data-name="Trazado 116586" d="M1896.682,434.907a23.483,23.483,0,0,0,1.426-5.8c.048-.387.118-.771.2-1.153a12.692,12.692,0,1,0-25.126-2.864,2.743,2.743,0,0,0-2.465-.258c-1.524.633-2.118,2.689-1.327,4.594s2.667,2.936,4.19,2.3a2.429,2.429,0,0,0,.578-.344A11.9,11.9,0,0,0,1885.69,442.6,11.678,11.678,0,0,0,1896.682,434.907Z" transform="translate(-1869.036 -412.733)" fill="#ffc0bb"/>
        <path id="Trazado_116587" data-name="Trazado 116587" d="M1963.6,477.534a7.751,7.751,0,0,0-.406,2.139,6.02,6.02,0,0,0,.039,1.116,2.831,2.831,0,0,0,.384,1.14c.278.356.423.474.464.759a.977.977,0,0,1-.243.75,3,3,0,0,1-1.765.887,2.459,2.459,0,0,0,2.156-.516,1.484,1.484,0,0,0,.5-1.182,1.808,1.808,0,0,0-.542-1.084,2.685,2.685,0,0,1-.315-.866,9.214,9.214,0,0,1-.145-1.015C1963.667,478.968,1963.639,478.259,1963.6,477.534Z" transform="translate(-1943.919 -464.892)" fill="#f99893"/>
        <path id="Trazado_116588" data-name="Trazado 116588" d="M1939.368,478.632a1.108,1.108,0,1,1-1.1-1.119A1.108,1.108,0,0,1,1939.368,478.632Z" transform="translate(-1923.863 -464.875)" fill="#333"/>
        <path id="Trazado_116589" data-name="Trazado 116589" d="M1988.1,482.322a1.108,1.108,0,1,1-1.1-1.119A1.108,1.108,0,0,1,1988.1,482.322Z" transform="translate(-1963.091 -467.845)" fill="#333"/>
        <path id="Trazado_116590" data-name="Trazado 116590" d="M1947.514,525.754a3.725,3.725,0,0,1,3.076.409,2.741,2.741,0,0,1,2.882-.045,3.062,3.062,0,0,1-3.238,2.239A2.737,2.737,0,0,1,1947.514,525.754Z" transform="translate(-1932.204 -503.573)" fill="#f99893" opacity="0.3" style="mix-blend-mode: multiply;isolation: isolate"/>
        <path id="Trazado_116591" data-name="Trazado 116591" d="M1940.4,522.023a9.179,9.179,0,0,0,1.947,1.2,6.869,6.869,0,0,0,2.173.581,5.849,5.849,0,0,0,2.224-.246,8.224,8.224,0,0,0,2.04-1.019,6.981,6.981,0,0,1-.921.706,6.462,6.462,0,0,1-1.046.524,5.484,5.484,0,0,1-1.141.293,5.8,5.8,0,0,1-1.182.031,6.065,6.065,0,0,1-2.244-.67A6.627,6.627,0,0,1,1940.4,522.023Z" transform="translate(-1926.48 -500.702)" fill="#f99893"/>
        <path id="Trazado_116592" data-name="Trazado 116592" d="M1929.974,465.167a11.431,11.431,0,0,0-1.633-.329,5.618,5.618,0,0,0-1.539.022,5.191,5.191,0,0,0-1.464.447c-.363.128-1.24.688-1.469.8a3.724,3.724,0,0,1,2.8-2.107,3.737,3.737,0,0,1,1.828.175A3.41,3.41,0,0,1,1929.974,465.167Z" transform="translate(-1913.172 -453.961)" fill="#ff5b7e"/>
        <path id="Trazado_116593" data-name="Trazado 116593" d="M1980.268,468.361a3.407,3.407,0,0,1,1.584-.807,3.736,3.736,0,0,1,1.836.049,3.726,3.726,0,0,1,2.526,2.433c-.216-.139-1.016-.8-1.36-.971a5.2,5.2,0,0,0-1.4-.622,5.622,5.622,0,0,0-1.525-.21A11.4,11.4,0,0,0,1980.268,468.361Z" transform="translate(-1958.568 -456.785)" fill="#ff5b7e"/>
      </g>
    </g>
    <path id="Trazado_116594" data-name="Trazado 116594" d="M1862.189,856.634s-3.408,16.038,12.055,19.846,34.978,4.195,34.978,4.195l.361,37.357,8.14.932s24.288-50.34-4.306-60.255l-26.163-1.523-10.721-1.449s-10.727-3.38-10.888-2.876S1862.429,856.907,1862.189,856.634Z" transform="translate(-1274.584 -382.296)" fill="#f4a640"/>
    <path id="Trazado_116595" data-name="Trazado 116595" d="M1788.48,852.421s-3.408,16.038,12.055,19.846,34.978,4.195,34.978,4.195l.361,37.357,8.14.932s24.288-50.34-4.306-60.255l-26.163-1.523-10.721-1.449s-10.728-3.38-10.888-2.876S1788.72,852.693,1788.48,852.421Z" transform="translate(-1215.254 -378.905)" fill="#feb546"/>
    <path id="Trazado_116596" data-name="Trazado 116596" d="M2035.549,982.2c-.446-.081-.892-.157-1.331-.26s-.875-.221-1.3-.35c-.216-.068-.433-.14-.645-.219a4.89,4.89,0,0,0,.655-.188,5.536,5.536,0,0,0,1.195-.612,6.751,6.751,0,0,0,1-.88,6.644,6.644,0,0,0,.783-1.059l-.443.481c-.159.148-.306.306-.472.444a6.563,6.563,0,0,1-1.029.763,6.166,6.166,0,0,1-1.146.538,4.411,4.411,0,0,1-1.216.245l-.723.026.641.3a8.478,8.478,0,0,0,1.314.46,13.224,13.224,0,0,0,1.345.289c.452.073.9.137,1.36.17s.911.056,1.366.054C2036.445,982.337,2036,982.282,2035.549,982.2Z" transform="translate(-1410.614 -483.572)" fill="#daeef7"/>
    <path id="Trazado_116597" data-name="Trazado 116597" d="M1983.488,690.254s1.053,26.2,4,30.308l-16.207-3.683V688.36Z" transform="translate(-1362.65 -249.928)" fill="#ffc0bb"/>
    <path id="Trazado_116598" data-name="Trazado 116598" d="M1830.263,683.846a68.573,68.573,0,0,0-2.666,10.1c-1.019,8.7.088,14.837,1.888,19.788,2.526,6.946-18.1,4.42-18.521,4.21s-18.1-7.051-18.1-7.051L1789.5,701.1V683.846l.947-7.893Z" transform="translate(-1216.329 -239.941)" fill="#02ccc0"/>
    <path id="Trazado_116599" data-name="Trazado 116599" d="M1742.512,675.953l12.979,4.42s-2.245,20.767-1.543,23.713c.6,2.519,10.012,7.526,15.977,10.33a6.055,6.055,0,0,0,3.076.558c3.4-.279,9.42-.805,10.365-.87,1.484-.1,5.567,0,5.7.523.121.483-3.189-.049-5.335.394-.3.062-.141.465-.071.468a29.06,29.06,0,0,1,5.036.489c1.183.394-3,.081-5.26.5-.159.029-.285.478-.17.591.27.267,1.253.5,3.952.774,4.5.46.1,1.019.1,1.019s-.4-.116-4.275-.645c-.141-.019-.3.382-.086.57a6.654,6.654,0,0,0,2.4,1.317c1.45.428.4.806.4.806a27.815,27.815,0,0,0-4.282-.933c-1.152-.087-6.581.355-8.807.483l-.17-.382c-3.019-.088-27.1-.713-29.415-15.638A109.08,109.08,0,0,1,1742.512,675.953Z" transform="translate(-1177.974 -239.941)" fill="#ffc0bb"/>
    <g id="Grupo_83329" data-name="Grupo 83329" transform="translate(584.858 450.884)">
      <path id="Trazado_116600" data-name="Trazado 116600" d="M1923.444,752.185h-41.361l-11.727,28.625h-19.923a1.009,1.009,0,0,0-1.009,1.009h0a1.009,1.009,0,0,0,1.009,1.009H1909.7Z" transform="translate(-1849.424 -752.185)" fill="#07085b"/>
      <path id="Trazado_116601" data-name="Trazado 116601" d="M2107.558,825.062a1.989,1.989,0,1,1-1.491-2.6A2.126,2.126,0,0,1,2107.558,825.062Z" transform="translate(-2054.047 -808.728)" fill="#daeef7"/>
    </g>
    <path id="Trazado_116602" data-name="Trazado 116602" d="M1778.445,574.448s-7.856,9.169-16.87-1.946c0,0-9.848-.8-17.11,4.354s-11.609,16.739-11.609,16.739,13.154,6.63,16.417,6.945h36.516a32.434,32.434,0,0,0,10.945-3.157S1795.809,578.973,1778.445,574.448Z" transform="translate(-1170.74 -156.636)" fill="#02ccc0"/>
    <path id="Trazado_116603" data-name="Trazado 116603" d="M1754.075,648.821c-.339,1.137-.644,2.283-.946,3.431-.567,2.253-1.087,4.4-1.469,6.7a12.33,12.33,0,0,1-2.218-.172,43.019,43.019,0,0,1-9.66-3.119c-5.06-2.3-4.377-2.082-6.925-3.34a66.493,66.493,0,0,0,6.714,3.8,36.854,36.854,0,0,0,9.765,3.341,9.626,9.626,0,0,0,2.9.111c.257-1.69.551-3.421,1.359-7.211l.752-3.471.774-3.47C1754.745,646.545,1754.412,647.683,1754.075,648.821Z" transform="translate(-1170.74 -215.365)" fill="#07085b"/>
    <path id="Trazado_116604" data-name="Trazado 116604" d="M1989.295,631.766q.773,2.02,1.4,4.062a35.585,35.585,0,0,1,1.015,4.135,19.564,19.564,0,0,1,.333,4.206,55.913,55.913,0,0,1-2.748,9.329c.865-1.162,3.133-7.832,3.286-9.286a15.172,15.172,0,0,0-.191-4.371,22.937,22.937,0,0,0-1.187-4.188A22.157,22.157,0,0,0,1989.295,631.766Z" transform="translate(-1377.149 -204.375)" fill="#07085b"/>
    <path id="Trazado_116605" data-name="Trazado 116605" d="M1874.133,397.013s13.492-3.254,19.938-12.422c0,0,.112-8.348-12.274-6.455C1869.762,379.976,1866.945,391.687,1874.133,397.013Z" transform="translate(-1281.307)" fill="#ff5b7e"/>
  </g>
</svg>
