<svg xmlns="http://www.w3.org/2000/svg" xmlns:xlink="http://www.w3.org/1999/xlink" width="125" height="127" viewBox="0 0 125 127">
  <defs>
    <clipPath id="clip-path">
      <rect id="Rectángulo_34485" data-name="Rectángulo 34485" width="105" height="105" transform="translate(1010 1578)" fill="#fff"/>
    </clipPath>
  </defs>
  <g id="Grupo_84020" data-name="Grupo 84020" transform="translate(-1000 -1556)">
    <circle id="Elipse_4810" data-name="Elipse 4810" cx="62.5" cy="62.5" r="62.5" transform="translate(1000 1556)" fill="#ffd947"/>
    <g id="Enmascarar_grupo_126" data-name="Enmascarar grupo 126" clip-path="url(#clip-path)">
      <g id="hombre" transform="translate(1012.455 1578)">
        <path id="Trazado_117135" data-name="Trazado 117135" d="M31.327,36.044c-.026-1.687.036-2.721.036-2.721A41.63,41.63,0,0,0,43.528,16.791S51.034,28.2,68.626,33.2c0,0,.072,1.1.052,2.888a4.28,4.28,0,0,1,5.133.438C82.366,8.942,57.63,1.967,51.24,1.573c-6.684-.412-10.753,4.935-10.753,4.935-6.022-4.627-12.691.925-15.056,9.562-1.448,5.286-.43,14.426.578,20.722a4.229,4.229,0,0,1,5.318-.748Zm0,0" fill="#945b44"/>
        <path id="Trazado_117136" data-name="Trazado 117136" d="M74.611,37.44c-1.861-2.588-4.189-2.228-5.934-1.352a49.213,49.213,0,0,1-2.46,15.3C75,54.333,77.683,41.709,74.611,37.44Zm0,0" fill="#ffbd86"/>
        <path id="Trazado_117137" data-name="Trazado 117137" d="M31.327,36.044a4.263,4.263,0,0,0-5.849,1.4c-3.068,4.266-.395,16.876,8.377,13.953a49.539,49.539,0,0,1-2.528-15.348Zm0,0" fill="#ffbd86"/>
        <path id="Trazado_117138" data-name="Trazado 117138" d="M67.248,47.944a35.87,35.87,0,0,1-1.031,3.441c7.244,2.43,10.336-5.725,9.478-11.055-.632,4.353-3.421,8.662-8.447,7.614Zm0,0" fill="#ffa664"/>
        <path id="Trazado_117139" data-name="Trazado 117139" d="M24.4,40.331c-.857,5.326,2.229,13.472,9.46,11.061-.41-1.136-.755-2.291-1.045-3.441-5.005,1.025-7.783-3.276-8.415-7.62Zm0,0" fill="#ffa664"/>
        <path id="Trazado_117140" data-name="Trazado 117140" d="M50.1,64.1a15.346,15.346,0,0,1-10.175-3.44v8.868a10.123,10.123,0,0,0,20.247,0v-8.87A15.364,15.364,0,0,1,50.1,64.1Zm0,0" fill="#ffbd86"/>
        <path id="Trazado_117141" data-name="Trazado 117141" d="M68.625,33.2S70.664,64.036,50.1,64.1,31.363,33.323,31.363,33.323A41.63,41.63,0,0,0,43.528,16.791S51.034,28.2,68.625,33.2Zm0,0" fill="#fed2a4"/>
        <path id="Trazado_117142" data-name="Trazado 117142" d="M50.1,60.383c-16.022.053-18.45-18.652-18.741-26.924C31.256,35.628,30.31,64.169,50.1,64.1c19.1-.063,18.7-26.655,18.551-30.451-.286,8.426-2.732,26.678-18.551,26.73Zm0,0" fill="#ffbd86"/>
        <path id="Trazado_117143" data-name="Trazado 117143" d="M39.922,60.664V64.38A15.34,15.34,0,0,0,50.1,67.825,15.357,15.357,0,0,0,60.169,64.38V60.662A15.362,15.362,0,0,1,50.1,64.1a15.342,15.342,0,0,1-10.175-3.44Zm0,0" fill="#ffa664"/>
        <path id="Trazado_117144" data-name="Trazado 117144" d="M92.263,87.933c-5.567-4.5-32.094-18.4-32.094-18.4a10.123,10.123,0,1,1-20.247,0s-26.527,13.9-32.094,18.4S1.55,103.45,1.55,103.45H98.54s-.711-11.016-6.277-15.517Zm0,0" fill="#8bcaff"/>
        <path id="Trazado_117145" data-name="Trazado 117145" d="M2.068,99.729a33.144,33.144,0,0,0-.518,3.721H98.54a33.007,33.007,0,0,0-.518-3.721Zm0,0" fill="#60b8ff"/>
        <path id="Trazado_117146" data-name="Trazado 117146" d="M43.033,36.093c0-1.766-1.118-3.15-2.546-3.15s-2.545,1.383-2.545,3.15,1.118,3.15,2.545,3.15S43.033,37.859,43.033,36.093Zm0,0"/>
        <path id="Trazado_117147" data-name="Trazado 117147" d="M59.6,39.243c1.428,0,2.546-1.383,2.546-3.15s-1.118-3.15-2.546-3.15-2.545,1.383-2.545,3.15S58.176,39.243,59.6,39.243Zm0,0"/>
        <path id="Trazado_117148" data-name="Trazado 117148" d="M51.682,46.69q.238,0,.484-.01a1.551,1.551,0,0,0-.129-3.1c-.757.032-2.091-.013-2.5-.668-.531-.844.08-2.852.661-3.944A1.55,1.55,0,0,0,47.464,37.5c-.236.437-2.252,4.35-.56,7.054.887,1.417,2.493,2.133,4.778,2.133Zm0,0"/>
        <path id="Trazado_117149" data-name="Trazado 117149" d="M42.071,48.33a1.551,1.551,0,0,0-.446,2.147c.124.19,3.106,4.642,8.42,4.642s8.3-4.452,8.42-4.642a1.55,1.55,0,0,0-2.589-1.706c-.022.032-2.217,3.248-5.831,3.248s-5.809-3.215-5.828-3.242a1.55,1.55,0,0,0-2.146-.446Zm0,0"/>
        <path id="Trazado_117150" data-name="Trazado 117150" d="M20.534,101.9H3.28a35.573,35.573,0,0,1,.82-4.125c.738-2.8,2.153-6.575,4.7-8.636,4.5-3.641,23.554-13.845,29.827-17.17a11.673,11.673,0,0,0,22.833,0c2.346,1.244,6.477,3.448,10.94,5.9a1.551,1.551,0,0,0,1.492-2.719c-5.38-2.953-10.28-5.55-12.175-6.55v-7.23c.368-.332.727-.68,1.073-1.051a23.074,23.074,0,0,0,4.388-7.086,8.729,8.729,0,0,0,1.528.139,7.609,7.609,0,0,0,6.259-3.281c2.822-3.828,3.253-10.287.9-13.552-.1-.145-.211-.283-.32-.416,2.772-9.548,1.933-17.637-2.5-24.056C66.722,2.9,55.229.265,51.335.026a14.61,14.61,0,0,0-11.1,4.451,8.258,8.258,0,0,0-6.966-.743c-4.122,1.385-7.7,5.956-9.333,11.929a22.707,22.707,0,0,0-.68,4.358,1.55,1.55,0,1,0,3.093.216,19.763,19.763,0,0,1,.578-3.755c1.346-4.915,4.223-8.765,7.331-9.809a5.459,5.459,0,0,1,5.286,1.066,1.554,1.554,0,0,0,2.175-.286c.037-.046,3.683-4.684,9.426-4.331,3.243.2,13.757,2.595,19.357,10.7C74.212,19.2,75,26.042,72.869,34.177a5.48,5.48,0,0,0-2.659-.215c-.016-.515-.035-.82-.038-.865a1.55,1.55,0,0,0-1.123-1.389C52.277,26.945,44.894,16.046,44.823,15.938a1.55,1.55,0,0,0-2.741.291A40.423,40.423,0,0,1,30.427,32.086a1.553,1.553,0,0,0-.613,1.145c0,.041-.016.292-.028.718a5.446,5.446,0,0,0-2.6.243c-.423-2.986-.706-5.746-.838-8.222a1.551,1.551,0,0,0-3.1.166c.163,3.032.54,6.462,1.118,10.2-.05.066-.1.131-.149.2-2.346,3.262-1.919,9.718.9,13.545a7.608,7.608,0,0,0,6.264,3.29,8.766,8.766,0,0,0,1.51-.136A23.134,23.134,0,0,0,37.375,60.4c.322.34.656.659,1,.967V68.6C33.753,71.03,11.98,82.582,6.853,86.727.826,91.6.033,102.872,0,103.35A1.566,1.566,0,0,0,1.55,105H20.534a1.551,1.551,0,1,0,0-3.1ZM69.722,43.172a58.755,58.755,0,0,0,.486-6.036,2.624,2.624,0,0,1,3.145,1.209c1.428,1.983,1.3,6.941-.883,9.9a4.492,4.492,0,0,1-4.243,2,45.414,45.414,0,0,0,1.494-7.074Zm-11.1,26.36a8.572,8.572,0,1,1-17.145,0V63.588a17.52,17.52,0,0,0,8.556,2.066H50.1a17.572,17.572,0,0,0,8.516-2.071Zm-31-21.291c-2.178-2.959-2.3-7.916-.879-9.9A2.611,2.611,0,0,1,29.8,37.11a58.659,58.659,0,0,0,.532,6.192,45.508,45.508,0,0,0,1.5,6.946,4.5,4.5,0,0,1-4.222-2.008Zm5.271-14.153A43.657,43.657,0,0,0,43.915,19.81c3.067,3.574,10.434,10.666,23.2,14.561.079,3.823-.152,16.932-6.6,23.833a13.748,13.748,0,0,1-10.429,4.348,13.74,13.74,0,0,1-10.457-4.279C32.9,51.153,32.811,37.3,32.887,34.088Zm0,0"/>
        <path id="Trazado_117151" data-name="Trazado 117151" d="M100.088,103.35c-.031-.477-.824-11.75-6.85-16.623-1.987-1.606-6.667-4.488-13.912-8.564a1.55,1.55,0,1,0-1.52,2.7c8.837,4.972,12.209,7.243,13.483,8.274,3.756,3.037,5.091,9.667,5.52,12.76H26.736a1.55,1.55,0,0,0,0,3.1h71.8a1.566,1.566,0,0,0,1.548-1.65Zm0,0"/>
      </g>
    </g>
  </g>
</svg>
