<svg xmlns="http://www.w3.org/2000/svg" xmlns:xlink="http://www.w3.org/1999/xlink" width="321.155" height="407.24" viewBox="0 0 321.155 407.24">
  <defs>
    <clipPath id="clip-path">
      <rect y="21" width="321.155" height="407.24" fill="none"/>
    </clipPath>
  </defs>
  <g id="Grupo_84011" data-name="Grupo 84011" transform="translate(-257.845 -478.76)">
    <g id="Grupo_de_desplazamiento_1" data-name="Grupo de desplazamiento 1" transform="translate(257.845 457.76)" clip-path="url(#clip-path)" style="isolation: isolate">
      <g id="Grupo_84010" data-name="Grupo 84010" transform="translate(-257.845 -457.76)">
        <path id="Trazado_116735" data-name="Trazado 116735" d="M504.721,295.828c3.144-26.455,17.693-50.123,24.474-75.887,5.077-19.289,5.717-39.422,8.214-59.211s7.166-39.993,19.026-56.03c15.807-21.372,44.169-32.67,70.342-28.02s48.907,25.029,56.382,50.539c9.641,32.9-4.988,67.8-4.179,102.073.449,19.025,5.665,37.568,8.813,56.336s4.09,38.739-3.575,56.158c-10.246,23.283-34.629,38.045-59.657,42.6-24.9,4.527-50.939.091-75.643-3.888-19.87-3.2-33.145-26.6-39.345-43.874A89.9,89.9,0,0,1,504.721,295.828Z" transform="translate(119.959 75.763) rotate(40)" fill="#ffd947"/>
        <g id="Grupo_83392" data-name="Grupo 83392" transform="translate(94.673 284.058)">
          <path id="Trazado_116697" data-name="Trazado 116697" d="M542.8,553.632c-3.906,4.3-9.507,7.233-16.139,9.077a71.3,71.3,0,0,1-13.951,2.3,113.326,113.326,0,0,1-13.837.1c-24.925-1.225-51.969-9.444-62.461-16.838l4.536-41.488c20.91,12.64,46.293,13.007,62.077,11.575a122.523,122.523,0,0,0,14.364-2.1c.441-.1.67-.155.67-.155l.309.47Z" transform="translate(-139.676 -152.144)" fill="#ffaf82"/>
          <path id="Trazado_116698" data-name="Trazado 116698" d="M627.093,489.914c-6.432,7.073-17.439,10.457-30.09,11.374h-.011V472.309l4.69-19.765,14.278-60.187,1.649-6.958,12.371,3.213a30.872,30.872,0,0,0-.24,5.635c.017,6.392.943,19.756,2.715,47.421C635.134,483.523,627.093,489.914,627.093,489.914Z" transform="translate(-223.966 -88.427)" fill="#ffaf82"/>
          <path id="Trazado_116699" data-name="Trazado 116699" d="M594.2,573.011a71.292,71.292,0,0,1-13.951,2.3,113.314,113.314,0,0,1-13.837.1,28.741,28.741,0,0,1-1.294-6.941c-.55-11.546,4.673-32.714,4.948-37.662a7.321,7.321,0,0,1,.5-2.148,122.519,122.519,0,0,0,14.364-2.1c.441-.1.67-.155.67-.155l.309.47A273.908,273.908,0,0,0,594.2,573.011Z" transform="translate(-207.215 -162.446)" fill="#fe976a"/>
          <path id="Trazado_116700" data-name="Trazado 116700" d="M510.739,570.441s-43.612-2.079-73.726-16.3a72.685,72.685,0,0,1-14.547-8.854l2.365-55.972a88.792,88.792,0,0,0,15.807,8.3c35.051,11.288,70.1,6.025,70.1,6.025C509.5,513.123,510.739,570.441,510.739,570.441Z" transform="translate(-132.354 -142.975)" fill="#0091c8"/>
          <path id="Trazado_116701" data-name="Trazado 116701" d="M301.3,722.41A196.377,196.377,0,0,1,287,742.753q-2.543,3.179-5.292,6.335a194.365,194.365,0,0,1-28.533,32.771c-11.054,10.263-25.068,20.984-41.568,28.956V742.455q2.921-3.05,5.956-6.311c4.439-4.783,9.026-9.885,13.631-15.241,8.247-9.593,16.54-19.994,24.123-30.784Z" transform="translate(-21.669 -248.382)" fill="#fec307"/>
          <path id="Trazado_116702" data-name="Trazado 116702" d="M255.317,644.286c-7.583,10.79-15.876,21.191-24.123,30.784-4.6,5.355-9.192,10.458-13.631,15.24q-3.032,3.255-5.956,6.311V611.612l8.4-5.865.114-.08,4.1-2.863.006.006,1.512,2.016Z" transform="translate(-21.669 -202.548)" fill="#fec307"/>
          <path id="Trazado_116703" data-name="Trazado 116703" d="M297.331,832.8a.859.859,0,0,1-.837-.669c-2.678-11.811,1.757-26.587,11.861-39.526,1.013-1.306,2.111-2.621,3.262-3.9a.861.861,0,0,1,.48-.271l15.258-2.887a.858.858,0,0,1,.9.41c.017.029,1.717,2.937,3.654,6.47a.859.859,0,1,1-1.506.826c-1.443-2.632-2.754-4.916-3.327-5.9L312.7,790.061c-1.053,1.184-2.059,2.393-2.992,3.6-9.792,12.539-14.106,26.778-11.542,38.091a.859.859,0,0,1-.839,1.049Z" transform="translate(-65.827 -298.462)" fill="#6a2810"/>
          <path id="Trazado_116704" data-name="Trazado 116704" d="M326.329,532.887A199.887,199.887,0,0,1,301.3,596.322,196.377,196.377,0,0,1,287,616.664q-2.543,3.179-5.292,6.335a105.09,105.09,0,0,1-16.832-6.037,120.866,120.866,0,0,1-33.682-22.147,95.444,95.444,0,0,1-19.587-26v-38.04c2.5-1.466,5.349-3.23,8.4-5.286l.114-.08c1.335-.9,2.709-1.856,4.1-2.858,11.03-7.972,23.642-19.312,31.6-33.585,6.248-11.185,9.639-24.174,7.165-38.75,0,0,28.739-1.787,33.544,3.3a96.171,96.171,0,0,0,17.617,14.542,88.832,88.832,0,0,0,15.807,8.3S333.19,500.2,326.329,532.887Z" transform="translate(-21.669 -122.294)" fill="#0091c8"/>
          <path id="Trazado_116705" data-name="Trazado 116705" d="M255.821,532.123c-7.262,24.387-21.941,50.136-44.214,65.135V573.932c2.5-1.466,5.349-3.23,8.4-5.286l.114-.08c1.335-.9,2.709-1.856,4.1-2.858C235.249,557.735,247.86,546.4,255.821,532.123Z" transform="translate(-21.669 -165.446)" fill="#066d8c"/>
          <path id="Trazado_116706" data-name="Trazado 116706" d="M216.018,818.958a.85.85,0,0,1-.343-.072,17.8,17.8,0,0,1-5.63-3.689.859.859,0,0,1,1.224-1.206,16.1,16.1,0,0,0,5.091,3.32.859.859,0,0,1-.343,1.647Z" transform="translate(-20.72 -313.27)" fill="#6a2810"/>
          <path id="Trazado_116707" data-name="Trazado 116707" d="M210.658,792.76a.859.859,0,0,1-.6-1.472l5.957-5.853a.859.859,0,0,1,1.2,1.226l-5.957,5.853A.856.856,0,0,1,210.658,792.76Z" transform="translate(-20.72 -298.286)" fill="#6a2810"/>
          <path id="Trazado_116708" data-name="Trazado 116708" d="M659.185,346.184s.687,2.612-2.474,3.436c0,0,.55,4.4-4.673,3.3l-1.1,1.1a30.872,30.872,0,0,0-.24,5.635l-13.78-1.89,1.649-6.958s-1.512-12.045,5.91-21.254,12.92-11.546,15.257-9.209-3.162,9.622-9.072,13.058C650.663,333.4,663.446,333.676,659.185,346.184Z" transform="translate(-244.925 -53.834)" fill="#ffaf82"/>
          <path id="Trazado_116709" data-name="Trazado 116709" d="M388.521,387.457l-7.978,35.188a31.777,31.777,0,0,1-1.271,5.945c-1.506,4.719-4.674,10.274-11.094,8.625-10.721-2.749-14.885-25.017-14.885-25.017l4.954-23.241,2.783-13.047Z" transform="translate(-96.043 -83.446)" fill="#ffaf82"/>
          <path id="Trazado_116710" data-name="Trazado 116710" d="M393.995,387.457l-7.978,35.188a31.774,31.774,0,0,1-1.271,5.945c-9.61-6.311-17.462-23.568-21.025-39.632l2.783-13.047Z" transform="translate(-101.517 -83.446)" fill="#fe976a"/>
          <path id="Trazado_116711" data-name="Trazado 116711" d="M386.325,264.823c14.354.426,24.251-28.851,5.695-43.284,0,0-2.887,6.186-11.546,4.948s-11.546-12.783-35.463-8.66-20.206,25.979-20.206,25.979-22.267-5.36-29.69,16.907S310.785,304.011,338,293.7,386.325,264.823,386.325,264.823Z" transform="translate(-64.767 0)" fill="#fec307"/>
          <path id="Trazado_116712" data-name="Trazado 116712" d="M392.415,338.757c-23.121,0-35.216-12.674-38.309-30.852-1.546-9.06-.859-19.478,1.815-30.383,8.041-32.783,53.813-14.845,53.813-14.845a58.055,58.055,0,0,1,4.186,9.37C422.723,296.954,422.769,338.757,392.415,338.757Z" transform="translate(-96.043 -21.436)" fill="#ffaf82"/>
          <path id="Trazado_116713" data-name="Trazado 116713" d="M407.256,261.2s-15.606,14.406-49.832,6.159c0,0,4.254,31-9.419,29.313s2.409-39.622,2.409-39.622,5.3-15.669,30.072-14.845S407.256,261.2,407.256,261.2Z" transform="translate(-90.376 -13.246)" fill="#fec307"/>
          <path id="Trazado_116714" data-name="Trazado 116714" d="M407.256,262.407s-15.606,14.407-49.832,6.159c0,0,4.254,31-9.419,29.313s2.409-39.622,2.409-39.622,5.3-15.669,30.072-14.845S407.256,262.407,407.256,262.407Z" transform="translate(-90.376 -13.878)" fill="#fec307"/>
          <path id="Trazado_116715" data-name="Trazado 116715" d="M363.487,277.785s4.307,31.385-9.381,30.119c-1.546-9.06-.859-19.478,1.815-30.383,8.041-32.783,53.813-14.845,53.813-14.845a58.055,58.055,0,0,1,4.186,9.37C410.462,274.71,394.351,285.219,363.487,277.785Z" transform="translate(-96.043 -21.436)" fill="#fe976a"/>
          <path id="Trazado_116716" data-name="Trazado 116716" d="M407.256,261.2s-15.606,14.406-49.832,6.159c0,0,4.254,31-9.419,29.313s2.409-39.622,2.409-39.622,5.3-15.669,30.072-14.845S407.256,261.2,407.256,261.2Z" transform="translate(-90.376 -13.246)" fill="#fec307"/>
          <path id="Trazado_116717" data-name="Trazado 116717" d="M343.94,363.745c-3.54,10.926-22.95,7.741-24.121-4.527-1.136-11.9,12.409-16.979,21.305-9.148S343.94,363.745,343.94,363.745Z" transform="translate(-78.437 -67.912)" fill="#ffaf82"/>
          <path id="Trazado_116718" data-name="Trazado 116718" d="M337.961,369.254a.859.859,0,0,1-.691-1.369c.035-.048,3.5-4.848,1.632-8.441a.859.859,0,0,1,1.525-.793c2.365,4.546-1.6,10.022-1.773,10.253A.858.858,0,0,1,337.961,369.254Z" transform="translate(-87.545 -74.144)" fill="#fe976a"/>
          <path id="Trazado_116719" data-name="Trazado 116719" d="M345.866,370.234a11.649,11.649,0,0,1-3.7-.535.859.859,0,0,1,.554-1.627c2.945,1,7.1-.01,7.146-.02a.859.859,0,0,1,.416,1.667A20.1,20.1,0,0,1,345.866,370.234Z" transform="translate(-89.896 -79.307)" fill="#fe976a"/>
          <path id="Trazado_116720" data-name="Trazado 116720" d="M672.208,368.279a.859.859,0,0,1-.845-.709c-.045-.243-1.136-5.66-8.8-5.9a.859.859,0,0,1,.053-1.717c9.117.283,10.429,7.249,10.441,7.319a.859.859,0,0,1-.7.993A.876.876,0,0,1,672.208,368.279Z" transform="translate(-257.948 -75.07)" fill="#fe976a"/>
          <path id="Trazado_116721" data-name="Trazado 116721" d="M668.672,377.854a.858.858,0,0,1-.743-.428c-.046-.077-2.817-4.7-7.229-3.982a.859.859,0,1,1-.275-1.7c5.606-.909,8.854,4.582,8.99,4.816a.86.86,0,0,1-.743,1.29Z" transform="translate(-256.885 -81.208)" fill="#fe976a"/>
          <path id="Trazado_116722" data-name="Trazado 116722" d="M664,388.023a.859.859,0,0,1-.786-.512A2.18,2.18,0,0,0,660.7,386.5a.859.859,0,1,1-.268-1.7,3.907,3.907,0,0,1,4.36,2.022.86.86,0,0,1-.79,1.2Z" transform="translate(-256.885 -88.079)" fill="#fe976a"/>
          <path id="Trazado_116723" data-name="Trazado 116723" d="M253.667,495.71c-10.1,19.461-42.06,39.959-42.06,39.959V466.656c18.149-6.592,42.765-15.1,51.379-16.1C262.986,450.557,268.794,466.571,253.667,495.71Z" transform="translate(-21.669 -122.63)" fill="#0190c8"/>
          <path id="Trazado_116724" data-name="Trazado 116724" d="M434.662,391.244a17.663,17.663,0,0,1-8.642-2.6.859.859,0,0,1,.95-1.431c.385.254,9.463,6.12,15.411-1.689a.859.859,0,0,1,1.367,1.041A11,11,0,0,1,434.662,391.244Z" transform="translate(-134.018 -88.312)" fill="#6a2810"/>
          <path id="Trazado_116725" data-name="Trazado 116725" d="M395.394,364.55a5.43,5.43,0,0,1-2.5-.635,4.039,4.039,0,0,1-2.336-3.482,4.577,4.577,0,0,1,1.964-3.931,2.458,2.458,0,0,1,2.517-.155.859.859,0,1,1-.808,1.516.724.724,0,0,0-.8.094,2.862,2.862,0,0,0-1.161,2.405,2.328,2.328,0,0,0,1.41,2.028,3.252,3.252,0,0,0,4.021-.557A4.93,4.93,0,0,0,398.3,356a4.528,4.528,0,0,0-4.379-2.659,4.235,4.235,0,0,0-3.689,2.806.859.859,0,1,1-1.621-.569,5.954,5.954,0,0,1,5.182-3.95,6.253,6.253,0,0,1,6.026,3.567,6.638,6.638,0,0,1-.89,7.853A4.925,4.925,0,0,1,395.394,364.55Z" transform="translate(-114.554 -70.688)" fill="#fe976a"/>
          <path id="Trazado_116726" data-name="Trazado 116726" d="M472.883,353.317a5.422,5.422,0,0,1-2.5-.635,4.038,4.038,0,0,1-2.336-3.483,4.577,4.577,0,0,1,1.963-3.93,2.459,2.459,0,0,1,2.518-.155.859.859,0,1,1-.808,1.516.723.723,0,0,0-.8.094,2.863,2.863,0,0,0-1.162,2.405,2.329,2.329,0,0,0,1.41,2.029,3.25,3.25,0,0,0,4.021-.557,4.93,4.93,0,0,0,.592-5.838,4.529,4.529,0,0,0-4.379-2.659,4.237,4.237,0,0,0-3.689,2.806.859.859,0,1,1-1.621-.569,5.953,5.953,0,0,1,5.182-3.95,6.249,6.249,0,0,1,6.026,3.567,6.638,6.638,0,0,1-.89,7.853A4.925,4.925,0,0,1,472.883,353.317Z" transform="translate(-155.231 -64.791)" fill="#fe976a"/>
          <path id="Trazado_116727" data-name="Trazado 116727" d="M445.592,353.072a.859.859,0,0,1-.488-1.566l6.789-4.675-7.009-10.151a.859.859,0,0,1,1.414-.976l7.5,10.859a.858.858,0,0,1-.22,1.2l-7.5,5.162A.855.855,0,0,1,445.592,353.072Z" transform="translate(-144.042 -62.146)" fill="#6a2810"/>
          <path id="Trazado_116728" data-name="Trazado 116728" d="M405.472,329.455c0,2.31-.929,3.61-2.076,3.61s-2.076-1.3-2.076-3.61.929-3.549,2.076-3.549S405.472,327.145,405.472,329.455Z" transform="translate(-121.254 -57.198)" fill="#6a2810"/>
          <path id="Trazado_116729" data-name="Trazado 116729" d="M464.55,321.92c0,2.31-.929,3.611-2.076,3.611s-2.076-1.3-2.076-3.611.929-3.549,2.076-3.549S464.55,319.61,464.55,321.92Z" transform="translate(-152.266 -53.242)" fill="#6a2810"/>
          <path id="Trazado_116730" data-name="Trazado 116730" d="M210.658,688.388a.859.859,0,0,1-.859-.859V384.389a.859.859,0,0,1,1.718,0v303.14A.859.859,0,0,1,210.658,688.388Z" transform="translate(-20.72 -87.446)" fill="#6a2810"/>
          <path id="Trazado_116731" data-name="Trazado 116731" d="M193.511,524.96c9.909,5.8,8.11,23.917-3.574,27.216-9.817,2.772-12.1-1.953-8.8-5.375,0,0-8.385,1.939-8.66-1.36s5.5-4.536,5.5-4.536-5.91.033-7.422-2.8,4.948-4.346,4.948-4.346-5.27-.275-5.178-4.4S183.89,519.324,193.511,524.96Z" transform="translate(0 -160.47)" fill="#ffaf82"/>
          <path id="Trazado_116732" data-name="Trazado 116732" d="M192.385,569.168c-.093,0-.183,0-.274,0a.859.859,0,1,1,.059-1.717c4.122.145,11.455-3.7,11.528-3.736a.859.859,0,1,1,.8,1.52C204.189,565.395,196.978,569.168,192.385,569.168Z" transform="translate(-10.999 -181.975)" fill="#fe976a"/>
          <path id="Trazado_116733" data-name="Trazado 116733" d="M185.485,556.586a.859.859,0,0,1-.114-1.711c4.177-.568,11.305-2.07,12.651-3.685a.859.859,0,0,1,1.32,1.1c-2.211,2.654-12.566,4.128-13.74,4.288A.9.9,0,0,1,185.485,556.586Z" transform="translate(-7.507 -175.292)" fill="#fe976a"/>
          <path id="Trazado_116734" data-name="Trazado 116734" d="M180.278,542.848a.859.859,0,0,1-.023-1.718c.09,0,9.086-.273,14.078-2.716a.859.859,0,0,1,.755,1.544c-5.329,2.609-14.4,2.88-14.787,2.89Z" transform="translate(-4.773 -168.702)" fill="#fe976a"/>
        </g>
      </g>
    </g>
  </g>
</svg>
