<svg xmlns="http://www.w3.org/2000/svg" xmlns:xlink="http://www.w3.org/1999/xlink" width="332.667" height="284.554" viewBox="0 0 332.667 284.554">
  <defs>
    <clipPath id="clip-path">
      <path id="Trazado_116630" data-name="Trazado 116630" d="M602.324,239.326s-9.681-1.21-16.539-4.438-26.623-10.891-52.843,0-30.657,21.379-35.9,26.623-27.027,26.422-23.6,34.893c0,0-1.008,3.227,1.009,4.034s4.235-2.017,4.235-2.017-1.008,4.034,2.42,3.228c0,0,.2,1.412,7.866-1.21s13.11-5.446,16.337-8.27,11.9-6.857,15.531-6.454,13.917,9.682,32.271,10.488,44.574-12.908,52.037-14.522S602.324,239.326,602.324,239.326Z" transform="translate(-473.078 -229.248)" fill="#723d3d"/>
    </clipPath>
    <clipPath id="clip-path-2">
      <path id="Trazado_116637" data-name="Trazado 116637" d="M681.907,254.006s-4.382-8.495-8.471-10.286c-5.984-2.622-16.337-1.009-24.4,1.008s-11.7-2.824-13.312-6.051-7.865-11.3-12.3-12.506,2.42,11.094,2.622,11.7-20.775.807-21.783,5.244,17.951,12.1,17.951,12.1-14.32,11.5-13.513,15.53S631.08,277.2,631.08,277.2s-7.059,6.858-6.051,8.27,17.547.2,23.8-3.026,18.354-11.093,24-12.1S684.9,259.13,681.907,254.006Z" transform="translate(-604.216 -226.088)" fill="#fff"/>
    </clipPath>
  </defs>
  <g id="Grupo_83364" data-name="Grupo 83364" transform="translate(-351.514 -19.263)">
    <g id="Grupo_83334" data-name="Grupo 83334" transform="translate(351.514 63.462)">
      <g id="Grupo_83333" data-name="Grupo 83333" transform="translate(34.225 0)">
        <path id="Trazado_116607" data-name="Trazado 116607" d="M685.835,237.689c22.745-47-5.647-135.06-125.408-157.948-138.282-26.427-181.753,59.7-160.886,146.833S627.748,357.72,685.835,237.689Z" transform="translate(-394.589 -74.889)" fill="#a9e2ff"/>
        <path id="Trazado_116608" data-name="Trazado 116608" d="M664.518,242.844c19.773-40.86,20.986-118.86-83.129-138.757-120.218-22.975-180,54.561-161.863,130.31S614.019,347.193,664.518,242.844Z" transform="translate(-399.055 -80.044)" fill="#c0edff"/>
      </g>
      <path id="Trazado_116609" data-name="Trazado 116609" d="M351.555,177.861c-.849-8.258,11.712-9.254,15.688-5.947,0,0,2.567-14.844,22.231-13.029s17.464,18.976,17.464,18.976,24.811-7.124,22.817,7.842S354.481,206.317,351.555,177.861Z" transform="translate(-351.514 -92.114)" fill="#fff"/>
      <path id="Trazado_116610" data-name="Trazado 116610" d="M619.261,349.994c-4.223-13.251,10.8-16.038,18.913-14.425-3.988-29.85,40.975-28.944,42.293-8.422,13.42-13.361,36.817,5.744,24.312,19.991S627.328,375.311,619.261,349.994Z" transform="translate(-406.369 -123.676)" fill="#fff"/>
    </g>
    <g id="Grupo_83363" data-name="Grupo 83363" transform="translate(391.702 19.262)">
      <g id="Grupo_83336" data-name="Grupo 83336" transform="translate(144.709 47.969)">
        <path id="Trazado_116611" data-name="Trazado 116611" d="M690.1,163.69s2.42-16.539,0-29.044-7.664-38.725-5.849-50.424c0,0-.6-3.227-3.026-3.227,0,0-6.06,21.83-6.469,43.969-2.126-12.572-4.422-30.254-8.859-35.5l-2.823-1.614s-2.017,19.009,0,31.287c0,0-3.63-14.749-5.648-17.169s-4.572,16.136-4.1,23.8a161.184,161.184,0,0,1,0,16.135s-.723-11.7-3.958-12.908c-2.025-.806.183,16.136.183,16.136s-2.612-2.824-4.225-2.421.806,14.926,0,16.136-6.051,8.067-8.068,8.874-9.278.388-11.295,2.009,0,4.446,0,4.446-20.573,2.017-23.4,6.454,2.017,9.681,2.017,9.681-16.942,5.648-20.17,10.488,34.174,26.034,46.282,16.539S655.007,178.615,690.1,163.69Z" transform="translate(-584.218 -79.914)" fill="#4d2c2b"/>
        <path id="Trazado_116612" data-name="Trazado 116612" d="M642.544,235.7s5.648-22.279,20.573-31.073,32.271-20.9,34.691-24.527-.2-31.2-2.534-34.935c-2.512,10.781-9.164,26.464-9.164,26.464s-14.12-1.684-15.33.818c-1.395,2.882,2.825,10.469,2.825,10.469s-13.135-.946-14.589,0c-3.958,2.574,0,5.252,0,5.252s-16.472-5.252-20.909-2.678c-2.791,1.62,9.277,14.78,9.277,14.78s-16.942-5.707-22.186-2.047,4.034,9.308,4.034,9.308-25.01-.806-14.926,10.085S642.544,235.7,642.544,235.7Z" transform="translate(-589.907 -93.096)" fill="#723d3d"/>
        <g id="Grupo_83335" data-name="Grupo 83335" transform="translate(54.916)">
          <path id="Trazado_116613" data-name="Trazado 116613" d="M653.333,214.879s.454-1.18,1.441-3.327a76.594,76.594,0,0,1,4.887-9.01,44.1,44.1,0,0,1,4.4-5.893c.444-.505.946-.98,1.433-1.487.5-.493,1.067-.945,1.615-1.433,1.137-.914,2.358-1.769,3.625-2.646,5.078-3.483,10.951-7.149,17.267-11.279,3.157-2.063,6.432-4.235,9.721-6.594,1.639-1.183,3.288-2.415,4.844-3.755a18.445,18.445,0,0,0,2.152-2.111,4.156,4.156,0,0,0,.682-1.054,12.1,12.1,0,0,0,.335-1.427,40.926,40.926,0,0,0,.44-6.386c-.008-2.194-.064-4.422-.222-6.672a108.693,108.693,0,0,0-1.725-13.67c-.237-1.14-.477-2.284-.777-3.41-.132-.57-.3-1.127-.47-1.681l-.252-.835-.048-.161a1.239,1.239,0,0,1-.047-.207l-.04-.222-.079-.443q-.638-3.552-1.285-7.152c-.891-4.786-1.63-9.706-2.45-14.631a100.14,100.14,0,0,1-1.424-15.057c-.071-1.263-.068-2.534-.106-3.8l-.041-1.905c-.021-.63-.026-1.271,0-1.935l.056-1.968.031-.965a3.25,3.25,0,0,0,0-.686,1.15,1.15,0,0,0-.42-.843,2.2,2.2,0,0,0-.73-.3c-.025-.011-.029.02-.037.034-.1.323-.221.8-.32,1.213-.207.857-.4,1.732-.58,2.608-.365,1.754-.7,3.52-1.026,5.288q-.973,5.3-1.808,10.615c-.559,3.536-1.082,7.064-1.545,10.576s-.881,7.014-1.065,10.464l-.429,8.006-1.193-7.9c-.91-6.024-1.886-11.953-3.058-17.717-.59-2.88-1.216-5.724-1.974-8.492q-.3-1.032-.6-2.058l-.68-2.014c-.281-.641-.492-1.325-.826-1.929-.163-.3-.307-.625-.485-.915l-.593-.823.344.425a5.579,5.579,0,0,1,.417.544l.492.842a37.915,37.915,0,0,1,2.473,6.221,216.8,216.8,0,0,1,5.881,25.691l-1.173.074c.167-5.772.925-12.211,1.858-19.34q.719-5.344,1.663-11.183c.319-1.945.66-3.93,1.043-5.956.192-1.013.394-2.036.623-3.074.116-.52.237-1.042.381-1.58l.058-.208c.036-.122.07-.243.112-.36a4.313,4.313,0,0,1,.28-.677c.127-.189.246-.385.475-.44l.04-.016c-.008-.027.046.05-.013-.064l.019-.006.077-.024.153-.049a.875.875,0,0,1,.328-.066,5.852,5.852,0,0,1,1.557.208,3.778,3.778,0,0,1,1.179.563,3.365,3.365,0,0,1,.941,1.061,3.764,3.764,0,0,1,.408,1.279,5.283,5.283,0,0,1,.022,1.208c-.018.356-.014.63-.021.951q-.017.928-.033,1.868c-.024.618-.009,1.266.016,1.923s.037,1.311.056,1.971c.042,1.322.06,2.658.145,4.009q.1,2.026.211,4.1c.068,1.381.214,2.75.319,4.148a40.141,40.141,0,0,0,.578,4.221l.7,4.3q.706,4.345,1.439,8.856.789,4.517,1.6,9.2l.2,1.173.1.589c.017.1.04.224.029.172l.077.262c.223.79.489,1.58.665,2.381.4,1.6.736,3.216,1.016,4.853.566,3.272.961,6.613,1.223,10.016a99.855,99.855,0,0,1,.285,10.4,40.391,40.391,0,0,1-.459,5.378,11.6,11.6,0,0,1-.291,1.387l-.2.707a5.2,5.2,0,0,1-.355.775,11.523,11.523,0,0,1-1.928,2.2,77.076,77.076,0,0,1-8.869,6.585c-3.089,2.043-6.265,4.028-9.492,6.017l-9.815,6.006c-1.653,1.017-3.311,2.047-4.961,3.107a51.551,51.551,0,0,0-4.829,3.382,28.133,28.133,0,0,0-2.191,2c-.665.738-1.367,1.45-1.985,2.241a51.4,51.4,0,0,0-3.568,4.895A81.425,81.425,0,0,0,653.333,214.879Z" transform="translate(-653.333 -79.634)" fill="#ba6363"/>
        </g>
      </g>
      <g id="Grupo_83350" data-name="Grupo 83350" transform="translate(6.092 149.09)">
        <path id="Trazado_116614" data-name="Trazado 116614" d="M520.491,250.968s-14.119,10.061-20.976,11.674-24.606,3.227-27.026,2.48,5-4.711,5-4.711C457.83,263.406,438,254.573,438,254.573,449.252,248.456,520.491,250.968,520.491,250.968Z" transform="translate(-415.562 -215.849)" fill="#eaeaea"/>
        <g id="Grupo_83337" data-name="Grupo 83337" transform="translate(22.454 37.784)">
          <path id="Trazado_116615" data-name="Trazado 116615" d="M440.772,254.454l-.869.378-.765.342-.437.2-.056.025a.361.361,0,0,0,.064.028l.144.055.293.11,1.423.5c.659.234,1.379.463,2.15.71,1.543.488,3.3.988,5.242,1.478,7.73,1.937,18.522,3.579,29.425,2.179l3.986-.513-3.5,1.978a27.588,27.588,0,0,0-2.672,1.712,12.622,12.622,0,0,0-1.194.978,5.541,5.541,0,0,0-.492.524,2.8,2.8,0,0,0-.185.258,1.135,1.135,0,0,0-.068.12l-.014.025c-.011.021-.022.056,0,.076s-.02.021.289.081a11.187,11.187,0,0,0,1.524.136c1.055.036,2.129.009,3.195-.03,4.272-.183,8.458-.555,12.376-.884,0,0-2.225.522-6.508,1.209-2.146.328-4.8.737-7.991.923a18,18,0,0,1-2.546-.017c-.115-.012-.231-.025-.352-.045a3.121,3.121,0,0,1-.427-.095,1.3,1.3,0,0,1-.88-.643,1.5,1.5,0,0,1,0-1.132,2.075,2.075,0,0,1,.205-.447,3.654,3.654,0,0,1,.225-.345,10.88,10.88,0,0,1,2.194-2.062,27.506,27.506,0,0,1,2.567-1.695c.139.418.307.92.474,1.422a64.48,64.48,0,0,1-19.382-.355,76.279,76.279,0,0,1-11.2-2.7c-1.916-.621-3.858-1.313-5.8-2.11l-1.468-.626c-.528-.236-1.019-.455-1.462-.673l-.165-.081-.08-.041c-.044-.014.048-.025.066-.037l.41-.142.772-.265Z" transform="translate(-438.019 -254.454)" fill="#fefefe"/>
        </g>
        <path id="Trazado_116616" data-name="Trazado 116616" d="M488.873,235.138S453.779,224.65,435.626,206.9c0,0-1.281,10.071,11.7,19.766,0,0-27.027-5.244-31.061-5.648s27.027,17.067,27.027,17.067-32.271-1.969-33.481-.038,20.257,7.345,31.148,7.576,48.08,4.233,53.274,0S488.873,235.138,488.873,235.138Z" transform="translate(-409.76 -206.901)" fill="#fefefe"/>
        <g id="Grupo_83349" data-name="Grupo 83349" transform="translate(25.153 17.756)">
          <g id="Grupo_83339" data-name="Grupo 83339" transform="translate(28.691 69.07)">
            <path id="Trazado_116617" data-name="Trazado 116617" d="M491.335,320.288s-4.556,6.309-4.906,9.112,2.1,7.184,3.329,8.061,7.01,2.278,7.36,4.206c0,0,4.906,3.68,3.68,7.71,0,0-3.855-4.03-5.958-4.2,0,0-1.928.525-2.628-.876s.163,3.154,1.483,3.5,1.32,3.154,1.32,3.154a11.41,11.41,0,0,1-2.278,8.587s-.175-7.01-2.1-8.061c0,0-5.945-2.9-7.6-5.55s-5.469-14.6-5.5-16.88,7.325-12.266,8.552-12.792S490.984,317.835,491.335,320.288Z" transform="translate(-477.526 -316.177)" fill="#e0bc24"/>
            <path id="Trazado_116618" data-name="Trazado 116618" d="M493.993,359.539a4.021,4.021,0,0,1,.512-3.131c.993-1.259,2.354-1.537,3.461.389s.847,8.287-1.87,10.8C496.1,367.6,496,362.14,493.993,359.539Z" transform="translate(-480.885 -324.236)" fill="#1d1d1b"/>
            <path id="Trazado_116619" data-name="Trazado 116619" d="M499.73,351.8s-.9-2.918.693-3.646c.945-.434,6.127,2.718,4.884,7.781A27.559,27.559,0,0,0,499.73,351.8Z" transform="translate(-482.036 -322.738)" fill="#1d1d1b"/>
            <g id="Grupo_83338" data-name="Grupo 83338" transform="translate(8.334 9.421)">
              <path id="Trazado_116620" data-name="Trazado 116620" d="M490.275,328.034a5.514,5.514,0,0,0-.321.474,7.682,7.682,0,0,0-.687,1.412,4.761,4.761,0,0,0-.275,2.214,3.775,3.775,0,0,0,.131.613l.218.728c.141.5.29,1.013.443,1.546A11.66,11.66,0,0,0,491,338.043a3.094,3.094,0,0,0,1.034,1.017,13.249,13.249,0,0,0,1.6.667,20.647,20.647,0,0,1,3.506,1.552,5.953,5.953,0,0,1,1.508,1.236,2.9,2.9,0,0,1,.733,1.728,3.092,3.092,0,0,0-.976-1.212,12.058,12.058,0,0,0-3.989-1.545l-1.472-.411a9.094,9.094,0,0,1-1.706-.648,4.362,4.362,0,0,1-1.571-1.531,7.871,7.871,0,0,1-.857-2,19.11,19.11,0,0,1-.465-2.14l-.175-1.1-.088-.558c-.024-.209-.055-.428-.064-.642A5.676,5.676,0,0,1,490.275,328.034Z" transform="translate(-488.014 -328.034)" fill="#fff8c7"/>
            </g>
          </g>
          <g id="Grupo_83342" data-name="Grupo 83342" transform="translate(0 66.331)">
            <path id="Trazado_116621" data-name="Trazado 116621" d="M475.427,316.076s-4.883,9.813-5.058,12.441,2.093,9.637,5.058,13.142,3.139,5.958,1.569,8.411c0,0,4.361,6.658-3.662,11.565,0,0,.872-6.308-1.046-9.813,0,0-3.595-2.628-4.152-6.484,0,0,2.582,9.462-4.569,10.339,0,0-3.314,9.813-12.732,7.885,0,0,6.8-5.958,6.976-10.339,0,0-.7-5.081.349-7.71s1.57-14.194,3.488-16.122c0,0-4.011,2.278-5.232,4.381s-1.744,4.38-4.186,4.206c0,0-6.453,4.38-10.813-1.052,0,0,6.279-1.226,7.5-3.329a17.91,17.91,0,0,1,3.662-5.607c2.268-2.1,7.325-3.855,9.418-5.783s4.709-3.875,4.709-3.875-3.488,1.556-4.186,0,7.325-5.6,7.325-5.6S475.949,312.4,475.427,316.076Z" transform="translate(-441.417 -312.729)" fill="#f7d838"/>
            <g id="Grupo_83340" data-name="Grupo 83340" transform="translate(7.637 2.022)">
              <path id="Trazado_116622" data-name="Trazado 116622" d="M468.5,315.274s-.464.276-1.261.84a14.779,14.779,0,0,0-1.378,1.093,5.505,5.505,0,0,0-.71.768,1.609,1.609,0,0,0-.232.426.329.329,0,0,0,.018.286c.061.1.166.147.367.207a1.684,1.684,0,0,0,.339.036,1.17,1.17,0,0,0,.19,0l.1-.006a1.833,1.833,0,0,0,.2-.013,8.64,8.64,0,0,0,1.917-.482c.791-.277,1.908-.7,3.059-1.135a4.281,4.281,0,0,0-.408.513c-.015.018,0,.008-.031.041l-.1.1-.2.2-.395.391c-.545.531-1.078,1.077-1.72,1.669-1.564,1.445-1.992,1.826-2.866,2.535a19.107,19.107,0,0,1-2.668,1.859c-1,.526-1.962.938-2.917,1.413a23.335,23.335,0,0,0-5.279,3.359,13.517,13.517,0,0,0-3.5,4.8l.083-.414a7.628,7.628,0,0,1,.318-1.218,10.9,10.9,0,0,1,2.593-4.211,21.341,21.341,0,0,1,6.566-4.443,16.6,16.6,0,0,0,2.012-1.066,11.8,11.8,0,0,0,.988-.659c.336-.228.67-.48,1.008-.741s.682-.524,1.026-.8l.26-.207.114-.09.018-.009.083-.045c.068-.037.158-.1.28-.18l.2-.148-.073,0c-.074,0-.213.01-.452-.006l-.094-.009-.23-.012a2.99,2.99,0,0,1-.552-.1,1.844,1.844,0,0,1-.564-.255,2.694,2.694,0,0,1-.257-.24l-.18-.305a1.106,1.106,0,0,1,.068-.9,2.423,2.423,0,0,1,.464-.616,6.683,6.683,0,0,1,1.152-.887A17.38,17.38,0,0,1,468.5,315.274Z" transform="translate(-451.029 -315.274)" fill="#fff8c7"/>
            </g>
            <g id="Grupo_83341" data-name="Grupo 83341" transform="translate(24.782 18.735)">
              <path id="Trazado_116623" data-name="Trazado 116623" d="M474.488,347.273s-.183-.381-.449-1.023a23.9,23.9,0,0,1-.932-2.636,11.843,11.843,0,0,1-.491-3.683,7.009,7.009,0,0,1,1.072-3.623,7.953,7.953,0,0,1,.124.822c.027.516.149,1.257.229,2.161.131.914.229,2,.372,3.316A27.51,27.51,0,0,1,474.488,347.273Z" transform="translate(-472.607 -336.309)" fill="#e0bc24"/>
            </g>
            <path id="Trazado_116624" data-name="Trazado 116624" d="M448.917,338.973s3.374-.458,4.164.8.21,2.462-.851,3.582-7.649,3.6-10.813-1.052C441.417,342.3,446.729,341.617,448.917,338.973Z" transform="translate(-441.417 -318.104)" fill="#1d1d1b"/>
            <path id="Trazado_116625" data-name="Trazado 116625" d="M460.208,363.739c.382-1.489,3.15-2.441,4.93-1.646s1.2,3.842-.784,6.821S459.4,375,453.27,373.645C453.27,373.645,458.9,368.83,460.208,363.739Z" transform="translate(-443.852 -322.811)" fill="#1d1d1b"/>
            <path id="Trazado_116626" data-name="Trazado 116626" d="M480.251,361.255c-.591-1.2,2.725-4.024,4.709-1.752s2.289,8.609-3.662,11.565C481.3,371.068,481.839,364.477,480.251,361.255Z" transform="translate(-449.381 -322.162)" fill="#1d1d1b"/>
          </g>
          <g id="Grupo_83348" data-name="Grupo 83348" transform="translate(25.156)">
            <path id="Trazado_116627" data-name="Trazado 116627" d="M550.078,303.387s-20.976,6.252-26.019,7.261-21.581,13.917-28.236,13.312,0-2.824,0-2.824-5.648,1.815-6.051-1.816,2.42-7.866,2.42-7.866S518.816,292.7,524.867,293.7,550.078,303.387,550.078,303.387Z" transform="translate(-476.499 -242.482)" fill="#512525"/>
            <g id="Grupo_83344" data-name="Grupo 83344">
              <path id="Trazado_116628" data-name="Trazado 116628" d="M602.324,239.326s-9.681-1.21-16.539-4.438-26.623-10.891-52.843,0-30.657,21.379-35.9,26.623-27.027,26.422-23.6,34.893c0,0-1.008,3.227,1.009,4.034s4.235-2.017,4.235-2.017-1.008,4.034,2.42,3.228c0,0,.2,1.412,7.866-1.21s13.11-5.446,16.337-8.27,11.9-6.857,15.531-6.454,13.917,9.682,32.271,10.488,44.574-12.908,52.037-14.522S602.324,239.326,602.324,239.326Z" transform="translate(-473.078 -229.248)" fill="#723d3d"/>
              <g id="Grupo_83343" data-name="Grupo 83343" clip-path="url(#clip-path)">
                <path id="Trazado_116629" data-name="Trazado 116629" d="M516.034,258.68s-7.649,8.437-14.536,13.18c0,0,1.14,7.923,8.913,8.187s20.319-3.443,27.553-1.854,36.369,8.209,52.524,7.945c0,0-13.069-4.838-11.243-9.037s30.12-5.795,26.112,9.037c0,0-41.255,25.177-67.393,17.886s-36.939-2.6-44.147,3.71-34.256,20-32.887-3.71S496.135,249.518,516.034,258.68Z" transform="translate(-470.572 -234.955)" fill="#602b2b"/>
              </g>
            </g>
            <g id="Grupo_83345" data-name="Grupo 83345" transform="translate(39.839 48.436)">
              <path id="Trazado_116631" data-name="Trazado 116631" d="M523.218,298.508l.491-.3c.32-.183.78-.46,1.337-.833,1.126-.729,2.636-1.84,4.424-3.082a26.313,26.313,0,0,1,6.333-3.423,10.537,10.537,0,0,1,7.269-.039s-.555.037-1.533.077a16.891,16.891,0,0,0-4.079.934,41.657,41.657,0,0,0-5.951,2.915c-1.154.636-2.4,1.341-3.773,2.011A23.305,23.305,0,0,1,523.218,298.508Z" transform="translate(-523.218 -290.207)" fill="#3d1f1f"/>
            </g>
            <g id="Grupo_83346" data-name="Grupo 83346" transform="translate(16.41 54.692)">
              <path id="Trazado_116632" data-name="Trazado 116632" d="M602.755,298.081l-2.763,1.286c-1.794.818-4.419,1.974-7.742,3.334s-7.346,2.918-11.964,4.451a93.689,93.689,0,0,1-15.635,3.916,66.256,66.256,0,0,1-9.026.354L553.3,311.3l-1.173-.066c-.392-.034-.784-.1-1.178-.146l-2.369-.316c-.791-.138-1.581-.33-2.376-.495a25.252,25.252,0,0,1-4.738-1.565l-.588-.291c.073.038.035.007.006.026l-.884.2-2.336.546c-3.116.743-6.26,1.512-9.328,2.4l-1.147.338c-.378.117-.731.254-1.1.38a17.5,17.5,0,0,0-2.149.911c-1.423.678-2.868,1.426-4.295,2.16l-8.525,4.408c-2.82,1.444-5.622,2.84-8.436,4.108-.737.281-1.436.618-2.186.839l-1.136.294a9.572,9.572,0,0,1-1.155.173,5.674,5.674,0,0,1-1.162.052l-.578-.013-.574-.087a5.191,5.191,0,0,1-2.163-.8l.13.072.373.158a6.135,6.135,0,0,0,1.518.318,10.76,10.76,0,0,0,5.7-1.347c4.632-2.37,11.145-6.523,19.884-11.342,1.084-.6,2.263-1.22,3.51-1.762,1.286-.524,2.588-.926,3.924-1.347,2.674-.788,5.487-1.53,8.438-2.252l2.241-.536,1.379-.319.262-.06c.087,0,.177-.088.261-.006l.51.289a1.769,1.769,0,0,0,.162.087l.06.029.119.057.238.117a23.388,23.388,0,0,0,4.332,1.444,52.092,52.092,0,0,0,9.885,1.25c1.736-.014,3.519.041,5.306-.017.886-.072,1.78-.1,2.684-.2l2.735-.365a115.459,115.459,0,0,0,11.3-2.543C586.378,303.975,594.419,301.264,602.755,298.081Z" transform="translate(-493.731 -298.081)" fill="#ba6363"/>
            </g>
            <g id="Grupo_83347" data-name="Grupo 83347" transform="translate(0.076 29.69)">
              <path id="Trazado_116633" data-name="Trazado 116633" d="M499.524,266.615s-1.225,1.245-3.223,3.365-4.768,5.115-7.825,8.631a148.276,148.276,0,0,0-9.4,11.834,47.782,47.782,0,0,0-3.982,6.627,19.6,19.6,0,0,0-1.3,3.465,8.683,8.683,0,0,0-.195,3.5l-.235-.779a7.76,7.76,0,0,1-.167-2.426,22.411,22.411,0,0,1,3.2-8.849C480.462,284.856,488.25,275.778,499.524,266.615Z" transform="translate(-473.173 -266.615)" fill="#ba6363"/>
            </g>
          </g>
        </g>
        <path id="Trazado_116634" data-name="Trazado 116634" d="M516.33,239.039s-21.871-.806-34.13-7.261c0,0,6.3,10.333,10.331,11.419,0,0-31.71-2.949-31.587-1.738s23.771,11.3,32.732,11.171,32.24-3.08,36.571-5.523S516.33,239.039,516.33,239.039Z" transform="translate(-420.275 -212.012)" fill="#fefefe"/>
      </g>
      <g id="Grupo_83358" data-name="Grupo 83358" transform="translate(160.599 164.335)">
        <g id="Grupo_83355" data-name="Grupo 83355">
          <g id="Grupo_83352" data-name="Grupo 83352">
            <path id="Trazado_116635" data-name="Trazado 116635" d="M681.907,254.006s-4.382-8.495-8.471-10.286c-5.984-2.622-16.337-1.009-24.4,1.008s-11.7-2.824-13.312-6.051-7.865-11.3-12.3-12.506,2.42,11.094,2.622,11.7-20.775.807-21.783,5.244,17.951,12.1,17.951,12.1-14.32,11.5-13.513,15.53S631.08,277.2,631.08,277.2s-7.059,6.858-6.051,8.27,17.547.2,23.8-3.026,18.354-11.093,24-12.1S684.9,259.13,681.907,254.006Z" transform="translate(-604.216 -226.088)" fill="#fff"/>
            <g id="Grupo_83351" data-name="Grupo 83351" clip-path="url(#clip-path-2)">
              <path id="Trazado_116636" data-name="Trazado 116636" d="M621.339,262.747s-7.459,7.743-5,12.712,26.99,4.153,36.451,0c0,0-3.87-6.3.555-7.625s26.468-1.424,30.61,2.778-13.015,9.286-25.71,20.675-31.293,10.064-38.679,4.5-21.689-11.918-19.305-17.48S612.221,263.605,621.339,262.747Z" transform="translate(-603.35 -233.619)" fill="#ededed"/>
            </g>
          </g>
          <g id="Grupo_83353" data-name="Grupo 83353" transform="translate(53.219 22.405)">
            <path id="Trazado_116638" data-name="Trazado 116638" d="M676.537,259.477c0,1.629-.722,2.949-1.613,2.949s-1.614-1.32-1.614-2.949a4.144,4.144,0,0,1,.632-2.341c.272-.381.612.346.981.346.64,0,.64,0,1.454.717A5.012,5.012,0,0,1,676.537,259.477Z" transform="translate(-671.63 -254.848)" fill="#1d1d1b"/>
            <path id="Trazado_116639" data-name="Trazado 116639" d="M677.313,257.579s-4.169-1.143-6.118-3.294a9.653,9.653,0,0,0,2.555,3.294A3.376,3.376,0,0,0,677.313,257.579Z" transform="translate(-671.195 -254.285)" fill="#1d1d1b"/>
          </g>
          <g id="Grupo_83354" data-name="Grupo 83354" transform="translate(20.415 45.181)">
            <path id="Trazado_116640" data-name="Trazado 116640" d="M675.658,282.951l-4.4,2.578c-2.756,1.592-6.585,3.876-11,6.37a55.887,55.887,0,0,1-7.073,4.1,30.366,30.366,0,0,1-8.5,2.448,37.274,37.274,0,0,1-8.774.091c-.727-.088-1.383-.131-2.148-.266l-2.231-.412-.533-.1a2.58,2.58,0,0,1-.265-.057l-.291-.131a1.237,1.237,0,0,1-.445-.422.99.99,0,0,1-.077-.613,2.429,2.429,0,0,1,.583-1.1,5.412,5.412,0,0,1,.777-.742l-.141.193c-.091.132-.218.31-.381.591a2.271,2.271,0,0,0-.358,1,.519.519,0,0,0,.34.511,2.1,2.1,0,0,0,.78.083l1.9.012c.645.021,1.427-.01,2.275-.03l1.309-.025,1.4-.09c.481-.037.977-.048,1.486-.1l1.566-.172a40.751,40.751,0,0,0,6.969-1.432,38.043,38.043,0,0,0,7.726-3.394l2.075-1.178c.719-.412,1.479-.8,2.237-1.151q2.285-1.087,4.732-2.2C668.453,285.815,671.949,284.38,675.658,282.951Z" transform="translate(-629.909 -282.951)" fill="#fff"/>
          </g>
        </g>
        <g id="Grupo_83357" data-name="Grupo 83357" transform="translate(49.444 24.488)">
          <path id="Trazado_116641" data-name="Trazado 116641" d="M702.96,272.581s-8.068,8.068-11.094,8.673-12.1-5.244-12.1-5.244-12.909-4.033-13.312-7.865,11.7-2.622,11.7-2.622,5.648-6.656,11.9-7.664,19.564,1.008,24.4,5.042-4.034,20.774-4.034,20.774S712.238,274.6,702.96,272.581Z" transform="translate(-666.444 -257.049)" fill="#f7d838"/>
          <path id="Trazado_116642" data-name="Trazado 116642" d="M714.443,283.6s7.613-13.179,4.949-19.564c-2.235-5.357-17.25-6.9-24.2-6.788-4.423.075-7.477,3.093-9.179,4.557,0,0,12.7-.318,20.647,2.231S715.869,277.044,714.443,283.6Z" transform="translate(-670.464 -256.976)" fill="#ffeb2e"/>
          <path id="Trazado_116643" data-name="Trazado 116643" d="M676.356,272.646s10.488,3.429,14.32,3.228,12.5-1.609,12.5-1.609-11.295,3.021-13.412,3.223S676.356,272.646,676.356,272.646Z" transform="translate(-668.48 -260.14)" fill="#bc9b0f"/>
          <path id="Trazado_116644" data-name="Trazado 116644" d="M698.178,263.65a3.157,3.157,0,0,0-4.941,1.566A6.817,6.817,0,0,1,698.178,263.65Z" transform="translate(-671.948 -258.156)" fill="#bc9b0f"/>
          <g id="Grupo_83356" data-name="Grupo 83356" transform="translate(26.412)">
            <path id="Trazado_116645" data-name="Trazado 116645" d="M699.685,256.958s1.683-.1,4.494-.022c1.406.033,3.094.119,5,.308a42.961,42.961,0,0,1,6.263,1.039l1.707.5c.572.23,1.158.41,1.74.7a8.927,8.927,0,0,1,3.246,2.491,7.7,7.7,0,0,1,1.685,3.957,12.986,12.986,0,0,1-.229,4.14,33.821,33.821,0,0,1-2.667,7.258,71.569,71.569,0,0,1-3.472,6.3s.273-1.055.88-3.015c.588-1.959,1.6-4.828,2.553-8.484a15.963,15.963,0,0,0,.576-5.9,6.472,6.472,0,0,0-3.878-4.874,40.7,40.7,0,0,0-8.155-2.559C706.4,258.112,703.148,257.493,699.685,256.958Z" transform="translate(-699.685 -256.907)" fill="#fff8c7"/>
          </g>
        </g>
      </g>
      <g id="Grupo_83362" data-name="Grupo 83362">
        <path id="Trazado_116646" data-name="Trazado 116646" d="M518.281,101.833S484.6,62.705,479.354,55.041s-12.5-19.363-14.118-19.766a7.493,7.493,0,0,0-3.228,0s6.858,26.221,12.908,37.515c0,0-24.2-25.413-37.515-49.214,0,0-4.033-2.824-6.857-2.017,0,0,14.521,45.179,36.708,65.752,0,0-37.112-25.816-56.071-30.657,0,0-7.664,2.679-8.471,4.97S439.174,85.7,448.978,93.362c0,0-30.56-6.051-46.28,1.613,0,0,3.24,6.858,4.854,6.858s33.639.05,41.426,5.067c0,0-24.887,11.068-24.081,14.7s21.379,0,21.379,0-5.647,9.5-3.63,13.825,15.973,2.311,15.973,2.311-1.373,9.648,0,11.076,15.894,0,15.894,0-2.017,11,0,11.256,16.539,2.274,16.539,2.274-10.487,8.068-8.874,10.085,7.664,3.9,7.664,3.9-5.164,6.588,12.183,14.656c0,0-2.9,4.6-1.695,5.726s12.908,7.206,12.908,7.206-9.519-.562-11.214,2.531,14.17,11.968,23.986,9.144,15.061-74.223,15.061-74.223Z" transform="translate(-402.217 -19.705)" fill="#4d2c2b"/>
        <path id="Trazado_116647" data-name="Trazado 116647" d="M581.253,214.925s-12.5-18.173-10.488-31.082,6.916-30.049,5.412-38.273-9.849-12.956-19.53-20.016S527.6,95.5,524.778,94.7s-6.454,14.572,3.227,27.253,31.465,28.523,31.465,28.523-12.908,5.942-13.715,10.379,5.722,7.664,5.722,7.664-24.923,1.5-25,6.6,10,5.905,10,5.905-6.454,2.42-6.858,6.454,15.732,11.614,15.732,11.614-16.135-.231-16.539,1.943,21.647,17.93,21.647,17.93-10.352,2.06-10.756,4.447,6.858,7.227,6.858,7.227-3.5,3.72,3.9,4.078S589.255,230.362,581.253,214.925Z" transform="translate(-426.665 -34.753)" fill="#723d3d"/>
        <g id="Grupo_83359" data-name="Grupo 83359">
          <path id="Trazado_116648" data-name="Trazado 116648" d="M549.388,186.355s-.208-.359-.551-1.07a29.3,29.3,0,0,1-1.3-3.253l-.386-1.161-.348-1.313c-.274-.912-.431-1.942-.652-3.046-.127-.551-.149-1.139-.23-1.739-.058-.6-.162-1.223-.189-1.877a28.771,28.771,0,0,1,.122-4.15c.552-5.828,2.229-12.759,3.864-20.821a81.213,81.213,0,0,0,1.8-12.97,19.071,19.071,0,0,0-.192-3.444,16.337,16.337,0,0,0-1-3.372,20.351,20.351,0,0,0-3.888-6.221c-3.425-3.746-8.043-6.673-12.7-9.863-1.164-.8-2.368-1.578-3.544-2.484s-2.292-1.851-3.39-2.85c-2.2-1.992-4.317-4.14-6.429-6.353-4.22-4.426-8.36-9.195-12.814-13.869-1.117-1.162-2.257-2.316-3.444-3.412a18.4,18.4,0,0,0-3.736-2.841l-.471-.193c-.249-.109-.5-.224-.741-.346a10.371,10.371,0,0,1-1.131-.822c-.35-.285-.683-.578-.991-.884s-.63-.605-.925-.92c-1.2-1.246-2.327-2.547-3.426-3.877-8.729-10.657-16.69-22.691-25.644-34.5-.565-.728-1.143-1.439-1.731-2.121-.276-.309-.639-.693-.822-.853a.047.047,0,0,0-.015-.009l-.072-.032c-.084-.037-.173-.072-.261-.1a3.642,3.642,0,0,0-.521-.148,2.272,2.272,0,0,0-.462-.046c-.172.014-.126.009-.162.021a.076.076,0,0,0-.053.1l.095.494.149.656c.107.442.227.889.353,1.337,1.019,3.592,2.242,7.211,3.471,10.842,2.483,7.261,5.119,14.6,7.833,22l2.141,5.84-4.1-4.67c-7.39-8.422-14.632-17.192-21.621-26.367-3.517-4.568-6.878-9.305-10.147-14.145l-2.362-3.7-1.182-1.855-.592-.929c0,.006.033.025-.025-.013l-.442-.3c-1.185-.8-2.4-1.571-3.625-2.234-.305-.166-.61-.319-.912-.46l-.068-.031,0,0h0c0,.014-.014-.052.037.122.075.241.13.478.22.723l.536,1.465c.338.979.755,1.951,1.146,2.927s.8,1.947,1.229,2.915.83,1.944,1.277,2.906c1.735,3.867,3.571,7.7,5.452,11.52,3.768,7.634,7.772,15.178,12.048,22.543,2.116,3.7,4.382,7.295,6.71,10.836l1.032,1.476.873,1.239c.292.412.563.811.946,1.285l2.063,2.655,1.808,2.365,1.8,2.354.224.293.056.074-.079-.052-.161-.11-.652-.443-1.313-.89-5.188-3.5-4.407-2.911L454.9,80.033l-5.356-3.43c-3.579-2.264-7.172-4.486-10.792-6.638s-7.256-4.246-10.939-6.21a104,104,0,0,0-11.226-5.3c-.957-.353-1.918-.69-2.885-.957-.482-.154-.965-.226-1.448-.344-.242-.06-.476-.065-.715-.1-.288-.022-.368-.078-.446-.023l-1.371.548-1.412.6c-.935.409-1.859.837-2.748,1.3-.444.232-.88.475-1.287.735-.2.13-.4.264-.574.4a1.287,1.287,0,0,0-.233.219.212.212,0,0,0-.022.284,1.462,1.462,0,0,0,.223.263c.315.338.71.668,1.081.993,1.538,1.293,3.181,2.508,4.819,3.7C422.8,75.569,436.3,84.014,448.985,92.749c0,0-.926-.66-2.792-1.844l-8.352-5.271c-3.692-2.324-8.282-5.211-13.714-8.695q-4.072-2.616-8.758-5.7c-3.111-2.077-6.437-4.287-9.849-6.842a31.939,31.939,0,0,1-2.53-2.082,3.61,3.61,0,0,1-.665-.782,1.151,1.151,0,0,1-.231-.478,1.021,1.021,0,0,1,.126-.518,2.783,2.783,0,0,1,.738-.835,8.543,8.543,0,0,1,.719-.519,43.552,43.552,0,0,1,6.279-3.1l.921-.375a.479.479,0,0,1,.312-.021l.282.03.47.05a18.2,18.2,0,0,1,1.843.346q1.8.477,3.576,1.138c2.362.879,4.712,1.924,7.078,3.063a326.911,326.911,0,0,1,29.779,17.028L459.972,81l.411.258.1.062.047.03c.019.013.037.025.009-.006l-.18-.221c-.242-.286-.447-.551-.635-.812l-.449-.625c-.249-.34-.484-.69-.714-1.043l-1.4-2.12c-.957-1.409-1.832-2.88-2.752-4.342q-2.719-4.412-5.336-9.074-5.25-9.313-10.282-19.51c-1.684-3.394-3.316-6.879-4.933-10.434-.776-1.8-1.595-3.584-2.329-5.44-.381-.919-.757-1.844-1.095-2.8l-.524-1.429-.622-2.1-.063-.44.033-.36a1.529,1.529,0,0,1,.227-.638,1.606,1.606,0,0,1,1.251-.688,4.329,4.329,0,0,1,1.742.37c.142.055.323.136.441.188l.246.114.479.237A40.758,40.758,0,0,1,437.2,22.3l.859.573.559.385c.163.081.208.24.323.4l.182.284,1.091,1.706,2.2,3.441c1.424,2.338,3.092,4.564,4.7,6.863l2.44,3.453,2.577,3.413c6.884,9.155,14.444,18.4,22.512,27.658l-1.972,1.181c-2.783-7.662-5.576-15.511-8.279-23.606-.671-2.026-1.336-4.067-1.973-6.136-.318-1.035-.629-2.076-.922-3.135-.147-.529-.287-1.064-.418-1.611-.065-.273-.127-.55-.184-.837l-.079-.443a5.26,5.26,0,0,1-.061-.755c-.025-1.022.988-1.71,1.978-1.86a4.574,4.574,0,0,1,2.126.29c.155.055.305.117.456.184a1.755,1.755,0,0,1,.6.377,8.524,8.524,0,0,1,.668.671c.405.432.752.867,1.116,1.3,1.4,1.747,2.711,3.532,4.024,5.332,5.219,7.208,10.355,14.661,15.816,22.084,2.736,3.7,5.524,7.432,8.57,10.94.768.867,1.548,1.731,2.376,2.506.2.207.416.374.626.559l.316.272.32.223c.106.072.214.159.317.219l.289.139a3.646,3.646,0,0,0,.406.18,4.442,4.442,0,0,1,.473.211,16.582,16.582,0,0,1,3.041,2.21c.92.8,1.779,1.653,2.632,2.509,6.726,6.907,12.774,14.557,19.874,21.4a50.411,50.411,0,0,0,5.625,4.759l6.166,4.311a70.367,70.367,0,0,1,6.017,4.683,24.709,24.709,0,0,1,5.006,5.885l.492.842.427.878c.306.577.516,1.2.762,1.8s.4,1.237.608,1.855c.09.315.151.644.227.965l.144.977a33.167,33.167,0,0,1-.352,7.8c-.741,5.158-1.973,10.247-3.127,15.385-.583,2.568-1.161,5.146-1.665,7.75A61.251,61.251,0,0,0,546,170.669,32.87,32.87,0,0,0,549.388,186.355Z" transform="translate(-402.093 -19.262)" fill="#ba6363"/>
        </g>
        <g id="Grupo_83360" data-name="Grupo 83360" transform="translate(22.892 100.834)">
          <path id="Trazado_116649" data-name="Trazado 116649" d="M430.9,147.2a.673.673,0,0,0,.1.3,2.016,2.016,0,0,0,.807.632,11.188,11.188,0,0,0,4.294.62,47.67,47.67,0,0,0,6.921-.619c1.336-.186,2.753-.443,4.247-.723.757-.129,1.492-.291,2.314-.462,1.255-.246,2.629-.543,3.969-.782-.434.812-.909,1.676-1.336,2.527l-.317.646-.26.549-.349.778c-.458,1.048-.9,2.133-1.279,3.255a21.5,21.5,0,0,0-.914,3.447,5.149,5.149,0,0,0,.2,3.111,2.383,2.383,0,0,0,1.07.815,8.816,8.816,0,0,0,1.7.552,24.989,24.989,0,0,0,3.9.5c1.35.076,2.73.091,4.128.062q1.048-.021,2.106-.075l1.478-.09,2.179-.182-.31,1.653-.244,1.475q-.12.81-.219,1.626c-.128,1.087-.23,2.182-.263,3.261a11.463,11.463,0,0,0,.216,3.023,1.818,1.818,0,0,0,.182.448c.058.066-.024,0,.126.089a5.848,5.848,0,0,0,1.343.291,44.051,44.051,0,0,0,6.68.016c1.135-.062,2.274-.145,3.411-.238l1.7-.151,3.189-.357-.4,1.743-.315,1.508q-.179.89-.333,1.781c-.2,1.186-.372,2.373-.456,3.539a14.354,14.354,0,0,0-.033,1.706,5.464,5.464,0,0,0,.087.776,2,2,0,0,0,.15.5.3.3,0,0,0,.211.149l.865.143,1.772.294c4.709.788,9.288,1.6,13.651,2.42,0,0-2.5-.152-7.3-.567-2.4-.208-5.367-.482-8.882-.835l-.354-.037a3.011,3.011,0,0,1-.492-.117,1.638,1.638,0,0,1-.756-.677,4.174,4.174,0,0,1-.509-1.611,16.741,16.741,0,0,1-.073-3.094c.057-1.046.167-2.113.313-3.207q.11-.82.247-1.661a.885.885,0,0,0,.016-.111l0-.048.008-.091.015-.164-.292.064-.033.007-.158.021-.367.046-.743.09c-1,.117-2.021.226-3.074.32a56.4,56.4,0,0,1-6.7.264,17.51,17.51,0,0,1-1.852-.159,8.915,8.915,0,0,1-1.014-.216,3.181,3.181,0,0,1-1.251-.659,3.132,3.132,0,0,1-.764-1.219,6.261,6.261,0,0,1-.279-1.084,12.99,12.99,0,0,1-.164-2.012,32.147,32.147,0,0,1,.227-3.909q.108-.977.257-1.961l.072-.472,0,0,.006-.009,0,0,0,0c-.009,0,.017,0-.022,0l-.223.011c-.6.027-1.2.044-1.8.056-1.212.023-2.446.011-3.7-.045a35.464,35.464,0,0,1-3.85-.37,13.615,13.615,0,0,1-4.015-1.168,4.135,4.135,0,0,1-1.869-1.731,5.08,5.08,0,0,1-.489-2.4,14.824,14.824,0,0,1,.851-4.249,35.984,35.984,0,0,1,1.607-3.95l.468-.966.243-.481.123-.24.067-.12.514-.861a2.386,2.386,0,0,0-.529.039l-.729.095q-1.322.217-2.674.373c-1.8.239-3.633.418-5.5.541a43.048,43.048,0,0,1-5.666.019l-1.427-.164a14.136,14.136,0,0,1-1.4-.311,5.234,5.234,0,0,1-1.305-.542A1.283,1.283,0,0,1,430.9,147.2Z" transform="translate(-430.904 -146.168)" fill="#ba6363"/>
        </g>
        <g id="Grupo_83361" data-name="Grupo 83361" transform="translate(147.452 168.587)">
          <path id="Trazado_116650" data-name="Trazado 116650" d="M587.67,231.438s.279.463.706,1.244.978,1.89,1.665,3.121a79.059,79.059,0,0,1,3.967,8.314,8.875,8.875,0,0,1-.776-.664,17.369,17.369,0,0,1-1.945-2.158A21.206,21.206,0,0,1,587.67,231.438Z" transform="translate(-587.67 -231.438)" fill="#331919"/>
        </g>
      </g>
    </g>
  </g>
</svg>
