<svg xmlns="http://www.w3.org/2000/svg" width="125" height="151" viewBox="0 0 125 151">
  <g id="Grupo_84010" data-name="Grupo 84010" transform="translate(6454.5 2799)">
    <rect id="Rectángulo_34381" data-name="Rectángulo 34381" width="125" height="151" rx="5" transform="translate(-6454.5 -2799)" fill="#6b8dff"/>
    <g id="responder_1_" data-name="responder (1)" transform="translate(-6440.501 -2738.664)">
      <path id="Trazado_116282" data-name="Trazado 116282" d="M285.414,7.5H251.129a7.614,7.614,0,0,0-7.614,7.614V33.187a7.614,7.614,0,0,0,7.614,7.614h5.989l-1.747,9.215a.9.9,0,0,0,1.438.885l13.136-10.1h15.469a7.614,7.614,0,0,0,7.614-7.614V15.114A7.614,7.614,0,0,0,285.414,7.5Zm0,0" transform="translate(-197.316 -6.077)" fill="#a5dffa"/>
      <path id="Trazado_116283" data-name="Trazado 116283" d="M307.143,185.876l-1.208,6.37a.9.9,0,0,0,1.438.885l13.136-10.1h-9.667Zm0,0" transform="translate(-247.88 -148.307)" fill="#6fccf7"/>
      <path id="Trazado_116284" data-name="Trazado 116284" d="M423.081,7.5h-9.667a7.613,7.613,0,0,1,7.614,7.614V33.187a7.613,7.613,0,0,1-7.614,7.614h9.667a7.614,7.614,0,0,0,7.614-7.614V15.114A7.614,7.614,0,0,0,423.081,7.5Zm0,0" transform="translate(-334.982 -6.077)" fill="#6fccf7"/>
      <path id="Trazado_116285" data-name="Trazado 116285" d="M107.65,122.673H87.683A17.938,17.938,0,0,1,69.745,104.8l-.03-8.9H107.74Zm0,0" transform="translate(-56.488 -77.702)" fill="#ffc648"/>
      <path id="Trazado_116286" data-name="Trazado 116286" d="M68.864,229.8a10.469,10.469,0,0,0-6.405-8.825c-4.521-2.117-15.4-5.32-15.4-5.32a2.511,2.511,0,0,1-2.053-2.469v-7.039H31.624v7.039a2.511,2.511,0,0,1-2.053,2.469s-10.875,3.2-15.4,5.32A10.469,10.469,0,0,0,7.77,229.8L7.5,251.971a4.192,4.192,0,0,0,4.192,4.243H64.94a4.193,4.193,0,0,0,4.192-4.243Zm0,0" transform="translate(-6.078 -167.039)" fill="#ffe5d0"/>
      <path id="Trazado_116287" data-name="Trazado 116287" d="M187.778,229.8a10.469,10.469,0,0,0-6.405-8.825c-4.521-2.117-15.4-5.32-15.4-5.32a2.511,2.511,0,0,1-2.053-2.469v-7.039h-9.667v10.814a2.512,2.512,0,0,0,2.053,2.469s10.875,3.2,15.4,5.32a10.465,10.465,0,0,1,6.405,8.825l.268,22.17a4.108,4.108,0,0,1-.021.469h5.5a4.194,4.194,0,0,0,4.192-4.244Zm0,0" transform="translate(-124.992 -167.039)" fill="#f9b87f"/>
      <path id="Trazado_116288" data-name="Trazado 116288" d="M74.995,113.381l-1.929-.195a2.994,2.994,0,0,0-3.3,3.29l.007,2.359a4.135,4.135,0,0,0,5.154,4l.068-.019Zm0,0" transform="translate(-56.521 -91.7)" fill="#f9b87f"/>
      <path id="Trazado_116289" data-name="Trazado 116289" d="M118.533,23.5a13.931,13.931,0,0,0-19.611,0A14.832,14.832,0,0,0,94.4,34.4l0,10.269a17.91,17.91,0,0,0,4.8,11.1c2.23,2.211,5.255,4.921,9.527,4.973,4.272-.051,7.3-2.761,9.527-4.973a17.91,17.91,0,0,0,4.8-11.1l0-10.269a14.832,14.832,0,0,0-4.524-10.9Zm0,0" transform="translate(-76.488 -15.772)" fill="#ffe5d0"/>
      <path id="Trazado_116290" data-name="Trazado 116290" d="M159.36,23.5a14.466,14.466,0,0,0-9.805-4.035,14.016,14.016,0,0,0-4.77.884,15.345,15.345,0,0,1,5.036,3.151,14.832,14.832,0,0,1,4.524,10.9l0,10.269a17.914,17.914,0,0,1-4.8,11.1,20.358,20.358,0,0,1-4.757,3.726,10.409,10.409,0,0,0,4.77,1.246c4.271-.051,7.3-2.761,9.527-4.973a17.91,17.91,0,0,0,4.8-11.1l0-10.269a14.832,14.832,0,0,0-4.524-10.9Zm0,0" transform="translate(-117.316 -15.772)" fill="#f9b87f"/>
      <path id="Trazado_116291" data-name="Trazado 116291" d="M68.864,278.618a10.469,10.469,0,0,0-6.405-8.825,94.515,94.515,0,0,0-9.224-3.4v.2a11.958,11.958,0,0,1-11.959,11.958H35.358A11.958,11.958,0,0,1,23.4,266.6v-.2a94.515,94.515,0,0,0-9.224,3.4,10.469,10.469,0,0,0-6.405,8.825L7.5,300.788a4.192,4.192,0,0,0,4.192,4.243H64.939a4.193,4.193,0,0,0,4.192-4.243Zm0,0" transform="translate(-6.078 -215.855)" fill="#ff87b1"/>
      <path id="Trazado_116292" data-name="Trazado 116292" d="M249.944,269.794a94.487,94.487,0,0,0-9.224-3.4v.2a11.9,11.9,0,0,1-1.836,6.364c.509.21.978.413,1.394.608a10.467,10.467,0,0,1,6.405,8.825l.268,22.17a4.275,4.275,0,0,1-.021.469h5.494a4.193,4.193,0,0,0,4.193-4.244l-.268-22.169A10.467,10.467,0,0,0,249.944,269.794Zm0,0" transform="translate(-193.562 -215.856)" fill="#ff579a"/>
      <path id="Trazado_116293" data-name="Trazado 116293" d="M107.675,25.08A14.549,14.549,0,0,0,93.129,10.824H84.344A14.548,14.548,0,0,0,69.8,25.076l-.074,3.6c-.033.574.515.808,1.246.868.048-.035.1-.069.149-.1A3.04,3.04,0,0,1,73.04,29l1.366.139a28.547,28.547,0,0,1,1.056-6.1,3.857,3.857,0,0,1,6.192-1.856c7.725,6.527,16.319,9.777,21.408,10.16l0,6.333a17.91,17.91,0,0,1-4.8,11.1,26.759,26.759,0,0,1-2.834,2.506l.006,5.565a12.271,12.271,0,0,0,10.848,12.174,1.288,1.288,0,0,0,1.423-1.285Zm0,0" transform="translate(-56.495 -8.771)" fill="#ffc648"/>
      <path id="Trazado_116294" data-name="Trazado 116294" d="M168.642,25.08A14.549,14.549,0,0,0,154.1,10.824h-8.785c-.116,0-.23.006-.346.008a14.547,14.547,0,0,1,14.2,14.249l0,5.29a23.817,23.817,0,0,0,4.86.964l0,6.333a17.91,17.91,0,0,1-4.8,11.1l-.047.047.011,15.8a12.248,12.248,0,0,0,8.055,4.4,1.288,1.288,0,0,0,1.424-1.284Zm0,0" transform="translate(-117.462 -8.771)" fill="#fd9e28"/>
      <path id="Trazado_116295" data-name="Trazado 116295" d="M328.8,62.145a.637.637,0,0,0-.634.422l-2.486,4.7-2.47-4.7a.637.637,0,0,0-.65-.422c-.569,0-1.4.357-1.4.877a.631.631,0,0,0,.049.211l3.364,5.818a.407.407,0,0,1,.049.211v4.1c0,.439.536.666,1.056.666.537,0,1.057-.228,1.057-.666v-4.1a.405.405,0,0,1,.064-.211l3.348-5.818a.387.387,0,0,0,.049-.211C330.2,62.5,329.367,62.145,328.8,62.145Zm0,0" transform="translate(-260.23 -50.355)"/>
      <path id="Trazado_116296" data-name="Trazado 116296" d="M369.13,88.064c.731,0,1.511-.065,1.511-1.447a3.173,3.173,0,0,0-3.347-3.055,3.431,3.431,0,0,0-3.559,3.25v1.381c0,2,1.625,3.331,3.933,3.331,1.739,0,2.861-.8,2.861-1.349,0-.325-.308-.926-.8-.926s-.926.618-2,.618c-1.138,0-1.9-.618-1.9-1.561v-.244Zm-3.3-1.69a1.431,1.431,0,0,1,2.844.016c0,.358-.13.439-.471.439h-2.373Zm0,0" transform="translate(-294.727 -67.709)"/>
      <path id="Trazado_116297" data-name="Trazado 116297" d="M407.319,89.93c-1.365,0-1.723-.731-2.194-.731-.406,0-.7.585-.7.926,0,.715,1.284,1.4,2.942,1.4,1.917,0,2.99-.926,2.99-2.373,0-2.892-3.9-2.08-3.9-3.267,0-.325.325-.731,1.138-.731.894,0,1.4.471,1.787.471.488,0,.764-.715.764-1.008,0-.6-1.268-1.057-2.584-1.057-2.178,0-2.909,1.268-2.909,2.422,0,2.714,3.852,1.82,3.852,3.25,0,.325-.228.7-1.187.7Zm0,0" transform="translate(-327.699 -67.706)"/>
      <path id="Trazado_116298" data-name="Trazado 116298" d="M64.209,65.439c0-.022,0-.044,0-.066a11.935,11.935,0,0,0-7.223-10.03c-1.056-.494-2.52-1.081-4.359-1.747L52.6,19v-.027A15.972,15.972,0,0,0,36.634,3.324H27.849A15.97,15.97,0,0,0,11.881,18.969c-.057,2.8-.07,3.519-.07,3.751h0l.024,7.072A19.342,19.342,0,0,0,24.123,47.753v1.088a1.09,1.09,0,0,1-.89,1.071,1.327,1.327,0,0,0-.142.034c-.448.132-11.03,3.258-15.6,5.4A11.936,11.936,0,0,0,.271,65.373c0,.022,0,.044,0,.066L0,87.609a5.615,5.615,0,0,0,5.615,5.684H58.861a5.616,5.616,0,0,0,5.616-5.684ZM14.726,19.027A13.127,13.127,0,0,1,27.849,6.169h8.785a13.128,13.128,0,0,1,13.123,12.85L49.785,61.5A10.838,10.838,0,0,1,40.36,50.761l0-4.874A31.42,31.42,0,0,0,42.768,43.7a19.3,19.3,0,0,0,5.219-12.083c0-.01,0-.019,0-.028l0-6.335a1.423,1.423,0,0,0-1.314-1.419c-4.9-.375-13.161-3.559-20.578-9.827a5.28,5.28,0,0,0-8.476,2.54A29.935,29.935,0,0,0,16.53,22.71l-.009.039a4.413,4.413,0,0,0-1.865.277s.042-2.629.07-4Zm8.988,22.654a16.428,16.428,0,0,1-4.377-10.106l0-8.278a1.273,1.273,0,0,0,.017-.142,27.323,27.323,0,0,1,1-5.8,2.434,2.434,0,0,1,3.91-1.173,51.458,51.458,0,0,0,12.014,7.59,35.041,35.041,0,0,0,8.867,2.752v5.05a16.433,16.433,0,0,1-4.378,10.106c-2.2,2.18-4.851,4.509-8.525,4.56-3.674-.051-6.327-2.38-8.525-4.56ZM14.682,30.022c0-.079,0-.159,0-.239L14.671,27a1.59,1.59,0,0,1,.707-1.172,1.618,1.618,0,0,1,1.023-.236l.088.009,0,5.987v.027c.005.26.019.521.039.782a2.728,2.728,0,0,1-1.848-2.378Zm.885,5.057a5.529,5.529,0,0,0,1.5.3A20.649,20.649,0,0,0,20.5,42.32a16.507,16.507,0,0,1-4.934-7.241Zm8.267,17.615a3.935,3.935,0,0,0,3.135-3.852V47.766a11.668,11.668,0,0,0,5.253,1.32h.034a11.66,11.66,0,0,0,5.256-1.322v3a13.685,13.685,0,0,0,4.82,10.42A10.491,10.491,0,0,1,35.2,63.969H29.28a10.55,10.55,0,0,1-10.5-9.711C21.365,53.429,23.452,52.807,23.834,52.693Zm37,36.93a2.75,2.75,0,0,1-1.971.823H52.786V76.406a1.423,1.423,0,1,0-2.846,0v14.04H14.951V76.406a1.423,1.423,0,1,0-2.846,0v14.04H5.617a2.771,2.771,0,0,1-2.77-2.8l.268-22.135A9.024,9.024,0,0,1,8.7,57.919c1.771-.829,4.584-1.842,7.309-2.756A13.4,13.4,0,0,0,29.28,66.815H35.2a13.326,13.326,0,0,0,9.535-3.994,13.633,13.633,0,0,0,4.89,1.529,2.638,2.638,0,0,0,.305.018,2.7,2.7,0,0,0,1.79-.683,2.727,2.727,0,0,0,.913-2.034l0-5.023c1.3.488,2.358.92,3.15,1.291a9.027,9.027,0,0,1,5.586,7.588l.267,22.136a2.752,2.752,0,0,1-.8,1.981Zm0,0" transform="translate(0 -2.693)"/>
      <path id="Trazado_116299" data-name="Trazado 116299" d="M298.825,0H264.54a8.968,8.968,0,0,0-3.622.756,1.423,1.423,0,0,0,1.142,2.606,6.137,6.137,0,0,1,2.48-.517h34.285a6.2,6.2,0,0,1,6.191,6.191V27.11a6.2,6.2,0,0,1-6.191,6.191H283.356a1.422,1.422,0,0,0-.867.295l-12.055,9.269,1.493-7.875a1.423,1.423,0,0,0-1.4-1.688h-2.935a1.423,1.423,0,0,0,0,2.846h1.216l-1.427,7.526a2.325,2.325,0,0,0,3.7,2.278l12.752-9.8h14.985a9.047,9.047,0,0,0,9.037-9.037V9.037A9.047,9.047,0,0,0,298.825,0Zm0,0" transform="translate(-210.726)"/>
      <path id="Trazado_116300" data-name="Trazado 116300" d="M162.854,144.8h.942a1.423,1.423,0,0,0,.031-2.846v-1.885a1.423,1.423,0,0,0-2.846,0v2.858A1.875,1.875,0,0,0,162.854,144.8Zm0,0" transform="translate(-130.439 -112.345)"/>
      <path id="Trazado_116301" data-name="Trazado 116301" d="M150.964,180.019a1.423,1.423,0,1,0-2.4-1.522,4.044,4.044,0,0,1-6.145,0,1.423,1.423,0,0,0-2.4,1.522,6.846,6.846,0,0,0,10.954,0Zm0,0" transform="translate(-113.268 -144.096)"/>
      <path id="Trazado_116302" data-name="Trazado 116302" d="M198.239,128.781a1.423,1.423,0,0,0,1.423-1.423v-1.3a1.423,1.423,0,1,0-2.846,0v1.3A1.423,1.423,0,0,0,198.239,128.781Zm0,0" transform="translate(-159.476 -100.988)"/>
      <path id="Trazado_116303" data-name="Trazado 116303" d="M130.67,127.358v-1.3a1.423,1.423,0,0,0-2.846,0v1.3a1.423,1.423,0,1,0,2.846,0Zm0,0" transform="translate(-103.573 -100.988)"/>
    </g>
  </g>
</svg>
