<svg xmlns="http://www.w3.org/2000/svg" xmlns:xlink="http://www.w3.org/1999/xlink" width="312.601" height="294.058" viewBox="0 0 312.601 294.058">
  <defs>
    <clipPath id="clip-path">
      <rect x="21" y="16" width="312.601" height="294.058" fill="none"/>
    </clipPath>
  </defs>
  <g id="Grupo_84018" data-name="Grupo 84018" transform="translate(-1720.199 8499.431)">
    <g id="Grupo_de_desplazamiento_4" data-name="Grupo de desplazamiento 4" transform="translate(1699.199 -8515.431)" clip-path="url(#clip-path)" style="isolation: isolate">
      <g id="Grupo_84017" data-name="Grupo 84017" transform="translate(-1699.199 8515.431)">
        <path id="Trazado_117050" data-name="Trazado 117050" d="M504.721,295.828c3.144-26.455,17.693-50.123,24.474-75.887,5.077-19.289,5.717-39.422,8.214-59.211s7.166-39.993,19.026-56.03c15.807-21.372,44.169-32.67,70.342-28.02s48.907,25.029,56.382,50.539c9.641,32.9-4.988,67.8-4.179,102.073.449,19.025,5.665,37.568,8.813,56.336s4.09,38.739-3.575,56.158c-10.246,23.283-34.629,38.045-59.657,42.6-24.9,4.527-50.939.091-75.643-3.888-19.87-3.2-33.145-26.6-39.345-43.874A89.9,89.9,0,0,1,504.721,295.828Z" transform="translate(2364.266 -8779.202) rotate(118)" fill="#ffd947"/>
        <g id="Grupo_83493" data-name="Grupo 83493" transform="translate(737.32 -8701.032)">
          <path id="Trazado_117089" data-name="Trazado 117089" d="M1213.493,286.969c12.557.005,13.268-18.115,10.425-26.287,0,0,16.344-10.659,6.395-30.911s-24.871-1.066-27,3.553-21.673-17.41-32.688-16.344-11.369,12.791-13.856,12.791-18.775-4.264-28.218,2.132-2.679,12.791-4.64,15.988-16.529,6.751-5.869,17.765c0,0-17.765-1.776-19.542,7.106s4.263,12.436,3.553,15.633-15.988,21.666,15.989,27.71c0,0,.933,48.68,41.148,29.494S1213.493,286.969,1213.493,286.969Z" transform="translate(-60.161)" fill="#a56a42"/>
          <path id="Trazado_117090" data-name="Trazado 117090" d="M1094.96,480.653l-9.134,91.09h-54.561c6-15.848,22.828-60.1,28.054-71.415,6.4-13.857,18.831-14.923,18.831-14.923C1082.333,483.414,1088.432,481.859,1094.96,480.653Z" transform="translate(-34.485 -101.789)" fill="#3bad96"/>
          <path id="Trazado_117091" data-name="Trazado 117091" d="M1334.618,572.115h-70.179v-90.5a127,127,0,0,1,13.79,3.864,38.966,38.966,0,0,1,20.674,16.64C1304.632,511.944,1325.322,553.4,1334.618,572.115Z" transform="translate(-124.487 -102.161)" fill="#3bad96"/>
          <path id="Trazado_117092" data-name="Trazado 117092" d="M1223.407,569.281H1107.623V482.942c4.183-1.991,10.282-3.545,16.81-4.752a296.148,296.148,0,0,1,33.7-3.775,174.523,174.523,0,0,1,45.775,4.367,127.024,127.024,0,0,1,13.79,3.864l3.271,49.617.881,13.464Z" transform="translate(-63.958 -99.326)" fill="#3bad96"/>
          <path id="Trazado_117093" data-name="Trazado 117093" d="M1433.368,486.829l-.133,6.025-1.814,80.313h-39.076c4.39-13.08,20.956-62.807,25.286-81.838.807-3.531,1.192-6,.992-6.987Z" transform="translate(-173.857 -103.212)" fill="#ffaf82"/>
          <path id="Trazado_117094" data-name="Trazado 117094" d="M1243.007,629.418H955.693a1.133,1.133,0,0,1,0-2.221h287.314a1.133,1.133,0,0,1,0,2.221Z" transform="translate(27.456 -158.352)" fill="#6a2810"/>
          <path id="Trazado_117095" data-name="Trazado 117095" d="M1066.915,605.782c15.156.333,26.721,17.841,11.273,38.765a2.871,2.871,0,0,1-5.155-1.491,16.433,16.433,0,0,1,.277-4.586s-3.909,4.441-6.4-.177c0,0-1.6,3.908-6.04.533,0,0-1.777,4.974-6.929,1.954s-10.126-19.9-4.974-28.247S1066.915,605.782,1066.915,605.782Z" transform="translate(-40.482 -150.039)" fill="#ffaf82"/>
          <path id="Trazado_117096" data-name="Trazado 117096" d="M1065.9,649.254a1.111,1.111,0,0,1-.939-.516c-4.725-7.452-5.131-17.369-5.146-17.787a1.11,1.11,0,1,1,2.219-.08c0,.1.4,9.742,4.8,16.678a1.11,1.11,0,0,1-.937,1.7Z" transform="translate(-45.504 -159.358)" fill="#fe976a"/>
          <path id="Trazado_117097" data-name="Trazado 117097" d="M1078.127,647.046a1.111,1.111,0,0,1-1.087-.893,65.227,65.227,0,0,1-.776-19.735,1.11,1.11,0,0,1,2.2.307,64.2,64.2,0,0,0,.754,18.993,1.111,1.111,0,0,1-1.09,1.328Z" transform="translate(-51.695 -157.682)" fill="#fe976a"/>
          <path id="Trazado_117098" data-name="Trazado 117098" d="M1089.276,647.559a1.111,1.111,0,0,1-.992-1.607c2.831-5.662,1.154-18.236,1.136-18.362a1.11,1.11,0,0,1,2.2-.3c.075.543,1.788,13.381-1.35,19.656A1.11,1.11,0,0,1,1089.276,647.559Z" transform="translate(-56.448 -158.018)" fill="#fe976a"/>
          <g id="Grupo_83492" data-name="Grupo 83492" transform="translate(1043.665 432.937)">
            <path id="Trazado_117099" data-name="Trazado 117099" d="M1221.853,582.181a339.754,339.754,0,0,1-75.206,8.7,262.753,262.753,0,0,1-39.024-2.739V574.6c17.691,2.79,59.358,6.676,113.349-5.885Z" transform="translate(-1107.623 -568.717)" fill="#0091cc"/>
          </g>
          <path id="Trazado_117100" data-name="Trazado 117100" d="M1196.516,399.6v49.9s-2.258,13.856-17.891,12.791-17.765-15.278-17.765-15.278V399.6Z" transform="translate(-84.507 -70.505)" fill="#ffaf82"/>
          <path id="Trazado_117101" data-name="Trazado 117101" d="M1196.516,399.6V445.9c-21.363-.9-30.467-18.572-35.656-35.264V399.6Z" transform="translate(-84.507 -70.505)" fill="#fe976a"/>
          <path id="Trazado_117102" data-name="Trazado 117102" d="M1222.7,276.727c15.989,27.98,22.384,98.33-22.384,98.33s-57.559-36.774-47.166-79.143S1222.7,276.727,1222.7,276.727Z" transform="translate(-80.219 -20.633)" fill="#ffaf82"/>
          <path id="Trazado_117103" data-name="Trazado 117103" d="M1147.478,381.46c-4.576,14.122-29.661,10-31.175-5.85-1.469-15.38,16.037-21.944,27.536-11.823S1147.478,381.46,1147.478,381.46Z" transform="translate(-67.275 -54.807)" fill="#ffaf82"/>
          <path id="Trazado_117104" data-name="Trazado 117104" d="M1134.676,385.109a1.111,1.111,0,0,1-.893-1.77c.045-.061,4.527-6.265,2.11-10.909a1.111,1.111,0,0,1,1.97-1.025c3.057,5.876-2.073,12.953-2.293,13.252A1.108,1.108,0,0,1,1134.676,385.109Z" transform="translate(-73.972 -59.39)" fill="#fe976a"/>
          <path id="Trazado_117105" data-name="Trazado 117105" d="M1143.582,383.5a15.058,15.058,0,0,1-4.783-.691,1.111,1.111,0,0,1,.717-2.1c3.805,1.3,9.181-.013,9.235-.026a1.11,1.11,0,0,1,.537,2.155A25.978,25.978,0,0,1,1143.582,383.5Z" transform="translate(-75.701 -63.186)" fill="#fe976a"/>
          <path id="Trazado_117106" data-name="Trazado 117106" d="M1233.765,405.634a22.828,22.828,0,0,1-11.169-3.365,1.11,1.11,0,0,1,1.228-1.85c.5.329,12.229,7.91,19.918-2.183a1.11,1.11,0,1,1,1.766,1.346A14.215,14.215,0,0,1,1233.765,405.634Z" transform="translate(-108.145 -69.808)" fill="#6a2810"/>
          <path id="Trazado_117107" data-name="Trazado 117107" d="M1193.857,380.954a7.01,7.01,0,0,1-3.235-.821,5.218,5.218,0,0,1-3.018-4.5,5.914,5.914,0,0,1,2.537-5.08,3.18,3.18,0,0,1,3.254-.2,1.11,1.11,0,0,1-1.044,1.959.938.938,0,0,0-1.029.122,3.7,3.7,0,0,0-1.5,3.108,3.01,3.01,0,0,0,1.824,2.622,4.2,4.2,0,0,0,5.2-.72,6.371,6.371,0,0,0,.766-7.545,5.851,5.851,0,0,0-5.66-3.437,5.473,5.473,0,0,0-4.768,3.626,1.11,1.11,0,0,1-2.1-.736,7.7,7.7,0,0,1,6.7-5.1,8.079,8.079,0,0,1,7.787,4.61,8.579,8.579,0,0,1-1.15,10.149A6.369,6.369,0,0,1,1193.857,380.954Z" transform="translate(-93.833 -56.849)" fill="#fe976a"/>
          <path id="Trazado_117108" data-name="Trazado 117108" d="M1271.346,369.72a7.008,7.008,0,0,1-3.234-.821,5.22,5.22,0,0,1-3.019-4.5,5.918,5.918,0,0,1,2.539-5.08,3.18,3.18,0,0,1,3.254-.2,1.11,1.11,0,1,1-1.044,1.959.936.936,0,0,0-1.028.122,3.7,3.7,0,0,0-1.5,3.109,3.009,3.009,0,0,0,1.823,2.621,4.2,4.2,0,0,0,5.2-.719,6.373,6.373,0,0,0,.766-7.546,5.854,5.854,0,0,0-5.661-3.437,5.471,5.471,0,0,0-4.767,3.626,1.111,1.111,0,0,1-2.1-.736,7.694,7.694,0,0,1,6.7-5.1,8.074,8.074,0,0,1,7.789,4.61,8.579,8.579,0,0,1-1.151,10.15A6.365,6.365,0,0,1,1271.346,369.72Z" transform="translate(-123.743 -52.513)" fill="#fe976a"/>
          <path id="Trazado_117109" data-name="Trazado 117109" d="M1242.307,370.878a1.11,1.11,0,0,1-.631-2.024l8.774-6.041-9.058-13.12a1.11,1.11,0,0,1,1.828-1.261l9.689,14.034a1.109,1.109,0,0,1-.284,1.545l-9.69,6.672A1.105,1.105,0,0,1,1242.307,370.878Z" transform="translate(-115.515 -50.567)" fill="#6a2810"/>
          <path id="Trazado_117110" data-name="Trazado 117110" d="M1203.15,343.111c0,2.986-1.2,4.667-2.682,4.667s-2.683-1.681-2.683-4.667,1.2-4.587,2.683-4.587S1203.15,340.125,1203.15,343.111Z" transform="translate(-98.76 -46.929)" fill="#6a2810"/>
          <path id="Trazado_117111" data-name="Trazado 117111" d="M1262.228,335.576c0,2.986-1.2,4.666-2.683,4.666s-2.683-1.681-2.683-4.666,1.2-4.587,2.683-4.587S1262.228,332.59,1262.228,335.576Z" transform="translate(-121.563 -44.02)" fill="#6a2810"/>
          <path id="Trazado_117112" data-name="Trazado 117112" d="M1227.859,284.964c-8.677-11.419-14.156-6.4-18.032,0s-8.85,1.364-14.535-3.4-16.17-3.346-15.013,3.76-4.969,9.948-13.453,4.619-18.433,6.4-13.459,12.081,5.655,15.884-5.522,17.89-13.694-8.12-12.613-23.131,4.927-42.725,43.686-45.212,46.689,14.212,48.941,20.252S1227.859,284.964,1227.859,284.964Z" transform="translate(-74.526 -13.267)" fill="#a56a42"/>
          <path id="Trazado_117113" data-name="Trazado 117113" d="M1228.969,284.059c-3.353-3.761-6.17-4.853-8.565-4.388-2.846.556-5.107,3.3-6.967,6.382-1.557,2.564-3.3,3.2-5.192,2.733h-.007c-2.606-.641-5.508-3.353-8.635-5.973a11.955,11.955,0,0,0-8.545-2.6c-3.55.338-6.353,2.424-5.74,6.178.774,4.762-1.888,7.509-6.347,6.952a16.314,16.314,0,0,1-6.459-2.557,8.026,8.026,0,0,0-5.417-1.218c-6.164.824-11.073,8.509-7.389,12.714,4.733,5.409,5.381,15.116-5.255,17.025a12.743,12.743,0,0,1-3.515.19c-7.65-.69-9.389-9.65-8.488-22.2,1.029-14.286,4.692-40.658,41.574-43.025q3.339-.212,6.375-.233h.106c29.5.437,36.009,14.236,37.981,19.5A20.33,20.33,0,0,1,1228.969,284.059Z" transform="translate(-77.317 -14.318)" fill="#fe976a"/>
          <path id="Trazado_117114" data-name="Trazado 117114" d="M1229.769,282.872c-.259,1.3-.511,2.1-.511,2.1-3.249-4.278-6.055-6.248-8.49-6.706-4.071-.755-7.121,2.709-9.541,6.706a5.835,5.835,0,0,1-3.235,2.872h-.007c-3.272.925-7.091-2.746-11.3-6.277a12.464,12.464,0,0,0-6.758-2.732c-4.678-.429-9.016,1.784-8.253,6.492.673,4.153-1.132,6.847-4.449,7.306-2.362.333-5.478-.473-9.008-2.687a8.7,8.7,0,0,0-3.472-1.28c-7.425-.992-14.286,8.446-9.986,13.36,4.974,5.685,5.655,15.885-5.522,17.891-.511.089-1,.155-1.473.2-8.039-.726-9.867-10.141-8.92-23.332,1.081-15.011,4.93-42.725,43.688-45.212q3.508-.223,6.7-.244h.111c31,.459,37.839,14.96,39.912,20.5C1230.753,275.833,1230.264,280.311,1229.769,282.872Z" transform="translate(-75.923 -13.271)" fill="#a56a42"/>
          <path id="Trazado_117115" data-name="Trazado 117115" d="M1475.25,451.515c-3.561,6.573-14.4,10.3-18.839,10.659s-10.778,2.479-10.837,5.152l-.133,6.025-15.6-1.525c.807-3.531,1.192-6,.992-6.987,0,0-.178-6.04-4.8-13.5s-.533-14.39,3.02-11.192,3.553,9.949,7.64,10.481,12.08-2.487,18.831-7.816,11.725-12.613,14.745-6.929c0,0,6.573-.888,4.619,6.573C1474.887,442.455,1478.81,444.942,1475.25,451.515Z" transform="translate(-186.064 -83.71)" fill="#ffaf82"/>
          <path id="Trazado_117116" data-name="Trazado 117116" d="M1469.741,453.582a1.11,1.11,0,0,1-.315-2.175c15.307-4.541,16.967-14.976,16.981-15.081a1.111,1.111,0,0,1,2.2.314c-.07.486-1.892,11.954-18.549,16.9A1.109,1.109,0,0,1,1469.741,453.582Z" transform="translate(-203.302 -84.311)" fill="#fe976a"/>
          <path id="Trazado_117117" data-name="Trazado 117117" d="M1479.577,460.557a1.11,1.11,0,0,1-.134-2.212c10.762-1.324,15.419-11.5,15.465-11.607a1.11,1.11,0,0,1,2.03.9c-.206.466-5.189,11.43-17.224,12.911A1.143,1.143,0,0,1,1479.577,460.557Z" transform="translate(-207.099 -88.444)" fill="#fe976a"/>
          <path id="Trazado_117118" data-name="Trazado 117118" d="M1106.925,599.6a1.111,1.111,0,0,1-1.11-1.11V551.058a1.111,1.111,0,0,1,2.221,0V598.49A1.111,1.111,0,0,1,1106.925,599.6Z" transform="translate(-63.26 -128.535)" fill="#6a2810"/>
          <path id="Trazado_117119" data-name="Trazado 117119" d="M1293.264,595.55a1.11,1.11,0,0,1-1.107-1.037l-3.547-53.874a1.111,1.111,0,1,1,2.216-.146l3.547,53.874a1.112,1.112,0,0,1-1.036,1.181Z" transform="translate(-133.816 -124.485)" fill="#6a2810"/>
        </g>
      </g>
    </g>
  </g>
</svg>
