<svg xmlns="http://www.w3.org/2000/svg" xmlns:xlink="http://www.w3.org/1999/xlink" width="309.155" height="335.521" viewBox="0 0 309.155 335.521">
  <defs>
    <clipPath id="clip-path">
      <rect x="11" y="18" width="309.155" height="335.521" fill="none"/>
    </clipPath>
  </defs>
  <g id="Grupo_84016" data-name="Grupo 84016" transform="translate(-1719.845 9162.851)">
    <g id="Grupo_de_desplazamiento_3" data-name="Grupo de desplazamiento 3" transform="translate(1708.845 -9180.851)" clip-path="url(#clip-path)" style="isolation: isolate">
      <g id="Grupo_84015" data-name="Grupo 84015" transform="translate(-1708.845 9180.851)">
        <path id="Trazado_117002" data-name="Trazado 117002" d="M504.721,295.828c3.144-26.455,17.693-50.123,24.474-75.887,5.077-19.289,5.717-39.422,8.214-59.211s7.166-39.993,19.026-56.03c15.807-21.372,44.169-32.67,70.342-28.02s48.907,25.029,56.382,50.539c9.641,32.9-4.988,67.8-4.179,102.073.449,19.025,5.665,37.568,8.813,56.336s4.09,38.739-3.575,56.158c-10.246,23.283-34.629,38.045-59.657,42.6-24.9,4.527-50.939.091-75.643-3.888-19.87-3.2-33.145-26.6-39.345-43.874A89.9,89.9,0,0,1,504.721,295.828Z" transform="translate(1570.959 -9562.848) rotate(40)" fill="#ffd947"/>
        <g id="Grupo_83483" data-name="Grupo 83483" transform="translate(-4.439 -10269.419)">
          <path id="Trazado_117051" data-name="Trazado 117051" d="M1915.317,1140.771c-30.974-13.589-39.788,11.019-39.053,63.172s3.306,98.591-26.812,72.985c0,0,3.673,19.2,26.077,20.671,0,0-13.956,10.651-26.077,2.2,0,0-4.775,31.219,29.382,47.746s87.413,6.979,95.126-30.484-20.6-154.579-20.6-154.579Z" transform="translate(-71.834 -1.915)" fill="#6a2810"/>
          <path id="Trazado_117052" data-name="Trazado 117052" d="M1952.207,1145.2c-9.09-12.947-22.037-5.785-25.893,7.988s10.636,28.1,10.636,28.1Z" transform="translate(-99.755 -2.398)" fill="#3cac96"/>
          <path id="Trazado_117053" data-name="Trazado 117053" d="M1938.117,1400.031l1.155,46.568,1.546,62.514.015.758.666-.023.068-.735h106.58c5.471-20.079.926-39.819-8.294-60.15a123.176,123.176,0,0,1-10.651-52.238s-2.724-1.224-9.664-2.2c-6.772-.941-17.545-1.652-33.714-.742a334.357,334.357,0,0,0-34.257,3.5A121.565,121.565,0,0,0,1938.117,1400.031Z" transform="translate(-104.305 -95.53)" fill="#955027"/>
          <path id="Trazado_117054" data-name="Trazado 117054" d="M1854.176,1511.373h55.98l.015.758.666-.023.068-.735,4.392-49.169,5.608-62.652a121.523,121.523,0,0,0-13.451,2.739s-18.364,0-25.342,16.528C1875.884,1433.563,1857.971,1497.7,1854.176,1511.373Z" transform="translate(-73.643 -97.79)" fill="#955027"/>
          <path id="Trazado_117055" data-name="Trazado 117055" d="M2066.4,1395.2l17.767,114.585h64.45c-10.131-18.433-37.486-68.407-47.578-88.882-12.488-25.342-24.975-23.506-24.975-23.506S2073.338,1396.172,2066.4,1395.2Z" transform="translate(-151.164 -96.2)" fill="#955027"/>
          <path id="Trazado_117056" data-name="Trazado 117056" d="M1939.937,1477.236l1.546,62.514.015.758.666-.023.068-.735h11.806c1.485-16.925-2.02-35.32-7.414-49.17A70.754,70.754,0,0,0,1939.937,1477.236Z" transform="translate(-104.97 -126.167)" fill="#703316"/>
          <path id="Trazado_117057" data-name="Trazado 117057" d="M1683.129,1576.214H1980.2c.469,0,.848-.514.848-1.148s-.38-1.147-.848-1.147H1683.129c-.469,0-.849.514-.849,1.147S1682.66,1576.214,1683.129,1576.214Z" transform="translate(41.721 -161.484)" fill="#6a2810"/>
          <path id="Trazado_117058" data-name="Trazado 117058" d="M1942.76,1388.218c0,12.018,20.169,28.648,45.049,28.648s45.048-16.63,45.048-28.648-20.168-14.875-45.048-14.875S1942.76,1376.2,1942.76,1388.218Z" transform="translate(-106.001 -88.216)" fill="#703316"/>
          <path id="Trazado_117059" data-name="Trazado 117059" d="M1942.76,1384.6c0,12.018,20.169,28.648,45.049,28.648s45.048-16.63,45.048-28.648-20.168-14.874-45.048-14.874S1942.76,1372.583,1942.76,1384.6Z" transform="translate(-106.001 -86.896)" fill="#955027"/>
          <path id="Trazado_117060" data-name="Trazado 117060" d="M1961.029,1394.093c0,8.926,33.453,21.275,33.453,21.275s33.453-12.349,33.453-21.275-14.977-11.046-33.453-11.046S1961.029,1385.168,1961.029,1394.093Z" transform="translate(-112.674 -91.761)" fill="#703316"/>
          <path id="Trazado_117061" data-name="Trazado 117061" d="M1979.165,1361.162c.337,12.809,21.945,23.552,21.945,23.552,20.262-11.194,19.765-25.687,19.765-25.687-2.211-1.515-3.505-7.721-4.262-14.477-1.064-9.51-1.064-20.078-1.064-20.078l-34.892-19.06c.413,5.624.727,10.682.949,15.227C1983.427,1358.468,1979.165,1361.162,1979.165,1361.162Z" transform="translate(-119.299 -63.402)" fill="#ffaf82"/>
          <path id="Trazado_117062" data-name="Trazado 117062" d="M1981.516,1305.412c.413,5.624.727,10.682.949,15.227,7.3,12.961,19.114,27.071,35.006,23.911-1.063-9.51-1.063-20.078-1.063-20.078Z" transform="translate(-120.158 -63.402)" fill="#fe976a"/>
          <path id="Trazado_117063" data-name="Trazado 117063" d="M1883.428,1554.106c15.667.344,27.622,18.443,11.653,40.072a2.968,2.968,0,0,1-5.329-1.542,16.979,16.979,0,0,1,.287-4.741s-4.04,4.592-6.611-.184c0,0-1.653,4.04-6.244.551,0,0-1.836,5.142-7.162,2.02s-10.468-20.568-5.142-29.2S1883.428,1554.106,1883.428,1554.106Z" transform="translate(-76.733 -154.2)" fill="#ffaf82"/>
          <path id="Trazado_117064" data-name="Trazado 117064" d="M1881.938,1598.229a1.148,1.148,0,0,0,.968-1.763c-4.546-7.169-4.961-17.141-4.965-17.24a1.137,1.137,0,0,0-1.188-1.106,1.148,1.148,0,0,0-1.105,1.188c.016.432.435,10.683,5.319,18.386A1.149,1.149,0,0,0,1881.938,1598.229Z" transform="translate(-81.485 -163.017)" fill="#fe976a"/>
          <path id="Trazado_117065" data-name="Trazado 117065" d="M1894.038,1596.094a1.129,1.129,0,0,0,.226-.023,1.148,1.148,0,0,0,.9-1.351,66.172,66.172,0,0,1-.78-19.633,1.148,1.148,0,0,0-2.273-.317,67.418,67.418,0,0,0,.8,20.4A1.148,1.148,0,0,0,1894.038,1596.094Z" transform="translate(-87.345 -161.433)" fill="#fe976a"/>
          <path id="Trazado_117066" data-name="Trazado 117066" d="M1905.148,1596.595a1.147,1.147,0,0,0,1.028-.635c3.244-6.487,1.473-19.757,1.4-20.319a1.148,1.148,0,1,0-2.274.312c.017.131,1.751,13.128-1.175,18.981a1.148,1.148,0,0,0,1.026,1.661Z" transform="translate(-91.843 -161.75)" fill="#fe976a"/>
          <path id="Trazado_117067" data-name="Trazado 117067" d="M2138.958,1554.106c-15.666.344-27.621,18.443-11.653,40.073a2.968,2.968,0,0,0,5.329-1.542,16.983,16.983,0,0,0-.287-4.74s4.04,4.591,6.611-.184c0,0,1.653,4.04,6.244.551,0,0,1.836,5.142,7.162,2.02s10.467-20.568,5.142-29.2S2138.958,1554.106,2138.958,1554.106Z" transform="translate(-170.652 -154.2)" fill="#ffaf82"/>
          <path id="Trazado_117068" data-name="Trazado 117068" d="M2159.189,1598.231a1.148,1.148,0,0,0,.971-.534c4.885-7.7,5.3-17.954,5.319-18.386a1.148,1.148,0,0,0-2.294-.083c0,.1-.418,10.071-4.964,17.24a1.148,1.148,0,0,0,.968,1.762Z" transform="translate(-184.64 -163.019)" fill="#fe976a"/>
          <path id="Trazado_117069" data-name="Trazado 117069" d="M2149.354,1596.094a1.148,1.148,0,0,0,1.124-.923,67.4,67.4,0,0,0,.8-20.4,1.147,1.147,0,1,0-2.273.316,66.389,66.389,0,0,1-.78,19.633,1.148,1.148,0,0,0,.9,1.351A1.2,1.2,0,0,0,2149.354,1596.094Z" transform="translate(-181.047 -161.433)" fill="#fe976a"/>
          <path id="Trazado_117070" data-name="Trazado 117070" d="M2137.887,1596.6a1.148,1.148,0,0,0,1.026-1.661c-2.927-5.853-1.192-18.85-1.175-18.981a1.148,1.148,0,1,0-2.274-.312c-.076.562-1.847,13.832,1.4,20.318A1.148,1.148,0,0,0,2137.887,1596.6Z" transform="translate(-176.191 -161.75)" fill="#fe976a"/>
          <circle id="Elipse_4806" data-name="Elipse 4806" cx="2.914" cy="2.914" r="2.914" transform="translate(1855.905 1314.107)" fill="#703316"/>
          <circle id="Elipse_4807" data-name="Elipse 4807" cx="2.914" cy="2.914" r="2.914" transform="translate(1900.712 1315.146)" fill="#703316"/>
          <path id="Trazado_117071" data-name="Trazado 117071" d="M2046.863,1479.467a1.913,1.913,0,0,0,1.913-1.913v-51.787a1.913,1.913,0,0,0-3.827,0v51.787A1.913,1.913,0,0,0,2046.863,1479.467Z" transform="translate(-143.329 -106.667)" fill="#3cac96"/>
          <path id="Trazado_117072" data-name="Trazado 117072" d="M2043.625,1507.094c0,2.281,1.274,4.132,2.847,4.132s2.846-1.85,2.846-4.132-1.274-4.132-2.846-4.132S2043.625,1504.812,2043.625,1507.094Z" transform="translate(-142.845 -135.564)" fill="#fff"/>
          <path id="Trazado_117073" data-name="Trazado 117073" d="M1976.376,1477.828a1.914,1.914,0,0,0,1.914-1.913v-51.787a1.913,1.913,0,0,0-3.827,0v51.787A1.914,1.914,0,0,0,1976.376,1477.828Z" transform="translate(-117.581 -106.068)" fill="#3cac96"/>
          <path id="Trazado_117074" data-name="Trazado 117074" d="M1973.138,1505.454c0,2.282,1.274,4.132,2.846,4.132s2.847-1.85,2.847-4.132-1.274-4.132-2.847-4.132S1973.138,1503.172,1973.138,1505.454Z" transform="translate(-117.098 -134.965)" fill="#fff"/>
          <path id="Trazado_117075" data-name="Trazado 117075" d="M2039.447,1203.814c12.58-14.272,8.356-33,0-45.491s-24.149-11.385-24.149-11.385-16.895-23.139-52.888-12.121c-34.761,10.641-39.656,66.867-18.713,92.188S2039.447,1203.814,2039.447,1203.814Z" transform="translate(-101.786)" fill="#6a2810"/>
          <path id="Trazado_117076" data-name="Trazado 117076" d="M1965.525,1237.547c2.235,27.724,18.414,47.748,52,47.748,32.106,0,38.757-35,34.294-66.1-1.961-13.726-6.091-26.694-11.152-35.551,0,0-61.154-23.961-71.894,19.837A108.083,108.083,0,0,0,1965.525,1237.547Z" transform="translate(-114.218 -16.535)" fill="#ffaf82"/>
          <path id="Trazado_117077" data-name="Trazado 117077" d="M1964.034,1288.931c-4.73,14.6-30.661,10.341-32.226-6.048-1.519-15.9,16.577-22.684,28.464-12.222S1964.034,1288.931,1964.034,1288.931Z" transform="translate(-101.967 -48.876)" fill="#ffaf82"/>
          <path id="Trazado_117078" data-name="Trazado 117078" d="M1950.216,1292.3a1.143,1.143,0,0,0,.924-.466c.228-.309,5.53-7.624,2.37-13.7a1.148,1.148,0,0,0-2.037,1.06c2.5,4.8-2.135,11.214-2.182,11.278a1.148,1.148,0,0,0,.925,1.827Z" transform="translate(-108.305 -53.213)" fill="#fe976a"/>
          <path id="Trazado_117079" data-name="Trazado 117079" d="M1959.271,1290.3a26.849,26.849,0,0,0,5.9-.688,1.148,1.148,0,0,0-.555-2.227c-.056.013-5.613,1.367-9.546.027a1.148,1.148,0,0,0-.741,2.173A15.554,15.554,0,0,0,1959.271,1290.3Z" transform="translate(-109.942 -56.806)" fill="#fe976a"/>
          <path id="Trazado_117080" data-name="Trazado 117080" d="M2049.661,1312.609a14.7,14.7,0,0,0,12.14-6.256,1.148,1.148,0,0,0-1.826-1.391c-7.948,10.433-20.077,2.6-20.589,2.257a1.148,1.148,0,0,0-1.27,1.913A23.6,23.6,0,0,0,2049.661,1312.609Z" transform="translate(-140.645 -63.073)" fill="#6a2810"/>
          <path id="Trazado_117081" data-name="Trazado 117081" d="M2009.656,1288.229a6.576,6.576,0,0,0,4.717-2.014,8.866,8.866,0,0,0,1.189-10.491,8.348,8.348,0,0,0-8.05-4.766,7.955,7.955,0,0,0-6.923,5.278,1.148,1.148,0,0,0,2.167.76,5.658,5.658,0,0,1,4.928-3.749,6.056,6.056,0,0,1,5.851,3.552,6.587,6.587,0,0,1-.791,7.8,4.347,4.347,0,0,1-5.372.744,3.11,3.11,0,0,1-1.884-2.71,3.823,3.823,0,0,1,1.552-3.213.966.966,0,0,1,1.063-.126,1.148,1.148,0,0,0,1.079-2.026,3.291,3.291,0,0,0-3.364.208,6.117,6.117,0,0,0-2.623,5.252,5.4,5.4,0,0,0,3.12,4.652A7.261,7.261,0,0,0,2009.656,1288.229Z" transform="translate(-127.101 -50.808)" fill="#fe976a"/>
          <path id="Trazado_117082" data-name="Trazado 117082" d="M2087.146,1277a6.583,6.583,0,0,0,4.717-2.014,8.87,8.87,0,0,0,1.189-10.493,8.355,8.355,0,0,0-8.05-4.765,7.957,7.957,0,0,0-6.924,5.278,1.148,1.148,0,0,0,2.167.76,5.658,5.658,0,0,1,4.93-3.749,6.063,6.063,0,0,1,5.849,3.552,6.588,6.588,0,0,1-.791,7.8,4.347,4.347,0,0,1-5.373.744,3.113,3.113,0,0,1-1.884-2.71,3.823,3.823,0,0,1,1.551-3.214.966.966,0,0,1,1.064-.125,1.148,1.148,0,1,0,1.079-2.026,3.288,3.288,0,0,0-3.365.207,6.119,6.119,0,0,0-2.623,5.251,5.4,5.4,0,0,0,3.121,4.653A7.247,7.247,0,0,0,2087.146,1277Z" transform="translate(-155.406 -46.705)" fill="#fe976a"/>
          <path id="Trazado_117083" data-name="Trazado 117083" d="M2057.847,1278.362a1.147,1.147,0,0,0,.65-.2l10.017-6.9a1.149,1.149,0,0,0,.294-1.6l-10.017-14.508a1.148,1.148,0,1,0-1.888,1.3l9.363,13.562-9.07,6.245a1.149,1.149,0,0,0,.652,2.094Z" transform="translate(-147.621 -44.864)" fill="#6a2810"/>
          <path id="Trazado_117084" data-name="Trazado 117084" d="M2018.833,1249.976c0,3.087-1.241,4.824-2.773,4.824s-2.773-1.737-2.773-4.824,1.241-4.741,2.773-4.741S2018.833,1246.89,2018.833,1249.976Z" transform="translate(-131.763 -41.421)" fill="#6a2810"/>
          <path id="Trazado_117085" data-name="Trazado 117085" d="M1965.525,1237.547c25.836.958,36.5-41.756,36.5-41.756s32.572,31.934,49.789,23.408c-1.961-13.726-6.091-26.694-11.152-35.551,0,0-61.154-23.961-71.894,19.837A108.083,108.083,0,0,0,1965.525,1237.547Z" transform="translate(-114.218 -16.535)" fill="#fe976a"/>
          <path id="Trazado_117086" data-name="Trazado 117086" d="M2049.871,1211.391c-17.056,9.566-50.373-23.1-50.373-23.1s-10.928,43.746-37.441,41.706c0,0-11.665-9.753-1.184-41.706s71.9-24.791,80.856-10.467S2049.871,1211.391,2049.871,1211.391Z" transform="translate(-111.021 -12.36)" fill="#6a2810"/>
          <path id="Trazado_117087" data-name="Trazado 117087" d="M2106.038,1541.6a1.148,1.148,0,0,0,1.107-.846c4.936-18.113,2.281-37.472-8.356-60.926a1.148,1.148,0,0,0-2.091.948c10.4,22.939,13.02,41.806,8.232,59.374a1.148,1.148,0,0,0,1.108,1.45Z" transform="translate(-162.194 -126.867)" fill="#6a2810"/>
          <path id="Trazado_117088" data-name="Trazado 117088" d="M2077.911,1242.441c0,3.087-1.241,4.824-2.773,4.824s-2.773-1.737-2.773-4.824,1.241-4.742,2.773-4.742S2077.911,1239.354,2077.911,1242.441Z" transform="translate(-153.343 -38.668)" fill="#6a2810"/>
        </g>
      </g>
    </g>
  </g>
</svg>
