<svg xmlns="http://www.w3.org/2000/svg" width="505" height="147" viewBox="0 0 505 147">
  <g id="Grupo_84011" data-name="Grupo 84011" transform="translate(6006 5580)">
    <rect id="Rectángulo_34393" data-name="Rectángulo 34393" width="85" height="33" rx="10" transform="translate(-6006 -5536)" fill="#6b8dff"/>
    <g id="Rectángulo_34394" data-name="Rectángulo 34394" transform="translate(-6006 -5494)" fill="#fff" stroke="#ff5f65" stroke-width="1">
      <rect width="85" height="27" rx="10" stroke="none"/>
      <rect x="0.5" y="0.5" width="84" height="26" rx="9.5" fill="none"/>
    </g>
    <g id="Rectángulo_34395" data-name="Rectángulo 34395" transform="translate(-6006 -5462)" fill="#fff" stroke="#ff5f65" stroke-width="1">
      <rect width="85" height="27" rx="10" stroke="none"/>
      <rect x="0.5" y="0.5" width="84" height="26" rx="9.5" fill="none"/>
    </g>
    <rect id="Rectángulo_34387" data-name="Rectángulo 34387" width="85" height="33" rx="10" transform="translate(-5796 -5536)" fill="#6b8dff"/>
    <rect id="Rectángulo_34390" data-name="Rectángulo 34390" width="85" height="33" rx="10" transform="translate(-5901 -5536)" fill="#6b8dff"/>
    <g id="Rectángulo_34388" data-name="Rectángulo 34388" transform="translate(-5796 -5494)" fill="#fff" stroke="#ff5f65" stroke-width="1">
      <rect width="85" height="27" rx="10" stroke="none"/>
      <rect x="0.5" y="0.5" width="84" height="26" rx="9.5" fill="none"/>
    </g>
    <g id="Rectángulo_34391" data-name="Rectángulo 34391" transform="translate(-5901 -5494)" fill="#fff" stroke="#ff5f65" stroke-width="1">
      <rect width="85" height="27" rx="10" stroke="none"/>
      <rect x="0.5" y="0.5" width="84" height="26" rx="9.5" fill="none"/>
    </g>
    <g id="Rectángulo_34389" data-name="Rectángulo 34389" transform="translate(-5796 -5462)" fill="#fff" stroke="#ff5f65" stroke-width="1">
      <rect width="85" height="27" rx="10" stroke="none"/>
      <rect x="0.5" y="0.5" width="84" height="26" rx="9.5" fill="none"/>
    </g>
    <g id="Rectángulo_34392" data-name="Rectángulo 34392" transform="translate(-5901 -5462)" fill="#fff" stroke="#ff5f65" stroke-width="1">
      <rect width="85" height="27" rx="10" stroke="none"/>
      <rect x="0.5" y="0.5" width="84" height="26" rx="9.5" fill="none"/>
    </g>
    <rect id="Rectángulo_34384" data-name="Rectángulo 34384" width="190" height="33" rx="10" transform="translate(-5691 -5536)" fill="#6b8dff"/>
    <g id="Rectángulo_34385" data-name="Rectángulo 34385" transform="translate(-5691 -5494)" fill="#fff" stroke="#ff5f65" stroke-width="1">
      <rect width="190" height="27" rx="10" stroke="none"/>
      <rect x="0.5" y="0.5" width="189" height="26" rx="9.5" fill="none"/>
    </g>
    <g id="Rectángulo_34386" data-name="Rectángulo 34386" transform="translate(-5691 -5462)" fill="#fff" stroke="#ff5f65" stroke-width="1">
      <rect width="190" height="27" rx="10" stroke="none"/>
      <rect x="0.5" y="0.5" width="189" height="26" rx="9.5" fill="none"/>
    </g>
    <text id="Estructura" transform="translate(-6006 -5561)" fill="#12263f" font-size="18" font-family="Roboto-Black, Roboto" font-weight="800"><tspan x="0" y="0">Estructura</tspan></text>
    <text id="Sujeto" transform="translate(-5963 -5514)" fill="#fff" font-size="16" font-family="Roboto-Regular, Roboto"><tspan x="-22.402" y="0">Sujeto</tspan></text>
    <text id="I" transform="translate(-5963 -5475)" fill="#ff5f65" font-size="16" font-family="Roboto-BoldItalic, Roboto" font-weight="700" font-style="italic"><tspan x="-2.301" y="0">I</tspan></text>
    <text id="He" transform="translate(-5963 -5443)" fill="#ff5f65" font-size="16" font-family="Roboto-BoldItalic, Roboto" font-weight="700" font-style="italic"><tspan x="-9.758" y="0">He</tspan></text>
    <text id="live" transform="translate(-5753 -5475)" fill="#ff5f65" font-size="16" font-family="Roboto-BoldItalic, Roboto" font-weight="700" font-style="italic"><tspan x="-12.391" y="0">live</tspan></text>
    <text id="do_not" data-name="do not" transform="translate(-5858 -5475)" fill="#ff5f65" font-size="16" font-family="Roboto-BoldItalic, Roboto" font-weight="700" font-style="italic"><tspan x="-22.281" y="0">do not</tspan></text>
    <text id="live-2" data-name="live" transform="translate(-5752 -5443)" fill="#ff5f65" font-size="16" font-family="Roboto-BoldItalic, Roboto" font-weight="700" font-style="italic"><tspan x="-12.391" y="0">live</tspan></text>
    <text id="does_not" data-name="does not" transform="translate(-5858 -5443)" fill="#ff5f65" font-size="16" font-family="Roboto-BoldItalic, Roboto" font-weight="700" font-style="italic"><tspan x="-30.543" y="0">does not</tspan></text>
    <text id="in_Colombia" data-name="in Colombia" transform="translate(-5596 -5475)" fill="#ff5f65" font-size="16" font-family="Roboto-BoldItalic, Roboto" font-weight="700" font-style="italic"><tspan x="-41.984" y="0">in Colombia</tspan></text>
    <text id="in_Colombia-2" data-name="in Colombia" transform="translate(-5596 -5443)" fill="#ff5f65" font-size="16" font-family="Roboto-BoldItalic, Roboto" font-weight="700" font-style="italic"><tspan x="-41.984" y="0">in Colombia</tspan></text>
    <text id="verbo" transform="translate(-5753 -5514)" fill="#fff" font-size="16" font-family="Roboto-Regular, Roboto"><tspan x="-19.871" y="0">verbo</tspan></text>
    <text id="auxiliar" transform="translate(-5858 -5514)" fill="#fff" font-size="16" font-family="Roboto-Regular, Roboto"><tspan x="-25.609" y="0">auxiliar</tspan></text>
    <text id="complemento" transform="translate(-5596 -5514)" fill="#fff" font-size="16" font-family="Roboto-Regular, Roboto"><tspan x="-49.191" y="0">complemento</tspan></text>
    <text id="_" data-name="+" transform="translate(-5918 -5512)" fill="#ff5f65" font-size="24" font-family="Roboto-Black, Roboto" font-weight="800"><tspan x="0" y="0">+</tspan></text>
    <text id="_2" data-name="+" transform="translate(-5918 -5471)" fill="#3c3fa7" font-size="24" font-family="Roboto-Black, Roboto" font-weight="800"><tspan x="0" y="0">+</tspan></text>
    <text id="_3" data-name="+" transform="translate(-5918 -5440)" fill="#3c3fa7" font-size="24" font-family="Roboto-Black, Roboto" font-weight="800"><tspan x="0" y="0">+</tspan></text>
    <text id="_4" data-name="+" transform="translate(-5707 -5512)" fill="#ff5f65" font-size="24" font-family="Roboto-Black, Roboto" font-weight="800"><tspan x="0" y="0">+</tspan></text>
    <text id="_5" data-name="+" transform="translate(-5812 -5512)" fill="#ff5f65" font-size="24" font-family="Roboto-Black, Roboto" font-weight="800"><tspan x="0" y="0">+</tspan></text>
    <text id="_6" data-name="+" transform="translate(-5707 -5471)" fill="#3c3fa7" font-size="24" font-family="Roboto-Black, Roboto" font-weight="800"><tspan x="0" y="0">+</tspan></text>
    <text id="_7" data-name="+" transform="translate(-5812 -5471)" fill="#3c3fa7" font-size="24" font-family="Roboto-Black, Roboto" font-weight="800"><tspan x="0" y="0">+</tspan></text>
    <text id="_8" data-name="+" transform="translate(-5707 -5440)" fill="#3c3fa7" font-size="24" font-family="Roboto-Black, Roboto" font-weight="800"><tspan x="0" y="0">+</tspan></text>
    <text id="_9" data-name="+" transform="translate(-5812 -5440)" fill="#3c3fa7" font-size="24" font-family="Roboto-Black, Roboto" font-weight="800"><tspan x="0" y="0">+</tspan></text>
  </g>
</svg>
