<?xml version="1.0" encoding="UTF-8"?><svg xmlns="http://www.w3.org/2000/svg" xmlns:xlink="http://www.w3.org/1999/xlink" viewBox="0 0 252.23 317.97"><defs><style>.cls-1{fill:#a32126;}.cls-2{fill:url(#_åçûìÿííûé_ãðàäèåíò_14-4);}.cls-3{fill:url(#_åçûìÿííûé_ãðàäèåíò_11);}.cls-3,.cls-4,.cls-5,.cls-6,.cls-7,.cls-8{mix-blend-mode:screen;}.cls-9{fill:url(#_åçûìÿííûé_ãðàäèåíò_16);}.cls-9,.cls-10,.cls-11{mix-blend-mode:multiply;}.cls-12{mask:url(#mask-2);}.cls-13{fill:url(#_åçûìÿííûé_ãðàäèåíò_14-7);}.cls-14{isolation:isolate;}.cls-15{fill:url(#_åçûìÿííûé_ãðàäèåíò_14-5);}.cls-16{mask:url(#mask-3);}.cls-17{fill:url(#_åçûìÿííûé_ãðàäèåíò_14-12);}.cls-18{fill:#e7855f;}.cls-4{fill:url(#_åçûìÿííûé_ãðàäèåíò_2-2);}.cls-19{fill:#1e4f75;}.cls-20{fill:url(#_åçûìÿííûé_ãðàäèåíò_14-3);}.cls-21{fill:#6e142a;}.cls-22{fill:#d6482b;}.cls-23{fill:url(#_åçûìÿííûé_ãðàäèåíò_14-2);}.cls-24{fill:url(#_åçûìÿííûé_ãðàäèåíò_14);}.cls-25{mask:url(#mask-5);}.cls-26{fill:#3c6b8f;}.cls-27{fill:url(#_åçûìÿííûé_ãðàäèåíò_14-9);}.cls-10{fill:url(#_åçûìÿííûé_ãðàäèåíò_16-3);}.cls-5{fill:url(#_åçûìÿííûé_ãðàäèåíò_2-3);}.cls-28{fill:#bc7c2a;}.cls-29{filter:url(#luminosity-noclip-4);}.cls-30{filter:url(#luminosity-noclip-6);}.cls-31{mask:url(#mask-4);}.cls-32{fill:#c4a791;}.cls-33{fill:url(#_åçûìÿííûé_ãðàäèåíò_14-11);}.cls-6{fill:url(#_åçûìÿííûé_ãðàäèåíò_11-3);}.cls-34{clip-path:url(#clippath);}.cls-35{fill:#131f49;}.cls-7{fill:url(#_åçûìÿííûé_ãðàäèåíò_11-2);}.cls-36{fill:none;}.cls-37{fill:#ffd699;}.cls-38{fill:#ccc;}.cls-8{fill:url(#_åçûìÿííûé_ãðàäèåíò_2);}.cls-39{fill:#feaa0f;}.cls-40{fill:url(#_åçûìÿííûé_ãðàäèåíò_14-6);}.cls-41{filter:url(#luminosity-noclip-2);}.cls-42{mask:url(#mask-1);}.cls-43{mask:url(#mask);}.cls-11{fill:url(#_åçûìÿííûé_ãðàäèåíò_16-2);}.cls-44{fill:url(#_åçûìÿííûé_ãðàäèåíò_14-10);}.cls-45{fill:url(#_åçûìÿííûé_ãðàäèåíò_3);}.cls-46{fill:url(#_åçûìÿííûé_ãðàäèåíò_14-8);}.cls-47{fill:#9cb6ff;}</style><clipPath id="clippath"><path class="cls-36" d="M252.23,126.12c0,69.65-56.46,126.12-126.12,126.12S0,195.77,0,126.12,56.46,0,126.12,0s126.12,56.46,126.12,126.12Z"/></clipPath><linearGradient id="_åçûìÿííûé_ãðàäèåíò_14" x1="130.78" y1="248.49" x2="175.38" y2="324.07" gradientTransform="matrix(1, 0, 0, 1, 0, 0)" gradientUnits="userSpaceOnUse"><stop offset="0" stop-color="#22567d"/><stop offset=".25" stop-color="#1f4e75"/><stop offset=".63" stop-color="#1a3962"/><stop offset="1" stop-color="#131f49"/></linearGradient><linearGradient id="_åçûìÿííûé_ãðàäèåíò_14-2" x1="74.94" y1="244.64" x2="160.39" y2="329.75" xlink:href="#_åçûìÿííûé_ãðàäèåíò_14"/><linearGradient id="_åçûìÿííûé_ãðàäèåíò_14-3" x1="87.43" y1="177.81" x2="150.75" y2="265.98" xlink:href="#_åçûìÿííûé_ãðàäèåíò_14"/><linearGradient id="_åçûìÿííûé_ãðàäèåíò_14-4" x1="73.04" y1="101.62" x2="108.95" y2="156.43" xlink:href="#_åçûìÿííûé_ãðàäèåíò_14"/><linearGradient id="_åçûìÿííûé_ãðàäèåíò_3" x1="136.28" y1="160.55" x2="144.96" y2="181.42" gradientTransform="matrix(1, 0, 0, 1, 0, 0)" gradientUnits="userSpaceOnUse"><stop offset="0" stop-color="#22567d"/><stop offset=".21" stop-color="#1c4068"/><stop offset=".46" stop-color="#172d56"/><stop offset=".72" stop-color="#13224c"/><stop offset="1" stop-color="#131f49"/></linearGradient><linearGradient id="_åçûìÿííûé_ãðàäèåíò_14-5" x1="107.83" y1="102.52" x2="121.49" y2="72.52" xlink:href="#_åçûìÿííûé_ãðàäèåíò_14"/><linearGradient id="_åçûìÿííûé_ãðàäèåíò_14-6" x1="120.52" y1="90.54" x2="146.76" y2="90.54" xlink:href="#_åçûìÿííûé_ãðàäèåíò_14"/><linearGradient id="_åçûìÿííûé_ãðàäèåíò_14-7" x1="75.25" y1="98.55" x2="163.84" y2="167.74" xlink:href="#_åçûìÿííûé_ãðàäèåíò_14"/><linearGradient id="_åçûìÿííûé_ãðàäèåíò_14-8" x1="120.17" y1="15.61" x2="122.92" y2="50.09" xlink:href="#_åçûìÿííûé_ãðàäèåíò_14"/><linearGradient id="_åçûìÿííûé_ãðàäèåíò_11" x1="97.81" y1="58.76" x2="112.37" y2="46.21" gradientTransform="matrix(1, 0, 0, 1, 0, 0)" gradientUnits="userSpaceOnUse"><stop offset="0" stop-color="#8a8677"/><stop offset=".17" stop-color="#706d60"/><stop offset=".74" stop-color="#1f1e1b"/><stop offset="1" stop-color="#000"/></linearGradient><linearGradient id="_åçûìÿííûé_ãðàäèåíò_11-2" x1="108.65" y1="58.11" x2="115.72" y2="48.63" xlink:href="#_åçûìÿííûé_ãðàäèåíò_11"/><filter id="luminosity-noclip-2" x="106.73" y="23.85" width="10.35" height="12.7" color-interpolation-filters="sRGB" filterUnits="userSpaceOnUse"><feFlood flood-color="#fff" result="bg"/><feBlend in="SourceGraphic" in2="bg"/></filter><filter id="luminosity-noclip-3" x="106.73" y="-8415.33" width="10.35" height="32766" color-interpolation-filters="sRGB" filterUnits="userSpaceOnUse"><feFlood flood-color="#fff" result="bg"/><feBlend in="SourceGraphic" in2="bg"/></filter><mask id="mask-1" x="106.73" y="-8415.33" width="10.35" height="32766" maskUnits="userSpaceOnUse"/><linearGradient id="_åçûìÿííûé_ãðàäèåíò_16" x1="108.75" y1="23.04" x2="113.54" y2="34.98" gradientTransform="matrix(1, 0, 0, 1, 0, 0)" gradientUnits="userSpaceOnUse"><stop offset="0" stop-color="#fff"/><stop offset="1" stop-color="#1a1a1a"/></linearGradient><mask id="mask" x="106.73" y="23.85" width="10.35" height="12.7" maskUnits="userSpaceOnUse"><g class="cls-41"><g class="cls-42"><path class="cls-9" d="M111.66,23.85l-2.44,.13,.55,2.22-3.04,1.91,8.16,8.45c.91-.75,1.63-1.7,2.19-2.83l-5.42-9.87Z"/></g></g></mask><linearGradient id="_åçûìÿííûé_ãðàäèåíò_2" x1="108.75" y1="23.04" x2="113.54" y2="34.98" gradientTransform="matrix(1, 0, 0, 1, 0, 0)" gradientUnits="userSpaceOnUse"><stop offset="0" stop-color="#fff7cc"/><stop offset="1" stop-color="#fff7cc"/></linearGradient><filter id="luminosity-noclip-4" x="94.74" y="103.55" width="6.76" height="13.46" color-interpolation-filters="sRGB" filterUnits="userSpaceOnUse"><feFlood flood-color="#fff" result="bg"/><feBlend in="SourceGraphic" in2="bg"/></filter><filter id="luminosity-noclip-5" x="94.74" y="-8415.33" width="6.76" height="32766" color-interpolation-filters="sRGB" filterUnits="userSpaceOnUse"><feFlood flood-color="#fff" result="bg"/><feBlend in="SourceGraphic" in2="bg"/></filter><mask id="mask-3" x="94.74" y="-8415.33" width="6.76" height="32766" maskUnits="userSpaceOnUse"/><linearGradient id="_åçûìÿííûé_ãðàäèåíò_16-2" x1="51.97" y1="31.75" x2="56.67" y2="43.45" gradientTransform="translate(56.12 57.68) rotate(16.07)" xlink:href="#_åçûìÿííûé_ãðàäèåíò_16"/><mask id="mask-2" x="94.74" y="103.55" width="6.76" height="13.46" maskUnits="userSpaceOnUse"><g class="cls-29"><g class="cls-16"><path class="cls-11" d="M99.77,104.01l-1.97-.47-.14,2.26-2.92,1.1,4.27,10.09c.92-.5,1.74-1.24,2.49-2.19l-1.72-10.8Z"/></g></g></mask><linearGradient id="_åçûìÿííûé_ãðàäèåíò_2-2" x1="51.97" y1="31.75" x2="56.67" y2="43.45" gradientTransform="translate(56.12 57.68) rotate(16.07)" xlink:href="#_åçûìÿííûé_ãðàäèåíò_2"/><linearGradient id="_åçûìÿííûé_ãðàäèåíò_14-9" x1="122.87" y1="194.15" x2="145.75" y2="194.15" xlink:href="#_åçûìÿííûé_ãðàäèåíò_14"/><linearGradient id="_åçûìÿííûé_ãðàäèåíò_11-3" x1="115.77" y1="177.61" x2="152.92" y2="213.22" xlink:href="#_åçûìÿííûé_ãðàäèåíò_11"/><linearGradient id="_åçûìÿííûé_ãðàäèåíò_14-10" x1="126.25" y1="184.79" x2="134.31" y2="184.79" xlink:href="#_åçûìÿííûé_ãðàäèåíò_14"/><filter id="luminosity-noclip-6" x="96.78" y="171.89" width="7.79" height="13.35" color-interpolation-filters="sRGB" filterUnits="userSpaceOnUse"><feFlood flood-color="#fff" result="bg"/><feBlend in="SourceGraphic" in2="bg"/></filter><filter id="luminosity-noclip-7" x="96.78" y="-8415.33" width="7.79" height="32766" color-interpolation-filters="sRGB" filterUnits="userSpaceOnUse"><feFlood flood-color="#fff" result="bg"/><feBlend in="SourceGraphic" in2="bg"/></filter><mask id="mask-5" x="96.78" y="-8415.33" width="7.79" height="32766" maskUnits="userSpaceOnUse"/><linearGradient id="_åçûìÿííûé_ãðàäèåíò_16-3" x1="98.29" y1="164.46" x2="103.99" y2="186.67" xlink:href="#_åçûìÿííûé_ãðàäèåíò_16"/><mask id="mask-4" x="96.78" y="171.89" width="7.79" height="13.35" maskUnits="userSpaceOnUse"><g class="cls-30"><g class="cls-25"><polygon class="cls-10" points="96.78 171.89 100.67 184.93 104.57 185.25 103.87 172.86 96.78 171.89"/></g></g></mask><linearGradient id="_åçûìÿííûé_ãðàäèåíò_2-3" x1="98.29" y1="164.46" x2="103.99" y2="186.67" xlink:href="#_åçûìÿííûé_ãðàäèåíò_2"/><linearGradient id="_åçûìÿííûé_ãðàäèåíò_14-11" x1="144.9" y1="89.06" x2="161.9" y2="89.06" xlink:href="#_åçûìÿííûé_ãðàäèåíò_14"/><linearGradient id="_åçûìÿííûé_ãðàäèåíò_14-12" x1="135.21" y1="132.55" x2="205.51" y2="123.02" xlink:href="#_åçûìÿííûé_ãðàäèåíò_14"/></defs><g class="cls-14"><g id="Capa_2"><g id="layer_1"><g class="cls-34"><circle class="cls-47" cx="126.12" cy="126.12" r="126.12"/><g><g><path class="cls-26" d="M155.42,306.05c.84,0,1.63,.06,2.38,.16,7.13,1.01,10.39,6.43,15.36,6.39l-1.02,4.73h-3.7l-.77-1.53-1.27,2.17h-29.75v-4.22l8.56-1.27,2.8-3.2s3.42-3.52,7.41-3.23Z"/><path class="cls-26" d="M123.89,312.14l-1.03,5.74h-10.72l-1.15-3.57-2.17,3.57h-29.36l-1.53-5.62c5.33-.7,10.37-1.77,15.06-3.32l8.94-7.02c7.15,.88,13.14,5.42,18.08,8.31,1.37,.8,2.67,1.48,3.88,1.91Z"/><path class="cls-35" d="M87.25,180.52l51.95-2.3s8.93,15.06,10.87,22.98c1.94,7.91,1.05,20.68,1.05,20.68,1.56,13.71,4.75,25.17,7.74,33.57,9.15,16.39,14.38,28.43,14.05,44.26l3.57,8.04-1.02,4.6-2.3,.25c-4.97,.04-8.23-5.38-15.36-6.39v-.08l12.55,2.05,1.15-6.26-6.51-6.89,5.75,2.42c-4.1-14.98-8.49-29.29-16.02-39.4-2.48,1.24-5.14,1.47-7.98,.72l-3.96-3.83c3.87,.74,7.46,.97,10.4,0-4.16-24.32-10.3-48.22-18.61-62.93-16.12-2.87-31.91-6.68-47.32-11.49Z"/><path class="cls-35" d="M125.04,300.35l-3.32-7.66,2.17,1.11c-.2-14.25-2.84-27.75-6.33-37.11-4.38,1.8-6.5,2.4-9.8,0l-4.17-4.94c4.88,.91,7.59,.92,11.76-.93-1.34-12.69-.28-24.58,.15-34.22l-6.55-6.89c9.32,4.02,17.4,9.76,23.1,18.81-4.13-4.35-8.52-8.16-13.14-11.49-.77,7.72,.1,16.49,1.78,25.79,0,0,5.96,15.65,7.15,26.46,1.19,10.81-2.42,25.62-2.42,25.62l4.47,9.19-2.68,7.79-3.32,.26c-1.21-.43-2.51-1.11-3.88-1.91,3.88-1.67,5.61-7.87,5.03-9.88Z"/><path class="cls-24" d="M157.81,306.13v.08c-.76-.1-1.55-.16-2.39-.16-3.99-.29-7.41,3.23-7.41,3.23l-.12-4.46,3.44-2.68c.1-16.41-1.18-28.2-4.59-43.37,2.84,.75,5.5,.52,7.98-.72,7.53,10.11,11.92,24.42,16.02,39.4l-5.75-2.42,6.51,6.89-1.15,6.26-12.54-2.05Z"/><path class="cls-23" d="M125.04,300.35c.58,2.01-1.15,8.21-5.03,9.88-4.94-2.89-10.93-7.43-18.08-8.31v-4.47l3.57-2.17c2.2-12.67,3.01-25.53,2.26-38.59,3.3,2.4,5.42,1.8,9.8,0,3.49,9.36,6.13,22.86,6.33,37.11l-2.17-1.11,3.32,7.66Z"/><path class="cls-20" d="M153.18,254.94c-2.94,.97-6.53,.74-10.4,0-4.46-8.31-8.11-17.08-10.73-26.42-5.7-9.05-13.78-14.79-23.1-18.81l6.55,6.89c-.43,9.64-1.49,21.53-.15,34.22-4.17,1.85-6.88,1.84-11.76,.93-6.66-19.2-11.81-44.05-16.34-71.23,15.41,4.81,31.2,8.62,47.32,11.49,8.31,14.71,14.45,38.61,18.61,62.93Z"/></g><g><path class="cls-37" d="M87.59,158.65l2.77,9.98-7.11,8.77-6.73-3.57,.09-6.92-.94-1.99,1.71-4.64c2.04-1.38,4.09-2.21,6.14-2.5,.84-.11,1.69-.14,2.53-.07l1.54,.94Z"/><path class="cls-35" d="M85.38,131.27l.67,26.44c-.84-.07-1.69-.04-2.53,.07l-.02-.11c-.89-8.96-1.96-17.19-3.49-23.33l-2.04-2.42,2.77-.65c2.59-12.76,5.45-24.93,11.06-31.05l7.43-5.96-13.85,37.01Z"/><path class="cls-2" d="M100.35,91.28l-1.12,2.98-7.43,5.96c-5.61,6.12-8.47,18.29-11.06,31.05l-2.77,.65,2.04,2.42c1.53,6.14,2.6,14.37,3.49,23.33l.02,.11c-2.05,.29-4.1,1.12-6.14,2.5-2.95-9.25-4.9-18.64-5.62-28.19,2.16-13.92,8.84-24.84,18.6-33.69,2.28-1.92,6.03-4.48,9.99-7.12Z"/></g><path class="cls-35" d="M86.48,166.03c-1.81,.03-4.23,.33-6.17,.88-.92,6.78,.34,14.15,2.81,21.86,2.43-.03,4.63-.35,6.45-1.18l-3.09-21.56Z"/><g><path class="cls-35" d="M142.4,171.71l-7.1,.18-.14-1.07,6.94-.56,4.11-4.23,.18,.87h0l-3.99,4.81Z"/><path class="cls-45" d="M146.39,166.91c.73,3.77,1.18,7.5,1.32,11.18-3,2.03-6.83,3.37-10.97,4.47l-1.44-10.67,7.1-.18,3.99-4.8Zm-1.61-6.82c-3.1,1.81-6.62,3.27-10.47,4.47l.84,6.26h0l6.94-.56,4.11-4.23c-.4-1.97-.88-3.95-1.43-5.94Z"/><path class="cls-19" d="M142.74,160.09h2.04c-3.1,1.81-6.62,3.27-10.47,4.47l.84,6.26h0l.14,1.07,1.44,10.67-2.17-.89-1.6-10.85-.92-7.02c3.82-1.09,7.65-2.6,10.69-3.71Z"/><path class="cls-38" d="M107.88,174.39c.33,3.22,.29,6.62-.12,10.09l-.22,1.82c-4.48-.15-8.6-.6-11.75-1.5l-.51-1.79c-.68-4-.87-7.77-.29-11.2l.51-.9c4.31,.33,8.41,.97,12.26,1.99l.12,1.49Z"/><path class="cls-35" d="M94.99,171.81c-.58,3.43-.39,7.2,.29,11.2-3.27-.63-6.16-1.46-8.4-2.68-1.16-3.64-1.58-7.41-1.4-11.3l.96-.26c2.28,1.43,5.27,2.09,8.55,3.04Z"/><path class="cls-35" d="M132.97,170.82l1.6,10.85c-8.92,2.95-17.86,3.91-26.81,2.81,.41-3.47,.45-6.87,.12-10.09,5.18,.74,10.36,.53,15.54-.56,3.18-.67,6.37-1.68,9.55-3.01Z"/><polygon class="cls-38" points="117.31 122.92 119.57 122.82 118.48 127.48 116.88 127.27 108.33 126.14 108.33 123.33 117.31 122.92"/><path class="cls-35" d="M111.97,103.54l-1.02-1.98-2.62,1.26c.21-3.22,.72-6.41,1.53-9.56-.21,1.96-.16,4.02,.07,6.13,.49-.86,1.02-1.68,1.6-2.46l1.25,5.38c-.27,.4-.54,.81-.81,1.23Z"/><path class="cls-18" d="M141.29,75.79l1.45,2.79c-5.22,6.4-13.12,10.95-22.22,14.68l-4.83-.89c-1.43-1.17-2.47-2.44-2.91-3.89v-2.17l28.51-10.52Z"/><path class="cls-15" d="M112.78,87.36v1.12c.44,1.45,1.48,2.72,2.91,3.89-1.57,1.4-2.96,2.9-4.16,4.56-.58,.78-1.11,1.6-1.6,2.46-.23-2.11-.28-4.17-.07-6.13,.21-1.94,.67-3.8,1.47-5.54,.48-.12,.97-.24,1.45-.36Z"/><path class="cls-40" d="M143.69,78.26l3.07,5.37-.19,.89c-5.08,7.27-11.62,13.11-18.95,18.3-.95-1.6-1.94-3.14-2.98-4.59-1.29-1.81-2.66-3.49-4.12-4.97,9.1-3.73,17-8.28,22.22-14.68l.95-.32Z"/><path class="cls-26" d="M124.64,98.23l-3.61,4.59c-2.9-.65-5.69-.93-8.25-.51l-1.25-5.38c1.2-1.66,2.59-3.16,4.16-4.56l4.83,.89c1.46,1.48,2.83,3.16,4.12,4.97Z"/><path class="cls-26" d="M120.74,103.91c-1.59,5.94-2.7,12.31-3.43,19.01l-8.98,.41v2.81l8.55,1.13c-.54,6.23-.78,12.71-.83,19.38l-7.7,10.21-8.12-10.3c2.06-16.85,5.07-32.42,11.74-43.02,.27-.42,.54-.83,.81-1.23,2.56-.42,5.35-.14,8.25,.51-.1,.36-.2,.72-.29,1.09Z"/><path class="cls-35" d="M127.62,102.82c7.33-5.19,13.87-11.03,18.95-18.3,4.8,1.17,9.94,2.76,15.31,4.73,9.62,11.48,8.21,25.52-.89,41.35-2.97,2.79-5.87,5.07-8.68,6.77-4.69,6.95-7.77,14.57-9.57,22.72-3.04,1.11-6.87,2.62-10.69,3.71l.92,7.02c-3.18,1.33-6.37,2.34-9.55,3.01,3.43-21.68,6.89-43,10.89-53.82,5.14-9.41,10.36-17.92,15.76-24.51l-7.33-2.9c-4.89,4.23-9.75,8.01-14.6,11.32l-4.72-1.95-2.68,1.94c.09-.37,.19-.73,.29-1.09l3.61-4.59c1.04,1.45,2.03,2.99,2.98,4.59Z"/><path class="cls-13" d="M123.42,173.83c-5.18,1.09-10.36,1.3-15.54,.56l-.12-1.49c-3.85-1.02-7.95-1.66-12.26-1.99l-.51,.9c-3.28-.95-6.27-1.61-8.55-3.04-2.47-12.92-4.01-25.2-4.34-36.63,1.81-11.94,5-22.61,9.7-31.92,2.35-3.45,5.18-6.44,8.55-8.94,3.69-1.44,7.34-2.63,10.98-3.56-.8,1.74-1.26,3.6-1.47,5.54-.81,3.15-1.32,6.34-1.53,9.56l2.62-1.26,1.02,1.98c-6.67,10.6-9.68,26.17-11.74,43.02l8.12,10.3,7.7-10.21c.05-6.67,.29-13.15,.83-19.38l1.6,.21,1.09-4.66-2.26,.1c.73-6.7,1.84-13.07,3.43-19.01l2.68-1.94,4.72,1.95c4.85-3.31,9.71-7.09,14.6-11.32l7.33,2.9c-5.4,6.59-10.62,15.1-15.76,24.51-4,10.82-7.46,32.14-10.89,53.82Z"/></g><g><g><path class="cls-37" d="M141.29,75.79c-6.85,5.46-13.42,10.2-19.41,13.46-6.63-1.5-12.82-3.32-18.4-5.59,.34-14.25,1.72-30.41,3.84-47.59,10.37-5.88,26.57-4.79,37.98,1.86l1.31,5.66s1.9,9.55,1.02,14.68c2.5,1.16,3.83,3.04,4.13,5.55-1.94,3.77-4.55,6.72-7.79,8.61-.55-.16-1.04-.35-1.36-.65l-1.32,4Z"/><path class="cls-18" d="M117.22,54.17c-.52,4.05-1.55,8.27-2.9,12.59-1.27,.57-2.66,.87-4.18,.9-1.75-.91-3.12-2-3.98-3.33,1.23-4.06,2.78-7.76,5.1-10.57,2.37-1.16,4.31-.88,5.96,.41Z"/><path class="cls-32" d="M147.63,58.28c-2.79,.28-5.57,1.51-8.34,3.57l1.84-16.83,8.94,1.27-2.44,11.99Z"/><path class="cls-37" d="M121.89,89.25c-6.63-1.5-12.82-3.32-18.4-5.59,.02-1.04,.07-2.11,.1-3.17,1.87,.68,3.6,1.2,4.99,1.35l.9-3.25c2.2,.47,5.1,.41,8.23,.18l.64,4.63c2.27,.33,4.68-.09,7.16-.85l1.64-2.18,3.82,3.18c-3.14,2.19-6.18,4.12-9.08,5.7Z"/><path class="cls-21" d="M127.6,71.47l-2.4-3.16-17.28,.8-.78,2.37c7.64,2.94,14.89,3.43,20.46,0Z"/><path class="cls-18" d="M126.3,70c1.6,1.01,2.46,2.36,2.83,3.93l-1.76-1.25c-4.44,2.04-11.26,2.74-18.76-.7,7.72,2.01,13.98,1.81,18.23-.21l-.55-1.77Z"/><path class="cls-18" d="M146.72,67.83c1.44-1.53,2.72-3.05,3.21-4.53-.37-1.19-1.3-2.16-2.7-2.96-2.33,.61-4.43,1.53-6.34,2.72,.04,1.29,.33,2.55,.86,3.76-.26,.51-.98,1.06-1.73,1.6,1.18-.28,2.25-.68,3-1.39-.46-1.18-.81-2.28-.84-3.12,1.55-.99,3.17-1.76,4.87-2.25,.79,.44,1.38,1.1,1.84,1.91-.13,1.09-1.12,2.66-2.17,4.25Z"/></g><g><path class="cls-19" d="M149.37,53.68l-.94,2.99h-.01l-.49,1.59c-1.99-.89-4.3-1.75-6.82-2.56l2.08-7.47c2.44,1.8,4.54,3.6,6.19,5.45Z"/><path class="cls-35" d="M131.74,53.06c-3.09,2.03-7.49,3.41-12.83,4.29-8.7,.02-16.21-1.38-22.53-4.19,3.53-1.05,6.62-2.41,9.07-4.19,3.81-.32,15.34,1.38,26.29,4.08Z"/><path class="cls-26" d="M131.74,53.06c-10.96-2.7-22.48-4.4-26.29-4.08l.71-6.59c6.3-2.59,14.33-2.25,23.27-.38,2.25,.47,4.54,1.04,6.89,1.68,2.49,1.5,4.81,3,6.87,4.53l-2.08,7.47c-2.93-.96-6.12-1.84-9.36-2.64Z"/><path class="cls-39" d="M113.96,26.19l4.69,1.1c-.46,5.64-2.22,9.1-6.09,10.64-3.41-1.85-5.67-4.87-6.32-9.52l3.53-2.22-.55-2.22,5.36-.28-.62,2.5Z"/><path class="cls-35" d="M143.18,48.23c-2.06-1.53-4.38-3.03-6.87-4.53-2.35-.63-4.64-1.21-6.89-1.68,4.94,.14,9.49,.13,12.71-.45,1.56-3.3,2.13-8.52,2.49-14.15,.98,4.13,1.61,8.88,2.07,13.95,3.51,2.57,6.88,6.42,10.16,10.99-1.87,2.32-4.79,3.65-8.42,4.32l.94-2.99c-1.65-1.84-3.74-3.65-6.19-5.45Z"/><path class="cls-46" d="M129.43,42.02c-8.93-1.87-16.97-2.22-23.27,.38-2.88-2.01-5.53-4.34-7.9-7.01-.4-3-.27-6.18,.2-9.48,3.98-4.57,9-8.81,14.84-12.78,10.74,3.93,21.19,8.7,31.32,14.29-.36,5.63-.93,10.85-2.49,14.15-3.22,.58-7.77,.59-12.71,.45Zm-16.87-4.09c3.87-1.54,5.63-5,6.09-10.64l-4.69-1.1,.62-2.5-5.36,.28,.55,2.22-3.53,2.22c.65,4.65,2.91,7.67,6.32,9.52Z"/><path class="cls-3" d="M106.85,49.55l-8.13,4.02c1.89,1,4.29,1.56,7.01,1.83l7.05-5.13-5.93-.72Z"/><polygon class="cls-7" points="114.37 50.84 108.57 55.89 111.86 56.13 115.54 50.84 114.37 50.84"/><g class="cls-43"><path class="cls-8" d="M111.66,23.85l-2.44,.13,.55,2.22-3.04,1.91,8.16,8.45c.91-.75,1.63-1.7,2.19-2.83l-5.42-9.87Z"/></g></g></g><g><path class="cls-28" d="M101.56,107.18l1.15-2.23-4.33-1.02-.14,2.25-3.39,1.27c-.7,4.59,.3,8.02,2.53,10.61,3.48-.54,5.78-3.42,7.63-8.69l-3.44-2.18Z"/><path class="cls-39" d="M100.98,106.82l3.44,2.19c-1.85,5.31-4.15,8.21-7.63,8.76-2.23-2.6-3.23-6.06-2.53-10.68l3.39-1.28,.14-2.26,4.33,1.03-1.15,2.25Z"/><g class="cls-12"><path class="cls-4" d="M99.77,104.01l-1.97-.47-.14,2.26-2.92,1.1,4.27,10.09c.92-.5,1.74-1.24,2.49-2.19l-1.72-10.8Z"/></g></g><g><path class="cls-27" d="M139.94,217.38l-16.93-45.54c-.41-1.1,.15-2.33,1.26-2.74,1.08-.4,2.28,.13,2.72,1.19l18.55,44.91c.63,1.53-.1,3.29-1.63,3.92-1.53,.63-3.29-.1-3.92-1.63-.01-.03-.03-.07-.04-.1Z"/><path class="cls-6" d="M124.3,169.68l18.99,46.27-.38,1.4-2.09,.38-17.38-46.67c.06-.66,.31-1.15,.86-1.38Z"/><polygon class="cls-44" points="126.25 185.58 133.91 182.65 134.31 183.92 126.76 186.92 126.25 185.58"/></g><g class="cls-31"><polygon class="cls-5" points="96.78 171.89 100.67 184.93 104.57 185.25 103.87 172.86 96.78 171.89"/></g><g><path class="cls-33" d="M161.9,89.45l-2.21-.66s-1.7-4.47-4.08-4.36c-3.54,.17-8.54,10.88-8.54,10.88l-2.17-.51s4.41-11.47,9.94-11.98,7.06,6.63,7.06,6.63Z"/><path class="cls-19" d="M147.52,95.41l3.02,3.92c-1.62,5.78-4.51,10.19-8.66,13.25l-2.57-.74c4.45-5.23,7.57-10.17,8.21-16.43Z"/><path class="cls-26" d="M147.07,95.31l.45,.1c-.64,6.26-3.76,11.2-8.21,16.43-2.68-.89-4.36-1.69-6.81-3.19,.98-6.64,4.48-11.91,8.13-14.85l4.27,1,2.17,.51Zm-1.26,1.97l-5.43-1.69c-.31,.25-.59,.53-.85,.81l5.89,2.22c.15-.44,.29-.88,.39-1.34Zm-.91,2.65l-6.03-2.71c-.32,.46-.6,.96-.82,1.49l6.26,2.35c.21-.37,.41-.75,.59-1.13Zm-1.38,2.33l-5.82-2.61c-.15,.46-.27,.94-.36,1.44l5.47,2.1c.26-.3,.48-.62,.71-.93Zm-5.2,3.41c.48-1.19,.24-2.41-.54-2.73s-1.8,.39-2.29,1.57c-.48,1.19-.24,2.41,.54,2.73,.78,.31,1.8-.39,2.29-1.57Z"/><path class="cls-35" d="M140.38,95.59l5.43,1.69c-.1,.46-.24,.9-.39,1.34l-5.89-2.22c.26-.28,.54-.56,.85-.81Z"/><path class="cls-35" d="M138.87,97.22l6.03,2.71c-.18,.38-.38,.76-.59,1.13l-6.26-2.35c.22-.53,.5-1.03,.82-1.49Z"/><path class="cls-35" d="M137.7,99.65l5.82,2.61c-.23,.31-.45,.63-.71,.93l-5.47-2.1c.09-.5,.21-.98,.36-1.44Z"/><path class="cls-1" d="M138.52,103.27c.78,.32,1.02,1.54,.54,2.73-.49,1.18-1.51,1.88-2.29,1.57-.78-.32-1.02-1.54-.54-2.73,.49-1.18,1.51-1.89,2.29-1.57Z"/><path class="cls-22" d="M137.78,102.94c.78,.32,1.02,1.54,.54,2.73-.49,1.18-1.51,1.88-2.29,1.57-.78-.32-1.02-1.54-.54-2.73,.49-1.18,1.51-1.89,2.29-1.57Z"/></g><g><path class="cls-38" d="M169.33,166.19c.19,.82-.29,1.78-1.21,2.31-1.09,.63-2.39,.42-2.9-.47,0-.03-.03-.05-.04-.08-.44-.88,.02-2.06,1.08-2.67,1.09-.63,2.39-.42,2.9,.47,.08,.14,.14,.29,.17,.44Z"/><path class="cls-35" d="M172.89,134.73c2.87,.73,4.97,2.3,6.51,4.47-2.75,.43-5.23,.06-7.38-1.29l-1.66-2.01,1.28-1.79c2.73-2.26,5.81-3.71,9.25-4.36-2.37,2.84-4.99,4.68-8,4.98Z"/><path class="cls-35" d="M162.95,168.63c.75-.19,1.49-.41,2.23-.68,0,.03,.03,.05,.04,.08,.51,.89,1.81,1.1,2.9,.47,.92-.53,1.4-1.49,1.21-2.31,.89-.46,1.79-.96,2.67-1.5-.95-3.4-2.42-6.23-4.53-8.34,2.27,1.14,4.05,3.46,5.47,6.64,9.81-7.47,18.04-16.29,23.49-27.49-4.22-14.31-13.96-28.53-26.72-42.71,14.41,6.87,25.94,19.19,32.33,41.18-8.8,17.03-22,29.96-38.47,39.86,.02-1.89-.19-3.63-.63-5.2h0Z"/><path class="cls-17" d="M165.18,167.95c-.74,.27-1.48,.49-2.23,.68h0c-1-3.66-3.23-6.45-6.68-8.35l-.07-1.21,7.28-4.66,1.27-.64c3.42-5.31,6.09-10.6,7.28-15.86,2.15,1.35,4.63,1.72,7.38,1.29-1.54-2.17-3.64-3.74-6.51-4.47,3.01-.3,5.63-2.14,8-4.98-3.44,.65-6.52,2.1-9.25,4.36-3.03-1.37-7.63-2.27-12.58-3.06-11.49-3.64-8.59-35.89,1.62-41.8,3.11,.98,6.12,2.14,9.02,3.53h0c12.76,14.19,22.5,28.41,26.72,42.72-5.45,11.2-13.68,20.02-23.49,27.49-1.42-3.18-3.2-5.5-5.47-6.64,2.11,2.11,3.58,4.94,4.53,8.34-.88,.54-1.78,1.04-2.67,1.5-.03-.15-.09-.3-.17-.44-.51-.89-1.81-1.1-2.9-.47-1.06,.61-1.52,1.79-1.08,2.67Z"/><polygon class="cls-18" points="157.84 178.3 157.55 179.13 154.34 180.51 156.04 179.2 153.79 177.75 157.84 178.3"/><polygon class="cls-18" points="150.6 178.05 150.09 183.27 149.72 183.05 149.48 183.1 149.02 177.75 150.6 178.05"/><path class="cls-37" d="M162.94,168.63c.44,1.57,.65,3.31,.63,5.2,0,0-.44,2.05-1.51,2.9-1.06,.85-4.22,1.57-4.22,1.57l-4.05-.55,2.25,1.45-1.7,1.31,3.21-1.38-1.25,3.6-4.47,1.6-1.74-1.06,.51-5.22-1.58-.3,.46,5.35-1.61,.33-2.93-2.23,.08-4.89-5.81,1.91-3.36,3.41-1.57,.28-1.87-1.52,6.16-5.74,5.49-3.51-6.49,.53-6.66,3.42-1.4-.51-.7-1.78,6.98-4.66,6.25-3.03,14.22-4.83c3.45,1.9,5.68,4.69,6.68,8.35Z"/></g><path class="cls-38" d="M168.54,102.06l-1.23,4.64c5.83,3.12,10.13,3.79,13.58,1.48-.15-4.02-2.03-7.81-6.33-11.24l-3.95,1.6-1.93-1.84-2.93,4.34,2.79,1.03Z"/></g></g></g></g></g></svg>