<svg xmlns="http://www.w3.org/2000/svg" xmlns:xlink="http://www.w3.org/1999/xlink" width="63" height="63" viewBox="0 0 63 63">
  <defs>
    <clipPath id="clip-path">
      <rect id="Rectángulo_34277" data-name="Rectángulo 34277" width="63" height="63" transform="translate(273 5679)" fill="#ff5f65"/>
    </clipPath>
  </defs>
  <g id="Enmascarar_grupo_90" data-name="Enmascarar grupo 90" transform="translate(-273 -5679)" clip-path="url(#clip-path)">
    <g id="si" transform="translate(273 5679)">
      <g id="Grupo_83091" data-name="Grupo 83091">
        <path id="Trazado_116094" data-name="Trazado 116094" d="M61.422,19.088a4.763,4.763,0,0,0-2.908-1.376,4.847,4.847,0,0,0,.131-1.123,4.774,4.774,0,0,0-4.266-4.756,4.784,4.784,0,0,0-5.817-5.817A4.774,4.774,0,0,0,43.805,1.75h0a4.753,4.753,0,0,0-3.384,1.4L39.235,4.333A30.333,30.333,0,0,0,27.164,3.1,13.8,13.8,0,0,0,23.289.634c-4.17-1.7-6.078.49-6.563,1.2a4.5,4.5,0,0,0-.281,4.438,29.923,29.923,0,0,0-3.025,1.791A1.23,1.23,0,1,0,14.8,10.106,27.426,27.426,0,0,1,18,8.249c1.861,2.132,4.662,6.077,3.948,9.866a31.4,31.4,0,0,0-.264,7.517,3.849,3.849,0,0,0-.48-.031,3.75,3.75,0,0,0-2.67,1.1l-14.6,14.6A27.549,27.549,0,0,1,7.335,17.571,1.23,1.23,0,1,0,5.3,16.194,30.029,30.029,0,1,0,59.733,27.545l1.689-1.689a4.792,4.792,0,0,0,0-6.769ZM37.247,6.322l-4.492,4.492-.037-.081a25.656,25.656,0,0,0-3.336-5.311,27.918,27.918,0,0,1,7.865.9ZM20.271,28.443a1.323,1.323,0,0,1,1.86,0L37.813,44.125h0a1.317,1.317,0,0,1,0,1.86l-4.66,4.66L15.611,33.1Zm-15.4,15.4,9-9L31.413,52.385l-7.449,7.449A27.579,27.579,0,0,1,4.872,43.842Zm44.821,8.623A27.386,27.386,0,0,1,30.2,60.54a28.035,28.035,0,0,1-3.27-.192L39.553,47.725a3.782,3.782,0,0,0,.754-4.263,22.437,22.437,0,0,1,3.84-2.221,19.305,19.305,0,0,0,5.239-3.348l8.185-8.185A27.5,27.5,0,0,1,49.693,52.466Zm9.988-28.349L47.646,36.153a17.256,17.256,0,0,1-4.594,2.884,24.186,24.186,0,0,0-4.316,2.531L24.211,27.043c-.019-.444-.041-.883-.062-1.312a29.914,29.914,0,0,1,.213-7.16C25.4,13.08,20.958,7.742,19,5.7a2.041,2.041,0,0,1-.24-2.48c.6-.885,1.913-1,3.6-.31,5.018,2.051,7.992,8.556,8.116,8.832a2.746,2.746,0,0,0,1.56,1.726,1.233,1.233,0,0,1,.171.078,1.231,1.231,0,0,0,1.49-.193l8.467-8.467A2.326,2.326,0,0,1,45.45,8.177a1.23,1.23,0,0,0,1.74,1.74l.907-.907A2.325,2.325,0,0,1,51.386,12.3l-.907.907h0a1.23,1.23,0,0,0,1.74,1.74h0a2.325,2.325,0,0,1,3.289,3.289l-.854.854a1.23,1.23,0,1,0,1.74,1.74l0,0a2.325,2.325,0,0,1,3.286,3.292Z" fill="#ff5f65"/>
        <path id="Trazado_116095" data-name="Trazado 116095" d="M20.188,33.828a1.231,1.231,0,1,0-.082-1.738h0A1.23,1.23,0,0,0,20.188,33.828Z" fill="#ff5f65"/>
        <path id="Trazado_116096" data-name="Trazado 116096" d="M9.838,13.841a1.23,1.23,0,1,0,0-2.461h0a1.23,1.23,0,0,0,0,2.461Z" fill="#ff5f65"/>
      </g>
    </g>
  </g>
</svg>
