<svg xmlns="http://www.w3.org/2000/svg" xmlns:xlink="http://www.w3.org/1999/xlink" width="63" height="63" viewBox="0 0 63 63">
  <defs>
    <clipPath id="clip-path">
      <rect id="Rectángulo_34279" data-name="Rectángulo 34279" width="63" height="63" transform="translate(770 5679)" fill="#ffbfc1"/>
    </clipPath>
  </defs>
  <g id="Enmascarar_grupo_92" data-name="Enmascarar grupo 92" transform="translate(-770 -5679)" clip-path="url(#clip-path)">
    <g id="hablar" transform="translate(770 5679)">
      <path id="Trazado_116097" data-name="Trazado 116097" d="M27.583,30.945a3.366,3.366,0,0,0-3.362,3.362.923.923,0,0,0,1.846,0,1.517,1.517,0,1,1,3.033,0,.923.923,0,0,0,1.846,0,3.366,3.366,0,0,0-3.362-3.362Z" fill="#ffbfc1"/>
      <path id="Trazado_116098" data-name="Trazado 116098" d="M44.168,6.546h13.9a.923.923,0,0,0,0-1.846h-13.9a.923.923,0,0,0,0,1.846Z" fill="#ffbfc1"/>
      <path id="Trazado_116099" data-name="Trazado 116099" d="M44.168,10.823h13.9a.923.923,0,0,0,0-1.846h-13.9a.923.923,0,1,0,0,1.846Z" fill="#ffbfc1"/>
      <path id="Trazado_116100" data-name="Trazado 116100" d="M44.168,15.1h6.948a.923.923,0,0,0,0-1.846H44.168a.923.923,0,0,0,0,1.846Z" fill="#ffbfc1"/>
      <path id="Trazado_116101" data-name="Trazado 116101" d="M35.277,34.272c-.213-1.944.8-6.986-3.008-12.489a9.5,9.5,0,0,0,2.511-6.442,2.222,2.222,0,0,0-2.219-2.219H14.473A14.448,14.448,0,0,0,.017,27.578v6.736a16.634,16.634,0,0,0,2.963,9.8,15.541,15.541,0,0,0,4.471,4.233l.235.142V55.7H6.694a2.332,2.332,0,0,0-2.329,2.329v2.774A2.2,2.2,0,0,0,6.559,63H29.117a2.2,2.2,0,0,0,2.194-2.194,5.109,5.109,0,0,0-5.1-5.1H24.427V54.645a1.838,1.838,0,0,1,1.839-1.839h0c2.54-.188,4.616.6,6.393-1.178,1.5-1.5,1.186-2.612,1.186-8.052a.917.917,0,0,1,.954-.918A2.764,2.764,0,0,0,37.3,38.706c-1.935-4.127-2.014-4.071-2.018-4.433Zm-33.414.042V27.578a12.6,12.6,0,0,1,12.61-12.611H32.562a.374.374,0,0,1,.373.373,7.7,7.7,0,0,1-7.693,7.693H21.975a4.176,4.176,0,0,0-4.17,4.161L17.8,31.108a2.327,2.327,0,0,1-2.324,2.319H12.792a3.791,3.791,0,0,0-2.382,6.73,3.683,3.683,0,0,1,1.413,2.853c0,1.441-1.555,2.937-3.218,3.882A14.091,14.091,0,0,1,1.863,34.315Zm33.711,6.073c-.523.82-1.507-.011-2.754,1.224-1.143,1.132-.733,2.46-.819,3.277h-.875A4.406,4.406,0,0,1,28.5,43.766a.923.923,0,0,0-1.053,1.516,6.017,6.017,0,0,0,3.677,1.452H32c-.109,1.508.328,2.617-.644,3.588-1.03,1.029-2.157.5-5.087.638h0a3.683,3.683,0,0,0-3.685,3.685V55.7H15.188a.923.923,0,0,0,0,1.846H26.208a3.261,3.261,0,0,1,3.257,3.257.349.349,0,0,1-.349.349H6.559c-.625,0-.238-.909-.349-3.122a.484.484,0,0,1,.484-.484h4.8a.923.923,0,0,0,0-1.846H9.531V48.487a11.006,11.006,0,0,0,2.521-1.949,5.246,5.246,0,0,0,1.615-3.528,5.521,5.521,0,0,0-2.1-4.288,1.943,1.943,0,0,1,1.221-3.45h2.682a4.176,4.176,0,0,0,4.17-4.161l.008-3.913a2.328,2.328,0,0,1,2.324-2.319h3.267a9.487,9.487,0,0,0,5.64-1.852C34.7,28.741,32.754,33.463,33.7,35.45l1.929,4.05a.906.906,0,0,1-.055.889Z" fill="#ffbfc1"/>
      <path id="Trazado_116102" data-name="Trazado 116102" d="M57.817,0H43.712a5.171,5.171,0,0,0-5.166,5.166v2.5a.923.923,0,1,0,1.846,0v-2.5a3.324,3.324,0,0,1,3.32-3.32H57.817a3.324,3.324,0,0,1,3.32,3.32v9.056a3.324,3.324,0,0,1-3.32,3.32H51.6a3.764,3.764,0,0,0-3.146,1.691c-3.653,5.523-3.744,5.649-3.766,5.694h0c-.011,0-.027,0-.028,0-.036-8.468-.025-6-.027-6.464a.923.923,0,0,0-.923-.919,3.324,3.324,0,0,1-3.32-3.32V11.356a.923.923,0,1,0-1.846,0v2.866a5.174,5.174,0,0,0,4.246,5.084l.022,5.605a1.866,1.866,0,0,0,3.468.95L50,20.251a1.923,1.923,0,0,1,1.607-.864h6.214a5.171,5.171,0,0,0,5.166-5.166V5.166A5.172,5.172,0,0,0,57.817,0Z" fill="#ffbfc1"/>
    </g>
  </g>
</svg>
