<svg xmlns="http://www.w3.org/2000/svg" xmlns:xlink="http://www.w3.org/1999/xlink" width="63" height="63" viewBox="0 0 63 63">
  <defs>
    <clipPath id="clip-path">
      <rect id="Rectángulo_34280" data-name="Rectángulo 34280" width="63" height="63" transform="translate(1009 5679)" fill="#ffbfc1"/>
    </clipPath>
  </defs>
  <g id="Enmascarar_grupo_93" data-name="Enmascarar grupo 93" transform="translate(-1009 -5679)" clip-path="url(#clip-path)">
    <g id="buscando" transform="translate(1009 5679)">
      <g id="Grupo_83093" data-name="Grupo 83093">
        <path id="Trazado_116103" data-name="Trazado 116103" d="M47.937,54.4a4.3,4.3,0,1,0,4.3,4.3A4.306,4.306,0,0,0,47.937,54.4Zm0,6.139A1.839,1.839,0,1,1,49.778,58.7,1.842,1.842,0,0,1,47.937,60.539Z" fill="#ffbfc1"/>
        <path id="Trazado_116104" data-name="Trazado 116104" d="M55.2,7A23.669,23.669,0,0,0,41.08.161,24.051,24.051,0,0,0,26.008,3.383a1.23,1.23,0,1,0,1.264,2.111A21.46,21.46,0,0,1,58.881,29.933a11.071,11.071,0,0,0-2.269-4.978A18.361,18.361,0,1,0,44.476,41.17a9.614,9.614,0,0,0-.795,3.484A21.495,21.495,0,0,1,18.757,32.813a1.22,1.22,0,0,0-.092-.205,21.368,21.368,0,0,1,1.228-19.763,1.231,1.231,0,1,0-2.108-1.271,24.016,24.016,0,0,0-1.66,21.364l-1.391,1.39A5.226,5.226,0,0,0,13.9,40.6L8.85,45.643h0l-3.41,3.408,0,0,0,0L2.386,52.1a5.428,5.428,0,0,0,7.677,7.677l3.02-3.018.035-.031c.011-.011.02-.023.031-.034l8.427-8.421a5.224,5.224,0,0,0,6.279-.837l1.4-1.4a23.9,23.9,0,0,0,14.467,1.141,4.3,4.3,0,0,0,8.522-.831c0-1.648.018-1.679.976-3.313a5.7,5.7,0,0,1,1.439-1.418c.237-.187.483-.381.723-.588a10.042,10.042,0,0,0,2.828-3.894A23.91,23.91,0,0,0,55.2,7ZM15.659,50.707l-4.2-4.194,4.046-4.043,4.2,4.2ZM12.245,54.12l-4.2-4.2L9.72,48.253l4.2,4.194ZM8.322,58.04a2.967,2.967,0,0,1-4.2-4.2l2.181-2.179,4.2,4.2ZM26.112,45.7a2.757,2.757,0,0,1-3.893,0l-5.745-5.741a2.759,2.759,0,0,1,0-3.889l.771-.77a24.1,24.1,0,0,0,9.645,9.622Zm.93-10.565A15.893,15.893,0,1,1,54.135,22.675,11.086,11.086,0,0,0,40.073,24.06a11.246,11.246,0,0,0-3.253,7.975,4.3,4.3,0,1,0,8.6,0,2.56,2.56,0,0,1,2.518-2.652A2.52,2.52,0,0,1,50.455,31.9c0,1.4-.067,2.076-.706,2.627-.285.246-.554.47-.815.687A14.319,14.319,0,0,0,46.676,37.4,16,16,0,0,1,27.042,35.134Zm26.724,4.035c-.2.171-.41.339-.636.517a7.712,7.712,0,0,0-2.039,2.107,6.727,6.727,0,0,0-1.314,4.557,1.841,1.841,0,0,1-3.682,0c0-.261,0-.5.007-.732,0,0,0-.008,0-.013.05-2.455.4-3.26,1.813-5.668a9.619,9.619,0,0,1,2.59-2.83c.27-.225.55-.457.852-.718,1.557-1.344,1.557-3.088,1.557-4.489a4.98,4.98,0,1,0-9.958.136,1.844,1.844,0,1,1-3.678,0A8.658,8.658,0,1,1,56.595,31.9c0,3.426-.819,5.533-2.828,7.27Z" fill="#ffbfc1"/>
        <path id="Trazado_116105" data-name="Trazado 116105" d="M22.24,9.1A1.231,1.231,0,1,0,21.372,7l0,0a1.23,1.23,0,0,0,.871,2.1Z" fill="#ffbfc1"/>
      </g>
    </g>
  </g>
</svg>
