<svg xmlns="http://www.w3.org/2000/svg" xmlns:xlink="http://www.w3.org/1999/xlink" width="63" height="63" viewBox="0 0 63 63">
  <defs>
    <clipPath id="clip-path">
      <rect id="Rectángulo_34278" data-name="Rectángulo 34278" width="63" height="63" transform="translate(522 5679)" fill="#ffbfc1"/>
    </clipPath>
  </defs>
  <g id="Enmascarar_grupo_91" data-name="Enmascarar grupo 91" transform="translate(-522 -5679)" clip-path="url(#clip-path)">
    <path id="voto-negativo" d="M61.332,25.228a.974.974,0,0,0,.021-.364,28.1,28.1,0,0,0-.664-3.324c0-.012-.005-.023-.008-.035l0-.007v-.011h0A28.426,28.426,0,0,0,50.79,6.122,28.28,28.28,0,0,0,4.937,28.067L2.081,29.958a4.5,4.5,0,0,0,1.5,8.156A4.5,4.5,0,0,0,6.59,44.608a4.5,4.5,0,0,0,3,6.495,4.511,4.511,0,0,0,3.094,6.52,4.576,4.576,0,0,0,.907.091,4.478,4.478,0,0,0,2.48-.751l4.842-3.206c.487.236.983.459,1.481.665a28.062,28.062,0,0,0,5.419,1.625,20.8,20.8,0,0,0,3.218,4.008l1.857,1.8a4.063,4.063,0,0,0,6.216-5.16c-.143-.217-.278-.441-.407-.667A28.224,28.224,0,0,0,58.777,40.4a.972.972,0,1,0-1.756-.834A26.283,26.283,0,0,1,37.857,54.21a12.035,12.035,0,0,1-.427-6.817L39.8,37.153a2.628,2.628,0,0,0,1.4.784,2.7,2.7,0,0,0,.535.054,2.63,2.63,0,0,0,1.457-.442L59.509,26.744q.045.767.045,1.538a26.4,26.4,0,0,1-.983,7.155.972.972,0,0,0,1.872.527,28.374,28.374,0,0,0,.89-10.736Zm-11.7,5.723-14-20.882,8.247-5.461A26.5,26.5,0,0,1,58.79,21.961l0,.008,0,.018a25.841,25.841,0,0,1,.494,2.572ZM22.829,52.491l2.595-1.718.585,1.576q.27.726.595,1.432a26.089,26.089,0,0,1-3.46-1.156c-.1-.043-.21-.089-.314-.134Zm12.707-5.536a13.986,13.986,0,0,0,.818,8.733v0l.007.014a14.092,14.092,0,0,0,1.128,2.064,2.119,2.119,0,0,1-3.243,2.689l-1.856-1.8a18.874,18.874,0,0,1-3.129-3.979l-.024-.038a19.039,19.039,0,0,1-1.407-2.969l-1.011-2.725a.973.973,0,0,0-1.25-.573l-.03.013a.559.559,0,0,0-.137.068l-.02.012-.012.008L15,55.342a2.565,2.565,0,1,1-2.833-4.277l.885-.585h0l.015-.01,2.008-1.33a.972.972,0,0,0-1.074-1.621l-2.022,1.339A2.565,2.565,0,0,1,9.166,44.57l2.908-1.926A.972.972,0,0,0,11,41.022L8.981,42.36A2.565,2.565,0,0,1,6.16,38.075l2.909-1.927A.972.972,0,1,0,8,34.526l-2.01,1.33a2.565,2.565,0,1,1-2.832-4.277l7.06-4.675a.972.972,0,1,0-1.073-1.621L6.924,26.75A26.378,26.378,0,0,1,42.085,3.466l-14.921,9.88a2.657,2.657,0,0,0-.745,3.675l.087.131L25.23,18a4.336,4.336,0,0,1-3.087.668,6.271,6.271,0,0,0-4.467.966l-5.065,3.354a.972.972,0,0,0,1.074,1.621l5.065-3.354a4.334,4.334,0,0,1,3.084-.668,6.285,6.285,0,0,0,4.47-.966l1.276-.845,10.73,16.2ZM42.12,35.929a.707.707,0,0,1-.979-.2L28.666,16.892l0,0,0,0-.621-.937a.711.711,0,0,1,.2-.981l5.775-3.824,14,20.882Zm0,0" transform="translate(522.72 5679)" fill="#ffbfc1"/>
  </g>
</svg>
