<svg xmlns="http://www.w3.org/2000/svg" xmlns:xlink="http://www.w3.org/1999/xlink" width="63" height="63" viewBox="0 0 63 63">
  <defs>
    <clipPath id="clip-path">
      <rect id="Rectángulo_34281" data-name="Rectángulo 34281" width="63" height="63" transform="translate(1246 5679)" fill="#ffbfc1"/>
    </clipPath>
  </defs>
  <g id="Enmascarar_grupo_94" data-name="Enmascarar grupo 94" transform="translate(-1246 -5679)" clip-path="url(#clip-path)">
    <g id="pregunta" transform="translate(1246 5679)">
      <path id="Trazado_116106" data-name="Trazado 116106" d="M62.076,47.288A.923.923,0,0,0,63,46.366V31.148a9.1,9.1,0,0,0-9.086-9.085H43.227V9.085A9.1,9.1,0,0,0,34.142,0H9.086A9.1,9.1,0,0,0,0,9.085V26.148a9.1,9.1,0,0,0,8.156,9.038v3.03a2.715,2.715,0,0,0,4.364,2.161l6.752-5.144h.5V48.211A9.1,9.1,0,0,0,28.858,57.3H43.727l6.751,5.144a2.717,2.717,0,0,0,4.364-2.161V57.249a9.088,9.088,0,0,0,7.927-7,.923.923,0,0,0-1.8-.412,7.2,7.2,0,0,1-7.051,5.613.923.923,0,0,0-.922.923V60.28a.871.871,0,0,1-1.4.693l-7-5.333a.923.923,0,0,0-.559-.189H28.858a7.248,7.248,0,0,1-7.24-7.24V35.233H34.142a9.1,9.1,0,0,0,9.085-9.085V23.909H53.913a7.248,7.248,0,0,1,7.24,7.239V46.366a.923.923,0,0,0,.923.923ZM41.381,26.148a7.247,7.247,0,0,1-7.239,7.239H18.962a.923.923,0,0,0-.559.189l-7,5.333a.872.872,0,0,1-1.4-.693V34.31a.923.923,0,0,0-.922-.923,7.249,7.249,0,0,1-7.234-7.239V9.085A7.248,7.248,0,0,1,9.086,1.846H34.142a7.247,7.247,0,0,1,7.239,7.239Z" fill="#ffbfc1"/>
      <path id="Trazado_116107" data-name="Trazado 116107" d="M21.792,4a8.676,8.676,0,0,0-8.858,8.677,2.769,2.769,0,1,0,5.537,0,3.07,3.07,0,0,1,.031-.441,3.118,3.118,0,0,1,.418-1.183.923.923,0,1,0-1.582-.951,4.947,4.947,0,0,0-.664,1.873,4.891,4.891,0,0,0-.049.7.923.923,0,0,1-1.846,0,6.834,6.834,0,1,1,8.459,6.637.923.923,0,0,0-.7.9v1.484a.923.923,0,0,1-1.846,0v-3.1a.924.924,0,0,1,.923-.923A4.992,4.992,0,0,0,26.6,12.41a5,5,0,0,0-4.869-4.721,4.533,4.533,0,0,0-.674.03.923.923,0,0,0,.211,1.834,3.1,3.1,0,0,1,.352-.02h.065a3.149,3.149,0,0,1,3.072,2.972,3.146,3.146,0,0,1-3.138,3.313,2.772,2.772,0,0,0-2.769,2.769v3.1a2.769,2.769,0,1,0,5.537,0V20.9A8.678,8.678,0,0,0,21.792,4Z" fill="#ffbfc1"/>
      <path id="Trazado_116108" data-name="Trazado 116108" d="M21.614,25.29a2.772,2.772,0,0,0-2.769,2.769v.062a2.769,2.769,0,0,0,5.537,0v-.062a2.772,2.772,0,0,0-2.768-2.769Zm.923,2.83a.923.923,0,0,1-1.846,0v-.062a.923.923,0,1,1,1.846,0Z" fill="#ffbfc1"/>
      <path id="Trazado_116109" data-name="Trazado 116109" d="M29.334,41.726A3.623,3.623,0,1,0,32.957,38.1a3.628,3.628,0,0,0-3.623,3.623Zm5.4,0a1.778,1.778,0,1,1-1.778-1.778A1.78,1.78,0,0,1,34.735,41.726Z" fill="#ffbfc1"/>
      <path id="Trazado_116110" data-name="Trazado 116110" d="M37.762,41.726A3.623,3.623,0,1,0,41.386,38.1,3.627,3.627,0,0,0,37.762,41.726Zm5.4,0a1.778,1.778,0,1,1-1.778-1.778A1.78,1.78,0,0,1,43.163,41.726Z" fill="#ffbfc1"/>
      <path id="Trazado_116111" data-name="Trazado 116111" d="M46.191,41.726A3.623,3.623,0,1,0,49.815,38.1,3.628,3.628,0,0,0,46.191,41.726Zm5.4,0a1.778,1.778,0,1,1-1.778-1.778A1.78,1.78,0,0,1,51.592,41.726Z" fill="#ffbfc1"/>
    </g>
  </g>
</svg>
