<svg xmlns="http://www.w3.org/2000/svg" width="209" height="80" viewBox="0 0 209 80">
  <g id="Grupo_84020" data-name="Grupo 84020" transform="translate(-1767 8702.61)">
    <path id="Trazado_117982" data-name="Trazado 117982" d="M22,0H170a22,22,0,0,1,0,44H22A22,22,0,0,1,22,0Z" transform="translate(1784 -8686.61)" fill="#fff"/>
    <path id="Trazado_117983" data-name="Trazado 117983" d="M3.156-4.008,2.453,0H.164L2.141-11.375l3.984.008a3.986,3.986,0,0,1,2.9,1.023,3.174,3.174,0,0,1,.922,2.672A3.592,3.592,0,0,1,8.551-5,5.075,5.075,0,0,1,5.313-4Zm.32-1.9,1.906.016a2.41,2.41,0,0,0,1.531-.477,1.918,1.918,0,0,0,.727-1.289,1.646,1.646,0,0,0-.262-1.3,1.418,1.418,0,0,0-1.121-.516L4.1-9.477ZM14.914,0a2.281,2.281,0,0,1-.086-.766,2.863,2.863,0,0,1-2.156.922,2.594,2.594,0,0,1-1.84-.723,2.186,2.186,0,0,1-.684-1.746,2.527,2.527,0,0,1,1.16-2.121,5.266,5.266,0,0,1,2.965-.738l1.031.016.109-.508a1.764,1.764,0,0,0,.023-.492.846.846,0,0,0-.277-.574.955.955,0,0,0-.629-.215,1.345,1.345,0,0,0-.875.254,1.231,1.231,0,0,0-.461.777l-2.211.008A2.457,2.457,0,0,1,12.1-7.871a4.312,4.312,0,0,1,2.613-.738,3.117,3.117,0,0,1,2.25.855,2.5,2.5,0,0,1,.68,2.121l-.648,4.047-.039.5a2.412,2.412,0,0,0,.133.938L17.078,0Zm-1.7-1.555a2.017,2.017,0,0,0,1.664-.828l.273-1.461-.766-.008a2.139,2.139,0,0,0-1.758.742,1.292,1.292,0,0,0-.242.633.75.75,0,0,0,.176.668A.891.891,0,0,0,13.219-1.555ZM24.211-6.336a4.548,4.548,0,0,0-.742-.078,2.136,2.136,0,0,0-1.867.883L20.625,0h-2.2l1.469-8.453,2.07-.008-.2,1.031a2.325,2.325,0,0,1,1.969-1.2,3.214,3.214,0,0,1,.766.109ZM28.82,0a2.281,2.281,0,0,1-.086-.766,2.863,2.863,0,0,1-2.156.922,2.594,2.594,0,0,1-1.84-.723,2.186,2.186,0,0,1-.684-1.746,2.527,2.527,0,0,1,1.16-2.121,5.266,5.266,0,0,1,2.965-.738l1.031.016.109-.508a1.764,1.764,0,0,0,.023-.492.846.846,0,0,0-.277-.574.955.955,0,0,0-.629-.215,1.345,1.345,0,0,0-.875.254,1.231,1.231,0,0,0-.461.777l-2.211.008A2.457,2.457,0,0,1,26-7.871a4.312,4.312,0,0,1,2.613-.738,3.117,3.117,0,0,1,2.25.855,2.5,2.5,0,0,1,.68,2.121L30.9-1.586l-.039.5a2.412,2.412,0,0,0,.133.938L30.984,0Zm-1.7-1.555a2.017,2.017,0,0,0,1.664-.828l.273-1.461L28.3-3.852a2.139,2.139,0,0,0-1.758.742,1.292,1.292,0,0,0-.242.633.75.75,0,0,0,.176.668A.891.891,0,0,0,27.125-1.555ZM42.063-6.336a4.548,4.548,0,0,0-.742-.078,2.136,2.136,0,0,0-1.867.883L38.477,0h-2.2l1.469-8.453,2.07-.008-.2,1.031a2.325,2.325,0,0,1,1.969-1.2,3.214,3.214,0,0,1,.766.109ZM46.031.156a3.677,3.677,0,0,1-1.965-.543,3.292,3.292,0,0,1-1.277-1.469,4.093,4.093,0,0,1-.328-2.059l.023-.312A5.465,5.465,0,0,1,43.2-6.492a4.341,4.341,0,0,1,1.547-1.59,3.827,3.827,0,0,1,2.094-.527,2.924,2.924,0,0,1,2.473,1.2,4.117,4.117,0,0,1,.637,2.962l-.125.962h-5.18a1.814,1.814,0,0,0,.4,1.313,1.521,1.521,0,0,0,1.172.508A2.7,2.7,0,0,0,48.328-2.6l1.008,1.25A3.135,3.135,0,0,1,47.961-.23,4.5,4.5,0,0,1,46.031.156Zm.7-6.945a1.565,1.565,0,0,0-1.082.383A3.363,3.363,0,0,0,44.8-5.023h3.031l.047-.2a2.071,2.071,0,0,0,.008-.594,1.134,1.134,0,0,0-.383-.707A1.2,1.2,0,0,0,46.734-6.789Zm7.453,5.133A1.447,1.447,0,0,0,55.2-1.988a1.632,1.632,0,0,0,.531-.926l2.07-.008a3.037,3.037,0,0,1-.559,1.6A3.394,3.394,0,0,1,55.9-.211a3.847,3.847,0,0,1-1.77.375A3.123,3.123,0,0,1,51.7-.9a3.965,3.965,0,0,1-.867-2.766l.023-.43.008-.086a5.284,5.284,0,0,1,1.391-3.27,3.761,3.761,0,0,1,2.914-1.16,3.047,3.047,0,0,1,2.27.934A3.3,3.3,0,0,1,58.258-5.3H56.2a1.73,1.73,0,0,0-.3-1.07,1.128,1.128,0,0,0-.891-.422q-1.578-.047-1.914,2.3a7.782,7.782,0,0,0-.086,1.438Q53.094-1.68,54.188-1.656Zm9.3-6.953a3.39,3.39,0,0,1,1.926.574A3.234,3.234,0,0,1,66.605-6.5a4.762,4.762,0,0,1,.27,2.176,5.143,5.143,0,0,1-1.4,3.262A3.96,3.96,0,0,1,62.453.156,3.38,3.38,0,0,1,60.547-.41a3.222,3.222,0,0,1-1.187-1.527,4.657,4.657,0,0,1-.273-2.156,5.3,5.3,0,0,1,1.422-3.328A3.878,3.878,0,0,1,63.492-8.609ZM61.266-3.294a1.95,1.95,0,0,0,.352,1.182,1.168,1.168,0,0,0,.945.449A1.712,1.712,0,0,0,64.156-2.6,4.647,4.647,0,0,0,64.7-5.128a2.122,2.122,0,0,0-.363-1.2,1.149,1.149,0,0,0-.949-.464,1.715,1.715,0,0,0-1.574.924A4.6,4.6,0,0,0,61.266-3.294ZM73.3-6.336a4.548,4.548,0,0,0-.742-.078,2.136,2.136,0,0,0-1.867.883L69.711,0h-2.2l1.469-8.453,2.07-.008-.2,1.031a2.325,2.325,0,0,1,1.969-1.2,3.214,3.214,0,0,1,.766.109Zm4.148-2.281a2.4,2.4,0,0,1,1.906.945L80.18-12h2.211L80.313,0H78.344l.125-.906a2.736,2.736,0,0,1-2.2,1.07A2.433,2.433,0,0,1,74.883-.25a2.607,2.607,0,0,1-.918-1.168,4.7,4.7,0,0,1-.355-1.7,6.4,6.4,0,0,1,.023-.953l.047-.352A6.767,6.767,0,0,1,74.4-6.7a3.766,3.766,0,0,1,1.313-1.461A3.094,3.094,0,0,1,77.445-8.617Zm-1.6,4.547a6.327,6.327,0,0,0-.039,1q.078,1.375,1.109,1.4a1.885,1.885,0,0,0,1.617-.875l.6-3.359a1.248,1.248,0,0,0-1.219-.875,1.606,1.606,0,0,0-1.34.621A4.176,4.176,0,0,0,75.844-4.07ZM86.961,0a2.281,2.281,0,0,1-.086-.766,2.863,2.863,0,0,1-2.156.922,2.594,2.594,0,0,1-1.84-.723A2.186,2.186,0,0,1,82.2-2.312a2.527,2.527,0,0,1,1.16-2.121,5.266,5.266,0,0,1,2.965-.738l1.031.016.109-.508a1.764,1.764,0,0,0,.023-.492.846.846,0,0,0-.277-.574.955.955,0,0,0-.629-.215,1.345,1.345,0,0,0-.875.254,1.231,1.231,0,0,0-.461.777l-2.211.008a2.457,2.457,0,0,1,1.113-1.965,4.312,4.312,0,0,1,2.613-.738,3.117,3.117,0,0,1,2.25.855,2.5,2.5,0,0,1,.68,2.121l-.648,4.047-.039.5a2.412,2.412,0,0,0,.133.938L89.125,0Zm-1.7-1.555a2.017,2.017,0,0,0,1.664-.828L87.2-3.844l-.766-.008a2.139,2.139,0,0,0-1.758.742,1.292,1.292,0,0,0-.242.633.75.75,0,0,0,.176.668A.891.891,0,0,0,85.266-1.555ZM96.258-6.336a4.548,4.548,0,0,0-.742-.078,2.136,2.136,0,0,0-1.867.883L92.672,0h-2.2l1.469-8.453,2.07-.008L93.8-7.43a2.325,2.325,0,0,1,1.969-1.2,3.214,3.214,0,0,1,.766.109Z" transform="translate(1851.017 -8659.11)" fill="#ff5f65"/>
    <g id="Page-1" transform="translate(1767 -8702.594)">
      <g id="_061---tip-alert" data-name="061---tip-alert" transform="translate(0 -0.017)">
        <g id="color" transform="translate(1.332 1.322)">
          <path id="Shape" d="M66.621,17.33V53.305a5.33,5.33,0,0,1-5.33,5.33H47.967A2.665,2.665,0,0,0,45.836,59.7L35.363,73.665a2.665,2.665,0,0,1-4.1,0L20.786,59.7a2.665,2.665,0,0,0-2.132-1.066H5.33A5.33,5.33,0,0,1,0,53.305V17.33A5.33,5.33,0,0,1,5.33,12h9.753a18.734,18.734,0,0,0,5.41,17.521,16.069,16.069,0,0,1,4.823,11.712v8.075a4,4,0,0,0,4,4h7.995a4,4,0,0,0,4-4v-8.3A15.523,15.523,0,0,1,46.049,29.6,18.561,18.561,0,0,0,51.965,16a18.841,18.841,0,0,0-.426-4h9.753a5.33,5.33,0,0,1,5.33,5.33Z" transform="translate(0 2.69)" fill="#e91e63"/>
          <g id="Grupo_83462" data-name="Grupo 83462" transform="translate(10.666 14.69)">
            <path id="Shape-2" data-name="Shape" d="M13.834,29.521a16.069,16.069,0,0,1,4.823,11.712v8.075a4,4,0,0,0,4,4h4a4,4,0,0,1-4-4V41.233a16.069,16.069,0,0,0-4.823-11.712A18.734,18.734,0,0,1,12.422,12h-4a18.734,18.734,0,0,0,5.41,17.521Z" transform="translate(-8.005 -12)" fill="#ad1457"/>
            <path id="Shape-3" data-name="Shape" d="M47,12H43a5.33,5.33,0,0,1,5.33,5.33V53.305A5.33,5.33,0,0,1,43,58.635h4a5.33,5.33,0,0,0,5.33-5.33V17.33A5.33,5.33,0,0,0,47,12Z" transform="translate(3.628 -12)" fill="#ad1457"/>
            <path id="Shape-4" data-name="Shape" d="M34.013,48.066,23.54,62.03a2.665,2.665,0,0,0,4,0L38.01,48.066A2.665,2.665,0,0,1,40.142,47h-4a2.665,2.665,0,0,0-2.132,1.066Z" transform="translate(-2.841 -0.365)" fill="#ad1457"/>
          </g>
          <path id="Shape-5" data-name="Shape" d="M48.306,19.662a18.561,18.561,0,0,1-5.916,13.6,15.523,15.523,0,0,0-4.743,11.406v2.971H21.658V44.9a16.069,16.069,0,0,0-4.823-11.712A18.655,18.655,0,1,1,48.306,19.662Z" transform="translate(3.658 -0.975)" fill="#ffeb3a"/>
          <path id="Shape-6" data-name="Shape" d="M43.733,15.662A18.654,18.654,0,0,0,24.6,1.006,4.541,4.541,0,0,0,23.48,1.1,18.654,18.654,0,0,1,34.246,33.237,15.523,15.523,0,0,0,29.5,44.669v2.971h4V44.669a15.523,15.523,0,0,1,4.743-11.406,18.561,18.561,0,0,0,5.916-13.6,18.84,18.84,0,0,0-.426-4Z" transform="translate(7.805 -0.973)" fill="#fdd834"/>
          <path id="Shape-7" data-name="Shape" d="M34.989,36v5.33a4,4,0,0,1-4,4H23a4,4,0,0,1-4-4V36Z" transform="translate(6.316 10.668)" fill="#f5f5f5"/>
          <path id="Shape-8" data-name="Shape" d="M29,36v5.33a4,4,0,0,1-4,4h4a4,4,0,0,0,4-4V36Z" transform="translate(8.311 10.668)" fill="#cfd8dc"/>
          <path id="Shape-9" data-name="Shape" d="M16.339,15.672h-.253a1.332,1.332,0,0,1-1.079-1.586,13.031,13.031,0,0,1,7.462-8.967A1.332,1.332,0,1,1,23.481,7.57S18.6,9.689,17.672,14.592a1.332,1.332,0,0,1-1.332,1.079Z" transform="translate(4.979 0.351)" fill="#f5f5f5"/>
        </g>
        <g id="Icons">
          <path id="Shape-10" data-name="Shape" d="M0,22.324V58.3a6.662,6.662,0,0,0,6.662,6.662H19.986a1.332,1.332,0,0,1,1.066.533L31.565,79.512a4,4,0,0,0,6.2,0L48.234,65.5a1.332,1.332,0,0,1,1.066-.533H62.624A6.662,6.662,0,0,0,69.286,58.3V22.324a6.662,6.662,0,0,0-6.662-6.662H53.9a19.975,19.975,0,0,0-38.521,0H6.662A6.662,6.662,0,0,0,0,22.324ZM33.8,3.67A17.322,17.322,0,0,1,46.475,33.61,16.882,16.882,0,0,0,41.305,46v1.639H27.981V46.228a17.415,17.415,0,0,0-5.25-12.685A17.322,17.322,0,0,1,33.8,3.671Zm4.837,53.3H30.646A2.665,2.665,0,0,1,27.981,54.3v-4H41.305v4A2.665,2.665,0,0,1,38.64,56.968ZM2.665,22.324a4,4,0,0,1,4-4h8.194c0,.28-.093.56-.12.839a19.986,19.986,0,0,0,6.169,16.322,14.763,14.763,0,0,1,4.41,10.739V54.3a5.33,5.33,0,0,0,4,5.143v1.519a1.332,1.332,0,0,0,2.665,0V59.632h5.33v1.332a1.332,1.332,0,1,0,2.665,0V59.446a5.33,5.33,0,0,0,4-5.143V46A14.217,14.217,0,0,1,48.3,35.569,19.64,19.64,0,0,0,54.43,18.327h8.194a4,4,0,0,1,4,4V58.3a4,4,0,0,1-4,4H49.3a4,4,0,0,0-3.2,1.6L35.669,77.807a1.412,1.412,0,0,1-2.012,0L23.184,63.9a4,4,0,0,0-3.2-1.6H6.662a4,4,0,0,1-4-4Z" transform="translate(0 -0.983)"/>
          <path id="Shape-11" data-name="Shape" d="M24.332,29A1.332,1.332,0,0,0,23,30.332v4a1.332,1.332,0,1,0,2.665,0v-4A1.332,1.332,0,0,0,24.332,29Z" transform="translate(7.646 8.331)"/>
          <path id="Shape-12" data-name="Shape" d="M23,25.665a1.332,1.332,0,1,0,2.665,0V24.332a1.332,1.332,0,1,0-2.665,0Z" transform="translate(7.646 6.336)"/>
          <path id="Shape-13" data-name="Shape" d="M28.332,35.662a1.332,1.332,0,0,0,1.332-1.332v-4a1.332,1.332,0,0,0-2.665,0v4A1.332,1.332,0,0,0,28.332,35.662Z" transform="translate(8.976 8.331)"/>
          <path id="Shape-14" data-name="Shape" d="M28.332,27a1.332,1.332,0,0,0,1.332-1.332V24.332a1.332,1.332,0,0,0-2.665,0v1.332A1.332,1.332,0,0,0,28.332,27Z" transform="translate(8.976 6.336)"/>
          <path id="Shape-15" data-name="Shape" d="M11.993,9.993a1.329,1.329,0,0,0,.826-2.372L6.157,2.291A1.328,1.328,0,1,0,4.5,4.37L11.167,9.7a1.332,1.332,0,0,0,.826.293Z" transform="translate(1.331 -0.643)"/>
          <path id="Shape-16" data-name="Shape" d="M43.158,9.7l6.662-5.33a1.328,1.328,0,0,0-1.652-2.079l-6.662,5.33A1.328,1.328,0,1,0,43.158,9.7Z" transform="translate(13.63 -0.643)"/>
          <path id="Shape-17" data-name="Shape" d="M4.293,38.519a1.329,1.329,0,0,0,1.865.2l6.662-5.33a1.332,1.332,0,1,0-1.652-2.079L4.506,36.64a1.332,1.332,0,0,0-.213,1.879Z" transform="translate(1.33 8.978)"/>
          <path id="Shape-18" data-name="Shape" d="M48.146,38.684A1.328,1.328,0,1,0,49.8,36.605l-6.662-5.33a1.332,1.332,0,0,0-1.652,2.079Z" transform="translate(13.652 9.013)"/>
          <path id="Shape-19" data-name="Shape" d="M5.332,19.665h4A1.332,1.332,0,1,0,9.33,17h-4a1.332,1.332,0,1,0,0,2.665Z" transform="translate(1.33 4.341)"/>
          <path id="Shape-20" data-name="Shape" d="M44.332,19.665h4a1.332,1.332,0,1,0,0-2.665h-4a1.332,1.332,0,1,0,0,2.665Z" transform="translate(14.294 4.341)"/>
        </g>
      </g>
    </g>
  </g>
</svg>
