<svg xmlns="http://www.w3.org/2000/svg" width="1145" height="611.424" viewBox="0 0 1145 611.424">
  <g id="Grupo_84015" data-name="Grupo 84015" transform="translate(-6411 11258.424)">
    <g id="Grupo_84014" data-name="Grupo 84014" transform="translate(6181.333 -11681)">
      <path id="Trazado_118000" data-name="Trazado 118000" d="M-89.985-6.025h-5.391v3.389h6.367V0H-98.8V-14.219h9.814v2.646h-6.387v3h5.391ZM-75.737,0h-3.408l-5.039-8.848V0h-3.428V-14.219h3.428l5.029,8.848v-8.848h3.418Zm13.809-1.758A5.511,5.511,0,0,1-64.243-.342,9.982,9.982,0,0,1-67.583.2a5.955,5.955,0,0,1-4.463-1.709A6.918,6.918,0,0,1-73.833-6.27l-.01-1.23a8.485,8.485,0,0,1,.742-3.667,5.511,5.511,0,0,1,2.124-2.412,6.008,6.008,0,0,1,3.2-.845,6.3,6.3,0,0,1,4.126,1.216A5.152,5.152,0,0,1-61.938-9.58h-3.3a2.7,2.7,0,0,0-.762-1.7,2.458,2.458,0,0,0-1.66-.508,2.237,2.237,0,0,0-1.992,1.094,5.84,5.84,0,0,0-.713,3.125v.859a5.717,5.717,0,0,0,.728,3.2,2.573,2.573,0,0,0,2.29,1.069,2.88,2.88,0,0,0,1.992-.6V-5.244h-2.383V-7.6h5.811Zm5.42-.879h5.967V0h-9.395V-14.219h3.428ZM-45.444,0h-3.418V-14.219h3.418Zm9.717-3.779a1.408,1.408,0,0,0-.532-1.172,6.615,6.615,0,0,0-1.87-.869,17.942,17.942,0,0,1-2.187-.869q-2.764-1.357-2.764-3.73a3.345,3.345,0,0,1,.688-2.085,4.453,4.453,0,0,1,1.948-1.406,7.582,7.582,0,0,1,2.832-.5,6.632,6.632,0,0,1,2.749.547,4.352,4.352,0,0,1,1.89,1.558A4.068,4.068,0,0,1-32.3-10h-3.418a1.719,1.719,0,0,0-.532-1.348,2.075,2.075,0,0,0-1.44-.479,2.339,2.339,0,0,0-1.45.405,1.243,1.243,0,0,0-.532,1.03,1.252,1.252,0,0,0,.586.991,7.389,7.389,0,0,0,2.061.918A12.623,12.623,0,0,1-34.6-7.461,4.07,4.07,0,0,1-32.3-3.8a3.472,3.472,0,0,1-1.406,2.93A6.255,6.255,0,0,1-37.563.2a7.653,7.653,0,0,1-3.13-.62,4.719,4.719,0,0,1-2.109-1.7,4.428,4.428,0,0,1-.708-2.485h3.438a2.181,2.181,0,0,0,.591,1.685,2.793,2.793,0,0,0,1.919.542,2.206,2.206,0,0,0,1.343-.366A1.209,1.209,0,0,0-35.728-3.779ZM-18.657,0h-3.408V-5.937h-5.049V0h-3.428V-14.219h3.428v5.645h5.049v-5.645h3.408Zm7.148,0V-14.219h4.58a6.737,6.737,0,0,1,3.389.854,6.006,6.006,0,0,1,2.349,2.412A7.283,7.283,0,0,1-.337-7.461v.654a7.325,7.325,0,0,1-.825,3.5A6.032,6.032,0,0,1-3.486-.884,6.589,6.589,0,0,1-6.831,0Zm3.428-11.572v8.936H-6.89a2.666,2.666,0,0,0,2.266-1.05,5.145,5.145,0,0,0,.791-3.12v-.615a5.1,5.1,0,0,0-.791-3.105,2.713,2.713,0,0,0-2.3-1.045ZM13.462-6.816a8.385,8.385,0,0,1-.771,3.682A5.7,5.7,0,0,1,10.5-.669,6.1,6.1,0,0,1,7.261.2,6.191,6.191,0,0,1,4.038-.64,5.692,5.692,0,0,1,1.846-3.027a8.144,8.144,0,0,1-.825-3.564v-.8a8.422,8.422,0,0,1,.767-3.687,5.688,5.688,0,0,1,2.2-2.466,6.147,6.147,0,0,1,3.257-.869,6.087,6.087,0,0,1,3.223.859,5.79,5.79,0,0,1,2.2,2.446,8.18,8.18,0,0,1,.8,3.638Zm-3.486-.6a5.979,5.979,0,0,0-.708-3.218,2.271,2.271,0,0,0-2.026-1.1q-2.578,0-2.725,3.867l-.01,1.045A6.149,6.149,0,0,0,5.2-3.6,2.268,2.268,0,0,0,7.261-2.48a2.24,2.24,0,0,0,2-1.1,5.982,5.982,0,0,0,.713-3.174ZM24.048-6.025H18.657v3.389h6.367V0H15.229V-14.219h9.814v2.646H18.657v3h5.391Zm9.707,2.246a1.408,1.408,0,0,0-.532-1.172,6.615,6.615,0,0,0-1.87-.869,17.942,17.942,0,0,1-2.187-.869Q26.4-8.047,26.4-10.42A3.345,3.345,0,0,1,27.09-12.5a4.453,4.453,0,0,1,1.948-1.406,7.582,7.582,0,0,1,2.832-.5,6.632,6.632,0,0,1,2.749.547,4.352,4.352,0,0,1,1.89,1.558A4.068,4.068,0,0,1,37.183-10H33.765a1.719,1.719,0,0,0-.532-1.348,2.075,2.075,0,0,0-1.44-.479,2.339,2.339,0,0,0-1.45.405,1.243,1.243,0,0,0-.532,1.03A1.252,1.252,0,0,0,30.4-9.4a7.389,7.389,0,0,0,2.061.918,12.623,12.623,0,0,1,2.422,1.021,4.07,4.07,0,0,1,2.3,3.662,3.472,3.472,0,0,1-1.406,2.93A6.255,6.255,0,0,1,31.919.2a7.653,7.653,0,0,1-3.13-.62,4.719,4.719,0,0,1-2.109-1.7,4.427,4.427,0,0,1-.708-2.485h3.438A2.181,2.181,0,0,0,30-2.925a2.793,2.793,0,0,0,1.919.542,2.206,2.206,0,0,0,1.343-.366A1.209,1.209,0,0,0,33.755-3.779ZM54.937-5.3l1.631-8.916h3.4L56.948,0H53.394l-1.9-8.105L49.624,0H46.079L43.052-14.219H46.46L48.091-5.3l1.953-8.916h2.91ZM73.345-6.816a8.385,8.385,0,0,1-.771,3.682A5.7,5.7,0,0,1,70.381-.669,6.1,6.1,0,0,1,67.144.2,6.191,6.191,0,0,1,63.921-.64a5.692,5.692,0,0,1-2.192-2.388A8.144,8.144,0,0,1,60.9-6.592v-.8a8.422,8.422,0,0,1,.767-3.687,5.688,5.688,0,0,1,2.2-2.466,6.147,6.147,0,0,1,3.257-.869,6.087,6.087,0,0,1,3.223.859,5.79,5.79,0,0,1,2.2,2.446,8.18,8.18,0,0,1,.8,3.638Zm-3.486-.6a5.979,5.979,0,0,0-.708-3.218,2.271,2.271,0,0,0-2.026-1.1q-2.578,0-2.725,3.867l-.01,1.045A6.149,6.149,0,0,0,65.083-3.6,2.268,2.268,0,0,0,67.144-2.48a2.24,2.24,0,0,0,2-1.1,5.982,5.982,0,0,0,.713-3.174ZM80.4-5.02H78.54V0H75.112V-14.219h5.6A6.241,6.241,0,0,1,84.663-13.1a3.807,3.807,0,0,1,1.426,3.174,4.625,4.625,0,0,1-.6,2.461,4.264,4.264,0,0,1-1.88,1.582L86.577-.146V0H82.905ZM78.54-7.666h2.168a1.949,1.949,0,0,0,1.47-.513,1.979,1.979,0,0,0,.493-1.431,2,2,0,0,0-.5-1.44,1.931,1.931,0,0,0-1.465-.522H78.54ZM92.993-5.293,91.587-3.75V0H88.159V-14.219h3.428v6.27l1.191-1.807,3.066-4.463h4.238l-4.8,6.289,4.8,7.93H96.021Z" transform="translate(799.667 437)" fill="#12263f"/>
      <rect id="Rectángulo_34102" data-name="Rectángulo 34102" width="190" height="68" rx="10" transform="translate(389.667 834)" fill="#6b8dff"/>
      <rect id="Rectángulo_34106" data-name="Rectángulo 34106" width="190" height="68" rx="10" transform="translate(1019.667 834)" fill="#6b8dff"/>
      <rect id="Rectángulo_34104" data-name="Rectángulo 34104" width="190" height="71" rx="10" transform="translate(514.667 654)" fill="#6b8dff"/>
      <rect id="Rectángulo_34107" data-name="Rectángulo 34107" width="190" height="46" rx="23" transform="translate(359.667 535)" fill="#c4d1ff"/>
      <rect id="Rectángulo_34113" data-name="Rectángulo 34113" width="190" height="46" rx="23" transform="translate(989.667 535)" fill="#c4d1ff"/>
      <rect id="Rectángulo_34114" data-name="Rectángulo 34114" width="190" height="46" rx="23" transform="translate(1174.667 651)" fill="#c4d1ff"/>
      <rect id="Rectángulo_34108" data-name="Rectángulo 34108" width="190" height="46" rx="23" transform="translate(229.667 666)" fill="#c4d1ff"/>
      <rect id="Rectángulo_34109" data-name="Rectángulo 34109" width="190" height="46" rx="23" transform="translate(229.667 988)" fill="#c4d1ff"/>
      <rect id="Rectángulo_34110" data-name="Rectángulo 34110" width="190" height="46" rx="23" transform="translate(494.667 988)" fill="#c4d1ff"/>
      <rect id="Rectángulo_34111" data-name="Rectángulo 34111" width="226" height="59" rx="29.5" transform="translate(853.667 975)" fill="#c4d1ff"/>
      <rect id="Rectángulo_34112" data-name="Rectángulo 34112" width="230" height="59" rx="29.5" transform="translate(1144.667 975)" fill="#c4d1ff"/>
      <rect id="Rectángulo_34105" data-name="Rectángulo 34105" width="190" height="71" rx="10" transform="translate(914.667 654)" fill="#6b8dff"/>
      <path id="Trazado_118003" data-name="Trazado 118003" d="M-38.892-4.824V0h-3.428V-14.219h5.674a6.608,6.608,0,0,1,2.886.6,4.526,4.526,0,0,1,1.943,1.709,4.667,4.667,0,0,1,.688,2.515,4.114,4.114,0,0,1-1.489,3.325A6.179,6.179,0,0,1-36.7-4.824Zm0-2.646h2.246a2.118,2.118,0,0,0,1.519-.5A1.85,1.85,0,0,0-34.6-9.375a2.287,2.287,0,0,0-.537-1.592,1.9,1.9,0,0,0-1.465-.605h-2.285Zm15.83-.117-1.084-.078a1.947,1.947,0,0,0-1.992.977V0h-3.291V-10.566h3.086l.107,1.357a2.548,2.548,0,0,1,2.314-1.553,3.209,3.209,0,0,1,.918.117Zm.42,2.207A6.236,6.236,0,0,1-22.026-8.2a4.4,4.4,0,0,1,1.768-1.9,5.323,5.323,0,0,1,2.705-.664,4.858,4.858,0,0,1,3.74,1.47,5.64,5.64,0,0,1,1.367,4v.117a5.472,5.472,0,0,1-1.372,3.921A4.871,4.871,0,0,1-17.534.2a4.927,4.927,0,0,1-3.623-1.353,5.29,5.29,0,0,1-1.475-3.667Zm3.291.205a3.932,3.932,0,0,0,.459,2.148,1.529,1.529,0,0,0,1.357.684q1.758,0,1.8-2.705v-.332q0-2.842-1.816-2.842-1.65,0-1.787,2.451Zm11.377-5.391.107,1.24a3.583,3.583,0,0,1,3.018-1.436,3.015,3.015,0,0,1,2.466.986,4.7,4.7,0,0,1,.845,2.969V0h-3.3V-6.67a1.783,1.783,0,0,0-.322-1.177,1.491,1.491,0,0,0-1.172-.376,1.569,1.569,0,0,0-1.436.762V0H-11.06V-10.566ZM-.132-5.381A6.236,6.236,0,0,1,.483-8.2a4.4,4.4,0,0,1,1.768-1.9,5.323,5.323,0,0,1,2.705-.664A4.858,4.858,0,0,1,8.7-9.292a5.64,5.64,0,0,1,1.367,4v.117A5.472,5.472,0,0,1,8.691-1.255,4.871,4.871,0,0,1,4.976.2,4.927,4.927,0,0,1,1.353-1.157,5.29,5.29,0,0,1-.122-4.824Zm3.291.205a3.932,3.932,0,0,0,.459,2.148,1.529,1.529,0,0,0,1.357.684q1.758,0,1.8-2.705v-.332q0-2.842-1.816-2.842-1.65,0-1.787,2.451ZM17.808-1.143A3.393,3.393,0,0,1,14.985.2,3.328,3.328,0,0,1,12.354-.815a4.251,4.251,0,0,1-.894-2.905v-6.846h3.291V-3.7a1.183,1.183,0,0,0,1.318,1.357,1.72,1.72,0,0,0,1.611-.811v-7.412h3.311V0H17.905Zm8.008-9.424.107,1.24a3.583,3.583,0,0,1,3.018-1.436,3.015,3.015,0,0,1,2.466.986,4.7,4.7,0,0,1,.845,2.969V0h-3.3V-6.67a1.783,1.783,0,0,0-.322-1.177,1.491,1.491,0,0,0-1.172-.376,1.569,1.569,0,0,0-1.436.762V0H22.729V-10.566ZM39.6-2.969a.76.76,0,0,0-.439-.674A6.685,6.685,0,0,0,37.5-4.17a7.615,7.615,0,0,1-2.031-.718,3.4,3.4,0,0,1-1.221-1.079,2.577,2.577,0,0,1-.42-1.455,2.92,2.92,0,0,1,1.2-2.4,4.948,4.948,0,0,1,3.145-.942,5.482,5.482,0,0,1,3.359.947,2.962,2.962,0,0,1,1.27,2.49H39.5q0-1.27-1.338-1.27a1.326,1.326,0,0,0-.869.288.892.892,0,0,0-.352.718.819.819,0,0,0,.43.713,4.06,4.06,0,0,0,1.372.449,11.857,11.857,0,0,1,1.655.42,3.007,3.007,0,0,1,2.383,2.939A2.767,2.767,0,0,1,41.494-.713,5.632,5.632,0,0,1,38.169.2a5.747,5.747,0,0,1-2.422-.488,4.05,4.05,0,0,1-1.66-1.328,3.007,3.007,0,0,1-.6-1.768h3.076a1.272,1.272,0,0,0,.488,1.069,2.009,2.009,0,0,0,1.2.337,1.58,1.58,0,0,0,1.011-.273A.875.875,0,0,0,39.6-2.969Z" transform="translate(611.667 697)" fill="#12263f"/>
      <path id="Trazado_118010" data-name="Trazado 118010" d="M-35.674-4.824V0H-39.1V-14.219h5.674a6.608,6.608,0,0,1,2.886.6A4.526,4.526,0,0,1-28.6-11.909a4.667,4.667,0,0,1,.688,2.515A4.114,4.114,0,0,1-29.4-6.069a6.179,6.179,0,0,1-4.087,1.245Zm0-2.646h2.246a2.118,2.118,0,0,0,1.519-.5,1.85,1.85,0,0,0,.522-1.406,2.287,2.287,0,0,0-.537-1.592,1.9,1.9,0,0,0-1.465-.605h-2.285ZM-21.123.2a5.432,5.432,0,0,1-3.936-1.45,5.008,5.008,0,0,1-1.5-3.774V-5.3a6.489,6.489,0,0,1,.6-2.861,4.395,4.395,0,0,1,1.753-1.919,5.292,5.292,0,0,1,2.734-.679A4.574,4.574,0,0,1-17.959-9.38,5.43,5.43,0,0,1-16.67-5.527v1.279h-6.543a2.372,2.372,0,0,0,.771,1.4,2.3,2.3,0,0,0,1.543.508,2.958,2.958,0,0,0,2.441-1.094l1.5,1.777A4.2,4.2,0,0,1-18.7-.308,5.891,5.891,0,0,1-21.123.2Zm-.371-8.418q-1.445,0-1.719,1.914h3.32v-.254a1.63,1.63,0,0,0-.4-1.226A1.593,1.593,0,0,0-21.494-8.223Zm12.539.635-1.084-.078a1.947,1.947,0,0,0-1.992.977V0h-3.291V-10.566h3.086l.107,1.357a2.548,2.548,0,0,1,2.314-1.553,3.209,3.209,0,0,1,.918.117Zm6.719,4.619a.76.76,0,0,0-.439-.674,6.685,6.685,0,0,0-1.67-.527,7.615,7.615,0,0,1-2.031-.718A3.4,3.4,0,0,1-7.6-5.967a2.577,2.577,0,0,1-.42-1.455,2.92,2.92,0,0,1,1.2-2.4,4.948,4.948,0,0,1,3.145-.942,5.482,5.482,0,0,1,3.359.947,2.962,2.962,0,0,1,1.27,2.49h-3.3q0-1.27-1.338-1.27a1.326,1.326,0,0,0-.869.288.892.892,0,0,0-.352.718.819.819,0,0,0,.43.713A4.06,4.06,0,0,0-3.1-6.426a11.857,11.857,0,0,1,1.655.42A3.007,3.007,0,0,1,.938-3.066,2.767,2.767,0,0,1-.347-.713,5.632,5.632,0,0,1-3.672.2,5.747,5.747,0,0,1-6.094-.293a4.05,4.05,0,0,1-1.66-1.328,3.007,3.007,0,0,1-.6-1.768h3.076a1.272,1.272,0,0,0,.488,1.069,2.009,2.009,0,0,0,1.2.337,1.58,1.58,0,0,0,1.011-.273A.875.875,0,0,0-2.236-2.969Zm4.3-2.412A6.236,6.236,0,0,1,2.676-8.2a4.4,4.4,0,0,1,1.768-1.9,5.323,5.323,0,0,1,2.705-.664,4.858,4.858,0,0,1,3.74,1.47,5.64,5.64,0,0,1,1.367,4v.117a5.472,5.472,0,0,1-1.372,3.921A4.871,4.871,0,0,1,7.168.2,4.927,4.927,0,0,1,3.545-1.157,5.29,5.29,0,0,1,2.07-4.824Zm3.291.205a3.932,3.932,0,0,0,.459,2.148,1.529,1.529,0,0,0,1.357.684q1.758,0,1.8-2.705v-.332q0-2.842-1.816-2.842-1.65,0-1.787,2.451Zm11.377-5.391.107,1.24a3.583,3.583,0,0,1,3.018-1.436,3.015,3.015,0,0,1,2.466.986,4.7,4.7,0,0,1,.845,2.969V0h-3.3V-6.67a1.783,1.783,0,0,0-.322-1.177,1.491,1.491,0,0,0-1.172-.376,1.569,1.569,0,0,0-1.436.762V0H13.643V-10.566ZM30.938,0a3.716,3.716,0,0,1-.312-.947A3.06,3.06,0,0,1,28.086.2a3.749,3.749,0,0,1-2.539-.9A2.875,2.875,0,0,1,24.5-2.979a2.955,2.955,0,0,1,1.27-2.6,6.468,6.468,0,0,1,3.691-.879h1.016v-.557q0-1.455-1.26-1.455a1.027,1.027,0,0,0-1.172,1.152H24.756a2.955,2.955,0,0,1,1.3-2.49,5.474,5.474,0,0,1,3.325-.957,4.8,4.8,0,0,1,3.193.986,3.429,3.429,0,0,1,1.2,2.705v4.678a4.79,4.79,0,0,0,.449,2.227V0ZM28.877-2.148A1.836,1.836,0,0,0,29.9-2.412a1.653,1.653,0,0,0,.581-.6V-4.7h-.957Q27.8-4.7,27.8-3.154a.942.942,0,0,0,.3.728A1.1,1.1,0,0,0,28.877-2.148ZM39.072,0h-3.3V-15h3.3ZM-48.379,27h-3.3V16.434h3.3Zm-3.5-13.291a1.469,1.469,0,0,1,.508-1.152,1.916,1.916,0,0,1,1.318-.449,1.916,1.916,0,0,1,1.318.449,1.469,1.469,0,0,1,.508,1.152,1.469,1.469,0,0,1-.508,1.152,1.916,1.916,0,0,1-1.318.449,1.916,1.916,0,0,1-1.318-.449A1.469,1.469,0,0,1-51.875,13.709Zm8.545,2.725.107,1.24a3.583,3.583,0,0,1,3.018-1.436,3.015,3.015,0,0,1,2.466.986,4.7,4.7,0,0,1,.845,2.969V27h-3.3V20.33a1.783,1.783,0,0,0-.322-1.177,1.491,1.491,0,0,0-1.172-.376,1.569,1.569,0,0,0-1.436.762V27h-3.291V16.434ZM-34.346,27V18.719h-1.533V16.434h1.533v-.84a3.651,3.651,0,0,1,1.064-2.8,4.206,4.206,0,0,1,2.988-1A6.544,6.544,0,0,1-28.75,12l.01,2.422a3.007,3.007,0,0,0-.811-.088q-1.494,0-1.494,1.289v.811h2.061v2.285h-2.061V27Zm6.1-5.381a6.236,6.236,0,0,1,.615-2.817,4.4,4.4,0,0,1,1.768-1.9,5.323,5.323,0,0,1,2.705-.664,4.858,4.858,0,0,1,3.74,1.47,5.64,5.64,0,0,1,1.367,4v.117a5.472,5.472,0,0,1-1.372,3.921,4.871,4.871,0,0,1-3.716,1.45,4.927,4.927,0,0,1-3.623-1.353,5.29,5.29,0,0,1-1.475-3.667Zm3.291.205a3.932,3.932,0,0,0,.459,2.148,1.529,1.529,0,0,0,1.357.684q1.758,0,1.8-2.705v-.332q0-2.842-1.816-2.842-1.65,0-1.787,2.451Zm14.746-2.412-1.084-.078a1.947,1.947,0,0,0-1.992.977V27h-3.291V16.434h3.086l.107,1.357a2.548,2.548,0,0,1,2.314-1.553,3.209,3.209,0,0,1,.918.117Zm4.3-2.979.107,1.24a3.633,3.633,0,0,1,3.018-1.436A2.675,2.675,0,0,1-.078,17.83a3.517,3.517,0,0,1,3.105-1.592q3.213,0,3.3,3.887V27h-3.3V20.33a2.014,2.014,0,0,0-.273-1.182,1.164,1.164,0,0,0-1-.371A1.559,1.559,0,0,0,.3,19.646l.01.137V27h-3.3V20.35a2.117,2.117,0,0,0-.264-1.2,1.161,1.161,0,0,0-1.006-.371,1.578,1.578,0,0,0-1.445.869V27H-8.994V16.434ZM14.16,27a3.716,3.716,0,0,1-.312-.947A3.06,3.06,0,0,1,11.309,27.2a3.749,3.749,0,0,1-2.539-.9,2.875,2.875,0,0,1-1.045-2.271,2.955,2.955,0,0,1,1.27-2.6,6.468,6.468,0,0,1,3.691-.879H13.7v-.557q0-1.455-1.26-1.455a1.027,1.027,0,0,0-1.172,1.152H7.979a2.955,2.955,0,0,1,1.3-2.49,5.474,5.474,0,0,1,3.325-.957,4.8,4.8,0,0,1,3.193.986A3.429,3.429,0,0,1,17,19.93v4.678a4.79,4.79,0,0,0,.449,2.227V27ZM12.1,24.852a1.836,1.836,0,0,0,1.021-.264,1.653,1.653,0,0,0,.581-.6V22.3h-.957q-1.719,0-1.719,1.543a.942.942,0,0,0,.3.728A1.1,1.1,0,0,0,12.1,24.852ZM22.656,13.807v2.627h1.738v2.285H22.656v4.834a1.234,1.234,0,0,0,.215.83,1.152,1.152,0,0,0,.85.234,4.828,4.828,0,0,0,.82-.059v2.354a6.074,6.074,0,0,1-1.855.283,3.448,3.448,0,0,1-2.51-.8,3.282,3.282,0,0,1-.811-2.432V18.719H18.018V16.434h1.348V13.807ZM29.16,27h-3.3V16.434h3.3Zm-3.5-13.291a1.469,1.469,0,0,1,.508-1.152,2.159,2.159,0,0,1,2.637,0,1.561,1.561,0,0,1,0,2.3,2.159,2.159,0,0,1-2.637,0A1.469,1.469,0,0,1,25.664,13.709Zm5.107,7.91a6.236,6.236,0,0,1,.615-2.817,4.4,4.4,0,0,1,1.768-1.9,5.323,5.323,0,0,1,2.705-.664,4.858,4.858,0,0,1,3.74,1.47,5.64,5.64,0,0,1,1.367,4v.117a5.472,5.472,0,0,1-1.372,3.921,4.871,4.871,0,0,1-3.716,1.45,4.927,4.927,0,0,1-3.623-1.353,5.29,5.29,0,0,1-1.475-3.667Zm3.291.205a3.932,3.932,0,0,0,.459,2.148,1.529,1.529,0,0,0,1.357.684q1.758,0,1.8-2.705v-.332q0-2.842-1.816-2.842-1.65,0-1.787,2.451Zm11.377-5.391.107,1.24a3.583,3.583,0,0,1,3.018-1.436,3.015,3.015,0,0,1,2.466.986,4.7,4.7,0,0,1,.845,2.969V27h-3.3V20.33a1.783,1.783,0,0,0-.322-1.177,1.491,1.491,0,0,0-1.172-.376,1.569,1.569,0,0,0-1.436.762V27H42.354V16.434Z" transform="translate(1009.667 683)" fill="#12263f"/>
      <path id="Trazado_118009" data-name="Trazado 118009" d="M-19.873-5.664H-25.4V0h-3.428V-14.219h9.512v2.646H-25.4V-8.3h5.527ZM-12.422,0a3.716,3.716,0,0,1-.312-.947A3.06,3.06,0,0,1-15.273.2a3.749,3.749,0,0,1-2.539-.9,2.875,2.875,0,0,1-1.045-2.271,2.955,2.955,0,0,1,1.27-2.6A6.468,6.468,0,0,1-13.9-6.455h1.016v-.557q0-1.455-1.26-1.455a1.027,1.027,0,0,0-1.172,1.152H-18.6A2.955,2.955,0,0,1-17.3-9.8a5.474,5.474,0,0,1,3.325-.957,4.8,4.8,0,0,1,3.193.986A3.429,3.429,0,0,1-9.58-7.07v4.678A4.79,4.79,0,0,0-9.131-.166V0Zm-2.061-2.148a1.836,1.836,0,0,0,1.021-.264,1.653,1.653,0,0,0,.581-.6V-4.7h-.957q-1.719,0-1.719,1.543a.942.942,0,0,0,.3.728A1.1,1.1,0,0,0-14.482-2.148Zm9.834-8.418.107,1.24a3.633,3.633,0,0,1,3.018-1.436A2.675,2.675,0,0,1,1.182-9.17a3.517,3.517,0,0,1,3.105-1.592q3.213,0,3.3,3.887V0h-3.3V-6.67a2.014,2.014,0,0,0-.273-1.182,1.164,1.164,0,0,0-1-.371,1.559,1.559,0,0,0-1.455.869l.01.137V0h-3.3V-6.65a2.117,2.117,0,0,0-.264-1.2A1.161,1.161,0,0,0-3-8.223a1.578,1.578,0,0,0-1.445.869V0H-7.734V-10.566ZM12.939,0h-3.3V-10.566h3.3Zm-3.5-13.291a1.469,1.469,0,0,1,.508-1.152,1.916,1.916,0,0,1,1.318-.449,1.916,1.916,0,0,1,1.318.449,1.469,1.469,0,0,1,.508,1.152,1.469,1.469,0,0,1-.508,1.152,1.916,1.916,0,0,1-1.318.449,1.916,1.916,0,0,1-1.318-.449A1.469,1.469,0,0,1,9.443-13.291ZM18.438,0h-3.3V-15h3.3Zm6.25-4.609,1.758-5.957h3.525L25.664,1.768l-.186.449a3.272,3.272,0,0,1-3.242,2.051,5.139,5.139,0,0,1-1.357-.2V1.719h.43a2.252,2.252,0,0,0,1.06-.2A1.215,1.215,0,0,0,22.91.8l.264-.7L19.5-10.566h3.516Z" transform="translate(1114.667 875)" fill="#12263f"/>
      <path id="Trazado_118004" data-name="Trazado 118004" d="M-60.908-3.779a1.408,1.408,0,0,0-.532-1.172,6.615,6.615,0,0,0-1.87-.869A17.941,17.941,0,0,1-65.5-6.689q-2.764-1.357-2.764-3.73a3.345,3.345,0,0,1,.688-2.085,4.453,4.453,0,0,1,1.948-1.406,7.582,7.582,0,0,1,2.832-.5,6.632,6.632,0,0,1,2.749.547,4.352,4.352,0,0,1,1.89,1.558A4.068,4.068,0,0,1-57.48-10H-60.9a1.719,1.719,0,0,0-.532-1.348,2.075,2.075,0,0,0-1.44-.479,2.339,2.339,0,0,0-1.45.405,1.243,1.243,0,0,0-.532,1.03,1.252,1.252,0,0,0,.586.991,7.389,7.389,0,0,0,2.061.918,12.623,12.623,0,0,1,2.422,1.021A4.07,4.07,0,0,1-57.48-3.8a3.472,3.472,0,0,1-1.406,2.93A6.255,6.255,0,0,1-62.744.2a7.653,7.653,0,0,1-3.13-.62,4.719,4.719,0,0,1-2.109-1.7,4.427,4.427,0,0,1-.708-2.485h3.438a2.181,2.181,0,0,0,.591,1.685,2.793,2.793,0,0,0,1.919.542A2.206,2.206,0,0,0-61.4-2.749,1.209,1.209,0,0,0-60.908-3.779ZM-52.4,0h-3.3V-10.566h3.3Zm-3.5-13.291a1.469,1.469,0,0,1,.508-1.152,1.916,1.916,0,0,1,1.318-.449,1.916,1.916,0,0,1,1.318.449,1.469,1.469,0,0,1,.508,1.152,1.469,1.469,0,0,1-.508,1.152,1.916,1.916,0,0,1-1.318.449,1.916,1.916,0,0,1-1.318-.449A1.469,1.469,0,0,1-55.9-13.291Zm8.633,2.725.107,1.24a3.633,3.633,0,0,1,3.018-1.436A2.675,2.675,0,0,1-41.436-9.17a3.516,3.516,0,0,1,3.105-1.592q3.213,0,3.3,3.887V0h-3.3V-6.67A2.014,2.014,0,0,0-38.6-7.852a1.164,1.164,0,0,0-1-.371,1.559,1.559,0,0,0-1.455.869l.01.137V0h-3.3V-6.65a2.117,2.117,0,0,0-.264-1.2,1.161,1.161,0,0,0-1.006-.371,1.578,1.578,0,0,0-1.445.869V0h-3.291V-10.566ZM-23.34-5.205a6.372,6.372,0,0,1-1.108,3.931A3.554,3.554,0,0,1-27.441.2,3.046,3.046,0,0,1-29.834-.869V4.063h-3.291V-10.566h3.076l.1.977a3.046,3.046,0,0,1,2.49-1.172,3.582,3.582,0,0,1,3.037,1.44,6.45,6.45,0,0,1,1.084,3.96Zm-3.291-.205q0-2.812-1.641-2.812a1.549,1.549,0,0,0-1.562.84v4.16a1.6,1.6,0,0,0,1.582.879q1.572,0,1.621-2.715ZM-18.418,0h-3.3V-15h3.3Zm7.139.2a5.432,5.432,0,0,1-3.936-1.45,5.008,5.008,0,0,1-1.5-3.774V-5.3a6.489,6.489,0,0,1,.6-2.861,4.395,4.395,0,0,1,1.753-1.919,5.292,5.292,0,0,1,2.734-.679A4.574,4.574,0,0,1-8.115-9.38,5.43,5.43,0,0,1-6.826-5.527v1.279h-6.543a2.372,2.372,0,0,0,.771,1.4,2.3,2.3,0,0,0,1.543.508A2.958,2.958,0,0,0-8.613-3.437l1.5,1.777A4.2,4.2,0,0,1-8.853-.308,5.891,5.891,0,0,1-11.279.2Zm-.371-8.418q-1.445,0-1.719,1.914h3.32v-.254a1.63,1.63,0,0,0-.4-1.226A1.593,1.593,0,0,0-11.65-8.223Zm14.707,3.4V0H-.371V-14.219H5.3a6.608,6.608,0,0,1,2.886.6,4.526,4.526,0,0,1,1.943,1.709,4.667,4.667,0,0,1,.688,2.515A4.114,4.114,0,0,1,9.331-6.069,6.179,6.179,0,0,1,5.244-4.824Zm0-2.646H5.3a2.118,2.118,0,0,0,1.519-.5,1.85,1.85,0,0,0,.522-1.406,2.287,2.287,0,0,0-.537-1.592,1.9,1.9,0,0,0-1.465-.605H3.057Zm15.83-.117L17.8-7.666a1.947,1.947,0,0,0-1.992.977V0H12.52V-10.566h3.086l.107,1.357a2.548,2.548,0,0,1,2.314-1.553,3.209,3.209,0,0,1,.918.117ZM25.186.2a5.432,5.432,0,0,1-3.936-1.45,5.008,5.008,0,0,1-1.5-3.774V-5.3a6.489,6.489,0,0,1,.6-2.861A4.395,4.395,0,0,1,22.1-10.083a5.292,5.292,0,0,1,2.734-.679A4.574,4.574,0,0,1,28.35-9.38a5.43,5.43,0,0,1,1.289,3.853v1.279H23.1a2.372,2.372,0,0,0,.771,1.4,2.3,2.3,0,0,0,1.543.508,2.958,2.958,0,0,0,2.441-1.094l1.5,1.777A4.2,4.2,0,0,1,27.612-.308,5.891,5.891,0,0,1,25.186.2Zm-.371-8.418q-1.445,0-1.719,1.914h3.32v-.254a1.63,1.63,0,0,0-.4-1.226A1.593,1.593,0,0,0,24.814-8.223Zm11.68,5.254a.76.76,0,0,0-.439-.674,6.685,6.685,0,0,0-1.67-.527,7.615,7.615,0,0,1-2.031-.718,3.4,3.4,0,0,1-1.221-1.079,2.577,2.577,0,0,1-.42-1.455,2.92,2.92,0,0,1,1.2-2.4,4.948,4.948,0,0,1,3.145-.942,5.482,5.482,0,0,1,3.359.947,2.962,2.962,0,0,1,1.27,2.49h-3.3q0-1.27-1.338-1.27a1.326,1.326,0,0,0-.869.288.892.892,0,0,0-.352.718.819.819,0,0,0,.43.713,4.06,4.06,0,0,0,1.372.449,11.857,11.857,0,0,1,1.655.42,3.007,3.007,0,0,1,2.383,2.939A2.767,2.767,0,0,1,38.384-.713,5.632,5.632,0,0,1,35.059.2a5.747,5.747,0,0,1-2.422-.488,4.05,4.05,0,0,1-1.66-1.328,3.007,3.007,0,0,1-.6-1.768h3.076a1.272,1.272,0,0,0,.488,1.069,2.009,2.009,0,0,0,1.2.337,1.58,1.58,0,0,0,1.011-.273A.875.875,0,0,0,36.494-2.969ZM46.318.2a5.432,5.432,0,0,1-3.936-1.45,5.008,5.008,0,0,1-1.5-3.774V-5.3a6.489,6.489,0,0,1,.6-2.861,4.395,4.395,0,0,1,1.753-1.919,5.292,5.292,0,0,1,2.734-.679A4.574,4.574,0,0,1,49.482-9.38a5.43,5.43,0,0,1,1.289,3.853v1.279H44.229A2.372,2.372,0,0,0,45-2.852a2.3,2.3,0,0,0,1.543.508,2.958,2.958,0,0,0,2.441-1.094l1.5,1.777A4.2,4.2,0,0,1,48.745-.308,5.891,5.891,0,0,1,46.318.2Zm-.371-8.418q-1.445,0-1.719,1.914h3.32v-.254a1.63,1.63,0,0,0-.4-1.226A1.593,1.593,0,0,0,45.947-8.223Zm9.17-2.344.107,1.24a3.583,3.583,0,0,1,3.018-1.436,3.015,3.015,0,0,1,2.466.986,4.7,4.7,0,0,1,.845,2.969V0h-3.3V-6.67a1.783,1.783,0,0,0-.322-1.177,1.491,1.491,0,0,0-1.172-.376,1.569,1.569,0,0,0-1.436.762V0H52.031V-10.566Zm12.09-2.627v2.627h1.738v2.285H67.207v4.834a1.234,1.234,0,0,0,.215.83,1.152,1.152,0,0,0,.85.234,4.828,4.828,0,0,0,.82-.059V-.088A6.074,6.074,0,0,1,67.236.2a3.448,3.448,0,0,1-2.51-.8,3.282,3.282,0,0,1-.811-2.432V-8.281H62.568v-2.285h1.348v-2.627Z" transform="translate(484.667 875)" fill="#12263f"/>
      <path id="Trazado_118005" data-name="Trazado 118005" d="M-18.447-8.066h3.33v2.822h-3.33v3.818h-3.076V-5.244h-3.34V-8.066h3.34v-3.711h3.076Zm5.908,11.895-1.66-.781.332-.664a5.416,5.416,0,0,0,.713-2.422V-2.48h2.637l-.01,2.119A5.3,5.3,0,0,1-11.1,1.924,5.806,5.806,0,0,1-12.539,3.828ZM3.105-4.854H-2.764V-7.4H3.105ZM6.826,3.828l-1.66-.781L5.5,2.383A5.416,5.416,0,0,0,6.211-.039V-2.48H8.848L8.838-.361a5.3,5.3,0,0,1-.576,2.285A5.806,5.806,0,0,1,6.826,3.828ZM18.477-4.5A6.356,6.356,0,0,1,18.8-6.753a3.521,3.521,0,0,1,1.045-1.431,6.947,6.947,0,0,0,1.1-1.108,1.809,1.809,0,0,0,.376-1.108q0-1.475-1.27-1.475a1.178,1.178,0,0,0-.947.43,1.827,1.827,0,0,0-.381,1.162h-3.3a3.937,3.937,0,0,1,1.23-3.042,4.906,4.906,0,0,1,3.4-1.089,5.1,5.1,0,0,1,3.374,1.006,3.53,3.53,0,0,1,1.2,2.861A3.333,3.333,0,0,1,24.3-9.072a4.984,4.984,0,0,1-1.035,1.357L22.139-6.67a2.642,2.642,0,0,0-.664.942A3.735,3.735,0,0,0,21.27-4.5Zm-.4,2.969A1.516,1.516,0,0,1,18.6-2.72a1.892,1.892,0,0,1,1.3-.464,1.892,1.892,0,0,1,1.3.464,1.516,1.516,0,0,1,.522,1.187,1.516,1.516,0,0,1-.522,1.187,1.892,1.892,0,0,1-1.3.464,1.892,1.892,0,0,1-1.3-.464A1.516,1.516,0,0,1,18.076-1.533Z" transform="translate(324.667 1018)" fill="#12263f"/>
      <path id="Trazado_118007" data-name="Trazado 118007" d="M27.217,21H23.8V6.781h3.418Zm5.254-10.566.107,1.24A3.583,3.583,0,0,1,35.6,10.238a3.015,3.015,0,0,1,2.466.986,4.7,4.7,0,0,1,.845,2.969V21h-3.3V14.33a1.783,1.783,0,0,0-.322-1.177,1.491,1.491,0,0,0-1.172-.376,1.569,1.569,0,0,0-1.436.762V21H29.385V10.434Zm11.367,0,.107,1.24a3.633,3.633,0,0,1,3.018-1.436,2.675,2.675,0,0,1,2.705,1.592,3.516,3.516,0,0,1,3.105-1.592q3.213,0,3.3,3.887V21h-3.3V14.33a2.014,2.014,0,0,0-.273-1.182,1.164,1.164,0,0,0-1-.371,1.559,1.559,0,0,0-1.455.869l.01.137V21h-3.3V14.35a2.117,2.117,0,0,0-.264-1.2,1.161,1.161,0,0,0-1.006-.371,1.578,1.578,0,0,0-1.445.869V21H40.752V10.434ZM63.066,21.2a5.432,5.432,0,0,1-3.936-1.45,5.008,5.008,0,0,1-1.5-3.774V15.7a6.489,6.489,0,0,1,.6-2.861,4.395,4.395,0,0,1,1.753-1.919,5.292,5.292,0,0,1,2.734-.679A4.574,4.574,0,0,1,66.23,11.62a5.43,5.43,0,0,1,1.289,3.853v1.279H60.977a2.372,2.372,0,0,0,.771,1.4,2.3,2.3,0,0,0,1.543.508,2.958,2.958,0,0,0,2.441-1.094l1.5,1.777a4.2,4.2,0,0,1-1.743,1.353A5.891,5.891,0,0,1,63.066,21.2ZM62.7,12.777q-1.445,0-1.719,1.914H64.3v-.254a1.63,1.63,0,0,0-.4-1.226A1.593,1.593,0,0,0,62.7,12.777Zm5.732,2.861a6.455,6.455,0,0,1,1.084-3.955,3.568,3.568,0,0,1,3.027-1.445,3.035,3.035,0,0,1,2.383,1.113V6h3.3V21H75.264L75.1,19.867A3.116,3.116,0,0,1,72.52,21.2a3.562,3.562,0,0,1-2.988-1.445A6.659,6.659,0,0,1,68.428,15.639Zm3.291.205q0,2.813,1.641,2.813a1.62,1.62,0,0,0,1.563-.918V13.715a1.576,1.576,0,0,0-1.543-.937q-1.523,0-1.65,2.461ZM83.564,21h-3.3V10.434h3.3Zm-3.5-13.291a1.469,1.469,0,0,1,.508-1.152,2.159,2.159,0,0,1,2.637,0,1.469,1.469,0,0,1,.508,1.152,1.469,1.469,0,0,1-.508,1.152,2.159,2.159,0,0,1-2.637,0A1.469,1.469,0,0,1,80.068,7.709ZM91.543,21a3.716,3.716,0,0,1-.312-.947A3.06,3.06,0,0,1,88.691,21.2a3.749,3.749,0,0,1-2.539-.9,2.875,2.875,0,0,1-1.045-2.271,2.955,2.955,0,0,1,1.27-2.6,6.468,6.468,0,0,1,3.691-.879h1.016v-.557q0-1.455-1.26-1.455a1.027,1.027,0,0,0-1.172,1.152H85.361a2.955,2.955,0,0,1,1.3-2.49,5.474,5.474,0,0,1,3.325-.957,4.8,4.8,0,0,1,3.193.986,3.429,3.429,0,0,1,1.2,2.705v4.678a4.79,4.79,0,0,0,.449,2.227V21Zm-2.061-2.148a1.836,1.836,0,0,0,1.021-.264,1.653,1.653,0,0,0,.581-.6V16.3h-.957q-1.719,0-1.719,1.543a.942.942,0,0,0,.3.728A1.1,1.1,0,0,0,89.482,18.852ZM100.039,7.807v2.627h1.738v2.285h-1.738v4.834a1.234,1.234,0,0,0,.215.83,1.152,1.152,0,0,0,.85.234,4.828,4.828,0,0,0,.82-.059v2.354a6.074,6.074,0,0,1-1.855.283,3.448,3.448,0,0,1-2.51-.8,3.282,3.282,0,0,1-.811-2.432V12.719H95.4V10.434h1.348V7.807Zm7.256,8.584,1.758-5.957h3.525l-4.307,12.334-.186.449a3.272,3.272,0,0,1-3.242,2.051,5.139,5.139,0,0,1-1.357-.2V22.719h.43a2.252,2.252,0,0,0,1.06-.2,1.215,1.215,0,0,0,.542-.718l.264-.7-3.672-10.664h3.516Z" transform="translate(896.667 993)" fill="#12263f"/>
      <path id="Trazado_118002" data-name="Trazado 118002" d="M-16.191-6.816a8.385,8.385,0,0,1-.771,3.682A5.7,5.7,0,0,1-19.155-.669,6.1,6.1,0,0,1-22.393.2,6.191,6.191,0,0,1-25.615-.64a5.692,5.692,0,0,1-2.192-2.388,8.144,8.144,0,0,1-.825-3.564v-.8a8.422,8.422,0,0,1,.767-3.687,5.688,5.688,0,0,1,2.2-2.466,6.147,6.147,0,0,1,3.257-.869,6.087,6.087,0,0,1,3.223.859,5.79,5.79,0,0,1,2.2,2.446,8.18,8.18,0,0,1,.8,3.638Zm-3.486-.6a5.979,5.979,0,0,0-.708-3.218,2.271,2.271,0,0,0-2.026-1.1q-2.578,0-2.725,3.867l-.01,1.045A6.149,6.149,0,0,0-24.453-3.6,2.268,2.268,0,0,0-22.393-2.48a2.24,2.24,0,0,0,2-1.1,5.982,5.982,0,0,0,.713-3.174ZM-4.766-5.2A6.44,6.44,0,0,1-5.84-1.2,3.6,3.6,0,0,1-8.867.2a3.122,3.122,0,0,1-2.6-1.279L-11.6,0h-2.949V-15h3.291v5.283a3.013,3.013,0,0,1,2.373-1.045A3.6,3.6,0,0,1-5.84-9.346,6.473,6.473,0,0,1-4.766-5.361Zm-3.3-.205a4.309,4.309,0,0,0-.405-2.173,1.366,1.366,0,0,0-1.245-.649,1.575,1.575,0,0,0-1.543.85v4.2a1.584,1.584,0,0,0,1.563.84A1.4,1.4,0,0,0-8.223-3.467,8.148,8.148,0,0,0-8.066-5.4ZM.225-10.566V.361A3.836,3.836,0,0,1-.85,3.252,4.127,4.127,0,0,1-3.818,4.268,7.009,7.009,0,0,1-5.371,4.1V1.611a6.3,6.3,0,0,0,.928.088A1.2,1.2,0,0,0-3.076.342V-10.566ZM-3.32-13.291a1.469,1.469,0,0,1,.508-1.152,1.916,1.916,0,0,1,1.318-.449,1.916,1.916,0,0,1,1.318.449,1.469,1.469,0,0,1,.508,1.152,1.469,1.469,0,0,1-.508,1.152,1.916,1.916,0,0,1-1.318.449,1.916,1.916,0,0,1-1.318-.449A1.469,1.469,0,0,1-3.32-13.291ZM7.2.2a5.432,5.432,0,0,1-3.936-1.45,5.008,5.008,0,0,1-1.5-3.774V-5.3a6.489,6.489,0,0,1,.6-2.861,4.395,4.395,0,0,1,1.753-1.919,5.292,5.292,0,0,1,2.734-.679A4.574,4.574,0,0,1,10.361-9.38,5.43,5.43,0,0,1,11.65-5.527v1.279H5.107a2.372,2.372,0,0,0,.771,1.4,2.3,2.3,0,0,0,1.543.508A2.958,2.958,0,0,0,9.863-3.437l1.5,1.777A4.2,4.2,0,0,1,9.624-.308,5.891,5.891,0,0,1,7.2.2ZM6.826-8.223q-1.445,0-1.719,1.914h3.32v-.254a1.63,1.63,0,0,0-.4-1.226A1.593,1.593,0,0,0,6.826-8.223ZM17.441-2.344a1.464,1.464,0,0,0,1.074-.376,1.379,1.379,0,0,0,.371-1.05h3.086A3.653,3.653,0,0,1,20.728-.918,4.631,4.631,0,0,1,17.52.2,4.689,4.689,0,0,1,13.887-1.25a5.7,5.7,0,0,1-1.328-4v-.137a6.436,6.436,0,0,1,.591-2.827,4.3,4.3,0,0,1,1.7-1.885,5.081,5.081,0,0,1,2.637-.659,4.573,4.573,0,0,1,3.271,1.143,4.053,4.053,0,0,1,1.211,3.1H18.887a1.807,1.807,0,0,0-.4-1.26,1.382,1.382,0,0,0-1.074-.439q-1.279,0-1.494,1.631a11.508,11.508,0,0,0-.068,1.426,4.52,4.52,0,0,0,.381,2.207A1.319,1.319,0,0,0,17.441-2.344ZM27.2-13.193v2.627h1.738v2.285H27.2v4.834a1.234,1.234,0,0,0,.215.83,1.152,1.152,0,0,0,.85.234,4.828,4.828,0,0,0,.82-.059V-.088A6.074,6.074,0,0,1,27.227.2a3.448,3.448,0,0,1-2.51-.8,3.282,3.282,0,0,1-.811-2.432V-8.281H22.559v-2.285h1.348v-2.627Z" transform="translate(324.667 696)" fill="#12263f"/>
      <path id="Trazado_118001" data-name="Trazado 118001" d="M-25.894-3.779a1.408,1.408,0,0,0-.532-1.172A6.615,6.615,0,0,0-28.3-5.82a17.942,17.942,0,0,1-2.187-.869q-2.764-1.357-2.764-3.73a3.345,3.345,0,0,1,.688-2.085,4.453,4.453,0,0,1,1.948-1.406,7.582,7.582,0,0,1,2.832-.5,6.632,6.632,0,0,1,2.749.547,4.352,4.352,0,0,1,1.89,1.558A4.068,4.068,0,0,1-22.466-10h-3.418a1.719,1.719,0,0,0-.532-1.348,2.075,2.075,0,0,0-1.44-.479,2.339,2.339,0,0,0-1.45.405,1.243,1.243,0,0,0-.532,1.03,1.252,1.252,0,0,0,.586.991,7.389,7.389,0,0,0,2.061.918,12.623,12.623,0,0,1,2.422,1.021,4.07,4.07,0,0,1,2.3,3.662,3.472,3.472,0,0,1-1.406,2.93A6.255,6.255,0,0,1-27.729.2a7.653,7.653,0,0,1-3.13-.62,4.719,4.719,0,0,1-2.109-1.7,4.428,4.428,0,0,1-.708-2.485h3.438a2.181,2.181,0,0,0,.591,1.685,2.793,2.793,0,0,0,1.919.542,2.206,2.206,0,0,0,1.343-.366A1.209,1.209,0,0,0-25.894-3.779Zm11.328,2.637A3.393,3.393,0,0,1-17.388.2,3.328,3.328,0,0,1-20.02-.815a4.251,4.251,0,0,1-.894-2.905v-6.846h3.291V-3.7A1.183,1.183,0,0,0-16.3-2.344a1.72,1.72,0,0,0,1.611-.811v-7.412h3.311V0h-3.086ZM.229-5.2A6.44,6.44,0,0,1-.845-1.2,3.6,3.6,0,0,1-3.872.2a3.122,3.122,0,0,1-2.6-1.279L-6.606,0H-9.556V-15h3.291v5.283a3.013,3.013,0,0,1,2.373-1.045A3.6,3.6,0,0,1-.845-9.346,6.473,6.473,0,0,1,.229-5.361Zm-3.3-.205a4.309,4.309,0,0,0-.405-2.173,1.365,1.365,0,0,0-1.245-.649,1.575,1.575,0,0,0-1.543.85v4.2a1.584,1.584,0,0,0,1.563.84A1.4,1.4,0,0,0-3.228-3.467,8.148,8.148,0,0,0-3.071-5.4ZM5.22-10.566V.361A3.836,3.836,0,0,1,4.146,3.252,4.127,4.127,0,0,1,1.177,4.268,7.009,7.009,0,0,1-.376,4.1V1.611A6.3,6.3,0,0,0,.552,1.7,1.2,1.2,0,0,0,1.919.342V-10.566ZM1.675-13.291a1.469,1.469,0,0,1,.508-1.152A1.916,1.916,0,0,1,3.5-14.893a1.916,1.916,0,0,1,1.318.449,1.469,1.469,0,0,1,.508,1.152,1.469,1.469,0,0,1-.508,1.152,1.916,1.916,0,0,1-1.318.449,1.916,1.916,0,0,1-1.318-.449A1.469,1.469,0,0,1,1.675-13.291ZM12.192.2a5.432,5.432,0,0,1-3.936-1.45,5.008,5.008,0,0,1-1.5-3.774V-5.3a6.489,6.489,0,0,1,.6-2.861,4.395,4.395,0,0,1,1.753-1.919,5.292,5.292,0,0,1,2.734-.679A4.574,4.574,0,0,1,15.356-9.38a5.43,5.43,0,0,1,1.289,3.853v1.279H10.1a2.372,2.372,0,0,0,.771,1.4,2.3,2.3,0,0,0,1.543.508,2.958,2.958,0,0,0,2.441-1.094l1.5,1.777A4.2,4.2,0,0,1,14.619-.308,5.891,5.891,0,0,1,12.192.2Zm-.371-8.418q-1.445,0-1.719,1.914h3.32v-.254a1.63,1.63,0,0,0-.4-1.226A1.593,1.593,0,0,0,11.821-8.223ZM22.437-2.344a1.464,1.464,0,0,0,1.074-.376,1.379,1.379,0,0,0,.371-1.05h3.086A3.653,3.653,0,0,1,25.723-.918,4.631,4.631,0,0,1,22.515.2,4.689,4.689,0,0,1,18.882-1.25a5.7,5.7,0,0,1-1.328-4v-.137a6.436,6.436,0,0,1,.591-2.827,4.3,4.3,0,0,1,1.7-1.885,5.081,5.081,0,0,1,2.637-.659,4.573,4.573,0,0,1,3.271,1.143,4.053,4.053,0,0,1,1.211,3.1H23.882a1.807,1.807,0,0,0-.4-1.26,1.382,1.382,0,0,0-1.074-.439q-1.279,0-1.494,1.631a11.508,11.508,0,0,0-.068,1.426,4.52,4.52,0,0,0,.381,2.207A1.319,1.319,0,0,0,22.437-2.344Zm9.756-10.85v2.627h1.738v2.285H32.192v4.834a1.234,1.234,0,0,0,.215.83,1.152,1.152,0,0,0,.85.234,4.828,4.828,0,0,0,.82-.059V-.088A6.074,6.074,0,0,1,32.222.2a3.448,3.448,0,0,1-2.51-.8A3.282,3.282,0,0,1,28.9-3.037V-8.281H27.554v-2.285H28.9v-2.627Z" transform="translate(454.667 565)" fill="#12263f"/>
      <path id="Trazado_118012" data-name="Trazado 118012" d="M-38.193-6.816a8.385,8.385,0,0,1-.771,3.682A5.7,5.7,0,0,1-41.157-.669,6.1,6.1,0,0,1-44.395.2,6.191,6.191,0,0,1-47.617-.64,5.692,5.692,0,0,1-49.81-3.027a8.144,8.144,0,0,1-.825-3.564v-.8a8.422,8.422,0,0,1,.767-3.687,5.688,5.688,0,0,1,2.2-2.466,6.147,6.147,0,0,1,3.257-.869,6.087,6.087,0,0,1,3.223.859,5.79,5.79,0,0,1,2.2,2.446,8.18,8.18,0,0,1,.8,3.638Zm-3.486-.6a5.979,5.979,0,0,0-.708-3.218,2.271,2.271,0,0,0-2.026-1.1q-2.578,0-2.725,3.867l-.01,1.045A6.149,6.149,0,0,0-46.455-3.6,2.268,2.268,0,0,0-44.395-2.48a2.24,2.24,0,0,0,2-1.1,5.982,5.982,0,0,0,.713-3.174Zm9.57,5.068a1.464,1.464,0,0,0,1.074-.376,1.379,1.379,0,0,0,.371-1.05h3.086A3.653,3.653,0,0,1-28.823-.918,4.631,4.631,0,0,1-32.031.2,4.689,4.689,0,0,1-35.664-1.25a5.7,5.7,0,0,1-1.328-4v-.137A6.436,6.436,0,0,1-36.4-8.218,4.3,4.3,0,0,1-34.7-10.1a5.081,5.081,0,0,1,2.637-.659,4.573,4.573,0,0,1,3.271,1.143,4.053,4.053,0,0,1,1.211,3.1h-3.086a1.807,1.807,0,0,0-.4-1.26,1.382,1.382,0,0,0-1.074-.439q-1.279,0-1.494,1.631A11.507,11.507,0,0,0-33.7-5.166a4.52,4.52,0,0,0,.381,2.207A1.319,1.319,0,0,0-32.109-2.344Zm10.391,0a1.464,1.464,0,0,0,1.074-.376,1.379,1.379,0,0,0,.371-1.05h3.086A3.653,3.653,0,0,1-18.433-.918,4.631,4.631,0,0,1-21.641.2,4.689,4.689,0,0,1-25.273-1.25a5.7,5.7,0,0,1-1.328-4v-.137a6.436,6.436,0,0,1,.591-2.827,4.3,4.3,0,0,1,1.7-1.885,5.081,5.081,0,0,1,2.637-.659A4.573,4.573,0,0,1-18.4-9.619a4.053,4.053,0,0,1,1.211,3.1h-3.086a1.807,1.807,0,0,0-.4-1.26,1.382,1.382,0,0,0-1.074-.439q-1.279,0-1.494,1.631a11.508,11.508,0,0,0-.068,1.426,4.52,4.52,0,0,0,.381,2.207A1.319,1.319,0,0,0-21.719-2.344ZM-9.5-1.143A3.393,3.393,0,0,1-12.324.2,3.328,3.328,0,0,1-14.956-.815a4.251,4.251,0,0,1-.894-2.905v-6.846h3.291V-3.7A1.183,1.183,0,0,0-11.24-2.344a1.72,1.72,0,0,0,1.611-.811v-7.412h3.311V0H-9.4ZM5.293-5.205A6.372,6.372,0,0,1,4.185-1.274,3.554,3.554,0,0,1,1.191.2,3.046,3.046,0,0,1-1.2-.869V4.063H-4.492V-10.566h3.076l.1.977a3.046,3.046,0,0,1,2.49-1.172,3.582,3.582,0,0,1,3.037,1.44,6.45,6.45,0,0,1,1.084,3.96ZM2-5.41Q2-8.223.361-8.223a1.549,1.549,0,0,0-1.562.84v4.16a1.6,1.6,0,0,0,1.582.879Q1.953-2.344,2-5.059ZM12.7,0a3.716,3.716,0,0,1-.312-.947A3.06,3.06,0,0,1,9.844.2,3.749,3.749,0,0,1,7.3-.708,2.875,2.875,0,0,1,6.26-2.979a2.955,2.955,0,0,1,1.27-2.6,6.468,6.468,0,0,1,3.691-.879h1.016v-.557q0-1.455-1.26-1.455A1.027,1.027,0,0,0,9.8-7.314H6.514a2.955,2.955,0,0,1,1.3-2.49,5.474,5.474,0,0,1,3.325-.957,4.8,4.8,0,0,1,3.193.986,3.429,3.429,0,0,1,1.2,2.705v4.678a4.79,4.79,0,0,0,.449,2.227V0ZM10.635-2.148a1.836,1.836,0,0,0,1.021-.264,1.653,1.653,0,0,0,.581-.6V-4.7h-.957q-1.719,0-1.719,1.543a.942.942,0,0,0,.3.728A1.1,1.1,0,0,0,10.635-2.148ZM21.191-13.193v2.627H22.93v2.285H21.191v4.834a1.234,1.234,0,0,0,.215.83,1.152,1.152,0,0,0,.85.234,4.828,4.828,0,0,0,.82-.059V-.088A6.074,6.074,0,0,1,21.221.2a3.448,3.448,0,0,1-2.51-.8A3.282,3.282,0,0,1,17.9-3.037V-8.281H16.553v-2.285H17.9v-2.627ZM27.7,0h-3.3V-10.566h3.3ZM24.2-13.291a1.469,1.469,0,0,1,.508-1.152,1.916,1.916,0,0,1,1.318-.449,1.916,1.916,0,0,1,1.318.449,1.469,1.469,0,0,1,.508,1.152,1.469,1.469,0,0,1-.508,1.152,1.916,1.916,0,0,1-1.318.449,1.916,1.916,0,0,1-1.318-.449A1.469,1.469,0,0,1,24.2-13.291Zm5.107,7.91A6.236,6.236,0,0,1,29.922-8.2a4.4,4.4,0,0,1,1.768-1.9,5.323,5.323,0,0,1,2.705-.664,4.858,4.858,0,0,1,3.74,1.47,5.64,5.64,0,0,1,1.367,4v.117A5.472,5.472,0,0,1,38.13-1.255,4.871,4.871,0,0,1,34.414.2a4.927,4.927,0,0,1-3.623-1.353,5.29,5.29,0,0,1-1.475-3.667Zm3.291.205a3.932,3.932,0,0,0,.459,2.148,1.529,1.529,0,0,0,1.357.684q1.758,0,1.8-2.705v-.332q0-2.842-1.816-2.842-1.65,0-1.787,2.451Zm11.377-5.391.107,1.24A3.583,3.583,0,0,1,47.1-10.762a3.015,3.015,0,0,1,2.466.986,4.7,4.7,0,0,1,.845,2.969V0h-3.3V-6.67a1.783,1.783,0,0,0-.322-1.177,1.491,1.491,0,0,0-1.172-.376,1.569,1.569,0,0,0-1.436.762V0H40.889V-10.566Z" transform="translate(1084.667 565)" fill="#12263f"/>
      <path id="Trazado_118011" data-name="Trazado 118011" d="M-36.235,0h-3.408l-5.039-8.848V0H-48.11V-14.219h3.428l5.029,8.848v-8.848h3.418Zm7.969,0a3.716,3.716,0,0,1-.312-.947A3.06,3.06,0,0,1-31.118.2a3.749,3.749,0,0,1-2.539-.9A2.875,2.875,0,0,1-34.7-2.979a2.955,2.955,0,0,1,1.27-2.6,6.468,6.468,0,0,1,3.691-.879h1.016v-.557q0-1.455-1.26-1.455a1.027,1.027,0,0,0-1.172,1.152h-3.291a2.955,2.955,0,0,1,1.3-2.49,5.474,5.474,0,0,1,3.325-.957,4.8,4.8,0,0,1,3.193.986,3.429,3.429,0,0,1,1.2,2.705v4.678a4.79,4.79,0,0,0,.449,2.227V0Zm-2.061-2.148a1.836,1.836,0,0,0,1.021-.264,1.653,1.653,0,0,0,.581-.6V-4.7h-.957Q-31.4-4.7-31.4-3.154a.942.942,0,0,0,.3.728A1.1,1.1,0,0,0-30.327-2.148Zm10.557-11.045v2.627h1.738v2.285h-1.738v4.834a1.234,1.234,0,0,0,.215.83,1.152,1.152,0,0,0,.85.234,4.828,4.828,0,0,0,.82-.059V-.088A6.074,6.074,0,0,1-19.741.2a3.448,3.448,0,0,1-2.51-.8,3.282,3.282,0,0,1-.811-2.432V-8.281h-1.348v-2.285h1.348v-2.627ZM-13.267,0h-3.3V-10.566h3.3Zm-3.5-13.291a1.469,1.469,0,0,1,.508-1.152,1.916,1.916,0,0,1,1.318-.449,1.916,1.916,0,0,1,1.318.449,1.469,1.469,0,0,1,.508,1.152,1.469,1.469,0,0,1-.508,1.152,1.916,1.916,0,0,1-1.318.449,1.916,1.916,0,0,1-1.318-.449A1.469,1.469,0,0,1-16.763-13.291Zm5.107,7.91A6.236,6.236,0,0,1-11.04-8.2a4.4,4.4,0,0,1,1.768-1.9,5.323,5.323,0,0,1,2.705-.664,4.858,4.858,0,0,1,3.74,1.47,5.64,5.64,0,0,1,1.367,4v.117A5.472,5.472,0,0,1-2.832-1.255,4.871,4.871,0,0,1-6.548.2a4.927,4.927,0,0,1-3.623-1.353,5.29,5.29,0,0,1-1.475-3.667Zm3.291.205a3.932,3.932,0,0,0,.459,2.148,1.529,1.529,0,0,0,1.357.684q1.758,0,1.8-2.705v-.332q0-2.842-1.816-2.842-1.65,0-1.787,2.451ZM3.013-10.566l.107,1.24a3.583,3.583,0,0,1,3.018-1.436A3.015,3.015,0,0,1,8.6-9.775a4.7,4.7,0,0,1,.845,2.969V0h-3.3V-6.67a1.783,1.783,0,0,0-.322-1.177,1.491,1.491,0,0,0-1.172-.376,1.569,1.569,0,0,0-1.436.762V0H-.073V-10.566ZM17.222,0a3.716,3.716,0,0,1-.312-.947A3.06,3.06,0,0,1,14.37.2a3.749,3.749,0,0,1-2.539-.9,2.875,2.875,0,0,1-1.045-2.271,2.955,2.955,0,0,1,1.27-2.6,6.468,6.468,0,0,1,3.691-.879h1.016v-.557q0-1.455-1.26-1.455a1.027,1.027,0,0,0-1.172,1.152H11.04a2.955,2.955,0,0,1,1.3-2.49,5.474,5.474,0,0,1,3.325-.957,4.8,4.8,0,0,1,3.193.986,3.429,3.429,0,0,1,1.2,2.705v4.678a4.79,4.79,0,0,0,.449,2.227V0ZM15.161-2.148a1.836,1.836,0,0,0,1.021-.264,1.653,1.653,0,0,0,.581-.6V-4.7h-.957q-1.719,0-1.719,1.543a.942.942,0,0,0,.3.728A1.1,1.1,0,0,0,15.161-2.148ZM25.356,0h-3.3V-15h3.3Zm5.5,0h-3.3V-10.566h3.3Zm-3.5-13.291a1.469,1.469,0,0,1,.508-1.152,1.916,1.916,0,0,1,1.318-.449,1.916,1.916,0,0,1,1.318.449,1.469,1.469,0,0,1,.508,1.152,1.469,1.469,0,0,1-.508,1.152,1.916,1.916,0,0,1-1.318.449,1.916,1.916,0,0,1-1.318-.449A1.469,1.469,0,0,1,27.358-13.291Zm9.355.1v2.627h1.738v2.285H36.714v4.834a1.234,1.234,0,0,0,.215.83,1.152,1.152,0,0,0,.85.234,4.828,4.828,0,0,0,.82-.059V-.088A6.074,6.074,0,0,1,36.743.2a3.448,3.448,0,0,1-2.51-.8,3.282,3.282,0,0,1-.811-2.432V-8.281H32.075v-2.285h1.348v-2.627ZM43.97-4.609l1.758-5.957h3.525L44.946,1.768l-.186.449a3.272,3.272,0,0,1-3.242,2.051,5.139,5.139,0,0,1-1.357-.2V1.719h.43a2.252,2.252,0,0,0,1.06-.2A1.215,1.215,0,0,0,42.192.8l.264-.7L38.784-10.566H42.3Z" transform="translate(1269.667 681)" fill="#12263f"/>
      <path id="Trazado_118006" data-name="Trazado 118006" d="M-13.7-5.3l1.631-8.916h3.4L-11.689,0h-3.555l-1.9-8.105L-19.014,0h-3.545l-3.027-14.219h3.408L-20.547-5.3l1.953-8.916h2.91ZM9.531,0H6.123V-5.937H1.074V0H-2.354V-14.219H1.074v5.645H6.123v-5.645H9.531Zm9.434-4.5a6.356,6.356,0,0,1,.322-2.251,3.521,3.521,0,0,1,1.045-1.431,6.947,6.947,0,0,0,1.1-1.108,1.809,1.809,0,0,0,.376-1.108q0-1.475-1.27-1.475a1.178,1.178,0,0,0-.947.43,1.827,1.827,0,0,0-.381,1.162h-3.3a3.937,3.937,0,0,1,1.23-3.042,4.906,4.906,0,0,1,3.4-1.089,5.1,5.1,0,0,1,3.374,1.006,3.53,3.53,0,0,1,1.2,2.861,3.333,3.333,0,0,1-.322,1.475A4.984,4.984,0,0,1,23.75-7.715L22.627-6.67a2.642,2.642,0,0,0-.664.942A3.735,3.735,0,0,0,21.758-4.5Zm-.4,2.969a1.516,1.516,0,0,1,.522-1.187,1.892,1.892,0,0,1,1.3-.464,1.892,1.892,0,0,1,1.3.464,1.516,1.516,0,0,1,.522,1.187,1.516,1.516,0,0,1-.522,1.187,1.892,1.892,0,0,1-1.3.464,1.892,1.892,0,0,1-1.3-.464A1.516,1.516,0,0,1,18.564-1.533Z" transform="translate(592.667 1018)" fill="#12263f"/>
      <path id="Trazado_118008" data-name="Trazado 118008" d="M33.439,14.975H28.049v3.389h6.367V21H24.621V6.781h9.814V9.428H28.049v3h5.391Zm6.5-1.631,1.533-2.91h3.418L42.111,15.58,45.031,21H41.594l-1.66-3.125L38.3,21H34.846l2.93-5.42L35,10.434h3.457Zm9.844-5.537v2.627h1.738v2.285H49.787v4.834a1.234,1.234,0,0,0,.215.83,1.152,1.152,0,0,0,.85.234,4.828,4.828,0,0,0,.82-.059v2.354a6.074,6.074,0,0,1-1.855.283,3.448,3.448,0,0,1-2.51-.8,3.282,3.282,0,0,1-.811-2.432V12.719H45.148V10.434H46.5V7.807ZM57.932,21.2A5.432,5.432,0,0,1,54,19.745a5.008,5.008,0,0,1-1.5-3.774V15.7a6.489,6.489,0,0,1,.6-2.861,4.395,4.395,0,0,1,1.753-1.919,5.292,5.292,0,0,1,2.734-.679A4.574,4.574,0,0,1,61.1,11.62a5.43,5.43,0,0,1,1.289,3.853v1.279H55.842a2.372,2.372,0,0,0,.771,1.4,2.3,2.3,0,0,0,1.543.508A2.958,2.958,0,0,0,60.6,17.563l1.5,1.777a4.2,4.2,0,0,1-1.743,1.353A5.891,5.891,0,0,1,57.932,21.2Zm-.371-8.418q-1.445,0-1.719,1.914h3.32v-.254a1.63,1.63,0,0,0-.4-1.226A1.593,1.593,0,0,0,57.561,12.777Zm9.17-2.344.107,1.24a3.583,3.583,0,0,1,3.018-1.436,3.015,3.015,0,0,1,2.466.986,4.7,4.7,0,0,1,.845,2.969V21h-3.3V14.33a1.783,1.783,0,0,0-.322-1.177,1.491,1.491,0,0,0-1.172-.376,1.569,1.569,0,0,0-1.436.762V21H63.645V10.434Zm7.842,5.205a6.455,6.455,0,0,1,1.084-3.955,3.568,3.568,0,0,1,3.027-1.445,3.035,3.035,0,0,1,2.383,1.113V6h3.3V21H81.408l-.166-1.133A3.116,3.116,0,0,1,78.664,21.2a3.562,3.562,0,0,1-2.988-1.445A6.659,6.659,0,0,1,74.572,15.639Zm3.291.205q0,2.813,1.641,2.813a1.62,1.62,0,0,0,1.563-.918V13.715a1.576,1.576,0,0,0-1.543-.937q-1.523,0-1.65,2.461ZM91.35,21.2a5.432,5.432,0,0,1-3.936-1.45,5.008,5.008,0,0,1-1.5-3.774V15.7a6.489,6.489,0,0,1,.6-2.861,4.395,4.395,0,0,1,1.753-1.919A5.292,5.292,0,0,1,91,10.238a4.574,4.574,0,0,1,3.516,1.382A5.43,5.43,0,0,1,95.8,15.473v1.279H89.26a2.372,2.372,0,0,0,.771,1.4,2.3,2.3,0,0,0,1.543.508,2.958,2.958,0,0,0,2.441-1.094l1.5,1.777a4.2,4.2,0,0,1-1.743,1.353A5.891,5.891,0,0,1,91.35,21.2Zm-.371-8.418q-1.445,0-1.719,1.914h3.32v-.254a1.63,1.63,0,0,0-.4-1.226A1.593,1.593,0,0,0,90.979,12.777Zm5.732,2.861a6.455,6.455,0,0,1,1.084-3.955,3.568,3.568,0,0,1,3.027-1.445,3.035,3.035,0,0,1,2.383,1.113V6h3.3V21h-2.959l-.166-1.133A3.116,3.116,0,0,1,100.8,21.2a3.562,3.562,0,0,1-2.988-1.445A6.659,6.659,0,0,1,96.711,15.639Zm3.291.205q0,2.813,1.641,2.813a1.62,1.62,0,0,0,1.563-.918V13.715a1.576,1.576,0,0,0-1.543-.937q-1.523,0-1.65,2.461Z" transform="translate(1205.667 993)" fill="#12263f"/>
      <path id="Trazado_115110" data-name="Trazado 115110" d="M1560.333-10831h-125" transform="translate(-855.333 11700)" fill="none" stroke="#3c3fa7" stroke-width="3"/>
      <path id="Trazado_115111" data-name="Trazado 115111" d="M1655.333-10950.333v-71h-95" transform="translate(-855.333 11710.333)" fill="none" stroke="#3c3fa7" stroke-width="3"/>
      <path id="Trazado_115112" data-name="Trazado 115112" d="M1875.333-10831H1814v-25h-63.667" transform="translate(-855.333 11700)" fill="none" stroke="#3c3fa7" stroke-width="3"/>
      <path id="Trazado_115113" data-name="Trazado 115113" d="M1884-10971v55.5H1712" transform="translate(-874.333 11695.5)" fill="none" stroke="#3c3fa7" stroke-width="3"/>
      <circle id="Elipse_4763" data-name="Elipse 4763" cx="95" cy="95" r="95" transform="translate(704.667 760)" fill="#ffd947"/>
      <path id="Trazado_118013" data-name="Trazado 118013" d="M-55.207-4.983A5.583,5.583,0,0,1-56.263-2.24a5.742,5.742,0,0,1-2.3,1.835,6.994,6.994,0,0,1-3.056.61,5.166,5.166,0,0,1-2.574-.682,4.52,4.52,0,0,1-1.728-1.887,6.972,6.972,0,0,1-.713-2.845,13.957,13.957,0,0,1,.261-3.138,9.947,9.947,0,0,1,1.189-3.333,7.436,7.436,0,0,1,2.035-2.307,6.141,6.141,0,0,1,3.794-1.148,5.038,5.038,0,0,1,3.676,1.43,5.755,5.755,0,0,1,1.492,3.861l-2.994-.01a3.138,3.138,0,0,0-.564-2.071,2.3,2.3,0,0,0-1.753-.7,3.043,3.043,0,0,0-2.528,1.1,6.6,6.6,0,0,0-1.328,3.353,18.579,18.579,0,0,0-.287,3.209,3.2,3.2,0,0,0,.6,1.994,2.025,2.025,0,0,0,1.548.672,3.092,3.092,0,0,0,2.2-.651,3.445,3.445,0,0,0,1.092-2.015Zm7.424-6.316a4.45,4.45,0,0,1,2.528.754A4.244,4.244,0,0,1-43.7-8.526a6.25,6.25,0,0,1,.354,2.856,6.751,6.751,0,0,1-1.841,4.281A5.2,5.2,0,0,1-49.147.205a4.437,4.437,0,0,1-2.5-.743,4.228,4.228,0,0,1-1.559-2,6.112,6.112,0,0,1-.359-2.83A6.95,6.95,0,0,1-51.7-9.741,5.09,5.09,0,0,1-47.783-11.3Zm-2.922,6.983a2.567,2.567,0,0,0,.461,1.553A1.532,1.532,0,0,0-49-2.174,2.247,2.247,0,0,0-46.912-3.4,6.115,6.115,0,0,0-46.2-6.727,2.792,2.792,0,0,0-46.681-8.3a1.507,1.507,0,0,0-1.246-.61A2.25,2.25,0,0,0-49.993-7.7,6.052,6.052,0,0,0-50.706-4.317ZM-37.9-11.1l-.236,1.261a4.085,4.085,0,0,1,3.25-1.456,3.122,3.122,0,0,1,1.7.472,2.2,2.2,0,0,1,.913,1.22A4.272,4.272,0,0,1-28.824-11.3a2.79,2.79,0,0,1,2.3,1.046,4.294,4.294,0,0,1,.651,2.933l-.021.256L-27.07,0h-2.9l1.179-7.085a5.117,5.117,0,0,0,.031-.708A1.1,1.1,0,0,0-29.993-8.9a2.442,2.442,0,0,0-2.041,1.271l-.031.236L-33.356,0h-2.892l1.179-7.065a5.117,5.117,0,0,0,.031-.708,1.1,1.1,0,0,0-1.22-1.118,2.451,2.451,0,0,0-1.979,1.036L-39.621,0h-2.892L-40.6-11.095ZM-14.12-5.517a9.163,9.163,0,0,1-.913,3.1A5.021,5.021,0,0,1-16.765-.41a4.014,4.014,0,0,1-2.3.625A3.2,3.2,0,0,1-21.6-.984l-1.015,5.25h-2.892l2.656-15.36,2.666-.01-.195,1.118a3.542,3.542,0,0,1,2.83-1.312,3.151,3.151,0,0,1,2.533,1.184,5.148,5.148,0,0,1,.964,3.1A11.986,11.986,0,0,1-14.12-5.517Zm-2.871-.215.062-.984A2.735,2.735,0,0,0-17.293-8.3a1.307,1.307,0,0,0-1.123-.6A2.387,2.387,0,0,0-20.5-7.834l-.831,4.573A1.618,1.618,0,0,0-19.7-2.184a2.088,2.088,0,0,0,1.743-.81A5.543,5.543,0,0,0-16.991-5.732ZM-6.86-11.3a4.45,4.45,0,0,1,2.528.754,4.244,4.244,0,0,1,1.559,2.02A6.25,6.25,0,0,1-2.42-5.67,6.751,6.751,0,0,1-4.26-1.389,5.2,5.2,0,0,1-8.224.205a4.437,4.437,0,0,1-2.5-.743,4.228,4.228,0,0,1-1.559-2,6.112,6.112,0,0,1-.359-2.83,6.95,6.95,0,0,1,1.866-4.368A5.09,5.09,0,0,1-6.86-11.3ZM-9.782-4.317a2.567,2.567,0,0,0,.461,1.553,1.532,1.532,0,0,0,1.241.59A2.247,2.247,0,0,0-5.988-3.4a6.115,6.115,0,0,0,.708-3.327A2.792,2.792,0,0,0-5.758-8.3,1.507,1.507,0,0,0-7-8.911,2.25,2.25,0,0,0-9.07-7.7,6.052,6.052,0,0,0-9.782-4.317ZM2.984-11.1,2.738-9.792A3.992,3.992,0,0,1,5.968-11.3a2.662,2.662,0,0,1,2.317,1.148,4.628,4.628,0,0,1,.543,3.1L7.66,0H4.768L5.958-7.085a3.318,3.318,0,0,0,.021-.728A1.174,1.174,0,0,0,4.666-8.89,2.489,2.489,0,0,0,2.625-7.834L1.241,0H-1.651L.277-11.095ZM15.2.205a4.827,4.827,0,0,1-2.579-.713,4.321,4.321,0,0,1-1.677-1.928,5.373,5.373,0,0,1-.431-2.7l.031-.41a7.173,7.173,0,0,1,.943-2.974,5.7,5.7,0,0,1,2.03-2.087,5.023,5.023,0,0,1,2.748-.692,3.84,3.84,0,0,1,3.245,1.574,5.388,5.388,0,0,1,.836,3.881L20.18-4.583h-6.8A2.381,2.381,0,0,0,13.9-2.861a2,2,0,0,0,1.538.667,3.56,3.56,0,0,0,2.769-1.22l1.323,1.641A4.115,4.115,0,0,1,17.729-.3,5.9,5.9,0,0,1,15.2.205Zm.923-9.116a2.055,2.055,0,0,0-1.42.5,4.414,4.414,0,0,0-1.113,1.815h3.979l.062-.267a2.718,2.718,0,0,0,.01-.779,1.488,1.488,0,0,0-.5-.928A1.575,1.575,0,0,0,16.119-8.911Zm9.5-2.194-.246,1.313A3.992,3.992,0,0,1,28.6-11.3a2.662,2.662,0,0,1,2.317,1.148,4.628,4.628,0,0,1,.543,3.1L30.29,0H27.4l1.189-7.085a3.318,3.318,0,0,0,.021-.728A1.174,1.174,0,0,0,27.3-8.89a2.489,2.489,0,0,0-2.041,1.056L23.871,0H20.979l1.928-11.095Zm12.807-2.717-.482,2.728h1.846l-.379,2.174H37.56l-.943,5.558a1.413,1.413,0,0,0,.082.8q.144.277.7.3.164.01.882-.051L38.073-.051a4.864,4.864,0,0,1-1.661.236,2.606,2.606,0,0,1-2.123-.892,3.223,3.223,0,0,1-.574-2.358l.954-5.855H33.1l.379-2.174h1.569l.472-2.728ZM44.81.205a4.827,4.827,0,0,1-2.579-.713,4.321,4.321,0,0,1-1.677-1.928,5.373,5.373,0,0,1-.431-2.7l.031-.41A7.173,7.173,0,0,1,41.1-8.521a5.7,5.7,0,0,1,2.03-2.087,5.023,5.023,0,0,1,2.748-.692,3.84,3.84,0,0,1,3.245,1.574,5.388,5.388,0,0,1,.836,3.881l-.164,1.261h-6.8a2.381,2.381,0,0,0,.523,1.723,2,2,0,0,0,1.538.667,3.56,3.56,0,0,0,2.769-1.22l1.323,1.641A4.115,4.115,0,0,1,47.342-.3,5.9,5.9,0,0,1,44.81.205Zm.923-9.116a2.055,2.055,0,0,0-1.42.5A4.414,4.414,0,0,0,43.2-6.593h3.979l.062-.267a2.718,2.718,0,0,0,.01-.779,1.488,1.488,0,0,0-.5-.928A1.575,1.575,0,0,0,45.732-8.911ZM65.758,0H55.812l.338-2.153,5.3-4.973a11.743,11.743,0,0,0,2.164-2.481,2.907,2.907,0,0,0,.4-1.866,1.392,1.392,0,0,0-1.466-1.3,2.1,2.1,0,0,0-1.646.687,3.22,3.22,0,0,0-.8,1.856l-2.892.01a5.07,5.07,0,0,1,.831-2.533,5.1,5.1,0,0,1,1.994-1.769,5.782,5.782,0,0,1,2.692-.62,4.587,4.587,0,0,1,3.24,1.169,3.617,3.617,0,0,1,1.025,3A7.279,7.279,0,0,1,64.5-6.562l-1.477,1.4L59.965-2.41l6.173.021Z" transform="translate(799.667 908)" fill="#ff5f65"/>
      <path id="Trazado_115114" data-name="Trazado 115114" d="M1940-11119v44h-75v30" transform="translate(-855.333 11700)" fill="none" stroke="#ff5f65" stroke-width="3"/>
      <path id="Trazado_115115" data-name="Trazado 115115" d="M1960.333-11014H2001v52h127v-42" transform="translate(-855.333 11700)" fill="none" stroke="#ff5f65" stroke-width="3"/>
      <path id="Trazado_115116" data-name="Trazado 115116" d="M1409-11142h64v98" transform="translate(-859.333 11700)" fill="none" stroke="#ff5f65" stroke-width="3"/>
      <path id="Trazado_115117" data-name="Trazado 115117" d="M1370-11010h-96" transform="translate(-855.333 11700)" fill="none" stroke="#ff5f65" stroke-width="3"/>
      <path id="Trazado_115118" data-name="Trazado 115118" d="M1330.333-10798v48H1184v36" transform="translate(-855.333 11700)" fill="none" stroke="#ff5f65" stroke-width="3"/>
      <path id="Trazado_115119" data-name="Trazado 115119" d="M1350.333-10798v45H1444v42" transform="translate(-855.333 11700)" fill="none" stroke="#ff5f65" stroke-width="3"/>
      <path id="Trazado_115120" data-name="Trazado 115120" d="M1960.333-10798v34.287H1816V-10725" transform="translate(-855.333 11700)" fill="none" stroke="#ff5f65" stroke-width="3"/>
      <path id="Trazado_115121" data-name="Trazado 115121" d="M2065.333-10831H2125v106" transform="translate(-855.333 11700)" fill="none" stroke="#ff5f65" stroke-width="3"/>
      <g id="sign" transform="translate(755.925 793)">
        <path id="Trazado_117987" data-name="Trazado 117987" d="M27.5,53H40.565V67.516H27.5Z" transform="translate(9.71 23.484)" fill="#7a829c"/>
        <path id="Trazado_117988" data-name="Trazado 117988" d="M27.5,53H40.565v2.9H27.5Z" transform="translate(9.71 23.484)" fill="#646d8b"/>
        <path id="Trazado_117989" data-name="Trazado 117989" d="M29.5,53H39.661V67.516H29.5Z" transform="translate(10.613 23.484)" fill="#646d8b"/>
        <path id="Trazado_117990" data-name="Trazado 117990" d="M29.5,53H39.661v2.9H29.5Z" transform="translate(10.613 23.484)" fill="#505a76"/>
        <rect id="Rectángulo_34577" data-name="Rectángulo 34577" width="75" height="75" rx="6" transform="translate(6 1)" fill="#fafdff"/>
        <path id="Trazado_117991" data-name="Trazado 117991" d="M13.806,3A5.806,5.806,0,0,0,8,8.806V69.774A8.655,8.655,0,0,0,9.278,74.3a8.657,8.657,0,0,0,4.528,1.281H71.871a8.71,8.71,0,0,0,8.71-8.71V8.806A8.655,8.655,0,0,0,79.3,4.281,8.657,8.657,0,0,0,74.774,3Z" transform="translate(0.903 0.903)" fill="#eef6ff"/>
        <rect id="Rectángulo_34578" data-name="Rectángulo 34578" width="64" height="64" rx="2" transform="translate(76 7) rotate(90)" fill="#6bc9f2"/>
        <path id="Trazado_117992" data-name="Trazado 117992" d="M72.968,65.065V7H14.9A2.9,2.9,0,0,0,12,9.9V67.968H70.065A2.9,2.9,0,0,0,72.968,65.065Z" transform="translate(2.71 2.71)" fill="#7dd7f8"/>
        <g id="Grupo_84012" data-name="Grupo 84012" transform="translate(18.339 12.613)">
          <path id="Trazado_117993" data-name="Trazado 117993" d="M21.758,47.613H17.4V37.452a1.452,1.452,0,1,0-2.9,0V49.065a1.452,1.452,0,0,0,1.452,1.452h5.806a1.452,1.452,0,1,0,0-2.9Z" transform="translate(-14.5 3.193)" fill="#12263f"/>
          <path id="Trazado_117994" data-name="Trazado 117994" d="M50.758,47.613H46.4V37.452a1.452,1.452,0,1,0-2.9,0V49.065a1.452,1.452,0,0,0,1.452,1.452h5.806a1.452,1.452,0,1,0,0-2.9Z" transform="translate(-1.403 3.193)" fill="#12263f"/>
          <path id="Trazado_117995" data-name="Trazado 117995" d="M28.758,38.9a1.452,1.452,0,0,0,0-2.9H22.952A1.452,1.452,0,0,0,21.5,37.452V49.065a1.452,1.452,0,0,0,1.452,1.452h5.806a1.452,1.452,0,1,0,0-2.9H24.4v-2.9h2.9a1.452,1.452,0,1,0,0-2.9H24.4V38.9Z" transform="translate(-11.339 3.193)" fill="#12263f"/>
          <path id="Trazado_117996" data-name="Trazado 117996" d="M43.758,38.9a1.452,1.452,0,0,0,0-2.9H37.952A1.452,1.452,0,0,0,36.5,37.452V49.065a1.452,1.452,0,0,0,1.452,1.452h5.806a1.452,1.452,0,1,0,0-2.9H39.4v-2.9h2.9a1.452,1.452,0,0,0,0-2.9H39.4V38.9Z" transform="translate(-4.565 3.193)" fill="#12263f"/>
          <path id="Trazado_117997" data-name="Trazado 117997" d="M37.643,36.066a1.453,1.453,0,0,0-1.819.953L33.581,44.2l-2.243-7.179a1.452,1.452,0,1,0-2.771.866L32.2,49.5a1.452,1.452,0,0,0,2.771,0L38.6,37.885A1.452,1.452,0,0,0,37.643,36.066Z" transform="translate(-8.178 3.193)" fill="#12263f"/>
          <path id="Trazado_117998" data-name="Trazado 117998" d="M35.161,43.839a2.9,2.9,0,0,1-2.9-2.9V18.912l-2.3,2.3a2.9,2.9,0,1,1-4.106-4.106l7.258-7.258A2.9,2.9,0,0,1,38.065,11.9V40.935A2.9,2.9,0,0,1,35.161,43.839Z" transform="translate(-9.758 -9)" fill="#fafdff"/>
        </g>
        <rect id="Rectángulo_34579" data-name="Rectángulo 34579" width="75" height="75" rx="6" transform="translate(6 1)" fill="none" stroke="#12263f" stroke-width="2"/>
        <g id="Grupo_84013" data-name="Grupo 84013" transform="translate(18.339 12.613)">
          <path id="Trazado_117998-2" data-name="Trazado 117998" d="M35.161,43.839a2.9,2.9,0,0,1-2.9-2.9V18.912l-2.3,2.3a2.9,2.9,0,1,1-4.106-4.106l7.258-7.258A2.9,2.9,0,0,1,38.065,11.9V40.935A2.9,2.9,0,0,1,35.161,43.839Z" transform="translate(-9.758 -9)" fill="none" stroke="#12263f" stroke-width="2"/>
        </g>
        <path id="Trazado_117999" data-name="Trazado 117999" d="M27.5,53H40.565V67.516H27.5Z" transform="translate(9.71 23.484)" fill="none" stroke="#12263f" stroke-width="2"/>
        <rect id="Rectángulo_34580" data-name="Rectángulo 34580" width="64" height="64" rx="2" transform="translate(76 7) rotate(90)" fill="none" stroke="#12263f" stroke-width="2"/>
      </g>
    </g>
  </g>
</svg>
