<svg xmlns="http://www.w3.org/2000/svg" xmlns:xlink="http://www.w3.org/1999/xlink" width="1240" height="229" viewBox="0 0 1240 229">
  <defs>
    <clipPath id="clip-path">
      <rect id="Rectángulo_34077" data-name="Rectángulo 34077" width="1240" height="229" transform="translate(180 4247)" fill="#fff7da"/>
    </clipPath>
  </defs>
  <g id="Enmascarar_grupo_81" data-name="Enmascarar grupo 81" transform="translate(-180 -4247)" clip-path="url(#clip-path)">
    <g id="Grupo_83612" data-name="Grupo 83612" transform="translate(363.2 4013)">
      <rect id="_8" data-name="8" width="1250" height="672" transform="translate(-188.2 0)" fill="#d4e8ff"/>
      <g id="_7" data-name="7" transform="translate(36.243 51.691)">
        <path id="Trazado_117402" data-name="Trazado 117402" d="M430.979,945.522S331.311,658.949,399.4,595.856c45.513-42.172,93.754,50.793,151.334,1.613C602,553.685,530.531,443.386,616.063,414.532c89.9-30.329,163.554,215.284,238.989,181.324,91.535-41.208,176.3,45.137,97.613,349.666Z" transform="translate(-285.644 -325.213)" fill="#e6f1fc"/>
        <g id="Grupo_83596" data-name="Grupo 83596" transform="translate(36.578)">
          <path id="Trazado_117403" data-name="Trazado 117403" d="M323.555,1980.28c-.04-.115-1-2.868-2.61-8.005l3.987-1.253c1.593,5.069,2.561,7.857,2.57,7.885Z" transform="translate(-285.928 -1360.449)" fill="#fff"/>
          <path id="Trazado_117404" data-name="Trazado 117404" d="M246.958,749.626c-1.49-5.237-2.971-10.67-4.4-16.15l4.044-1.055c1.422,5.45,2.895,10.854,4.376,16.061Zm665.8-6.536-4.155-.449c.6-5.539,1.172-11.114,1.7-16.573l4.159.4C913.935,731.946,913.361,737.537,912.759,743.091ZM238.5,717.242c-1.289-5.387-2.545-10.875-3.732-16.31l4.083-.892c1.181,5.408,2.431,10.868,3.713,16.229Zm677.485-7.408-4.164-.356c.473-5.538.916-11.125,1.318-16.605l4.168.305C916.9,698.675,916.458,704.279,915.984,709.834ZM231.358,684.552c-1.08-5.458-2.118-10.991-3.085-16.444l4.115-.729c.962,5.426,1.994,10.93,3.069,16.362Zm687.066-8.047-4.172-.253c.338-5.571.642-11.167.9-16.631l4.174.2C919.068,665.3,918.764,670.916,918.424,676.505Zm-692.9-24.9c-.862-5.517-1.672-11.088-2.409-16.557l4.142-.558c.732,5.44,1.539,10.981,2.4,16.47Zm694.491-8.483-4.177-.142c.19-5.561.341-11.161.451-16.647l4.179.083C920.356,631.921,920.2,637.542,920.014,643.122ZM221.061,618.441c-.625-5.563-1.19-11.165-1.68-16.65l4.162-.371c.487,5.454,1.049,11.024,1.671,16.555ZM920.675,609.7l-4.179-.021c.028-5.547.013-11.126-.046-16.651l4.179-.044C920.688,598.532,920.7,604.133,920.675,609.7ZM218.092,585.1c-.364-5.593-.659-11.218-.876-16.717l4.176-.165c.216,5.464.509,11.052.871,16.611Zm698.046-8.717c-.151-5.573-.351-11.169-.595-16.635l4.175-.186c.245,5.489.446,11.11.6,16.707ZM216.777,551.65c-.071-5.576-.064-11.185.025-16.74l4.178.066c-.088,5.516-.095,11.085-.024,16.621Zm697.873-8.518c-.351-5.564-.758-11.148-1.209-16.6l4.165-.345c.454,5.476.863,11.088,1.216,16.679ZM221.494,518.369l-4.175-.194c.26-5.609.611-11.233,1.043-16.715l4.166.329C222.1,507.226,221.752,512.8,221.494,518.369Zm690.4-8.4c-.579-5.56-1.221-11.119-1.909-16.524l4.146-.528c.692,5.437,1.338,11.028,1.92,16.619ZM451.274,487.654c-6.053-.419-9.992-3.471-15.548-8.275l2.827-3.078c4.75,4.061,8.005,6.8,12.9,7.171l.123,4.178Q451.423,487.654,451.274,487.654Zm-227.154-2.4-4.152-.473c.637-5.589,1.379-11.179,2.2-16.614l4.132.627C225.486,474.18,224.751,479.718,224.12,485.256Zm683.568-8.28c-.842-5.533-1.756-11.051-2.718-16.4l4.113-.739c.968,5.386,1.889,10.942,2.736,16.512ZM464.2,475.552l-3.876-1.563a85.511,85.511,0,0,0,4.235-15.708l4.107.771A88.269,88.269,0,0,1,464.2,475.552Zm-39.867-8.824c-3.047-3.878-6.289-8.334-9.913-13.619l3.447-2.363c3.572,5.211,6.762,9.594,9.752,13.4ZM229.12,452.437l-4.1-.792c1.068-5.53,2.254-11.046,3.527-16.4l4.066.967C231.35,441.508,230.176,446.966,229.12,452.437Zm672.673-8.175c-1.154-5.49-2.393-10.941-3.68-16.2l4.06-.994c1.3,5.3,2.546,10.8,3.71,16.333Zm-430.682-1.92-4.152-.475c.572-5,1.086-10.424,1.571-16.592l4.166.328C472.207,431.821,471.689,437.3,471.111,442.343Zm-65.942-3.226c-3.1-4.826-6.269-9.855-8.957-14.138l3.54-2.222c2.682,4.273,5.84,9.29,8.933,14.1Zm283.511-2.061a15.282,15.282,0,0,1-9.253-3.337l2.509-3.342c4.353,3.256,8.51,3.234,13.169.53l2.105,3.61A16.947,16.947,0,0,1,688.681,437.056Zm21.127-14.48-3.282-2.587a153.16,153.16,0,0,0,9.359-13.563l3.544,2.215A157.177,157.177,0,0,1,709.807,422.576ZM236.814,420.17l-4.017-1.153c1.554-5.414,3.244-10.8,5.023-16.016l3.955,1.349C240.018,409.5,238.349,414.822,236.814,420.17Zm431.842-.153a143.328,143.328,0,0,1-7.275-15.307l3.861-1.6a139.154,139.154,0,0,0,7.058,14.86Zm225.22-8.007c-1.541-5.423-3.177-10.76-4.861-15.863l3.969-1.31c1.7,5.158,3.356,10.552,4.913,16.031Zm-506.546-1.186c-3.471-5.509-6.322-9.98-8.972-14.071l3.507-2.272c2.66,4.106,5.521,8.591,9,14.116Zm86.5-1.96-4.172-.246c.294-4.981.585-10.44.888-16.688l4.174.2C474.419,398.4,474.128,403.869,473.833,408.864ZM727.99,394.187l-3.632-2.068c2.666-4.682,5.342-9.5,8.153-14.565l3.654,2.029C733.348,384.656,730.668,389.485,727.99,394.187Zm-72.563-5.223c-1.682-4.81-3.408-10.022-5.276-15.933l3.985-1.259c1.856,5.871,3.568,11.043,5.236,15.813Zm-407.9-.153-3.879-1.555c2.077-5.177,4.34-10.423,6.69-15.413l3.781,1.781C251.808,378.54,249.578,383.71,247.531,388.812Zm121.611-5.938c-3.392-4.963-6.542-9.4-9.631-13.554l3.355-2.492c3.122,4.2,6.3,8.679,9.727,13.688Zm514.3-2.34c-2.038-5.29-4.186-10.429-6.384-15.274l3.806-1.727c2.231,4.919,4.41,10.133,6.477,15.5ZM475.491,375.41l-4.175-.184c.244-5.547.484-11.129.73-16.713l4.175.184C475.975,364.281,475.735,369.863,475.491,375.41Zm268.827-10.4-3.635-2.063c3.111-5.479,5.88-10.215,8.465-14.478l3.574,2.167C750.158,354.866,747.409,359.568,744.318,365.012Zm-482.581-6.024-3.617-2.094a127.584,127.584,0,0,1,9.375-14.115l3.3,2.559A123.457,123.457,0,0,0,261.737,358.988Zm383.512-1.978c-1.38-4.632-2.875-9.735-4.706-16.06l4.014-1.162c1.828,6.314,3.32,11.408,4.7,16.029Zm-296-.709c-3.832-4.543-7.6-8.616-11.192-12.105l2.911-3c3.694,3.585,7.555,7.761,11.476,12.41Zm520.474-5.848c-2.726-5.025-5.58-9.78-8.48-14.131L864.721,334c2.971,4.457,5.89,9.32,8.676,14.456Zm-392.742-8.459-4.174-.2c.29-6.08.569-11.541.852-16.694l4.173.23C477.549,330.474,477.271,335.925,476.982,341.995Zm284.68-5.343-3.456-2.35c3.477-5.114,6.764-9.552,10.05-13.568l3.235,2.646C768.284,327.3,765.069,331.64,761.662,336.651Zm-436.151-2.866a49.289,49.289,0,0,0-14.293-6.938l1.118-4.027a53.413,53.413,0,0,1,15.524,7.509Zm-43.533-.09-2.609-3.264a40.656,40.656,0,0,1,15.492-7.992l1.006,4.056A36.538,36.538,0,0,0,281.978,333.7Zm353.935-8.813c-1.377-4.784-3.007-10.432-4.649-16.049l4.012-1.172c1.644,5.624,3.274,11.277,4.653,16.066Zm215.46-1.669A94.724,94.724,0,0,0,839.8,311.758l2.655-3.228a98.965,98.965,0,0,1,12.088,11.962ZM782.7,311.476l-2.786-3.115a59.7,59.7,0,0,1,14.208-9.7l1.774,3.784A55.552,55.552,0,0,0,782.7,311.476Zm-303.866-2.852-4.17-.275c.383-5.813.795-11.436,1.222-16.711l4.166.338C479.63,297.23,479.22,302.831,478.838,308.624Zm347.42-5.5a41.758,41.758,0,0,0-15.247-3.89l.19-4.174a45.885,45.885,0,0,1,16.793,4.263Zm-199.742-10.3c-1.725-5.711-3.337-10.923-4.928-15.934l3.984-1.265c1.6,5.03,3.214,10.261,4.945,15.991ZM481.561,275.36l-4.158-.42c.586-5.794,1.223-11.4,1.9-16.671l4.146.529C482.776,264.03,482.143,269.6,481.561,275.36Zm134.83-14.313c-1.867-5.5-3.738-10.779-5.562-15.7l3.919-1.452c1.837,4.958,3.721,10.277,5.6,15.809ZM485.824,242.318l-4.125-.672c.946-5.8,1.981-11.368,3.076-16.535l4.088.866C487.782,231.08,486.76,236.578,485.824,242.318ZM604.779,229.85c-2.219-5.372-4.474-10.483-6.7-15.191l3.777-1.788c2.259,4.771,4.543,9.947,6.789,15.384ZM492.8,209.879l-4.022-1.137c1.64-5.8,3.44-11.194,5.352-16.036l3.887,1.535C496.161,198.953,494.406,204.214,492.8,209.879Zm97.691-9.937a157.6,157.6,0,0,0-8.782-13.932l3.4-2.424a161.919,161.919,0,0,1,9.018,14.3ZM505.125,179.56l-3.584-2.149a59.852,59.852,0,0,1,10.653-13.416l2.823,3.081A55.711,55.711,0,0,0,505.125,179.56Zm66.15-6.084a60.763,60.763,0,0,0-12.606-9.89l2.083-3.623a64.909,64.909,0,0,1,13.484,10.565ZM528.3,159.384l-1.173-4.012a42.765,42.765,0,0,1,17.35-1.119l-.582,4.139A38.578,38.578,0,0,0,528.3,159.384Z" transform="translate(-216.729 -153.841)" fill="#fff"/>
          <path id="Trazado_117405" data-name="Trazado 117405" d="M2271.373,1964.634l-4.146-.517c.341-2.739.681-5.526,1.011-8.286l4.149.495C2272.057,1959.093,2271.715,1961.888,2271.373,1964.634Z" transform="translate(-1578.259 -1350.362)" fill="#fff"/>
        </g>
        <path id="Trazado_117406" data-name="Trazado 117406" d="M111.962,1363.19l-4.1-.831c1.148-5.661,2.435-11.192,3.825-16.44l4.04,1.07C114.362,1352.158,113.093,1357.609,111.962,1363.19Zm790.049-12.729c-1.4-5.633-2.93-11-4.547-15.965l3.974-1.3c1.648,5.055,3.206,10.523,4.629,16.253Zm-110.336-14.822a27.1,27.1,0,0,1-15.93-7.449l2.839-3.067a22.716,22.716,0,0,0,13.505,6.358Zm-571.2-.377a34.262,34.262,0,0,1-8.757-1.125l1.068-4.04a32.381,32.381,0,0,0,15.54.079l.912,4.079A40.313,40.313,0,0,1,220.47,1335.262Zm588.477-2.647-1.579-3.869c4.434-1.874,9.775-4.578,13.743-8.093l2.754,3.143C819.582,1327.6,813.776,1330.586,808.948,1332.615Zm-688.388-1.5-3.945-1.379a145.643,145.643,0,0,1,6.461-15.7l3.756,1.833A141.445,141.445,0,0,0,120.56,1331.119Zm75.781-5.271a91.935,91.935,0,0,1-11.823-12.349l3.231-2.651a88.008,88.008,0,0,0,11.265,11.787Zm47.873-.889-3.188-2.7a60.553,60.553,0,0,0,8.384-13.754l3.79,1.76A64.588,64.588,0,0,1,244.214,1324.958Zm647.363-5.9a88.187,88.187,0,0,0-7.9-14.285l3.427-2.392a92.416,92.416,0,0,1,8.284,14.966Zm-126.057-4.852a116.145,116.145,0,0,1-6.68-15.667l3.942-1.389a112.093,112.093,0,0,0,6.434,15.1Zm69.428-3.543-3.43-2.387c3.276-4.711,6.5-9.695,10.264-13.591l3.012,2.9C841.291,1301.212,838.09,1306.155,834.948,1310.668Zm-205.39-5.909a12.79,12.79,0,0,1-8.84-3.693l2.838-3.068c4.017,3.689,8.135,3.109,12.79.294l2.192,3.558A17.306,17.306,0,0,1,629.558,1304.758ZM135.309,1302l-3.278-2.592c4.167-5.271,8.689-9.046,13.443-11.219l1.738,3.8C143.066,1293.883,139.061,1297.25,135.309,1302Zm248.939-1.029c-3.924-1.843-8.188-5.666-13.034-11.688l3.256-2.62c4.377,5.439,8.265,8.981,11.555,10.526Zm-210.229-.416c-4.708-5.4-8.438-8.346-12.094-9.562l1.318-3.966c5.644,1.877,10.406,6.747,13.925,10.78ZM400.46,1294.5l-3.595-2.131c2.035-3.433,3.92-8.357,5.763-15.054l4.029,1.109C404.715,1285.487,402.688,1290.746,400.46,1294.5Zm-141.116-.058-3.966-1.317c1.53-4.609,3.088-9.822,4.762-15.933l4.031,1.1C262.477,1284.482,260.9,1289.764,259.344,1294.445Zm613.23-.831a21.775,21.775,0,0,0-14.611-3.094l-.523-4.146a25.941,25.941,0,0,1,17.336,3.688ZM651.2,1290l-3.22-2.664a155,155,0,0,0,9.729-13.347l3.487,2.3A159.032,159.032,0,0,1,651.2,1290Zm-39.137-4.231a138.553,138.553,0,0,1-4.093-16.486l4.1-.816a135.5,135.5,0,0,0,3.95,15.951Zm141.79-3.362c-1.573-5.688-3.014-11.42-4.215-16.277l4.057-1c1.194,4.83,2.626,10.527,4.186,16.167Zm-392.385-6.978c-2.7-4.245-5.592-9.108-8.606-14.452l3.64-2.053c2.978,5.281,5.836,10.08,8.493,14.264Zm-93.052-13.37-4.051-1.027c1.358-5.355,2.756-10.923,4.155-16.232l4.041,1.065C271.165,1251.152,269.767,1256.721,268.413,1262.061Zm401.668-.082-3.6-2.124c2.486-4.215,5.192-8.958,8.273-14.5l3.653,2.031C675.309,1252.959,672.586,1257.732,670.081,1261.979Zm-259.62-.021-4.1-.822c.913-4.553,1.855-9.62,3.053-16.429l4.116.725C412.329,1252.274,411.382,1257.371,410.462,1261.958ZM605.1,1252.72c-.845-5.512-1.628-11.136-2.387-16.583l4.139-.577c.757,5.433,1.539,11.043,2.38,16.527Zm140.525-2.843c-1.644-6.528-3.024-11.64-4.342-16.088l4.007-1.187c1.335,4.5,2.729,9.669,4.387,16.254Zm-400.762-3.647c-2.428-4.635-4.989-9.657-7.612-14.928l3.741-1.862c2.611,5.245,5.159,10.241,7.573,14.85Zm341.616-13.54-3.667-2c2.82-5.162,5.565-10.17,8.132-14.687l3.633,2.064C692.025,1222.553,689.289,1227.544,686.477,1232.691Zm-409.37-2.838-3.988-1.25a138.835,138.835,0,0,1,5.916-15.927l3.8,1.732A135.006,135.006,0,0,0,277.108,1229.853Zm139.285-.941-4.118-.712c.839-4.85,1.842-10.607,2.925-16.522l4.111.753C418.23,1218.328,417.229,1224.071,416.392,1228.912Zm183.933-9.3c-1.006-6.494-1.935-11.688-2.925-16.345l4.087-.868c1.006,4.735,1.948,10,2.967,16.574Zm135.54-1.424A53.267,53.267,0,0,0,727.9,1204.3l3.187-2.7a57.247,57.247,0,0,1,8.628,14.975Zm-406.992-1.049a72.627,72.627,0,0,0-10.2-12.611l2.871-3.036a76.655,76.655,0,0,1,10.8,13.332Zm374.359-13.188-3.422-2.4a33.858,33.858,0,0,1,5.315-6.267,25.74,25.74,0,0,1,10.306-2.005l-.137,4.177C709.86,1197.419,706.509,1198.415,703.233,1203.955Zm-411.729-2.7-2.807-3.1c4.593-4.321,11.55-5.752,17.225-4.994l-.58,4.139C300.635,1196.735,295.279,1197.775,291.5,1201.258Zm130.97-5.239-4.095-.836c1.2-5.867,2.377-11.24,3.6-16.427l4.067.961C424.834,1184.862,423.664,1190.194,422.475,1196.019Zm170.937-8.891c-1.5-5.8-2.932-11.058-4.383-16.074l4.014-1.161c1.463,5.054,2.907,10.35,4.415,16.19ZM430.2,1163.592l-4.023-1.131c1.589-5.648,3.271-11.066,5-16.1l3.953,1.357C433.429,1152.679,431.77,1158.021,430.2,1163.592Zm153.886-8.419c-1.852-5.518-3.776-10.759-5.719-15.577l3.876-1.562c1.973,4.894,3.927,10.213,5.8,15.81ZM441.078,1132.24l-3.838-1.653a165.789,165.789,0,0,1,7.449-15.21l3.648,2.039A161.659,161.659,0,0,0,441.078,1132.24Zm130.509-7.728a142.3,142.3,0,0,0-8.2-14.274l3.489-2.3a146.711,146.711,0,0,1,8.445,14.695ZM457.27,1103.656l-3.328-2.528a91.007,91.007,0,0,1,11.492-12.594l2.8,3.107A86.813,86.813,0,0,0,457.27,1103.656Zm96.1-6.346a77.694,77.694,0,0,0-12.14-10.779l2.418-3.409a81.891,81.891,0,0,1,12.8,11.358ZM481.357,1082.3l-2-3.672a68.035,68.035,0,0,1,15.927-6.2l1.016,4.054A63.846,63.846,0,0,0,481.357,1082.3Zm45.68-3.476a72.273,72.273,0,0,0-13.254-3.749v-.137c-.628-.04-1.253-.073-1.872-.1l.175-4.176c1.869.071,3.986.251,5.876.416v.6a72.694,72.694,0,0,1,10.607,3.26Z" transform="translate(-107.866 -762.609)" fill="#d4e8ff"/>
        <path id="Trazado_117407" data-name="Trazado 117407" d="M900.16,1698.192c-7.415-1.127-15.317-.215-19.945,1.753-97.684,60.364-72.835-50.923-128.965-41.1-23.94,1.315-49.512,46.589-76.144,43.992-7.093-2.29-10.02-7.136-13.552-15.481-12.75-52.571-44.1-78.4-85.434-81.349v-.158c-4.635-.185-9.067-.185-13.7,0v.158c-41.332,2.95-72.684,28.778-85.434,81.349-3.064,7.883-6.77,12.424-10.96,14.511-26.964,10.055-60.869-55.124-94.416-42.971-26.688,6.735-24.8,57.968-63.457,57.968-37.4,1.348-39.271-21.42-67.1-18.975-26.677-.509-42.849,39.481-41.469,40.3H938.955S929.953,1702.553,900.16,1698.192Z" transform="translate(-168.712 -1117.883)" fill="#d4e8ff"/>
      </g>
      <g id="_6" data-name="6" transform="translate(233.157 256.248)">
        <g id="Grupo_83597" data-name="Grupo 83597" transform="translate(266.262 130.495)">
          <path id="Trazado_117408" data-name="Trazado 117408" d="M1548.985,1151.021l-62.619,52.9a305.48,305.48,0,0,0,35.025,52.9l54.095-45.684S1571.849,1178.466,1548.985,1151.021Z" transform="translate(-1486.366 -1151.021)" fill="#f99370"/>
        </g>
        <g id="Grupo_83598" data-name="Grupo 83598" transform="translate(51.904 130.495)">
          <path id="Trazado_117409" data-name="Trazado 117409" d="M874.9,1151.021l62.619,52.9a305.475,305.475,0,0,1-35.025,52.9L848.4,1211.146S852.034,1178.466,874.9,1151.021Z" transform="translate(-848.397 -1151.021)" fill="#f99370"/>
        </g>
        <path id="Trazado_117410" data-name="Trazado 117410" d="M1425.238,975.127,1300,1007.483V814.258L1425.238,781.9Z" transform="translate(-1096.357 -775.43)" fill="#1d3f70"/>
        <path id="Trazado_117411" data-name="Trazado 117411" d="M1052.506,1007.483,927.268,975.127V781.9l125.238,32.356Z" transform="translate(-848.863 -775.43)" fill="#1d3f70"/>
        <path id="Trazado_117412" data-name="Trazado 117412" d="M1409.711,951.325,1300,979.669V790.987l109.711-28.345Z" transform="translate(-1096.357 -762.642)" fill="#fee"/>
        <path id="Trazado_117413" data-name="Trazado 117413" d="M1476.347,901.359l-52.69,13.613V836.3l52.69-13.613Z" transform="translate(-1178.466 -802.512)" fill="#ffdcdc"/>
        <path id="Trazado_117414" data-name="Trazado 117414" d="M1346.667,825.325v93.067l-3.491-2.65-6.028-4.578-6.028,7.717-3.491,4.468V828.88a2.634,2.634,0,0,1,1.977-2.55l1.514-.391,12.056-3.113.2-.052A2.634,2.634,0,0,1,1346.667,825.325Z" transform="translate(-1114.702 -802.514)" fill="#dd4a43"/>
        <path id="Trazado_117415" data-name="Trazado 117415" d="M1350.075,823.1v92.915l-6.028-4.578-6.028,7.717v-92.94Z" transform="translate(-1121.602 -802.784)" fill="#ce3932"/>
        <path id="Trazado_117416" data-name="Trazado 117416" d="M1626.52,951.325l10.46,7.872V770.422l-10.46-7.78Z" transform="translate(-1313.166 -762.642)" fill="#ffdcdc"/>
        <path id="Trazado_117417" data-name="Trazado 117417" d="M1300,1363.117l120.171-31.047-10.46-7.872L1300,1352.542Z" transform="translate(-1096.357 -1135.515)" fill="#ffdcdc"/>
        <path id="Trazado_117418" data-name="Trazado 117418" d="M1083.191,979.669,973.48,951.325V762.642l109.711,28.345Z" transform="translate(-879.548 -762.642)" fill="#fee"/>
        <path id="Trazado_117419" data-name="Trazado 117419" d="M952.809,951.325l-10.46,7.872V770.422l10.46-7.78Z" transform="translate(-858.877 -762.642)" fill="#ffdcdc"/>
        <g id="Grupo_83599" data-name="Grupo 83599" transform="translate(103.025 16.873)">
          <path id="Trazado_117420" data-name="Trazado 117420" d="M1154.895,855.554a1.615,1.615,0,0,1-.406-.052l-52.656-13.6a1.618,1.618,0,1,1,.809-3.132l52.656,13.6a1.618,1.618,0,0,1-.4,3.184Z" transform="translate(-1066.993 -830.026)" fill="#fcb4b4"/>
          <path id="Trazado_117421" data-name="Trazado 117421" d="M1023.89,821.708a1.61,1.61,0,0,1-.406-.052l-21.729-5.614a1.618,1.618,0,1,1,.81-3.133l21.728,5.614a1.618,1.618,0,0,1-.4,3.184Z" transform="translate(-1000.542 -812.858)" fill="#fcb4b4"/>
          <path id="Trazado_117422" data-name="Trazado 117422" d="M1208.829,916.331a1.628,1.628,0,0,1-.406-.051l-25.364-6.553a1.618,1.618,0,0,1,.809-3.133l25.364,6.553a1.618,1.618,0,0,1-.4,3.184Z" transform="translate(-1120.928 -875.064)" fill="#fcb4b4"/>
          <path id="Trazado_117423" data-name="Trazado 117423" d="M1055.373,876.685a1.624,1.624,0,0,1-.406-.052l-53.212-13.748a1.618,1.618,0,1,1,.81-3.133l53.211,13.748a1.618,1.618,0,0,1-.4,3.185Z" transform="translate(-1000.542 -843.961)" fill="#fcb4b4"/>
          <path id="Trazado_117424" data-name="Trazado 117424" d="M1217.2,965.336a1.632,1.632,0,0,1-.406-.052l-21.126-5.458a1.618,1.618,0,0,1,.809-3.133l21.126,5.458a1.618,1.618,0,0,1-.4,3.184Z" transform="translate(-1129.302 -908.33)" fill="#fcb4b4"/>
          <path id="Trazado_117425" data-name="Trazado 117425" d="M1105.534,936.486a1.614,1.614,0,0,1-.406-.052l-31.872-8.234a1.618,1.618,0,0,1,.809-3.133l31.872,8.235a1.618,1.618,0,0,1-.4,3.185Z" transform="translate(-1048.018 -887.33)" fill="#fcb4b4"/>
          <path id="Trazado_117426" data-name="Trazado 117426" d="M1018.042,913.881a1.632,1.632,0,0,1-.406-.052l-15.881-4.1a1.618,1.618,0,1,1,.81-3.133l15.881,4.1a1.618,1.618,0,0,1-.4,3.184Z" transform="translate(-1000.542 -875.064)" fill="#fcb4b4"/>
          <path id="Trazado_117427" data-name="Trazado 117427" d="M1189.867,1005.116a1.632,1.632,0,0,1-.406-.052l-34.959-9.032a1.618,1.618,0,0,1,.809-3.133l34.959,9.032a1.618,1.618,0,0,1-.4,3.185Z" transform="translate(-1101.966 -932.371)" fill="#fcb4b4"/>
          <path id="Trazado_117428" data-name="Trazado 117428" d="M1038.542,966.019a1.611,1.611,0,0,1-.406-.052l-36.381-9.4a1.618,1.618,0,0,1,.81-3.133l36.381,9.4a1.618,1.618,0,0,1-.4,3.185Z" transform="translate(-1000.542 -906.167)" fill="#fcb4b4"/>
          <path id="Trazado_117429" data-name="Trazado 117429" d="M1088.443,1025.753a1.624,1.624,0,0,1-.406-.052l-86.282-22.292a1.618,1.618,0,0,1,.81-3.133l86.282,22.292a1.618,1.618,0,0,1-.4,3.185Z" transform="translate(-1000.542 -937.269)" fill="#fcb4b4"/>
          <path id="Trazado_117430" data-name="Trazado 117430" d="M1190.648,1099a1.63,1.63,0,0,1-.406-.052l-34.564-8.93a1.618,1.618,0,0,1,.809-3.133l34.564,8.93a1.618,1.618,0,0,1-.4,3.185Z" transform="translate(-1102.747 -994.778)" fill="#fcb4b4"/>
          <path id="Trazado_117431" data-name="Trazado 117431" d="M1043.06,1060.869a1.611,1.611,0,0,1-.406-.052l-40.9-10.567a1.618,1.618,0,0,1,.81-3.133l40.9,10.567a1.618,1.618,0,0,1-.4,3.185Z" transform="translate(-1000.542 -968.372)" fill="#fcb4b4"/>
          <path id="Trazado_117432" data-name="Trazado 117432" d="M1088.443,1119.437a1.608,1.608,0,0,1-.406-.052l-86.282-22.292a1.618,1.618,0,0,1,.81-3.133l86.282,22.292a1.618,1.618,0,0,1-.4,3.185Z" transform="translate(-1000.542 -999.475)" fill="#fcb4b4"/>
          <path id="Trazado_117433" data-name="Trazado 117433" d="M1167.917,1186.811a1.612,1.612,0,0,1-.406-.052l-46.066-11.9a1.618,1.618,0,0,1,.809-3.133l46.067,11.9a1.618,1.618,0,0,1-.4,3.185Z" transform="translate(-1080.016 -1051.111)" fill="#fcb4b4"/>
          <path id="Trazado_117434" data-name="Trazado 117434" d="M1029.741,1151.112a1.6,1.6,0,0,1-.406-.052l-27.58-7.125a1.618,1.618,0,0,1,.81-3.133l27.58,7.125a1.618,1.618,0,0,1-.4,3.185Z" transform="translate(-1000.542 -1030.578)" fill="#fcb4b4"/>
          <path id="Trazado_117435" data-name="Trazado 117435" d="M1211.442,1244.9a1.618,1.618,0,0,1-.406-.052l-24.042-6.211a1.618,1.618,0,0,1,.809-3.133l24.042,6.212a1.618,1.618,0,0,1-.4,3.185Z" transform="translate(-1123.541 -1093.459)" fill="#fcb4b4"/>
          <path id="Trazado_117436" data-name="Trazado 117436" d="M1059.149,1205.552a1.629,1.629,0,0,1-.406-.052l-50.052-12.932a1.618,1.618,0,0,1,.809-3.133l50.052,12.931a1.618,1.618,0,0,1-.4,3.185Z" transform="translate(-1005.147 -1062.871)" fill="#fcb4b4"/>
          <path id="Trazado_117437" data-name="Trazado 117437" d="M1216.582,1293.068a1.63,1.63,0,0,1-.406-.052l-21.441-5.539a1.618,1.618,0,0,1,.809-3.133l21.441,5.54a1.618,1.618,0,0,1-.4,3.185Z" transform="translate(-1128.681 -1125.89)" fill="#fcb4b4"/>
          <path id="Trazado_117438" data-name="Trazado 117438" d="M1117.407,1267.446a1.611,1.611,0,0,1-.406-.052l-28.5-7.362a1.618,1.618,0,0,1,.81-3.133l28.5,7.362a1.618,1.618,0,0,1-.4,3.185Z" transform="translate(-1058.144 -1107.667)" fill="#fcb4b4"/>
          <path id="Trazado_117439" data-name="Trazado 117439" d="M1023.081,1243.075a1.611,1.611,0,0,1-.406-.052l-20.92-5.4a1.618,1.618,0,0,1,.81-3.133l20.919,5.4a1.618,1.618,0,0,1-.4,3.185Z" transform="translate(-1000.542 -1092.784)" fill="#fcb4b4"/>
          <path id="Trazado_117440" data-name="Trazado 117440" d="M1088.443,1306.8a1.63,1.63,0,0,1-.406-.052l-86.282-22.292a1.618,1.618,0,0,1,.81-3.133l86.282,22.292a1.618,1.618,0,0,1-.4,3.185Z" transform="translate(-1000.542 -1123.887)" fill="#fcb4b4"/>
        </g>
        <g id="Grupo_83600" data-name="Grupo 83600" transform="translate(213.739 111.306)">
          <path id="Trazado_117441" data-name="Trazado 117441" d="M1331.665,1153.512a1.618,1.618,0,0,1-.4-3.185l19.541-5.049a1.618,1.618,0,0,1,.809,3.133l-19.542,5.049A1.6,1.6,0,0,1,1331.665,1153.512Z" transform="translate(-1330.048 -1127.983)" fill="#fcb4b4"/>
          <path id="Trazado_117442" data-name="Trazado 117442" d="M1420.458,1111.729a1.618,1.618,0,0,1-.4-3.185l56.448-14.584a1.618,1.618,0,1,1,.809,3.133l-56.448,14.584A1.606,1.606,0,0,1,1420.458,1111.729Z" transform="translate(-1389.006 -1093.908)" fill="#fcb4b4"/>
          <path id="Trazado_117443" data-name="Trazado 117443" d="M1331.665,1185.708a1.618,1.618,0,0,1-.4-3.185l48.227-12.46a1.618,1.618,0,1,1,.809,3.133l-48.227,12.46A1.607,1.607,0,0,1,1331.665,1185.708Z" transform="translate(-1330.048 -1144.441)" fill="#fcb4b4"/>
          <path id="Trazado_117444" data-name="Trazado 117444" d="M1512.97,1150.539a1.618,1.618,0,0,1-.4-3.185l25.364-6.553a1.618,1.618,0,1,1,.809,3.133l-25.364,6.553A1.6,1.6,0,0,1,1512.97,1150.539Z" transform="translate(-1450.434 -1125.01)" fill="#fcb4b4"/>
          <path id="Trazado_117445" data-name="Trazado 117445" d="M1331.665,1214.137a1.618,1.618,0,0,1-.4-3.185l84.29-21.777a1.618,1.618,0,0,1,.809,3.133l-84.291,21.777A1.606,1.606,0,0,1,1331.665,1214.137Z" transform="translate(-1330.048 -1157.131)" fill="#fcb4b4"/>
          <path id="Trazado_117446" data-name="Trazado 117446" d="M1331.665,1293.068a1.618,1.618,0,0,1-.4-3.185l21.441-5.54a1.618,1.618,0,0,1,.809,3.133l-21.441,5.539A1.623,1.623,0,0,1,1331.665,1293.068Z" transform="translate(-1330.048 -1220.323)" fill="#fcb4b4"/>
          <path id="Trazado_117447" data-name="Trazado 117447" d="M1416.9,1267.445a1.618,1.618,0,0,1-.4-3.185l28.5-7.362a1.618,1.618,0,1,1,.809,3.133l-28.5,7.362A1.616,1.616,0,0,1,1416.9,1267.445Z" transform="translate(-1386.642 -1202.099)" fill="#fcb4b4"/>
          <path id="Trazado_117448" data-name="Trazado 117448" d="M1526.2,1243.075a1.618,1.618,0,0,1-.4-3.185l20.92-5.4a1.618,1.618,0,1,1,.809,3.133l-20.919,5.4A1.61,1.61,0,0,1,1526.2,1243.075Z" transform="translate(-1459.216 -1187.217)" fill="#fcb4b4"/>
          <path id="Trazado_117449" data-name="Trazado 117449" d="M1331.665,1330.643a1.618,1.618,0,0,1-.4-3.185l39.59-10.228a1.618,1.618,0,1,1,.809,3.133l-39.59,10.229A1.623,1.623,0,0,1,1331.665,1330.643Z" transform="translate(-1330.048 -1242.159)" fill="#fcb4b4"/>
          <path id="Trazado_117450" data-name="Trazado 117450" d="M1485.342,1293.463a1.618,1.618,0,0,1-.4-3.185l34.647-8.951a1.618,1.618,0,0,1,.809,3.133l-34.647,8.951A1.624,1.624,0,0,1,1485.342,1293.463Z" transform="translate(-1432.089 -1218.32)" fill="#fcb4b4"/>
        </g>
        <path id="Trazado_117451" data-name="Trazado 117451" d="M1062.52,1363.117,942.349,1332.07l10.46-7.872,109.711,28.345Z" transform="translate(-858.877 -1135.515)" fill="#ffdcdc"/>
        <g id="Grupo_83602" data-name="Grupo 83602" transform="translate(23.701 136.756)">
          <g id="Grupo_83601" data-name="Grupo 83601">
            <path id="Trazado_117452" data-name="Trazado 117452" d="M862.37,1181.684a23.539,23.539,0,0,1-6.108,7.708,32.158,32.158,0,0,1-3.474,2.409c-1.378.843-2.742,1.583-3.854,2.15-1.485.756-2.517,1.213-2.517,1.213s-.309.447-.827,1.236c-2.406,3.666-9.331,14.777-10.9,23.459q-.176.983-.259,1.915a13.5,13.5,0,0,0,.03,2.863c.336,2.654.739,5.248,1.189,7.765q.434,2.394.917,4.687c.974,4.634,2.093,8.941,3.222,12.8,0,.014.007.027.01.037a150.294,150.294,0,0,0,6.952,19.273l0,0c-.857.511-.827,26.974-.353,64.206.155,12.136.356,25.422.588,39.322.406,24.353.914,50.6,1.431,75.919H764.46c1.687-25.738,3.777-53.259,6.337-80.5,1.253-13.356,2.624-26.645,4.113-39.625,4.65-40.485,10.483-77.949,17.754-105.007a50.614,50.614,0,0,1,15.483-24.867,83.147,83.147,0,0,1,11.017-8.346q2.465-1.588,5.067-3.091c3.353-1.949,6.854-3.81,10.46-5.638q1.86-.948,3.76-1.885c2.863-1.418,5.779-2.829,8.726-4.26a.157.157,0,0,1,.027-.013c3.041-1.475,6.112-2.974,9.19-4.523a14.68,14.68,0,0,1,1.687-.732c.077-.027.155-.05.232-.077a8.436,8.436,0,0,1,1.488-.363c.064-.01.128-.02.188-.027C865.152,1169.094,865.489,1175.425,862.37,1181.684Z" transform="translate(-764.46 -1169.653)" fill="#f99370"/>
          </g>
          <path id="Trazado_117453" data-name="Trazado 117453" d="M1023.456,1169.772s1.262,3.311-2.807,7.325-6.9,4.45-6.9,4.45a26.469,26.469,0,0,0-3.108-6.04S1019.536,1170.275,1023.456,1169.772Z" transform="translate(-927.926 -1169.732)" fill="#fcb5a7"/>
        </g>
        <path id="Trazado_117454" data-name="Trazado 117454" d="M1007.6,1377.731s-15.479.3-25.3,5.463c0,0-1.577-5.546-3.232-12.834Z" transform="translate(-883.26 -1166.167)" fill="#e57d61"/>
        <path id="Trazado_117455" data-name="Trazado 117455" d="M905.318,1151.021s-7.259,19.706-11.108,35.628a73.744,73.744,0,0,1,11.108-8.54Z" transform="translate(-826.913 -1020.526)" fill="#e57d61"/>
        <path id="Trazado_117456" data-name="Trazado 117456" d="M815.814,1762.607H693.92c3.373-29.595,7.449-59,12.15-81.7q.625-3.009,1.294-5.759c5.268-21.749,12.523-31.473,20.708-32.666,0,0,29.84,13.642,71.494,4.885,0,0,11.659,3.8,13.769,35.522C814.124,1694.755,815.014,1726.954,815.814,1762.607Z" transform="translate(-693.92 -1346.854)" fill="#eb5648"/>
        <g id="Grupo_83604" data-name="Grupo 83604" transform="translate(283.675 136.756)">
          <g id="Grupo_83603" data-name="Grupo 83603">
            <path id="Trazado_117457" data-name="Trazado 117457" d="M1556.157,1333.408c.474-37.232.5-63.7-.353-64.206l0,0a150.3,150.3,0,0,0,6.952-19.273c0-.01.007-.024.01-.037,1.129-3.857,2.248-8.165,3.222-12.8q.484-2.293.917-4.687c.45-2.517.854-5.11,1.189-7.765a13.494,13.494,0,0,0,.03-2.863q-.081-.933-.259-1.915c-1.569-8.682-8.494-19.794-10.9-23.459-.517-.79-.827-1.237-.827-1.237s-1.189-.527-2.849-1.388c-1.045-.541-2.281-1.213-3.521-1.976a32.133,32.133,0,0,1-3.474-2.409,23.573,23.573,0,0,1-6.223-7.94c-2.994-6.182-2.6-12.351,2.5-11.76a8.336,8.336,0,0,1,1.656.383c.047.013.1.03.145.047a14.812,14.812,0,0,1,1.794.769c2.947,1.485,5.89,2.92,8.8,4.334a.01.01,0,0,0,.007,0c3.084,1.5,6.139,2.977,9.132,4.459q1.9.937,3.76,1.885c3.605,1.828,7.106,3.689,10.46,5.638q2.6,1.5,5.067,3.091a83.135,83.135,0,0,1,11.018,8.346,50.614,50.614,0,0,1,15.483,24.867c7.271,27.058,13.1,64.522,17.754,105.007,1.5,13.033,2.869,26.383,4.129,39.8,2.554,27.186,4.637,54.647,6.32,80.331h-83.963c.521-25.459,1.028-51.865,1.438-76.333C1555.8,1358.568,1556,1345.427,1556.157,1333.408Z" transform="translate(-1538.191 -1169.653)" fill="#f99370"/>
          </g>
          <path id="Trazado_117458" data-name="Trazado 117458" d="M1550.859,1169.772s-1.262,3.311,2.807,7.325,6.9,4.45,6.9,4.45a19.174,19.174,0,0,1,2.7-6.237S1554.779,1170.275,1550.859,1169.772Z" transform="translate(-1546.48 -1169.732)" fill="#fcb5a7"/>
        </g>
        <path id="Trazado_117459" data-name="Trazado 117459" d="M1536.02,1377.731s15.479.3,25.3,5.463c0,0,1.577-5.546,3.232-12.834Z" transform="translate(-1253.074 -1166.167)" fill="#e57d61"/>
        <path id="Trazado_117460" data-name="Trazado 117460" d="M1672.732,1151.021s7.259,19.706,11.108,35.628a73.767,73.767,0,0,0-11.108-8.54Z" transform="translate(-1343.851 -1020.526)" fill="#e57d61"/>
        <path id="Trazado_117461" data-name="Trazado 117461" d="M1665.194,1762.607H1543.3c.8-35.653,1.69-67.852,2.48-79.719,2.11-31.722,13.769-35.522,13.769-35.522,41.654,8.756,71.494-4.885,71.494-4.885,8.185,1.193,15.439,10.917,20.708,32.666q.67,2.752,1.294,5.759C1657.745,1703.608,1661.821,1733.012,1665.194,1762.607Z" transform="translate(-1257.908 -1346.854)" fill="#eb5648"/>
        <path id="Trazado_117462" data-name="Trazado 117462" d="M1296.8,1034.1a1.618,1.618,0,0,1-1.618-1.618V843.8a1.618,1.618,0,1,1,3.236,0v188.682A1.618,1.618,0,0,1,1296.8,1034.1Z" transform="translate(-1093.16 -815.459)" fill="#fcb4b4"/>
        <path id="Trazado_117463" data-name="Trazado 117463" d="M839.9,1682.89c-56.517,19.663-105.974-7.743-105.974-7.743,5.271-21.747,12.525-31.473,20.708-32.664,0,0,29.839,13.642,71.495,4.886C826.13,1647.369,837.788,1651.168,839.9,1682.89Z" transform="translate(-720.485 -1346.856)" fill="#ce3932"/>
        <path id="Trazado_117464" data-name="Trazado 117464" d="M1656.649,1675.147c-51.24,26.788-105.974,7.743-105.974,7.743,2.113-31.722,13.771-35.521,13.771-35.521,41.656,8.756,71.495-4.886,71.495-4.886C1644.124,1643.674,1651.378,1653.4,1656.649,1675.147Z" transform="translate(-1262.805 -1346.856)" fill="#ce3932"/>
      </g>
      <g id="_5" data-name="5" transform="translate(539.478 95.333)">
        <rect id="Rectángulo_34511" data-name="Rectángulo 34511" width="91.625" height="69.02" transform="translate(1.899 92.752) rotate(-70.109)" fill="#eb5648"/>
        <path id="Trazado_117465" data-name="Trazado 117465" d="M1829.924,353.618l1.9,6.594-31.173,86.159-1.9-6.594Z" transform="translate(-1733.849 -330.136)" fill="#ce3932"/>
        <path id="Trazado_117466" data-name="Trazado 117466" d="M1673.491,564.723l-63.384-22.933,1.133,3.965,63.536,23.427Z" transform="translate(-1608.589 -455.082)" fill="#ffdcdc"/>
        <rect id="Rectángulo_34512" data-name="Rectángulo 34512" width="91.625" height="69.02" transform="translate(0 86.159) rotate(-70.109)" fill="#eb5648"/>
        <path id="Trazado_117467" data-name="Trazado 117467" d="M1840.4,362.78a.768.768,0,0,1-.721-1.029l4.094-11.314-13.219-4.783a.767.767,0,1,1,.521-1.443l13.941,5.044a.767.767,0,0,1,.461.982l-4.355,12.036A.768.768,0,0,1,1840.4,362.78Z" transform="translate(-1754.628 -323.859)" fill="#ce3932"/>
        <path id="Trazado_117468" data-name="Trazado 117468" d="M1766.951,568.7a.764.764,0,0,1-.261-.046l-10.978-3.972a.767.767,0,0,1,.522-1.443l10.257,3.711,3.991-11.032a.767.767,0,0,1,1.443.522l-4.252,11.753a.768.768,0,0,1-.721.506Z" transform="translate(-1704.934 -464.128)" fill="#ce3932"/>
        <path id="Trazado_117469" data-name="Trazado 117469" d="M1633,512.9a.771.771,0,0,1-.261-.046l-11.219-4.059a.767.767,0,0,1-.46-.983l4.162-11.495a.767.767,0,1,1,1.442.522l-3.9,10.773,10.5,3.8A.767.767,0,0,1,1633,512.9Z" transform="translate(-1615.833 -424.551)" fill="#ce3932"/>
        <path id="Trazado_117470" data-name="Trazado 117470" d="M1693.616,311.375a.767.767,0,0,1-.721-1.029l3.989-11.018a.767.767,0,0,1,.982-.46l12.489,4.519a.767.767,0,1,1-.522,1.443l-11.768-4.257-3.729,10.3A.768.768,0,0,1,1693.616,311.375Z" transform="translate(-1663.53 -293.751)" fill="#ce3932"/>
        <path id="Trazado_117471" data-name="Trazado 117471" d="M1676.747,409.414l0,0a25.97,25.97,0,0,1-15.583-33.262l7.832-21.632a25.97,25.97,0,0,1,33.255-15.58h0a25.97,25.97,0,0,1,15.585,33.257L1710,393.829A25.97,25.97,0,0,1,1676.747,409.414Z" transform="translate(-1641.453 -319.356)" fill="#f49f9f"/>
        <path id="Trazado_117472" data-name="Trazado 117472" d="M1736.629,419.83a.764.764,0,0,1-.261-.046l-34.656-12.539a.767.767,0,0,1,.522-1.443l34.656,12.539a.767.767,0,0,1-.261,1.489Z" transform="translate(-1669.078 -364.755)" fill="#dd4a43"/>
        <path id="Trazado_117473" data-name="Trazado 117473" d="M1729.358,439.924a.77.77,0,0,1-.261-.046l-34.656-12.539a.767.767,0,0,1,.522-1.443l34.656,12.539a.767.767,0,0,1-.261,1.488Z" transform="translate(-1664.251 -378.097)" fill="#dd4a43"/>
        <path id="Trazado_117474" data-name="Trazado 117474" d="M1722.122,459.926a.769.769,0,0,1-.261-.046l-34.656-12.539a.767.767,0,0,1,.522-1.443l34.656,12.539a.767.767,0,0,1-.261,1.488Z" transform="translate(-1659.446 -391.379)" fill="#dd4a43"/>
      </g>
      <g id="_4" data-name="4" transform="translate(401.942 539.606)">
        <rect id="Rectángulo_34513" data-name="Rectángulo 34513" width="52.363" height="69.513" transform="translate(0 23.88) rotate(-21.098)" fill="#092444"/>
        <path id="Trazado_117475" data-name="Trazado 117475" d="M1197.592,1662.068l-1.335,5.031,25.022,64.853,1.335-5.031Z" transform="translate(-1196.257 -1643.219)" fill="#092444"/>
        <path id="Trazado_117476" data-name="Trazado 117476" d="M1272.916,1818.705l47.71-18.408-.8,3.026-47.817,18.785Z" transform="translate(-1246.559 -1735.003)" fill="#ffdcdc"/>
        <rect id="Rectángulo_34514" data-name="Rectángulo 34514" width="52.363" height="69.513" transform="translate(1.335 18.849) rotate(-21.098)" fill="#1d3f70"/>
        <path id="Trazado_117477" data-name="Trazado 117477" d="M1216.133,1668.224a.582.582,0,0,1-.543-.373l-3.5-9.06a.582.582,0,0,1,.334-.752l10.493-4.048a.582.582,0,0,1,.419,1.086l-9.95,3.839,3.286,8.517a.582.582,0,0,1-.543.792Z" transform="translate(-1206.747 -1637.83)" fill="#3a72aa"/>
        <path id="Trazado_117478" data-name="Trazado 117478" d="M1273.041,1823.722a.582.582,0,0,1-.543-.372l-3.413-8.847a.582.582,0,0,1,1.086-.419l3.2,8.3,7.72-2.979a.582.582,0,1,1,.419,1.086l-8.263,3.188A.579.579,0,0,1,1273.041,1823.722Z" transform="translate(-1244.589 -1743.911)" fill="#3a72aa"/>
        <path id="Trazado_117479" data-name="Trazado 117479" d="M1380.254,1778.9a.582.582,0,0,1-.209-1.125l7.9-3.049-3.131-8.109a.582.582,0,0,1,1.086-.419l3.34,8.652a.582.582,0,0,1-.334.753l-8.444,3.258A.58.58,0,0,1,1380.254,1778.9Z" transform="translate(-1318.044 -1712.117)" fill="#3a72aa"/>
        <path id="Trazado_117480" data-name="Trazado 117480" d="M1322.824,1627.014a.582.582,0,0,1-.543-.372l-2.992-7.751-8.858,3.417a.582.582,0,0,1-.419-1.086l9.4-3.627a.583.583,0,0,1,.752.333l3.2,8.293a.582.582,0,0,1-.543.792Z" transform="translate(-1271.543 -1613.664)" fill="#3a72aa"/>
        <path id="Trazado_117481" data-name="Trazado 117481" d="M1275.229,1702.015h0a19.7,19.7,0,0,0,11.288-25.478l-6.286-16.282a19.7,19.7,0,0,0-25.472-11.286h0a19.7,19.7,0,0,0-11.29,25.474l6.283,16.283A19.7,19.7,0,0,0,1275.229,1702.015Z" transform="translate(-1226.728 -1633.641)" fill="#f49f9f"/>
        <path id="Trazado_117482" data-name="Trazado 117482" d="M1264.939,1709.838a.582.582,0,0,1-.21-1.125l26.086-10.065a.582.582,0,1,1,.419,1.086l-26.086,10.065A.582.582,0,0,1,1264.939,1709.838Z" transform="translate(-1241.475 -1667.483)" fill="#1d3f70"/>
        <path id="Trazado_117483" data-name="Trazado 117483" d="M1270.775,1724.962a.582.582,0,0,1-.21-1.125l26.086-10.065a.582.582,0,1,1,.418,1.086l-26.086,10.065A.58.58,0,0,1,1270.775,1724.962Z" transform="translate(-1245.35 -1677.525)" fill="#1d3f70"/>
        <path id="Trazado_117484" data-name="Trazado 117484" d="M1276.584,1740.019a.582.582,0,0,1-.21-1.125l26.086-10.065a.582.582,0,0,1,.419,1.086l-26.086,10.064A.58.58,0,0,1,1276.584,1740.019Z" transform="translate(-1249.207 -1687.523)" fill="#1d3f70"/>
      </g>
      <g id="_3" data-name="3" transform="translate(294.979 64.88)">
        <rect id="Rectángulo_34515" data-name="Rectángulo 34515" width="85.878" height="114.003" transform="translate(0 43.216) rotate(-23.953)" fill="#1d3f70"/>
        <path id="Trazado_117485" data-name="Trazado 117485" d="M879.69,296.859l-1.776,8.351L924.2,409.395l1.776-8.351Z" transform="translate(-877.915 -261.994)" fill="#23659b"/>
        <path id="Trazado_117486" data-name="Trazado 117486" d="M1018.575,539.259l77.087-34.245-1.5,5.217-76.79,34.675Z" transform="translate(-970.516 -400.209)" fill="#ffdcdc"/>
        <g id="Grupo_83605" data-name="Grupo 83605" transform="translate(1.776)">
          <rect id="Rectángulo_34516" data-name="Rectángulo 34516" width="85.878" height="114.003" transform="translate(0 34.865) rotate(-23.953)" fill="#3a72aa"/>
          <path id="Trazado_117487" data-name="Trazado 117487" d="M960.457,196.274l44.327,99.782-74.079,32.909-44.328-99.783,74.079-32.909Zm1.223-3.18L883.2,227.959l46.284,104.185,78.482-34.865L961.681,193.094Z" transform="translate(-883.199 -193.094)" fill="#1d3f70"/>
        </g>
        <path id="Trazado_117488" data-name="Trazado 117488" d="M1168.3,556.858l6.39-2.876-5.85-13.6-6.318,2.771Z" transform="translate(-1066.896 -423.693)" fill="#ce3932"/>
        <path id="Trazado_117489" data-name="Trazado 117489" d="M935.516,312.689a.954.954,0,0,1-.873-.567,13.282,13.282,0,0,1,6.746-17.531.955.955,0,0,1,.775,1.745,11.386,11.386,0,0,0-5.777,15.011.955.955,0,0,1-.872,1.342Z" transform="translate(-914.818 -260.434)" fill="#1d3f70"/>
        <path id="Trazado_117490" data-name="Trazado 117490" d="M1081.235,252.29a.954.954,0,0,1-.873-.567,11.387,11.387,0,0,0-15.01-5.774.954.954,0,1,1-.775-1.745,13.3,13.3,0,0,1,17.53,6.743.955.955,0,0,1-.872,1.342Z" transform="translate(-1001.482 -226.272)" fill="#1d3f70"/>
        <path id="Trazado_117491" data-name="Trazado 117491" d="M1177.68,469.581a.955.955,0,0,1-.388-1.827,11.374,11.374,0,0,0,5.775-15.013.954.954,0,0,1,1.744-.775,13.282,13.282,0,0,1-6.745,17.533A.949.949,0,0,1,1177.68,469.581Z" transform="translate(-1076.324 -364.608)" fill="#1d3f70"/>
        <path id="Trazado_117492" data-name="Trazado 117492" d="M1031.781,538.743a13.314,13.314,0,0,1-12.143-7.9.954.954,0,1,1,1.745-.775,11.373,11.373,0,0,0,15.011,5.776.955.955,0,1,1,.775,1.745A13.253,13.253,0,0,1,1031.781,538.743Z" transform="translate(-971.964 -416.47)" fill="#1d3f70"/>
        <g id="Grupo_83606" data-name="Grupo 83606" transform="translate(41.197 55.195)">
          <path id="Trazado_117493" data-name="Trazado 117493" d="M1001.481,377.892a.955.955,0,0,1-.388-1.827L1043,357.448a.955.955,0,0,1,.775,1.745l-41.907,18.617A.949.949,0,0,1,1001.481,377.892Z" transform="translate(-1000.526 -357.366)" fill="#1d3f70"/>
          <path id="Trazado_117494" data-name="Trazado 117494" d="M1012.275,402.19a.955.955,0,0,1-.388-1.827l41.907-18.617a.955.955,0,1,1,.775,1.745l-41.907,18.617A.95.95,0,0,1,1012.275,402.19Z" transform="translate(-1007.693 -373.5)" fill="#1d3f70"/>
        </g>
      </g>
      <g id="_2" data-name="2" transform="translate(625.089 240.295)">
        <g id="Grupo_83607" data-name="Grupo 83607" transform="translate(85.661 156.684)">
          <path id="Trazado_117495" data-name="Trazado 117495" d="M2199.279,1181.486l-83.952,64.9s4,23.241,22.052,51.035l61.57.611S2213,1231.527,2199.279,1181.486Z" transform="translate(-2115.327 -1181.486)" fill="#f99370"/>
        </g>
        <rect id="Rectángulo_34517" data-name="Rectángulo 34517" width="193.225" height="145.555" transform="translate(4.129 196.149) rotate(-70.624)" fill="#ce4abf"/>
        <path id="Trazado_117496" data-name="Trazado 117496" d="M2333.153,858.888l4.13,13.868-64.107,182.281-4.129-13.869Z" transform="translate(-2131.736 -810.597)" fill="#a523a2"/>
        <path id="Trazado_117497" data-name="Trazado 117497" d="M2117.62,1385.088s19.621,10.739,30.594,21.354l11.784-6.449Z" transform="translate(-2031.189 -1159.994)" fill="#e57d61"/>
        <path id="Trazado_117498" data-name="Trazado 117498" d="M2006.951,1309.213l-132.627-46.644.993,7.823,131.631,47.2Z" transform="translate(-1869.641 -1078.641)" fill="#ffdcdc"/>
        <g id="Grupo_83608" data-name="Grupo 83608">
          <rect id="Rectángulo_34518" data-name="Rectángulo 34518" width="193.225" height="145.555" transform="translate(0 182.281) rotate(-70.624)" fill="#ce4abf"/>
          <path id="Trazado_117499" data-name="Trazado 117499" d="M1926.989,720.371,2056.6,765.953l-61.4,174.578-129.607-45.582,61.4-174.578Zm-2.5-5.206-64.107,182.281,137.31,48.291L2061.8,763.456l-137.31-48.291Z" transform="translate(-1860.385 -715.165)" fill="#f49f9f"/>
        </g>
        <path id="Trazado_117500" data-name="Trazado 117500" d="M1976.325,1338.4l-11.185-4,8.045-23.768,11.049,3.828Z" transform="translate(-1929.942 -1110.559)" fill="#6b0964"/>
        <path id="Trazado_117501" data-name="Trazado 117501" d="M2027.024,971.815a22.53,22.53,0,0,1-7.486-1.287l-63.927-22.483a22.512,22.512,0,0,1-13.766-28.71l38.6-109.669a22.538,22.538,0,0,1,28.7-13.764l63.9,22.474a22.538,22.538,0,0,1,13.768,28.706L2048.244,956.76a22.554,22.554,0,0,1-21.22,15.055ZM2001.7,797.862a19.31,19.31,0,0,0-18.2,12.879l-38.6,109.669a19.276,19.276,0,0,0,11.788,24.584l63.926,22.482a19.277,19.277,0,0,0,24.58-11.789l38.573-109.677a19.3,19.3,0,0,0-11.789-24.58l-63.9-22.474A19.2,19.2,0,0,0,2001.7,797.862Z" transform="translate(-1913.619 -767.927)" fill="#a523a2"/>
        <g id="Grupo_83609" data-name="Grupo 83609" transform="translate(87.691 163.346)">
          <path id="Trazado_117502" data-name="Trazado 117502" d="M2216.058,1469.672H2121.37c1.974-15.689,17.412-138.343,18.927-150.4h0c2.674-11.64-2.266-14.324,10.4-34.86,3.25-4.655,5.9-6.057,10.327-11.071,8.6-11.335,13.693-22.111,13.89-42.874-4.395-5.286-6.01-15.69-1.364-23.473,8.562-13.8,11.715.926,14.206,8.4a261.185,261.185,0,0,1,9.029,34.383C2205.933,1321.369,2208.278,1391.484,2216.058,1469.672Z" transform="translate(-2121.37 -1201.313)" fill="#f99370"/>
        </g>
        <path id="Trazado_117503" data-name="Trazado 117503" d="M2298.2,1205.469s-3.207,1.508-3.062,7.222,1.878,7.99,1.878,7.99a19.132,19.132,0,0,1,6.14-2.461S2300.674,1208.551,2298.2,1205.469Z" transform="translate(-2149.058 -1040.727)" fill="#fcb5a7"/>
        <path id="Trazado_117504" data-name="Trazado 117504" d="M2333.927,1227.755a148.86,148.86,0,0,1,4,17.62,211.974,211.974,0,0,0,7.636-50.7Z" transform="translate(-2174.817 -1033.559)" fill="#e57d61"/>
        <path id="Trazado_117505" data-name="Trazado 117505" d="M2160.016,927.468a1.612,1.612,0,0,1-.537-.092l-73.32-25.786a1.618,1.618,0,0,1,1.073-3.053l73.32,25.786a1.618,1.618,0,0,1-.537,3.144Z" transform="translate(-2009.581 -836.863)" fill="#a523a2"/>
        <path id="Trazado_117506" data-name="Trazado 117506" d="M2145.065,969.979a1.611,1.611,0,0,1-.536-.092l-73.32-25.786a1.618,1.618,0,1,1,1.074-3.053l73.32,25.787a1.618,1.618,0,0,1-.537,3.144Z" transform="translate(-1999.654 -865.09)" fill="#a523a2"/>
        <path id="Trazado_117507" data-name="Trazado 117507" d="M2130.182,1012.3a1.605,1.605,0,0,1-.537-.092l-73.32-25.786a1.618,1.618,0,0,1,1.073-3.052l73.32,25.786a1.618,1.618,0,0,1-.537,3.144Z" transform="translate(-1989.772 -893.189)" fill="#a523a2"/>
        <path id="Trazado_117508" data-name="Trazado 117508" d="M2169.337,1574.063l2.811-22.332s30.18,10.215,63.264-.332l1.955,24.473S2207.693,1594.238,2169.337,1574.063Z" transform="translate(-2065.529 -1270.424)" fill="#f4d4be"/>
        <path id="Trazado_117509" data-name="Trazado 117509" d="M2194.376,1746.916H2075.21c8.961-47.268,20.563-100.6,31.628-128.066a.026.026,0,0,1,.01,0c.638.3,30.193,13.833,68.02,1.808C2174.868,1620.661,2185.74,1642.911,2194.376,1746.916Z" transform="translate(-2003.029 -1315.212)" fill="#1d3f70"/>
        <circle id="Elipse_4819" data-name="Elipse 4819" cx="3.431" cy="3.431" r="3.431" transform="translate(108.928 291.521)" fill="#1d3f70"/>
      </g>
      <g id="_1" data-name="1" transform="translate(48.491 155.703)">
        <g id="Grupo_83610" data-name="Grupo 83610" transform="translate(34.748 160.206)">
          <path id="Trazado_117510" data-name="Trazado 117510" d="M252.138,940.205l86.125,61.984s-3.206,23.365-20.291,51.761l-61.513,2.72S240.142,990.687,252.138,940.205Z" transform="translate(-247.735 -940.205)" fill="#f99370"/>
        </g>
        <rect id="Rectángulo_34519" data-name="Rectángulo 34519" width="145.555" height="193.225" transform="matrix(0.931, -0.364, 0.364, 0.931, 0, 66.968)" fill="#9358e0"/>
        <path id="Trazado_117511" data-name="Trazado 117511" d="M147.97,621.039l-3.652,14,70.313,179.978,3.652-14Z" transform="translate(-144.318 -568.073)" fill="#7640cc"/>
        <path id="Trazado_117512" data-name="Trazado 117512" d="M432.541,1135.208s-19.242,11.4-29.845,22.389l-12-6.042Z" transform="translate(-307.914 -909.481)" fill="#e57d61"/>
        <path id="Trazado_117513" data-name="Trazado 117513" d="M364.452,1055.587,495.4,1004.428l-.724,7.852-129.937,51.678Z" transform="translate(-290.487 -822.643)" fill="#ffdcdc"/>
        <rect id="Rectángulo_34520" data-name="Rectángulo 34520" width="145.555" height="193.225" transform="matrix(0.931, -0.364, 0.364, 0.931, 3.652, 52.966)" fill="#9358e0"/>
        <path id="Trazado_117514" data-name="Trazado 117514" d="M253.144,706.941a1.618,1.618,0,0,1-1.507-1.03l-63.4-162.284a1.618,1.618,0,0,1,.918-2.1l117.082-45.741a1.618,1.618,0,0,1,2.1.918l63.436,162.27a1.617,1.617,0,0,1-.918,2.1L253.732,706.829A1.612,1.612,0,0,1,253.144,706.941ZM191.838,543.957l62.223,159.27,114.1-44.577L305.906,499.393Z" transform="translate(-173.406 -484.834)" fill="#1d3f70"/>
        <path id="Trazado_117515" data-name="Trazado 117515" d="M281.638,718.748l102.046-39.867-57.546-147.2L224.124,571.533Z" transform="translate(-197.309 -508.737)" fill="#1d3f70"/>
        <g id="Grupo_83611" data-name="Grupo 83611" transform="translate(31.699 166.148)">
          <path id="Trazado_117516" data-name="Trazado 117516" d="M350.921,1308.039H238.66c2-39.007,4.515-88.343,7.022-139.071,1.9-38.672,3.31-67.217,4.754-100.555.871-29.523,1.92-57.426,7.456-79.336,1.273-5.536,2.839-11.38,4.5-17.065,1.435-4.026,2.079-9.1,4.516-12.684,4.83-5.352,11.252,5.569,12.079,10.917,1.684,5.335-.577,12.9-3.289,16.528.91,20.749,6.364,31.34,15.351,42.373,4.591,4.863,7.3,6.172,10.7,10.711h0c13.516,20.432,8.466,22.913,11.677,34.987C323.218,1135.77,341.016,1246.425,350.921,1308.039Z" transform="translate(-238.66 -957.89)" fill="#f99370"/>
        </g>
        <path id="Trazado_117517" data-name="Trazado 117517" d="M313.722,962.087s3.256,1.4,3.308,7.113-1.6,8.05-1.6,8.05a17.189,17.189,0,0,0-6.17-2.424S311.355,965.252,313.722,962.087Z" transform="translate(-253.837 -794.529)" fill="#fcb5a7"/>
        <path id="Trazado_117518" data-name="Trazado 117518" d="M270.684,986.165a148.868,148.868,0,0,0-3.393,17.746,211.967,211.967,0,0,1-9.368-50.41Z" transform="translate(-219.752 -788.828)" fill="#e57d61"/>
        <path id="Trazado_117519" data-name="Trazado 117519" d="M355.883,1716.658H217.32q.161-4.218.363-8.427c.544-11.28,1.3-22.482,2.181-33.311v0c1.055-13,2.292-25.455,3.555-36.859,1.374-12.382,2.782-23.523,4.029-32.77,2.268-16.82,4.015-27.371,4.066-27.7v0l0,0c35.932,13.594,82.179-4.3,82.179-4.3,2.927,8.844,5.843,17.969,8.706,27.146,3.209,10.285,6.347,20.634,9.351,30.73,3.652,12.294,7.1,24.212,10.218,35.169v.007c3.431,12.056,6.458,22.952,8.917,31.917C353.014,1706,354.714,1712.3,355.883,1716.658Z" transform="translate(-192.791 -1200.361)" fill="#3a72aa"/>
        <path id="Trazado_117520" data-name="Trazado 117520" d="M304.915,680.025a1.618,1.618,0,0,1-.589-3.125l72.394-28.283a1.618,1.618,0,1,1,1.177,3.014L305.5,679.913A1.611,1.611,0,0,1,304.915,680.025Z" transform="translate(-249.879 -586.311)" fill="#7640cc"/>
        <path id="Trazado_117521" data-name="Trazado 117521" d="M321.313,722a1.618,1.618,0,0,1-.589-3.125l72.394-28.283A1.618,1.618,0,0,1,394.3,693.6L321.9,721.887A1.62,1.62,0,0,1,321.313,722Z" transform="translate(-260.768 -614.181)" fill="#7640cc"/>
        <path id="Trazado_117522" data-name="Trazado 117522" d="M337.636,763.78a1.618,1.618,0,0,1-.589-3.125l72.394-28.282a1.618,1.618,0,0,1,1.177,3.014l-72.394,28.282A1.619,1.619,0,0,1,337.636,763.78Z" transform="translate(-271.606 -641.925)" fill="#7640cc"/>
        <path id="Trazado_117523" data-name="Trazado 117523" d="M265.97,1309.269s22.567,11.409,63.405-3.31c0,0,6.841,6.994,2.325,14.46,0,0-38.17,15.836-66.412,3.9C265.289,1324.323,259.015,1317.635,265.97,1309.269Z" transform="translate(-222.918 -1022.86)" fill="#1d3f70"/>
        <path id="Trazado_117524" data-name="Trazado 117524" d="M398.942,1341.968a1.817,1.817,0,1,1-2.154-1.4A1.818,1.818,0,0,1,398.942,1341.968Z" transform="translate(-311 -1045.813)" fill="#092444"/>
        <path id="Trazado_117525" data-name="Trazado 117525" d="M416.93,1337.6a1.818,1.818,0,1,1-2.154-1.4A1.818,1.818,0,0,1,416.93,1337.6Z" transform="translate(-322.944 -1042.91)" fill="#092444"/>
        <path id="Trazado_117526" data-name="Trazado 117526" d="M434.863,1332.964a1.817,1.817,0,1,1-2.154-1.4A1.818,1.818,0,0,1,434.863,1332.964Z" transform="translate(-334.852 -1039.834)" fill="#092444"/>
        <path id="Trazado_117527" data-name="Trazado 117527" d="M342.417,1600.446c-50.282,19.767-94.866,5.2-94.866,5.2-.03-.118-.06-.239-.091-.356,2.268-16.82,4.015-27.371,4.066-27.7a.01.01,0,0,0,0-.007c35.932,13.594,82.179-4.3,82.179-4.3,2.927,8.844,5.843,17.969,8.706,27.146A.094.094,0,0,1,342.417,1600.446Z" transform="translate(-212.804 -1200.361)" fill="#23659b"/>
        <path id="Trazado_117528" data-name="Trazado 117528" d="M347,1780.679v.007s-60.809,22.962-122.106,8.588v0c1.055-13,2.292-25.455,3.555-36.859a0,0,0,0,0,0,0s52.628,17.909,108.323-6.908a.04.04,0,0,1,.007.01C340.43,1757.8,343.878,1769.722,347,1780.679Z" transform="translate(-197.818 -1314.715)" fill="#23659b"/>
        <path id="Trazado_117529" data-name="Trazado 117529" d="M355.883,1963.619H217.32q.161-4.218.363-8.427s2.554.511,7.18,1.152c16.817,2.322,61.021,6.344,109.707-6.3q8.089-2.1,16.316-4.838C353.014,1952.958,354.714,1959.261,355.883,1963.619Z" transform="translate(-192.791 -1447.322)" fill="#23659b"/>
      </g>
    </g>
  </g>
</svg>
