<svg xmlns="http://www.w3.org/2000/svg" xmlns:xlink="http://www.w3.org/1999/xlink" width="1240" height="229" viewBox="0 0 1240 229">
  <defs>
    <clipPath id="clip-path">
      <rect id="Rectángulo_34509" data-name="Rectángulo 34509" width="1240" height="229" transform="translate(180 4247)" fill="#fff7da"/>
    </clipPath>
  </defs>
  <g id="Enmascarar_grupo_135" data-name="Enmascarar grupo 135" transform="translate(-180 -4247)" clip-path="url(#clip-path)">
    <g id="Grupo_84009" data-name="Grupo 84009" transform="translate(75.478 4043.677)">
      <g id="Rectángulo_34551" data-name="Rectángulo 34551" transform="translate(100.522 202.323)" fill="#afcdfb" stroke="#707070" stroke-width="1">
        <rect width="1245" height="236" stroke="none"/>
        <rect x="0.5" y="0.5" width="1244" height="235" fill="none"/>
      </g>
      <path id="Trazado_117799" data-name="Trazado 117799" d="M250.224,782.816s-113.024-31.863-61.2-177.77,150.415-82.963,121.928-210.567C273.389,226.213,432.462,111.784,607.345,158.391S735.358,256.8,940.875,204.63c250.546-63.6,271.679,200.993,213.57,288.881s158.621,100.56,69.1,289.3Z" transform="translate(0 0)" fill="#ebf3fa"/>
      <g id="Grupo_83953" data-name="Grupo 83953" transform="translate(1019.454 397.676)">
        <path id="Trazado_117800" data-name="Trazado 117800" d="M2451.248,859.27s28.959-59.045,45.156-53.8S2451.248,859.27,2451.248,859.27Z" transform="translate(-2430.422 -805.136)" fill="#cde0fb"/>
        <path id="Trazado_117801" data-name="Trazado 117801" d="M2396.444,924.715s69.371-68,96.328-55.6-16.432,25.7-32.981,29.32S2396.444,924.715,2396.444,924.715Z" transform="translate(-2396.444 -843.867)" fill="#cde0fb"/>
      </g>
      <path id="Trazado_117802" data-name="Trazado 117802" d="M2530.441,1421.215c24.781-16.28,1.24-59.386,1.24-59.386s-57.807-15.561-61.911-24.255,52.021,3.654,52.021,3.654c-4.057-18.121-40.259-55.823-40.259-55.823s-54.6,21.033-56.434,11.6,49.292-16.157,49.292-16.157c-10.671-15.325-35.7-24.69-35.7-24.69-38.794-9.244-48.662,41.049-48.662,41.049s-19.078,6.881-45.074,2.226h0a68.957,68.957,0,0,0-12.789-1.8l1.519,4.634c1.367-.029,2.7-.006,4.009.078a.027.027,0,0,1,.024,0l.056,0c.82.083,1.989.2,3.416.367h.006s0,0,.007,0c3.235.507,5.6.792,7.273.913h.015c10.09,1.39,23.428,3.786,27.142,7.082a9.467,9.467,0,0,1,1.8-1.689l-1.8,1.689c-14.4,13.5-4.229,54.092,7.546,74.7s14.851,8.936,21.066-6.278-4.623-39.269-3.071-47.934,9.046.8,12.742,15.9-8.621,27.3-3.087,51.836,56.236,28,56.236,28c-10.485-14.759-11.078-47.192-5.783-50.183s19.028,40.822,22.956,47.063S2505.66,1437.5,2530.441,1421.215Z" transform="translate(-1337.137 -686.38)" fill="#cde0fb"/>
      <g id="Grupo_83954" data-name="Grupo 83954" transform="translate(304.566 449.672)">
        <path id="Trazado_117803" data-name="Trazado 117803" d="M695.928,1010.24s-36.525-74.473-56.954-67.863S695.928,1010.24,695.928,1010.24Z" transform="translate(-589.827 -941.961)" fill="#dfebfd"/>
        <path id="Trazado_117804" data-name="Trazado 117804" d="M647.617,1092.785s-87.5-85.762-121.5-70.123,20.725,32.412,41.6,36.98S647.617,1092.785,647.617,1092.785Z" transform="translate(-515.249 -990.813)" fill="#dfebfd"/>
      </g>
      <path id="Trazado_117805" data-name="Trazado 117805" d="M429.458,1286.16c.45-26.059,43.534-28.825,43.534-28.825s38.722,35.631,47.108,34.595S492.943,1255,492.943,1255c15.368-5.5,60.386,3.677,60.386,3.677s10.028,50.44,17.9,47.372-11.158-44.209-11.158-44.209c16.4.726,35.116,14.92,35.116,14.92,25.1,24.476-7.629,55.437-7.629,55.437s3.853,17.405,19.525,34.53h0a60.629,60.629,0,0,1,7.35,8.653l-4.156,1.049q-.931-1.544-1.942-2.941a.023.023,0,0,0-.013-.017l-.03-.04c-.447-.57-1.086-1.381-1.877-2.366l0,0s0,0,0,0c-1.9-2.165-3.218-3.785-4.1-4.974a.054.054,0,0,1-.007-.011c-5.774-6.842-56.211,11.724-77.055,12.66s-13.616-6.833-5.235-18.6,31.344-15.017,37.052-20.241-4.844-6.345-17.8-1.994-16.227,19.23-37.056,26.65-47.223-28.621-47.223-28.621c15.891.854,40.263-13.946,40-19.284s-39.266,5.046-45.748,5.061S429.008,1312.219,429.458,1286.16Z" transform="translate(-157.487 -685.28)" fill="#cde0fb"/>
      <g id="Grupo_83956" data-name="Grupo 83956" transform="translate(390.255 345.627)">
        <path id="Trazado_117806" data-name="Trazado 117806" d="M1060.5,1103.482H752.838a12.119,12.119,0,0,1-12.1-12.135V680.307a12.117,12.117,0,0,1,12.556-12.127L1072.6,682.906v408.441A12.118,12.118,0,0,1,1060.5,1103.482Z" transform="translate(-740.736 -668.171)" fill="#f99746"/>
        <path id="Trazado_117807" data-name="Trazado 117807" d="M1626.133,1103.482H1933.8a12.119,12.119,0,0,0,12.1-12.135V680.307a12.117,12.117,0,0,0-12.556-12.127l-319.312,14.726v408.441A12.119,12.119,0,0,0,1626.133,1103.482Z" transform="translate(-1282.164 -668.171)" fill="#f99746"/>
        <path id="Trazado_117808" data-name="Trazado 117808" d="M782.128,715.11l-9.975,8.1a6.091,6.091,0,0,0-2.231,4.728v398.5a5.97,5.97,0,0,0,5.9,6.037h24.837a5.98,5.98,0,0,0,5.89-6.4Z" transform="translate(-758.83 -697.272)" fill="#aec3ff"/>
        <path id="Trazado_117809" data-name="Trazado 117809" d="M2387.765,715.11l9.975,8.1a6.091,6.091,0,0,1,2.231,4.728v398.5a5.97,5.97,0,0,1-5.9,6.037h-24.837a5.98,5.98,0,0,1-5.89-6.4Z" transform="translate(-1746.718 -697.272)" fill="#aec3ff"/>
        <path id="Trazado_117810" data-name="Trazado 117810" d="M1093.23,1127.521H803.757a11.559,11.559,0,0,1-11.386-11.724V718.669a11.544,11.544,0,0,1,11.813-11.716l252.671,9.765c26.663,1.03,47.761,23.586,47.761,51.059V1115.8A11.559,11.559,0,0,1,1093.23,1127.521Z" transform="translate(-772.749 -692.21)" fill="#fff7f0"/>
        <path id="Trazado_117811" data-name="Trazado 117811" d="M1624.481,1127.46h291.346a10.608,10.608,0,0,0,10.45-10.76V717.608a10.6,10.6,0,0,0-10.842-10.753l-259,10.01c-23.67.915-42.4,20.938-42.4,45.327V1116.7A10.608,10.608,0,0,0,1624.481,1127.46Z" transform="translate(-1282.164 -692.15)" fill="#fff7f0"/>
        <g id="Grupo_83955" data-name="Grupo 83955" transform="translate(331.083 93.78)">
          <rect id="Rectángulo_34539" data-name="Rectángulo 34539" width="1.57" height="257.863" fill="#f9dec7"/>
        </g>
      </g>
      <g id="Grupo_83960" data-name="Grupo 83960" transform="translate(790.379 250.551)">
        <g id="Grupo_83957" data-name="Grupo 83957" transform="translate(0)">
          <path id="Trazado_117812" data-name="Trazado 117812" d="M1982.33,816.676a2.076,2.076,0,0,1,.355,2.224.018.018,0,0,1-.006.011c-.546,1.477-2.329,3.118-4.4,4.755-.264.21-.5.4-.7.579-.054.046-.108.093-.158.14s-.082.074-.122.108c-1.93,1.754-1.211,2.164-4.682,5.727-3.957,4.06-6.662,4.114-7.429,3.736-.649-.322.689-2.48,2.171-4.906.072-.117.143-.236.216-.354.2-.323.394-.65.59-.974,1.738-2.92,1.306-4.3.93-8.666-.306-3.549-5.377-19.851-5.377-19.851l7.537-1.243s2.176,12.968,4.66,14.98c1.328,1.073,2.823,1.1,4.1,1.894q.136.083.266.171A9.87,9.87,0,0,1,1982.33,816.676Z" transform="translate(-1899.087 -653.563)" fill="#ffb27d"/>
          <path id="Trazado_117813" data-name="Trazado 117813" d="M1984.453,844.2a2.076,2.076,0,0,1,.355,2.224.019.019,0,0,1-.006.011c-.667,1.475-2.4,3.108-4.4,4.74-.261.214-.492.41-.7.594-.054.046-.108.093-.158.14s-.082.074-.122.108c-1.93,1.754-1.211,2.164-4.682,5.727-3.957,4.06-6.662,4.114-7.429,3.736-.649-.322.689-2.48,2.172-4.906a16.739,16.739,0,0,0,7.039-5.11c2.387-3,3.991-6.869,5.618-9.1q.136.083.266.171A9.873,9.873,0,0,1,1984.453,844.2Z" transform="translate(-1901.21 -681.092)" fill="#233862"/>
          <path id="Trazado_117814" data-name="Trazado 117814" d="M1816.218,807.224c-.481,2.321-3.791,1.909-7.485.979s-2.823.151-8.085-.469-6.845-2.6-7-3.379c-.139-.7,2.466-.922,5.259-1.224.351-.037.7-.078,1.057-.119,3.155-.373,5.477-2.391,8.351-4.041,2.723-1.563,6.814-7.98,6.814-7.98l7.219.623s-3.831,5.73-5.314,8.223a8.721,8.721,0,0,0-.744,4.917A9.289,9.289,0,0,1,1816.218,807.224Z" transform="translate(-1793.643 -649.241)" fill="#ffb27d"/>
          <path id="Trazado_117815" data-name="Trazado 117815" d="M1808.733,828.007c-3.695-.93-2.823.151-8.085-.469s-6.845-2.6-7-3.379c-.139-.7,2.466-.922,5.259-1.224l.026.054a14.844,14.844,0,0,0,7.526,2.4c3.573.112,7.364-.885,9.832-.827a9.288,9.288,0,0,1-.073,2.47C1815.737,829.349,1812.427,828.938,1808.733,828.007Z" transform="translate(-1793.643 -669.045)" fill="#233862"/>
          <path id="Trazado_117816" data-name="Trazado 117816" d="M1951.248,733.346s-.5.327-1.254.742a16.809,16.809,0,0,1-3.291,1.43,13.369,13.369,0,0,1-3.387.441c-.783.006-1.3-.047-1.3-.047l-8.65-23.788-1.563-4.3-1.663-4.577-.58-1.592-2.817-7.747s6.884-17.651,13.9-9.236a17.042,17.042,0,0,1,2.4,4.347c.512,1.248,1,2.655,1.463,4.179.347,1.145.683,2.355,1.006,3.615.875,3.426,1.649,7.211,2.325,11.011C1950.105,720.513,1951.248,733.346,1951.248,733.346Z" transform="translate(-1876.164 -581.917)" fill="#233862"/>
          <path id="Trazado_117817" data-name="Trazado 117817" d="M1943.393,662.438l-35.072,1.476c-7.682-1.589-14.167-5.655-18.573-7.836-.365-.183-.706-.353-1.027-.509a21.019,21.019,0,0,0-2.964-1.345c-2.669-.556-4.041,3.791-6.3,9.139-.462,1.089-.957,2.216-1.51,3.355a17.2,17.2,0,0,1-2.137,3.079c-.186.224-.377.453-.58.689-7.761,9.065-27.743,25.948-27.743,25.948s-.235,0-.615-.009a20.209,20.209,0,0,1-5.25-.636,8.035,8.035,0,0,1-1.7-.883,3.857,3.857,0,0,1-.809-.727s23.911-46.751,36.29-59.486v0c.18-.185.356-.362.533-.53a10.08,10.08,0,0,1,3.55-2.508c4.217-1.327,31.5.153,31.5.153l.871-1.416,1.457-.1.25-.017,1.215-.088h0l1.678-.118,2.493-.177,6.743-.48,1.083-.077,12.468-.886s.568,1.283,1.337,3.408c.3.83.63,1.786.968,2.846C1943.777,641.659,1946.66,654.183,1943.393,662.438Z" transform="translate(-1821.831 -548.465)" fill="#2b478b"/>
          <path id="Trazado_117818" data-name="Trazado 117818" d="M2059.295,451.488c-6.231-5.318-10.676-6.634-11.293-15.055-.336-4.571-6.473-19.69-16.854-18.369a15.55,15.55,0,0,1-2.616.153,9.7,9.7,0,0,0-5.275,1.324c-5,2.926-14.2,29.98-8,39.487a6.887,6.887,0,0,0,4.948,3.182l.8.45h0c1.116.627,2.343,1.316,3.641,2.052,7.335,4.135,16.938,9.6,21.857,12.367h0c.3.168.577.327.839.474l1.43.795c.577.315.913.492.939.492a21.375,21.375,0,0,0,3.044.856c2.472.515,5.937.8,8.35-.774a13.274,13.274,0,0,0,2.643-2.29C2068.748,471.048,2070.064,460.677,2059.295,451.488Z" transform="translate(-1929.755 -417.983)" fill="#233862"/>
          <path id="Trazado_117819" data-name="Trazado 117819" d="M2051.361,497.591c-.043.028,4.784,1.714,8.03.3,3.053-1.324,5.395-6.316,5.35-6.319-1.385-.074-2.9-1.3-4.011-9.247l-.591.207-9.939,3.5s.7,3.186,1.139,6.218C2051.712,494.8,2051.9,497.236,2051.361,497.591Z" transform="translate(-1952.703 -457.876)" fill="#ffb27d"/>
          <path id="Trazado_117820" data-name="Trazado 117820" d="M2050.2,486.372s.424,2.233,1.012,5.424c5.7-.985,8.1-5.849,8.928-8.922Z" transform="translate(-1952.703 -458.214)" fill="#ed975d"/>
          <path id="Trazado_117821" data-name="Trazado 117821" d="M2035.081,461.486s13.577-1.725,12.373-10.164-.263-14.345-8.983-13.6-9.941,4.2-10.224,7.119S2031.518,461.717,2035.081,461.486Z" transform="translate(-1939.084 -430.181)" fill="#ffb27d"/>
          <path id="Trazado_117822" data-name="Trazado 117822" d="M2029.659,438.991s8.631,7.544,14.533,8.189,8.152-1.235,8.152-1.235a23.069,23.069,0,0,1-5.523-7.6,4.152,4.152,0,0,0-3.406-2.472C2039.2,435.484,2031.205,435.262,2029.659,438.991Z" transform="translate(-1939.969 -428.949)" fill="#233862"/>
          <path id="Trazado_117823" data-name="Trazado 117823" d="M2032.468,440.062a21.388,21.388,0,0,0-3.854,4.865c-.9,2-1.2,6.81-.507,8.725,0,0-4.464-8.833-1.871-13.09C2028.985,436.047,2032.468,440.062,2032.468,440.062Z" transform="translate(-1937.345 -430.651)" fill="#233862"/>
          <path id="Trazado_117824" data-name="Trazado 117824" d="M2022.826,532.046c.217,27.461-.04,21.721,2.944,24.348.72.632,2.751,1.02,5.428,1.216,8.416.618,23.227-.664,23.8-2.216,1.98-5.37.621-7.053,2.3-15.284.175-.875.391-1.823.643-2.854,1.391-5.652,2.72-7.568-2.009-16.7-4.289-8.269-8.756-14.988-9.164-14.75-11.516,6.727-12.4,1-12.4,1S2022.719,518.651,2022.826,532.046Z" transform="translate(-1935.732 -472.43)" fill="#aec3ff"/>
          <path id="Trazado_117825" data-name="Trazado 117825" d="M1962.052,750.966s-.5.327-1.254.742a16.819,16.819,0,0,1-3.291,1.43,13.376,13.376,0,0,1-3.388.441c-.783.006-1.3-.047-1.3-.047l-8.65-23.788,2.534-4.3,6.487-11.011,2.128-3.615c.347,1.145.683,2.355,1.006,3.615.874,3.426,1.648,7.211,2.325,11.011C1960.909,738.133,1962.052,750.966,1962.052,750.966Z" transform="translate(-1886.968 -599.537)" fill="#2b478b"/>
          <path id="Trazado_117826" data-name="Trazado 117826" d="M2015.639,508.441s-11.814,1.918-13.235,6.988-9.786,34.879-9.786,34.879,5.991,1.12,8.782-1.632,9.823-25.641,9.823-25.641Z" transform="translate(-1917.004 -474.065)" fill="#aec3ff"/>
          <path id="Trazado_117827" data-name="Trazado 117827" d="M2044.858,594.879c8.416.618,23.227-.664,23.8-2.216,1.98-5.37.621-7.053,2.3-15.284l-3.98-11.464s.582,12.739-3.2,16.061-15.421,6.357-17.266,9.142A10.252,10.252,0,0,0,2044.858,594.879Z" transform="translate(-1949.392 -509.698)" fill="#95b3ef"/>
          <path id="Trazado_117828" data-name="Trazado 117828" d="M2046.31,626.022s-8.293-1.908-9.639-1.18-4.64,3.389-5.057,4.32,2.989-.688,4.1-.976c.716-.187,2.593.48,3.523.8a11.726,11.726,0,0,0,6.318.679Z" transform="translate(-1941.159 -546.129)" fill="#ffb27d"/>
          <path id="Trazado_117829" data-name="Trazado 117829" d="M2074.021,505.8s11.149.765,14.971,6.178c5.381,7.619,15.936,40,9.726,44.267-6.993,4.8-31.68,1.046-31.68,1.046s-.8-3.85.362-5.7,19.772-4.724,20.636-5.576-10.609-16.81-10.591-19.384S2074.021,505.8,2074.021,505.8Z" transform="translate(-1962.978 -472.43)" fill="#aec3ff"/>
          <path id="Trazado_117830" data-name="Trazado 117830" d="M2038.544,631.188a16.055,16.055,0,0,1-2.329,2.5,1.7,1.7,0,0,1-.941.195l1.188-2.1Z" transform="translate(-1943.45 -550.166)" fill="#ffb27d"/>
          <path id="Trazado_117831" data-name="Trazado 117831" d="M2036.695,625.112l-5.078,2.421a.9.9,0,0,0,.836.33,12.077,12.077,0,0,0,2.2-.588Z" transform="translate(-1941.183 -546.399)" fill="#ffb27d"/>
        </g>
        <g id="Grupo_83959" data-name="Grupo 83959" transform="translate(41.99 55.58)">
          <g id="Grupo_83958" data-name="Grupo 83958">
            <path id="Trazado_117832" data-name="Trazado 117832" d="M1956,594.548l-40.028-.282-11.83-30.028,39.966.282Z" transform="translate(-1904.139 -564.238)" fill="#f99746"/>
            <path id="Trazado_117833" data-name="Trazado 117833" d="M1934.055,640.176l52.857.373-.009,1.167-52.387-.37Z" transform="translate(-1922.686 -611.318)" fill="#ed7d2b"/>
          </g>
          <path id="Trazado_117834" data-name="Trazado 117834" d="M1962.015,600.952a1.387,1.387,0,0,1,1.373-1.9,2.73,2.73,0,0,1,2.439,1.923,1.387,1.387,0,0,1-1.373,1.9A2.731,2.731,0,0,1,1962.015,600.952Z" transform="translate(-1939.975 -585.824)" fill="#fff"/>
        </g>
      </g>
      <g id="Grupo_83966" data-name="Grupo 83966" transform="translate(424.225 725.696)">
        <g id="Grupo_83965" data-name="Grupo 83965">
          <path id="Rectángulo_34540" data-name="Rectángulo 34540" d="M27.471,0H240.011a27.47,27.47,0,0,1,27.47,27.47v0a27.47,27.47,0,0,1-27.47,27.47H27.471A27.471,27.471,0,0,1,0,27.471v0A27.471,27.471,0,0,1,27.471,0Z" transform="translate(267.482 54.977) rotate(-180)" fill="#2b478b"/>
          <path id="Trazado_117835" data-name="Trazado 117835" d="M1219.268,1690.576l-.192,12.007A19.237,19.237,0,0,0,1238,1722.124l142.006,2.268.038-2.392a24.477,24.477,0,0,1-13.193-22.121l.068-4.223a24.475,24.475,0,0,1,13.893-21.688v-.049l-142.006-2.269A19.237,19.237,0,0,0,1219.268,1690.576Z" transform="translate(-1071.266 -1670.378)" fill="#f9dec7"/>
          <g id="Grupo_83961" data-name="Grupo 83961" transform="translate(145.646)">
            <path id="Trazado_117836" data-name="Trazado 117836" d="M1380.2,1723.285H1230.594c-9.649,0-17.208-12.075-17.208-27.489s7.559-27.489,17.208-27.489H1380.2a2.25,2.25,0,1,1,0,4.5H1230.594c-6.889,0-12.709,10.528-12.709,22.99s5.82,22.99,12.709,22.99H1380.2a2.25,2.25,0,1,1,0,4.5Z" transform="translate(-1213.386 -1668.308)" fill="#1b3770"/>
          </g>
          <g id="Grupo_83962" data-name="Grupo 83962" transform="translate(169.531 14.637)">
            <rect id="Rectángulo_34541" data-name="Rectángulo 34541" width="128.656" height="0.354" fill="#e8c2a3"/>
          </g>
          <g id="Grupo_83963" data-name="Grupo 83963" transform="translate(247.517 19.654)">
            <rect id="Rectángulo_34542" data-name="Rectángulo 34542" width="48.841" height="0.324" fill="#e8c2a3"/>
          </g>
          <g id="Grupo_83964" data-name="Grupo 83964" transform="translate(211.157 36.716)">
            <rect id="Rectángulo_34543" data-name="Rectángulo 34543" width="85.202" height="0.324" fill="#e8c2a3"/>
          </g>
        </g>
        <path id="Trazado_117837" data-name="Trazado 117837" d="M1285.81,1707.29s6.6,2.762,7.386,12.087,0,14.292,0,14.292l-7.969-3.791-8.045,3.791v-14.576s-.294-11.8-11.276-11.8Z" transform="translate(-1100.302 -1692.476)" fill="#f78248"/>
      </g>
      <g id="Grupo_83972" data-name="Grupo 83972" transform="translate(416.389 684.349)">
        <g id="Grupo_83971" data-name="Grupo 83971">
          <rect id="Rectángulo_34544" data-name="Rectángulo 34544" width="199.622" height="41.355" rx="20.678" transform="translate(199.622 41.383) rotate(180)" fill="#699dee"/>
          <path id="Trazado_117838" data-name="Trazado 117838" d="M1099.924,1576.245l-.143,9.025a14.412,14.412,0,0,0,14.125,14.688l105.979,1.705.029-1.8a18.415,18.415,0,0,1-9.846-16.627l.051-3.174a18.407,18.407,0,0,1,10.368-16.3v-.036l-105.979-1.705A14.4,14.4,0,0,0,1099.924,1576.245Z" transform="translate(-989.47 -1561.062)" fill="#f9dec7"/>
          <g id="Grupo_83967" data-name="Grupo 83967" transform="translate(108.696)">
            <path id="Trazado_117839" data-name="Trazado 117839" d="M1220.027,1600.83h-111.65c-7.2,0-12.843-9.076-12.843-20.663s5.641-20.662,12.843-20.662h111.65a1.691,1.691,0,0,1,0,3.382h-111.65c-5.141,0-9.485,7.914-9.485,17.281s4.344,17.281,9.485,17.281h111.65a1.691,1.691,0,0,1,0,3.382Z" transform="translate(-1095.534 -1559.505)" fill="#4b87dd"/>
          </g>
          <g id="Grupo_83968" data-name="Grupo 83968" transform="translate(141.919 11.014)">
            <rect id="Rectángulo_34545" data-name="Rectángulo 34545" width="80.618" height="0.243" fill="#e8c2a3"/>
          </g>
          <g id="Grupo_83969" data-name="Grupo 83969" transform="translate(184.723 14.774)">
            <rect id="Rectángulo_34546" data-name="Rectángulo 34546" width="36.45" height="0.243" fill="#e8c2a3"/>
          </g>
          <g id="Grupo_83970" data-name="Grupo 83970" transform="translate(157.587 27.599)">
            <rect id="Rectángulo_34547" data-name="Rectángulo 34547" width="63.586" height="0.243" fill="#e8c2a3"/>
          </g>
        </g>
      </g>
      <g id="Grupo_83977" data-name="Grupo 83977" transform="translate(860.161 555.345)">
        <g id="Grupo_83973" data-name="Grupo 83973" transform="translate(88.935 34.742)">
          <path id="Trazado_117840" data-name="Trazado 117840" d="M2329.678,1468.923s2.054,6.326,1.877,7.773-1.466,6.39-2.387,7.655-1.375-5.153-2.1-6.119-.149,2.417-.664,2.73-1.585-2.488-2.046-3.476,1.126-4.633,1.131-7.173S2329.678,1468.923,2329.678,1468.923Z" transform="translate(-2281.341 -1408.923)" fill="#ffb27d"/>
          <path id="Trazado_117841" data-name="Trazado 117841" d="M2211.332,1321.208a8.982,8.982,0,0,1,13.532-8.455q.192.116.379.237c9.315,6,29.415,33.973,30.8,36.776s5.466,25.1,5.466,25.1-5.045,1.846-7.4-.07c0,0-8.183-21.145-9.393-22.2s-32.729-18.742-33-25.373C2211.642,1325.467,2211.5,1323.359,2211.332,1321.208Z" transform="translate(-2211.303 -1311.458)" fill="#233862"/>
        </g>
        <g id="Grupo_83974" data-name="Grupo 83974" transform="translate(0 31.187)">
          <rect id="Rectángulo_34548" data-name="Rectángulo 34548" width="8.333" height="41.918" transform="matrix(-0.329, -0.944, 0.944, -0.329, 10.573, 23.255)" fill="#f99746"/>
          <path id="Trazado_117842" data-name="Trazado 117842" d="M1977.273,1349.728l10.573.731-2.74-7.87Z" transform="translate(-1977.273 -1327.204)" fill="#f9ddbf"/>
          <path id="Rectángulo_34549" data-name="Rectángulo 34549" d="M0,0H8.333a0,0,0,0,1,0,0V.831A4.042,4.042,0,0,1,4.291,4.873h0A4.291,4.291,0,0,1,0,.582V0A0,0,0,0,1,0,0Z" transform="matrix(-0.329, -0.944, 0.944, -0.329, 50.16, 9.472)" fill="#f9ddbf"/>
        </g>
        <g id="Grupo_83975" data-name="Grupo 83975" transform="translate(77.057 99.621)">
          <path id="Trazado_117843" data-name="Trazado 117843" d="M2337.188,1765.379s3.756,3.428,3.023,5.863-4.122,4.059-4.58,7.036-2.29,4.6-3.938,4.6h-7.861s-1.214-2.094,1.718-2.726,4.037-4.129,3.854-7.376a57.188,57.188,0,0,1,.274-7.576l6.229-1.443Z" transform="translate(-2269.035 -1656.753)" fill="#1f4075"/>
          <path id="Trazado_117844" data-name="Trazado 117844" d="M2202.121,1786.43s.674,7.8-.975,8.612l-21.1-.043s0-2.435,3.389-2.977,9.344-2.525,10.351-6.945S2202.121,1786.43,2202.121,1786.43Z" transform="translate(-2180.045 -1668.939)" fill="#1f4075"/>
          <path id="Trazado_117845" data-name="Trazado 117845" d="M2191.257,1498.316s1.113,13.673,2.421,30.109c1.778,22.326,3.917,49.751,4.128,54.946.365,9.022,1.833,23.453,1.833,23.453s3.479,3.428,10.442,1.983a232.868,232.868,0,0,0,7.977-42.4c.027-.358.055-.717.083-1.077,1.649-22.189,4.213-68.912,4.213-68.912Z" transform="translate(-2186.996 -1491.01)" fill="#f99746"/>
          <path id="Trazado_117846" data-name="Trazado 117846" d="M2191.257,1498.316s1.113,13.673,2.421,30.109l24.381,37.986c.027-.358.055-.717.083-1.077,1.649-22.189,4.213-68.912,4.213-68.912Z" transform="translate(-2186.996 -1491.01)" fill="#ef7e29"/>
          <path id="Trazado_117847" data-name="Trazado 117847" d="M2204.632,1491.112s20.061,49.518,33.252,72.789,17.313,29.765,17.313,29.765,7.557-2.977,8.244-5.006c0,0-5.044-44.926-13.878-55.877-4.991-6.188-10.854-24.759-11.129-31.253s-1.786-19.348-1.786-19.348Z" transform="translate(-2195.289 -1482.182)" fill="#f99746"/>
        </g>
        <path id="Trazado_117848" data-name="Trazado 117848" d="M2215.379,1283.607s-13.441,6.817-21.313,4.543a18.475,18.475,0,0,1,5.212-4.342c-.3-1.565-.54-2.923-.683-4.077a37.843,37.843,0,0,1-.413-4.171l5.154-4.222,4.886-4.039C2208.051,1278.387,2215.379,1283.607,2215.379,1283.607Z" transform="translate(-2111.681 -1249.338)" fill="#ffb27d"/>
        <path id="Trazado_117849" data-name="Trazado 117849" d="M2217.67,1372.28a55.368,55.368,0,0,1-16.577,7.141c-7.092,1.682-15.808,1.186-18.724,1.63a1.209,1.209,0,0,1-.851-.215c-.229-.117-1.515-8.768-2.8-19.687-.057-.439-.117-.883-.142-1.327l-.019-.147c-.5-4.268-.94-8.752-1.322-13.246-.31-3.5-.567-6.956-.744-10.2-.223-4.064-.316-7.8-.223-10.869.041-1.4.123-2.666.248-3.761a26.758,26.758,0,0,1,6.675-14.328l2.376-2.7a13.031,13.031,0,0,0,8.223-2.1c2.9-1.911,6.047-4.176,6.639-3.832,4.448,2.434,8.058,8.95,10.644,17.279a95.049,95.049,0,0,1,3.35,16c.234,1.788.433,3.622.586,5.448.03.338.054.676.082,1.008.349,4.993.919,9.673,1.551,13.851.851,5.636,1.818,10.357,2.5,13.682.344,1.693.6,3,.76,3.939C2220.039,1370.653,2218.4,1371.825,2217.67,1372.28Z" transform="translate(-2100.622 -1268.741)" fill="#2b478b"/>
        <path id="Trazado_117850" data-name="Trazado 117850" d="M2215.11,1278.124s-3.306,6.32-9.8,8.2a37.815,37.815,0,0,1-.414-4.171l5.154-4.222Z" transform="translate(-2118.396 -1255.928)" fill="#ed985f"/>
        <path id="Trazado_117851" data-name="Trazado 117851" d="M2194.167,1254.108s12.988,1.861,14.046-6.122,3.446-13.119-4.8-14.645-10.266,1.314-11.277,3.894S2190.815,1253.418,2194.167,1254.108Z" transform="translate(-2110.057 -1228.019)" fill="#ffb27d"/>
        <path id="Trazado_117852" data-name="Trazado 117852" d="M2205.455,1224.222c.115-.137.384-.251.987-.3a2.448,2.448,0,0,0-1.134-.295,3.035,3.035,0,0,0-2.069-2.645,1.811,1.811,0,0,1,.9,1.288c-1.706-1.685-5.314-2.864-15.22-1.883-13.055,1.292-8.58,9.578-6.867,10.542s5.919-1.856,9.079-1.669,3.849,4.734,4.931,5.338.64-.494,2.074-1.177,1.62,1.713,1.233,3.281,1.643,3.586,1.643,3.586l1.967-2.2c1.967-2.2,3.68-11.411,2.727-13.348C2205.624,1224.569,2205.541,1224.4,2205.455,1224.222Z" transform="translate(-2102.906 -1220.035)" fill="#2c3a64"/>
        <path id="Trazado_117853" data-name="Trazado 117853" d="M2199.046,1369.721s-10.951,8.332-22.559,10.158c-.223-4.064-.316-7.8-.223-10.869Z" transform="translate(-2100.622 -1312.397)" fill="#233862"/>
        <g id="Grupo_83976" data-name="Grupo 83976" transform="translate(19.181 37.523)">
          <path id="Trazado_117854" data-name="Trazado 117854" d="M2039.74,1330.949c-.172-.185-2.406-7.651-6.266-7.106-2.52.355-6.637,1.813-5.544,5.133.43,1.305,8.107,5.8,8.107,5.8Z" transform="translate(-2027.748 -1321.9)" fill="#ffb27d"/>
          <path id="Trazado_117855" data-name="Trazado 117855" d="M2121.07,1322.477a8.982,8.982,0,0,1-.94,15.929c-.137.059-.274.116-.413.172-10.281,4.124-40.873,4.581-47.815,3.821-7.531-.825-23.63-10.073-23.63-10.073s1.416-5.183,4.343-6c0,0,17.008,4.821,23.541,5.195,4.136.237,34.229-15.836,39.791-12.216C2117.418,1320.263,2119.218,1321.369,2121.07,1322.477Z" transform="translate(-2040.473 -1318.775)" fill="#2b478b"/>
        </g>
      </g>
      <g id="Grupo_83987" data-name="Grupo 83987" transform="translate(740.752 378.025)">
        <g id="Grupo_83979" data-name="Grupo 83979" transform="translate(0 296.782)">
          <path id="Trazado_117856" data-name="Trazado 117856" d="M1732.648,1603.991l-69.6,3.42v-69.6l69.6-3.42Z" transform="translate(-1663.052 -1534.396)" fill="#f9dec7"/>
          <g id="Grupo_83978" data-name="Grupo 83978" transform="translate(5.227 15.348)">
            <path id="Trazado_117857" data-name="Trazado 117857" d="M1676.807,1642.824l20.557-38.072,15.115,19.874,7.548-8.621,15.994,23.909Z" transform="translate(-1676.807 -1593.363)" fill="#fff7f0"/>
            <path id="Trazado_117858" data-name="Trazado 117858" d="M1756.679,1580.37a5.648,5.648,0,0,1,5.32-5.581,5.017,5.017,0,0,1,5.32,5.058,5.648,5.648,0,0,1-5.32,5.581A5.016,5.016,0,0,1,1756.679,1580.37Z" transform="translate(-1726.326 -1574.783)" fill="#fff7f0"/>
          </g>
        </g>
        <g id="Grupo_83981" data-name="Grupo 83981" transform="translate(176.144)">
          <path id="Trazado_117859" data-name="Trazado 117859" d="M2226.832,853.691l-100.264,4.928V758.354l100.264-4.928Z" transform="translate(-2126.567 -753.427)" fill="#f9dec7"/>
          <g id="Grupo_83980" data-name="Grupo 83980" transform="translate(7.531 22.111)">
            <path id="Trazado_117860" data-name="Trazado 117860" d="M2146.384,909.635,2176,854.786l21.775,28.632L2208.649,871l23.042,34.444Z" transform="translate(-2146.384 -838.378)" fill="#fff7f0"/>
            <path id="Trazado_117861" data-name="Trazado 117861" d="M2261.452,819.66a8.137,8.137,0,0,1,7.664-8.04,7.227,7.227,0,0,1,7.664,7.287,8.137,8.137,0,0,1-7.664,8.041A7.227,7.227,0,0,1,2261.452,819.66Z" transform="translate(-2217.724 -811.61)" fill="#fff7f0"/>
          </g>
        </g>
        <g id="Grupo_83982" data-name="Grupo 83982" transform="translate(0 170.2)">
          <path id="Trazado_117862" data-name="Trazado 117862" d="M1761.1,1207.012l-98.043,4.818v-5.711l98.043-4.818Z" transform="translate(-1663.052 -1201.302)" fill="#f99746"/>
          <path id="Trazado_117863" data-name="Trazado 117863" d="M1715.613,1247.973l-52.562,2.583V1247.7l52.562-2.583Z" transform="translate(-1663.052 -1228.467)" fill="#f9dec7"/>
          <path id="Trazado_117864" data-name="Trazado 117864" d="M1700.207,1274.965l-37.156,1.826v-2.855l37.156-1.826Z" transform="translate(-1663.052 -1245.201)" fill="#f9dec7"/>
          <path id="Trazado_117865" data-name="Trazado 117865" d="M1816.965,1269.226l-37.156,1.826V1268.2l37.156-1.826Z" transform="translate(-1735.44 -1241.644)" fill="#f9dec7"/>
          <path id="Trazado_117866" data-name="Trazado 117866" d="M1936.788,1262.687l-45.274,2.225v-2.855l45.274-2.225Z" transform="translate(-1804.695 -1237.589)" fill="#f9dec7"/>
          <path id="Trazado_117867" data-name="Trazado 117867" d="M1695.309,1300.086l-32.257,1.585v-2.855l32.257-1.585Z" transform="translate(-1663.052 -1260.776)" fill="#f9dec7"/>
          <path id="Trazado_117868" data-name="Trazado 117868" d="M1796.672,1295.1l-32.257,1.585v-2.855l32.257-1.585Z" transform="translate(-1725.895 -1257.688)" fill="#f9dec7"/>
          <path id="Trazado_117869" data-name="Trazado 117869" d="M1900.7,1289.427l-39.3,1.932V1288.5l39.3-1.932Z" transform="translate(-1786.02 -1254.167)" fill="#f9dec7"/>
        </g>
        <g id="Grupo_83983" data-name="Grupo 83983" transform="translate(0 105.756)">
          <path id="Trazado_117870" data-name="Trazado 117870" d="M1761.1,1037.429l-98.043,4.818v-5.711l98.043-4.818Z" transform="translate(-1663.052 -1031.719)" fill="#f99746"/>
          <path id="Trazado_117871" data-name="Trazado 117871" d="M1715.613,1078.39l-52.562,2.583v-2.855l52.562-2.583Z" transform="translate(-1663.052 -1058.884)" fill="#f9dec7"/>
          <path id="Trazado_117872" data-name="Trazado 117872" d="M1880.781,1070.272l-52.562,2.583V1070l52.562-2.583Z" transform="translate(-1765.453 -1053.85)" fill="#f9dec7"/>
          <path id="Trazado_117873" data-name="Trazado 117873" d="M1700.207,1105.382l-37.156,1.826v-2.855l37.156-1.826Z" transform="translate(-1663.052 -1075.618)" fill="#f9dec7"/>
          <path id="Trazado_117874" data-name="Trazado 117874" d="M1816.965,1099.643l-37.156,1.826v-2.855l37.156-1.826Z" transform="translate(-1735.44 -1072.061)" fill="#f9dec7"/>
          <path id="Trazado_117875" data-name="Trazado 117875" d="M1936.788,1093.1l-45.274,2.225v-2.855l45.274-2.225Z" transform="translate(-1804.695 -1068.006)" fill="#f9dec7"/>
          <path id="Trazado_117876" data-name="Trazado 117876" d="M1695.309,1130.5l-32.257,1.585v-2.855l32.257-1.585Z" transform="translate(-1663.052 -1091.193)" fill="#f9dec7"/>
          <path id="Trazado_117877" data-name="Trazado 117877" d="M1796.672,1125.521l-32.257,1.585v-2.855l32.257-1.585Z" transform="translate(-1725.895 -1088.104)" fill="#f9dec7"/>
          <path id="Trazado_117878" data-name="Trazado 117878" d="M1900.7,1119.844l-39.3,1.932v-2.855l39.3-1.932Z" transform="translate(-1786.02 -1084.584)" fill="#f9dec7"/>
        </g>
        <g id="Grupo_83984" data-name="Grupo 83984" transform="translate(175.58 115.397)">
          <path id="Trazado_117879" data-name="Trazado 117879" d="M2194.053,1061.106l-68.969,3.39v-4.017l68.969-3.39Z" transform="translate(-2125.084 -1057.089)" fill="#f99746"/>
          <path id="Trazado_117880" data-name="Trazado 117880" d="M2162.059,1089.92l-36.975,1.817v-2.008l36.975-1.817Z" transform="translate(-2125.084 -1076.198)" fill="#f9dec7"/>
          <path id="Trazado_117881" data-name="Trazado 117881" d="M2278.247,1084.21l-36.975,1.817v-2.009l36.975-1.817Z" transform="translate(-2197.119 -1072.658)" fill="#f9dec7"/>
          <path id="Trazado_117882" data-name="Trazado 117882" d="M2151.222,1108.908l-26.138,1.285v-2.009l26.138-1.284Z" transform="translate(-2125.084 -1087.971)" fill="#f9dec7"/>
          <path id="Trazado_117883" data-name="Trazado 117883" d="M2233.356,1104.871l-26.137,1.284v-2.008l26.137-1.285Z" transform="translate(-2176.006 -1085.468)" fill="#f9dec7"/>
          <path id="Trazado_117884" data-name="Trazado 117884" d="M2317.647,1100.271l-31.848,1.565v-2.009l31.848-1.565Z" transform="translate(-2224.724 -1082.615)" fill="#f9dec7"/>
          <path id="Trazado_117885" data-name="Trazado 117885" d="M2147.776,1126.579l-22.692,1.115v-2.008l22.692-1.116Z" transform="translate(-2125.084 -1098.926)" fill="#f9dec7"/>
          <path id="Trazado_117886" data-name="Trazado 117886" d="M2219.08,1123.075l-22.692,1.116v-2.009l22.692-1.115Z" transform="translate(-2169.292 -1096.754)" fill="#f9dec7"/>
          <path id="Trazado_117887" data-name="Trazado 117887" d="M2292.258,1119.081l-27.649,1.359v-2.008l27.649-1.359Z" transform="translate(-2211.587 -1094.277)" fill="#f9dec7"/>
        </g>
        <g id="Grupo_83985" data-name="Grupo 83985" transform="translate(0 237.426)">
          <path id="Trazado_117888" data-name="Trazado 117888" d="M1761.1,1383.914l-98.043,4.818v-5.711l98.043-4.818Z" transform="translate(-1663.052 -1378.203)" fill="#f99746"/>
          <path id="Trazado_117889" data-name="Trazado 117889" d="M1715.613,1424.873l-52.562,2.583V1424.6l52.562-2.583Z" transform="translate(-1663.052 -1405.367)" fill="#f9dec7"/>
          <path id="Trazado_117890" data-name="Trazado 117890" d="M1880.781,1416.756l-52.562,2.583v-2.855l52.562-2.583Z" transform="translate(-1765.453 -1400.335)" fill="#f9dec7"/>
          <path id="Trazado_117891" data-name="Trazado 117891" d="M1700.207,1451.866l-37.156,1.826v-2.856l37.156-1.826Z" transform="translate(-1663.052 -1422.103)" fill="#f9dec7"/>
          <path id="Trazado_117892" data-name="Trazado 117892" d="M1816.965,1446.128l-37.156,1.826V1445.1l37.156-1.826Z" transform="translate(-1735.44 -1418.545)" fill="#f9dec7"/>
          <path id="Trazado_117893" data-name="Trazado 117893" d="M1936.788,1439.588l-45.274,2.225v-2.855l45.274-2.225Z" transform="translate(-1804.695 -1414.49)" fill="#f9dec7"/>
          <path id="Trazado_117894" data-name="Trazado 117894" d="M1695.309,1476.987l-32.257,1.585v-2.856l32.257-1.585Z" transform="translate(-1663.052 -1437.677)" fill="#f9dec7"/>
          <path id="Trazado_117895" data-name="Trazado 117895" d="M1796.672,1472.005l-32.257,1.585v-2.856l32.257-1.585Z" transform="translate(-1725.895 -1434.588)" fill="#f9dec7"/>
          <path id="Trazado_117896" data-name="Trazado 117896" d="M1900.7,1466.328l-39.3,1.932V1465.4l39.3-1.932Z" transform="translate(-1786.02 -1431.069)" fill="#f9dec7"/>
        </g>
        <g id="Grupo_83986" data-name="Grupo 83986" transform="translate(87.545 326.976)">
          <path id="Trazado_117897" data-name="Trazado 117897" d="M1969.15,1619.561l-75.728,3.722v-5.711l75.728-3.722Z" transform="translate(-1893.422 -1613.851)" fill="#f99746"/>
          <path id="Trazado_117898" data-name="Trazado 117898" d="M1934.02,1659.182l-40.6,2v-2.855l40.6-2Z" transform="translate(-1893.422 -1640.185)" fill="#f9dec7"/>
          <path id="Trazado_117899" data-name="Trazado 117899" d="M2061.6,1652.912l-40.6,2v-2.855l40.6-2Z" transform="translate(-1972.516 -1636.298)" fill="#f9dec7"/>
          <path id="Trazado_117900" data-name="Trazado 117900" d="M1922.121,1685.721l-28.7,1.41v-2.855l28.7-1.411Z" transform="translate(-1893.422 -1656.638)" fill="#f9dec7"/>
          <path id="Trazado_117901" data-name="Trazado 117901" d="M2012.3,1681.289l-28.7,1.411v-2.855l28.7-1.411Z" transform="translate(-1949.333 -1653.891)" fill="#f9dec7"/>
          <path id="Trazado_117902" data-name="Trazado 117902" d="M2104.855,1676.238l-34.969,1.719V1675.1l34.969-1.719Z" transform="translate(-2002.826 -1650.759)" fill="#f9dec7"/>
          <path id="Trazado_117903" data-name="Trazado 117903" d="M1918.337,1710.7l-24.915,1.225v-2.856l24.915-1.224Z" transform="translate(-1893.422 -1672.124)" fill="#f9dec7"/>
          <path id="Trazado_117904" data-name="Trazado 117904" d="M1996.63,1706.85l-24.915,1.224v-2.855L1996.63,1704Z" transform="translate(-1941.962 -1669.739)" fill="#f9dec7"/>
          <path id="Trazado_117905" data-name="Trazado 117905" d="M2076.978,1702.465l-30.359,1.492V1701.1l30.359-1.492Z" transform="translate(-1988.401 -1667.02)" fill="#f9dec7"/>
        </g>
      </g>
      <g id="Grupo_83993" data-name="Grupo 83993" transform="translate(435.779 379.492)">
        <g id="Grupo_83989" data-name="Grupo 83989" transform="translate(141.147 19.852)">
          <path id="Trazado_117906" data-name="Trazado 117906" d="M1341.213,922.75l-109.258-3.967V809.525l109.258,3.967Z" transform="translate(-1231.954 -809.525)" fill="#f9dec7"/>
          <g id="Grupo_83988" data-name="Grupo 83988" transform="translate(8.206 24.216)">
            <path id="Trazado_117907" data-name="Trazado 117907" d="M1253.549,971.959l32.273-57.011,23.729,33.228,11.849-12.522,25.109,39.68Z" transform="translate(-1253.549 -899.101)" fill="#fff7f0"/>
            <path id="Trazado_117908" data-name="Trazado 117908" d="M1378.939,881.3a8,8,0,0,1,8.352-8.048,8.728,8.728,0,0,1,8.351,8.655,8,8,0,0,1-8.351,8.048A8.728,8.728,0,0,1,1378.939,881.3Z" transform="translate(-1331.288 -873.248)" fill="#fff7f0"/>
          </g>
        </g>
        <g id="Grupo_83990" data-name="Grupo 83990" transform="translate(139.309 166.891)">
          <path id="Trazado_117909" data-name="Trazado 117909" d="M1325.159,1205.722l-98.044-3.559v-5.711l98.044,3.559Z" transform="translate(-1227.116 -1196.452)" fill="#f99746"/>
          <path id="Trazado_117910" data-name="Trazado 117910" d="M1279.677,1239.149l-52.562-1.908v-2.855l52.562,1.908Z" transform="translate(-1227.116 -1219.97)" fill="#f9dec7"/>
          <path id="Trazado_117911" data-name="Trazado 117911" d="M1264.271,1263.59l-37.156-1.349v-2.855l37.156,1.349Z" transform="translate(-1227.116 -1235.47)" fill="#f9dec7"/>
          <path id="Trazado_117912" data-name="Trazado 117912" d="M1381.029,1267.829l-37.156-1.349v-2.855l37.156,1.349Z" transform="translate(-1299.504 -1238.098)" fill="#f9dec7"/>
          <path id="Trazado_117913" data-name="Trazado 117913" d="M1500.853,1272.179l-45.274-1.644v-2.855l45.274,1.644Z" transform="translate(-1368.759 -1240.612)" fill="#f9dec7"/>
          <path id="Trazado_117914" data-name="Trazado 117914" d="M1259.373,1287.9l-32.257-1.171v-2.855l32.257,1.171Z" transform="translate(-1227.116 -1250.652)" fill="#f9dec7"/>
          <path id="Trazado_117915" data-name="Trazado 117915" d="M1360.736,1291.579l-32.257-1.171v-2.856l32.257,1.171Z" transform="translate(-1289.959 -1252.933)" fill="#f9dec7"/>
          <path id="Trazado_117916" data-name="Trazado 117916" d="M1464.762,1295.356l-39.3-1.427v-2.855l39.3,1.427Z" transform="translate(-1350.084 -1255.116)" fill="#f9dec7"/>
        </g>
        <g id="Grupo_83991" data-name="Grupo 83991" transform="translate(139.309 234.116)">
          <path id="Trazado_117917" data-name="Trazado 117917" d="M1325.159,1382.624l-98.044-3.56v-5.711l98.044,3.559Z" transform="translate(-1227.116 -1373.354)" fill="#f99746"/>
          <path id="Trazado_117918" data-name="Trazado 117918" d="M1279.677,1416.051l-52.562-1.908v-2.855l52.562,1.908Z" transform="translate(-1227.116 -1396.872)" fill="#f9dec7"/>
          <path id="Trazado_117919" data-name="Trazado 117919" d="M1444.846,1422.047l-52.562-1.908v-2.855l52.562,1.908Z" transform="translate(-1329.517 -1400.589)" fill="#f9dec7"/>
          <path id="Trazado_117920" data-name="Trazado 117920" d="M1264.271,1440.491l-37.156-1.349v-2.855l37.156,1.349Z" transform="translate(-1227.116 -1412.371)" fill="#f9dec7"/>
          <path id="Trazado_117921" data-name="Trazado 117921" d="M1381.029,1444.73l-37.156-1.349v-2.855l37.156,1.349Z" transform="translate(-1299.504 -1414.999)" fill="#f9dec7"/>
          <path id="Trazado_117922" data-name="Trazado 117922" d="M1500.853,1449.08l-45.274-1.644v-2.855l45.274,1.644Z" transform="translate(-1368.759 -1417.513)" fill="#f9dec7"/>
          <path id="Trazado_117923" data-name="Trazado 117923" d="M1259.373,1464.8l-32.257-1.171v-2.855l32.257,1.171Z" transform="translate(-1227.116 -1427.553)" fill="#f9dec7"/>
          <path id="Trazado_117924" data-name="Trazado 117924" d="M1360.736,1468.481l-32.257-1.171v-2.855l32.257,1.171Z" transform="translate(-1289.959 -1429.834)" fill="#f9dec7"/>
          <path id="Trazado_117925" data-name="Trazado 117925" d="M1464.762,1472.257l-39.3-1.427v-2.855l39.3,1.427Z" transform="translate(-1350.084 -1432.017)" fill="#f9dec7"/>
        </g>
        <g id="Grupo_83992" data-name="Grupo 83992">
          <path id="Trazado_117926" data-name="Trazado 117926" d="M958.574,766.556,860.531,763v-5.711l98.044,3.559Z" transform="translate(-860.531 -757.286)" fill="#f99746"/>
          <path id="Trazado_117927" data-name="Trazado 117927" d="M913.092,799.983l-52.562-1.908v-2.856l52.562,1.908Z" transform="translate(-860.531 -780.804)" fill="#f9dec7"/>
          <path id="Trazado_117928" data-name="Trazado 117928" d="M1078.261,805.979l-52.562-1.908v-2.855l52.562,1.908Z" transform="translate(-962.932 -784.522)" fill="#f9dec7"/>
          <path id="Trazado_117929" data-name="Trazado 117929" d="M897.687,824.424l-37.156-1.349V820.22l37.156,1.349Z" transform="translate(-860.531 -796.304)" fill="#f9dec7"/>
          <path id="Trazado_117930" data-name="Trazado 117930" d="M1014.444,828.662l-37.156-1.349v-2.856l37.156,1.349Z" transform="translate(-932.919 -798.932)" fill="#f9dec7"/>
          <path id="Trazado_117931" data-name="Trazado 117931" d="M1134.268,833.013l-45.274-1.644v-2.855l45.274,1.644Z" transform="translate(-1002.174 -801.446)" fill="#f9dec7"/>
          <path id="Trazado_117932" data-name="Trazado 117932" d="M892.788,848.734l-32.257-1.171v-2.855l32.257,1.171Z" transform="translate(-860.531 -811.485)" fill="#f9dec7"/>
          <path id="Trazado_117933" data-name="Trazado 117933" d="M994.151,852.413l-32.257-1.171v-2.855l32.257,1.171Z" transform="translate(-923.374 -813.767)" fill="#f9dec7"/>
          <path id="Trazado_117934" data-name="Trazado 117934" d="M1098.177,856.19l-39.3-1.427v-2.855l39.3,1.427Z" transform="translate(-983.499 -815.95)" fill="#f9dec7"/>
        </g>
      </g>
      <g id="Grupo_83994" data-name="Grupo 83994" transform="translate(475.28 271.168)">
        <path id="Trazado_117935" data-name="Trazado 117935" d="M972.5,474.281l8.6-2.044,28.323,38.4-9.755,2.318-6.137-8.591L975.6,508.62l-1.618,10.433-9.512,2.26Zm15.745,22.63-8.9-12.414-2.367,15.092Z" transform="translate(-964.474 -472.237)" fill="#afcdfb"/>
      </g>
      <g id="Grupo_83995" data-name="Grupo 83995" transform="translate(531.438 227.765)">
        <path id="Trazado_117936" data-name="Trazado 117936" d="M1112.375,378.337c1.225-12.332,11.524-21.509,24.847-20.186,8.179.812,12.457,4.366,16.091,8.732l-6.354,6c-3.045-3.369-5.717-5.449-10.674-5.942-7.312-.726-13.182,4.824-13.933,12.383-.739,7.436,3.789,14.144,11.225,14.883,4.958.493,8.191-1.189,11.907-3.949l5.427,7.11c-4.936,4.329-10.151,6.439-18.518,5.608C1119.628,401.711,1111.126,390.916,1112.375,378.337Z" transform="translate(-1112.253 -358.024)" fill="#afcdfb"/>
      </g>
      <g id="Grupo_83996" data-name="Grupo 83996" transform="translate(662.957 232.768)">
        <path id="Trazado_117937" data-name="Trazado 117937" d="M1458.339,374.728l19.98-3.226c4.918-.794,9.01-.067,11.866,2a10.086,10.086,0,0,1,4.152,6.962c.784,4.857-1.361,7.978-4.157,10.2,5.287,1.1,8.827,3.495,9.781,9.4,1.271,7.869-4.488,12.836-14.2,14.4l-20.471,3.305Zm20.76,14.5c4.18-.675,6.605-2.455,6.07-5.774-.457-2.828-2.928-4.069-6.924-3.424l-9.345,1.508,1.469,9.1Zm5.319,16.929c4.181-.675,6.463-2.557,5.927-5.877-.467-2.889-2.906-4.325-7.763-3.541l-10.943,1.767,1.529,9.467Z" transform="translate(-1458.339 -371.188)" fill="#afcdfb"/>
      </g>
      <g id="Grupo_83997" data-name="Grupo 83997" transform="translate(587.893 287.597)">
        <path id="Trazado_117938" data-name="Trazado 117938" d="M1260.906,536.086a22.374,22.374,0,0,1,24.682-20.526c7.818.665,12.355,3.175,16.557,7.407l-6.636,6.748c-3.113-3.077-5.955-4.943-10.98-5.371-6.949-.591-12.994,5.082-13.633,12.591-.675,7.942,4.289,14.239,11.983,14.893a15.306,15.306,0,0,0,9.219-1.841l.527-6.2-9.618-.818.7-8.253,18.863,1.6-1.6,18.863a28.3,28.3,0,0,1-19.138,5.31C1268.3,559.339,1259.8,549.054,1260.906,536.086Z" transform="translate(-1260.811 -515.469)" fill="#afcdfb"/>
      </g>
      <g id="Grupo_83998" data-name="Grupo 83998" transform="translate(1085.665 311.182)">
        <path id="Trazado_117939" data-name="Trazado 117939" d="M2602.575,621.2a23.757,23.757,0,0,1-13.446.974c-13.16-2.784-20.528-14.59-17.937-26.836,2.565-12.124,14.231-20.031,27.391-17.247s20.528,14.591,17.937,26.837a22.031,22.031,0,0,1-6.367,11.447l3.6,4.644-7.376,5.377Zm-5.643-7.623-5.7-7.379,7.389-5.438,5.665,7.818a14.626,14.626,0,0,0,2.421-5.726c1.547-7.311-2.526-14.538-10.08-16.136s-14.058,3.264-15.63,10.7c-1.547,7.311,2.526,14.538,10.08,16.136A14.046,14.046,0,0,0,2596.931,613.578Z" transform="translate(-2570.677 -577.532)" fill="#afcdfb"/>
      </g>
      <g id="Grupo_83999" data-name="Grupo 83999" transform="translate(1019.454 257.575)">
        <path id="Trazado_117940" data-name="Trazado 117940" d="M2396.444,441.667l8.763-1.187,23.844,23.854-3.6-26.6,9.379-1.271,5.853,43.2-8.084,1.1-24.64-24.626,3.721,27.46-9.38,1.271Z" transform="translate(-2396.444 -436.466)" fill="#afcdfb"/>
      </g>
      <g id="Grupo_84000" data-name="Grupo 84000" transform="translate(735.176 285.679)">
        <path id="Trazado_117941" data-name="Trazado 117941" d="M1648.38,510.421l10.22,1.062,5.93,30.293,12.788-28.473,8.176.85,6.661,30.494,12.032-28.426,9.972,1.036-19.342,42.129-8.3-.863-6.839-29.385-12.734,27.351-8.3-.863Z" transform="translate(-1648.38 -510.421)" fill="#afcdfb"/>
      </g>
      <g id="Grupo_84002" data-name="Grupo 84002" transform="translate(287.214 749.152)">
        <path id="Trazado_117942" data-name="Trazado 117942" d="M469.588,1759.154a12.134,12.134,0,0,0,.1,1.554,12.741,12.741,0,0,0,12.653,11.2H661.661a12.752,12.752,0,0,0,0-25.5H482.338A12.751,12.751,0,0,0,469.588,1759.154Z" transform="translate(-469.588 -1740.18)" fill="#f78248"/>
        <path id="Trazado_117943" data-name="Trazado 117943" d="M502.388,1733.945h61.483a1.962,1.962,0,0,0,1.957-1.957h0a1.963,1.963,0,0,0-1.957-1.957H502.388a1.963,1.963,0,0,0-1.957,1.957h0A1.962,1.962,0,0,0,502.388,1733.945Z" transform="translate(-488.71 -1730.031)" fill="#f78248"/>
        <rect id="Rectángulo_34550" data-name="Rectángulo 34550" width="6.664" height="2.308" transform="translate(23.738 6.222) rotate(180)" fill="#ea642f"/>
        <path id="Trazado_117944" data-name="Trazado 117944" d="M473.659,1796.01a12.77,12.77,0,0,0,11.2,6.651h37.984v-6.651Z" transform="translate(-472.112 -1770.937)" fill="#ea642f"/>
        <path id="Trazado_117945" data-name="Trazado 117945" d="M736.881,1755.418v7.47a9.009,9.009,0,0,1-9.013,9.017h-186.8a9.009,9.009,0,0,1-9.013-9.017v-7.47a9.014,9.014,0,0,1,9.013-9.017h186.8A9.014,9.014,0,0,1,736.881,1755.418Z" transform="translate(-508.318 -1740.18)" fill="#f99746"/>
        <path id="Trazado_117946" data-name="Trazado 117946" d="M737.079,1796.01a9.012,9.012,0,0,1-8.7,6.651h-186.8a9.012,9.012,0,0,1-8.7-6.651Z" transform="translate(-508.83 -1770.937)" fill="#ef873a"/>
        <g id="Grupo_84001" data-name="Grupo 84001" transform="translate(210.011 6.221)">
          <path id="Trazado_117947" data-name="Trazado 117947" d="M1022.222,1759.2a14.173,14.173,0,0,0,3.709,9.846c.052.052.1.1.152.155a9.049,9.049,0,0,0,6.4,2.794c3.782,0,13.154-5.705,18.963-9.493,2.894-1.889,4.9-3.3,4.9-3.3s-2.01-1.413-4.9-3.3c-5.808-3.792-15.181-9.5-18.963-9.5a8.473,8.473,0,0,0-3.139.608,10.282,10.282,0,0,0-4.323,3.412,14.079,14.079,0,0,0-2.6,6.24.7.7,0,0,0-.01.083A15.784,15.784,0,0,0,1022.222,1759.2Z" transform="translate(-1022.222 -1746.4)" fill="#cde0fb"/>
          <path id="Trazado_117948" data-name="Trazado 117948" d="M1022.222,1776.074a14.172,14.172,0,0,0,3.709,9.845l28.75-9.891-32.269-2.411A15.785,15.785,0,0,0,1022.222,1776.074Z" transform="translate(-1022.222 -1763.275)" fill="#a6c7ed"/>
          <path id="Trazado_117949" data-name="Trazado 117949" d="M1029.583,1751.412l28.681,7.833L1033.906,1748A10.28,10.28,0,0,0,1029.583,1751.412Z" transform="translate(-1026.786 -1747.392)" fill="#e3f0ff"/>
          <path id="Trazado_117950" data-name="Trazado 117950" d="M1094.195,1774.694a3.54,3.54,0,0,0,1.872,3.3c2.894-1.889,4.9-3.3,4.9-3.3s-2.01-1.413-4.9-3.3A3.533,3.533,0,0,0,1094.195,1774.694Z" transform="translate(-1066.844 -1761.895)" fill="#f99746"/>
        </g>
      </g>
      <g id="Grupo_84008" data-name="Grupo 84008" transform="translate(377.253 438.099)">
        <g id="Grupo_84003" data-name="Grupo 84003" transform="translate(0 101.604)">
          <path id="Trazado_117951" data-name="Trazado 117951" d="M872.167,1421.485h0a3.305,3.305,0,0,0,3.007-2.09l77.286-237.443a1.561,1.561,0,0,0-1.638-2.117h0a3.3,3.3,0,0,0-3.007,2.09l-77.286,237.443A1.561,1.561,0,0,0,872.167,1421.485Z" transform="translate(-808.141 -1179.471)" fill="#233862"/>
          <path id="Trazado_117952" data-name="Trazado 117952" d="M708.259,1420.527h0a3.305,3.305,0,0,0,3.007-2.09l77.286-237.443a1.561,1.561,0,0,0-1.638-2.118h0a3.3,3.3,0,0,0-3.007,2.091L706.621,1418.41A1.561,1.561,0,0,0,708.259,1420.527Z" transform="translate(-706.521 -1178.877)" fill="#233862"/>
          <path id="Trazado_117953" data-name="Trazado 117953" d="M884.9,1265.032l62.548.365a3.131,3.131,0,0,0,2.839-1.973h0a1.476,1.476,0,0,0-1.547-2l-62.548-.365a3.13,3.13,0,0,0-2.839,1.973h0A1.477,1.477,0,0,0,884.9,1265.032Z" transform="translate(-816.099 -1229.829)" fill="#233862"/>
          <path id="Trazado_117954" data-name="Trazado 117954" d="M849.395,1374.123l62.549.366a3.131,3.131,0,0,0,2.839-1.973h0a1.477,1.477,0,0,0-1.547-2l-62.548-.366a3.132,3.132,0,0,0-2.839,1.973h0A1.476,1.476,0,0,0,849.395,1374.123Z" transform="translate(-794.084 -1297.463)" fill="#233862"/>
          <path id="Trazado_117955" data-name="Trazado 117955" d="M815.2,1479.192l62.548.365a3.131,3.131,0,0,0,2.839-1.974h0a1.476,1.476,0,0,0-1.547-2l-62.548-.365a3.13,3.13,0,0,0-2.839,1.973h0A1.477,1.477,0,0,0,815.2,1479.192Z" transform="translate(-772.881 -1362.604)" fill="#233862"/>
          <path id="Trazado_117956" data-name="Trazado 117956" d="M776.7,1597.475l62.548.366a3.131,3.131,0,0,0,2.839-1.973h0a1.477,1.477,0,0,0-1.546-2l-62.549-.365a3.13,3.13,0,0,0-2.839,1.973h0A1.476,1.476,0,0,0,776.7,1597.475Z" transform="translate(-749.011 -1435.938)" fill="#233862"/>
          <path id="Trazado_117957" data-name="Trazado 117957" d="M736.4,1721.279l62.548.366a3.131,3.131,0,0,0,2.839-1.974h0a1.476,1.476,0,0,0-1.546-2l-62.548-.365a3.129,3.129,0,0,0-2.839,1.973h0A1.476,1.476,0,0,0,736.4,1721.279Z" transform="translate(-724.028 -1512.695)" fill="#233862"/>
        </g>
        <g id="Grupo_84007" data-name="Grupo 84007" transform="translate(53.474)">
          <path id="Trazado_117958" data-name="Trazado 117958" d="M1043.487,1035.607s.74-1.663,1.219-2.451,2.525-3.1,2.874-2.573,1.741,4.039,1,5.024.048,2.7-3.633,3.735Z" transform="translate(-968.908 -985.286)" fill="#ffb27d"/>
          <path id="Trazado_117959" data-name="Trazado 117959" d="M935.837,1016.29s18.844,15.73,26.192,14.274a145.012,145.012,0,0,0,14.564-4.163l1.763,4.511s-7.908,10.727-16.153,10.8a46.972,46.972,0,0,1-22.409-5.58Z" transform="translate(-902.167 -976.471)" fill="#ef7e29"/>
          <path id="Trazado_117960" data-name="Trazado 117960" d="M848.87,1448.268s.547,8.825,2.254,8.951c.227.017,8.659.017,8.659.017l10.764-.062a3.493,3.493,0,0,0-3.217-3.142c-3.146-.548-8.413-2.759-10.319-6.918C855.007,1442.738,848.87,1448.268,848.87,1448.268Z" transform="translate(-848.249 -1242.53)" fill="#1c3d72"/>
          <path id="Trazado_117961" data-name="Trazado 117961" d="M847.237,1276.771a22.443,22.443,0,0,0,5.827,1.095,21.394,21.394,0,0,0,5.44-.776s.616-5.958,4.006-19.084c1.777-6.881,4.316-15.727,7.927-26.719,9.984-30.38,13.021-48.153,13.3-49.836.015-.089.021-.133.021-.133l-.032-.015-30.7-13.477s3.794,41.871-1.047,57.943a67.762,67.762,0,0,0-1.757,7.7C847.166,1250.924,847.237,1276.771,847.237,1276.771Z" transform="translate(-847.237 -1070.42)" fill="#2b478b"/>
          <path id="Trazado_117962" data-name="Trazado 117962" d="M870.2,1258c1.777-6.881,4.315-15.727,7.927-26.719,9.984-30.38,13.021-48.153,13.3-49.836,0-.051-.006-.1-.012-.148l-30.7-13.477s3.794,41.871-1.047,57.943C858.992,1228.013,870.2,1258,870.2,1258Z" transform="translate(-854.927 -1070.42)" fill="#233862"/>
          <path id="Trazado_117963" data-name="Trazado 117963" d="M911.959,1448.268s.547,8.825,2.254,8.951c.227.017,8.659.017,8.659.017l10.764-.062a3.493,3.493,0,0,0-3.217-3.142c-3.147-.548-8.413-2.759-10.319-6.918C918.1,1442.738,911.959,1448.268,911.959,1448.268Z" transform="translate(-887.363 -1242.53)" fill="#1c3d72"/>
          <path id="Trazado_117964" data-name="Trazado 117964" d="M904.51,1170.42a436.94,436.94,0,0,1-4.3,60.447c-4.694,33.315-3.1,47.456-3.1,47.456a32.023,32.023,0,0,1-4.527,1.151,20.553,20.553,0,0,1-6.717-.778s-6.719-33.327-4.793-50-9.2-57.218-9.2-57.218Z" transform="translate(-862.511 -1072.029)" fill="#2b478b"/>
          <path id="Trazado_117965" data-name="Trazado 117965" d="M900.479,981.454l5.992,3.929,5.458-1.544c1-1.423,1.262-4.167,1.276-6.543a40.735,40.735,0,0,0-.214-4.357l-8.084-3.568-3.016-1.329c.009.047.234,2.477.267,2.832A20.631,20.631,0,0,1,900.479,981.454Z" transform="translate(-880.246 -946.558)" fill="#ffb27d"/>
          <path id="Trazado_117966" data-name="Trazado 117966" d="M896.4,1070.661c-7.458,7.2-35.683,5.99-37.423-1.944s1.9-67.537,14.637-71.281c2.643-.777,16.777,3.791,16.777,3.791a89.593,89.593,0,0,1,3.672,13.188c.282,1.438,1.106,16.669,1.723,30.919.288,6.664.531,13.116.656,17.839C896.555,1067.6,896.561,1070.5,896.4,1070.661Z" transform="translate(-854.264 -964.727)" fill="#f99746"/>
          <path id="Trazado_117967" data-name="Trazado 117967" d="M906.112,973.151c1.64,2.773,7.394,5.2,10.443,6.312a40.735,40.735,0,0,0-.214-4.357l-8.084-3.568C906.469,971.514,905.381,971.913,906.112,973.151Z" transform="translate(-883.595 -948.725)" fill="#fca56b"/>
          <path id="Trazado_117968" data-name="Trazado 117968" d="M911.793,944.658s-13.026,4.063-15.431-4.088-5.706-13.115,2.508-16.054,10.756-.308,12.22,2.217S915.119,943.391,911.793,944.658Z" transform="translate(-875.999 -918.769)" fill="#ffb27d"/>
          <path id="Trazado_117969" data-name="Trazado 117969" d="M901.333,918.688s-.831,9.484-2.792,9.073-4.121-1.292-3.833,1.567-1.907,7.76-4.736,7.748c-6.066-.025-12.657-15.59-11-18.542C883.767,910.017,908.258,908.3,901.333,918.688Z" transform="translate(-866.753 -911.509)" fill="#163560"/>
          <path id="Trazado_117970" data-name="Trazado 117970" d="M911.469,991.6c-.168-.071-9.7-4.345-10.81-3.977s-2.5,3.771-2.5,3.771l16.778,3.794A8.333,8.333,0,0,0,911.469,991.6Z" transform="translate(-878.805 -958.682)" fill="#ef7e29"/>
          <g id="Grupo_84005" data-name="Grupo 84005" transform="translate(33.576 6.007)">
            <path id="Trazado_117971" data-name="Trazado 117971" d="M994,1111.257l-53.413,50.289c-1.047.986-2.367,1.3-2.934.7l-1.8-1.915c-.567-.6-.174-1.9.873-2.887l53.413-50.289c1.047-.986,2.367-1.3,2.934-.7l1.8,1.915C995.44,1108.973,995.047,1110.271,994,1111.257Z" transform="translate(-935.59 -1038.19)" fill="#1f4d84"/>
            <path id="Trazado_117972" data-name="Trazado 117972" d="M964.025,1187.158l-23.439,22.068c-1.047.986-2.367,1.3-2.934.7l-1.8-1.915c-.567-.6-.174-1.9.873-2.887l23.439-22.068Z" transform="translate(-935.59 -1085.87)" fill="#f78248"/>
            <path id="Trazado_117973" data-name="Trazado 117973" d="M1054.024,981.4a41.866,41.866,0,1,0,69.39-42.072c-.214-.214-.434-.426-.657-.634a41.868,41.868,0,0,0-68.733,42.706Zm11.966-38.639a38.562,38.562,0,1,1,1.661,54.507A38.515,38.515,0,0,1,1065.99,942.757Z" transform="translate(-1007.892 -927.316)" fill="#1f4d84"/>
            <g id="Grupo_84004" data-name="Grupo 84004" transform="translate(47.621 3.305)" opacity="0.5">
              <path id="Trazado_117974" data-name="Trazado 117974" d="M1127.547,1000.993a38.562,38.562,0,1,1-1.662-54.505A38.4,38.4,0,0,1,1127.547,1000.993Z" transform="translate(-1060.903 -936.014)" fill="#b3cff9"/>
            </g>
          </g>
          <path id="Trazado_117975" data-name="Trazado 117975" d="M914.123,1090.693c-29.431-20.972-26.984-48.957-26.984-48.957,10.757,6.067,21.431,19.482,26.328,31.118C913.755,1079.518,914,1085.97,914.123,1090.693Z" transform="translate(-871.944 -992.247)" fill="#ef7e29"/>
          <g id="Grupo_84006" data-name="Grupo 84006" transform="translate(14.581 36.502)">
            <path id="Trazado_117976" data-name="Trazado 117976" d="M1028.915,1141.644a8.032,8.032,0,0,0,3.759-2.323s.885.06-.145,1.949c-.086.158-.277.563-.422.851a.183.183,0,0,0,.154.263c1.2.091,2.4-.383,4.709.1.318.066.411.828.4,1.154a2.945,2.945,0,0,1-.62,2.01c-.372.491-1.409,1.018-3.719,1.948-.88.354-3.4.087-5.754-.723l-1.884-.872.584-3.5.474.1C1027.2,1142.753,1028.131,1141.836,1028.915,1141.644Z" transform="translate(-972.27 -1089.251)" fill="#f99746"/>
            <path id="Trazado_117977" data-name="Trazado 117977" d="M895.352,1007.563s-26.445,5.034,7.78,43.33c5.474,6.124,35.047,14.1,35.047,14.1s3-2.552,1.487-4.619c0,0-20.361-14.786-24.842-17.137-2.015-1.058-7.822-23.6-11.108-29.028A14.81,14.81,0,0,0,895.352,1007.563Z" transform="translate(-885.605 -1007.563)" fill="#f99746"/>
          </g>
          <path id="Trazado_117978" data-name="Trazado 117978" d="M1045.374,1034.635a13.486,13.486,0,0,0,1.034-2.525,13.944,13.944,0,0,1,1.707-3.863c.18-.179.772.052.842.823a4.478,4.478,0,0,1-.425,1.672,18.852,18.852,0,0,0-.56,3.324C1047.562,1035.4,1045.374,1034.635,1045.374,1034.635Z" transform="translate(-970.078 -983.849)" fill="#ffb27d"/>
        </g>
      </g>
      <path id="Trazado_117979" data-name="Trazado 117979" d="M1253.819,1816.97,192.572,1816.6a1.441,1.441,0,0,1-1.436-1.437v-1.132a1.44,1.44,0,0,1,1.436-1.436l1061.247.366a1.44,1.44,0,0,1,1.435,1.437v1.133A1.441,1.441,0,0,1,1253.819,1816.97Z" transform="translate(-9.738 -1032.069)" fill="#2e3552"/>
    </g>
  </g>
</svg>
