<svg xmlns="http://www.w3.org/2000/svg" width="201" height="80" viewBox="0 0 201 80">
  <g id="Grupo_84019" data-name="Grupo 84019" transform="translate(-1775 10704)">
    <path id="Trazado_117980" data-name="Trazado 117980" d="M25,0H147a25,25,0,0,1,0,50H25A25,25,0,0,1,25,0Z" transform="translate(1804 -10690)" fill="#fff"/>
    <g id="vocabulario" transform="translate(1740.65 -10704.443)">
      <path id="Trazado_116737" data-name="Trazado 116737" d="M89.694,184.51v18.41H56.7v-9.207H46.725v9.207h-.668a9.069,9.069,0,0,1-1.527-.129,9.2,9.2,0,0,1,1.527-18.282Z" transform="translate(-1.716 -126.347)" fill="#f2e1d6"/>
      <path id="Trazado_116738" data-name="Trazado 116738" d="M61.34,213.87h2.2v9.2h-.668a9.069,9.069,0,0,1-1.527-.129Z" transform="translate(-18.526 -146.501)" fill="#d6c0b4"/>
      <path id="Trazado_116739" data-name="Trazado 116739" d="M100.15,213.87h2.2v9.2h-2.2Z" transform="translate(-45.166 -146.501)" fill="#d6c0b4"/>
      <path id="Trazado_116740" data-name="Trazado 116740" d="M114.171,4.648V58.172a1.707,1.707,0,0,1-1.706,1.706H66.214V2.942h46.251a1.707,1.707,0,0,1,1.706,1.706Z" transform="translate(-21.872 -1.715)" fill="#fc5d3d"/>
      <path id="Trazado_116741" data-name="Trazado 116741" d="M87.763,43.156A3.767,3.767,0,0,1,84,39.393V24.263A3.767,3.767,0,0,1,87.763,20.5H117a3.767,3.767,0,0,1,3.763,3.763v15.13A3.767,3.767,0,0,1,117,43.156Z" transform="translate(-34.081 -13.768)" fill="#b25035"/>
      <path id="Trazado_116742" data-name="Trazado 116742" d="M121.809,45.766H92.568A1.568,1.568,0,0,1,91,44.2V29.068A1.568,1.568,0,0,1,92.568,27.5h29.241a1.568,1.568,0,0,1,1.568,1.568V44.2A1.568,1.568,0,0,1,121.809,45.766Z" transform="translate(-38.886 -18.572)" fill="#efefef"/>
      <path id="Trazado_116743" data-name="Trazado 116743" d="M89.695,184.51v2.9H46.06a9.211,9.211,0,0,0-9.094,7.756,9.357,9.357,0,0,1-.113-1.448,9.207,9.207,0,0,1,9.207-9.2Z" transform="translate(-1.718 -126.347)" fill="#d6c0b4"/>
      <path id="Trazado_116744" data-name="Trazado 116744" d="M209.69,179.072v18.411a1.705,1.705,0,0,1-1.7,1.7H205.37V180.777h2.615A1.705,1.705,0,0,0,209.69,179.072Z" transform="translate(-117.392 -122.615)" fill="#b25035"/>
      <path id="Trazado_116745" data-name="Trazado 116745" d="M46.059,2.942V59.878a9.207,9.207,0,0,0-9.207,9.2V12.149a9.208,9.208,0,0,1,9.207-9.207Z" transform="translate(-1.717 -1.715)" fill="#afafaf"/>
      <path id="Trazado_116746" data-name="Trazado 116746" d="M78.314,213.861v11.324a.966.966,0,0,1-1.616.714l-3.373-3.073L69.953,225.9a.966.966,0,0,1-1.616-.714V213.861Z" transform="translate(-23.329 -146.495)" fill="#72c2e9"/>
      <path id="Trazado_116747" data-name="Trazado 116747" d="M68.34,213.86h9.975v2.822H68.34Z" transform="translate(-23.331 -146.494)" fill="#4ba5c8"/>
      <path id="Trazado_116748" data-name="Trazado 116748" d="M207.169,62.772a.784.784,0,0,1-.784-.784v-.941a.784.784,0,1,1,1.568,0v.941A.784.784,0,0,1,207.169,62.772Zm0-4.077a.784.784,0,0,1-.784-.784V11.489a.784.784,0,1,1,1.568,0V57.912A.784.784,0,0,1,207.169,58.7Z" transform="translate(-118.088 -7.044)" fill="#ffcbc3"/>
      <path id="Trazado_116749" data-name="Trazado 116749" d="M111.318,49.688a.784.784,0,0,0,.784-.784V42.291a4.271,4.271,0,1,0-8.542,0V48.9a.784.784,0,1,0,1.568,0,0,0,0,0,0,0,0v-3.76h5.409V48.9a.784.784,0,0,0,.784.784Zm-6.193-6.115V42.291a2.7,2.7,0,0,1,5.409,0v1.283Z" transform="translate(-47.507 -25.794)"/>
      <path id="Trazado_116750" data-name="Trazado 116750" d="M155.229,49.687H162.2a.784.784,0,1,0,0-1.568h-5.481l6.127-8.871a.783.783,0,0,0-.646-1.229h-6.974a.784.784,0,1,0,0,1.568h5.481l-6.127,8.871a.784.784,0,0,0,.646,1.229Z" transform="translate(-82.434 -25.793)"/>
      <path id="Trazado_116751" data-name="Trazado 116751" d="M141.615,55.729H139.26a.784.784,0,0,0,0,1.568h2.355a.784.784,0,1,0,0-1.568Z" transform="translate(-71.476 -37.949)"/>
      <path id="Trazado_116752" data-name="Trazado 116752" d="M90.852,44.834h12.622a.784.784,0,0,0,0-1.568H90.852a.785.785,0,0,1-.784-.784V27.352a.785.785,0,0,1,.784-.784h29.241a.785.785,0,0,1,.784.784v15.13a.785.785,0,0,1-.784.784H109.745a.784.784,0,1,0,0,1.568h10.348a2.354,2.354,0,0,0,2.352-2.352V27.352A2.354,2.354,0,0,0,120.093,25H90.852A2.354,2.354,0,0,0,88.5,27.352v15.13A2.354,2.354,0,0,0,90.852,44.834Z" transform="translate(-37.17 -16.856)"/>
      <circle id="Elipse_4784" data-name="Elipse 4784" cx="0.784" cy="0.784" r="0.784" transform="translate(68.656 26.41)"/>
      <path id="Trazado_116753" data-name="Trazado 116753" d="M125.434,225.029a.784.784,0,1,0,.784.784.784.784,0,0,0-.784-.784Z" transform="translate(-61.984 -154.161)"/>
      <circle id="Elipse_4785" data-name="Elipse 4785" cx="0.784" cy="0.784" r="0.784" transform="translate(34.35 24.249)"/>
      <path id="Trazado_116754" data-name="Trazado 116754" d="M93.083,2.932s0-.008,0-.013A2.492,2.492,0,0,0,90.593.443H44.342a10,10,0,0,0-9.991,9.977s0,.008,0,.013V21.9s0,.009,0,.013,0,.012,0,.018a.784.784,0,1,0,1.568,0,8.434,8.434,0,0,1,7.639-8.385V27.428a10,10,0,0,0-7.64,4.6V28.168a.784.784,0,1,0-1.568,0v39.2a9.952,9.952,0,0,0,9.874,9.984V78.69a1.749,1.749,0,0,0,2.928,1.293L50,77.391l2.844,2.592a1.749,1.749,0,0,0,2.928-1.293V77.357H90.593a2.492,2.492,0,0,0,2.489-2.489c0-5.576,0-57.846,0-60.335a.784.784,0,1,0-1.568,0V56.445s0,.008,0,.012a.922.922,0,0,1-.921.921H45.126V2.011H90.593a.922.922,0,0,1,.922.922s0,0,0,.006V8.263a.784.784,0,0,0,1.568,0ZM35.918,16.567V10.443s0-.006,0-.009a8.435,8.435,0,0,1,7.639-8.387v9.924A9.995,9.995,0,0,0,35.918,16.567Zm0,45.436v-9.15s0-.006,0-.009a8.434,8.434,0,0,1,7.639-8.385V57.409A10.025,10.025,0,0,0,35.918,62Zm0-24.617A8.434,8.434,0,0,1,43.558,29V42.886a10,10,0,0,0-7.64,4.6V37.395s0-.006,0-.009ZM53.9,78.824l-3.372-3.073a.784.784,0,0,0-1.056,0L46.1,78.824a.18.18,0,0,1-.3-.134c0-3.654,0,1.874,0-10.537H54.2c0,7.876,0,9.645,0,10.537A.18.18,0,0,1,53.9,78.824Zm1.872-6.388h4.546a.784.784,0,1,0,0-1.568H55.768V68.153H87.194v2.715H66.586a.784.784,0,1,0,0,1.568H87.194v3.352H55.768Zm35.746,2.432a.922.922,0,0,1-.921.921H88.762V58.947h1.831a2.609,2.609,0,0,0,.921-.177Zm-4.32-15.922V62.3H46.618a.784.784,0,0,0,0,1.568H87.194v2.718H41.49a.784.784,0,1,0,0,1.568h2.734v7.635a8.4,8.4,0,0,1-8.306-8.416s0,0,0-.005a8.431,8.431,0,0,1,8.423-8.42H87.194Z" transform="translate(0)"/>
      <circle id="Elipse_4786" data-name="Elipse 4786" cx="0.784" cy="0.784" r="0.784" transform="translate(91.515 10.615)"/>
    </g>
    <path id="Trazado_117981" data-name="Trazado 117981" d="M4.734-2.844l3.828-8.531h2.625L5.57,0H3.18L1.133-11.375H3.594Zm9.992-5.766a3.39,3.39,0,0,1,1.926.574A3.234,3.234,0,0,1,17.84-6.5a4.762,4.762,0,0,1,.27,2.176,5.143,5.143,0,0,1-1.4,3.262A3.96,3.96,0,0,1,13.688.156,3.38,3.38,0,0,1,11.781-.41a3.222,3.222,0,0,1-1.187-1.527,4.657,4.657,0,0,1-.273-2.156,5.3,5.3,0,0,1,1.422-3.328A3.878,3.878,0,0,1,14.727-8.609ZM12.5-3.294a1.95,1.95,0,0,0,.352,1.182,1.168,1.168,0,0,0,.945.449A1.712,1.712,0,0,0,15.391-2.6a4.647,4.647,0,0,0,.539-2.531,2.122,2.122,0,0,0-.363-1.2,1.149,1.149,0,0,0-.949-.464,1.715,1.715,0,0,0-1.574.924A4.6,4.6,0,0,0,12.5-3.294Zm9.945,1.638a1.447,1.447,0,0,0,1.016-.332,1.632,1.632,0,0,0,.531-.926l2.07-.008a3.037,3.037,0,0,1-.559,1.6A3.394,3.394,0,0,1,24.16-.211a3.847,3.847,0,0,1-1.77.375A3.123,3.123,0,0,1,19.953-.9a3.965,3.965,0,0,1-.867-2.766l.023-.43.008-.086a5.284,5.284,0,0,1,1.391-3.27,3.761,3.761,0,0,1,2.914-1.16,3.047,3.047,0,0,1,2.27.934A3.3,3.3,0,0,1,26.516-5.3H24.461a1.73,1.73,0,0,0-.3-1.07,1.128,1.128,0,0,0-.891-.422q-1.578-.047-1.914,2.3a7.782,7.782,0,0,0-.086,1.438Q21.352-1.68,22.445-1.656ZM31.8,0a2.281,2.281,0,0,1-.086-.766,2.863,2.863,0,0,1-2.156.922,2.594,2.594,0,0,1-1.84-.723,2.186,2.186,0,0,1-.684-1.746A2.527,2.527,0,0,1,28.2-4.434a5.266,5.266,0,0,1,2.965-.738l1.031.016.109-.508a1.764,1.764,0,0,0,.023-.492.846.846,0,0,0-.277-.574.955.955,0,0,0-.629-.215,1.345,1.345,0,0,0-.875.254,1.231,1.231,0,0,0-.461.777l-2.211.008a2.457,2.457,0,0,1,1.113-1.965A4.312,4.312,0,0,1,31.6-8.609a3.117,3.117,0,0,1,2.25.855,2.5,2.5,0,0,1,.68,2.121l-.648,4.047-.039.5a2.412,2.412,0,0,0,.133.938L33.969,0Zm-1.7-1.555a2.017,2.017,0,0,0,1.664-.828l.273-1.461-.766-.008a2.139,2.139,0,0,0-1.758.742,1.292,1.292,0,0,0-.242.633.75.75,0,0,0,.176.668A.891.891,0,0,0,30.109-1.555ZM43.438-4.2A6.061,6.061,0,0,1,42.219-1,3.033,3.033,0,0,1,39.672.164,2.357,2.357,0,0,1,37.641-.914L37.32,0H35.313l2.078-12H39.6L38.75-7.68a2.634,2.634,0,0,1,2.063-.93,2.385,2.385,0,0,1,1.926.879,3.89,3.89,0,0,1,.746,2.387A9.132,9.132,0,0,1,43.438-4.2ZM41.25-4.368A6.554,6.554,0,0,0,41.3-5.4q-.086-1.364-1.125-1.387a1.833,1.833,0,0,0-1.617.885l-.609,3.37a1.258,1.258,0,0,0,1.266.878q1.625.047,1.992-2.367ZM49.359-.875A2.919,2.919,0,0,1,47.031.156a2.172,2.172,0,0,1-1.844-.875A3.2,3.2,0,0,1,44.7-2.984l.914-5.469h2.2l-.93,5.5a2.175,2.175,0,0,0-.008.485.8.8,0,0,0,.867.806,2.014,2.014,0,0,0,1.7-.79l1.055-6h2.219L51.25,0H49.2ZM55.219,0H53l2.086-12H57.3Zm6.758,0a2.281,2.281,0,0,1-.086-.766,2.863,2.863,0,0,1-2.156.922,2.594,2.594,0,0,1-1.84-.723,2.186,2.186,0,0,1-.684-1.746,2.527,2.527,0,0,1,1.16-2.121,5.266,5.266,0,0,1,2.965-.738l1.031.016.109-.508a1.764,1.764,0,0,0,.023-.492.846.846,0,0,0-.277-.574.955.955,0,0,0-.629-.215,1.345,1.345,0,0,0-.875.254,1.231,1.231,0,0,0-.461.777l-2.211.008A2.457,2.457,0,0,1,59.16-7.871a4.312,4.312,0,0,1,2.613-.738,3.117,3.117,0,0,1,2.25.855,2.5,2.5,0,0,1,.68,2.121l-.648,4.047-.039.5a2.412,2.412,0,0,0,.133.938L64.141,0Zm-1.7-1.555a2.017,2.017,0,0,0,1.664-.828l.273-1.461-.766-.008a2.139,2.139,0,0,0-1.758.742,1.292,1.292,0,0,0-.242.633.75.75,0,0,0,.176.668A.891.891,0,0,0,60.281-1.555ZM71.273-6.336a4.548,4.548,0,0,0-.742-.078,2.136,2.136,0,0,0-1.867.883L67.688,0h-2.2l1.469-8.453,2.07-.008-.2,1.031a2.325,2.325,0,0,1,1.969-1.2,3.214,3.214,0,0,1,.766.109Zm3.539,3.117,2.414-5.234H79.68L74.734,1.273a4.231,4.231,0,0,1-1.246,1.641,2.723,2.723,0,0,1-1.652.523,5.035,5.035,0,0,1-1.062-.164l.164-1.719.3.016A1.651,1.651,0,0,0,72.82.781l.484-.9L71.922-8.453H74.2Z" transform="translate(1851.017 -10659.5)" fill="#ff5f65"/>
  </g>
</svg>
